%TF.GenerationSoftware,KiCad,Pcbnew,10.0.1*%
%TF.CreationDate,2026-05-22T16:04:42+05:30*%
%TF.ProjectId,VENDETTAFC,56454e44-4554-4544-9146-432e6b696361,rev?*%
%TF.SameCoordinates,Original*%
%TF.FileFunction,Soldermask,Bot*%
%TF.FilePolarity,Negative*%
%FSLAX46Y46*%
G04 Gerber Fmt 4.6, Leading zero omitted, Abs format (unit mm)*
G04 Created by KiCad (PCBNEW 10.0.1) date 2026-05-22 16:04:42*
%MOMM*%
%LPD*%
G01*
G04 APERTURE LIST*
G04 APERTURE END LIST*
G36*
X160050000Y-92275000D02*
G01*
X158850000Y-92275000D01*
X158850000Y-90475000D01*
X160050000Y-90475000D01*
X160050000Y-92275000D01*
G37*
G36*
X165650000Y-92275000D02*
G01*
X164450000Y-92275000D01*
X164450000Y-90475000D01*
X165650000Y-90475000D01*
X165650000Y-92275000D01*
G37*
G36*
X167600000Y-92275000D02*
G01*
X166400000Y-92275000D01*
X166400000Y-90475000D01*
X167600000Y-90475000D01*
X167600000Y-92275000D01*
G37*
G36*
X172200000Y-92275000D02*
G01*
X171000000Y-92275000D01*
X171000000Y-90475000D01*
X172200000Y-90475000D01*
X172200000Y-92275000D01*
G37*
G36*
X174100000Y-92275000D02*
G01*
X172900000Y-92275000D01*
X172900000Y-90475000D01*
X174100000Y-90475000D01*
X174100000Y-92275000D01*
G37*
G36*
X181700000Y-92275000D02*
G01*
X180500000Y-92275000D01*
X180500000Y-90475000D01*
X181700000Y-90475000D01*
X181700000Y-92275000D01*
G37*
G36*
X161050000Y-88275000D02*
G01*
X160450000Y-88275000D01*
X160450000Y-86725000D01*
X161050000Y-86725000D01*
X161050000Y-88275000D01*
G37*
G36*
X162050000Y-88275000D02*
G01*
X161450000Y-88275000D01*
X161450000Y-86725000D01*
X162050000Y-86725000D01*
X162050000Y-88275000D01*
G37*
G36*
X163050000Y-88275000D02*
G01*
X162450000Y-88275000D01*
X162450000Y-86725000D01*
X163050000Y-86725000D01*
X163050000Y-88275000D01*
G37*
G36*
X164050000Y-88275000D02*
G01*
X163450000Y-88275000D01*
X163450000Y-86725000D01*
X164050000Y-86725000D01*
X164050000Y-88275000D01*
G37*
G36*
X168600000Y-88275000D02*
G01*
X168000000Y-88275000D01*
X168000000Y-86725000D01*
X168600000Y-86725000D01*
X168600000Y-88275000D01*
G37*
G36*
X169600000Y-88275000D02*
G01*
X169000000Y-88275000D01*
X169000000Y-86725000D01*
X169600000Y-86725000D01*
X169600000Y-88275000D01*
G37*
G36*
X170600000Y-88275000D02*
G01*
X170000000Y-88275000D01*
X170000000Y-86725000D01*
X170600000Y-86725000D01*
X170600000Y-88275000D01*
G37*
G36*
X175100000Y-88275000D02*
G01*
X174500000Y-88275000D01*
X174500000Y-86725000D01*
X175100000Y-86725000D01*
X175100000Y-88275000D01*
G37*
G36*
X176100000Y-88275000D02*
G01*
X175500000Y-88275000D01*
X175500000Y-86725000D01*
X176100000Y-86725000D01*
X176100000Y-88275000D01*
G37*
G36*
X177100000Y-88275000D02*
G01*
X176500000Y-88275000D01*
X176500000Y-86725000D01*
X177100000Y-86725000D01*
X177100000Y-88275000D01*
G37*
G36*
X178100000Y-88275000D02*
G01*
X177500000Y-88275000D01*
X177500000Y-86725000D01*
X178100000Y-86725000D01*
X178100000Y-88275000D01*
G37*
G36*
X179100000Y-88275000D02*
G01*
X178500000Y-88275000D01*
X178500000Y-86725000D01*
X179100000Y-86725000D01*
X179100000Y-88275000D01*
G37*
G36*
X180100000Y-88275000D02*
G01*
X179500000Y-88275000D01*
X179500000Y-86725000D01*
X180100000Y-86725000D01*
X180100000Y-88275000D01*
G37*
G36*
X155429199Y-82842272D02*
G01*
X155707167Y-82916754D01*
X155973035Y-83026880D01*
X156222255Y-83170767D01*
X156450561Y-83345952D01*
X156654048Y-83549439D01*
X156829233Y-83777745D01*
X156973120Y-84026965D01*
X157083246Y-84292833D01*
X157157728Y-84570801D01*
X157195290Y-84856113D01*
X157195290Y-85143887D01*
X157157728Y-85429199D01*
X157083246Y-85707167D01*
X156973120Y-85973035D01*
X156829233Y-86222255D01*
X156654048Y-86450561D01*
X156450561Y-86654048D01*
X156222255Y-86829233D01*
X155973035Y-86973120D01*
X155707167Y-87083246D01*
X155429199Y-87157728D01*
X155143887Y-87195290D01*
X154856113Y-87195290D01*
X154570801Y-87157728D01*
X154292833Y-87083246D01*
X154026965Y-86973120D01*
X153777745Y-86829233D01*
X153549439Y-86654048D01*
X153345952Y-86450561D01*
X153170767Y-86222255D01*
X153026880Y-85973035D01*
X152916754Y-85707167D01*
X152842272Y-85429199D01*
X152804710Y-85143887D01*
X152804710Y-84856113D01*
X152842272Y-84570801D01*
X152916754Y-84292833D01*
X153026880Y-84026965D01*
X153170767Y-83777745D01*
X153345952Y-83549439D01*
X153549439Y-83345952D01*
X153777745Y-83170767D01*
X154026965Y-83026880D01*
X154292833Y-82916754D01*
X154570801Y-82842272D01*
X154856113Y-82804710D01*
X155143887Y-82804710D01*
X155429199Y-82842272D01*
G37*
G36*
X185929199Y-82842272D02*
G01*
X186207167Y-82916754D01*
X186473035Y-83026880D01*
X186722255Y-83170767D01*
X186950561Y-83345952D01*
X187154048Y-83549439D01*
X187329233Y-83777745D01*
X187473120Y-84026965D01*
X187583246Y-84292833D01*
X187657728Y-84570801D01*
X187695290Y-84856113D01*
X187695290Y-85143887D01*
X187657728Y-85429199D01*
X187583246Y-85707167D01*
X187473120Y-85973035D01*
X187329233Y-86222255D01*
X187154048Y-86450561D01*
X186950561Y-86654048D01*
X186722255Y-86829233D01*
X186473035Y-86973120D01*
X186207167Y-87083246D01*
X185929199Y-87157728D01*
X185643887Y-87195290D01*
X185356113Y-87195290D01*
X185070801Y-87157728D01*
X184792833Y-87083246D01*
X184526965Y-86973120D01*
X184277745Y-86829233D01*
X184049439Y-86654048D01*
X183845952Y-86450561D01*
X183670767Y-86222255D01*
X183526880Y-85973035D01*
X183416754Y-85707167D01*
X183342272Y-85429199D01*
X183304710Y-85143887D01*
X183304710Y-84856113D01*
X183342272Y-84570801D01*
X183416754Y-84292833D01*
X183526880Y-84026965D01*
X183670767Y-83777745D01*
X183845952Y-83549439D01*
X184049439Y-83345952D01*
X184277745Y-83170767D01*
X184526965Y-83026880D01*
X184792833Y-82916754D01*
X185070801Y-82842272D01*
X185356113Y-82804710D01*
X185643887Y-82804710D01*
X185929199Y-82842272D01*
G37*
G36*
X175816104Y-85267127D02*
G01*
X175889099Y-85315901D01*
X175937873Y-85388896D01*
X175955000Y-85475000D01*
X175955000Y-85975000D01*
X175937873Y-86061104D01*
X175889099Y-86134099D01*
X175816104Y-86182873D01*
X175730000Y-86200000D01*
X175280000Y-86200000D01*
X175193896Y-86182873D01*
X175120901Y-86134099D01*
X175072127Y-86061104D01*
X175055000Y-85975000D01*
X175055000Y-85475000D01*
X175072127Y-85388896D01*
X175120901Y-85315901D01*
X175193896Y-85267127D01*
X175280000Y-85250000D01*
X175730000Y-85250000D01*
X175816104Y-85267127D01*
G37*
G36*
X177366104Y-85267127D02*
G01*
X177439099Y-85315901D01*
X177487873Y-85388896D01*
X177505000Y-85475000D01*
X177505000Y-85975000D01*
X177487873Y-86061104D01*
X177439099Y-86134099D01*
X177366104Y-86182873D01*
X177280000Y-86200000D01*
X176830000Y-86200000D01*
X176743896Y-86182873D01*
X176670901Y-86134099D01*
X176622127Y-86061104D01*
X176605000Y-85975000D01*
X176605000Y-85475000D01*
X176622127Y-85388896D01*
X176670901Y-85315901D01*
X176743896Y-85267127D01*
X176830000Y-85250000D01*
X177280000Y-85250000D01*
X177366104Y-85267127D01*
G37*
G36*
X165274362Y-83450276D02*
G01*
X165318159Y-83479541D01*
X165347424Y-83523338D01*
X165357700Y-83575000D01*
X165357700Y-83845000D01*
X165347424Y-83896662D01*
X165318159Y-83940459D01*
X165274362Y-83969724D01*
X165222700Y-83980000D01*
X164852700Y-83980000D01*
X164801038Y-83969724D01*
X164757241Y-83940459D01*
X164727976Y-83896662D01*
X164717700Y-83845000D01*
X164717700Y-83575000D01*
X164727976Y-83523338D01*
X164757241Y-83479541D01*
X164801038Y-83450276D01*
X164852700Y-83440000D01*
X165222700Y-83440000D01*
X165274362Y-83450276D01*
G37*
G36*
X166274362Y-83450276D02*
G01*
X166318159Y-83479541D01*
X166347424Y-83523338D01*
X166357700Y-83575000D01*
X166357700Y-83845000D01*
X166347424Y-83896662D01*
X166318159Y-83940459D01*
X166274362Y-83969724D01*
X166222700Y-83980000D01*
X165852700Y-83980000D01*
X165801038Y-83969724D01*
X165757241Y-83940459D01*
X165727976Y-83896662D01*
X165717700Y-83845000D01*
X165717700Y-83575000D01*
X165727976Y-83523338D01*
X165757241Y-83479541D01*
X165801038Y-83450276D01*
X165852700Y-83440000D01*
X166222700Y-83440000D01*
X166274362Y-83450276D01*
G37*
G36*
X177709162Y-83400276D02*
G01*
X177752959Y-83429541D01*
X177782224Y-83473338D01*
X177792500Y-83525000D01*
X177792500Y-83795000D01*
X177782224Y-83846662D01*
X177752959Y-83890459D01*
X177709162Y-83919724D01*
X177657500Y-83930000D01*
X177287500Y-83930000D01*
X177235838Y-83919724D01*
X177192041Y-83890459D01*
X177162776Y-83846662D01*
X177152500Y-83795000D01*
X177152500Y-83525000D01*
X177162776Y-83473338D01*
X177192041Y-83429541D01*
X177235838Y-83400276D01*
X177287500Y-83390000D01*
X177657500Y-83390000D01*
X177709162Y-83400276D01*
G37*
G36*
X178659162Y-83400276D02*
G01*
X178702959Y-83429541D01*
X178732224Y-83473338D01*
X178742500Y-83525000D01*
X178742500Y-83795000D01*
X178732224Y-83846662D01*
X178702959Y-83890459D01*
X178659162Y-83919724D01*
X178607500Y-83930000D01*
X178237500Y-83930000D01*
X178185838Y-83919724D01*
X178142041Y-83890459D01*
X178112776Y-83846662D01*
X178102500Y-83795000D01*
X178102500Y-83525000D01*
X178112776Y-83473338D01*
X178142041Y-83429541D01*
X178185838Y-83400276D01*
X178237500Y-83390000D01*
X178607500Y-83390000D01*
X178659162Y-83400276D01*
G37*
G36*
X168824362Y-82950276D02*
G01*
X168868159Y-82979541D01*
X168897424Y-83023338D01*
X168907700Y-83075000D01*
X168907700Y-83345000D01*
X168897424Y-83396662D01*
X168868159Y-83440459D01*
X168824362Y-83469724D01*
X168772700Y-83480000D01*
X168402700Y-83480000D01*
X168351038Y-83469724D01*
X168307241Y-83440459D01*
X168277976Y-83396662D01*
X168267700Y-83345000D01*
X168267700Y-83075000D01*
X168277976Y-83023338D01*
X168307241Y-82979541D01*
X168351038Y-82950276D01*
X168402700Y-82940000D01*
X168772700Y-82940000D01*
X168824362Y-82950276D01*
G37*
G36*
X167861276Y-82910657D02*
G01*
X167906695Y-82941005D01*
X167937043Y-82986424D01*
X167947700Y-83040000D01*
X167947700Y-83320000D01*
X167937043Y-83373576D01*
X167906695Y-83418995D01*
X167861276Y-83449343D01*
X167807700Y-83460000D01*
X167467700Y-83460000D01*
X167414124Y-83449343D01*
X167368705Y-83418995D01*
X167338357Y-83373576D01*
X167327700Y-83320000D01*
X167327700Y-83040000D01*
X167338357Y-82986424D01*
X167368705Y-82941005D01*
X167414124Y-82910657D01*
X167467700Y-82900000D01*
X167807700Y-82900000D01*
X167861276Y-82910657D01*
G37*
G36*
X181509162Y-82850276D02*
G01*
X181552959Y-82879541D01*
X181582224Y-82923338D01*
X181592500Y-82975000D01*
X181592500Y-83245000D01*
X181582224Y-83296662D01*
X181552959Y-83340459D01*
X181509162Y-83369724D01*
X181457500Y-83380000D01*
X181087500Y-83380000D01*
X181035838Y-83369724D01*
X180992041Y-83340459D01*
X180962776Y-83296662D01*
X180952500Y-83245000D01*
X180952500Y-82975000D01*
X180962776Y-82923338D01*
X180992041Y-82879541D01*
X181035838Y-82850276D01*
X181087500Y-82840000D01*
X181457500Y-82840000D01*
X181509162Y-82850276D01*
G37*
G36*
X180546076Y-82810657D02*
G01*
X180591495Y-82841005D01*
X180621843Y-82886424D01*
X180632500Y-82940000D01*
X180632500Y-83220000D01*
X180621843Y-83273576D01*
X180591495Y-83318995D01*
X180546076Y-83349343D01*
X180492500Y-83360000D01*
X180152500Y-83360000D01*
X180098924Y-83349343D01*
X180053505Y-83318995D01*
X180023157Y-83273576D01*
X180012500Y-83220000D01*
X180012500Y-82940000D01*
X180023157Y-82886424D01*
X180053505Y-82841005D01*
X180098924Y-82810657D01*
X180152500Y-82800000D01*
X180492500Y-82800000D01*
X180546076Y-82810657D01*
G37*
G36*
X163264362Y-82440276D02*
G01*
X163308159Y-82469541D01*
X163337424Y-82513338D01*
X163347700Y-82565000D01*
X163347700Y-82935000D01*
X163337424Y-82986662D01*
X163308159Y-83030459D01*
X163264362Y-83059724D01*
X163212700Y-83070000D01*
X162942700Y-83070000D01*
X162891038Y-83059724D01*
X162847241Y-83030459D01*
X162817976Y-82986662D01*
X162807700Y-82935000D01*
X162807700Y-82565000D01*
X162817976Y-82513338D01*
X162847241Y-82469541D01*
X162891038Y-82440276D01*
X162942700Y-82430000D01*
X163212700Y-82430000D01*
X163264362Y-82440276D01*
G37*
G36*
X164284362Y-82440276D02*
G01*
X164328159Y-82469541D01*
X164357424Y-82513338D01*
X164367700Y-82565000D01*
X164367700Y-82935000D01*
X164357424Y-82986662D01*
X164328159Y-83030459D01*
X164284362Y-83059724D01*
X164232700Y-83070000D01*
X163962700Y-83070000D01*
X163911038Y-83059724D01*
X163867241Y-83030459D01*
X163837976Y-82986662D01*
X163827700Y-82935000D01*
X163827700Y-82565000D01*
X163837976Y-82513338D01*
X163867241Y-82469541D01*
X163911038Y-82440276D01*
X163962700Y-82430000D01*
X164232700Y-82430000D01*
X164284362Y-82440276D01*
G37*
G36*
X175699162Y-82390276D02*
G01*
X175742959Y-82419541D01*
X175772224Y-82463338D01*
X175782500Y-82515000D01*
X175782500Y-82885000D01*
X175772224Y-82936662D01*
X175742959Y-82980459D01*
X175699162Y-83009724D01*
X175647500Y-83020000D01*
X175377500Y-83020000D01*
X175325838Y-83009724D01*
X175282041Y-82980459D01*
X175252776Y-82936662D01*
X175242500Y-82885000D01*
X175242500Y-82515000D01*
X175252776Y-82463338D01*
X175282041Y-82419541D01*
X175325838Y-82390276D01*
X175377500Y-82380000D01*
X175647500Y-82380000D01*
X175699162Y-82390276D01*
G37*
G36*
X176719162Y-82390276D02*
G01*
X176762959Y-82419541D01*
X176792224Y-82463338D01*
X176802500Y-82515000D01*
X176802500Y-82885000D01*
X176792224Y-82936662D01*
X176762959Y-82980459D01*
X176719162Y-83009724D01*
X176667500Y-83020000D01*
X176397500Y-83020000D01*
X176345838Y-83009724D01*
X176302041Y-82980459D01*
X176272776Y-82936662D01*
X176262500Y-82885000D01*
X176262500Y-82515000D01*
X176272776Y-82463338D01*
X176302041Y-82419541D01*
X176345838Y-82390276D01*
X176397500Y-82380000D01*
X176667500Y-82380000D01*
X176719162Y-82390276D01*
G37*
G36*
X165274362Y-82430276D02*
G01*
X165318159Y-82459541D01*
X165347424Y-82503338D01*
X165357700Y-82555000D01*
X165357700Y-82825000D01*
X165347424Y-82876662D01*
X165318159Y-82920459D01*
X165274362Y-82949724D01*
X165222700Y-82960000D01*
X164852700Y-82960000D01*
X164801038Y-82949724D01*
X164757241Y-82920459D01*
X164727976Y-82876662D01*
X164717700Y-82825000D01*
X164717700Y-82555000D01*
X164727976Y-82503338D01*
X164757241Y-82459541D01*
X164801038Y-82430276D01*
X164852700Y-82420000D01*
X165222700Y-82420000D01*
X165274362Y-82430276D01*
G37*
G36*
X166274362Y-82430276D02*
G01*
X166318159Y-82459541D01*
X166347424Y-82503338D01*
X166357700Y-82555000D01*
X166357700Y-82825000D01*
X166347424Y-82876662D01*
X166318159Y-82920459D01*
X166274362Y-82949724D01*
X166222700Y-82960000D01*
X165852700Y-82960000D01*
X165801038Y-82949724D01*
X165757241Y-82920459D01*
X165727976Y-82876662D01*
X165717700Y-82825000D01*
X165717700Y-82555000D01*
X165727976Y-82503338D01*
X165757241Y-82459541D01*
X165801038Y-82430276D01*
X165852700Y-82420000D01*
X166222700Y-82420000D01*
X166274362Y-82430276D01*
G37*
G36*
X171263576Y-82345657D02*
G01*
X171308995Y-82376005D01*
X171339343Y-82421424D01*
X171350000Y-82475000D01*
X171350000Y-82815000D01*
X171339343Y-82868576D01*
X171308995Y-82913995D01*
X171263576Y-82944343D01*
X171210000Y-82955000D01*
X170930000Y-82955000D01*
X170876424Y-82944343D01*
X170831005Y-82913995D01*
X170800657Y-82868576D01*
X170790000Y-82815000D01*
X170790000Y-82475000D01*
X170800657Y-82421424D01*
X170831005Y-82376005D01*
X170876424Y-82345657D01*
X170930000Y-82335000D01*
X171210000Y-82335000D01*
X171263576Y-82345657D01*
G37*
G36*
X172223576Y-82345657D02*
G01*
X172268995Y-82376005D01*
X172299343Y-82421424D01*
X172310000Y-82475000D01*
X172310000Y-82815000D01*
X172299343Y-82868576D01*
X172268995Y-82913995D01*
X172223576Y-82944343D01*
X172170000Y-82955000D01*
X171890000Y-82955000D01*
X171836424Y-82944343D01*
X171791005Y-82913995D01*
X171760657Y-82868576D01*
X171750000Y-82815000D01*
X171750000Y-82475000D01*
X171760657Y-82421424D01*
X171791005Y-82376005D01*
X171836424Y-82345657D01*
X171890000Y-82335000D01*
X172170000Y-82335000D01*
X172223576Y-82345657D01*
G37*
G36*
X177709162Y-82380276D02*
G01*
X177752959Y-82409541D01*
X177782224Y-82453338D01*
X177792500Y-82505000D01*
X177792500Y-82775000D01*
X177782224Y-82826662D01*
X177752959Y-82870459D01*
X177709162Y-82899724D01*
X177657500Y-82910000D01*
X177287500Y-82910000D01*
X177235838Y-82899724D01*
X177192041Y-82870459D01*
X177162776Y-82826662D01*
X177152500Y-82775000D01*
X177152500Y-82505000D01*
X177162776Y-82453338D01*
X177192041Y-82409541D01*
X177235838Y-82380276D01*
X177287500Y-82370000D01*
X177657500Y-82370000D01*
X177709162Y-82380276D01*
G37*
G36*
X178659162Y-82380276D02*
G01*
X178702959Y-82409541D01*
X178732224Y-82453338D01*
X178742500Y-82505000D01*
X178742500Y-82775000D01*
X178732224Y-82826662D01*
X178702959Y-82870459D01*
X178659162Y-82899724D01*
X178607500Y-82910000D01*
X178237500Y-82910000D01*
X178185838Y-82899724D01*
X178142041Y-82870459D01*
X178112776Y-82826662D01*
X178102500Y-82775000D01*
X178102500Y-82505000D01*
X178112776Y-82453338D01*
X178142041Y-82409541D01*
X178185838Y-82380276D01*
X178237500Y-82370000D01*
X178607500Y-82370000D01*
X178659162Y-82380276D01*
G37*
G36*
X161820103Y-82161418D02*
G01*
X161868766Y-82193934D01*
X161901282Y-82242597D01*
X161912700Y-82300000D01*
X161912700Y-82600000D01*
X161901282Y-82657403D01*
X161868766Y-82706066D01*
X161820103Y-82738582D01*
X161762700Y-82750000D01*
X160587700Y-82750000D01*
X160530297Y-82738582D01*
X160481634Y-82706066D01*
X160449118Y-82657403D01*
X160437700Y-82600000D01*
X160437700Y-82300000D01*
X160449118Y-82242597D01*
X160481634Y-82193934D01*
X160530297Y-82161418D01*
X160587700Y-82150000D01*
X161762700Y-82150000D01*
X161820103Y-82161418D01*
G37*
G36*
X167861276Y-81950657D02*
G01*
X167906695Y-81981005D01*
X167937043Y-82026424D01*
X167947700Y-82080000D01*
X167947700Y-82360000D01*
X167937043Y-82413576D01*
X167906695Y-82458995D01*
X167861276Y-82489343D01*
X167807700Y-82500000D01*
X167467700Y-82500000D01*
X167414124Y-82489343D01*
X167368705Y-82458995D01*
X167338357Y-82413576D01*
X167327700Y-82360000D01*
X167327700Y-82080000D01*
X167338357Y-82026424D01*
X167368705Y-81981005D01*
X167414124Y-81950657D01*
X167467700Y-81940000D01*
X167807700Y-81940000D01*
X167861276Y-81950657D01*
G37*
G36*
X168824362Y-81930276D02*
G01*
X168868159Y-81959541D01*
X168897424Y-82003338D01*
X168907700Y-82055000D01*
X168907700Y-82325000D01*
X168897424Y-82376662D01*
X168868159Y-82420459D01*
X168824362Y-82449724D01*
X168772700Y-82460000D01*
X168402700Y-82460000D01*
X168351038Y-82449724D01*
X168307241Y-82420459D01*
X168277976Y-82376662D01*
X168267700Y-82325000D01*
X168267700Y-82055000D01*
X168277976Y-82003338D01*
X168307241Y-81959541D01*
X168351038Y-81930276D01*
X168402700Y-81920000D01*
X168772700Y-81920000D01*
X168824362Y-81930276D01*
G37*
G36*
X180546076Y-81850657D02*
G01*
X180591495Y-81881005D01*
X180621843Y-81926424D01*
X180632500Y-81980000D01*
X180632500Y-82260000D01*
X180621843Y-82313576D01*
X180591495Y-82358995D01*
X180546076Y-82389343D01*
X180492500Y-82400000D01*
X180152500Y-82400000D01*
X180098924Y-82389343D01*
X180053505Y-82358995D01*
X180023157Y-82313576D01*
X180012500Y-82260000D01*
X180012500Y-81980000D01*
X180023157Y-81926424D01*
X180053505Y-81881005D01*
X180098924Y-81850657D01*
X180152500Y-81840000D01*
X180492500Y-81840000D01*
X180546076Y-81850657D01*
G37*
G36*
X181509162Y-81830276D02*
G01*
X181552959Y-81859541D01*
X181582224Y-81903338D01*
X181592500Y-81955000D01*
X181592500Y-82225000D01*
X181582224Y-82276662D01*
X181552959Y-82320459D01*
X181509162Y-82349724D01*
X181457500Y-82360000D01*
X181087500Y-82360000D01*
X181035838Y-82349724D01*
X180992041Y-82320459D01*
X180962776Y-82276662D01*
X180952500Y-82225000D01*
X180952500Y-81955000D01*
X180962776Y-81903338D01*
X180992041Y-81859541D01*
X181035838Y-81830276D01*
X181087500Y-81820000D01*
X181457500Y-81820000D01*
X181509162Y-81830276D01*
G37*
G36*
X163273804Y-81042127D02*
G01*
X163346799Y-81090901D01*
X163395573Y-81163896D01*
X163412700Y-81250000D01*
X163412700Y-81750000D01*
X163395573Y-81836104D01*
X163346799Y-81909099D01*
X163273804Y-81957873D01*
X163187700Y-81975000D01*
X162737700Y-81975000D01*
X162651596Y-81957873D01*
X162578601Y-81909099D01*
X162529827Y-81836104D01*
X162512700Y-81750000D01*
X162512700Y-81250000D01*
X162529827Y-81163896D01*
X162578601Y-81090901D01*
X162651596Y-81042127D01*
X162737700Y-81025000D01*
X163187700Y-81025000D01*
X163273804Y-81042127D01*
G37*
G36*
X164823804Y-81042127D02*
G01*
X164896799Y-81090901D01*
X164945573Y-81163896D01*
X164962700Y-81250000D01*
X164962700Y-81750000D01*
X164945573Y-81836104D01*
X164896799Y-81909099D01*
X164823804Y-81957873D01*
X164737700Y-81975000D01*
X164287700Y-81975000D01*
X164201596Y-81957873D01*
X164128601Y-81909099D01*
X164079827Y-81836104D01*
X164062700Y-81750000D01*
X164062700Y-81250000D01*
X164079827Y-81163896D01*
X164128601Y-81090901D01*
X164201596Y-81042127D01*
X164287700Y-81025000D01*
X164737700Y-81025000D01*
X164823804Y-81042127D01*
G37*
G36*
X171337071Y-80637929D02*
G01*
X171340000Y-80645000D01*
X171340000Y-80654944D01*
X171340000Y-80890151D01*
X171401730Y-80915721D01*
X171460897Y-80856554D01*
X171460898Y-80856553D01*
X171467929Y-80849523D01*
X171475000Y-80846594D01*
X171482071Y-80849523D01*
X171489102Y-80856554D01*
X171548270Y-80915721D01*
X171610000Y-80890151D01*
X171610000Y-80654944D01*
X171610000Y-80645000D01*
X171612929Y-80637929D01*
X171620000Y-80635000D01*
X171980000Y-80635000D01*
X171987071Y-80637929D01*
X171990000Y-80645000D01*
X171990000Y-81135000D01*
X171987071Y-81142071D01*
X171980000Y-81145000D01*
X171970056Y-81145000D01*
X171864849Y-81145000D01*
X171839279Y-81206730D01*
X171876482Y-81243934D01*
X171920477Y-81287929D01*
X171923406Y-81295000D01*
X171920477Y-81302071D01*
X171876362Y-81346186D01*
X171839279Y-81383270D01*
X171864849Y-81445000D01*
X171980000Y-81445000D01*
X171987071Y-81447929D01*
X171990000Y-81455000D01*
X171990000Y-81945000D01*
X171987071Y-81952071D01*
X171980000Y-81955000D01*
X171970056Y-81955000D01*
X171629944Y-81955000D01*
X171620000Y-81955000D01*
X171612929Y-81952071D01*
X171610000Y-81945000D01*
X171610000Y-81699849D01*
X171548270Y-81674279D01*
X171527472Y-81695076D01*
X171482071Y-81740477D01*
X171475000Y-81743406D01*
X171467929Y-81740477D01*
X171434478Y-81707026D01*
X171401730Y-81674279D01*
X171340000Y-81699849D01*
X171340000Y-81945000D01*
X171337071Y-81952071D01*
X171330000Y-81955000D01*
X171320056Y-81955000D01*
X170979944Y-81955000D01*
X170970000Y-81955000D01*
X170962929Y-81952071D01*
X170960000Y-81945000D01*
X170960000Y-81455000D01*
X170962929Y-81447929D01*
X170970000Y-81445000D01*
X171085151Y-81445000D01*
X171110721Y-81383270D01*
X171036554Y-81309102D01*
X171029523Y-81302071D01*
X171026594Y-81295000D01*
X171029523Y-81287929D01*
X171036553Y-81280898D01*
X171036554Y-81280897D01*
X171110721Y-81206730D01*
X171085151Y-81145000D01*
X170979944Y-81145000D01*
X170970000Y-81145000D01*
X170962929Y-81142071D01*
X170960000Y-81135000D01*
X170960000Y-80645000D01*
X170962929Y-80637929D01*
X170970000Y-80635000D01*
X171330000Y-80635000D01*
X171337071Y-80637929D01*
G37*
G36*
X175808604Y-80992127D02*
G01*
X175881599Y-81040901D01*
X175930373Y-81113896D01*
X175947500Y-81200000D01*
X175947500Y-81700000D01*
X175930373Y-81786104D01*
X175881599Y-81859099D01*
X175808604Y-81907873D01*
X175722500Y-81925000D01*
X175272500Y-81925000D01*
X175186396Y-81907873D01*
X175113401Y-81859099D01*
X175064627Y-81786104D01*
X175047500Y-81700000D01*
X175047500Y-81200000D01*
X175064627Y-81113896D01*
X175113401Y-81040901D01*
X175186396Y-80992127D01*
X175272500Y-80975000D01*
X175722500Y-80975000D01*
X175808604Y-80992127D01*
G37*
G36*
X177358604Y-80992127D02*
G01*
X177431599Y-81040901D01*
X177480373Y-81113896D01*
X177497500Y-81200000D01*
X177497500Y-81700000D01*
X177480373Y-81786104D01*
X177431599Y-81859099D01*
X177358604Y-81907873D01*
X177272500Y-81925000D01*
X176822500Y-81925000D01*
X176736396Y-81907873D01*
X176663401Y-81859099D01*
X176614627Y-81786104D01*
X176597500Y-81700000D01*
X176597500Y-81200000D01*
X176614627Y-81113896D01*
X176663401Y-81040901D01*
X176736396Y-80992127D01*
X176822500Y-80975000D01*
X177272500Y-80975000D01*
X177358604Y-80992127D01*
G37*
G36*
X159945103Y-81211418D02*
G01*
X159993766Y-81243934D01*
X160026282Y-81292597D01*
X160037700Y-81350000D01*
X160037700Y-81650000D01*
X160026282Y-81707403D01*
X159993766Y-81756066D01*
X159945103Y-81788582D01*
X159887700Y-81800000D01*
X158712700Y-81800000D01*
X158655297Y-81788582D01*
X158606634Y-81756066D01*
X158574118Y-81707403D01*
X158562700Y-81650000D01*
X158562700Y-81350000D01*
X158574118Y-81292597D01*
X158606634Y-81243934D01*
X158655297Y-81211418D01*
X158712700Y-81200000D01*
X159887700Y-81200000D01*
X159945103Y-81211418D01*
G37*
G36*
X190275000Y-81400000D02*
G01*
X188475000Y-81400000D01*
X188475000Y-80200000D01*
X190275000Y-80200000D01*
X190275000Y-81400000D01*
G37*
G36*
X152025000Y-81100000D02*
G01*
X150225000Y-81100000D01*
X150225000Y-79900000D01*
X152025000Y-79900000D01*
X152025000Y-81100000D01*
G37*
G36*
X166662700Y-80949999D02*
G01*
X165612700Y-80949999D01*
X165612700Y-80599999D01*
X166662700Y-80599999D01*
X166662700Y-80949999D01*
G37*
G36*
X168962700Y-80949999D02*
G01*
X167912700Y-80949999D01*
X167912700Y-80599999D01*
X168962700Y-80599999D01*
X168962700Y-80949999D01*
G37*
G36*
X161820103Y-80261418D02*
G01*
X161868766Y-80293934D01*
X161901282Y-80342597D01*
X161912700Y-80400000D01*
X161912700Y-80700000D01*
X161901282Y-80757403D01*
X161868766Y-80806066D01*
X161820103Y-80838582D01*
X161762700Y-80850000D01*
X160587700Y-80850000D01*
X160530297Y-80838582D01*
X160481634Y-80806066D01*
X160449118Y-80757403D01*
X160437700Y-80700000D01*
X160437700Y-80400000D01*
X160449118Y-80342597D01*
X160481634Y-80293934D01*
X160530297Y-80261418D01*
X160587700Y-80250000D01*
X161762700Y-80250000D01*
X161820103Y-80261418D01*
G37*
G36*
X179275000Y-80849999D02*
G01*
X178225000Y-80849999D01*
X178225000Y-80499999D01*
X179275000Y-80499999D01*
X179275000Y-80849999D01*
G37*
G36*
X181575000Y-80849999D02*
G01*
X180525000Y-80849999D01*
X180525000Y-80499999D01*
X181575000Y-80499999D01*
X181575000Y-80849999D01*
G37*
G36*
X163456646Y-79991228D02*
G01*
X163504498Y-80023202D01*
X163536472Y-80071054D01*
X163547700Y-80127500D01*
X163547700Y-80472500D01*
X163536472Y-80528946D01*
X163504498Y-80576798D01*
X163456646Y-80608772D01*
X163400200Y-80620000D01*
X163105200Y-80620000D01*
X163048754Y-80608772D01*
X163000902Y-80576798D01*
X162968928Y-80528946D01*
X162957700Y-80472500D01*
X162957700Y-80127500D01*
X162968928Y-80071054D01*
X163000902Y-80023202D01*
X163048754Y-79991228D01*
X163105200Y-79980000D01*
X163400200Y-79980000D01*
X163456646Y-79991228D01*
G37*
G36*
X164426646Y-79991228D02*
G01*
X164474498Y-80023202D01*
X164506472Y-80071054D01*
X164517700Y-80127500D01*
X164517700Y-80472500D01*
X164506472Y-80528946D01*
X164474498Y-80576798D01*
X164426646Y-80608772D01*
X164370200Y-80620000D01*
X164075200Y-80620000D01*
X164018754Y-80608772D01*
X163970902Y-80576798D01*
X163938928Y-80528946D01*
X163927700Y-80472500D01*
X163927700Y-80127500D01*
X163938928Y-80071054D01*
X163970902Y-80023202D01*
X164018754Y-79991228D01*
X164075200Y-79980000D01*
X164370200Y-79980000D01*
X164426646Y-79991228D01*
G37*
G36*
X176041446Y-79891228D02*
G01*
X176089298Y-79923202D01*
X176121272Y-79971054D01*
X176132500Y-80027500D01*
X176132500Y-80372500D01*
X176121272Y-80428946D01*
X176089298Y-80476798D01*
X176041446Y-80508772D01*
X175985000Y-80520000D01*
X175690000Y-80520000D01*
X175633554Y-80508772D01*
X175585702Y-80476798D01*
X175553728Y-80428946D01*
X175542500Y-80372500D01*
X175542500Y-80027500D01*
X175553728Y-79971054D01*
X175585702Y-79923202D01*
X175633554Y-79891228D01*
X175690000Y-79880000D01*
X175985000Y-79880000D01*
X176041446Y-79891228D01*
G37*
G36*
X177011446Y-79891228D02*
G01*
X177059298Y-79923202D01*
X177091272Y-79971054D01*
X177102500Y-80027500D01*
X177102500Y-80372500D01*
X177091272Y-80428946D01*
X177059298Y-80476798D01*
X177011446Y-80508772D01*
X176955000Y-80520000D01*
X176660000Y-80520000D01*
X176603554Y-80508772D01*
X176555702Y-80476798D01*
X176523728Y-80428946D01*
X176512500Y-80372500D01*
X176512500Y-80027500D01*
X176523728Y-79971054D01*
X176555702Y-79923202D01*
X176603554Y-79891228D01*
X176660000Y-79880000D01*
X176955000Y-79880000D01*
X177011446Y-79891228D01*
G37*
G36*
X166662700Y-80300001D02*
G01*
X165612700Y-80300001D01*
X165612700Y-79950001D01*
X166662700Y-79950001D01*
X166662700Y-80300001D01*
G37*
G36*
X168962700Y-80300001D02*
G01*
X167912700Y-80300001D01*
X167912700Y-79950001D01*
X168962700Y-79950001D01*
X168962700Y-80300001D01*
G37*
G36*
X171163576Y-79645657D02*
G01*
X171208995Y-79676005D01*
X171239343Y-79721424D01*
X171250000Y-79775000D01*
X171250000Y-80115000D01*
X171239343Y-80168576D01*
X171208995Y-80213995D01*
X171163576Y-80244343D01*
X171110000Y-80255000D01*
X170830000Y-80255000D01*
X170776424Y-80244343D01*
X170731005Y-80213995D01*
X170700657Y-80168576D01*
X170690000Y-80115000D01*
X170690000Y-79775000D01*
X170700657Y-79721424D01*
X170731005Y-79676005D01*
X170776424Y-79645657D01*
X170830000Y-79635000D01*
X171110000Y-79635000D01*
X171163576Y-79645657D01*
G37*
G36*
X172123576Y-79645657D02*
G01*
X172168995Y-79676005D01*
X172199343Y-79721424D01*
X172210000Y-79775000D01*
X172210000Y-80115000D01*
X172199343Y-80168576D01*
X172168995Y-80213995D01*
X172123576Y-80244343D01*
X172070000Y-80255000D01*
X171790000Y-80255000D01*
X171736424Y-80244343D01*
X171691005Y-80213995D01*
X171660657Y-80168576D01*
X171650000Y-80115000D01*
X171650000Y-79775000D01*
X171660657Y-79721424D01*
X171691005Y-79676005D01*
X171736424Y-79645657D01*
X171790000Y-79635000D01*
X172070000Y-79635000D01*
X172123576Y-79645657D01*
G37*
G36*
X179275000Y-80200001D02*
G01*
X178225000Y-80200001D01*
X178225000Y-79850001D01*
X179275000Y-79850001D01*
X179275000Y-80200001D01*
G37*
G36*
X181575000Y-80200001D02*
G01*
X180525000Y-80200001D01*
X180525000Y-79850001D01*
X181575000Y-79850001D01*
X181575000Y-80200001D01*
G37*
G36*
X186275000Y-79800000D02*
G01*
X184725000Y-79800000D01*
X184725000Y-79200000D01*
X186275000Y-79200000D01*
X186275000Y-79800000D01*
G37*
G36*
X166662700Y-79649999D02*
G01*
X165612700Y-79649999D01*
X165612700Y-79299999D01*
X166662700Y-79299999D01*
X166662700Y-79649999D01*
G37*
G36*
X168962700Y-79649999D02*
G01*
X167912700Y-79649999D01*
X167912700Y-79299999D01*
X168962700Y-79299999D01*
X168962700Y-79649999D01*
G37*
G36*
X164724362Y-79050276D02*
G01*
X164768159Y-79079541D01*
X164797424Y-79123338D01*
X164807700Y-79175000D01*
X164807700Y-79445000D01*
X164797424Y-79496662D01*
X164768159Y-79540459D01*
X164724362Y-79569724D01*
X164672700Y-79580000D01*
X164302700Y-79580000D01*
X164251038Y-79569724D01*
X164207241Y-79540459D01*
X164177976Y-79496662D01*
X164167700Y-79445000D01*
X164167700Y-79175000D01*
X164177976Y-79123338D01*
X164207241Y-79079541D01*
X164251038Y-79050276D01*
X164302700Y-79040000D01*
X164672700Y-79040000D01*
X164724362Y-79050276D01*
G37*
G36*
X179275000Y-79549999D02*
G01*
X178225000Y-79549999D01*
X178225000Y-79199999D01*
X179275000Y-79199999D01*
X179275000Y-79549999D01*
G37*
G36*
X181575000Y-79549999D02*
G01*
X180525000Y-79549999D01*
X180525000Y-79199999D01*
X181575000Y-79199999D01*
X181575000Y-79549999D01*
G37*
G36*
X155775000Y-79500000D02*
G01*
X154225000Y-79500000D01*
X154225000Y-78900000D01*
X155775000Y-78900000D01*
X155775000Y-79500000D01*
G37*
G36*
X162053804Y-78592127D02*
G01*
X162126799Y-78640901D01*
X162175573Y-78713896D01*
X162192700Y-78800000D01*
X162192700Y-79250000D01*
X162175573Y-79336104D01*
X162126799Y-79409099D01*
X162053804Y-79457873D01*
X161967700Y-79475000D01*
X161467700Y-79475000D01*
X161381596Y-79457873D01*
X161308601Y-79409099D01*
X161259827Y-79336104D01*
X161242700Y-79250000D01*
X161242700Y-78800000D01*
X161259827Y-78713896D01*
X161308601Y-78640901D01*
X161381596Y-78592127D01*
X161467700Y-78575000D01*
X161967700Y-78575000D01*
X162053804Y-78592127D01*
G37*
G36*
X163573804Y-78592127D02*
G01*
X163646799Y-78640901D01*
X163695573Y-78713896D01*
X163712700Y-78800000D01*
X163712700Y-79250000D01*
X163695573Y-79336104D01*
X163646799Y-79409099D01*
X163573804Y-79457873D01*
X163487700Y-79475000D01*
X162987700Y-79475000D01*
X162901596Y-79457873D01*
X162828601Y-79409099D01*
X162779827Y-79336104D01*
X162762700Y-79250000D01*
X162762700Y-78800000D01*
X162779827Y-78713896D01*
X162828601Y-78640901D01*
X162901596Y-78592127D01*
X162987700Y-78575000D01*
X163487700Y-78575000D01*
X163573804Y-78592127D01*
G37*
G36*
X177359162Y-78900276D02*
G01*
X177402959Y-78929541D01*
X177432224Y-78973338D01*
X177442500Y-79025000D01*
X177442500Y-79295000D01*
X177432224Y-79346662D01*
X177402959Y-79390459D01*
X177359162Y-79419724D01*
X177307500Y-79430000D01*
X176937500Y-79430000D01*
X176885838Y-79419724D01*
X176842041Y-79390459D01*
X176812776Y-79346662D01*
X176802500Y-79295000D01*
X176802500Y-79025000D01*
X176812776Y-78973338D01*
X176842041Y-78929541D01*
X176885838Y-78900276D01*
X176937500Y-78890000D01*
X177307500Y-78890000D01*
X177359162Y-78900276D01*
G37*
G36*
X174708604Y-78442127D02*
G01*
X174781599Y-78490901D01*
X174830373Y-78563896D01*
X174847500Y-78650000D01*
X174847500Y-79100000D01*
X174830373Y-79186104D01*
X174781599Y-79259099D01*
X174708604Y-79307873D01*
X174622500Y-79325000D01*
X174122500Y-79325000D01*
X174036396Y-79307873D01*
X173963401Y-79259099D01*
X173914627Y-79186104D01*
X173897500Y-79100000D01*
X173897500Y-78650000D01*
X173914627Y-78563896D01*
X173963401Y-78490901D01*
X174036396Y-78442127D01*
X174122500Y-78425000D01*
X174622500Y-78425000D01*
X174708604Y-78442127D01*
G37*
G36*
X176198604Y-78442127D02*
G01*
X176271599Y-78490901D01*
X176320373Y-78563896D01*
X176337500Y-78650000D01*
X176337500Y-79100000D01*
X176320373Y-79186104D01*
X176271599Y-79259099D01*
X176198604Y-79307873D01*
X176112500Y-79325000D01*
X175612500Y-79325000D01*
X175526396Y-79307873D01*
X175453401Y-79259099D01*
X175404627Y-79186104D01*
X175387500Y-79100000D01*
X175387500Y-78650000D01*
X175404627Y-78563896D01*
X175453401Y-78490901D01*
X175526396Y-78442127D01*
X175612500Y-78425000D01*
X176112500Y-78425000D01*
X176198604Y-78442127D01*
G37*
G36*
X171695000Y-79200000D02*
G01*
X170695000Y-79200000D01*
X170695000Y-78230000D01*
X171695000Y-78230000D01*
X171695000Y-79200000D01*
G37*
G36*
X173165000Y-79200000D02*
G01*
X172165000Y-79200000D01*
X172165000Y-78230000D01*
X173165000Y-78230000D01*
X173165000Y-79200000D01*
G37*
G36*
X166662700Y-79000001D02*
G01*
X165612700Y-79000001D01*
X165612700Y-78650001D01*
X166662700Y-78650001D01*
X166662700Y-79000001D01*
G37*
G36*
X168972700Y-79000001D02*
G01*
X167922700Y-79000001D01*
X167922700Y-78650001D01*
X168972700Y-78650001D01*
X168972700Y-79000001D01*
G37*
G36*
X179275000Y-78900001D02*
G01*
X178225000Y-78900001D01*
X178225000Y-78550001D01*
X179275000Y-78550001D01*
X179275000Y-78900001D01*
G37*
G36*
X181575000Y-78900001D02*
G01*
X180525000Y-78900001D01*
X180525000Y-78550001D01*
X181575000Y-78550001D01*
X181575000Y-78900001D01*
G37*
G36*
X186275000Y-78800000D02*
G01*
X184725000Y-78800000D01*
X184725000Y-78200000D01*
X186275000Y-78200000D01*
X186275000Y-78800000D01*
G37*
G36*
X164724362Y-78030276D02*
G01*
X164768159Y-78059541D01*
X164797424Y-78103338D01*
X164807700Y-78155000D01*
X164807700Y-78425000D01*
X164797424Y-78476662D01*
X164768159Y-78520459D01*
X164724362Y-78549724D01*
X164672700Y-78560000D01*
X164302700Y-78560000D01*
X164251038Y-78549724D01*
X164207241Y-78520459D01*
X164177976Y-78476662D01*
X164167700Y-78425000D01*
X164167700Y-78155000D01*
X164177976Y-78103338D01*
X164207241Y-78059541D01*
X164251038Y-78030276D01*
X164302700Y-78020000D01*
X164672700Y-78020000D01*
X164724362Y-78030276D01*
G37*
G36*
X155775000Y-78500000D02*
G01*
X154225000Y-78500000D01*
X154225000Y-77900000D01*
X155775000Y-77900000D01*
X155775000Y-78500000D01*
G37*
G36*
X177359162Y-77880276D02*
G01*
X177402959Y-77909541D01*
X177432224Y-77953338D01*
X177442500Y-78005000D01*
X177442500Y-78275000D01*
X177432224Y-78326662D01*
X177402959Y-78370459D01*
X177359162Y-78399724D01*
X177307500Y-78410000D01*
X176937500Y-78410000D01*
X176885838Y-78399724D01*
X176842041Y-78370459D01*
X176812776Y-78326662D01*
X176802500Y-78275000D01*
X176802500Y-78005000D01*
X176812776Y-77953338D01*
X176842041Y-77909541D01*
X176885838Y-77880276D01*
X176937500Y-77870000D01*
X177307500Y-77870000D01*
X177359162Y-77880276D01*
G37*
G36*
X162053804Y-77042127D02*
G01*
X162126799Y-77090901D01*
X162175573Y-77163896D01*
X162192700Y-77250000D01*
X162192700Y-77700000D01*
X162175573Y-77786104D01*
X162126799Y-77859099D01*
X162053804Y-77907873D01*
X161967700Y-77925000D01*
X161467700Y-77925000D01*
X161381596Y-77907873D01*
X161308601Y-77859099D01*
X161259827Y-77786104D01*
X161242700Y-77700000D01*
X161242700Y-77250000D01*
X161259827Y-77163896D01*
X161308601Y-77090901D01*
X161381596Y-77042127D01*
X161467700Y-77025000D01*
X161967700Y-77025000D01*
X162053804Y-77042127D01*
G37*
G36*
X163573804Y-77042127D02*
G01*
X163646799Y-77090901D01*
X163695573Y-77163896D01*
X163712700Y-77250000D01*
X163712700Y-77700000D01*
X163695573Y-77786104D01*
X163646799Y-77859099D01*
X163573804Y-77907873D01*
X163487700Y-77925000D01*
X162987700Y-77925000D01*
X162901596Y-77907873D01*
X162828601Y-77859099D01*
X162779827Y-77786104D01*
X162762700Y-77700000D01*
X162762700Y-77250000D01*
X162779827Y-77163896D01*
X162828601Y-77090901D01*
X162901596Y-77042127D01*
X162987700Y-77025000D01*
X163487700Y-77025000D01*
X163573804Y-77042127D01*
G37*
G36*
X186275000Y-77800000D02*
G01*
X184725000Y-77800000D01*
X184725000Y-77200000D01*
X186275000Y-77200000D01*
X186275000Y-77800000D01*
G37*
G36*
X174708604Y-76892127D02*
G01*
X174781599Y-76940901D01*
X174830373Y-77013896D01*
X174847500Y-77100000D01*
X174847500Y-77550000D01*
X174830373Y-77636104D01*
X174781599Y-77709099D01*
X174708604Y-77757873D01*
X174622500Y-77775000D01*
X174122500Y-77775000D01*
X174036396Y-77757873D01*
X173963401Y-77709099D01*
X173914627Y-77636104D01*
X173897500Y-77550000D01*
X173897500Y-77100000D01*
X173914627Y-77013896D01*
X173963401Y-76940901D01*
X174036396Y-76892127D01*
X174122500Y-76875000D01*
X174622500Y-76875000D01*
X174708604Y-76892127D01*
G37*
G36*
X176198604Y-76892127D02*
G01*
X176271599Y-76940901D01*
X176320373Y-77013896D01*
X176337500Y-77100000D01*
X176337500Y-77550000D01*
X176320373Y-77636104D01*
X176271599Y-77709099D01*
X176198604Y-77757873D01*
X176112500Y-77775000D01*
X175612500Y-77775000D01*
X175526396Y-77757873D01*
X175453401Y-77709099D01*
X175404627Y-77636104D01*
X175387500Y-77550000D01*
X175387500Y-77100000D01*
X175404627Y-77013896D01*
X175453401Y-76940901D01*
X175526396Y-76892127D01*
X175612500Y-76875000D01*
X176112500Y-76875000D01*
X176198604Y-76892127D01*
G37*
G36*
X179586076Y-77000657D02*
G01*
X179631495Y-77031005D01*
X179661843Y-77076424D01*
X179672500Y-77130000D01*
X179672500Y-77470000D01*
X179661843Y-77523576D01*
X179631495Y-77568995D01*
X179586076Y-77599343D01*
X179532500Y-77610000D01*
X179252500Y-77610000D01*
X179198924Y-77599343D01*
X179153505Y-77568995D01*
X179123157Y-77523576D01*
X179112500Y-77470000D01*
X179112500Y-77130000D01*
X179123157Y-77076424D01*
X179153505Y-77031005D01*
X179198924Y-77000657D01*
X179252500Y-76990000D01*
X179532500Y-76990000D01*
X179586076Y-77000657D01*
G37*
G36*
X180546076Y-77000657D02*
G01*
X180591495Y-77031005D01*
X180621843Y-77076424D01*
X180632500Y-77130000D01*
X180632500Y-77470000D01*
X180621843Y-77523576D01*
X180591495Y-77568995D01*
X180546076Y-77599343D01*
X180492500Y-77610000D01*
X180212500Y-77610000D01*
X180158924Y-77599343D01*
X180113505Y-77568995D01*
X180083157Y-77523576D01*
X180072500Y-77470000D01*
X180072500Y-77130000D01*
X180083157Y-77076424D01*
X180113505Y-77031005D01*
X180158924Y-77000657D01*
X180212500Y-76990000D01*
X180492500Y-76990000D01*
X180546076Y-77000657D01*
G37*
G36*
X155775000Y-77500000D02*
G01*
X154225000Y-77500000D01*
X154225000Y-76900000D01*
X155775000Y-76900000D01*
X155775000Y-77500000D01*
G37*
G36*
X167163576Y-76700657D02*
G01*
X167208995Y-76731005D01*
X167239343Y-76776424D01*
X167250000Y-76830000D01*
X167250000Y-77170000D01*
X167239343Y-77223576D01*
X167208995Y-77268995D01*
X167163576Y-77299343D01*
X167110000Y-77310000D01*
X166830000Y-77310000D01*
X166776424Y-77299343D01*
X166731005Y-77268995D01*
X166700657Y-77223576D01*
X166690000Y-77170000D01*
X166690000Y-76830000D01*
X166700657Y-76776424D01*
X166731005Y-76731005D01*
X166776424Y-76700657D01*
X166830000Y-76690000D01*
X167110000Y-76690000D01*
X167163576Y-76700657D01*
G37*
G36*
X168123576Y-76700657D02*
G01*
X168168995Y-76731005D01*
X168199343Y-76776424D01*
X168210000Y-76830000D01*
X168210000Y-77170000D01*
X168199343Y-77223576D01*
X168168995Y-77268995D01*
X168123576Y-77299343D01*
X168070000Y-77310000D01*
X167790000Y-77310000D01*
X167736424Y-77299343D01*
X167691005Y-77268995D01*
X167660657Y-77223576D01*
X167650000Y-77170000D01*
X167650000Y-76830000D01*
X167660657Y-76776424D01*
X167691005Y-76731005D01*
X167736424Y-76700657D01*
X167790000Y-76690000D01*
X168070000Y-76690000D01*
X168123576Y-76700657D01*
G37*
G36*
X190275000Y-76800000D02*
G01*
X188475000Y-76800000D01*
X188475000Y-75600000D01*
X190275000Y-75600000D01*
X190275000Y-76800000D01*
G37*
G36*
X152025000Y-76500000D02*
G01*
X150225000Y-76500000D01*
X150225000Y-75300000D01*
X152025000Y-75300000D01*
X152025000Y-76500000D01*
G37*
G36*
X152075000Y-74050000D02*
G01*
X150275000Y-74050000D01*
X150275000Y-72850000D01*
X152075000Y-72850000D01*
X152075000Y-74050000D01*
G37*
G36*
X175106662Y-73490276D02*
G01*
X175150459Y-73519541D01*
X175179724Y-73563338D01*
X175190000Y-73615000D01*
X175190000Y-73885000D01*
X175179724Y-73936662D01*
X175150459Y-73980459D01*
X175106662Y-74009724D01*
X175055000Y-74020000D01*
X174685000Y-74020000D01*
X174633338Y-74009724D01*
X174589541Y-73980459D01*
X174560276Y-73936662D01*
X174550000Y-73885000D01*
X174550000Y-73615000D01*
X174560276Y-73563338D01*
X174589541Y-73519541D01*
X174633338Y-73490276D01*
X174685000Y-73480000D01*
X175055000Y-73480000D01*
X175106662Y-73490276D01*
G37*
G36*
X169773576Y-72975657D02*
G01*
X169818995Y-73006005D01*
X169849343Y-73051424D01*
X169860000Y-73105000D01*
X169860000Y-73385000D01*
X169849343Y-73438576D01*
X169818995Y-73483995D01*
X169773576Y-73514343D01*
X169720000Y-73525000D01*
X169380000Y-73525000D01*
X169326424Y-73514343D01*
X169281005Y-73483995D01*
X169250657Y-73438576D01*
X169240000Y-73385000D01*
X169240000Y-73105000D01*
X169250657Y-73051424D01*
X169281005Y-73006005D01*
X169326424Y-72975657D01*
X169380000Y-72965000D01*
X169720000Y-72965000D01*
X169773576Y-72975657D01*
G37*
G36*
X176448576Y-72830657D02*
G01*
X176493995Y-72861005D01*
X176524343Y-72906424D01*
X176535000Y-72960000D01*
X176535000Y-73300000D01*
X176524343Y-73353576D01*
X176493995Y-73398995D01*
X176448576Y-73429343D01*
X176395000Y-73440000D01*
X176115000Y-73440000D01*
X176061424Y-73429343D01*
X176016005Y-73398995D01*
X175985657Y-73353576D01*
X175975000Y-73300000D01*
X175975000Y-72960000D01*
X175985657Y-72906424D01*
X176016005Y-72861005D01*
X176061424Y-72830657D01*
X176115000Y-72820000D01*
X176395000Y-72820000D01*
X176448576Y-72830657D01*
G37*
G36*
X177408576Y-72830657D02*
G01*
X177453995Y-72861005D01*
X177484343Y-72906424D01*
X177495000Y-72960000D01*
X177495000Y-73300000D01*
X177484343Y-73353576D01*
X177453995Y-73398995D01*
X177408576Y-73429343D01*
X177355000Y-73440000D01*
X177075000Y-73440000D01*
X177021424Y-73429343D01*
X176976005Y-73398995D01*
X176945657Y-73353576D01*
X176935000Y-73300000D01*
X176935000Y-72960000D01*
X176945657Y-72906424D01*
X176976005Y-72861005D01*
X177021424Y-72830657D01*
X177075000Y-72820000D01*
X177355000Y-72820000D01*
X177408576Y-72830657D01*
G37*
G36*
X190225000Y-73150000D02*
G01*
X188425000Y-73150000D01*
X188425000Y-71950000D01*
X190225000Y-71950000D01*
X190225000Y-73150000D01*
G37*
G36*
X162060000Y-73095000D02*
G01*
X159940000Y-73095000D01*
X159940000Y-70815000D01*
X162060000Y-70815000D01*
X162060000Y-73095000D01*
G37*
G36*
X175106662Y-72470276D02*
G01*
X175150459Y-72499541D01*
X175179724Y-72543338D01*
X175190000Y-72595000D01*
X175190000Y-72865000D01*
X175179724Y-72916662D01*
X175150459Y-72960459D01*
X175106662Y-72989724D01*
X175055000Y-73000000D01*
X174685000Y-73000000D01*
X174633338Y-72989724D01*
X174589541Y-72960459D01*
X174560276Y-72916662D01*
X174550000Y-72865000D01*
X174550000Y-72595000D01*
X174560276Y-72543338D01*
X174589541Y-72499541D01*
X174633338Y-72470276D01*
X174685000Y-72460000D01*
X175055000Y-72460000D01*
X175106662Y-72470276D01*
G37*
G36*
X156714372Y-72359739D02*
G01*
X156787847Y-72402160D01*
X156847840Y-72462153D01*
X156890261Y-72535628D01*
X156912220Y-72617579D01*
X156912220Y-72702421D01*
X156890261Y-72784372D01*
X156847840Y-72857847D01*
X156787847Y-72917840D01*
X156714372Y-72960261D01*
X156632421Y-72982220D01*
X156547579Y-72982220D01*
X156465628Y-72960261D01*
X156392153Y-72917840D01*
X156332160Y-72857847D01*
X156289739Y-72784372D01*
X156267780Y-72702421D01*
X156267780Y-72617579D01*
X156289739Y-72535628D01*
X156332160Y-72462153D01*
X156392153Y-72402160D01*
X156465628Y-72359739D01*
X156547579Y-72337780D01*
X156632421Y-72337780D01*
X156714372Y-72359739D01*
G37*
G36*
X172208644Y-70395136D02*
G01*
X172210673Y-70395474D01*
X172210683Y-70395475D01*
X172214546Y-70396119D01*
X172221099Y-70397055D01*
X172221188Y-70397068D01*
X172221414Y-70397101D01*
X172221644Y-70397136D01*
X172221877Y-70397174D01*
X172221904Y-70397179D01*
X172232242Y-70398902D01*
X172232247Y-70398903D01*
X172233644Y-70399136D01*
X172234747Y-70399385D01*
X172236100Y-70399771D01*
X172236115Y-70399775D01*
X172241234Y-70401238D01*
X172241252Y-70401243D01*
X172241747Y-70401385D01*
X172242162Y-70401513D01*
X172242662Y-70401679D01*
X172242676Y-70401684D01*
X172246473Y-70402950D01*
X172248162Y-70403513D01*
X172249472Y-70404056D01*
X172251056Y-70404848D01*
X172251068Y-70404853D01*
X172260600Y-70409619D01*
X172260620Y-70409630D01*
X172261472Y-70410056D01*
X172262145Y-70410425D01*
X172265801Y-70412619D01*
X172265993Y-70412734D01*
X172267675Y-70413657D01*
X172270109Y-70414873D01*
X172270119Y-70414879D01*
X172272472Y-70416056D01*
X172274247Y-70417191D01*
X172278079Y-70420256D01*
X172279786Y-70421505D01*
X172284547Y-70424679D01*
X172285247Y-70425191D01*
X172290247Y-70429191D01*
X172291809Y-70430753D01*
X172293543Y-70432921D01*
X172297078Y-70436456D01*
X172299247Y-70438191D01*
X172300809Y-70439753D01*
X172304809Y-70444753D01*
X172305321Y-70445453D01*
X172308352Y-70449999D01*
X172308482Y-70450195D01*
X172309755Y-70451935D01*
X172311003Y-70453496D01*
X172325986Y-70472203D01*
X172374014Y-70472203D01*
X172388996Y-70453496D01*
X172390244Y-70451935D01*
X172391518Y-70450195D01*
X172391649Y-70449999D01*
X172392370Y-70448916D01*
X172394075Y-70446358D01*
X172394082Y-70446347D01*
X172394679Y-70445453D01*
X172395191Y-70444753D01*
X172399191Y-70439753D01*
X172400753Y-70438191D01*
X172402924Y-70436453D01*
X172406453Y-70432924D01*
X172408191Y-70430753D01*
X172409753Y-70429191D01*
X172414753Y-70425191D01*
X172415453Y-70424679D01*
X172416347Y-70424082D01*
X172416358Y-70424075D01*
X172418912Y-70422373D01*
X172420194Y-70421518D01*
X172421936Y-70420244D01*
X172424437Y-70418243D01*
X172424444Y-70418237D01*
X172425753Y-70417191D01*
X172426855Y-70416425D01*
X172428284Y-70415567D01*
X172428295Y-70415560D01*
X172431031Y-70413918D01*
X172431058Y-70413903D01*
X172431855Y-70413425D01*
X172432528Y-70413056D01*
X172433368Y-70412635D01*
X172433399Y-70412619D01*
X172448931Y-70404853D01*
X172448948Y-70404845D01*
X172450528Y-70404056D01*
X172451838Y-70403513D01*
X172453521Y-70402951D01*
X172453526Y-70402950D01*
X172457323Y-70401684D01*
X172457350Y-70401675D01*
X172457838Y-70401513D01*
X172458253Y-70401385D01*
X172458734Y-70401247D01*
X172458765Y-70401238D01*
X172463884Y-70399775D01*
X172463902Y-70399770D01*
X172465253Y-70399385D01*
X172466356Y-70399136D01*
X172467748Y-70398903D01*
X172467757Y-70398902D01*
X172478095Y-70397179D01*
X172478134Y-70397172D01*
X172478356Y-70397136D01*
X172478586Y-70397101D01*
X172478797Y-70397070D01*
X172478900Y-70397055D01*
X172485454Y-70396119D01*
X172489316Y-70395475D01*
X172489327Y-70395474D01*
X172491356Y-70395136D01*
X172493000Y-70395000D01*
X172707000Y-70395000D01*
X172708644Y-70395136D01*
X172710673Y-70395474D01*
X172710683Y-70395475D01*
X172714546Y-70396119D01*
X172721099Y-70397055D01*
X172721188Y-70397068D01*
X172721414Y-70397101D01*
X172721644Y-70397136D01*
X172721877Y-70397174D01*
X172721904Y-70397179D01*
X172732242Y-70398902D01*
X172732247Y-70398903D01*
X172733644Y-70399136D01*
X172734747Y-70399385D01*
X172736100Y-70399771D01*
X172736115Y-70399775D01*
X172741234Y-70401238D01*
X172741252Y-70401243D01*
X172741747Y-70401385D01*
X172742162Y-70401513D01*
X172742662Y-70401679D01*
X172742676Y-70401684D01*
X172746473Y-70402950D01*
X172748162Y-70403513D01*
X172749472Y-70404056D01*
X172751056Y-70404848D01*
X172751068Y-70404853D01*
X172766600Y-70412619D01*
X172766620Y-70412630D01*
X172767472Y-70413056D01*
X172768145Y-70413425D01*
X172768952Y-70413909D01*
X172768968Y-70413918D01*
X172771704Y-70415560D01*
X172771708Y-70415562D01*
X172773145Y-70416425D01*
X172774247Y-70417191D01*
X172778079Y-70420256D01*
X172779786Y-70421505D01*
X172784547Y-70424679D01*
X172785247Y-70425191D01*
X172790247Y-70429191D01*
X172791809Y-70430753D01*
X172793543Y-70432921D01*
X172797078Y-70436456D01*
X172799247Y-70438191D01*
X172800809Y-70439753D01*
X172804809Y-70444753D01*
X172805321Y-70445453D01*
X172808352Y-70449999D01*
X172808482Y-70450195D01*
X172809755Y-70451935D01*
X172811003Y-70453496D01*
X172825986Y-70472203D01*
X172874014Y-70472203D01*
X172888996Y-70453496D01*
X172890244Y-70451935D01*
X172891518Y-70450195D01*
X172891649Y-70449999D01*
X172892370Y-70448916D01*
X172894075Y-70446358D01*
X172894082Y-70446347D01*
X172894679Y-70445453D01*
X172895191Y-70444753D01*
X172899191Y-70439753D01*
X172900753Y-70438191D01*
X172902924Y-70436453D01*
X172906453Y-70432924D01*
X172908191Y-70430753D01*
X172909753Y-70429191D01*
X172914753Y-70425191D01*
X172915453Y-70424679D01*
X172916347Y-70424082D01*
X172916358Y-70424075D01*
X172918912Y-70422373D01*
X172920194Y-70421518D01*
X172921936Y-70420244D01*
X172924437Y-70418243D01*
X172924444Y-70418237D01*
X172925753Y-70417191D01*
X172926855Y-70416425D01*
X172928284Y-70415567D01*
X172928295Y-70415560D01*
X172931031Y-70413918D01*
X172931058Y-70413903D01*
X172931855Y-70413425D01*
X172932528Y-70413056D01*
X172933368Y-70412635D01*
X172933399Y-70412619D01*
X172948931Y-70404853D01*
X172948948Y-70404845D01*
X172950528Y-70404056D01*
X172951838Y-70403513D01*
X172953521Y-70402951D01*
X172953526Y-70402950D01*
X172957323Y-70401684D01*
X172957350Y-70401675D01*
X172957838Y-70401513D01*
X172958253Y-70401385D01*
X172958734Y-70401247D01*
X172958765Y-70401238D01*
X172963884Y-70399775D01*
X172963902Y-70399770D01*
X172965253Y-70399385D01*
X172966356Y-70399136D01*
X172967748Y-70398903D01*
X172967757Y-70398902D01*
X172978095Y-70397179D01*
X172978134Y-70397172D01*
X172978356Y-70397136D01*
X172978586Y-70397101D01*
X172978797Y-70397070D01*
X172978900Y-70397055D01*
X172985454Y-70396119D01*
X172989316Y-70395475D01*
X172989327Y-70395474D01*
X172991356Y-70395136D01*
X172993000Y-70395000D01*
X173207000Y-70395000D01*
X173208644Y-70395136D01*
X173210673Y-70395474D01*
X173210683Y-70395475D01*
X173214546Y-70396119D01*
X173221099Y-70397055D01*
X173221188Y-70397068D01*
X173221414Y-70397101D01*
X173221644Y-70397136D01*
X173221877Y-70397174D01*
X173221904Y-70397179D01*
X173232242Y-70398902D01*
X173232247Y-70398903D01*
X173233644Y-70399136D01*
X173234747Y-70399385D01*
X173236100Y-70399771D01*
X173236115Y-70399775D01*
X173241234Y-70401238D01*
X173241252Y-70401243D01*
X173241747Y-70401385D01*
X173242162Y-70401513D01*
X173242662Y-70401679D01*
X173242676Y-70401684D01*
X173246473Y-70402950D01*
X173248162Y-70403513D01*
X173249472Y-70404056D01*
X173251056Y-70404848D01*
X173251068Y-70404853D01*
X173260600Y-70409619D01*
X173260620Y-70409630D01*
X173261472Y-70410056D01*
X173262145Y-70410425D01*
X173265801Y-70412619D01*
X173265993Y-70412734D01*
X173267675Y-70413657D01*
X173270109Y-70414873D01*
X173270119Y-70414879D01*
X173272472Y-70416056D01*
X173274247Y-70417191D01*
X173278079Y-70420256D01*
X173279786Y-70421505D01*
X173284547Y-70424679D01*
X173285247Y-70425191D01*
X173290247Y-70429191D01*
X173291809Y-70430753D01*
X173293543Y-70432921D01*
X173297078Y-70436456D01*
X173299247Y-70438191D01*
X173300809Y-70439753D01*
X173304809Y-70444753D01*
X173305321Y-70445453D01*
X173308352Y-70449999D01*
X173308478Y-70450189D01*
X173309756Y-70451936D01*
X173311256Y-70453811D01*
X173312809Y-70455753D01*
X173313575Y-70456855D01*
X173316575Y-70461855D01*
X173316944Y-70462528D01*
X173325944Y-70480528D01*
X173326487Y-70481838D01*
X173328487Y-70487838D01*
X173328615Y-70488253D01*
X173330615Y-70495253D01*
X173330864Y-70496356D01*
X173332864Y-70508356D01*
X173332899Y-70508586D01*
X173332942Y-70508887D01*
X173332944Y-70508900D01*
X173333881Y-70515454D01*
X173334524Y-70519316D01*
X173334864Y-70521356D01*
X173335000Y-70523000D01*
X173335000Y-70525067D01*
X173335000Y-70762410D01*
X173412023Y-70780593D01*
X173417738Y-70769160D01*
X173418513Y-70766838D01*
X173419056Y-70765528D01*
X173425056Y-70753528D01*
X173425425Y-70752855D01*
X173428218Y-70748198D01*
X173429872Y-70744892D01*
X173429881Y-70744877D01*
X173431056Y-70742528D01*
X173432191Y-70740753D01*
X173433838Y-70738694D01*
X173433842Y-70738688D01*
X173435244Y-70736936D01*
X173436522Y-70735189D01*
X173439075Y-70731358D01*
X173439082Y-70731347D01*
X173439679Y-70730453D01*
X173440191Y-70729753D01*
X173444191Y-70724753D01*
X173445753Y-70723191D01*
X173447924Y-70721453D01*
X173451453Y-70717924D01*
X173453191Y-70715753D01*
X173454753Y-70714191D01*
X173459753Y-70710191D01*
X173460453Y-70709679D01*
X173461347Y-70709082D01*
X173461358Y-70709075D01*
X173463912Y-70707373D01*
X173465194Y-70706518D01*
X173466936Y-70705244D01*
X173469437Y-70703243D01*
X173469444Y-70703237D01*
X173470753Y-70702191D01*
X173471855Y-70701425D01*
X173473284Y-70700567D01*
X173473295Y-70700560D01*
X173476031Y-70698918D01*
X173476058Y-70698903D01*
X173476855Y-70698425D01*
X173477528Y-70698056D01*
X173478368Y-70697635D01*
X173478399Y-70697619D01*
X173493931Y-70689853D01*
X173493948Y-70689845D01*
X173495528Y-70689056D01*
X173496838Y-70688513D01*
X173498521Y-70687951D01*
X173498526Y-70687950D01*
X173502323Y-70686684D01*
X173502350Y-70686675D01*
X173502838Y-70686513D01*
X173503253Y-70686385D01*
X173503734Y-70686247D01*
X173503765Y-70686238D01*
X173508884Y-70684775D01*
X173508902Y-70684770D01*
X173510253Y-70684385D01*
X173511356Y-70684136D01*
X173512748Y-70683903D01*
X173512757Y-70683902D01*
X173523095Y-70682179D01*
X173523134Y-70682172D01*
X173523356Y-70682136D01*
X173523586Y-70682101D01*
X173523797Y-70682070D01*
X173523900Y-70682055D01*
X173530454Y-70681119D01*
X173534316Y-70680475D01*
X173534327Y-70680474D01*
X173536356Y-70680136D01*
X173538000Y-70680000D01*
X173992000Y-70680000D01*
X173993644Y-70680136D01*
X173995673Y-70680474D01*
X173995683Y-70680475D01*
X173999546Y-70681119D01*
X174006099Y-70682055D01*
X174006188Y-70682068D01*
X174006414Y-70682101D01*
X174006644Y-70682136D01*
X174006877Y-70682174D01*
X174006904Y-70682179D01*
X174017242Y-70683902D01*
X174017247Y-70683903D01*
X174018644Y-70684136D01*
X174019747Y-70684385D01*
X174021100Y-70684771D01*
X174021115Y-70684775D01*
X174026234Y-70686238D01*
X174026252Y-70686243D01*
X174026747Y-70686385D01*
X174027162Y-70686513D01*
X174027662Y-70686679D01*
X174027676Y-70686684D01*
X174031473Y-70687950D01*
X174033162Y-70688513D01*
X174034472Y-70689056D01*
X174036056Y-70689848D01*
X174036068Y-70689853D01*
X174051600Y-70697619D01*
X174051620Y-70697630D01*
X174052472Y-70698056D01*
X174053145Y-70698425D01*
X174053952Y-70698909D01*
X174053968Y-70698918D01*
X174056704Y-70700560D01*
X174056708Y-70700562D01*
X174058145Y-70701425D01*
X174059247Y-70702191D01*
X174063079Y-70705256D01*
X174064786Y-70706505D01*
X174069547Y-70709679D01*
X174070247Y-70710191D01*
X174075247Y-70714191D01*
X174076809Y-70715753D01*
X174078543Y-70717921D01*
X174082078Y-70721456D01*
X174084247Y-70723191D01*
X174085809Y-70724753D01*
X174089809Y-70729753D01*
X174090321Y-70730453D01*
X174090924Y-70731358D01*
X174093478Y-70735189D01*
X174094756Y-70736936D01*
X174096157Y-70738688D01*
X174097809Y-70740753D01*
X174098944Y-70742528D01*
X174100121Y-70744882D01*
X174100126Y-70744890D01*
X174101343Y-70747325D01*
X174102263Y-70749003D01*
X174104575Y-70752855D01*
X174104944Y-70753528D01*
X174105374Y-70754388D01*
X174105380Y-70754399D01*
X174109386Y-70762410D01*
X174110944Y-70765528D01*
X174111487Y-70766838D01*
X174113487Y-70772838D01*
X174113615Y-70773253D01*
X174115615Y-70780253D01*
X174115864Y-70781356D01*
X174117864Y-70793356D01*
X174117899Y-70793586D01*
X174117942Y-70793887D01*
X174117944Y-70793900D01*
X174118881Y-70800454D01*
X174119524Y-70804316D01*
X174119864Y-70806356D01*
X174120000Y-70808000D01*
X174120000Y-71022000D01*
X174119864Y-71023644D01*
X174119524Y-71025683D01*
X174118881Y-71029546D01*
X174117944Y-71036099D01*
X174117899Y-71036414D01*
X174117864Y-71036644D01*
X174115864Y-71048644D01*
X174115615Y-71049747D01*
X174113615Y-71056747D01*
X174113487Y-71057162D01*
X174111487Y-71063162D01*
X174110944Y-71064472D01*
X174104944Y-71076472D01*
X174104575Y-71077145D01*
X174103776Y-71078476D01*
X174102266Y-71080993D01*
X174101343Y-71082675D01*
X174100461Y-71084439D01*
X174098944Y-71087472D01*
X174097809Y-71089247D01*
X174094743Y-71093079D01*
X174093494Y-71094786D01*
X174090321Y-71099547D01*
X174089809Y-71100247D01*
X174085809Y-71105247D01*
X174084247Y-71106809D01*
X174082080Y-71108541D01*
X174078541Y-71112080D01*
X174076809Y-71114247D01*
X174075247Y-71115809D01*
X174070247Y-71119809D01*
X174069547Y-71120321D01*
X174064789Y-71123492D01*
X174063081Y-71124741D01*
X174059247Y-71127809D01*
X174059225Y-71127823D01*
X174042795Y-71140963D01*
X174042795Y-71189037D01*
X174059225Y-71202176D01*
X174059247Y-71202191D01*
X174063081Y-71205258D01*
X174064789Y-71206507D01*
X174069547Y-71209679D01*
X174070247Y-71210191D01*
X174075247Y-71214191D01*
X174076809Y-71215753D01*
X174078543Y-71217921D01*
X174082078Y-71221456D01*
X174084247Y-71223191D01*
X174085809Y-71224753D01*
X174089809Y-71229753D01*
X174090321Y-71230453D01*
X174090924Y-71231358D01*
X174093478Y-71235189D01*
X174094756Y-71236936D01*
X174096157Y-71238688D01*
X174097809Y-71240753D01*
X174098944Y-71242528D01*
X174100121Y-71244882D01*
X174100126Y-71244890D01*
X174101343Y-71247325D01*
X174102263Y-71249003D01*
X174104575Y-71252855D01*
X174104944Y-71253528D01*
X174110944Y-71265528D01*
X174111487Y-71266838D01*
X174113487Y-71272838D01*
X174113615Y-71273253D01*
X174115615Y-71280253D01*
X174115864Y-71281356D01*
X174117864Y-71293356D01*
X174117899Y-71293586D01*
X174117942Y-71293887D01*
X174117944Y-71293900D01*
X174118881Y-71300454D01*
X174119524Y-71304316D01*
X174119864Y-71306356D01*
X174120000Y-71308000D01*
X174120000Y-71522000D01*
X174119864Y-71523644D01*
X174119524Y-71525683D01*
X174118881Y-71529546D01*
X174117944Y-71536099D01*
X174117899Y-71536414D01*
X174117864Y-71536644D01*
X174115864Y-71548644D01*
X174115615Y-71549747D01*
X174113615Y-71556747D01*
X174113487Y-71557162D01*
X174111487Y-71563162D01*
X174110944Y-71564472D01*
X174104944Y-71576472D01*
X174104575Y-71577145D01*
X174102266Y-71580993D01*
X174101343Y-71582675D01*
X174098944Y-71587472D01*
X174097809Y-71589247D01*
X174094743Y-71593079D01*
X174093494Y-71594786D01*
X174090321Y-71599547D01*
X174089809Y-71600247D01*
X174085809Y-71605247D01*
X174084247Y-71606809D01*
X174082080Y-71608541D01*
X174078541Y-71612080D01*
X174076809Y-71614247D01*
X174075247Y-71615809D01*
X174070247Y-71619809D01*
X174069547Y-71620321D01*
X174064789Y-71623492D01*
X174063081Y-71624741D01*
X174059247Y-71627809D01*
X174059225Y-71627823D01*
X174042795Y-71640963D01*
X174042795Y-71689037D01*
X174059225Y-71702176D01*
X174059247Y-71702191D01*
X174063081Y-71705258D01*
X174064789Y-71706507D01*
X174069547Y-71709679D01*
X174070247Y-71710191D01*
X174075247Y-71714191D01*
X174076809Y-71715753D01*
X174078543Y-71717921D01*
X174082078Y-71721456D01*
X174084247Y-71723191D01*
X174085809Y-71724753D01*
X174089809Y-71729753D01*
X174090321Y-71730453D01*
X174090924Y-71731358D01*
X174093478Y-71735189D01*
X174094756Y-71736936D01*
X174096157Y-71738688D01*
X174097809Y-71740753D01*
X174098944Y-71742528D01*
X174100121Y-71744882D01*
X174100126Y-71744890D01*
X174101343Y-71747325D01*
X174102263Y-71749003D01*
X174104575Y-71752855D01*
X174104944Y-71753528D01*
X174110944Y-71765528D01*
X174111487Y-71766838D01*
X174113487Y-71772838D01*
X174113615Y-71773253D01*
X174115615Y-71780253D01*
X174115864Y-71781356D01*
X174117864Y-71793356D01*
X174117899Y-71793586D01*
X174117942Y-71793887D01*
X174117944Y-71793900D01*
X174118881Y-71800454D01*
X174119524Y-71804316D01*
X174119864Y-71806356D01*
X174120000Y-71808000D01*
X174120000Y-72022000D01*
X174119864Y-72023644D01*
X174119524Y-72025683D01*
X174118881Y-72029546D01*
X174117944Y-72036099D01*
X174117899Y-72036414D01*
X174117864Y-72036644D01*
X174115864Y-72048644D01*
X174115615Y-72049747D01*
X174113615Y-72056747D01*
X174113487Y-72057162D01*
X174111487Y-72063162D01*
X174110944Y-72064472D01*
X174104944Y-72076472D01*
X174104575Y-72077145D01*
X174102266Y-72080993D01*
X174101343Y-72082675D01*
X174098944Y-72087472D01*
X174097809Y-72089247D01*
X174094743Y-72093079D01*
X174093494Y-72094786D01*
X174090321Y-72099547D01*
X174089809Y-72100247D01*
X174085809Y-72105247D01*
X174084247Y-72106809D01*
X174082080Y-72108541D01*
X174078541Y-72112080D01*
X174076809Y-72114247D01*
X174075247Y-72115809D01*
X174070247Y-72119809D01*
X174069547Y-72120321D01*
X174064789Y-72123492D01*
X174063081Y-72124741D01*
X174059247Y-72127809D01*
X174059225Y-72127823D01*
X174042795Y-72140963D01*
X174042795Y-72189037D01*
X174059225Y-72202176D01*
X174059247Y-72202191D01*
X174063081Y-72205258D01*
X174064789Y-72206507D01*
X174069547Y-72209679D01*
X174070247Y-72210191D01*
X174075247Y-72214191D01*
X174076809Y-72215753D01*
X174078543Y-72217921D01*
X174082078Y-72221456D01*
X174084247Y-72223191D01*
X174085809Y-72224753D01*
X174089809Y-72229753D01*
X174090321Y-72230453D01*
X174091986Y-72232950D01*
X174093478Y-72235189D01*
X174094756Y-72236936D01*
X174096157Y-72238688D01*
X174097809Y-72240753D01*
X174098944Y-72242528D01*
X174100121Y-72244882D01*
X174100126Y-72244890D01*
X174101343Y-72247325D01*
X174102263Y-72249003D01*
X174104575Y-72252855D01*
X174104944Y-72253528D01*
X174105374Y-72254388D01*
X174105380Y-72254399D01*
X174108557Y-72260753D01*
X174110944Y-72265528D01*
X174111487Y-72266838D01*
X174113487Y-72272838D01*
X174113615Y-72273253D01*
X174115615Y-72280253D01*
X174115864Y-72281356D01*
X174117864Y-72293356D01*
X174117899Y-72293586D01*
X174117942Y-72293887D01*
X174117944Y-72293900D01*
X174118881Y-72300454D01*
X174119172Y-72302203D01*
X174119864Y-72306356D01*
X174120000Y-72308000D01*
X174120000Y-72522000D01*
X174119864Y-72523644D01*
X174119524Y-72525683D01*
X174118881Y-72529546D01*
X174118011Y-72535628D01*
X174117899Y-72536414D01*
X174117864Y-72536644D01*
X174115864Y-72548644D01*
X174115615Y-72549747D01*
X174113615Y-72556747D01*
X174113487Y-72557162D01*
X174111487Y-72563162D01*
X174110944Y-72564472D01*
X174104944Y-72576472D01*
X174104575Y-72577145D01*
X174102266Y-72580993D01*
X174101343Y-72582675D01*
X174100127Y-72585107D01*
X174098944Y-72587472D01*
X174097809Y-72589247D01*
X174094743Y-72593079D01*
X174093494Y-72594786D01*
X174090321Y-72599547D01*
X174089809Y-72600247D01*
X174085809Y-72605247D01*
X174084247Y-72606809D01*
X174082080Y-72608541D01*
X174078541Y-72612080D01*
X174076809Y-72614247D01*
X174075247Y-72615809D01*
X174070247Y-72619809D01*
X174069547Y-72620321D01*
X174064786Y-72623494D01*
X174063079Y-72624743D01*
X174059247Y-72627809D01*
X174058145Y-72628575D01*
X174053145Y-72631575D01*
X174052472Y-72631944D01*
X174034472Y-72640944D01*
X174033162Y-72641487D01*
X174027162Y-72643487D01*
X174026747Y-72643615D01*
X174019747Y-72645615D01*
X174018644Y-72645864D01*
X174006644Y-72647864D01*
X174006414Y-72647899D01*
X174006099Y-72647944D01*
X173999546Y-72648881D01*
X173996455Y-72649395D01*
X173993644Y-72649864D01*
X173992000Y-72650000D01*
X173989933Y-72650000D01*
X173540067Y-72650000D01*
X173538000Y-72650000D01*
X173536356Y-72649864D01*
X173534316Y-72649524D01*
X173530454Y-72648881D01*
X173523900Y-72647944D01*
X173523887Y-72647942D01*
X173523586Y-72647899D01*
X173523356Y-72647864D01*
X173511356Y-72645864D01*
X173510253Y-72645615D01*
X173508886Y-72645224D01*
X173508884Y-72645224D01*
X173507177Y-72644736D01*
X173503253Y-72643615D01*
X173502838Y-72643487D01*
X173496838Y-72641487D01*
X173495528Y-72640944D01*
X173493936Y-72640148D01*
X173493931Y-72640146D01*
X173478399Y-72632380D01*
X173478388Y-72632374D01*
X173477528Y-72631944D01*
X173476855Y-72631575D01*
X173476038Y-72631085D01*
X173476031Y-72631081D01*
X173473295Y-72629439D01*
X173471855Y-72628575D01*
X173470753Y-72627809D01*
X173466939Y-72624758D01*
X173466936Y-72624756D01*
X173465189Y-72623478D01*
X173465186Y-72623476D01*
X173460453Y-72620321D01*
X173459753Y-72619809D01*
X173454753Y-72615809D01*
X173453191Y-72614247D01*
X173451456Y-72612078D01*
X173447921Y-72608543D01*
X173445753Y-72606809D01*
X173444191Y-72605247D01*
X173440191Y-72600247D01*
X173439679Y-72599547D01*
X173436505Y-72594786D01*
X173435256Y-72593079D01*
X173432191Y-72589247D01*
X173431056Y-72587472D01*
X173429878Y-72585117D01*
X173429872Y-72585107D01*
X173428221Y-72581805D01*
X173425425Y-72577145D01*
X173425056Y-72576472D01*
X173419056Y-72564472D01*
X173418513Y-72563162D01*
X173417738Y-72560838D01*
X173412023Y-72549407D01*
X173335000Y-72567590D01*
X173335000Y-72807000D01*
X173334864Y-72808644D01*
X173334524Y-72810683D01*
X173333881Y-72814546D01*
X173333101Y-72820000D01*
X173332899Y-72821414D01*
X173332864Y-72821644D01*
X173330864Y-72833644D01*
X173330615Y-72834747D01*
X173328615Y-72841747D01*
X173328487Y-72842162D01*
X173326487Y-72848162D01*
X173325944Y-72849472D01*
X173316944Y-72867472D01*
X173316575Y-72868145D01*
X173313575Y-72873145D01*
X173312809Y-72874247D01*
X173309743Y-72878079D01*
X173308494Y-72879786D01*
X173305321Y-72884547D01*
X173304809Y-72885247D01*
X173300809Y-72890247D01*
X173299247Y-72891809D01*
X173297080Y-72893541D01*
X173293541Y-72897080D01*
X173291809Y-72899247D01*
X173290247Y-72900809D01*
X173285247Y-72904809D01*
X173284547Y-72905321D01*
X173279786Y-72908494D01*
X173278079Y-72909743D01*
X173274247Y-72912809D01*
X173272472Y-72913944D01*
X173270112Y-72915123D01*
X173270109Y-72915126D01*
X173267675Y-72916343D01*
X173265996Y-72917263D01*
X173262145Y-72919575D01*
X173261472Y-72919944D01*
X173249472Y-72925944D01*
X173248162Y-72926487D01*
X173242162Y-72928487D01*
X173241747Y-72928615D01*
X173234747Y-72930615D01*
X173233644Y-72930864D01*
X173221644Y-72932864D01*
X173221414Y-72932899D01*
X173221099Y-72932944D01*
X173214546Y-72933881D01*
X173211455Y-72934395D01*
X173208644Y-72934864D01*
X173207000Y-72935000D01*
X173204933Y-72935000D01*
X172995067Y-72935000D01*
X172993000Y-72935000D01*
X172991356Y-72934864D01*
X172989316Y-72934524D01*
X172985454Y-72933881D01*
X172978900Y-72932944D01*
X172978887Y-72932942D01*
X172978586Y-72932899D01*
X172978356Y-72932864D01*
X172966356Y-72930864D01*
X172965253Y-72930615D01*
X172963886Y-72930224D01*
X172963884Y-72930224D01*
X172962177Y-72929736D01*
X172958253Y-72928615D01*
X172957838Y-72928487D01*
X172951838Y-72926487D01*
X172950528Y-72925944D01*
X172948936Y-72925148D01*
X172948931Y-72925146D01*
X172939399Y-72920380D01*
X172939388Y-72920374D01*
X172938528Y-72919944D01*
X172937855Y-72919575D01*
X172934003Y-72917263D01*
X172932325Y-72916343D01*
X172929890Y-72915126D01*
X172929882Y-72915121D01*
X172927528Y-72913944D01*
X172925753Y-72912809D01*
X172921939Y-72909758D01*
X172921936Y-72909756D01*
X172920189Y-72908478D01*
X172920186Y-72908476D01*
X172915453Y-72905321D01*
X172914753Y-72904809D01*
X172909753Y-72900809D01*
X172908191Y-72899247D01*
X172906456Y-72897078D01*
X172902921Y-72893543D01*
X172900753Y-72891809D01*
X172899191Y-72890247D01*
X172895191Y-72885247D01*
X172894679Y-72884547D01*
X172891507Y-72879789D01*
X172890258Y-72878081D01*
X172887191Y-72874247D01*
X172887176Y-72874225D01*
X172874037Y-72857795D01*
X172825963Y-72857795D01*
X172812823Y-72874225D01*
X172812809Y-72874247D01*
X172809741Y-72878081D01*
X172808492Y-72879789D01*
X172805321Y-72884547D01*
X172804809Y-72885247D01*
X172800809Y-72890247D01*
X172799247Y-72891809D01*
X172797080Y-72893541D01*
X172793541Y-72897080D01*
X172791809Y-72899247D01*
X172790247Y-72900809D01*
X172785247Y-72904809D01*
X172784547Y-72905321D01*
X172779786Y-72908494D01*
X172778079Y-72909743D01*
X172774247Y-72912809D01*
X172773145Y-72913575D01*
X172768145Y-72916575D01*
X172767472Y-72916944D01*
X172749472Y-72925944D01*
X172748162Y-72926487D01*
X172742162Y-72928487D01*
X172741747Y-72928615D01*
X172734747Y-72930615D01*
X172733644Y-72930864D01*
X172721644Y-72932864D01*
X172721414Y-72932899D01*
X172721099Y-72932944D01*
X172714546Y-72933881D01*
X172711455Y-72934395D01*
X172708644Y-72934864D01*
X172707000Y-72935000D01*
X172704933Y-72935000D01*
X172495067Y-72935000D01*
X172493000Y-72935000D01*
X172491356Y-72934864D01*
X172489316Y-72934524D01*
X172485454Y-72933881D01*
X172478900Y-72932944D01*
X172478887Y-72932942D01*
X172478586Y-72932899D01*
X172478356Y-72932864D01*
X172466356Y-72930864D01*
X172465253Y-72930615D01*
X172463886Y-72930224D01*
X172463884Y-72930224D01*
X172462177Y-72929736D01*
X172458253Y-72928615D01*
X172457838Y-72928487D01*
X172451838Y-72926487D01*
X172450528Y-72925944D01*
X172448936Y-72925148D01*
X172448931Y-72925146D01*
X172439399Y-72920380D01*
X172439388Y-72920374D01*
X172438528Y-72919944D01*
X172437855Y-72919575D01*
X172434003Y-72917263D01*
X172432325Y-72916343D01*
X172429890Y-72915126D01*
X172429882Y-72915121D01*
X172427528Y-72913944D01*
X172425753Y-72912809D01*
X172421939Y-72909758D01*
X172421936Y-72909756D01*
X172420189Y-72908478D01*
X172420186Y-72908476D01*
X172415453Y-72905321D01*
X172414753Y-72904809D01*
X172409753Y-72900809D01*
X172408191Y-72899247D01*
X172406456Y-72897078D01*
X172402921Y-72893543D01*
X172400753Y-72891809D01*
X172399191Y-72890247D01*
X172395191Y-72885247D01*
X172394679Y-72884547D01*
X172391507Y-72879789D01*
X172390258Y-72878081D01*
X172387191Y-72874247D01*
X172387176Y-72874225D01*
X172374037Y-72857795D01*
X172325963Y-72857795D01*
X172312823Y-72874225D01*
X172312809Y-72874247D01*
X172309741Y-72878081D01*
X172308492Y-72879789D01*
X172305321Y-72884547D01*
X172304809Y-72885247D01*
X172300809Y-72890247D01*
X172299247Y-72891809D01*
X172297080Y-72893541D01*
X172293541Y-72897080D01*
X172291809Y-72899247D01*
X172290247Y-72900809D01*
X172285247Y-72904809D01*
X172284547Y-72905321D01*
X172279786Y-72908494D01*
X172278079Y-72909743D01*
X172274247Y-72912809D01*
X172272472Y-72913944D01*
X172270112Y-72915123D01*
X172270109Y-72915126D01*
X172267675Y-72916343D01*
X172265996Y-72917263D01*
X172262145Y-72919575D01*
X172261472Y-72919944D01*
X172249472Y-72925944D01*
X172248162Y-72926487D01*
X172242162Y-72928487D01*
X172241747Y-72928615D01*
X172234747Y-72930615D01*
X172233644Y-72930864D01*
X172221644Y-72932864D01*
X172221414Y-72932899D01*
X172221099Y-72932944D01*
X172214546Y-72933881D01*
X172211455Y-72934395D01*
X172208644Y-72934864D01*
X172207000Y-72935000D01*
X172204933Y-72935000D01*
X171995067Y-72935000D01*
X171993000Y-72935000D01*
X171991356Y-72934864D01*
X171989316Y-72934524D01*
X171985454Y-72933881D01*
X171978900Y-72932944D01*
X171978887Y-72932942D01*
X171978586Y-72932899D01*
X171978356Y-72932864D01*
X171966356Y-72930864D01*
X171965253Y-72930615D01*
X171963886Y-72930224D01*
X171963884Y-72930224D01*
X171962177Y-72929736D01*
X171958253Y-72928615D01*
X171957838Y-72928487D01*
X171951838Y-72926487D01*
X171950528Y-72925944D01*
X171948936Y-72925148D01*
X171948931Y-72925146D01*
X171939399Y-72920380D01*
X171939388Y-72920374D01*
X171938528Y-72919944D01*
X171937855Y-72919575D01*
X171934003Y-72917263D01*
X171932325Y-72916343D01*
X171929890Y-72915126D01*
X171929882Y-72915121D01*
X171927528Y-72913944D01*
X171925753Y-72912809D01*
X171921939Y-72909758D01*
X171921936Y-72909756D01*
X171920189Y-72908478D01*
X171920186Y-72908476D01*
X171915453Y-72905321D01*
X171914753Y-72904809D01*
X171909753Y-72900809D01*
X171908191Y-72899247D01*
X171906456Y-72897078D01*
X171902921Y-72893543D01*
X171900753Y-72891809D01*
X171899191Y-72890247D01*
X171895191Y-72885247D01*
X171894679Y-72884547D01*
X171891505Y-72879786D01*
X171890256Y-72878079D01*
X171887191Y-72874247D01*
X171886425Y-72873145D01*
X171885560Y-72871704D01*
X171883918Y-72868968D01*
X171883909Y-72868952D01*
X171883425Y-72868145D01*
X171883056Y-72867472D01*
X171882630Y-72866620D01*
X171882619Y-72866600D01*
X171874853Y-72851068D01*
X171874848Y-72851056D01*
X171874056Y-72849472D01*
X171873513Y-72848162D01*
X171871513Y-72842162D01*
X171871385Y-72841747D01*
X171871238Y-72841234D01*
X171869775Y-72836115D01*
X171869771Y-72836100D01*
X171869385Y-72834747D01*
X171869136Y-72833644D01*
X171868789Y-72831561D01*
X171867179Y-72821904D01*
X171867174Y-72821877D01*
X171867136Y-72821644D01*
X171867101Y-72821414D01*
X171867068Y-72821188D01*
X171867055Y-72821099D01*
X171866119Y-72814546D01*
X171865475Y-72810683D01*
X171865474Y-72810673D01*
X171865136Y-72808644D01*
X171865000Y-72807000D01*
X171865000Y-72567590D01*
X171787977Y-72549407D01*
X171782262Y-72560837D01*
X171781487Y-72563162D01*
X171780944Y-72564472D01*
X171774944Y-72576472D01*
X171774575Y-72577145D01*
X171771773Y-72581815D01*
X171770127Y-72585107D01*
X171770126Y-72585109D01*
X171768944Y-72587472D01*
X171767809Y-72589247D01*
X171764743Y-72593079D01*
X171763494Y-72594786D01*
X171760321Y-72599547D01*
X171759809Y-72600247D01*
X171755809Y-72605247D01*
X171754247Y-72606809D01*
X171752080Y-72608541D01*
X171748541Y-72612080D01*
X171746809Y-72614247D01*
X171745247Y-72615809D01*
X171740247Y-72619809D01*
X171739547Y-72620321D01*
X171734786Y-72623494D01*
X171733079Y-72624743D01*
X171729247Y-72627809D01*
X171728145Y-72628575D01*
X171723145Y-72631575D01*
X171722472Y-72631944D01*
X171704472Y-72640944D01*
X171703162Y-72641487D01*
X171697162Y-72643487D01*
X171696747Y-72643615D01*
X171689747Y-72645615D01*
X171688644Y-72645864D01*
X171676644Y-72647864D01*
X171676414Y-72647899D01*
X171676099Y-72647944D01*
X171669546Y-72648881D01*
X171666455Y-72649395D01*
X171663644Y-72649864D01*
X171662000Y-72650000D01*
X171659933Y-72650000D01*
X171210067Y-72650000D01*
X171208000Y-72650000D01*
X171206356Y-72649864D01*
X171204316Y-72649524D01*
X171200454Y-72648881D01*
X171193900Y-72647944D01*
X171193887Y-72647942D01*
X171193586Y-72647899D01*
X171193356Y-72647864D01*
X171181356Y-72645864D01*
X171180253Y-72645615D01*
X171178886Y-72645224D01*
X171178884Y-72645224D01*
X171177177Y-72644736D01*
X171173253Y-72643615D01*
X171172838Y-72643487D01*
X171166838Y-72641487D01*
X171165528Y-72640944D01*
X171163936Y-72640148D01*
X171163931Y-72640146D01*
X171148399Y-72632380D01*
X171148388Y-72632374D01*
X171147528Y-72631944D01*
X171146855Y-72631575D01*
X171146038Y-72631085D01*
X171146031Y-72631081D01*
X171143295Y-72629439D01*
X171141855Y-72628575D01*
X171140753Y-72627809D01*
X171136939Y-72624758D01*
X171136936Y-72624756D01*
X171135189Y-72623478D01*
X171135186Y-72623476D01*
X171130453Y-72620321D01*
X171129753Y-72619809D01*
X171124753Y-72615809D01*
X171123191Y-72614247D01*
X171121456Y-72612078D01*
X171117921Y-72608543D01*
X171115753Y-72606809D01*
X171114191Y-72605247D01*
X171110191Y-72600247D01*
X171109679Y-72599547D01*
X171106505Y-72594786D01*
X171105256Y-72593079D01*
X171102191Y-72589247D01*
X171101056Y-72587472D01*
X171099879Y-72585119D01*
X171099873Y-72585109D01*
X171098657Y-72582675D01*
X171097734Y-72580993D01*
X171095918Y-72577967D01*
X171095915Y-72577963D01*
X171095425Y-72577145D01*
X171095056Y-72576472D01*
X171094630Y-72575620D01*
X171094619Y-72575600D01*
X171089853Y-72566068D01*
X171089848Y-72566056D01*
X171089056Y-72564472D01*
X171088513Y-72563162D01*
X171086513Y-72557162D01*
X171086385Y-72556747D01*
X171085698Y-72554343D01*
X171084775Y-72551115D01*
X171084771Y-72551100D01*
X171084385Y-72549747D01*
X171084136Y-72548644D01*
X171083252Y-72543338D01*
X171082179Y-72536904D01*
X171082174Y-72536877D01*
X171082136Y-72536644D01*
X171082101Y-72536414D01*
X171082068Y-72536188D01*
X171082055Y-72536099D01*
X171081119Y-72529546D01*
X171080475Y-72525683D01*
X171080474Y-72525673D01*
X171080136Y-72523644D01*
X171080000Y-72522000D01*
X171080000Y-72308000D01*
X171080136Y-72306356D01*
X171080474Y-72304327D01*
X171080475Y-72304316D01*
X171081119Y-72300454D01*
X171082055Y-72293900D01*
X171082070Y-72293797D01*
X171082101Y-72293586D01*
X171082136Y-72293356D01*
X171082172Y-72293134D01*
X171082179Y-72293095D01*
X171083902Y-72282757D01*
X171083903Y-72282748D01*
X171084136Y-72281356D01*
X171084385Y-72280253D01*
X171084770Y-72278902D01*
X171084775Y-72278884D01*
X171086238Y-72273765D01*
X171086247Y-72273734D01*
X171086385Y-72273253D01*
X171086513Y-72272838D01*
X171086675Y-72272350D01*
X171086684Y-72272323D01*
X171087950Y-72268526D01*
X171087951Y-72268521D01*
X171088513Y-72266838D01*
X171089056Y-72265528D01*
X171089845Y-72263948D01*
X171089853Y-72263931D01*
X171094619Y-72254399D01*
X171094635Y-72254368D01*
X171095056Y-72253528D01*
X171095425Y-72252855D01*
X171095909Y-72252047D01*
X171095918Y-72252032D01*
X171097734Y-72249007D01*
X171098657Y-72247325D01*
X171099873Y-72244890D01*
X171099884Y-72244873D01*
X171101056Y-72242528D01*
X171102191Y-72240753D01*
X171103838Y-72238694D01*
X171103842Y-72238688D01*
X171105244Y-72236936D01*
X171106522Y-72235189D01*
X171109075Y-72231358D01*
X171109082Y-72231347D01*
X171109679Y-72230453D01*
X171110191Y-72229753D01*
X171114191Y-72224753D01*
X171115753Y-72223191D01*
X171117924Y-72221453D01*
X171121453Y-72217924D01*
X171123191Y-72215753D01*
X171124753Y-72214191D01*
X171129753Y-72210191D01*
X171130453Y-72209679D01*
X171131347Y-72209082D01*
X171131358Y-72209075D01*
X171135195Y-72206518D01*
X171136935Y-72205244D01*
X171138496Y-72203996D01*
X171157203Y-72189014D01*
X171157203Y-72140986D01*
X171138496Y-72126003D01*
X171136935Y-72124755D01*
X171135195Y-72123482D01*
X171131358Y-72120924D01*
X171130453Y-72120321D01*
X171129753Y-72119809D01*
X171124753Y-72115809D01*
X171123191Y-72114247D01*
X171121456Y-72112078D01*
X171117921Y-72108543D01*
X171115753Y-72106809D01*
X171114191Y-72105247D01*
X171110191Y-72100247D01*
X171109679Y-72099547D01*
X171106505Y-72094786D01*
X171105256Y-72093079D01*
X171102191Y-72089247D01*
X171101056Y-72087472D01*
X171099879Y-72085119D01*
X171099873Y-72085109D01*
X171098657Y-72082675D01*
X171097734Y-72080993D01*
X171095918Y-72077967D01*
X171095915Y-72077963D01*
X171095425Y-72077145D01*
X171095056Y-72076472D01*
X171094630Y-72075620D01*
X171094619Y-72075600D01*
X171089853Y-72066068D01*
X171089848Y-72066056D01*
X171089056Y-72064472D01*
X171088513Y-72063162D01*
X171086513Y-72057162D01*
X171086385Y-72056747D01*
X171086238Y-72056234D01*
X171084775Y-72051115D01*
X171084771Y-72051100D01*
X171084385Y-72049747D01*
X171084136Y-72048644D01*
X171083812Y-72046697D01*
X171082179Y-72036904D01*
X171082174Y-72036877D01*
X171082136Y-72036644D01*
X171082101Y-72036414D01*
X171082068Y-72036188D01*
X171082055Y-72036099D01*
X171081119Y-72029546D01*
X171080475Y-72025683D01*
X171080474Y-72025673D01*
X171080136Y-72023644D01*
X171080000Y-72022000D01*
X171080000Y-71808000D01*
X171080136Y-71806356D01*
X171080474Y-71804327D01*
X171080475Y-71804316D01*
X171081119Y-71800454D01*
X171082055Y-71793900D01*
X171082070Y-71793797D01*
X171082101Y-71793586D01*
X171082136Y-71793356D01*
X171082172Y-71793134D01*
X171082179Y-71793095D01*
X171083902Y-71782757D01*
X171083903Y-71782748D01*
X171084136Y-71781356D01*
X171084385Y-71780253D01*
X171084770Y-71778902D01*
X171084775Y-71778884D01*
X171086238Y-71773765D01*
X171086247Y-71773734D01*
X171086385Y-71773253D01*
X171086513Y-71772838D01*
X171086675Y-71772350D01*
X171086684Y-71772323D01*
X171087950Y-71768526D01*
X171087951Y-71768521D01*
X171088513Y-71766838D01*
X171089056Y-71765528D01*
X171089845Y-71763948D01*
X171089853Y-71763931D01*
X171094619Y-71754399D01*
X171094635Y-71754368D01*
X171095056Y-71753528D01*
X171095425Y-71752855D01*
X171095909Y-71752047D01*
X171095918Y-71752032D01*
X171097734Y-71749007D01*
X171098657Y-71747325D01*
X171099873Y-71744890D01*
X171099882Y-71744875D01*
X171101056Y-71742528D01*
X171102191Y-71740753D01*
X171103838Y-71738694D01*
X171103842Y-71738688D01*
X171105244Y-71736936D01*
X171106522Y-71735189D01*
X171109075Y-71731358D01*
X171109082Y-71731347D01*
X171109679Y-71730453D01*
X171110191Y-71729753D01*
X171114191Y-71724753D01*
X171115753Y-71723191D01*
X171117924Y-71721453D01*
X171121453Y-71717924D01*
X171123191Y-71715753D01*
X171124753Y-71714191D01*
X171129753Y-71710191D01*
X171130453Y-71709679D01*
X171131347Y-71709082D01*
X171131358Y-71709075D01*
X171135195Y-71706518D01*
X171136935Y-71705244D01*
X171138496Y-71703996D01*
X171157203Y-71689014D01*
X171157203Y-71640986D01*
X171138496Y-71626003D01*
X171136935Y-71624755D01*
X171135195Y-71623482D01*
X171131358Y-71620924D01*
X171130453Y-71620321D01*
X171129753Y-71619809D01*
X171124753Y-71615809D01*
X171123191Y-71614247D01*
X171121456Y-71612078D01*
X171117921Y-71608543D01*
X171115753Y-71606809D01*
X171114191Y-71605247D01*
X171110191Y-71600247D01*
X171109679Y-71599547D01*
X171106505Y-71594786D01*
X171105256Y-71593079D01*
X171102191Y-71589247D01*
X171101056Y-71587472D01*
X171099879Y-71585119D01*
X171099873Y-71585109D01*
X171098657Y-71582675D01*
X171097734Y-71580993D01*
X171095918Y-71577967D01*
X171095915Y-71577963D01*
X171095425Y-71577145D01*
X171095056Y-71576472D01*
X171094630Y-71575620D01*
X171094619Y-71575600D01*
X171089853Y-71566068D01*
X171089848Y-71566056D01*
X171089056Y-71564472D01*
X171088513Y-71563162D01*
X171086513Y-71557162D01*
X171086385Y-71556747D01*
X171086238Y-71556234D01*
X171084775Y-71551115D01*
X171084771Y-71551100D01*
X171084385Y-71549747D01*
X171084136Y-71548644D01*
X171083542Y-71545077D01*
X171082179Y-71536904D01*
X171082174Y-71536877D01*
X171082136Y-71536644D01*
X171082101Y-71536414D01*
X171082068Y-71536188D01*
X171082055Y-71536099D01*
X171081119Y-71529546D01*
X171080475Y-71525683D01*
X171080474Y-71525673D01*
X171080136Y-71523644D01*
X171080000Y-71522000D01*
X171080000Y-71308000D01*
X171080136Y-71306356D01*
X171080474Y-71304327D01*
X171080475Y-71304316D01*
X171081119Y-71300454D01*
X171082055Y-71293900D01*
X171082070Y-71293797D01*
X171082101Y-71293586D01*
X171082136Y-71293356D01*
X171082172Y-71293134D01*
X171082179Y-71293095D01*
X171083902Y-71282757D01*
X171083903Y-71282748D01*
X171084136Y-71281356D01*
X171084385Y-71280253D01*
X171084770Y-71278902D01*
X171084775Y-71278884D01*
X171086238Y-71273765D01*
X171086247Y-71273734D01*
X171086385Y-71273253D01*
X171086513Y-71272838D01*
X171086675Y-71272350D01*
X171086684Y-71272323D01*
X171087950Y-71268526D01*
X171087951Y-71268521D01*
X171088513Y-71266838D01*
X171089056Y-71265528D01*
X171089845Y-71263948D01*
X171089853Y-71263931D01*
X171094619Y-71254399D01*
X171094635Y-71254368D01*
X171095056Y-71253528D01*
X171095425Y-71252855D01*
X171095909Y-71252047D01*
X171095918Y-71252032D01*
X171097734Y-71249007D01*
X171098657Y-71247325D01*
X171099873Y-71244890D01*
X171099882Y-71244875D01*
X171101056Y-71242528D01*
X171102191Y-71240753D01*
X171103838Y-71238694D01*
X171103842Y-71238688D01*
X171105244Y-71236936D01*
X171106522Y-71235189D01*
X171109075Y-71231358D01*
X171109082Y-71231347D01*
X171109679Y-71230453D01*
X171110191Y-71229753D01*
X171114191Y-71224753D01*
X171115753Y-71223191D01*
X171117924Y-71221453D01*
X171121453Y-71217924D01*
X171123191Y-71215753D01*
X171124753Y-71214191D01*
X171129753Y-71210191D01*
X171130453Y-71209679D01*
X171131347Y-71209082D01*
X171131358Y-71209075D01*
X171135195Y-71206518D01*
X171136935Y-71205244D01*
X171138496Y-71203996D01*
X171157203Y-71189014D01*
X171157203Y-71140986D01*
X171157174Y-71140963D01*
X171712795Y-71140963D01*
X171712795Y-71189037D01*
X171729225Y-71202176D01*
X171729247Y-71202191D01*
X171733081Y-71205258D01*
X171734789Y-71206507D01*
X171739547Y-71209679D01*
X171740247Y-71210191D01*
X171745247Y-71214191D01*
X171746809Y-71215753D01*
X171748543Y-71217921D01*
X171752078Y-71221456D01*
X171754247Y-71223191D01*
X171755809Y-71224753D01*
X171759809Y-71229753D01*
X171760321Y-71230453D01*
X171760924Y-71231358D01*
X171763478Y-71235189D01*
X171764756Y-71236936D01*
X171766157Y-71238688D01*
X171767809Y-71240753D01*
X171768944Y-71242528D01*
X171770121Y-71244882D01*
X171770126Y-71244890D01*
X171771343Y-71247325D01*
X171772263Y-71249003D01*
X171774575Y-71252855D01*
X171774944Y-71253528D01*
X171780944Y-71265528D01*
X171781487Y-71266838D01*
X171783487Y-71272838D01*
X171783615Y-71273253D01*
X171785615Y-71280253D01*
X171785864Y-71281356D01*
X171787864Y-71293356D01*
X171787899Y-71293586D01*
X171787942Y-71293887D01*
X171787944Y-71293900D01*
X171788881Y-71300454D01*
X171789524Y-71304316D01*
X171789864Y-71306356D01*
X171790000Y-71308000D01*
X171790000Y-71522000D01*
X171789864Y-71523644D01*
X171789524Y-71525683D01*
X171788881Y-71529546D01*
X171787944Y-71536099D01*
X171787899Y-71536414D01*
X171787864Y-71536644D01*
X171785864Y-71548644D01*
X171785615Y-71549747D01*
X171783615Y-71556747D01*
X171783487Y-71557162D01*
X171781487Y-71563162D01*
X171780944Y-71564472D01*
X171774944Y-71576472D01*
X171774575Y-71577145D01*
X171772266Y-71580993D01*
X171771343Y-71582675D01*
X171768944Y-71587472D01*
X171767809Y-71589247D01*
X171764743Y-71593079D01*
X171763494Y-71594786D01*
X171760321Y-71599547D01*
X171759809Y-71600247D01*
X171755809Y-71605247D01*
X171754247Y-71606809D01*
X171752080Y-71608541D01*
X171748541Y-71612080D01*
X171746809Y-71614247D01*
X171745247Y-71615809D01*
X171740247Y-71619809D01*
X171739547Y-71620321D01*
X171734789Y-71623492D01*
X171733081Y-71624741D01*
X171729247Y-71627809D01*
X171729225Y-71627823D01*
X171712795Y-71640963D01*
X171712795Y-71689037D01*
X171729225Y-71702176D01*
X171729247Y-71702191D01*
X171733081Y-71705258D01*
X171734789Y-71706507D01*
X171739547Y-71709679D01*
X171740247Y-71710191D01*
X171745247Y-71714191D01*
X171746809Y-71715753D01*
X171748543Y-71717921D01*
X171752078Y-71721456D01*
X171754247Y-71723191D01*
X171755809Y-71724753D01*
X171759809Y-71729753D01*
X171760321Y-71730453D01*
X171760924Y-71731358D01*
X171763478Y-71735189D01*
X171764756Y-71736936D01*
X171766157Y-71738688D01*
X171767809Y-71740753D01*
X171768944Y-71742528D01*
X171770121Y-71744882D01*
X171770126Y-71744890D01*
X171771343Y-71747325D01*
X171772263Y-71749003D01*
X171774575Y-71752855D01*
X171774944Y-71753528D01*
X171780944Y-71765528D01*
X171781487Y-71766838D01*
X171783487Y-71772838D01*
X171783615Y-71773253D01*
X171785615Y-71780253D01*
X171785864Y-71781356D01*
X171787864Y-71793356D01*
X171787899Y-71793586D01*
X171787942Y-71793887D01*
X171787944Y-71793900D01*
X171788881Y-71800454D01*
X171789524Y-71804316D01*
X171789864Y-71806356D01*
X171790000Y-71808000D01*
X171790000Y-72022000D01*
X171789864Y-72023644D01*
X171789524Y-72025683D01*
X171788881Y-72029546D01*
X171787944Y-72036099D01*
X171787899Y-72036414D01*
X171787864Y-72036644D01*
X171785864Y-72048644D01*
X171785615Y-72049747D01*
X171783615Y-72056747D01*
X171783487Y-72057162D01*
X171781487Y-72063162D01*
X171780944Y-72064472D01*
X171774944Y-72076472D01*
X171774575Y-72077145D01*
X171772266Y-72080993D01*
X171771343Y-72082675D01*
X171768944Y-72087472D01*
X171767809Y-72089247D01*
X171764743Y-72093079D01*
X171763494Y-72094786D01*
X171760321Y-72099547D01*
X171759809Y-72100247D01*
X171755809Y-72105247D01*
X171754247Y-72106809D01*
X171752080Y-72108541D01*
X171748541Y-72112080D01*
X171746809Y-72114247D01*
X171745247Y-72115809D01*
X171740247Y-72119809D01*
X171739547Y-72120321D01*
X171734789Y-72123492D01*
X171733081Y-72124741D01*
X171729247Y-72127809D01*
X171729225Y-72127823D01*
X171712795Y-72140963D01*
X171712795Y-72189037D01*
X171729225Y-72202176D01*
X171729247Y-72202191D01*
X171733081Y-72205258D01*
X171734789Y-72206507D01*
X171739547Y-72209679D01*
X171740247Y-72210191D01*
X171745247Y-72214191D01*
X171746809Y-72215753D01*
X171748543Y-72217921D01*
X171752078Y-72221456D01*
X171754247Y-72223191D01*
X171755809Y-72224753D01*
X171759809Y-72229753D01*
X171760321Y-72230453D01*
X171761986Y-72232950D01*
X171763478Y-72235189D01*
X171764756Y-72236936D01*
X171766157Y-72238688D01*
X171767809Y-72240753D01*
X171768944Y-72242528D01*
X171770121Y-72244882D01*
X171770126Y-72244890D01*
X171771343Y-72247325D01*
X171772263Y-72249003D01*
X171774575Y-72252855D01*
X171774944Y-72253528D01*
X171775374Y-72254388D01*
X171775380Y-72254399D01*
X171778557Y-72260753D01*
X171780944Y-72265528D01*
X171781487Y-72266838D01*
X171783487Y-72272838D01*
X171783615Y-72273253D01*
X171785615Y-72280253D01*
X171785864Y-72281356D01*
X171786780Y-72286855D01*
X171792252Y-72319681D01*
X171864079Y-72330481D01*
X171882619Y-72293398D01*
X171882642Y-72293356D01*
X171883056Y-72292528D01*
X171883425Y-72291855D01*
X171883902Y-72291058D01*
X171883918Y-72291031D01*
X171885560Y-72288295D01*
X171885567Y-72288284D01*
X171886425Y-72286855D01*
X171887191Y-72285753D01*
X171888237Y-72284444D01*
X171888243Y-72284437D01*
X171890244Y-72281936D01*
X171891522Y-72280189D01*
X171894075Y-72276358D01*
X171894082Y-72276347D01*
X171894679Y-72275453D01*
X171895191Y-72274753D01*
X171899191Y-72269753D01*
X171900753Y-72268191D01*
X171902924Y-72266453D01*
X171906453Y-72262924D01*
X171908191Y-72260753D01*
X171909753Y-72259191D01*
X171914753Y-72255191D01*
X171915453Y-72254679D01*
X171916347Y-72254082D01*
X171916358Y-72254075D01*
X171918912Y-72252373D01*
X171920194Y-72251518D01*
X171921936Y-72250244D01*
X171924437Y-72248243D01*
X171924444Y-72248237D01*
X171925753Y-72247191D01*
X171926855Y-72246425D01*
X171928284Y-72245567D01*
X171928295Y-72245560D01*
X171931031Y-72243918D01*
X171931058Y-72243903D01*
X171931855Y-72243425D01*
X171932528Y-72243056D01*
X171933368Y-72242635D01*
X171933399Y-72242619D01*
X171948931Y-72234853D01*
X171948948Y-72234845D01*
X171950528Y-72234056D01*
X171951838Y-72233513D01*
X171953521Y-72232951D01*
X171953526Y-72232950D01*
X171957323Y-72231684D01*
X171957350Y-72231675D01*
X171957838Y-72231513D01*
X171958253Y-72231385D01*
X171958734Y-72231247D01*
X171958765Y-72231238D01*
X171963884Y-72229775D01*
X171963902Y-72229770D01*
X171965253Y-72229385D01*
X171966356Y-72229136D01*
X171967748Y-72228903D01*
X171967757Y-72228902D01*
X171978095Y-72227179D01*
X171978134Y-72227172D01*
X171978356Y-72227136D01*
X171978586Y-72227101D01*
X171978797Y-72227070D01*
X171978900Y-72227055D01*
X171985454Y-72226119D01*
X171989316Y-72225475D01*
X171989327Y-72225474D01*
X171991356Y-72225136D01*
X171993000Y-72225000D01*
X172207000Y-72225000D01*
X172208644Y-72225136D01*
X172210673Y-72225474D01*
X172210683Y-72225475D01*
X172214546Y-72226119D01*
X172221099Y-72227055D01*
X172221188Y-72227068D01*
X172221414Y-72227101D01*
X172221644Y-72227136D01*
X172221877Y-72227174D01*
X172221904Y-72227179D01*
X172232242Y-72228902D01*
X172232247Y-72228903D01*
X172233644Y-72229136D01*
X172234747Y-72229385D01*
X172236100Y-72229771D01*
X172236115Y-72229775D01*
X172241234Y-72231238D01*
X172241252Y-72231243D01*
X172241747Y-72231385D01*
X172242162Y-72231513D01*
X172242662Y-72231679D01*
X172242676Y-72231684D01*
X172246473Y-72232950D01*
X172248162Y-72233513D01*
X172249472Y-72234056D01*
X172251056Y-72234848D01*
X172251068Y-72234853D01*
X172260600Y-72239619D01*
X172260620Y-72239630D01*
X172261472Y-72240056D01*
X172262145Y-72240425D01*
X172265801Y-72242619D01*
X172265993Y-72242734D01*
X172267675Y-72243657D01*
X172270109Y-72244873D01*
X172270119Y-72244879D01*
X172272472Y-72246056D01*
X172274247Y-72247191D01*
X172278079Y-72250256D01*
X172279786Y-72251505D01*
X172284547Y-72254679D01*
X172285247Y-72255191D01*
X172290247Y-72259191D01*
X172291809Y-72260753D01*
X172293543Y-72262921D01*
X172297078Y-72266456D01*
X172299247Y-72268191D01*
X172300809Y-72269753D01*
X172304809Y-72274753D01*
X172305321Y-72275453D01*
X172305924Y-72276358D01*
X172308482Y-72280195D01*
X172309755Y-72281935D01*
X172310412Y-72282757D01*
X172325986Y-72302203D01*
X172374014Y-72302203D01*
X172389588Y-72282757D01*
X172390244Y-72281935D01*
X172391518Y-72280195D01*
X172394075Y-72276358D01*
X172394082Y-72276347D01*
X172394679Y-72275453D01*
X172395191Y-72274753D01*
X172399191Y-72269753D01*
X172400753Y-72268191D01*
X172402924Y-72266453D01*
X172406453Y-72262924D01*
X172408191Y-72260753D01*
X172409753Y-72259191D01*
X172414753Y-72255191D01*
X172415453Y-72254679D01*
X172416347Y-72254082D01*
X172416358Y-72254075D01*
X172418912Y-72252373D01*
X172420194Y-72251518D01*
X172421936Y-72250244D01*
X172424437Y-72248243D01*
X172424444Y-72248237D01*
X172425753Y-72247191D01*
X172426855Y-72246425D01*
X172428284Y-72245567D01*
X172428295Y-72245560D01*
X172431031Y-72243918D01*
X172431058Y-72243903D01*
X172431855Y-72243425D01*
X172432528Y-72243056D01*
X172433368Y-72242635D01*
X172433399Y-72242619D01*
X172448931Y-72234853D01*
X172448948Y-72234845D01*
X172450528Y-72234056D01*
X172451838Y-72233513D01*
X172453521Y-72232951D01*
X172453526Y-72232950D01*
X172457323Y-72231684D01*
X172457350Y-72231675D01*
X172457838Y-72231513D01*
X172458253Y-72231385D01*
X172458734Y-72231247D01*
X172458765Y-72231238D01*
X172463884Y-72229775D01*
X172463902Y-72229770D01*
X172465253Y-72229385D01*
X172466356Y-72229136D01*
X172467748Y-72228903D01*
X172467757Y-72228902D01*
X172478095Y-72227179D01*
X172478134Y-72227172D01*
X172478356Y-72227136D01*
X172478586Y-72227101D01*
X172478797Y-72227070D01*
X172478900Y-72227055D01*
X172485454Y-72226119D01*
X172489316Y-72225475D01*
X172489327Y-72225474D01*
X172491356Y-72225136D01*
X172493000Y-72225000D01*
X172707000Y-72225000D01*
X172708644Y-72225136D01*
X172710673Y-72225474D01*
X172710683Y-72225475D01*
X172714546Y-72226119D01*
X172721099Y-72227055D01*
X172721188Y-72227068D01*
X172721414Y-72227101D01*
X172721644Y-72227136D01*
X172721877Y-72227174D01*
X172721904Y-72227179D01*
X172732242Y-72228902D01*
X172732247Y-72228903D01*
X172733644Y-72229136D01*
X172734747Y-72229385D01*
X172736100Y-72229771D01*
X172736115Y-72229775D01*
X172741234Y-72231238D01*
X172741252Y-72231243D01*
X172741747Y-72231385D01*
X172742162Y-72231513D01*
X172742662Y-72231679D01*
X172742676Y-72231684D01*
X172746473Y-72232950D01*
X172748162Y-72233513D01*
X172749472Y-72234056D01*
X172751056Y-72234848D01*
X172751068Y-72234853D01*
X172766600Y-72242619D01*
X172766620Y-72242630D01*
X172767472Y-72243056D01*
X172768145Y-72243425D01*
X172768952Y-72243909D01*
X172768968Y-72243918D01*
X172771704Y-72245560D01*
X172771708Y-72245562D01*
X172773145Y-72246425D01*
X172774247Y-72247191D01*
X172778079Y-72250256D01*
X172779786Y-72251505D01*
X172784547Y-72254679D01*
X172785247Y-72255191D01*
X172790247Y-72259191D01*
X172791809Y-72260753D01*
X172793543Y-72262921D01*
X172797078Y-72266456D01*
X172799247Y-72268191D01*
X172800809Y-72269753D01*
X172804809Y-72274753D01*
X172805321Y-72275453D01*
X172805924Y-72276358D01*
X172808482Y-72280195D01*
X172809755Y-72281935D01*
X172810412Y-72282757D01*
X172825986Y-72302203D01*
X172874014Y-72302203D01*
X172889588Y-72282757D01*
X172890244Y-72281935D01*
X172891518Y-72280195D01*
X172894075Y-72276358D01*
X172894082Y-72276347D01*
X172894679Y-72275453D01*
X172895191Y-72274753D01*
X172899191Y-72269753D01*
X172900753Y-72268191D01*
X172902924Y-72266453D01*
X172906453Y-72262924D01*
X172908191Y-72260753D01*
X172909753Y-72259191D01*
X172914753Y-72255191D01*
X172915453Y-72254679D01*
X172916347Y-72254082D01*
X172916358Y-72254075D01*
X172918912Y-72252373D01*
X172920194Y-72251518D01*
X172921936Y-72250244D01*
X172924437Y-72248243D01*
X172924444Y-72248237D01*
X172925753Y-72247191D01*
X172926855Y-72246425D01*
X172928284Y-72245567D01*
X172928295Y-72245560D01*
X172931031Y-72243918D01*
X172931058Y-72243903D01*
X172931855Y-72243425D01*
X172932528Y-72243056D01*
X172933368Y-72242635D01*
X172933399Y-72242619D01*
X172948931Y-72234853D01*
X172948948Y-72234845D01*
X172950528Y-72234056D01*
X172951838Y-72233513D01*
X172953521Y-72232951D01*
X172953526Y-72232950D01*
X172957323Y-72231684D01*
X172957350Y-72231675D01*
X172957838Y-72231513D01*
X172958253Y-72231385D01*
X172958734Y-72231247D01*
X172958765Y-72231238D01*
X172963884Y-72229775D01*
X172963902Y-72229770D01*
X172965253Y-72229385D01*
X172966356Y-72229136D01*
X172967748Y-72228903D01*
X172967757Y-72228902D01*
X172978095Y-72227179D01*
X172978134Y-72227172D01*
X172978356Y-72227136D01*
X172978586Y-72227101D01*
X172978797Y-72227070D01*
X172978900Y-72227055D01*
X172985454Y-72226119D01*
X172989316Y-72225475D01*
X172989327Y-72225474D01*
X172991356Y-72225136D01*
X172993000Y-72225000D01*
X173207000Y-72225000D01*
X173208644Y-72225136D01*
X173210673Y-72225474D01*
X173210683Y-72225475D01*
X173214546Y-72226119D01*
X173221099Y-72227055D01*
X173221188Y-72227068D01*
X173221414Y-72227101D01*
X173221644Y-72227136D01*
X173221877Y-72227174D01*
X173221904Y-72227179D01*
X173232242Y-72228902D01*
X173232247Y-72228903D01*
X173233644Y-72229136D01*
X173234747Y-72229385D01*
X173236100Y-72229771D01*
X173236115Y-72229775D01*
X173241234Y-72231238D01*
X173241252Y-72231243D01*
X173241747Y-72231385D01*
X173242162Y-72231513D01*
X173242662Y-72231679D01*
X173242676Y-72231684D01*
X173246473Y-72232950D01*
X173248162Y-72233513D01*
X173249472Y-72234056D01*
X173251056Y-72234848D01*
X173251068Y-72234853D01*
X173260600Y-72239619D01*
X173260620Y-72239630D01*
X173261472Y-72240056D01*
X173262145Y-72240425D01*
X173265801Y-72242619D01*
X173265993Y-72242734D01*
X173267675Y-72243657D01*
X173270109Y-72244873D01*
X173270119Y-72244879D01*
X173272472Y-72246056D01*
X173274247Y-72247191D01*
X173278079Y-72250256D01*
X173279786Y-72251505D01*
X173284547Y-72254679D01*
X173285247Y-72255191D01*
X173290247Y-72259191D01*
X173291809Y-72260753D01*
X173293543Y-72262921D01*
X173297078Y-72266456D01*
X173299247Y-72268191D01*
X173300809Y-72269753D01*
X173304809Y-72274753D01*
X173305321Y-72275453D01*
X173305924Y-72276358D01*
X173308478Y-72280189D01*
X173309756Y-72281936D01*
X173311256Y-72283811D01*
X173312809Y-72285753D01*
X173313575Y-72286855D01*
X173316575Y-72291855D01*
X173316944Y-72292528D01*
X173317368Y-72293377D01*
X173317380Y-72293398D01*
X173335921Y-72330481D01*
X173407748Y-72319681D01*
X173413902Y-72282757D01*
X173413903Y-72282748D01*
X173414136Y-72281356D01*
X173414385Y-72280253D01*
X173414770Y-72278902D01*
X173414775Y-72278884D01*
X173416238Y-72273765D01*
X173416247Y-72273734D01*
X173416385Y-72273253D01*
X173416513Y-72272838D01*
X173416675Y-72272350D01*
X173416684Y-72272323D01*
X173417950Y-72268526D01*
X173417951Y-72268521D01*
X173418513Y-72266838D01*
X173419056Y-72265528D01*
X173419845Y-72263948D01*
X173419853Y-72263931D01*
X173424619Y-72254399D01*
X173424635Y-72254368D01*
X173425056Y-72253528D01*
X173425425Y-72252855D01*
X173425909Y-72252047D01*
X173425918Y-72252032D01*
X173427734Y-72249007D01*
X173428657Y-72247325D01*
X173429873Y-72244890D01*
X173429884Y-72244873D01*
X173431056Y-72242528D01*
X173432191Y-72240753D01*
X173433838Y-72238694D01*
X173433842Y-72238688D01*
X173435244Y-72236936D01*
X173436522Y-72235189D01*
X173439075Y-72231358D01*
X173439082Y-72231347D01*
X173439679Y-72230453D01*
X173440191Y-72229753D01*
X173444191Y-72224753D01*
X173445753Y-72223191D01*
X173447924Y-72221453D01*
X173451453Y-72217924D01*
X173453191Y-72215753D01*
X173454753Y-72214191D01*
X173459753Y-72210191D01*
X173460453Y-72209679D01*
X173461347Y-72209082D01*
X173461358Y-72209075D01*
X173465195Y-72206518D01*
X173466935Y-72205244D01*
X173468496Y-72203996D01*
X173487203Y-72189014D01*
X173487203Y-72140986D01*
X173468496Y-72126003D01*
X173466935Y-72124755D01*
X173465195Y-72123482D01*
X173461358Y-72120924D01*
X173460453Y-72120321D01*
X173459753Y-72119809D01*
X173454753Y-72115809D01*
X173453191Y-72114247D01*
X173451456Y-72112078D01*
X173447921Y-72108543D01*
X173445753Y-72106809D01*
X173444191Y-72105247D01*
X173440191Y-72100247D01*
X173439679Y-72099547D01*
X173436505Y-72094786D01*
X173435256Y-72093079D01*
X173432191Y-72089247D01*
X173431056Y-72087472D01*
X173429879Y-72085119D01*
X173429873Y-72085109D01*
X173428657Y-72082675D01*
X173427734Y-72080993D01*
X173425918Y-72077967D01*
X173425915Y-72077963D01*
X173425425Y-72077145D01*
X173425056Y-72076472D01*
X173424630Y-72075620D01*
X173424619Y-72075600D01*
X173419853Y-72066068D01*
X173419848Y-72066056D01*
X173419056Y-72064472D01*
X173418513Y-72063162D01*
X173416513Y-72057162D01*
X173416385Y-72056747D01*
X173416238Y-72056234D01*
X173414775Y-72051115D01*
X173414771Y-72051100D01*
X173414385Y-72049747D01*
X173414136Y-72048644D01*
X173413812Y-72046697D01*
X173412179Y-72036904D01*
X173412174Y-72036877D01*
X173412136Y-72036644D01*
X173412101Y-72036414D01*
X173412068Y-72036188D01*
X173412055Y-72036099D01*
X173411119Y-72029546D01*
X173410475Y-72025683D01*
X173410474Y-72025673D01*
X173410136Y-72023644D01*
X173410000Y-72022000D01*
X173410000Y-71808000D01*
X173410136Y-71806356D01*
X173410474Y-71804327D01*
X173410475Y-71804316D01*
X173411119Y-71800454D01*
X173412055Y-71793900D01*
X173412070Y-71793797D01*
X173412101Y-71793586D01*
X173412136Y-71793356D01*
X173412172Y-71793134D01*
X173412179Y-71793095D01*
X173413902Y-71782757D01*
X173413903Y-71782748D01*
X173414136Y-71781356D01*
X173414385Y-71780253D01*
X173414770Y-71778902D01*
X173414775Y-71778884D01*
X173416238Y-71773765D01*
X173416247Y-71773734D01*
X173416385Y-71773253D01*
X173416513Y-71772838D01*
X173416675Y-71772350D01*
X173416684Y-71772323D01*
X173417950Y-71768526D01*
X173417951Y-71768521D01*
X173418513Y-71766838D01*
X173419056Y-71765528D01*
X173419845Y-71763948D01*
X173419853Y-71763931D01*
X173424619Y-71754399D01*
X173424635Y-71754368D01*
X173425056Y-71753528D01*
X173425425Y-71752855D01*
X173425909Y-71752047D01*
X173425918Y-71752032D01*
X173427734Y-71749007D01*
X173428657Y-71747325D01*
X173429873Y-71744890D01*
X173429882Y-71744875D01*
X173431056Y-71742528D01*
X173432191Y-71740753D01*
X173433838Y-71738694D01*
X173433842Y-71738688D01*
X173435244Y-71736936D01*
X173436522Y-71735189D01*
X173439075Y-71731358D01*
X173439082Y-71731347D01*
X173439679Y-71730453D01*
X173440191Y-71729753D01*
X173444191Y-71724753D01*
X173445753Y-71723191D01*
X173447924Y-71721453D01*
X173451453Y-71717924D01*
X173453191Y-71715753D01*
X173454753Y-71714191D01*
X173459753Y-71710191D01*
X173460453Y-71709679D01*
X173461347Y-71709082D01*
X173461358Y-71709075D01*
X173465195Y-71706518D01*
X173466935Y-71705244D01*
X173468496Y-71703996D01*
X173487203Y-71689014D01*
X173487203Y-71640986D01*
X173468496Y-71626003D01*
X173466935Y-71624755D01*
X173465195Y-71623482D01*
X173461358Y-71620924D01*
X173460453Y-71620321D01*
X173459753Y-71619809D01*
X173454753Y-71615809D01*
X173453191Y-71614247D01*
X173451456Y-71612078D01*
X173447921Y-71608543D01*
X173445753Y-71606809D01*
X173444191Y-71605247D01*
X173440191Y-71600247D01*
X173439679Y-71599547D01*
X173436505Y-71594786D01*
X173435256Y-71593079D01*
X173432191Y-71589247D01*
X173431056Y-71587472D01*
X173429879Y-71585119D01*
X173429873Y-71585109D01*
X173428657Y-71582675D01*
X173427734Y-71580993D01*
X173425918Y-71577967D01*
X173425915Y-71577963D01*
X173425425Y-71577145D01*
X173425056Y-71576472D01*
X173424630Y-71575620D01*
X173424619Y-71575600D01*
X173419853Y-71566068D01*
X173419848Y-71566056D01*
X173419056Y-71564472D01*
X173418513Y-71563162D01*
X173416513Y-71557162D01*
X173416385Y-71556747D01*
X173416238Y-71556234D01*
X173414775Y-71551115D01*
X173414771Y-71551100D01*
X173414385Y-71549747D01*
X173414136Y-71548644D01*
X173413542Y-71545077D01*
X173412179Y-71536904D01*
X173412174Y-71536877D01*
X173412136Y-71536644D01*
X173412101Y-71536414D01*
X173412068Y-71536188D01*
X173412055Y-71536099D01*
X173411119Y-71529546D01*
X173410475Y-71525683D01*
X173410474Y-71525673D01*
X173410136Y-71523644D01*
X173410000Y-71522000D01*
X173410000Y-71308000D01*
X173410136Y-71306356D01*
X173410474Y-71304327D01*
X173410475Y-71304316D01*
X173411119Y-71300454D01*
X173412055Y-71293900D01*
X173412070Y-71293797D01*
X173412101Y-71293586D01*
X173412136Y-71293356D01*
X173412172Y-71293134D01*
X173412179Y-71293095D01*
X173413902Y-71282757D01*
X173413903Y-71282748D01*
X173414136Y-71281356D01*
X173414385Y-71280253D01*
X173414770Y-71278902D01*
X173414775Y-71278884D01*
X173416238Y-71273765D01*
X173416247Y-71273734D01*
X173416385Y-71273253D01*
X173416513Y-71272838D01*
X173416675Y-71272350D01*
X173416684Y-71272323D01*
X173417950Y-71268526D01*
X173417951Y-71268521D01*
X173418513Y-71266838D01*
X173419056Y-71265528D01*
X173419845Y-71263948D01*
X173419853Y-71263931D01*
X173424619Y-71254399D01*
X173424635Y-71254368D01*
X173425056Y-71253528D01*
X173425425Y-71252855D01*
X173425909Y-71252047D01*
X173425918Y-71252032D01*
X173427734Y-71249007D01*
X173428657Y-71247325D01*
X173429873Y-71244890D01*
X173429882Y-71244875D01*
X173431056Y-71242528D01*
X173432191Y-71240753D01*
X173433838Y-71238694D01*
X173433842Y-71238688D01*
X173435244Y-71236936D01*
X173436522Y-71235189D01*
X173439075Y-71231358D01*
X173439082Y-71231347D01*
X173439679Y-71230453D01*
X173440191Y-71229753D01*
X173444191Y-71224753D01*
X173445753Y-71223191D01*
X173447924Y-71221453D01*
X173451453Y-71217924D01*
X173453191Y-71215753D01*
X173454753Y-71214191D01*
X173459753Y-71210191D01*
X173460453Y-71209679D01*
X173461347Y-71209082D01*
X173461358Y-71209075D01*
X173465195Y-71206518D01*
X173466935Y-71205244D01*
X173468496Y-71203996D01*
X173487203Y-71189014D01*
X173487203Y-71140986D01*
X173468496Y-71126003D01*
X173466935Y-71124755D01*
X173465195Y-71123482D01*
X173461358Y-71120924D01*
X173460453Y-71120321D01*
X173459753Y-71119809D01*
X173454753Y-71115809D01*
X173453191Y-71114247D01*
X173451456Y-71112078D01*
X173447921Y-71108543D01*
X173445753Y-71106809D01*
X173444191Y-71105247D01*
X173440191Y-71100247D01*
X173439679Y-71099547D01*
X173436505Y-71094786D01*
X173435256Y-71093079D01*
X173432191Y-71089247D01*
X173431056Y-71087472D01*
X173429879Y-71085119D01*
X173429873Y-71085109D01*
X173428657Y-71082675D01*
X173427734Y-71080993D01*
X173425918Y-71077967D01*
X173425915Y-71077963D01*
X173425425Y-71077145D01*
X173425056Y-71076472D01*
X173424630Y-71075620D01*
X173424619Y-71075600D01*
X173419853Y-71066068D01*
X173419848Y-71066056D01*
X173419056Y-71064472D01*
X173418513Y-71063162D01*
X173417541Y-71060247D01*
X173416684Y-71057676D01*
X173416679Y-71057662D01*
X173416513Y-71057162D01*
X173416385Y-71056747D01*
X173416238Y-71056234D01*
X173414775Y-71051115D01*
X173414771Y-71051100D01*
X173414385Y-71049747D01*
X173414136Y-71048644D01*
X173413403Y-71044247D01*
X173407748Y-71010319D01*
X173335921Y-70999519D01*
X173317474Y-71036414D01*
X173316944Y-71037472D01*
X173316575Y-71038145D01*
X173313575Y-71043145D01*
X173312809Y-71044247D01*
X173309743Y-71048079D01*
X173308494Y-71049786D01*
X173305321Y-71054547D01*
X173304809Y-71055247D01*
X173300809Y-71060247D01*
X173299247Y-71061809D01*
X173297080Y-71063541D01*
X173293541Y-71067080D01*
X173291809Y-71069247D01*
X173290247Y-71070809D01*
X173285247Y-71074809D01*
X173284547Y-71075321D01*
X173279786Y-71078494D01*
X173278079Y-71079743D01*
X173274247Y-71082809D01*
X173272472Y-71083944D01*
X173270112Y-71085123D01*
X173270109Y-71085126D01*
X173267675Y-71086343D01*
X173265996Y-71087263D01*
X173262145Y-71089575D01*
X173261472Y-71089944D01*
X173249472Y-71095944D01*
X173248162Y-71096487D01*
X173242162Y-71098487D01*
X173241747Y-71098615D01*
X173234747Y-71100615D01*
X173233644Y-71100864D01*
X173221644Y-71102864D01*
X173221414Y-71102899D01*
X173221099Y-71102944D01*
X173214546Y-71103881D01*
X173211455Y-71104395D01*
X173208644Y-71104864D01*
X173207000Y-71105000D01*
X173204933Y-71105000D01*
X172995067Y-71105000D01*
X172993000Y-71105000D01*
X172991356Y-71104864D01*
X172989316Y-71104524D01*
X172985454Y-71103881D01*
X172978900Y-71102944D01*
X172978887Y-71102942D01*
X172978586Y-71102899D01*
X172978356Y-71102864D01*
X172966356Y-71100864D01*
X172965253Y-71100615D01*
X172963886Y-71100224D01*
X172963884Y-71100224D01*
X172961515Y-71099547D01*
X172958253Y-71098615D01*
X172957838Y-71098487D01*
X172951838Y-71096487D01*
X172950528Y-71095944D01*
X172948936Y-71095148D01*
X172948931Y-71095146D01*
X172939399Y-71090380D01*
X172939388Y-71090374D01*
X172938528Y-71089944D01*
X172937855Y-71089575D01*
X172934003Y-71087263D01*
X172932325Y-71086343D01*
X172929890Y-71085126D01*
X172929882Y-71085121D01*
X172927528Y-71083944D01*
X172925753Y-71082809D01*
X172921939Y-71079758D01*
X172921936Y-71079756D01*
X172920189Y-71078478D01*
X172920186Y-71078476D01*
X172915453Y-71075321D01*
X172914753Y-71074809D01*
X172909753Y-71070809D01*
X172908191Y-71069247D01*
X172906456Y-71067078D01*
X172902921Y-71063543D01*
X172900753Y-71061809D01*
X172899191Y-71060247D01*
X172895191Y-71055247D01*
X172894679Y-71054547D01*
X172891507Y-71049789D01*
X172890258Y-71048081D01*
X172887191Y-71044247D01*
X172887176Y-71044225D01*
X172874037Y-71027795D01*
X172825963Y-71027795D01*
X172812823Y-71044225D01*
X172812809Y-71044247D01*
X172809741Y-71048081D01*
X172808492Y-71049789D01*
X172805321Y-71054547D01*
X172804809Y-71055247D01*
X172800809Y-71060247D01*
X172799247Y-71061809D01*
X172797080Y-71063541D01*
X172793541Y-71067080D01*
X172791809Y-71069247D01*
X172790247Y-71070809D01*
X172785247Y-71074809D01*
X172784547Y-71075321D01*
X172779786Y-71078494D01*
X172778079Y-71079743D01*
X172774247Y-71082809D01*
X172773145Y-71083575D01*
X172768145Y-71086575D01*
X172767472Y-71086944D01*
X172749472Y-71095944D01*
X172748162Y-71096487D01*
X172742162Y-71098487D01*
X172741747Y-71098615D01*
X172734747Y-71100615D01*
X172733644Y-71100864D01*
X172721644Y-71102864D01*
X172721414Y-71102899D01*
X172721099Y-71102944D01*
X172714546Y-71103881D01*
X172711455Y-71104395D01*
X172708644Y-71104864D01*
X172707000Y-71105000D01*
X172704933Y-71105000D01*
X172495067Y-71105000D01*
X172493000Y-71105000D01*
X172491356Y-71104864D01*
X172489316Y-71104524D01*
X172485454Y-71103881D01*
X172478900Y-71102944D01*
X172478887Y-71102942D01*
X172478586Y-71102899D01*
X172478356Y-71102864D01*
X172466356Y-71100864D01*
X172465253Y-71100615D01*
X172463886Y-71100224D01*
X172463884Y-71100224D01*
X172461515Y-71099547D01*
X172458253Y-71098615D01*
X172457838Y-71098487D01*
X172451838Y-71096487D01*
X172450528Y-71095944D01*
X172448936Y-71095148D01*
X172448931Y-71095146D01*
X172439399Y-71090380D01*
X172439388Y-71090374D01*
X172438528Y-71089944D01*
X172437855Y-71089575D01*
X172434003Y-71087263D01*
X172432325Y-71086343D01*
X172429890Y-71085126D01*
X172429882Y-71085121D01*
X172427528Y-71083944D01*
X172425753Y-71082809D01*
X172421939Y-71079758D01*
X172421936Y-71079756D01*
X172420189Y-71078478D01*
X172420186Y-71078476D01*
X172415453Y-71075321D01*
X172414753Y-71074809D01*
X172409753Y-71070809D01*
X172408191Y-71069247D01*
X172406456Y-71067078D01*
X172402921Y-71063543D01*
X172400753Y-71061809D01*
X172399191Y-71060247D01*
X172395191Y-71055247D01*
X172394679Y-71054547D01*
X172391507Y-71049789D01*
X172390258Y-71048081D01*
X172387191Y-71044247D01*
X172387176Y-71044225D01*
X172374037Y-71027795D01*
X172325963Y-71027795D01*
X172312823Y-71044225D01*
X172312809Y-71044247D01*
X172309741Y-71048081D01*
X172308492Y-71049789D01*
X172305321Y-71054547D01*
X172304809Y-71055247D01*
X172300809Y-71060247D01*
X172299247Y-71061809D01*
X172297080Y-71063541D01*
X172293541Y-71067080D01*
X172291809Y-71069247D01*
X172290247Y-71070809D01*
X172285247Y-71074809D01*
X172284547Y-71075321D01*
X172279786Y-71078494D01*
X172278079Y-71079743D01*
X172274247Y-71082809D01*
X172272472Y-71083944D01*
X172270112Y-71085123D01*
X172270109Y-71085126D01*
X172267675Y-71086343D01*
X172265996Y-71087263D01*
X172262145Y-71089575D01*
X172261472Y-71089944D01*
X172249472Y-71095944D01*
X172248162Y-71096487D01*
X172242162Y-71098487D01*
X172241747Y-71098615D01*
X172234747Y-71100615D01*
X172233644Y-71100864D01*
X172221644Y-71102864D01*
X172221414Y-71102899D01*
X172221099Y-71102944D01*
X172214546Y-71103881D01*
X172211455Y-71104395D01*
X172208644Y-71104864D01*
X172207000Y-71105000D01*
X172204933Y-71105000D01*
X171995067Y-71105000D01*
X171993000Y-71105000D01*
X171991356Y-71104864D01*
X171989316Y-71104524D01*
X171985454Y-71103881D01*
X171978900Y-71102944D01*
X171978887Y-71102942D01*
X171978586Y-71102899D01*
X171978356Y-71102864D01*
X171966356Y-71100864D01*
X171965253Y-71100615D01*
X171963886Y-71100224D01*
X171963884Y-71100224D01*
X171961515Y-71099547D01*
X171958253Y-71098615D01*
X171957838Y-71098487D01*
X171951838Y-71096487D01*
X171950528Y-71095944D01*
X171948936Y-71095148D01*
X171948931Y-71095146D01*
X171939399Y-71090380D01*
X171939388Y-71090374D01*
X171938528Y-71089944D01*
X171937855Y-71089575D01*
X171934003Y-71087263D01*
X171932325Y-71086343D01*
X171929890Y-71085126D01*
X171929882Y-71085121D01*
X171927528Y-71083944D01*
X171925753Y-71082809D01*
X171921939Y-71079758D01*
X171921936Y-71079756D01*
X171920189Y-71078478D01*
X171920186Y-71078476D01*
X171915453Y-71075321D01*
X171914753Y-71074809D01*
X171909753Y-71070809D01*
X171908191Y-71069247D01*
X171906456Y-71067078D01*
X171902921Y-71063543D01*
X171900753Y-71061809D01*
X171899191Y-71060247D01*
X171895191Y-71055247D01*
X171894679Y-71054547D01*
X171891505Y-71049786D01*
X171890256Y-71048079D01*
X171887191Y-71044247D01*
X171886425Y-71043145D01*
X171885560Y-71041704D01*
X171883918Y-71038968D01*
X171883909Y-71038952D01*
X171883425Y-71038145D01*
X171883056Y-71037472D01*
X171882635Y-71036631D01*
X171882619Y-71036601D01*
X171864079Y-70999519D01*
X171792252Y-71010319D01*
X171787871Y-71036601D01*
X171787864Y-71036644D01*
X171785864Y-71048644D01*
X171785615Y-71049747D01*
X171783615Y-71056747D01*
X171783487Y-71057162D01*
X171781487Y-71063162D01*
X171780944Y-71064472D01*
X171774944Y-71076472D01*
X171774575Y-71077145D01*
X171773776Y-71078476D01*
X171772266Y-71080993D01*
X171771343Y-71082675D01*
X171770461Y-71084439D01*
X171768944Y-71087472D01*
X171767809Y-71089247D01*
X171764743Y-71093079D01*
X171763494Y-71094786D01*
X171760321Y-71099547D01*
X171759809Y-71100247D01*
X171755809Y-71105247D01*
X171754247Y-71106809D01*
X171752080Y-71108541D01*
X171748541Y-71112080D01*
X171746809Y-71114247D01*
X171745247Y-71115809D01*
X171740247Y-71119809D01*
X171739547Y-71120321D01*
X171734789Y-71123492D01*
X171733081Y-71124741D01*
X171729247Y-71127809D01*
X171729225Y-71127823D01*
X171712795Y-71140963D01*
X171157174Y-71140963D01*
X171138496Y-71126003D01*
X171136935Y-71124755D01*
X171135195Y-71123482D01*
X171131358Y-71120924D01*
X171130453Y-71120321D01*
X171129753Y-71119809D01*
X171124753Y-71115809D01*
X171123191Y-71114247D01*
X171121456Y-71112078D01*
X171117921Y-71108543D01*
X171115753Y-71106809D01*
X171114191Y-71105247D01*
X171110191Y-71100247D01*
X171109679Y-71099547D01*
X171106505Y-71094786D01*
X171105256Y-71093079D01*
X171102191Y-71089247D01*
X171101056Y-71087472D01*
X171099879Y-71085119D01*
X171099873Y-71085109D01*
X171098657Y-71082675D01*
X171097734Y-71080993D01*
X171095918Y-71077967D01*
X171095915Y-71077963D01*
X171095425Y-71077145D01*
X171095056Y-71076472D01*
X171094630Y-71075620D01*
X171094619Y-71075600D01*
X171089853Y-71066068D01*
X171089848Y-71066056D01*
X171089056Y-71064472D01*
X171088513Y-71063162D01*
X171087541Y-71060247D01*
X171086684Y-71057676D01*
X171086679Y-71057662D01*
X171086513Y-71057162D01*
X171086385Y-71056747D01*
X171086238Y-71056234D01*
X171084775Y-71051115D01*
X171084771Y-71051100D01*
X171084385Y-71049747D01*
X171084136Y-71048644D01*
X171083220Y-71043145D01*
X171082179Y-71036904D01*
X171082174Y-71036877D01*
X171082136Y-71036644D01*
X171082101Y-71036414D01*
X171082068Y-71036188D01*
X171082055Y-71036099D01*
X171081119Y-71029546D01*
X171080475Y-71025683D01*
X171080474Y-71025673D01*
X171080136Y-71023644D01*
X171080000Y-71022000D01*
X171080000Y-70808000D01*
X171080136Y-70806356D01*
X171080474Y-70804327D01*
X171080475Y-70804316D01*
X171081119Y-70800454D01*
X171082055Y-70793900D01*
X171082070Y-70793797D01*
X171082101Y-70793586D01*
X171082136Y-70793356D01*
X171082172Y-70793134D01*
X171082179Y-70793095D01*
X171083902Y-70782757D01*
X171083903Y-70782748D01*
X171084136Y-70781356D01*
X171084385Y-70780253D01*
X171084770Y-70778902D01*
X171084775Y-70778884D01*
X171086238Y-70773765D01*
X171086247Y-70773734D01*
X171086385Y-70773253D01*
X171086513Y-70772838D01*
X171086675Y-70772350D01*
X171086684Y-70772323D01*
X171087950Y-70768526D01*
X171087951Y-70768521D01*
X171088513Y-70766838D01*
X171089056Y-70765528D01*
X171089845Y-70763948D01*
X171089853Y-70763931D01*
X171094619Y-70754399D01*
X171094635Y-70754368D01*
X171095056Y-70753528D01*
X171095425Y-70752855D01*
X171095909Y-70752047D01*
X171095918Y-70752032D01*
X171097734Y-70749007D01*
X171098657Y-70747325D01*
X171099873Y-70744890D01*
X171099882Y-70744875D01*
X171101056Y-70742528D01*
X171102191Y-70740753D01*
X171103838Y-70738694D01*
X171103842Y-70738688D01*
X171105244Y-70736936D01*
X171106522Y-70735189D01*
X171109075Y-70731358D01*
X171109082Y-70731347D01*
X171109679Y-70730453D01*
X171110191Y-70729753D01*
X171114191Y-70724753D01*
X171115753Y-70723191D01*
X171117924Y-70721453D01*
X171121453Y-70717924D01*
X171123191Y-70715753D01*
X171124753Y-70714191D01*
X171129753Y-70710191D01*
X171130453Y-70709679D01*
X171131347Y-70709082D01*
X171131358Y-70709075D01*
X171133912Y-70707373D01*
X171135194Y-70706518D01*
X171136936Y-70705244D01*
X171139437Y-70703243D01*
X171139444Y-70703237D01*
X171140753Y-70702191D01*
X171141855Y-70701425D01*
X171143284Y-70700567D01*
X171143295Y-70700560D01*
X171146031Y-70698918D01*
X171146058Y-70698903D01*
X171146855Y-70698425D01*
X171147528Y-70698056D01*
X171148368Y-70697635D01*
X171148399Y-70697619D01*
X171163931Y-70689853D01*
X171163948Y-70689845D01*
X171165528Y-70689056D01*
X171166838Y-70688513D01*
X171168521Y-70687951D01*
X171168526Y-70687950D01*
X171172323Y-70686684D01*
X171172350Y-70686675D01*
X171172838Y-70686513D01*
X171173253Y-70686385D01*
X171173734Y-70686247D01*
X171173765Y-70686238D01*
X171178884Y-70684775D01*
X171178902Y-70684770D01*
X171180253Y-70684385D01*
X171181356Y-70684136D01*
X171182748Y-70683903D01*
X171182757Y-70683902D01*
X171193095Y-70682179D01*
X171193134Y-70682172D01*
X171193356Y-70682136D01*
X171193586Y-70682101D01*
X171193797Y-70682070D01*
X171193900Y-70682055D01*
X171200454Y-70681119D01*
X171204316Y-70680475D01*
X171204327Y-70680474D01*
X171206356Y-70680136D01*
X171208000Y-70680000D01*
X171662000Y-70680000D01*
X171663644Y-70680136D01*
X171665673Y-70680474D01*
X171665683Y-70680475D01*
X171669546Y-70681119D01*
X171676099Y-70682055D01*
X171676188Y-70682068D01*
X171676414Y-70682101D01*
X171676644Y-70682136D01*
X171676877Y-70682174D01*
X171676904Y-70682179D01*
X171687242Y-70683902D01*
X171687247Y-70683903D01*
X171688644Y-70684136D01*
X171689747Y-70684385D01*
X171691100Y-70684771D01*
X171691115Y-70684775D01*
X171696234Y-70686238D01*
X171696252Y-70686243D01*
X171696747Y-70686385D01*
X171697162Y-70686513D01*
X171697662Y-70686679D01*
X171697676Y-70686684D01*
X171701473Y-70687950D01*
X171703162Y-70688513D01*
X171704472Y-70689056D01*
X171706056Y-70689848D01*
X171706068Y-70689853D01*
X171721600Y-70697619D01*
X171721620Y-70697630D01*
X171722472Y-70698056D01*
X171723145Y-70698425D01*
X171723952Y-70698909D01*
X171723968Y-70698918D01*
X171726704Y-70700560D01*
X171726708Y-70700562D01*
X171728145Y-70701425D01*
X171729247Y-70702191D01*
X171733079Y-70705256D01*
X171734786Y-70706505D01*
X171739547Y-70709679D01*
X171740247Y-70710191D01*
X171745247Y-70714191D01*
X171746809Y-70715753D01*
X171748543Y-70717921D01*
X171752078Y-70721456D01*
X171754247Y-70723191D01*
X171755809Y-70724753D01*
X171759809Y-70729753D01*
X171760321Y-70730453D01*
X171760924Y-70731358D01*
X171763478Y-70735189D01*
X171764756Y-70736936D01*
X171766157Y-70738688D01*
X171767809Y-70740753D01*
X171768944Y-70742528D01*
X171770122Y-70744884D01*
X171770127Y-70744892D01*
X171771775Y-70748189D01*
X171774575Y-70752855D01*
X171774944Y-70753528D01*
X171780944Y-70765528D01*
X171781487Y-70766838D01*
X171782261Y-70769162D01*
X171787977Y-70780593D01*
X171865000Y-70762410D01*
X171865000Y-70525067D01*
X171865000Y-70523000D01*
X171865136Y-70521356D01*
X171865474Y-70519327D01*
X171865475Y-70519316D01*
X171866119Y-70515454D01*
X171867055Y-70508900D01*
X171867070Y-70508797D01*
X171867101Y-70508586D01*
X171867136Y-70508356D01*
X171867172Y-70508134D01*
X171867179Y-70508095D01*
X171868902Y-70497757D01*
X171868903Y-70497748D01*
X171869136Y-70496356D01*
X171869385Y-70495253D01*
X171869770Y-70493902D01*
X171869775Y-70493884D01*
X171871238Y-70488765D01*
X171871247Y-70488734D01*
X171871385Y-70488253D01*
X171871513Y-70487838D01*
X171871675Y-70487350D01*
X171871684Y-70487323D01*
X171872950Y-70483526D01*
X171872951Y-70483521D01*
X171873513Y-70481838D01*
X171874056Y-70480528D01*
X171874845Y-70478948D01*
X171874853Y-70478931D01*
X171882619Y-70463399D01*
X171882635Y-70463368D01*
X171883056Y-70462528D01*
X171883425Y-70461855D01*
X171883903Y-70461058D01*
X171883918Y-70461031D01*
X171885560Y-70458295D01*
X171885567Y-70458284D01*
X171886425Y-70456855D01*
X171887191Y-70455753D01*
X171888237Y-70454444D01*
X171888243Y-70454437D01*
X171890244Y-70451936D01*
X171891522Y-70450189D01*
X171891649Y-70449999D01*
X171892373Y-70448912D01*
X171894075Y-70446358D01*
X171894082Y-70446347D01*
X171894679Y-70445453D01*
X171895191Y-70444753D01*
X171899191Y-70439753D01*
X171900753Y-70438191D01*
X171902924Y-70436453D01*
X171906453Y-70432924D01*
X171908191Y-70430753D01*
X171909753Y-70429191D01*
X171914753Y-70425191D01*
X171915453Y-70424679D01*
X171916347Y-70424082D01*
X171916358Y-70424075D01*
X171918912Y-70422373D01*
X171920194Y-70421518D01*
X171921936Y-70420244D01*
X171924437Y-70418243D01*
X171924444Y-70418237D01*
X171925753Y-70417191D01*
X171926855Y-70416425D01*
X171928284Y-70415567D01*
X171928295Y-70415560D01*
X171931031Y-70413918D01*
X171931058Y-70413903D01*
X171931855Y-70413425D01*
X171932528Y-70413056D01*
X171933368Y-70412635D01*
X171933399Y-70412619D01*
X171948931Y-70404853D01*
X171948948Y-70404845D01*
X171950528Y-70404056D01*
X171951838Y-70403513D01*
X171953521Y-70402951D01*
X171953526Y-70402950D01*
X171957323Y-70401684D01*
X171957350Y-70401675D01*
X171957838Y-70401513D01*
X171958253Y-70401385D01*
X171958734Y-70401247D01*
X171958765Y-70401238D01*
X171963884Y-70399775D01*
X171963902Y-70399770D01*
X171965253Y-70399385D01*
X171966356Y-70399136D01*
X171967748Y-70398903D01*
X171967757Y-70398902D01*
X171978095Y-70397179D01*
X171978134Y-70397172D01*
X171978356Y-70397136D01*
X171978586Y-70397101D01*
X171978797Y-70397070D01*
X171978900Y-70397055D01*
X171985454Y-70396119D01*
X171989316Y-70395475D01*
X171989327Y-70395474D01*
X171991356Y-70395136D01*
X171993000Y-70395000D01*
X172207000Y-70395000D01*
X172208644Y-70395136D01*
G37*
G36*
X169773576Y-72015657D02*
G01*
X169818995Y-72046005D01*
X169849343Y-72091424D01*
X169860000Y-72145000D01*
X169860000Y-72425000D01*
X169849343Y-72478576D01*
X169818995Y-72523995D01*
X169773576Y-72554343D01*
X169720000Y-72565000D01*
X169380000Y-72565000D01*
X169326424Y-72554343D01*
X169281005Y-72523995D01*
X169250657Y-72478576D01*
X169240000Y-72425000D01*
X169240000Y-72145000D01*
X169250657Y-72091424D01*
X169281005Y-72046005D01*
X169326424Y-72015657D01*
X169380000Y-72005000D01*
X169720000Y-72005000D01*
X169773576Y-72015657D01*
G37*
G36*
X155825000Y-72450000D02*
G01*
X154275000Y-72450000D01*
X154275000Y-71850000D01*
X155825000Y-71850000D01*
X155825000Y-72450000D01*
G37*
G36*
X175716104Y-71072127D02*
G01*
X175789099Y-71120901D01*
X175837873Y-71193896D01*
X175855000Y-71280000D01*
X175855000Y-71780000D01*
X175837873Y-71866104D01*
X175789099Y-71939099D01*
X175716104Y-71987873D01*
X175630000Y-72005000D01*
X175180000Y-72005000D01*
X175093896Y-71987873D01*
X175020901Y-71939099D01*
X174972127Y-71866104D01*
X174955000Y-71780000D01*
X174955000Y-71280000D01*
X174972127Y-71193896D01*
X175020901Y-71120901D01*
X175093896Y-71072127D01*
X175180000Y-71055000D01*
X175630000Y-71055000D01*
X175716104Y-71072127D01*
G37*
G36*
X177266104Y-71072127D02*
G01*
X177339099Y-71120901D01*
X177387873Y-71193896D01*
X177405000Y-71280000D01*
X177405000Y-71780000D01*
X177387873Y-71866104D01*
X177339099Y-71939099D01*
X177266104Y-71987873D01*
X177180000Y-72005000D01*
X176730000Y-72005000D01*
X176643896Y-71987873D01*
X176570901Y-71939099D01*
X176522127Y-71866104D01*
X176505000Y-71780000D01*
X176505000Y-71280000D01*
X176522127Y-71193896D01*
X176570901Y-71120901D01*
X176643896Y-71072127D01*
X176730000Y-71055000D01*
X177180000Y-71055000D01*
X177266104Y-71072127D01*
G37*
G36*
X186225000Y-71550000D02*
G01*
X184675000Y-71550000D01*
X184675000Y-70950000D01*
X186225000Y-70950000D01*
X186225000Y-71550000D01*
G37*
G36*
X155825000Y-71450000D02*
G01*
X154275000Y-71450000D01*
X154275000Y-70850000D01*
X155825000Y-70850000D01*
X155825000Y-71450000D01*
G37*
G36*
X186225000Y-70550000D02*
G01*
X184675000Y-70550000D01*
X184675000Y-69950000D01*
X186225000Y-69950000D01*
X186225000Y-70550000D01*
G37*
G36*
X155825000Y-70450000D02*
G01*
X154275000Y-70450000D01*
X154275000Y-69850000D01*
X155825000Y-69850000D01*
X155825000Y-70450000D01*
G37*
G36*
X176383576Y-69715657D02*
G01*
X176428995Y-69746005D01*
X176459343Y-69791424D01*
X176470000Y-69845000D01*
X176470000Y-70185000D01*
X176459343Y-70238576D01*
X176428995Y-70283995D01*
X176383576Y-70314343D01*
X176330000Y-70325000D01*
X176050000Y-70325000D01*
X175996424Y-70314343D01*
X175951005Y-70283995D01*
X175920657Y-70238576D01*
X175910000Y-70185000D01*
X175910000Y-69845000D01*
X175920657Y-69791424D01*
X175951005Y-69746005D01*
X175996424Y-69715657D01*
X176050000Y-69705000D01*
X176330000Y-69705000D01*
X176383576Y-69715657D01*
G37*
G36*
X177343576Y-69715657D02*
G01*
X177388995Y-69746005D01*
X177419343Y-69791424D01*
X177430000Y-69845000D01*
X177430000Y-70185000D01*
X177419343Y-70238576D01*
X177388995Y-70283995D01*
X177343576Y-70314343D01*
X177290000Y-70325000D01*
X177010000Y-70325000D01*
X176956424Y-70314343D01*
X176911005Y-70283995D01*
X176880657Y-70238576D01*
X176870000Y-70185000D01*
X176870000Y-69845000D01*
X176880657Y-69791424D01*
X176911005Y-69746005D01*
X176956424Y-69715657D01*
X177010000Y-69705000D01*
X177290000Y-69705000D01*
X177343576Y-69715657D01*
G37*
G36*
X172173576Y-69425657D02*
G01*
X172218995Y-69456005D01*
X172249343Y-69501424D01*
X172260000Y-69555000D01*
X172260000Y-69835000D01*
X172249343Y-69888576D01*
X172218995Y-69933995D01*
X172173576Y-69964343D01*
X172120000Y-69975000D01*
X171780000Y-69975000D01*
X171726424Y-69964343D01*
X171681005Y-69933995D01*
X171650657Y-69888576D01*
X171640000Y-69835000D01*
X171640000Y-69555000D01*
X171650657Y-69501424D01*
X171681005Y-69456005D01*
X171726424Y-69425657D01*
X171780000Y-69415000D01*
X172120000Y-69415000D01*
X172173576Y-69425657D01*
G37*
G36*
X173153576Y-69425657D02*
G01*
X173198995Y-69456005D01*
X173229343Y-69501424D01*
X173240000Y-69555000D01*
X173240000Y-69835000D01*
X173229343Y-69888576D01*
X173198995Y-69933995D01*
X173153576Y-69964343D01*
X173100000Y-69975000D01*
X172760000Y-69975000D01*
X172706424Y-69964343D01*
X172661005Y-69933995D01*
X172630657Y-69888576D01*
X172620000Y-69835000D01*
X172620000Y-69555000D01*
X172630657Y-69501424D01*
X172661005Y-69456005D01*
X172706424Y-69425657D01*
X172760000Y-69415000D01*
X173100000Y-69415000D01*
X173153576Y-69425657D01*
G37*
G36*
X174123576Y-69425657D02*
G01*
X174168995Y-69456005D01*
X174199343Y-69501424D01*
X174210000Y-69555000D01*
X174210000Y-69835000D01*
X174199343Y-69888576D01*
X174168995Y-69933995D01*
X174123576Y-69964343D01*
X174070000Y-69975000D01*
X173730000Y-69975000D01*
X173676424Y-69964343D01*
X173631005Y-69933995D01*
X173600657Y-69888576D01*
X173590000Y-69835000D01*
X173590000Y-69555000D01*
X173600657Y-69501424D01*
X173631005Y-69456005D01*
X173676424Y-69425657D01*
X173730000Y-69415000D01*
X174070000Y-69415000D01*
X174123576Y-69425657D01*
G37*
G36*
X186225000Y-69550000D02*
G01*
X184675000Y-69550000D01*
X184675000Y-68950000D01*
X186225000Y-68950000D01*
X186225000Y-69550000D01*
G37*
G36*
X155825000Y-69450000D02*
G01*
X154275000Y-69450000D01*
X154275000Y-68850000D01*
X155825000Y-68850000D01*
X155825000Y-69450000D01*
G37*
G36*
X172173576Y-68465657D02*
G01*
X172218995Y-68496005D01*
X172249343Y-68541424D01*
X172260000Y-68595000D01*
X172260000Y-68875000D01*
X172249343Y-68928576D01*
X172218995Y-68973995D01*
X172173576Y-69004343D01*
X172120000Y-69015000D01*
X171780000Y-69015000D01*
X171726424Y-69004343D01*
X171681005Y-68973995D01*
X171650657Y-68928576D01*
X171640000Y-68875000D01*
X171640000Y-68595000D01*
X171650657Y-68541424D01*
X171681005Y-68496005D01*
X171726424Y-68465657D01*
X171780000Y-68455000D01*
X172120000Y-68455000D01*
X172173576Y-68465657D01*
G37*
G36*
X173153576Y-68465657D02*
G01*
X173198995Y-68496005D01*
X173229343Y-68541424D01*
X173240000Y-68595000D01*
X173240000Y-68875000D01*
X173229343Y-68928576D01*
X173198995Y-68973995D01*
X173153576Y-69004343D01*
X173100000Y-69015000D01*
X172760000Y-69015000D01*
X172706424Y-69004343D01*
X172661005Y-68973995D01*
X172630657Y-68928576D01*
X172620000Y-68875000D01*
X172620000Y-68595000D01*
X172630657Y-68541424D01*
X172661005Y-68496005D01*
X172706424Y-68465657D01*
X172760000Y-68455000D01*
X173100000Y-68455000D01*
X173153576Y-68465657D01*
G37*
G36*
X174123576Y-68465657D02*
G01*
X174168995Y-68496005D01*
X174199343Y-68541424D01*
X174210000Y-68595000D01*
X174210000Y-68875000D01*
X174199343Y-68928576D01*
X174168995Y-68973995D01*
X174123576Y-69004343D01*
X174070000Y-69015000D01*
X173730000Y-69015000D01*
X173676424Y-69004343D01*
X173631005Y-68973995D01*
X173600657Y-68928576D01*
X173590000Y-68875000D01*
X173590000Y-68595000D01*
X173600657Y-68541424D01*
X173631005Y-68496005D01*
X173676424Y-68465657D01*
X173730000Y-68455000D01*
X174070000Y-68455000D01*
X174123576Y-68465657D01*
G37*
G36*
X175504047Y-67805805D02*
G01*
X175555408Y-67811764D01*
X175572954Y-67819511D01*
X175595671Y-67824030D01*
X175619991Y-67840280D01*
X175640793Y-67849465D01*
X175655000Y-67863672D01*
X175676777Y-67878223D01*
X175691327Y-67899999D01*
X175705534Y-67914206D01*
X175714718Y-67935006D01*
X175730970Y-67959329D01*
X175735489Y-67982048D01*
X175743235Y-67999591D01*
X175749192Y-68050940D01*
X175750000Y-68055000D01*
X175750000Y-68685000D01*
X175749192Y-68689059D01*
X175743235Y-68740408D01*
X175735489Y-68757950D01*
X175730970Y-68780671D01*
X175714716Y-68804995D01*
X175705534Y-68825793D01*
X175691329Y-68839997D01*
X175676777Y-68861777D01*
X175654997Y-68876329D01*
X175640793Y-68890534D01*
X175619995Y-68899716D01*
X175595671Y-68915970D01*
X175572950Y-68920489D01*
X175555408Y-68928235D01*
X175504061Y-68934192D01*
X175500000Y-68935000D01*
X174910000Y-68935000D01*
X174905941Y-68934192D01*
X174854591Y-68928235D01*
X174837048Y-68920489D01*
X174814329Y-68915970D01*
X174790006Y-68899718D01*
X174769206Y-68890534D01*
X174754999Y-68876327D01*
X174733223Y-68861777D01*
X174718672Y-68840000D01*
X174704465Y-68825793D01*
X174695280Y-68804991D01*
X174679030Y-68780671D01*
X174674511Y-68757954D01*
X174666764Y-68740408D01*
X174660805Y-68689049D01*
X174660000Y-68685000D01*
X174660000Y-68055000D01*
X174660804Y-68050953D01*
X174666764Y-67999591D01*
X174674511Y-67982043D01*
X174679030Y-67959329D01*
X174695278Y-67935010D01*
X174704465Y-67914206D01*
X174718674Y-67899996D01*
X174733223Y-67878223D01*
X174754996Y-67863674D01*
X174769206Y-67849465D01*
X174790010Y-67840278D01*
X174814329Y-67824030D01*
X174837043Y-67819511D01*
X174854591Y-67811764D01*
X174905952Y-67805805D01*
X174910000Y-67805000D01*
X175500000Y-67805000D01*
X175504047Y-67805805D01*
G37*
G36*
X176934047Y-67805805D02*
G01*
X176985408Y-67811764D01*
X177002954Y-67819511D01*
X177025671Y-67824030D01*
X177049991Y-67840280D01*
X177070793Y-67849465D01*
X177085000Y-67863672D01*
X177106777Y-67878223D01*
X177121327Y-67899999D01*
X177135534Y-67914206D01*
X177144718Y-67935006D01*
X177160970Y-67959329D01*
X177165489Y-67982048D01*
X177173235Y-67999591D01*
X177179192Y-68050940D01*
X177180000Y-68055000D01*
X177180000Y-68685000D01*
X177179192Y-68689059D01*
X177173235Y-68740408D01*
X177165489Y-68757950D01*
X177160970Y-68780671D01*
X177144716Y-68804995D01*
X177135534Y-68825793D01*
X177121329Y-68839997D01*
X177106777Y-68861777D01*
X177084997Y-68876329D01*
X177070793Y-68890534D01*
X177049995Y-68899716D01*
X177025671Y-68915970D01*
X177002950Y-68920489D01*
X176985408Y-68928235D01*
X176934061Y-68934192D01*
X176930000Y-68935000D01*
X176340000Y-68935000D01*
X176335941Y-68934192D01*
X176284591Y-68928235D01*
X176267048Y-68920489D01*
X176244329Y-68915970D01*
X176220006Y-68899718D01*
X176199206Y-68890534D01*
X176184999Y-68876327D01*
X176163223Y-68861777D01*
X176148672Y-68840000D01*
X176134465Y-68825793D01*
X176125280Y-68804991D01*
X176109030Y-68780671D01*
X176104511Y-68757954D01*
X176096764Y-68740408D01*
X176090805Y-68689049D01*
X176090000Y-68685000D01*
X176090000Y-68055000D01*
X176090804Y-68050953D01*
X176096764Y-67999591D01*
X176104511Y-67982043D01*
X176109030Y-67959329D01*
X176125278Y-67935010D01*
X176134465Y-67914206D01*
X176148674Y-67899996D01*
X176163223Y-67878223D01*
X176184996Y-67863674D01*
X176199206Y-67849465D01*
X176220010Y-67840278D01*
X176244329Y-67824030D01*
X176267043Y-67819511D01*
X176284591Y-67811764D01*
X176335952Y-67805805D01*
X176340000Y-67805000D01*
X176930000Y-67805000D01*
X176934047Y-67805805D01*
G37*
G36*
X162060000Y-68765000D02*
G01*
X159940000Y-68765000D01*
X159940000Y-66485000D01*
X162060000Y-66485000D01*
X162060000Y-68765000D01*
G37*
G36*
X186225000Y-68550000D02*
G01*
X184675000Y-68550000D01*
X184675000Y-67950000D01*
X186225000Y-67950000D01*
X186225000Y-68550000D01*
G37*
G36*
X155825000Y-68450000D02*
G01*
X154275000Y-68450000D01*
X154275000Y-67850000D01*
X155825000Y-67850000D01*
X155825000Y-68450000D01*
G37*
G36*
X169586662Y-67065276D02*
G01*
X169630459Y-67094541D01*
X169659724Y-67138338D01*
X169670000Y-67190000D01*
X169670000Y-67460000D01*
X169659724Y-67511662D01*
X169630459Y-67555459D01*
X169586662Y-67584724D01*
X169535000Y-67595000D01*
X169165000Y-67595000D01*
X169113338Y-67584724D01*
X169069541Y-67555459D01*
X169040276Y-67511662D01*
X169030000Y-67460000D01*
X169030000Y-67190000D01*
X169040276Y-67138338D01*
X169069541Y-67094541D01*
X169113338Y-67065276D01*
X169165000Y-67055000D01*
X169535000Y-67055000D01*
X169586662Y-67065276D01*
G37*
G36*
X190225000Y-67550000D02*
G01*
X188425000Y-67550000D01*
X188425000Y-66350000D01*
X190225000Y-66350000D01*
X190225000Y-67550000D01*
G37*
G36*
X155825000Y-67450000D02*
G01*
X154275000Y-67450000D01*
X154275000Y-66850000D01*
X155825000Y-66850000D01*
X155825000Y-67450000D01*
G37*
G36*
X175648576Y-66760657D02*
G01*
X175693995Y-66791005D01*
X175724343Y-66836424D01*
X175735000Y-66890000D01*
X175735000Y-67230000D01*
X175724343Y-67283576D01*
X175693995Y-67328995D01*
X175648576Y-67359343D01*
X175595000Y-67370000D01*
X175315000Y-67370000D01*
X175261424Y-67359343D01*
X175216005Y-67328995D01*
X175185657Y-67283576D01*
X175175000Y-67230000D01*
X175175000Y-66890000D01*
X175185657Y-66836424D01*
X175216005Y-66791005D01*
X175261424Y-66760657D01*
X175315000Y-66750000D01*
X175595000Y-66750000D01*
X175648576Y-66760657D01*
G37*
G36*
X176608576Y-66760657D02*
G01*
X176653995Y-66791005D01*
X176684343Y-66836424D01*
X176695000Y-66890000D01*
X176695000Y-67230000D01*
X176684343Y-67283576D01*
X176653995Y-67328995D01*
X176608576Y-67359343D01*
X176555000Y-67370000D01*
X176275000Y-67370000D01*
X176221424Y-67359343D01*
X176176005Y-67328995D01*
X176145657Y-67283576D01*
X176135000Y-67230000D01*
X176135000Y-66890000D01*
X176145657Y-66836424D01*
X176176005Y-66791005D01*
X176221424Y-66760657D01*
X176275000Y-66750000D01*
X176555000Y-66750000D01*
X176608576Y-66760657D01*
G37*
G36*
X156714372Y-66579739D02*
G01*
X156787847Y-66622160D01*
X156847840Y-66682153D01*
X156890261Y-66755628D01*
X156912220Y-66837579D01*
X156912220Y-66922421D01*
X156890261Y-67004372D01*
X156847840Y-67077847D01*
X156787847Y-67137840D01*
X156714372Y-67180261D01*
X156632421Y-67202220D01*
X156547579Y-67202220D01*
X156465628Y-67180261D01*
X156392153Y-67137840D01*
X156332160Y-67077847D01*
X156289739Y-67004372D01*
X156267780Y-66922421D01*
X156267780Y-66837579D01*
X156289739Y-66755628D01*
X156332160Y-66682153D01*
X156392153Y-66622160D01*
X156465628Y-66579739D01*
X156547579Y-66557780D01*
X156632421Y-66557780D01*
X156714372Y-66579739D01*
G37*
G36*
X169586662Y-66045276D02*
G01*
X169630459Y-66074541D01*
X169659724Y-66118338D01*
X169670000Y-66170000D01*
X169670000Y-66440000D01*
X169659724Y-66491662D01*
X169630459Y-66535459D01*
X169586662Y-66564724D01*
X169535000Y-66575000D01*
X169165000Y-66575000D01*
X169113338Y-66564724D01*
X169069541Y-66535459D01*
X169040276Y-66491662D01*
X169030000Y-66440000D01*
X169030000Y-66170000D01*
X169040276Y-66118338D01*
X169069541Y-66074541D01*
X169113338Y-66045276D01*
X169165000Y-66035000D01*
X169535000Y-66035000D01*
X169586662Y-66045276D01*
G37*
G36*
X152075000Y-66450000D02*
G01*
X150275000Y-66450000D01*
X150275000Y-65250000D01*
X152075000Y-65250000D01*
X152075000Y-66450000D01*
G37*
G36*
X175979000Y-66320000D02*
G01*
X175599000Y-66320000D01*
X175599000Y-65920000D01*
X175979000Y-65920000D01*
X175979000Y-66320000D01*
G37*
G36*
X176541000Y-66320000D02*
G01*
X176161000Y-66320000D01*
X176161000Y-65920000D01*
X176541000Y-65920000D01*
X176541000Y-66320000D01*
G37*
G36*
X176113576Y-64915657D02*
G01*
X176158995Y-64946005D01*
X176189343Y-64991424D01*
X176200000Y-65045000D01*
X176200000Y-65385000D01*
X176189343Y-65438576D01*
X176158995Y-65483995D01*
X176113576Y-65514343D01*
X176060000Y-65525000D01*
X175780000Y-65525000D01*
X175726424Y-65514343D01*
X175681005Y-65483995D01*
X175650657Y-65438576D01*
X175640000Y-65385000D01*
X175640000Y-65045000D01*
X175650657Y-64991424D01*
X175681005Y-64946005D01*
X175726424Y-64915657D01*
X175780000Y-64905000D01*
X176060000Y-64905000D01*
X176113576Y-64915657D01*
G37*
G36*
X177073576Y-64915657D02*
G01*
X177118995Y-64946005D01*
X177149343Y-64991424D01*
X177160000Y-65045000D01*
X177160000Y-65385000D01*
X177149343Y-65438576D01*
X177118995Y-65483995D01*
X177073576Y-65514343D01*
X177020000Y-65525000D01*
X176740000Y-65525000D01*
X176686424Y-65514343D01*
X176641005Y-65483995D01*
X176610657Y-65438576D01*
X176600000Y-65385000D01*
X176600000Y-65045000D01*
X176610657Y-64991424D01*
X176641005Y-64946005D01*
X176686424Y-64915657D01*
X176740000Y-64905000D01*
X177020000Y-64905000D01*
X177073576Y-64915657D01*
G37*
G36*
X169563576Y-64865657D02*
G01*
X169608995Y-64896005D01*
X169639343Y-64941424D01*
X169650000Y-64995000D01*
X169650000Y-65335000D01*
X169639343Y-65388576D01*
X169608995Y-65433995D01*
X169563576Y-65464343D01*
X169510000Y-65475000D01*
X169230000Y-65475000D01*
X169176424Y-65464343D01*
X169131005Y-65433995D01*
X169100657Y-65388576D01*
X169090000Y-65335000D01*
X169090000Y-64995000D01*
X169100657Y-64941424D01*
X169131005Y-64896005D01*
X169176424Y-64865657D01*
X169230000Y-64855000D01*
X169510000Y-64855000D01*
X169563576Y-64865657D01*
G37*
G36*
X170523576Y-64865657D02*
G01*
X170568995Y-64896005D01*
X170599343Y-64941424D01*
X170610000Y-64995000D01*
X170610000Y-65335000D01*
X170599343Y-65388576D01*
X170568995Y-65433995D01*
X170523576Y-65464343D01*
X170470000Y-65475000D01*
X170190000Y-65475000D01*
X170136424Y-65464343D01*
X170091005Y-65433995D01*
X170060657Y-65388576D01*
X170050000Y-65335000D01*
X170050000Y-64995000D01*
X170060657Y-64941424D01*
X170091005Y-64896005D01*
X170136424Y-64865657D01*
X170190000Y-64855000D01*
X170470000Y-64855000D01*
X170523576Y-64865657D01*
G37*
G36*
X171463576Y-64865657D02*
G01*
X171508995Y-64896005D01*
X171539343Y-64941424D01*
X171550000Y-64995000D01*
X171550000Y-65335000D01*
X171539343Y-65388576D01*
X171508995Y-65433995D01*
X171463576Y-65464343D01*
X171410000Y-65475000D01*
X171130000Y-65475000D01*
X171076424Y-65464343D01*
X171031005Y-65433995D01*
X171000657Y-65388576D01*
X170990000Y-65335000D01*
X170990000Y-64995000D01*
X171000657Y-64941424D01*
X171031005Y-64896005D01*
X171076424Y-64865657D01*
X171130000Y-64855000D01*
X171410000Y-64855000D01*
X171463576Y-64865657D01*
G37*
G36*
X172423576Y-64865657D02*
G01*
X172468995Y-64896005D01*
X172499343Y-64941424D01*
X172510000Y-64995000D01*
X172510000Y-65335000D01*
X172499343Y-65388576D01*
X172468995Y-65433995D01*
X172423576Y-65464343D01*
X172370000Y-65475000D01*
X172090000Y-65475000D01*
X172036424Y-65464343D01*
X171991005Y-65433995D01*
X171960657Y-65388576D01*
X171950000Y-65335000D01*
X171950000Y-64995000D01*
X171960657Y-64941424D01*
X171991005Y-64896005D01*
X172036424Y-64865657D01*
X172090000Y-64855000D01*
X172370000Y-64855000D01*
X172423576Y-64865657D01*
G37*
G36*
X152025000Y-64100000D02*
G01*
X150225000Y-64100000D01*
X150225000Y-62900000D01*
X152025000Y-62900000D01*
X152025000Y-64100000D01*
G37*
G36*
X190275000Y-63900000D02*
G01*
X188475000Y-63900000D01*
X188475000Y-62700000D01*
X190275000Y-62700000D01*
X190275000Y-63900000D01*
G37*
G36*
X155775000Y-62500000D02*
G01*
X154225000Y-62500000D01*
X154225000Y-61900000D01*
X155775000Y-61900000D01*
X155775000Y-62500000D01*
G37*
G36*
X186275000Y-62300000D02*
G01*
X184725000Y-62300000D01*
X184725000Y-61700000D01*
X186275000Y-61700000D01*
X186275000Y-62300000D01*
G37*
G36*
X179013576Y-61390657D02*
G01*
X179058995Y-61421005D01*
X179089343Y-61466424D01*
X179100000Y-61520000D01*
X179100000Y-61860000D01*
X179089343Y-61913576D01*
X179058995Y-61958995D01*
X179013576Y-61989343D01*
X178960000Y-62000000D01*
X178680000Y-62000000D01*
X178626424Y-61989343D01*
X178581005Y-61958995D01*
X178550657Y-61913576D01*
X178540000Y-61860000D01*
X178540000Y-61520000D01*
X178550657Y-61466424D01*
X178581005Y-61421005D01*
X178626424Y-61390657D01*
X178680000Y-61380000D01*
X178960000Y-61380000D01*
X179013576Y-61390657D01*
G37*
G36*
X179973576Y-61390657D02*
G01*
X180018995Y-61421005D01*
X180049343Y-61466424D01*
X180060000Y-61520000D01*
X180060000Y-61860000D01*
X180049343Y-61913576D01*
X180018995Y-61958995D01*
X179973576Y-61989343D01*
X179920000Y-62000000D01*
X179640000Y-62000000D01*
X179586424Y-61989343D01*
X179541005Y-61958995D01*
X179510657Y-61913576D01*
X179500000Y-61860000D01*
X179500000Y-61520000D01*
X179510657Y-61466424D01*
X179541005Y-61421005D01*
X179586424Y-61390657D01*
X179640000Y-61380000D01*
X179920000Y-61380000D01*
X179973576Y-61390657D01*
G37*
G36*
X155775000Y-61500000D02*
G01*
X154225000Y-61500000D01*
X154225000Y-60900000D01*
X155775000Y-60900000D01*
X155775000Y-61500000D01*
G37*
G36*
X186275000Y-61300000D02*
G01*
X184725000Y-61300000D01*
X184725000Y-60700000D01*
X186275000Y-60700000D01*
X186275000Y-61300000D01*
G37*
G36*
X178364166Y-60032569D02*
G01*
X178375115Y-60039885D01*
X178382431Y-60050834D01*
X178385000Y-60063750D01*
X178385000Y-60916250D01*
X178382431Y-60929166D01*
X178375115Y-60940115D01*
X178364166Y-60947431D01*
X178351250Y-60950000D01*
X178148750Y-60950000D01*
X178135834Y-60947431D01*
X178124885Y-60940115D01*
X178117569Y-60929166D01*
X178115000Y-60916250D01*
X178115000Y-60063750D01*
X178117569Y-60050834D01*
X178124885Y-60039885D01*
X178135834Y-60032569D01*
X178148750Y-60030000D01*
X178351250Y-60030000D01*
X178364166Y-60032569D01*
G37*
G36*
X179014166Y-60032569D02*
G01*
X179025115Y-60039885D01*
X179032431Y-60050834D01*
X179035000Y-60063750D01*
X179035000Y-60916250D01*
X179032431Y-60929166D01*
X179025115Y-60940115D01*
X179014166Y-60947431D01*
X179001250Y-60950000D01*
X178798750Y-60950000D01*
X178785834Y-60947431D01*
X178774885Y-60940115D01*
X178767569Y-60929166D01*
X178765000Y-60916250D01*
X178765000Y-60063750D01*
X178767569Y-60050834D01*
X178774885Y-60039885D01*
X178785834Y-60032569D01*
X178798750Y-60030000D01*
X179001250Y-60030000D01*
X179014166Y-60032569D01*
G37*
G36*
X179664166Y-60032569D02*
G01*
X179675115Y-60039885D01*
X179682431Y-60050834D01*
X179685000Y-60063750D01*
X179685000Y-60916250D01*
X179682431Y-60929166D01*
X179675115Y-60940115D01*
X179664166Y-60947431D01*
X179651250Y-60950000D01*
X179448750Y-60950000D01*
X179435834Y-60947431D01*
X179424885Y-60940115D01*
X179417569Y-60929166D01*
X179415000Y-60916250D01*
X179415000Y-60063750D01*
X179417569Y-60050834D01*
X179424885Y-60039885D01*
X179435834Y-60032569D01*
X179448750Y-60030000D01*
X179651250Y-60030000D01*
X179664166Y-60032569D01*
G37*
G36*
X180314166Y-60032569D02*
G01*
X180325115Y-60039885D01*
X180332431Y-60050834D01*
X180335000Y-60063750D01*
X180335000Y-60916250D01*
X180332431Y-60929166D01*
X180325115Y-60940115D01*
X180314166Y-60947431D01*
X180301250Y-60950000D01*
X180098750Y-60950000D01*
X180085834Y-60947431D01*
X180074885Y-60940115D01*
X180067569Y-60929166D01*
X180065000Y-60916250D01*
X180065000Y-60063750D01*
X180067569Y-60050834D01*
X180074885Y-60039885D01*
X180085834Y-60032569D01*
X180098750Y-60030000D01*
X180301250Y-60030000D01*
X180314166Y-60032569D01*
G37*
G36*
X155775000Y-60500000D02*
G01*
X154225000Y-60500000D01*
X154225000Y-59900000D01*
X155775000Y-59900000D01*
X155775000Y-60500000D01*
G37*
G36*
X186275000Y-60300000D02*
G01*
X184725000Y-60300000D01*
X184725000Y-59700000D01*
X186275000Y-59700000D01*
X186275000Y-60300000D01*
G37*
G36*
X180350000Y-59850000D02*
G01*
X178100000Y-59850000D01*
X178100000Y-58350000D01*
X180350000Y-58350000D01*
X180350000Y-59850000D01*
G37*
G36*
X152025000Y-59500000D02*
G01*
X150225000Y-59500000D01*
X150225000Y-58300000D01*
X152025000Y-58300000D01*
X152025000Y-59500000D01*
G37*
G36*
X190275000Y-59300000D02*
G01*
X188475000Y-59300000D01*
X188475000Y-58100000D01*
X190275000Y-58100000D01*
X190275000Y-59300000D01*
G37*
G36*
X167085000Y-58820000D02*
G01*
X166485000Y-58820000D01*
X166485000Y-57270000D01*
X167085000Y-57270000D01*
X167085000Y-58820000D01*
G37*
G36*
X168085000Y-58820000D02*
G01*
X167485000Y-58820000D01*
X167485000Y-57270000D01*
X168085000Y-57270000D01*
X168085000Y-58820000D01*
G37*
G36*
X169085000Y-58820000D02*
G01*
X168485000Y-58820000D01*
X168485000Y-57270000D01*
X169085000Y-57270000D01*
X169085000Y-58820000D01*
G37*
G36*
X170085000Y-58820000D02*
G01*
X169485000Y-58820000D01*
X169485000Y-57270000D01*
X170085000Y-57270000D01*
X170085000Y-58820000D01*
G37*
G36*
X171085000Y-58820000D02*
G01*
X170485000Y-58820000D01*
X170485000Y-57270000D01*
X171085000Y-57270000D01*
X171085000Y-58820000D01*
G37*
G36*
X172085000Y-58820000D02*
G01*
X171485000Y-58820000D01*
X171485000Y-57270000D01*
X172085000Y-57270000D01*
X172085000Y-58820000D01*
G37*
G36*
X173085000Y-58820000D02*
G01*
X172485000Y-58820000D01*
X172485000Y-57270000D01*
X173085000Y-57270000D01*
X173085000Y-58820000D01*
G37*
G36*
X174085000Y-58820000D02*
G01*
X173485000Y-58820000D01*
X173485000Y-57270000D01*
X174085000Y-57270000D01*
X174085000Y-58820000D01*
G37*
G36*
X178364166Y-57252569D02*
G01*
X178375115Y-57259885D01*
X178382431Y-57270834D01*
X178385000Y-57283750D01*
X178385000Y-58136250D01*
X178382431Y-58149166D01*
X178375115Y-58160115D01*
X178364166Y-58167431D01*
X178351250Y-58170000D01*
X178148750Y-58170000D01*
X178135834Y-58167431D01*
X178124885Y-58160115D01*
X178117569Y-58149166D01*
X178115000Y-58136250D01*
X178115000Y-57283750D01*
X178117569Y-57270834D01*
X178124885Y-57259885D01*
X178135834Y-57252569D01*
X178148750Y-57250000D01*
X178351250Y-57250000D01*
X178364166Y-57252569D01*
G37*
G36*
X179014166Y-57252569D02*
G01*
X179025115Y-57259885D01*
X179032431Y-57270834D01*
X179035000Y-57283750D01*
X179035000Y-58136250D01*
X179032431Y-58149166D01*
X179025115Y-58160115D01*
X179014166Y-58167431D01*
X179001250Y-58170000D01*
X178798750Y-58170000D01*
X178785834Y-58167431D01*
X178774885Y-58160115D01*
X178767569Y-58149166D01*
X178765000Y-58136250D01*
X178765000Y-57283750D01*
X178767569Y-57270834D01*
X178774885Y-57259885D01*
X178785834Y-57252569D01*
X178798750Y-57250000D01*
X179001250Y-57250000D01*
X179014166Y-57252569D01*
G37*
G36*
X179664166Y-57252569D02*
G01*
X179675115Y-57259885D01*
X179682431Y-57270834D01*
X179685000Y-57283750D01*
X179685000Y-58136250D01*
X179682431Y-58149166D01*
X179675115Y-58160115D01*
X179664166Y-58167431D01*
X179651250Y-58170000D01*
X179448750Y-58170000D01*
X179435834Y-58167431D01*
X179424885Y-58160115D01*
X179417569Y-58149166D01*
X179415000Y-58136250D01*
X179415000Y-57283750D01*
X179417569Y-57270834D01*
X179424885Y-57259885D01*
X179435834Y-57252569D01*
X179448750Y-57250000D01*
X179651250Y-57250000D01*
X179664166Y-57252569D01*
G37*
G36*
X180314166Y-57252569D02*
G01*
X180325115Y-57259885D01*
X180332431Y-57270834D01*
X180335000Y-57283750D01*
X180335000Y-58136250D01*
X180332431Y-58149166D01*
X180325115Y-58160115D01*
X180314166Y-58167431D01*
X180301250Y-58170000D01*
X180098750Y-58170000D01*
X180085834Y-58167431D01*
X180074885Y-58160115D01*
X180067569Y-58149166D01*
X180065000Y-58136250D01*
X180065000Y-57283750D01*
X180067569Y-57270834D01*
X180074885Y-57259885D01*
X180085834Y-57252569D01*
X180098750Y-57250000D01*
X180301250Y-57250000D01*
X180314166Y-57252569D01*
G37*
G36*
X179813576Y-56175657D02*
G01*
X179858995Y-56206005D01*
X179889343Y-56251424D01*
X179900000Y-56305000D01*
X179900000Y-56645000D01*
X179889343Y-56698576D01*
X179858995Y-56743995D01*
X179813576Y-56774343D01*
X179760000Y-56785000D01*
X179480000Y-56785000D01*
X179426424Y-56774343D01*
X179381005Y-56743995D01*
X179350657Y-56698576D01*
X179340000Y-56645000D01*
X179340000Y-56305000D01*
X179350657Y-56251424D01*
X179381005Y-56206005D01*
X179426424Y-56175657D01*
X179480000Y-56165000D01*
X179760000Y-56165000D01*
X179813576Y-56175657D01*
G37*
G36*
X180773576Y-56175657D02*
G01*
X180818995Y-56206005D01*
X180849343Y-56251424D01*
X180860000Y-56305000D01*
X180860000Y-56645000D01*
X180849343Y-56698576D01*
X180818995Y-56743995D01*
X180773576Y-56774343D01*
X180720000Y-56785000D01*
X180440000Y-56785000D01*
X180386424Y-56774343D01*
X180341005Y-56743995D01*
X180310657Y-56698576D01*
X180300000Y-56645000D01*
X180300000Y-56305000D01*
X180310657Y-56251424D01*
X180341005Y-56206005D01*
X180386424Y-56175657D01*
X180440000Y-56165000D01*
X180720000Y-56165000D01*
X180773576Y-56175657D01*
G37*
G36*
X155429199Y-52342272D02*
G01*
X155707167Y-52416754D01*
X155973035Y-52526880D01*
X156222255Y-52670767D01*
X156450561Y-52845952D01*
X156654048Y-53049439D01*
X156829233Y-53277745D01*
X156973120Y-53526965D01*
X157083246Y-53792833D01*
X157157728Y-54070801D01*
X157195290Y-54356113D01*
X157195290Y-54643887D01*
X157157728Y-54929199D01*
X157083246Y-55207167D01*
X156973120Y-55473035D01*
X156829233Y-55722255D01*
X156654048Y-55950561D01*
X156450561Y-56154048D01*
X156222255Y-56329233D01*
X155973035Y-56473120D01*
X155707167Y-56583246D01*
X155429199Y-56657728D01*
X155143887Y-56695290D01*
X154856113Y-56695290D01*
X154570801Y-56657728D01*
X154292833Y-56583246D01*
X154026965Y-56473120D01*
X153777745Y-56329233D01*
X153549439Y-56154048D01*
X153345952Y-55950561D01*
X153170767Y-55722255D01*
X153026880Y-55473035D01*
X152916754Y-55207167D01*
X152842272Y-54929199D01*
X152804710Y-54643887D01*
X152804710Y-54356113D01*
X152842272Y-54070801D01*
X152916754Y-53792833D01*
X153026880Y-53526965D01*
X153170767Y-53277745D01*
X153345952Y-53049439D01*
X153549439Y-52845952D01*
X153777745Y-52670767D01*
X154026965Y-52526880D01*
X154292833Y-52416754D01*
X154570801Y-52342272D01*
X154856113Y-52304710D01*
X155143887Y-52304710D01*
X155429199Y-52342272D01*
G37*
G36*
X185929199Y-52342272D02*
G01*
X186207167Y-52416754D01*
X186473035Y-52526880D01*
X186722255Y-52670767D01*
X186950561Y-52845952D01*
X187154048Y-53049439D01*
X187329233Y-53277745D01*
X187473120Y-53526965D01*
X187583246Y-53792833D01*
X187657728Y-54070801D01*
X187695290Y-54356113D01*
X187695290Y-54643887D01*
X187657728Y-54929199D01*
X187583246Y-55207167D01*
X187473120Y-55473035D01*
X187329233Y-55722255D01*
X187154048Y-55950561D01*
X186950561Y-56154048D01*
X186722255Y-56329233D01*
X186473035Y-56473120D01*
X186207167Y-56583246D01*
X185929199Y-56657728D01*
X185643887Y-56695290D01*
X185356113Y-56695290D01*
X185070801Y-56657728D01*
X184792833Y-56583246D01*
X184526965Y-56473120D01*
X184277745Y-56329233D01*
X184049439Y-56154048D01*
X183845952Y-55950561D01*
X183670767Y-55722255D01*
X183526880Y-55473035D01*
X183416754Y-55207167D01*
X183342272Y-54929199D01*
X183304710Y-54643887D01*
X183304710Y-54356113D01*
X183342272Y-54070801D01*
X183416754Y-53792833D01*
X183526880Y-53526965D01*
X183670767Y-53277745D01*
X183845952Y-53049439D01*
X184049439Y-52845952D01*
X184277745Y-52670767D01*
X184526965Y-52526880D01*
X184792833Y-52416754D01*
X185070801Y-52342272D01*
X185356113Y-52304710D01*
X185643887Y-52304710D01*
X185929199Y-52342272D01*
G37*
G36*
X166085000Y-55070000D02*
G01*
X164885000Y-55070000D01*
X164885000Y-53270000D01*
X166085000Y-53270000D01*
X166085000Y-55070000D01*
G37*
G36*
X175685000Y-55070000D02*
G01*
X174485000Y-55070000D01*
X174485000Y-53270000D01*
X175685000Y-53270000D01*
X175685000Y-55070000D01*
G37*
M02*
