M48
; DRILL file KiCad 10.0.1 date 2026-05-23T16:16:35
; FORMAT={-:-/ absolute / metric / decimal}
; #@! TF.CreationDate,2026-05-23T16:16:35+05:30
; #@! TF.GenerationSoftware,Kicad,Pcbnew,10.0.1
; #@! TF.FileFunction,Plated,1,6,PTH
FMAT,2
METRIC
; #@! TA.AperFunction,Plated,PTH,ViaDrill
T1C0.300
; #@! TA.AperFunction,Plated,PTH,ComponentDrill
T2C4.000
%
G90
G05
T1
X150.955Y-84.99
X150.995Y-54.425
X151.09Y-58.91
X151.095Y-75.91
X151.115Y-63.59
X151.135Y-65.865
X151.705Y-79.95
X152.21Y-87.83
X152.225Y-51.715
X152.49Y-77.47
X153.14Y-64.33
X153.32Y-74.685
X153.4Y-79.18
X154.545Y-68.15
X154.545Y-72.12
X154.55Y-69.15
X154.55Y-70.13
X154.55Y-71.155
X154.575Y-67.145
X154.94Y-62.2
X154.965Y-60.165
X154.97Y-61.195
X154.995Y-50.62
X155.0Y-89.005
X155.48Y-79.225
X155.49Y-77.185
X155.495Y-78.225
X156.375Y-81.62
X156.615Y-81.015
X156.68Y-82.24
X157.215Y-74.74
X157.265Y-82.5
X157.28Y-80.705
X157.28Y-81.59
X157.765Y-62.8
X157.84Y-76.75
X157.885Y-80.96
X157.925Y-82.19
X158.09Y-81.56
X158.115Y-60.175
X158.705Y-67.855
X158.98Y-86.205
X159.0Y-65.3
X159.02Y-71.51
X159.025Y-74.7
X159.675Y-58.71
X159.885Y-89.98
X160.375Y-66.9
X160.375Y-68.1
X160.425Y-72.675
X160.45Y-71.55
X160.6Y-78.1
X160.6Y-78.75
X160.6Y-79.4
X160.9Y-82.45
X160.925Y-67.425
X160.95Y-72.1
X161.215Y-86.26
X161.45Y-68.125
X161.475Y-66.9
X161.475Y-71.575
X161.525Y-72.7
X161.6Y-82.45
X161.675Y-55.425
X161.69Y-88.835
X162.23Y-90.06
X162.275Y-55.425
X162.35Y-69.79
X162.54Y-59.995
X162.685Y-60.65
X163.01Y-69.78
X163.14Y-59.525
X163.35Y-60.125
X163.385Y-86.215
X163.675Y-55.425
X163.85Y-71.84
X164.02Y-59.565
X164.3Y-55.4
X164.445Y-90.025
X164.62Y-69.785
X165.285Y-69.78
X165.56Y-86.335
X165.695Y-55.555
X166.33Y-55.545
X166.34Y-74.37
X166.435Y-67.12
X166.535Y-64.04
X166.6Y-80.2
X166.95Y-76.95
X167.16Y-68.09
X167.17Y-73.12
X167.43Y-72.64
X167.65Y-55.425
X167.65Y-82.225
X167.67Y-73.14
X167.74Y-69.13
X167.83Y-67.6
X167.855Y-85.965
X167.9Y-62.545
X167.94Y-72.65
X168.04Y-69.63
X168.12Y-68.58
X168.13Y-89.95
X168.19Y-73.13
X168.24Y-65.565
X168.3Y-55.425
X168.53Y-74.88
X168.645Y-85.97
X169.4Y-64.16
X169.42Y-63.1
X169.42Y-63.65
X169.675Y-55.425
X169.8Y-82.465
X170.12Y-63.2
X170.12Y-64.22
X170.325Y-55.425
X170.33Y-77.03
X170.45Y-76.205
X170.61Y-63.9
X170.72Y-85.94
X170.78Y-58.56
X171.11Y-75.11
X171.2Y-89.95
X171.41Y-70.93
X171.59Y-85.93
X171.6Y-75.38
X171.675Y-55.425
X171.84Y-58.56
X171.95Y-68.715
X171.955Y-69.705
X172.1Y-75.65
X172.3Y-55.425
X172.4Y-62.375
X172.61Y-72.59
X172.775Y-57.835
X172.795Y-58.555
X172.845Y-78.395
X172.85Y-61.825
X172.855Y-70.735
X172.87Y-78.905
X172.98Y-69.7
X173.015Y-68.7
X173.1Y-74.67
X173.555Y-77.95
X173.57Y-80.235
X173.58Y-81.225
X173.58Y-82.04
X173.58Y-89.925
X173.59Y-75.0
X173.76Y-72.43
X173.8Y-57.725
X173.815Y-59.025
X173.815Y-59.57
X173.82Y-60.195
X173.825Y-58.425
X173.905Y-68.745
X173.92Y-69.715
X174.06Y-55.545
X174.1Y-62.71
X174.1Y-75.44
X174.13Y-85.94
X174.57Y-81.21
X174.59Y-62.31
X174.59Y-80.22
X174.61Y-75.43
X174.745Y-55.54
X175.06Y-85.935
X175.17Y-68.38
X175.385Y-71.565
X175.435Y-55.545
X175.6Y-63.122
X175.61Y-64.79
X175.69Y-79.1
X175.74Y-66.12
X175.875Y-77.35
X176.0Y-89.985
X176.1Y-64.79
X176.11Y-73.98
X176.185Y-70.015
X176.295Y-73.145
X176.375Y-60.565
X176.45Y-79.095
X176.485Y-68.545
X176.59Y-74.52
X176.6Y-64.19
X176.6Y-75.01
X176.6Y-75.52
X176.62Y-63.15
X176.67Y-64.79
X177.05Y-55.375
X177.165Y-70.015
X177.17Y-64.79
X177.265Y-81.65
X177.28Y-74.5
X177.28Y-74.97
X177.31Y-75.53
X177.355Y-79.14
X177.425Y-60.63
X177.43Y-85.925
X177.775Y-55.4
X177.91Y-69.09
X178.215Y-85.925
X178.34Y-59.46
X178.37Y-58.66
X178.41Y-89.925
X178.425Y-55.4
X178.54Y-73.12
X178.75Y-80.05
X178.95Y-69.61
X179.02Y-73.13
X179.05Y-72.61
X179.37Y-82.995
X179.425Y-77.275
X179.47Y-72.12
X179.56Y-73.12
X179.65Y-56.515
X179.69Y-58.71
X179.72Y-59.58
X180.2Y-67.58
X180.2Y-68.11
X180.2Y-68.68
X180.21Y-65.74
X180.21Y-66.37
X180.21Y-66.87
X180.35Y-60.4
X180.45Y-82.15
X180.63Y-56.51
X180.635Y-86.13
X180.85Y-89.97
X180.94Y-64.82
X181.075Y-60.375
X181.1Y-58.875
X181.1Y-59.65
X181.65Y-71.515
X181.8Y-58.85
X181.8Y-59.625
X181.825Y-60.4
X181.99Y-67.75
X182.95Y-59.57
X182.97Y-62.03
X182.975Y-63.325
X183.01Y-60.745
X183.54Y-61.44
X183.595Y-62.675
X183.845Y-73.225
X183.885Y-69.325
X183.89Y-75.54
X183.905Y-80.025
X183.985Y-60.735
X184.14Y-62.02
X184.31Y-63.33
X184.74Y-58.07
X184.74Y-58.53
X185.34Y-80.465
X185.495Y-62.02
X185.595Y-89.0
X185.6Y-50.615
X185.69Y-64.25
X185.7Y-64.67
X186.46Y-63.01
X186.635Y-82.065
X186.64Y-60.78
X186.9Y-63.01
X186.975Y-71.675
X186.98Y-69.585
X187.005Y-68.58
X187.01Y-70.53
X187.29Y-64.27
X187.29Y-64.82
X187.45Y-58.1
X187.59Y-75.615
X187.615Y-77.64
X187.62Y-81.61
X187.645Y-79.585
X188.18Y-62.85
X188.42Y-75.6
X188.42Y-87.8
X188.44Y-65.03
X188.46Y-51.8
X188.47Y-64.03
X188.67Y-63.45
X188.71Y-62.88
X188.85Y-60.75
X188.97Y-65.05
X188.98Y-64.03
X189.2Y-75.58
X189.605Y-54.61
X189.61Y-85.0
X189.91Y-80.59
T2
X155.0Y-54.5
X155.0Y-85.0
X185.5Y-54.5
X185.5Y-85.0
M30
