%TF.GenerationSoftware,KiCad,Pcbnew,10.0.1*%
%TF.CreationDate,2026-05-30T16:18:12+05:30*%
%TF.ProjectId,VENDETTAFC,56454e44-4554-4544-9146-432e6b696361,rev?*%
%TF.SameCoordinates,Original*%
%TF.FileFunction,Paste,Bot*%
%TF.FilePolarity,Positive*%
%FSLAX46Y46*%
G04 Gerber Fmt 4.6, Leading zero omitted, Abs format (unit mm)*
G04 Created by KiCad (PCBNEW 10.0.1) date 2026-05-30 16:18:12*
%MOMM*%
%LPD*%
G01*
G04 APERTURE LIST*
G04 Aperture macros list*
%AMRoundRect*
0 Rectangle with rounded corners*
0 $1 Rounding radius*
0 $2 $3 $4 $5 $6 $7 $8 $9 X,Y pos of 4 corners*
0 Add a 4 corners polygon primitive as box body*
4,1,4,$2,$3,$4,$5,$6,$7,$8,$9,$2,$3,0*
0 Add four circle primitives for the rounded corners*
1,1,$1+$1,$2,$3*
1,1,$1+$1,$4,$5*
1,1,$1+$1,$6,$7*
1,1,$1+$1,$8,$9*
0 Add four rect primitives between the rounded corners*
20,1,$1+$1,$2,$3,$4,$5,0*
20,1,$1+$1,$4,$5,$6,$7,0*
20,1,$1+$1,$6,$7,$8,$9,0*
20,1,$1+$1,$8,$9,$2,$3,0*%
%AMRotRect*
0 Rectangle, with rotation*
0 The origin of the aperture is its center*
0 $1 length*
0 $2 width*
0 $3 Rotation angle, in degrees counterclockwise*
0 Add horizontal line*
21,1,$1,$2,0,0,$3*%
G04 Aperture macros list end*
%ADD10C,0.010000*%
%ADD11RoundRect,0.140000X0.140000X0.170000X-0.140000X0.170000X-0.140000X-0.170000X0.140000X-0.170000X0*%
%ADD12RoundRect,0.250000X0.475000X-0.250000X0.475000X0.250000X-0.475000X0.250000X-0.475000X-0.250000X0*%
%ADD13RoundRect,0.087500X-0.207500X-0.087500X0.207500X-0.087500X0.207500X0.087500X-0.207500X0.087500X0*%
%ADD14RoundRect,0.087500X-0.087500X-0.207500X0.087500X-0.207500X0.087500X0.207500X-0.087500X0.207500X0*%
%ADD15RoundRect,0.140000X0.170000X-0.140000X0.170000X0.140000X-0.170000X0.140000X-0.170000X-0.140000X0*%
%ADD16RoundRect,0.135000X0.185000X-0.135000X0.185000X0.135000X-0.185000X0.135000X-0.185000X-0.135000X0*%
%ADD17R,0.600000X1.550000*%
%ADD18R,1.200000X1.800000*%
%ADD19R,1.050000X0.350000*%
%ADD20RoundRect,0.150000X0.587500X0.150000X-0.587500X0.150000X-0.587500X-0.150000X0.587500X-0.150000X0*%
%ADD21RoundRect,0.140000X-0.170000X0.140000X-0.170000X-0.140000X0.170000X-0.140000X0.170000X0.140000X0*%
%ADD22R,2.120000X1.500000*%
%ADD23R,1.550000X0.600000*%
%ADD24R,1.800000X1.200000*%
%ADD25RoundRect,0.250000X0.295000X0.315000X-0.295000X0.315000X-0.295000X-0.315000X0.295000X-0.315000X0*%
%ADD26RoundRect,0.250000X0.315000X-0.295000X0.315000X0.295000X-0.315000X0.295000X-0.315000X-0.295000X0*%
%ADD27RotRect,0.520000X0.520000X225.000000*%
%ADD28RoundRect,0.140000X-0.140000X-0.170000X0.140000X-0.170000X0.140000X0.170000X-0.140000X0.170000X0*%
%ADD29RoundRect,0.135000X-0.135000X-0.185000X0.135000X-0.185000X0.135000X0.185000X-0.135000X0.185000X0*%
%ADD30RoundRect,0.250000X0.250000X0.475000X-0.250000X0.475000X-0.250000X-0.475000X0.250000X-0.475000X0*%
%ADD31RoundRect,0.250000X-0.295000X-0.315000X0.295000X-0.315000X0.295000X0.315000X-0.295000X0.315000X0*%
%ADD32RoundRect,0.225000X-0.225000X-0.250000X0.225000X-0.250000X0.225000X0.250000X-0.225000X0.250000X0*%
%ADD33RoundRect,0.249999X0.450001X1.800001X-0.450001X1.800001X-0.450001X-1.800001X0.450001X-1.800001X0*%
%ADD34R,0.450000X1.475000*%
%ADD35R,6.200000X2.750000*%
%ADD36R,1.000000X0.970000*%
%ADD37RoundRect,0.033750X0.101250X-0.426250X0.101250X0.426250X-0.101250X0.426250X-0.101250X-0.426250X0*%
%ADD38R,1.300000X1.050000*%
%ADD39RoundRect,0.135000X-0.185000X0.135000X-0.185000X-0.135000X0.185000X-0.135000X0.185000X0.135000X0*%
%ADD40RoundRect,0.250000X-0.250000X-0.475000X0.250000X-0.475000X0.250000X0.475000X-0.250000X0.475000X0*%
%ADD41R,0.380000X0.400000*%
%ADD42RoundRect,0.225000X0.225000X0.250000X-0.225000X0.250000X-0.225000X-0.250000X0.225000X-0.250000X0*%
G04 APERTURE END LIST*
D10*
%TO.C,U3*%
X172475000Y-79950000D02*
X172325000Y-80100000D01*
X172215000Y-80100000D01*
X172215000Y-79710000D01*
X172475000Y-79710000D01*
X172475000Y-79950000D01*
G36*
X172475000Y-79950000D02*
G01*
X172325000Y-80100000D01*
X172215000Y-80100000D01*
X172215000Y-79710000D01*
X172475000Y-79710000D01*
X172475000Y-79950000D01*
G37*
X172475000Y-80670000D02*
X172475000Y-80910000D01*
X172215000Y-80910000D01*
X172215000Y-80520000D01*
X172325000Y-80520000D01*
X172475000Y-80670000D01*
G36*
X172475000Y-80670000D02*
G01*
X172475000Y-80910000D01*
X172215000Y-80910000D01*
X172215000Y-80520000D01*
X172325000Y-80520000D01*
X172475000Y-80670000D01*
G37*
X173125000Y-80100000D02*
X173015000Y-80100000D01*
X172865000Y-79950000D01*
X172865000Y-79710000D01*
X173125000Y-79710000D01*
X173125000Y-80100000D01*
G36*
X173125000Y-80100000D02*
G01*
X173015000Y-80100000D01*
X172865000Y-79950000D01*
X172865000Y-79710000D01*
X173125000Y-79710000D01*
X173125000Y-80100000D01*
G37*
X173125000Y-80910000D02*
X172865000Y-80910000D01*
X172865000Y-80670000D01*
X173015000Y-80520000D01*
X173125000Y-80520000D01*
X173125000Y-80910000D01*
G36*
X173125000Y-80910000D02*
G01*
X172865000Y-80910000D01*
X172865000Y-80670000D01*
X173015000Y-80520000D01*
X173125000Y-80520000D01*
X173125000Y-80910000D01*
G37*
%TO.C,U11*%
X181035000Y-59560000D02*
X179615000Y-59560000D01*
X179615000Y-58620000D01*
X181035000Y-58620000D01*
X181035000Y-59560000D01*
G36*
X181035000Y-59560000D02*
G01*
X179615000Y-59560000D01*
X179615000Y-58620000D01*
X181035000Y-58620000D01*
X181035000Y-59560000D01*
G37*
%TD*%
D11*
%TO.C,C48*%
X160650000Y-85185000D03*
X159690000Y-85185000D03*
%TD*%
D12*
%TO.C,C18*%
X176175000Y-78315000D03*
X176175000Y-76415000D03*
%TD*%
D13*
%TO.C,U6*%
X171435000Y-72415000D03*
X171435000Y-71915000D03*
X171435000Y-71415000D03*
X171435000Y-70915000D03*
D14*
X172100000Y-70750000D03*
X172600000Y-70750000D03*
X173100000Y-70750000D03*
D13*
X173765000Y-70915000D03*
X173765000Y-71415000D03*
X173765000Y-71915000D03*
X173765000Y-72415000D03*
D14*
X173100000Y-72580000D03*
X172600000Y-72580000D03*
X172100000Y-72580000D03*
%TD*%
D15*
%TO.C,C45*%
X174735000Y-78545000D03*
X174735000Y-77585000D03*
%TD*%
D11*
%TO.C,C47*%
X174070000Y-83215000D03*
X173110000Y-83215000D03*
%TD*%
D16*
%TO.C,R14*%
X166939800Y-84927502D03*
X166939800Y-83907502D03*
%TD*%
D17*
%TO.C,J13*%
X162360000Y-58070000D03*
X163360000Y-58070000D03*
X164360000Y-58070000D03*
X165360000Y-58070000D03*
D18*
X161060000Y-54195000D03*
X166660000Y-54195000D03*
%TD*%
D15*
%TO.C,C27*%
X160370000Y-60850000D03*
X160370000Y-59890000D03*
%TD*%
D16*
%TO.C,R10*%
X182532500Y-82445001D03*
X182532500Y-81425001D03*
%TD*%
D11*
%TO.C,C2*%
X169040000Y-64540000D03*
X168080000Y-64540000D03*
%TD*%
D19*
%TO.C,U4*%
X182310000Y-78060002D03*
X182310000Y-78710000D03*
X182310000Y-79360002D03*
X182310000Y-80010000D03*
X180010000Y-80010000D03*
X180010000Y-79360002D03*
X180010000Y-78710000D03*
X180010000Y-78060002D03*
%TD*%
D20*
%TO.C,D8*%
X159415200Y-80570000D03*
X159415200Y-82470000D03*
X157540200Y-81520000D03*
%TD*%
D21*
%TO.C,C26*%
X166310000Y-69850000D03*
X166310000Y-70810000D03*
%TD*%
D17*
%TO.C,J1*%
X179800000Y-87500000D03*
X178800000Y-87500000D03*
X177800000Y-87500000D03*
X176800000Y-87500000D03*
X175800000Y-87500000D03*
X174800000Y-87500000D03*
D18*
X181100000Y-91375000D03*
X173500000Y-91375000D03*
%TD*%
D22*
%TO.C,D5*%
X165055000Y-74370000D03*
X160825000Y-74370000D03*
%TD*%
D11*
%TO.C,C50*%
X180310000Y-63150000D03*
X179350000Y-63150000D03*
%TD*%
D23*
%TO.C,J9*%
X155050000Y-72150000D03*
X155050000Y-71150000D03*
X155050000Y-70150000D03*
X155050000Y-69150000D03*
X155050000Y-68150000D03*
X155050000Y-67150000D03*
D24*
X151175000Y-73450000D03*
X151175000Y-65850000D03*
%TD*%
D15*
%TO.C,C4*%
X173900000Y-69695000D03*
X173900000Y-68735000D03*
%TD*%
D17*
%TO.C,J14*%
X163770000Y-87500000D03*
X162770000Y-87500000D03*
X161770000Y-87500000D03*
X160770000Y-87500000D03*
D18*
X165070000Y-91375000D03*
X159470000Y-91375000D03*
%TD*%
D25*
%TO.C,C7*%
X176635000Y-68370000D03*
X175205000Y-68370000D03*
%TD*%
D26*
%TO.C,C31*%
X168150000Y-63185000D03*
X168150000Y-61755000D03*
%TD*%
D16*
%TO.C,R13*%
X168490000Y-82575001D03*
X168490000Y-81555001D03*
%TD*%
D11*
%TO.C,C6*%
X176415000Y-67060000D03*
X175455000Y-67060000D03*
%TD*%
D27*
%TO.C,U3*%
X172670000Y-80310000D03*
%TD*%
D12*
%TO.C,C21*%
X160900000Y-78600000D03*
X160900000Y-76700000D03*
%TD*%
D28*
%TO.C,C3*%
X175920000Y-65215000D03*
X176880000Y-65215000D03*
%TD*%
D11*
%TO.C,C41*%
X181612500Y-76635001D03*
X180652500Y-76635001D03*
%TD*%
D29*
%TO.C,R16*%
X164989800Y-84467502D03*
X166009800Y-84467502D03*
%TD*%
D30*
%TO.C,C40*%
X175190000Y-84675000D03*
X173290000Y-84675000D03*
%TD*%
D29*
%TO.C,R36*%
X179620000Y-75705000D03*
X180640000Y-75705000D03*
%TD*%
D15*
%TO.C,C46*%
X159400000Y-77345000D03*
X159400000Y-76385000D03*
%TD*%
D31*
%TO.C,C43*%
X165925000Y-60040000D03*
X167355000Y-60040000D03*
%TD*%
D23*
%TO.C,J7*%
X185500000Y-60000000D03*
X185500000Y-61000000D03*
X185500000Y-62000000D03*
D24*
X189375000Y-58700000D03*
X189375000Y-63300000D03*
%TD*%
D11*
%TO.C,C1*%
X177215000Y-73130000D03*
X176255000Y-73130000D03*
%TD*%
D28*
%TO.C,C24*%
X172265000Y-81660000D03*
X173225000Y-81660000D03*
%TD*%
D32*
%TO.C,C12*%
X180685000Y-56230000D03*
X182235000Y-56230000D03*
%TD*%
D33*
%TO.C,L2*%
X164249800Y-81700000D03*
X161549800Y-81700000D03*
%TD*%
D34*
%TO.C,IC1*%
X166400000Y-68170000D03*
X165750000Y-68170000D03*
X165100000Y-68170000D03*
X164450000Y-68170000D03*
X163800000Y-68170000D03*
X163150000Y-68170000D03*
X162500000Y-68170000D03*
X161850000Y-68170000D03*
X161200000Y-68170000D03*
X160550000Y-68170000D03*
X159900000Y-68170000D03*
X159250000Y-68170000D03*
X158600000Y-68170000D03*
X157950000Y-68170000D03*
X157950000Y-62294000D03*
X158600000Y-62294000D03*
X159250000Y-62294000D03*
X159900000Y-62294000D03*
X160550000Y-62294000D03*
X161200000Y-62294000D03*
X161850000Y-62294000D03*
X162500000Y-62294000D03*
X163150000Y-62294000D03*
X163800000Y-62294000D03*
X164450000Y-62294000D03*
X165100000Y-62294000D03*
X165750000Y-62294000D03*
X166400000Y-62294000D03*
D35*
X162175000Y-65232000D03*
%TD*%
D16*
%TO.C,R37*%
X164390000Y-78675001D03*
X164390000Y-77655001D03*
%TD*%
D15*
%TO.C,C9*%
X172930000Y-69695000D03*
X172930000Y-68735000D03*
%TD*%
D28*
%TO.C,C8*%
X171270000Y-65165000D03*
X172230000Y-65165000D03*
%TD*%
D33*
%TO.C,L1*%
X178210000Y-81390000D03*
X175510000Y-81390000D03*
%TD*%
D36*
%TO.C,FL2*%
X172060000Y-77765000D03*
X173530000Y-77765000D03*
%TD*%
D37*
%TO.C,U11*%
X181300000Y-60480000D03*
X180650000Y-60480000D03*
X180000000Y-60480000D03*
X179350000Y-60480000D03*
X179350000Y-57700000D03*
X180000000Y-57700000D03*
X180650000Y-57700000D03*
X181300000Y-57700000D03*
%TD*%
D38*
%TO.C,Y1*%
X158890000Y-70250000D03*
X161190000Y-70250000D03*
X161190000Y-72000000D03*
X158890000Y-72000000D03*
%TD*%
D16*
%TO.C,R9*%
X182650000Y-85140000D03*
X182650000Y-84120000D03*
%TD*%
D39*
%TO.C,R4*%
X174870000Y-72730000D03*
X174870000Y-73750000D03*
%TD*%
D23*
%TO.C,J3*%
X155000000Y-62200000D03*
X155000000Y-61200000D03*
X155000000Y-60200000D03*
D24*
X151125000Y-63500000D03*
X151125000Y-58900000D03*
%TD*%
D17*
%TO.C,J6*%
X169730000Y-58060000D03*
X170730000Y-58060000D03*
X171730000Y-58060000D03*
X172730000Y-58060000D03*
X173730000Y-58060000D03*
X174730000Y-58060000D03*
X175730000Y-58060000D03*
X176730000Y-58060000D03*
D18*
X168430000Y-54185000D03*
X178030000Y-54185000D03*
%TD*%
D40*
%TO.C,C22*%
X161875000Y-84975000D03*
X163775000Y-84975000D03*
%TD*%
D28*
%TO.C,C25*%
X172165000Y-78960000D03*
X173125000Y-78960000D03*
%TD*%
%TO.C,C49*%
X173755000Y-76535000D03*
X174715000Y-76535000D03*
%TD*%
D16*
%TO.C,R7*%
X181690000Y-85140000D03*
X181690000Y-84120000D03*
%TD*%
D39*
%TO.C,R27*%
X169010000Y-66260000D03*
X169010000Y-67280000D03*
%TD*%
D29*
%TO.C,R8*%
X179770000Y-84560000D03*
X180790000Y-84560000D03*
%TD*%
D15*
%TO.C,C30*%
X163880000Y-60830000D03*
X163880000Y-59870000D03*
%TD*%
D40*
%TO.C,C20*%
X176705000Y-84670000D03*
X178605000Y-84670000D03*
%TD*%
D16*
%TO.C,R38*%
X161560000Y-60860000D03*
X161560000Y-59840000D03*
%TD*%
D41*
%TO.C,FL1*%
X175789000Y-66120000D03*
X176351000Y-66120000D03*
%TD*%
D12*
%TO.C,C17*%
X178165000Y-78310000D03*
X178165000Y-76410000D03*
%TD*%
D11*
%TO.C,C23*%
X168110000Y-73970000D03*
X167150000Y-73970000D03*
%TD*%
D17*
%TO.C,J12*%
X170300000Y-87500000D03*
X169300000Y-87500000D03*
X168300000Y-87500000D03*
D18*
X171600000Y-91375000D03*
X167000000Y-91375000D03*
%TD*%
D21*
%TO.C,C15*%
X167540000Y-81585001D03*
X167540000Y-82545001D03*
%TD*%
D11*
%TO.C,C16*%
X177150000Y-70015000D03*
X176190000Y-70015000D03*
%TD*%
D19*
%TO.C,U9*%
X168350000Y-78190002D03*
X168340000Y-78840000D03*
X168340000Y-79490002D03*
X168340000Y-80140000D03*
X166040000Y-80140000D03*
X166040000Y-79490002D03*
X166040000Y-78840000D03*
X166040000Y-78190002D03*
%TD*%
D15*
%TO.C,C44*%
X162520000Y-60800000D03*
X162520000Y-59840000D03*
%TD*%
D16*
%TO.C,R15*%
X167899800Y-84907502D03*
X167899800Y-83887502D03*
%TD*%
D42*
%TO.C,C5*%
X176955000Y-71530000D03*
X175405000Y-71530000D03*
%TD*%
%TO.C,C13*%
X181185000Y-61930000D03*
X179635000Y-61930000D03*
%TD*%
D23*
%TO.C,J8*%
X185500000Y-77500000D03*
X185500000Y-78500000D03*
X185500000Y-79500000D03*
D24*
X189375000Y-76200000D03*
X189375000Y-80800000D03*
%TD*%
D11*
%TO.C,C42*%
X167759800Y-76867502D03*
X166799800Y-76867502D03*
%TD*%
D12*
%TO.C,C19*%
X162925000Y-78600000D03*
X162925000Y-76700000D03*
%TD*%
D21*
%TO.C,C14*%
X181582500Y-81455001D03*
X181582500Y-82415001D03*
%TD*%
D39*
%TO.C,R30*%
X169500000Y-61360000D03*
X169500000Y-62380000D03*
%TD*%
D23*
%TO.C,J10*%
X185450000Y-68250000D03*
X185450000Y-69250000D03*
X185450000Y-70250000D03*
X185450000Y-71250000D03*
D24*
X189325000Y-66950000D03*
X189325000Y-72550000D03*
%TD*%
D23*
%TO.C,J5*%
X155000000Y-79200000D03*
X155000000Y-78200000D03*
X155000000Y-77200000D03*
D24*
X151125000Y-80500000D03*
X151125000Y-75900000D03*
%TD*%
D15*
%TO.C,C10*%
X171950000Y-69695000D03*
X171950000Y-68735000D03*
%TD*%
M02*
