M48
; DRILL file KiCad 10.0.1 date 2026-05-30T16:17:31
; FORMAT={-:-/ absolute / metric / decimal}
; #@! TF.CreationDate,2026-05-30T16:17:31+05:30
; #@! TF.GenerationSoftware,Kicad,Pcbnew,10.0.1
; #@! TF.FileFunction,Plated,1,6,PTH
FMAT,2
METRIC
; #@! TA.AperFunction,Plated,PTH,ViaDrill
T1C0.300
; #@! TA.AperFunction,Plated,PTH,ComponentDrill
T2C4.000
%
G90
G05
T1
X150.955Y-84.99
X150.995Y-54.425
X151.09Y-58.91
X151.095Y-75.91
X151.115Y-63.59
X151.135Y-65.865
X151.705Y-79.95
X152.21Y-87.83
X152.225Y-51.715
X152.49Y-77.47
X153.14Y-64.33
X153.32Y-74.685
X153.4Y-79.18
X154.38Y-61.16
X154.545Y-68.15
X154.545Y-72.12
X154.55Y-69.15
X154.55Y-70.13
X154.55Y-71.155
X154.575Y-67.145
X154.94Y-62.2
X154.965Y-60.165
X154.97Y-61.195
X154.995Y-50.62
X155.0Y-89.005
X155.48Y-79.225
X155.49Y-77.185
X155.495Y-78.225
X155.53Y-61.17
X156.345Y-81.58
X156.585Y-80.975
X156.65Y-82.2
X157.01Y-76.47
X157.215Y-74.74
X157.235Y-82.46
X157.25Y-80.665
X157.25Y-81.55
X157.6Y-60.26
X157.84Y-76.75
X157.855Y-80.92
X157.895Y-82.15
X158.005Y-77.64
X158.06Y-81.52
X158.24Y-60.24
X158.885Y-85.17
X158.98Y-86.205
X159.025Y-74.7
X159.13Y-84.05
X159.14Y-82.47
X159.14Y-83.26
X159.78Y-58.73
X159.84Y-82.47
X159.87Y-89.8
X159.88Y-67.9
X159.92Y-83.26
X159.95Y-84.08
X160.0Y-64.4
X160.0Y-65.0
X160.0Y-65.6
X160.01Y-71.5
X160.09Y-86.96
X160.09Y-87.45
X160.1Y-87.95
X160.19Y-78.068
X160.2Y-78.678
X160.32Y-74.915
X160.345Y-73.79
X160.55Y-67.9
X160.6Y-64.4
X160.6Y-65.0
X160.6Y-65.6
X160.65Y-78.348
X160.845Y-74.34
X160.955Y-59.175
X161.1Y-78.068
X161.12Y-78.708
X161.135Y-77.005
X161.195Y-88.64
X161.21Y-67.92
X161.37Y-73.815
X161.42Y-74.94
X161.45Y-76.595
X161.46Y-59.17
X161.675Y-55.425
X161.84Y-67.94
X161.91Y-89.8
X161.93Y-88.66
X162.26Y-88.97
X162.275Y-55.425
X162.38Y-69.86
X162.39Y-89.78
X162.67Y-76.785
X162.88Y-83.255
X162.895Y-83.72
X162.98Y-76.4
X163.06Y-69.87
X163.165Y-62.475
X163.17Y-61.82
X163.205Y-76.795
X163.275Y-84.035
X163.37Y-59.93
X163.395Y-88.66
X163.45Y-76.39
X163.675Y-55.425
X163.84Y-72.54
X164.07Y-59.92
X164.3Y-55.4
X164.43Y-90.02
X164.47Y-68.155
X164.6Y-87.49
X164.6Y-87.97
X164.61Y-69.88
X164.61Y-81.64
X165.17Y-73.91
X165.18Y-74.4
X165.18Y-74.86
X165.3Y-69.9
X165.54Y-71.68
X165.58Y-86.53
X165.695Y-55.555
X165.8Y-74.39
X165.8Y-74.86
X165.82Y-73.91
X165.99Y-71.69
X166.09Y-80.265
X166.33Y-55.545
X166.43Y-67.11
X166.57Y-80.265
X166.74Y-76.878
X167.09Y-66.09
X167.1Y-66.61
X167.17Y-73.12
X167.24Y-81.64
X167.31Y-68.09
X167.37Y-62.5
X167.4Y-61.04
X167.4Y-64.19
X167.41Y-64.66
X167.43Y-72.64
X167.65Y-55.425
X167.67Y-73.14
X167.74Y-69.13
X167.9Y-86.285
X167.94Y-72.65
X168.04Y-69.63
X168.13Y-89.95
X168.13Y-90.49
X168.19Y-73.13
X168.26Y-65.62
X168.3Y-55.425
X168.69Y-86.29
X168.93Y-64.04
X168.95Y-64.55
X169.09Y-68.85
X169.37Y-64.05
X169.37Y-64.55
X169.675Y-55.425
X170.21Y-62.61
X170.3Y-82.46
X170.325Y-55.425
X170.33Y-77.03
X170.54Y-62.23
X170.61Y-63.52
X170.61Y-74.81
X170.71Y-85.2
X170.72Y-85.94
X171.09Y-63.29
X171.11Y-75.11
X171.2Y-89.95
X171.41Y-70.93
X171.59Y-85.93
X171.6Y-75.38
X171.675Y-55.25
X171.95Y-68.715
X171.955Y-69.705
X172.1Y-75.65
X172.11Y-64.22
X172.3Y-55.25
X172.4Y-62.375
X172.61Y-72.59
X172.85Y-61.825
X172.855Y-70.735
X172.98Y-69.7
X173.015Y-68.7
X173.1Y-74.67
X173.105Y-84.235
X173.11Y-84.765
X173.29Y-77.765
X173.58Y-89.925
X173.585Y-84.235
X173.59Y-75.0
X173.6Y-84.745
X173.725Y-77.485
X173.75Y-57.87
X173.75Y-77.995
X173.76Y-72.43
X173.905Y-68.745
X173.92Y-69.715
X173.93Y-78.65
X173.95Y-79.11
X173.96Y-79.55
X174.065Y-55.02
X174.1Y-62.71
X174.1Y-75.44
X174.13Y-85.94
X174.18Y-81.24
X174.2Y-80.25
X174.59Y-62.31
X174.61Y-75.43
X174.75Y-55.015
X174.76Y-57.79
X175.06Y-85.935
X175.17Y-68.38
X175.385Y-71.565
X175.44Y-55.02
X175.6Y-63.122
X175.61Y-64.79
X175.7Y-77.215
X175.73Y-57.51
X175.74Y-58.02
X175.74Y-66.12
X175.75Y-56.96
X175.86Y-78.405
X176.0Y-89.985
X176.1Y-64.79
X176.105Y-63.725
X176.11Y-73.98
X176.185Y-70.015
X176.21Y-77.23
X176.23Y-61.63
X176.24Y-60.68
X176.295Y-73.145
X176.45Y-78.405
X176.485Y-68.545
X176.59Y-74.425
X176.6Y-64.19
X176.6Y-74.915
X176.6Y-75.425
X176.62Y-63.15
X176.67Y-64.79
X176.74Y-58.09
X176.74Y-58.61
X176.75Y-57.54
X176.975Y-71.58
X176.99Y-81.46
X177.0Y-81.97
X177.05Y-55.375
X177.165Y-70.015
X177.17Y-64.79
X177.26Y-61.65
X177.28Y-74.37
X177.28Y-74.84
X177.31Y-75.4
X177.43Y-57.52
X177.44Y-58.09
X177.44Y-58.67
X177.775Y-55.4
X177.79Y-78.375
X177.91Y-69.09
X178.04Y-57.53
X178.07Y-58.12
X178.07Y-58.64
X178.12Y-90.45
X178.35Y-84.335
X178.41Y-89.925
X178.425Y-55.4
X178.5Y-80.03
X178.505Y-78.37
X178.54Y-73.12
X178.65Y-90.45
X178.69Y-74.63
X178.69Y-75.105
X178.705Y-75.615
X178.825Y-84.305
X178.95Y-69.61
X179.02Y-73.13
X179.05Y-72.61
X179.18Y-62.05
X179.22Y-74.635
X179.375Y-63.665
X179.45Y-59.75
X179.46Y-59.19
X179.47Y-58.65
X179.47Y-72.12
X179.56Y-73.12
X179.6Y-83.615
X179.65Y-56.515
X179.745Y-74.645
X179.745Y-80.06
X179.96Y-76.84
X180.125Y-83.605
X180.2Y-67.58
X180.2Y-68.11
X180.2Y-68.68
X180.205Y-63.045
X180.21Y-65.74
X180.21Y-66.37
X180.21Y-66.87
X180.28Y-80.06
X180.63Y-56.51
X180.71Y-63.06
X180.85Y-89.97
X180.94Y-64.82
X181.45Y-60.39
X181.65Y-71.515
X181.71Y-81.485
X181.87Y-59.19
X181.87Y-59.91
X181.89Y-58.48
X181.99Y-67.75
X182.22Y-55.975
X182.225Y-56.47
X182.95Y-59.57
X182.97Y-62.03
X182.975Y-63.325
X183.01Y-60.745
X183.54Y-61.44
X183.595Y-62.675
X183.845Y-73.225
X183.885Y-69.325
X183.89Y-75.54
X183.905Y-80.025
X183.985Y-60.735
X184.14Y-62.02
X184.31Y-63.33
X184.74Y-58.07
X184.74Y-58.53
X185.34Y-80.465
X185.495Y-62.02
X185.595Y-89.0
X185.6Y-50.615
X185.69Y-64.25
X185.7Y-64.67
X186.46Y-63.01
X186.635Y-82.065
X186.64Y-60.78
X186.9Y-63.01
X186.975Y-71.675
X186.98Y-69.585
X187.005Y-68.58
X187.01Y-70.53
X187.29Y-64.27
X187.29Y-64.82
X187.45Y-58.1
X187.59Y-75.615
X187.615Y-77.64
X187.62Y-81.61
X187.645Y-79.585
X188.18Y-62.85
X188.42Y-75.6
X188.42Y-87.8
X188.44Y-65.03
X188.46Y-51.8
X188.47Y-64.03
X188.67Y-63.45
X188.71Y-62.88
X188.85Y-60.75
X188.97Y-65.05
X188.98Y-64.03
X189.2Y-75.58
X189.605Y-54.61
X189.61Y-85.0
X189.91Y-80.59
T2
X155.0Y-54.5
X155.0Y-85.0
X185.5Y-54.5
X185.5Y-85.0
M30
