%TF.GenerationSoftware,KiCad,Pcbnew,10.0.1*%
%TF.CreationDate,2026-05-30T16:18:12+05:30*%
%TF.ProjectId,VENDETTAFC,56454e44-4554-4544-9146-432e6b696361,rev?*%
%TF.SameCoordinates,Original*%
%TF.FileFunction,Other,User*%
%FSLAX46Y46*%
G04 Gerber Fmt 4.6, Leading zero omitted, Abs format (unit mm)*
G04 Created by KiCad (PCBNEW 10.0.1) date 2026-05-30 16:18:12*
%MOMM*%
%LPD*%
G01*
G04 APERTURE LIST*
%ADD10C,0.050000*%
%ADD11C,0.152400*%
G04 APERTURE END LIST*
%TO.C,C37*%
D10*
X185195000Y-57395000D02*
X188155000Y-57395000D01*
X188155000Y-58855000D01*
X185195000Y-58855000D01*
X185195000Y-57395000D01*
%TO.C,R6*%
X187460000Y-59275000D02*
X189320000Y-59275000D01*
X189320000Y-60215000D01*
X187460000Y-60215000D01*
X187460000Y-59275000D01*
%TO.C,J2*%
X150060000Y-63320000D02*
X158490000Y-63320000D01*
X150060000Y-76220000D02*
X150060000Y-63320000D01*
X158490000Y-63320000D02*
X158490000Y-76220000D01*
X158490000Y-76220000D02*
X150060000Y-76220000D01*
%TO.C,R34*%
X169232500Y-78860000D02*
X170172500Y-78860000D01*
X170172500Y-80720000D01*
X169232500Y-80720000D01*
X169232500Y-78860000D01*
%TO.C,TP49*%
X190320000Y-85000000D02*
G75*
G02*
X188880000Y-85000000I-720000J0D01*
G01*
X188880000Y-85000000D02*
G75*
G02*
X190320000Y-85000000I720000J0D01*
G01*
%TO.C,C28*%
X179315000Y-80790000D02*
X180235000Y-80790000D01*
X180235000Y-82610000D01*
X179315000Y-82610000D01*
X179315000Y-80790000D01*
%TO.C,TP51*%
X189110000Y-87800000D02*
G75*
G02*
X187690000Y-87800000I-710000J0D01*
G01*
X187690000Y-87800000D02*
G75*
G02*
X189110000Y-87800000I710000J0D01*
G01*
%TO.C,TP50*%
X186300000Y-89000000D02*
G75*
G02*
X184900000Y-89000000I-700000J0D01*
G01*
X184900000Y-89000000D02*
G75*
G02*
X186300000Y-89000000I700000J0D01*
G01*
%TO.C,R20*%
X183330000Y-57930000D02*
X185190000Y-57930000D01*
X185190000Y-58870000D01*
X183330000Y-58870000D01*
X183330000Y-57930000D01*
%TO.C,TP4*%
X164210000Y-75480000D02*
G75*
G02*
X162210000Y-75480000I-1000000J0D01*
G01*
X162210000Y-75480000D02*
G75*
G02*
X164210000Y-75480000I1000000J0D01*
G01*
%TO.C,C29*%
X168990000Y-57375000D02*
X169910000Y-57375000D01*
X169910000Y-59195000D01*
X168990000Y-59195000D01*
X168990000Y-57375000D01*
%TO.C,R12*%
X172750000Y-81730000D02*
X174610000Y-81730000D01*
X174610000Y-82670000D01*
X172750000Y-82670000D01*
X172750000Y-81730000D01*
%TO.C,TP40*%
X151730000Y-54400000D02*
G75*
G02*
X150270000Y-54400000I-730000J0D01*
G01*
X150270000Y-54400000D02*
G75*
G02*
X151730000Y-54400000I730000J0D01*
G01*
%TO.C,R17*%
X175800000Y-61170000D02*
X177660000Y-61170000D01*
X177660000Y-62110000D01*
X175800000Y-62110000D01*
X175800000Y-61170000D01*
%TO.C,U7*%
X158650000Y-57350000D02*
X158650000Y-63850000D01*
X158650000Y-63850000D02*
X168950000Y-63850000D01*
X168950000Y-57350000D02*
X158650000Y-57350000D01*
X168950000Y-63850000D02*
X168950000Y-57350000D01*
%TO.C,TP46*%
X190320000Y-54600000D02*
G75*
G02*
X188880000Y-54600000I-720000J0D01*
G01*
X188880000Y-54600000D02*
G75*
G02*
X190320000Y-54600000I720000J0D01*
G01*
%TO.C,U2*%
X175237500Y-79750000D02*
X179237500Y-79750000D01*
X175237500Y-83750000D02*
X175237500Y-79750000D01*
X179237500Y-79750000D02*
X179237500Y-83750000D01*
X179237500Y-83750000D02*
X175237500Y-83750000D01*
%TO.C,R32*%
X165955000Y-78098500D02*
X166895000Y-78098500D01*
X166895000Y-79958500D01*
X165955000Y-79958500D01*
X165955000Y-78098500D01*
%TO.C,R26*%
X172750000Y-80750000D02*
X174610000Y-80750000D01*
X174610000Y-81690000D01*
X172750000Y-81690000D01*
X172750000Y-80750000D01*
%TO.C,U10*%
X161800000Y-68287500D02*
X162800000Y-68287500D01*
X161800000Y-71287500D02*
X161800000Y-68287500D01*
X162800000Y-68087500D02*
X164900000Y-68087500D01*
X162800000Y-68287500D02*
X162800000Y-68087500D01*
X162800000Y-71287500D02*
X161800000Y-71287500D01*
X162800000Y-71487500D02*
X162800000Y-71287500D01*
X164900000Y-68087500D02*
X164900000Y-68287500D01*
X164900000Y-68287500D02*
X165900000Y-68287500D01*
X164900000Y-71287500D02*
X164900000Y-71487500D01*
X164900000Y-71487500D02*
X162800000Y-71487500D01*
X165900000Y-68287500D02*
X165900000Y-71287500D01*
X165900000Y-71287500D02*
X164900000Y-71287500D01*
%TO.C,U1*%
X166650000Y-65215000D02*
X168100000Y-65215000D01*
X166650000Y-73515000D02*
X166650000Y-65215000D01*
X168100000Y-64115000D02*
X169200000Y-64115000D01*
X168100000Y-65215000D02*
X168100000Y-64115000D01*
X168100000Y-73515000D02*
X166650000Y-73515000D01*
X168100000Y-74615000D02*
X168100000Y-73515000D01*
X169200000Y-62665000D02*
X177500000Y-62665000D01*
X169200000Y-64115000D02*
X169200000Y-62665000D01*
X169200000Y-74615000D02*
X168100000Y-74615000D01*
X169200000Y-76065000D02*
X169200000Y-74615000D01*
X177500000Y-62665000D02*
X177500000Y-64115000D01*
X177500000Y-64115000D02*
X178600000Y-64115000D01*
X177500000Y-74615000D02*
X177500000Y-76065000D01*
X177500000Y-76065000D02*
X169200000Y-76065000D01*
X178600000Y-64115000D02*
X178600000Y-65215000D01*
X178600000Y-65215000D02*
X180050000Y-65215000D01*
X178600000Y-73515000D02*
X178600000Y-74615000D01*
X178600000Y-74615000D02*
X177500000Y-74615000D01*
X180050000Y-65215000D02*
X180050000Y-73515000D01*
X180050000Y-73515000D02*
X178600000Y-73515000D01*
%TO.C,R28*%
X168980000Y-59255000D02*
X169920000Y-59255000D01*
X169920000Y-61115000D01*
X168980000Y-61115000D01*
X168980000Y-59255000D01*
%TO.C,C35*%
X179245000Y-59200000D02*
X181065000Y-59200000D01*
X181065000Y-60120000D01*
X179245000Y-60120000D01*
X179245000Y-59200000D01*
%TO.C,R22*%
X180355000Y-78620000D02*
X181295000Y-78620000D01*
X181295000Y-80480000D01*
X180355000Y-80480000D01*
X180355000Y-78620000D01*
%TO.C,C11*%
X176365000Y-83890000D02*
X178185000Y-83890000D01*
X178185000Y-84810000D01*
X176365000Y-84810000D01*
X176365000Y-83890000D01*
%TO.C,R35*%
X168280000Y-78845000D02*
X169220000Y-78845000D01*
X169220000Y-80705000D01*
X168280000Y-80705000D01*
X168280000Y-78845000D01*
%TO.C,R29*%
X157655000Y-59770000D02*
X158595000Y-59770000D01*
X158595000Y-61630000D01*
X157655000Y-61630000D01*
X157655000Y-59770000D01*
%TO.C,TP2*%
X179650000Y-63090000D02*
G75*
G02*
X177650000Y-63090000I-1000000J0D01*
G01*
X177650000Y-63090000D02*
G75*
G02*
X179650000Y-63090000I1000000J0D01*
G01*
%TO.C,D4*%
X184410000Y-77820000D02*
X186310000Y-77820000D01*
X186310000Y-81180000D01*
X184410000Y-81180000D01*
X184410000Y-77820000D01*
%TO.C,C38*%
X187447500Y-60290000D02*
X189267500Y-60290000D01*
X189267500Y-61210000D01*
X187447500Y-61210000D01*
X187447500Y-60290000D01*
%TO.C,R5*%
X158530000Y-63870000D02*
X159470000Y-63870000D01*
X159470000Y-65730000D01*
X158530000Y-65730000D01*
X158530000Y-63870000D01*
%TO.C,C39*%
X163993500Y-78130000D02*
X164913500Y-78130000D01*
X164913500Y-79950000D01*
X163993500Y-79950000D01*
X163993500Y-78130000D01*
%TO.C,R1*%
X158530000Y-74270000D02*
X159470000Y-74270000D01*
X159470000Y-76130000D01*
X158530000Y-76130000D01*
X158530000Y-74270000D01*
%TO.C,R2*%
X159420000Y-68830000D02*
X161280000Y-68830000D01*
X161280000Y-69770000D01*
X159420000Y-69770000D01*
X159420000Y-68830000D01*
%TO.C,TP41*%
X155720000Y-50600000D02*
G75*
G02*
X154280000Y-50600000I-720000J0D01*
G01*
X154280000Y-50600000D02*
G75*
G02*
X155720000Y-50600000I720000J0D01*
G01*
%TO.C,D2*%
X184390000Y-74420000D02*
X186290000Y-74420000D01*
X186290000Y-77780000D01*
X184390000Y-77780000D01*
X184390000Y-74420000D01*
%TO.C,TP42*%
X152980000Y-51750000D02*
G75*
G02*
X151520000Y-51750000I-730000J0D01*
G01*
X151520000Y-51750000D02*
G75*
G02*
X152980000Y-51750000I730000J0D01*
G01*
%TO.C,D7*%
X163125000Y-76800000D02*
X163125000Y-78100000D01*
X163125000Y-78100000D02*
X165925000Y-78100000D01*
X165925000Y-76800000D02*
X163125000Y-76800000D01*
X165925000Y-78100000D02*
X165925000Y-76800000D01*
%TO.C,REF\u002A\u002A*%
X157355000Y-54500000D02*
G75*
G02*
X152645000Y-54500000I-2355000J0D01*
G01*
X152645000Y-54500000D02*
G75*
G02*
X157355000Y-54500000I2355000J0D01*
G01*
%TO.C,AT1*%
X190575000Y-56780000D02*
X193505000Y-56780000D01*
X190575000Y-65280000D02*
X190575000Y-56780000D01*
X193505000Y-56780000D02*
X193505000Y-65280000D01*
X193505000Y-65280000D02*
X190575000Y-65280000D01*
%TO.C,Y2*%
X180735000Y-66760000D02*
X184835000Y-66760000D01*
X180735000Y-70160000D02*
X180735000Y-66760000D01*
X180735000Y-70160000D02*
X184835000Y-70160000D01*
X184835000Y-66760000D02*
X184835000Y-70160000D01*
%TO.C,Y3*%
X180715001Y-70685000D02*
X184814999Y-70685000D01*
X180715001Y-74085000D02*
X180715001Y-70685000D01*
X180715001Y-74085000D02*
X184814999Y-74085000D01*
X184814999Y-70685000D02*
X184814999Y-74085000D01*
%TO.C,TP43*%
X151720000Y-85000000D02*
G75*
G02*
X150280000Y-85000000I-720000J0D01*
G01*
X150280000Y-85000000D02*
G75*
G02*
X151720000Y-85000000I720000J0D01*
G01*
%TO.C,U5*%
X181100000Y-58900000D02*
X187300000Y-58900000D01*
X181100000Y-65100000D02*
X181100000Y-58900000D01*
X187300000Y-58900000D02*
X187300000Y-65100000D01*
X187300000Y-65100000D02*
X181100000Y-65100000D01*
%TO.C,D3*%
X181350000Y-77820000D02*
X183250000Y-77820000D01*
X183250000Y-81180000D01*
X181350000Y-81180000D01*
X181350000Y-77820000D01*
%TO.C,F2*%
D11*
X158375900Y-76924000D02*
X163024100Y-76924000D01*
X158375900Y-80226000D02*
X158375900Y-76924000D01*
X163024100Y-76924000D02*
X163024100Y-80226000D01*
X163024100Y-80226000D02*
X158375900Y-80226000D01*
%TO.C,TP1*%
D10*
X179680000Y-61045000D02*
G75*
G02*
X177680000Y-61045000I-1000000J0D01*
G01*
X177680000Y-61045000D02*
G75*
G02*
X179680000Y-61045000I1000000J0D01*
G01*
%TO.C,C34*%
X186505000Y-65190000D02*
X187425000Y-65190000D01*
X187425000Y-67010000D01*
X186505000Y-67010000D01*
X186505000Y-65190000D01*
%TO.C,R18*%
X180400000Y-75132500D02*
X181340000Y-75132500D01*
X181340000Y-76992500D01*
X180400000Y-76992500D01*
X180400000Y-75132500D01*
%TO.C,C36*%
X179245000Y-58230000D02*
X181065000Y-58230000D01*
X181065000Y-59150000D01*
X179245000Y-59150000D01*
X179245000Y-58230000D01*
%TO.C,Q2*%
X167407500Y-80950000D02*
X168437500Y-80950000D01*
X167407500Y-82060000D02*
X167407500Y-80950000D01*
X167407500Y-82840000D02*
X168437500Y-82840000D01*
X167407500Y-83950000D02*
X167407500Y-82840000D01*
X168437500Y-80750000D02*
X170237500Y-80750000D01*
X168437500Y-80950000D02*
X168437500Y-80750000D01*
X168437500Y-82060000D02*
X167407500Y-82060000D01*
X168437500Y-82840000D02*
X168437500Y-82060000D01*
X168437500Y-83950000D02*
X167407500Y-83950000D01*
X168437500Y-84150000D02*
X168437500Y-83950000D01*
X170237500Y-80750000D02*
X170237500Y-81900000D01*
X170237500Y-81900000D02*
X171267500Y-81900000D01*
X170237500Y-83000000D02*
X170237500Y-84150000D01*
X170237500Y-84150000D02*
X168437500Y-84150000D01*
X171267500Y-81900000D02*
X171267500Y-83000000D01*
X171267500Y-83000000D02*
X170237500Y-83000000D01*
%TO.C,D1*%
X181350000Y-74420000D02*
X183250000Y-74420000D01*
X183250000Y-77780000D01*
X181350000Y-77780000D01*
X181350000Y-74420000D01*
%TO.C,R24*%
X153580000Y-77770000D02*
X154520000Y-77770000D01*
X154520000Y-79630000D01*
X153580000Y-79630000D01*
X153580000Y-77770000D01*
%TO.C,TP47*%
X186320000Y-50600000D02*
G75*
G02*
X184880000Y-50600000I-720000J0D01*
G01*
X184880000Y-50600000D02*
G75*
G02*
X186320000Y-50600000I720000J0D01*
G01*
%TO.C,R33*%
X166933500Y-78110000D02*
X167873500Y-78110000D01*
X167873500Y-79970000D01*
X166933500Y-79970000D01*
X166933500Y-78110000D01*
%TO.C,L3*%
X187470000Y-63130000D02*
X188410000Y-63130000D01*
X188410000Y-64990000D01*
X187470000Y-64990000D01*
X187470000Y-63130000D01*
%TO.C,S2*%
X149370000Y-78150000D02*
X150020000Y-78150000D01*
X149370000Y-80350000D02*
X149370000Y-78150000D01*
X150020000Y-76500000D02*
X153420000Y-76500000D01*
X150020000Y-78150000D02*
X150020000Y-76500000D01*
X150020000Y-80350000D02*
X149370000Y-80350000D01*
X150020000Y-82000000D02*
X150020000Y-80350000D01*
X153420000Y-76500000D02*
X153420000Y-82000000D01*
X153420000Y-82000000D02*
X150020000Y-82000000D01*
%TO.C,TP48*%
X189110000Y-51800000D02*
G75*
G02*
X187690000Y-51800000I-710000J0D01*
G01*
X187690000Y-51800000D02*
G75*
G02*
X189110000Y-51800000I710000J0D01*
G01*
%TO.C,R25*%
X172740000Y-79760000D02*
X174600000Y-79760000D01*
X174600000Y-80700000D01*
X172740000Y-80700000D01*
X172740000Y-79760000D01*
%TO.C,TP3*%
X164170000Y-73380000D02*
G75*
G02*
X162170000Y-73380000I-1000000J0D01*
G01*
X162170000Y-73380000D02*
G75*
G02*
X164170000Y-73380000I1000000J0D01*
G01*
%TO.C,R21*%
X183400000Y-75132500D02*
X184340000Y-75132500D01*
X184340000Y-76992500D01*
X183400000Y-76992500D01*
X183400000Y-75132500D01*
%TO.C,R11*%
X175810000Y-60190000D02*
X177670000Y-60190000D01*
X177670000Y-61130000D01*
X175810000Y-61130000D01*
X175810000Y-60190000D01*
%TO.C,R23*%
X183405000Y-78570000D02*
X184345000Y-78570000D01*
X184345000Y-80430000D01*
X183405000Y-80430000D01*
X183405000Y-78570000D01*
%TO.C,TP45*%
X152930000Y-87800000D02*
G75*
G02*
X151470000Y-87800000I-730000J0D01*
G01*
X151470000Y-87800000D02*
G75*
G02*
X152930000Y-87800000I730000J0D01*
G01*
%TO.C,C33*%
X187465000Y-65190000D02*
X188385000Y-65190000D01*
X188385000Y-67010000D01*
X187465000Y-67010000D01*
X187465000Y-65190000D01*
%TO.C,TP44*%
X155720000Y-89000000D02*
G75*
G02*
X154280000Y-89000000I-720000J0D01*
G01*
X154280000Y-89000000D02*
G75*
G02*
X155720000Y-89000000I720000J0D01*
G01*
%TO.C,R31*%
X164983500Y-78110000D02*
X165923500Y-78110000D01*
X165923500Y-79970000D01*
X164983500Y-79970000D01*
X164983500Y-78110000D01*
%TO.C,C32*%
X163035000Y-78130000D02*
X163955000Y-78130000D01*
X163955000Y-79950000D01*
X163035000Y-79950000D01*
X163035000Y-78130000D01*
%TO.C,R3*%
X159420000Y-69780000D02*
X161280000Y-69780000D01*
X161280000Y-70720000D01*
X159420000Y-70720000D01*
X159420000Y-69780000D01*
%TD*%
M02*
