%TF.GenerationSoftware,KiCad,Pcbnew,10.0.1*%
%TF.CreationDate,2026-05-30T17:46:05+05:30*%
%TF.ProjectId,VENDETTAFC,56454e44-4554-4544-9146-432e6b696361,rev?*%
%TF.SameCoordinates,Original*%
%TF.FileFunction,Soldermask,Bot*%
%TF.FilePolarity,Negative*%
%FSLAX46Y46*%
G04 Gerber Fmt 4.6, Leading zero omitted, Abs format (unit mm)*
G04 Created by KiCad (PCBNEW 10.0.1) date 2026-05-30 17:46:05*
%MOMM*%
%LPD*%
G01*
G04 APERTURE LIST*
G04 APERTURE END LIST*
G36*
X160070000Y-92275000D02*
G01*
X158870000Y-92275000D01*
X158870000Y-90475000D01*
X160070000Y-90475000D01*
X160070000Y-92275000D01*
G37*
G36*
X165670000Y-92275000D02*
G01*
X164470000Y-92275000D01*
X164470000Y-90475000D01*
X165670000Y-90475000D01*
X165670000Y-92275000D01*
G37*
G36*
X167600000Y-92275000D02*
G01*
X166400000Y-92275000D01*
X166400000Y-90475000D01*
X167600000Y-90475000D01*
X167600000Y-92275000D01*
G37*
G36*
X172200000Y-92275000D02*
G01*
X171000000Y-92275000D01*
X171000000Y-90475000D01*
X172200000Y-90475000D01*
X172200000Y-92275000D01*
G37*
G36*
X174100000Y-92275000D02*
G01*
X172900000Y-92275000D01*
X172900000Y-90475000D01*
X174100000Y-90475000D01*
X174100000Y-92275000D01*
G37*
G36*
X181700000Y-92275000D02*
G01*
X180500000Y-92275000D01*
X180500000Y-90475000D01*
X181700000Y-90475000D01*
X181700000Y-92275000D01*
G37*
G36*
X161070000Y-88275000D02*
G01*
X160470000Y-88275000D01*
X160470000Y-86725000D01*
X161070000Y-86725000D01*
X161070000Y-88275000D01*
G37*
G36*
X162070000Y-88275000D02*
G01*
X161470000Y-88275000D01*
X161470000Y-86725000D01*
X162070000Y-86725000D01*
X162070000Y-88275000D01*
G37*
G36*
X163070000Y-88275000D02*
G01*
X162470000Y-88275000D01*
X162470000Y-86725000D01*
X163070000Y-86725000D01*
X163070000Y-88275000D01*
G37*
G36*
X164070000Y-88275000D02*
G01*
X163470000Y-88275000D01*
X163470000Y-86725000D01*
X164070000Y-86725000D01*
X164070000Y-88275000D01*
G37*
G36*
X168600000Y-88275000D02*
G01*
X168000000Y-88275000D01*
X168000000Y-86725000D01*
X168600000Y-86725000D01*
X168600000Y-88275000D01*
G37*
G36*
X169600000Y-88275000D02*
G01*
X169000000Y-88275000D01*
X169000000Y-86725000D01*
X169600000Y-86725000D01*
X169600000Y-88275000D01*
G37*
G36*
X170600000Y-88275000D02*
G01*
X170000000Y-88275000D01*
X170000000Y-86725000D01*
X170600000Y-86725000D01*
X170600000Y-88275000D01*
G37*
G36*
X175100000Y-88275000D02*
G01*
X174500000Y-88275000D01*
X174500000Y-86725000D01*
X175100000Y-86725000D01*
X175100000Y-88275000D01*
G37*
G36*
X176100000Y-88275000D02*
G01*
X175500000Y-88275000D01*
X175500000Y-86725000D01*
X176100000Y-86725000D01*
X176100000Y-88275000D01*
G37*
G36*
X177100000Y-88275000D02*
G01*
X176500000Y-88275000D01*
X176500000Y-86725000D01*
X177100000Y-86725000D01*
X177100000Y-88275000D01*
G37*
G36*
X178100000Y-88275000D02*
G01*
X177500000Y-88275000D01*
X177500000Y-86725000D01*
X178100000Y-86725000D01*
X178100000Y-88275000D01*
G37*
G36*
X179100000Y-88275000D02*
G01*
X178500000Y-88275000D01*
X178500000Y-86725000D01*
X179100000Y-86725000D01*
X179100000Y-88275000D01*
G37*
G36*
X180100000Y-88275000D02*
G01*
X179500000Y-88275000D01*
X179500000Y-86725000D01*
X180100000Y-86725000D01*
X180100000Y-88275000D01*
G37*
G36*
X155429199Y-82842272D02*
G01*
X155707167Y-82916754D01*
X155973035Y-83026880D01*
X156222255Y-83170767D01*
X156450561Y-83345952D01*
X156654048Y-83549439D01*
X156829233Y-83777745D01*
X156973120Y-84026965D01*
X157083246Y-84292833D01*
X157157728Y-84570801D01*
X157195290Y-84856113D01*
X157195290Y-85143887D01*
X157157728Y-85429199D01*
X157083246Y-85707167D01*
X156973120Y-85973035D01*
X156829233Y-86222255D01*
X156654048Y-86450561D01*
X156450561Y-86654048D01*
X156222255Y-86829233D01*
X155973035Y-86973120D01*
X155707167Y-87083246D01*
X155429199Y-87157728D01*
X155143887Y-87195290D01*
X154856113Y-87195290D01*
X154570801Y-87157728D01*
X154292833Y-87083246D01*
X154026965Y-86973120D01*
X153777745Y-86829233D01*
X153549439Y-86654048D01*
X153345952Y-86450561D01*
X153170767Y-86222255D01*
X153026880Y-85973035D01*
X152916754Y-85707167D01*
X152842272Y-85429199D01*
X152804710Y-85143887D01*
X152804710Y-84856113D01*
X152842272Y-84570801D01*
X152916754Y-84292833D01*
X153026880Y-84026965D01*
X153170767Y-83777745D01*
X153345952Y-83549439D01*
X153549439Y-83345952D01*
X153777745Y-83170767D01*
X154026965Y-83026880D01*
X154292833Y-82916754D01*
X154570801Y-82842272D01*
X154856113Y-82804710D01*
X155143887Y-82804710D01*
X155429199Y-82842272D01*
G37*
G36*
X185929199Y-82842272D02*
G01*
X186207167Y-82916754D01*
X186473035Y-83026880D01*
X186722255Y-83170767D01*
X186950561Y-83345952D01*
X187154048Y-83549439D01*
X187329233Y-83777745D01*
X187473120Y-84026965D01*
X187583246Y-84292833D01*
X187657728Y-84570801D01*
X187695290Y-84856113D01*
X187695290Y-85143887D01*
X187657728Y-85429199D01*
X187583246Y-85707167D01*
X187473120Y-85973035D01*
X187329233Y-86222255D01*
X187154048Y-86450561D01*
X186950561Y-86654048D01*
X186722255Y-86829233D01*
X186473035Y-86973120D01*
X186207167Y-87083246D01*
X185929199Y-87157728D01*
X185643887Y-87195290D01*
X185356113Y-87195290D01*
X185070801Y-87157728D01*
X184792833Y-87083246D01*
X184526965Y-86973120D01*
X184277745Y-86829233D01*
X184049439Y-86654048D01*
X183845952Y-86450561D01*
X183670767Y-86222255D01*
X183526880Y-85973035D01*
X183416754Y-85707167D01*
X183342272Y-85429199D01*
X183304710Y-85143887D01*
X183304710Y-84856113D01*
X183342272Y-84570801D01*
X183416754Y-84292833D01*
X183526880Y-84026965D01*
X183670767Y-83777745D01*
X183845952Y-83549439D01*
X184049439Y-83345952D01*
X184277745Y-83170767D01*
X184526965Y-83026880D01*
X184792833Y-82916754D01*
X185070801Y-82842272D01*
X185356113Y-82804710D01*
X185643887Y-82804710D01*
X185929199Y-82842272D01*
G37*
G36*
X162129047Y-84250805D02*
G01*
X162180408Y-84256764D01*
X162197954Y-84264511D01*
X162220671Y-84269030D01*
X162244991Y-84285280D01*
X162265793Y-84294465D01*
X162280000Y-84308672D01*
X162301777Y-84323223D01*
X162316327Y-84344999D01*
X162330534Y-84359206D01*
X162339718Y-84380006D01*
X162355970Y-84404329D01*
X162360489Y-84427048D01*
X162368235Y-84444591D01*
X162374192Y-84495940D01*
X162375000Y-84500000D01*
X162375000Y-85450000D01*
X162374192Y-85454059D01*
X162368235Y-85505408D01*
X162360489Y-85522950D01*
X162355970Y-85545671D01*
X162339716Y-85569995D01*
X162330534Y-85590793D01*
X162316329Y-85604997D01*
X162301777Y-85626777D01*
X162279997Y-85641329D01*
X162265793Y-85655534D01*
X162244995Y-85664716D01*
X162220671Y-85680970D01*
X162197950Y-85685489D01*
X162180408Y-85693235D01*
X162129061Y-85699192D01*
X162125000Y-85700000D01*
X161625000Y-85700000D01*
X161620941Y-85699192D01*
X161569591Y-85693235D01*
X161552048Y-85685489D01*
X161529329Y-85680970D01*
X161505006Y-85664718D01*
X161484206Y-85655534D01*
X161469999Y-85641327D01*
X161448223Y-85626777D01*
X161433672Y-85605000D01*
X161419465Y-85590793D01*
X161410280Y-85569991D01*
X161394030Y-85545671D01*
X161389511Y-85522954D01*
X161381764Y-85505408D01*
X161375805Y-85454049D01*
X161375000Y-85450000D01*
X161375000Y-84500000D01*
X161375804Y-84495953D01*
X161381764Y-84444591D01*
X161389511Y-84427043D01*
X161394030Y-84404329D01*
X161410278Y-84380010D01*
X161419465Y-84359206D01*
X161433674Y-84344996D01*
X161448223Y-84323223D01*
X161469996Y-84308674D01*
X161484206Y-84294465D01*
X161505010Y-84285278D01*
X161529329Y-84269030D01*
X161552043Y-84264511D01*
X161569591Y-84256764D01*
X161620952Y-84250805D01*
X161625000Y-84250000D01*
X162125000Y-84250000D01*
X162129047Y-84250805D01*
G37*
G36*
X164029047Y-84250805D02*
G01*
X164080408Y-84256764D01*
X164097954Y-84264511D01*
X164120671Y-84269030D01*
X164144991Y-84285280D01*
X164165793Y-84294465D01*
X164180000Y-84308672D01*
X164201777Y-84323223D01*
X164216327Y-84344999D01*
X164230534Y-84359206D01*
X164239718Y-84380006D01*
X164255970Y-84404329D01*
X164260489Y-84427048D01*
X164268235Y-84444591D01*
X164274192Y-84495940D01*
X164275000Y-84500000D01*
X164275000Y-85450000D01*
X164274192Y-85454059D01*
X164268235Y-85505408D01*
X164260489Y-85522950D01*
X164255970Y-85545671D01*
X164239716Y-85569995D01*
X164230534Y-85590793D01*
X164216329Y-85604997D01*
X164201777Y-85626777D01*
X164179997Y-85641329D01*
X164165793Y-85655534D01*
X164144995Y-85664716D01*
X164120671Y-85680970D01*
X164097950Y-85685489D01*
X164080408Y-85693235D01*
X164029061Y-85699192D01*
X164025000Y-85700000D01*
X163525000Y-85700000D01*
X163520941Y-85699192D01*
X163469591Y-85693235D01*
X163452048Y-85685489D01*
X163429329Y-85680970D01*
X163405006Y-85664718D01*
X163384206Y-85655534D01*
X163369999Y-85641327D01*
X163348223Y-85626777D01*
X163333672Y-85605000D01*
X163319465Y-85590793D01*
X163310280Y-85569991D01*
X163294030Y-85545671D01*
X163289511Y-85522954D01*
X163281764Y-85505408D01*
X163275805Y-85454049D01*
X163275000Y-85450000D01*
X163275000Y-84500000D01*
X163275804Y-84495953D01*
X163281764Y-84444591D01*
X163289511Y-84427043D01*
X163294030Y-84404329D01*
X163310278Y-84380010D01*
X163319465Y-84359206D01*
X163333674Y-84344996D01*
X163348223Y-84323223D01*
X163369996Y-84308674D01*
X163384206Y-84294465D01*
X163405010Y-84285278D01*
X163429329Y-84269030D01*
X163452043Y-84264511D01*
X163469591Y-84256764D01*
X163520952Y-84250805D01*
X163525000Y-84250000D01*
X164025000Y-84250000D01*
X164029047Y-84250805D01*
G37*
G36*
X159883576Y-84885657D02*
G01*
X159928995Y-84916005D01*
X159959343Y-84961424D01*
X159970000Y-85015000D01*
X159970000Y-85355000D01*
X159959343Y-85408576D01*
X159928995Y-85453995D01*
X159883576Y-85484343D01*
X159830000Y-85495000D01*
X159550000Y-85495000D01*
X159496424Y-85484343D01*
X159451005Y-85453995D01*
X159420657Y-85408576D01*
X159410000Y-85355000D01*
X159410000Y-85015000D01*
X159420657Y-84961424D01*
X159451005Y-84916005D01*
X159496424Y-84885657D01*
X159550000Y-84875000D01*
X159830000Y-84875000D01*
X159883576Y-84885657D01*
G37*
G36*
X160843576Y-84885657D02*
G01*
X160888995Y-84916005D01*
X160919343Y-84961424D01*
X160930000Y-85015000D01*
X160930000Y-85355000D01*
X160919343Y-85408576D01*
X160888995Y-85453995D01*
X160843576Y-85484343D01*
X160790000Y-85495000D01*
X160510000Y-85495000D01*
X160456424Y-85484343D01*
X160411005Y-85453995D01*
X160380657Y-85408576D01*
X160370000Y-85355000D01*
X160370000Y-85015000D01*
X160380657Y-84961424D01*
X160411005Y-84916005D01*
X160456424Y-84885657D01*
X160510000Y-84875000D01*
X160790000Y-84875000D01*
X160843576Y-84885657D01*
G37*
G36*
X181926662Y-84880276D02*
G01*
X181970459Y-84909541D01*
X181999724Y-84953338D01*
X182010000Y-85005000D01*
X182010000Y-85275000D01*
X181999724Y-85326662D01*
X181970459Y-85370459D01*
X181926662Y-85399724D01*
X181875000Y-85410000D01*
X181505000Y-85410000D01*
X181453338Y-85399724D01*
X181409541Y-85370459D01*
X181380276Y-85326662D01*
X181370000Y-85275000D01*
X181370000Y-85005000D01*
X181380276Y-84953338D01*
X181409541Y-84909541D01*
X181453338Y-84880276D01*
X181505000Y-84870000D01*
X181875000Y-84870000D01*
X181926662Y-84880276D01*
G37*
G36*
X182886662Y-84880276D02*
G01*
X182930459Y-84909541D01*
X182959724Y-84953338D01*
X182970000Y-85005000D01*
X182970000Y-85275000D01*
X182959724Y-85326662D01*
X182930459Y-85370459D01*
X182886662Y-85399724D01*
X182835000Y-85410000D01*
X182465000Y-85410000D01*
X182413338Y-85399724D01*
X182369541Y-85370459D01*
X182340276Y-85326662D01*
X182330000Y-85275000D01*
X182330000Y-85005000D01*
X182340276Y-84953338D01*
X182369541Y-84909541D01*
X182413338Y-84880276D01*
X182465000Y-84870000D01*
X182835000Y-84870000D01*
X182886662Y-84880276D01*
G37*
G36*
X173544047Y-83950805D02*
G01*
X173595408Y-83956764D01*
X173612954Y-83964511D01*
X173635671Y-83969030D01*
X173659991Y-83985280D01*
X173680793Y-83994465D01*
X173695000Y-84008672D01*
X173716777Y-84023223D01*
X173731327Y-84044999D01*
X173745534Y-84059206D01*
X173754718Y-84080006D01*
X173770970Y-84104329D01*
X173775489Y-84127048D01*
X173783235Y-84144591D01*
X173789192Y-84195940D01*
X173790000Y-84200000D01*
X173790000Y-85150000D01*
X173789192Y-85154059D01*
X173783235Y-85205408D01*
X173775489Y-85222950D01*
X173770970Y-85245671D01*
X173754716Y-85269995D01*
X173745534Y-85290793D01*
X173731329Y-85304997D01*
X173716777Y-85326777D01*
X173694997Y-85341329D01*
X173680793Y-85355534D01*
X173659995Y-85364716D01*
X173635671Y-85380970D01*
X173612950Y-85385489D01*
X173595408Y-85393235D01*
X173544061Y-85399192D01*
X173540000Y-85400000D01*
X173040000Y-85400000D01*
X173035941Y-85399192D01*
X172984591Y-85393235D01*
X172967048Y-85385489D01*
X172944329Y-85380970D01*
X172920006Y-85364718D01*
X172899206Y-85355534D01*
X172884999Y-85341327D01*
X172863223Y-85326777D01*
X172848672Y-85305000D01*
X172834465Y-85290793D01*
X172825280Y-85269991D01*
X172809030Y-85245671D01*
X172804511Y-85222954D01*
X172796764Y-85205408D01*
X172790805Y-85154049D01*
X172790000Y-85150000D01*
X172790000Y-84200000D01*
X172790804Y-84195953D01*
X172796764Y-84144591D01*
X172804511Y-84127043D01*
X172809030Y-84104329D01*
X172825278Y-84080010D01*
X172834465Y-84059206D01*
X172848674Y-84044996D01*
X172863223Y-84023223D01*
X172884996Y-84008674D01*
X172899206Y-83994465D01*
X172920010Y-83985278D01*
X172944329Y-83969030D01*
X172967043Y-83964511D01*
X172984591Y-83956764D01*
X173035952Y-83950805D01*
X173040000Y-83950000D01*
X173540000Y-83950000D01*
X173544047Y-83950805D01*
G37*
G36*
X175444047Y-83950805D02*
G01*
X175495408Y-83956764D01*
X175512954Y-83964511D01*
X175535671Y-83969030D01*
X175559991Y-83985280D01*
X175580793Y-83994465D01*
X175595000Y-84008672D01*
X175616777Y-84023223D01*
X175631327Y-84044999D01*
X175645534Y-84059206D01*
X175654718Y-84080006D01*
X175670970Y-84104329D01*
X175675489Y-84127048D01*
X175683235Y-84144591D01*
X175689192Y-84195940D01*
X175690000Y-84200000D01*
X175690000Y-85150000D01*
X175689192Y-85154059D01*
X175683235Y-85205408D01*
X175675489Y-85222950D01*
X175670970Y-85245671D01*
X175654716Y-85269995D01*
X175645534Y-85290793D01*
X175631329Y-85304997D01*
X175616777Y-85326777D01*
X175594997Y-85341329D01*
X175580793Y-85355534D01*
X175559995Y-85364716D01*
X175535671Y-85380970D01*
X175512950Y-85385489D01*
X175495408Y-85393235D01*
X175444061Y-85399192D01*
X175440000Y-85400000D01*
X174940000Y-85400000D01*
X174935941Y-85399192D01*
X174884591Y-85393235D01*
X174867048Y-85385489D01*
X174844329Y-85380970D01*
X174820006Y-85364718D01*
X174799206Y-85355534D01*
X174784999Y-85341327D01*
X174763223Y-85326777D01*
X174748672Y-85305000D01*
X174734465Y-85290793D01*
X174725280Y-85269991D01*
X174709030Y-85245671D01*
X174704511Y-85222954D01*
X174696764Y-85205408D01*
X174690805Y-85154049D01*
X174690000Y-85150000D01*
X174690000Y-84200000D01*
X174690804Y-84195953D01*
X174696764Y-84144591D01*
X174704511Y-84127043D01*
X174709030Y-84104329D01*
X174725278Y-84080010D01*
X174734465Y-84059206D01*
X174748674Y-84044996D01*
X174763223Y-84023223D01*
X174784996Y-84008674D01*
X174799206Y-83994465D01*
X174820010Y-83985278D01*
X174844329Y-83969030D01*
X174867043Y-83964511D01*
X174884591Y-83956764D01*
X174935952Y-83950805D01*
X174940000Y-83950000D01*
X175440000Y-83950000D01*
X175444047Y-83950805D01*
G37*
G36*
X176959047Y-83945805D02*
G01*
X177010408Y-83951764D01*
X177027954Y-83959511D01*
X177050671Y-83964030D01*
X177074991Y-83980280D01*
X177095793Y-83989465D01*
X177110000Y-84003672D01*
X177131777Y-84018223D01*
X177146327Y-84039999D01*
X177160534Y-84054206D01*
X177169718Y-84075006D01*
X177185970Y-84099329D01*
X177190489Y-84122048D01*
X177198235Y-84139591D01*
X177204192Y-84190940D01*
X177205000Y-84195000D01*
X177205000Y-85145000D01*
X177204192Y-85149059D01*
X177198235Y-85200408D01*
X177190489Y-85217950D01*
X177185970Y-85240671D01*
X177169716Y-85264995D01*
X177160534Y-85285793D01*
X177146329Y-85299997D01*
X177131777Y-85321777D01*
X177109997Y-85336329D01*
X177095793Y-85350534D01*
X177074995Y-85359716D01*
X177050671Y-85375970D01*
X177027950Y-85380489D01*
X177010408Y-85388235D01*
X176959061Y-85394192D01*
X176955000Y-85395000D01*
X176455000Y-85395000D01*
X176450941Y-85394192D01*
X176399591Y-85388235D01*
X176382048Y-85380489D01*
X176359329Y-85375970D01*
X176335006Y-85359718D01*
X176314206Y-85350534D01*
X176299999Y-85336327D01*
X176278223Y-85321777D01*
X176263672Y-85300000D01*
X176249465Y-85285793D01*
X176240280Y-85264991D01*
X176224030Y-85240671D01*
X176219511Y-85217954D01*
X176211764Y-85200408D01*
X176205805Y-85149049D01*
X176205000Y-85145000D01*
X176205000Y-84195000D01*
X176205804Y-84190953D01*
X176211764Y-84139591D01*
X176219511Y-84122043D01*
X176224030Y-84099329D01*
X176240278Y-84075010D01*
X176249465Y-84054206D01*
X176263674Y-84039996D01*
X176278223Y-84018223D01*
X176299996Y-84003674D01*
X176314206Y-83989465D01*
X176335010Y-83980278D01*
X176359329Y-83964030D01*
X176382043Y-83959511D01*
X176399591Y-83951764D01*
X176450952Y-83945805D01*
X176455000Y-83945000D01*
X176955000Y-83945000D01*
X176959047Y-83945805D01*
G37*
G36*
X178859047Y-83945805D02*
G01*
X178910408Y-83951764D01*
X178927954Y-83959511D01*
X178950671Y-83964030D01*
X178974991Y-83980280D01*
X178995793Y-83989465D01*
X179010000Y-84003672D01*
X179031777Y-84018223D01*
X179046327Y-84039999D01*
X179060534Y-84054206D01*
X179069718Y-84075006D01*
X179085970Y-84099329D01*
X179090489Y-84122048D01*
X179098235Y-84139591D01*
X179104192Y-84190940D01*
X179105000Y-84195000D01*
X179105000Y-85145000D01*
X179104192Y-85149059D01*
X179098235Y-85200408D01*
X179090489Y-85217950D01*
X179085970Y-85240671D01*
X179069716Y-85264995D01*
X179060534Y-85285793D01*
X179046329Y-85299997D01*
X179031777Y-85321777D01*
X179009997Y-85336329D01*
X178995793Y-85350534D01*
X178974995Y-85359716D01*
X178950671Y-85375970D01*
X178927950Y-85380489D01*
X178910408Y-85388235D01*
X178859061Y-85394192D01*
X178855000Y-85395000D01*
X178355000Y-85395000D01*
X178350941Y-85394192D01*
X178299591Y-85388235D01*
X178282048Y-85380489D01*
X178259329Y-85375970D01*
X178235006Y-85359718D01*
X178214206Y-85350534D01*
X178199999Y-85336327D01*
X178178223Y-85321777D01*
X178163672Y-85300000D01*
X178149465Y-85285793D01*
X178140280Y-85264991D01*
X178124030Y-85240671D01*
X178119511Y-85217954D01*
X178111764Y-85200408D01*
X178105805Y-85149049D01*
X178105000Y-85145000D01*
X178105000Y-84195000D01*
X178105804Y-84190953D01*
X178111764Y-84139591D01*
X178119511Y-84122043D01*
X178124030Y-84099329D01*
X178140278Y-84075010D01*
X178149465Y-84054206D01*
X178163674Y-84039996D01*
X178178223Y-84018223D01*
X178199996Y-84003674D01*
X178214206Y-83989465D01*
X178235010Y-83980278D01*
X178259329Y-83964030D01*
X178282043Y-83959511D01*
X178299591Y-83951764D01*
X178350952Y-83945805D01*
X178355000Y-83945000D01*
X178855000Y-83945000D01*
X178859047Y-83945805D01*
G37*
G36*
X167176462Y-84667778D02*
G01*
X167220259Y-84697043D01*
X167249524Y-84740840D01*
X167259800Y-84792502D01*
X167259800Y-85062502D01*
X167249524Y-85114164D01*
X167220259Y-85157961D01*
X167176462Y-85187226D01*
X167124800Y-85197502D01*
X166754800Y-85197502D01*
X166703138Y-85187226D01*
X166659341Y-85157961D01*
X166630076Y-85114164D01*
X166619800Y-85062502D01*
X166619800Y-84792502D01*
X166630076Y-84740840D01*
X166659341Y-84697043D01*
X166703138Y-84667778D01*
X166754800Y-84657502D01*
X167124800Y-84657502D01*
X167176462Y-84667778D01*
G37*
G36*
X168136462Y-84647778D02*
G01*
X168180259Y-84677043D01*
X168209524Y-84720840D01*
X168219800Y-84772502D01*
X168219800Y-85042502D01*
X168209524Y-85094164D01*
X168180259Y-85137961D01*
X168136462Y-85167226D01*
X168084800Y-85177502D01*
X167714800Y-85177502D01*
X167663138Y-85167226D01*
X167619341Y-85137961D01*
X167590076Y-85094164D01*
X167579800Y-85042502D01*
X167579800Y-84772502D01*
X167590076Y-84720840D01*
X167619341Y-84677043D01*
X167663138Y-84647778D01*
X167714800Y-84637502D01*
X168084800Y-84637502D01*
X168136462Y-84647778D01*
G37*
G36*
X179956662Y-84250276D02*
G01*
X180000459Y-84279541D01*
X180029724Y-84323338D01*
X180040000Y-84375000D01*
X180040000Y-84745000D01*
X180029724Y-84796662D01*
X180000459Y-84840459D01*
X179956662Y-84869724D01*
X179905000Y-84880000D01*
X179635000Y-84880000D01*
X179583338Y-84869724D01*
X179539541Y-84840459D01*
X179510276Y-84796662D01*
X179500000Y-84745000D01*
X179500000Y-84375000D01*
X179510276Y-84323338D01*
X179539541Y-84279541D01*
X179583338Y-84250276D01*
X179635000Y-84240000D01*
X179905000Y-84240000D01*
X179956662Y-84250276D01*
G37*
G36*
X180976662Y-84250276D02*
G01*
X181020459Y-84279541D01*
X181049724Y-84323338D01*
X181060000Y-84375000D01*
X181060000Y-84745000D01*
X181049724Y-84796662D01*
X181020459Y-84840459D01*
X180976662Y-84869724D01*
X180925000Y-84880000D01*
X180655000Y-84880000D01*
X180603338Y-84869724D01*
X180559541Y-84840459D01*
X180530276Y-84796662D01*
X180520000Y-84745000D01*
X180520000Y-84375000D01*
X180530276Y-84323338D01*
X180559541Y-84279541D01*
X180603338Y-84250276D01*
X180655000Y-84240000D01*
X180925000Y-84240000D01*
X180976662Y-84250276D01*
G37*
G36*
X165176462Y-84157778D02*
G01*
X165220259Y-84187043D01*
X165249524Y-84230840D01*
X165259800Y-84282502D01*
X165259800Y-84652502D01*
X165249524Y-84704164D01*
X165220259Y-84747961D01*
X165176462Y-84777226D01*
X165124800Y-84787502D01*
X164854800Y-84787502D01*
X164803138Y-84777226D01*
X164759341Y-84747961D01*
X164730076Y-84704164D01*
X164719800Y-84652502D01*
X164719800Y-84282502D01*
X164730076Y-84230840D01*
X164759341Y-84187043D01*
X164803138Y-84157778D01*
X164854800Y-84147502D01*
X165124800Y-84147502D01*
X165176462Y-84157778D01*
G37*
G36*
X166196462Y-84157778D02*
G01*
X166240259Y-84187043D01*
X166269524Y-84230840D01*
X166279800Y-84282502D01*
X166279800Y-84652502D01*
X166269524Y-84704164D01*
X166240259Y-84747961D01*
X166196462Y-84777226D01*
X166144800Y-84787502D01*
X165874800Y-84787502D01*
X165823138Y-84777226D01*
X165779341Y-84747961D01*
X165750076Y-84704164D01*
X165739800Y-84652502D01*
X165739800Y-84282502D01*
X165750076Y-84230840D01*
X165779341Y-84187043D01*
X165823138Y-84157778D01*
X165874800Y-84147502D01*
X166144800Y-84147502D01*
X166196462Y-84157778D01*
G37*
G36*
X181926662Y-83860276D02*
G01*
X181970459Y-83889541D01*
X181999724Y-83933338D01*
X182010000Y-83985000D01*
X182010000Y-84255000D01*
X181999724Y-84306662D01*
X181970459Y-84350459D01*
X181926662Y-84379724D01*
X181875000Y-84390000D01*
X181505000Y-84390000D01*
X181453338Y-84379724D01*
X181409541Y-84350459D01*
X181380276Y-84306662D01*
X181370000Y-84255000D01*
X181370000Y-83985000D01*
X181380276Y-83933338D01*
X181409541Y-83889541D01*
X181453338Y-83860276D01*
X181505000Y-83850000D01*
X181875000Y-83850000D01*
X181926662Y-83860276D01*
G37*
G36*
X182886662Y-83860276D02*
G01*
X182930459Y-83889541D01*
X182959724Y-83933338D01*
X182970000Y-83985000D01*
X182970000Y-84255000D01*
X182959724Y-84306662D01*
X182930459Y-84350459D01*
X182886662Y-84379724D01*
X182835000Y-84390000D01*
X182465000Y-84390000D01*
X182413338Y-84379724D01*
X182369541Y-84350459D01*
X182340276Y-84306662D01*
X182330000Y-84255000D01*
X182330000Y-83985000D01*
X182340276Y-83933338D01*
X182369541Y-83889541D01*
X182413338Y-83860276D01*
X182465000Y-83850000D01*
X182835000Y-83850000D01*
X182886662Y-83860276D01*
G37*
G36*
X167176462Y-83647778D02*
G01*
X167220259Y-83677043D01*
X167249524Y-83720840D01*
X167259800Y-83772502D01*
X167259800Y-84042502D01*
X167249524Y-84094164D01*
X167220259Y-84137961D01*
X167176462Y-84167226D01*
X167124800Y-84177502D01*
X166754800Y-84177502D01*
X166703138Y-84167226D01*
X166659341Y-84137961D01*
X166630076Y-84094164D01*
X166619800Y-84042502D01*
X166619800Y-83772502D01*
X166630076Y-83720840D01*
X166659341Y-83677043D01*
X166703138Y-83647778D01*
X166754800Y-83637502D01*
X167124800Y-83637502D01*
X167176462Y-83647778D01*
G37*
G36*
X168136462Y-83627778D02*
G01*
X168180259Y-83657043D01*
X168209524Y-83700840D01*
X168219800Y-83752502D01*
X168219800Y-84022502D01*
X168209524Y-84074164D01*
X168180259Y-84117961D01*
X168136462Y-84147226D01*
X168084800Y-84157502D01*
X167714800Y-84157502D01*
X167663138Y-84147226D01*
X167619341Y-84117961D01*
X167590076Y-84074164D01*
X167579800Y-84022502D01*
X167579800Y-83752502D01*
X167590076Y-83700840D01*
X167619341Y-83657043D01*
X167663138Y-83627778D01*
X167714800Y-83617502D01*
X168084800Y-83617502D01*
X168136462Y-83627778D01*
G37*
G36*
X162003848Y-79650805D02*
G01*
X162055210Y-79656764D01*
X162072758Y-79664512D01*
X162095471Y-79669030D01*
X162119783Y-79685275D01*
X162140593Y-79694463D01*
X162154806Y-79708676D01*
X162176577Y-79723223D01*
X162191123Y-79744993D01*
X162205336Y-79759206D01*
X162214523Y-79780013D01*
X162230770Y-79804329D01*
X162235287Y-79827042D01*
X162243035Y-79844589D01*
X162248996Y-79895965D01*
X162249799Y-79900000D01*
X162249799Y-79902881D01*
X162249800Y-79902890D01*
X162249800Y-81720077D01*
X162249800Y-83500001D01*
X162248994Y-83504050D01*
X162243035Y-83555410D01*
X162235288Y-83572954D01*
X162230770Y-83595671D01*
X162214522Y-83619987D01*
X162205336Y-83640793D01*
X162191125Y-83655003D01*
X162176577Y-83676777D01*
X162154803Y-83691325D01*
X162140593Y-83705536D01*
X162119787Y-83714722D01*
X162095471Y-83730970D01*
X162072755Y-83735488D01*
X162055210Y-83743235D01*
X162003836Y-83749196D01*
X161999800Y-83749999D01*
X161996917Y-83749999D01*
X161996909Y-83750000D01*
X161102691Y-83750000D01*
X161102690Y-83749999D01*
X161099799Y-83750000D01*
X161095750Y-83749194D01*
X161044389Y-83743235D01*
X161026843Y-83735488D01*
X161004129Y-83730970D01*
X160979813Y-83714723D01*
X160959006Y-83705536D01*
X160944793Y-83691323D01*
X160923023Y-83676777D01*
X160908476Y-83655006D01*
X160894263Y-83640793D01*
X160885075Y-83619983D01*
X160868830Y-83595671D01*
X160864312Y-83572959D01*
X160856564Y-83555410D01*
X160850603Y-83504034D01*
X160849801Y-83500000D01*
X160849800Y-83497117D01*
X160849800Y-83497109D01*
X160849800Y-79902890D01*
X160849800Y-79902889D01*
X160849800Y-79899999D01*
X160850604Y-79895952D01*
X160856564Y-79844589D01*
X160864312Y-79827039D01*
X160868830Y-79804329D01*
X160885073Y-79780018D01*
X160894263Y-79759206D01*
X160908478Y-79744990D01*
X160923023Y-79723223D01*
X160944790Y-79708678D01*
X160959006Y-79694463D01*
X160979818Y-79685273D01*
X161004129Y-79669030D01*
X161026838Y-79664513D01*
X161044389Y-79656764D01*
X161095765Y-79650803D01*
X161099800Y-79650001D01*
X161102682Y-79650000D01*
X161102691Y-79650000D01*
X161996909Y-79650000D01*
X161999801Y-79650000D01*
X162003848Y-79650805D01*
G37*
G36*
X164703848Y-79650805D02*
G01*
X164755210Y-79656764D01*
X164772758Y-79664512D01*
X164795471Y-79669030D01*
X164819783Y-79685275D01*
X164840593Y-79694463D01*
X164854806Y-79708676D01*
X164876577Y-79723223D01*
X164891123Y-79744993D01*
X164905336Y-79759206D01*
X164914523Y-79780013D01*
X164930770Y-79804329D01*
X164935287Y-79827042D01*
X164943035Y-79844589D01*
X164948996Y-79895965D01*
X164949799Y-79900000D01*
X164949799Y-79902881D01*
X164949800Y-79902890D01*
X164949800Y-81720077D01*
X164949800Y-83500001D01*
X164948994Y-83504050D01*
X164943035Y-83555410D01*
X164935288Y-83572954D01*
X164930770Y-83595671D01*
X164914522Y-83619987D01*
X164905336Y-83640793D01*
X164891125Y-83655003D01*
X164876577Y-83676777D01*
X164854803Y-83691325D01*
X164840593Y-83705536D01*
X164819787Y-83714722D01*
X164795471Y-83730970D01*
X164772755Y-83735488D01*
X164755210Y-83743235D01*
X164703836Y-83749196D01*
X164699800Y-83749999D01*
X164696917Y-83749999D01*
X164696909Y-83750000D01*
X163802691Y-83750000D01*
X163802690Y-83749999D01*
X163799799Y-83750000D01*
X163795750Y-83749194D01*
X163744389Y-83743235D01*
X163726843Y-83735488D01*
X163704129Y-83730970D01*
X163679813Y-83714723D01*
X163659006Y-83705536D01*
X163644793Y-83691323D01*
X163623023Y-83676777D01*
X163608476Y-83655006D01*
X163594263Y-83640793D01*
X163585075Y-83619983D01*
X163568830Y-83595671D01*
X163564312Y-83572959D01*
X163556564Y-83555410D01*
X163550603Y-83504034D01*
X163549801Y-83500000D01*
X163549800Y-83497117D01*
X163549800Y-83497109D01*
X163549800Y-79902890D01*
X163549800Y-79902889D01*
X163549800Y-79899999D01*
X163550604Y-79895952D01*
X163556564Y-79844589D01*
X163564312Y-79827039D01*
X163568830Y-79804329D01*
X163585073Y-79780018D01*
X163594263Y-79759206D01*
X163608478Y-79744990D01*
X163623023Y-79723223D01*
X163644790Y-79708678D01*
X163659006Y-79694463D01*
X163679818Y-79685273D01*
X163704129Y-79669030D01*
X163726838Y-79664513D01*
X163744389Y-79656764D01*
X163795765Y-79650803D01*
X163799800Y-79650001D01*
X163802682Y-79650000D01*
X163802691Y-79650000D01*
X164696909Y-79650000D01*
X164699801Y-79650000D01*
X164703848Y-79650805D01*
G37*
G36*
X173303576Y-82915657D02*
G01*
X173348995Y-82946005D01*
X173379343Y-82991424D01*
X173390000Y-83045000D01*
X173390000Y-83385000D01*
X173379343Y-83438576D01*
X173348995Y-83483995D01*
X173303576Y-83514343D01*
X173250000Y-83525000D01*
X172970000Y-83525000D01*
X172916424Y-83514343D01*
X172871005Y-83483995D01*
X172840657Y-83438576D01*
X172830000Y-83385000D01*
X172830000Y-83045000D01*
X172840657Y-82991424D01*
X172871005Y-82946005D01*
X172916424Y-82915657D01*
X172970000Y-82905000D01*
X173250000Y-82905000D01*
X173303576Y-82915657D01*
G37*
G36*
X174263576Y-82915657D02*
G01*
X174308995Y-82946005D01*
X174339343Y-82991424D01*
X174350000Y-83045000D01*
X174350000Y-83385000D01*
X174339343Y-83438576D01*
X174308995Y-83483995D01*
X174263576Y-83514343D01*
X174210000Y-83525000D01*
X173930000Y-83525000D01*
X173876424Y-83514343D01*
X173831005Y-83483995D01*
X173800657Y-83438576D01*
X173790000Y-83385000D01*
X173790000Y-83045000D01*
X173800657Y-82991424D01*
X173831005Y-82946005D01*
X173876424Y-82915657D01*
X173930000Y-82905000D01*
X174210000Y-82905000D01*
X174263576Y-82915657D01*
G37*
G36*
X175964048Y-79340805D02*
G01*
X176015410Y-79346764D01*
X176032958Y-79354512D01*
X176055671Y-79359030D01*
X176079983Y-79375275D01*
X176100793Y-79384463D01*
X176115006Y-79398676D01*
X176136777Y-79413223D01*
X176151323Y-79434993D01*
X176165536Y-79449206D01*
X176174723Y-79470013D01*
X176190970Y-79494329D01*
X176195487Y-79517042D01*
X176203235Y-79534589D01*
X176209196Y-79585965D01*
X176209999Y-79590000D01*
X176209999Y-79592881D01*
X176210000Y-79592890D01*
X176210000Y-81391005D01*
X176210000Y-83190001D01*
X176209194Y-83194050D01*
X176203235Y-83245410D01*
X176195488Y-83262954D01*
X176190970Y-83285671D01*
X176174722Y-83309987D01*
X176165536Y-83330793D01*
X176151325Y-83345003D01*
X176136777Y-83366777D01*
X176115003Y-83381325D01*
X176100793Y-83395536D01*
X176079987Y-83404722D01*
X176055671Y-83420970D01*
X176032955Y-83425488D01*
X176015410Y-83433235D01*
X175964036Y-83439196D01*
X175960000Y-83439999D01*
X175957117Y-83439999D01*
X175957109Y-83440000D01*
X175062891Y-83440000D01*
X175062890Y-83439999D01*
X175059999Y-83440000D01*
X175055950Y-83439194D01*
X175004589Y-83433235D01*
X174987043Y-83425488D01*
X174964329Y-83420970D01*
X174940013Y-83404723D01*
X174919206Y-83395536D01*
X174904993Y-83381323D01*
X174883223Y-83366777D01*
X174868676Y-83345006D01*
X174854463Y-83330793D01*
X174845275Y-83309983D01*
X174829030Y-83285671D01*
X174824512Y-83262959D01*
X174816764Y-83245410D01*
X174810803Y-83194034D01*
X174810001Y-83190000D01*
X174810000Y-83187117D01*
X174810000Y-83187109D01*
X174810000Y-79592890D01*
X174810000Y-79592889D01*
X174810000Y-79589999D01*
X174810804Y-79585952D01*
X174816764Y-79534589D01*
X174824512Y-79517039D01*
X174829030Y-79494329D01*
X174845273Y-79470018D01*
X174854463Y-79449206D01*
X174868678Y-79434990D01*
X174883223Y-79413223D01*
X174904990Y-79398678D01*
X174919206Y-79384463D01*
X174940018Y-79375273D01*
X174964329Y-79359030D01*
X174987038Y-79354513D01*
X175004589Y-79346764D01*
X175055965Y-79340803D01*
X175060000Y-79340001D01*
X175062882Y-79340000D01*
X175062891Y-79340000D01*
X175957109Y-79340000D01*
X175960001Y-79340000D01*
X175964048Y-79340805D01*
G37*
G36*
X178664048Y-79340805D02*
G01*
X178715410Y-79346764D01*
X178732958Y-79354512D01*
X178755671Y-79359030D01*
X178779983Y-79375275D01*
X178800793Y-79384463D01*
X178815006Y-79398676D01*
X178836777Y-79413223D01*
X178851323Y-79434993D01*
X178865536Y-79449206D01*
X178874723Y-79470013D01*
X178890970Y-79494329D01*
X178895487Y-79517042D01*
X178903235Y-79534589D01*
X178909196Y-79585965D01*
X178909999Y-79590000D01*
X178909999Y-79592881D01*
X178910000Y-79592890D01*
X178910000Y-81391005D01*
X178910000Y-83190001D01*
X178909194Y-83194050D01*
X178903235Y-83245410D01*
X178895488Y-83262954D01*
X178890970Y-83285671D01*
X178874722Y-83309987D01*
X178865536Y-83330793D01*
X178851325Y-83345003D01*
X178836777Y-83366777D01*
X178815003Y-83381325D01*
X178800793Y-83395536D01*
X178779987Y-83404722D01*
X178755671Y-83420970D01*
X178732955Y-83425488D01*
X178715410Y-83433235D01*
X178664036Y-83439196D01*
X178660000Y-83439999D01*
X178657117Y-83439999D01*
X178657109Y-83440000D01*
X177762891Y-83440000D01*
X177762890Y-83439999D01*
X177759999Y-83440000D01*
X177755950Y-83439194D01*
X177704589Y-83433235D01*
X177687043Y-83425488D01*
X177664329Y-83420970D01*
X177640013Y-83404723D01*
X177619206Y-83395536D01*
X177604993Y-83381323D01*
X177583223Y-83366777D01*
X177568676Y-83345006D01*
X177554463Y-83330793D01*
X177545275Y-83309983D01*
X177529030Y-83285671D01*
X177524512Y-83262959D01*
X177516764Y-83245410D01*
X177510803Y-83194034D01*
X177510001Y-83190000D01*
X177510000Y-83187117D01*
X177510000Y-83187109D01*
X177510000Y-79592890D01*
X177510000Y-79592889D01*
X177510000Y-79589999D01*
X177510804Y-79585952D01*
X177516764Y-79534589D01*
X177524512Y-79517039D01*
X177529030Y-79494329D01*
X177545273Y-79470018D01*
X177554463Y-79449206D01*
X177568678Y-79434990D01*
X177583223Y-79413223D01*
X177604990Y-79398678D01*
X177619206Y-79384463D01*
X177640018Y-79375273D01*
X177664329Y-79359030D01*
X177687038Y-79354513D01*
X177704589Y-79346764D01*
X177755965Y-79340803D01*
X177760000Y-79340001D01*
X177762882Y-79340000D01*
X177762891Y-79340000D01*
X178657109Y-79340000D01*
X178660001Y-79340000D01*
X178664048Y-79340805D01*
G37*
G36*
X168726662Y-82315277D02*
G01*
X168770459Y-82344542D01*
X168799724Y-82388339D01*
X168810000Y-82440001D01*
X168810000Y-82710001D01*
X168799724Y-82761663D01*
X168770459Y-82805460D01*
X168726662Y-82834725D01*
X168675000Y-82845001D01*
X168305000Y-82845001D01*
X168253338Y-82834725D01*
X168209541Y-82805460D01*
X168180276Y-82761663D01*
X168170000Y-82710001D01*
X168170000Y-82440001D01*
X168180276Y-82388339D01*
X168209541Y-82344542D01*
X168253338Y-82315277D01*
X168305000Y-82305001D01*
X168675000Y-82305001D01*
X168726662Y-82315277D01*
G37*
G36*
X167763576Y-82275658D02*
G01*
X167808995Y-82306006D01*
X167839343Y-82351425D01*
X167850000Y-82405001D01*
X167850000Y-82685001D01*
X167839343Y-82738577D01*
X167808995Y-82783996D01*
X167763576Y-82814344D01*
X167710000Y-82825001D01*
X167370000Y-82825001D01*
X167316424Y-82814344D01*
X167271005Y-82783996D01*
X167240657Y-82738577D01*
X167230000Y-82685001D01*
X167230000Y-82405001D01*
X167240657Y-82351425D01*
X167271005Y-82306006D01*
X167316424Y-82275658D01*
X167370000Y-82265001D01*
X167710000Y-82265001D01*
X167763576Y-82275658D01*
G37*
G36*
X160060103Y-82181418D02*
G01*
X160108766Y-82213934D01*
X160141282Y-82262597D01*
X160152700Y-82320000D01*
X160152700Y-82620000D01*
X160141282Y-82677403D01*
X160108766Y-82726066D01*
X160060103Y-82758582D01*
X160002700Y-82770000D01*
X158827700Y-82770000D01*
X158770297Y-82758582D01*
X158721634Y-82726066D01*
X158689118Y-82677403D01*
X158677700Y-82620000D01*
X158677700Y-82320000D01*
X158689118Y-82262597D01*
X158721634Y-82213934D01*
X158770297Y-82181418D01*
X158827700Y-82170000D01*
X160002700Y-82170000D01*
X160060103Y-82181418D01*
G37*
G36*
X182769162Y-82185277D02*
G01*
X182812959Y-82214542D01*
X182842224Y-82258339D01*
X182852500Y-82310001D01*
X182852500Y-82580001D01*
X182842224Y-82631663D01*
X182812959Y-82675460D01*
X182769162Y-82704725D01*
X182717500Y-82715001D01*
X182347500Y-82715001D01*
X182295838Y-82704725D01*
X182252041Y-82675460D01*
X182222776Y-82631663D01*
X182212500Y-82580001D01*
X182212500Y-82310001D01*
X182222776Y-82258339D01*
X182252041Y-82214542D01*
X182295838Y-82185277D01*
X182347500Y-82175001D01*
X182717500Y-82175001D01*
X182769162Y-82185277D01*
G37*
G36*
X181806076Y-82145658D02*
G01*
X181851495Y-82176006D01*
X181881843Y-82221425D01*
X181892500Y-82275001D01*
X181892500Y-82555001D01*
X181881843Y-82608577D01*
X181851495Y-82653996D01*
X181806076Y-82684344D01*
X181752500Y-82695001D01*
X181412500Y-82695001D01*
X181358924Y-82684344D01*
X181313505Y-82653996D01*
X181283157Y-82608577D01*
X181272500Y-82555001D01*
X181272500Y-82275001D01*
X181283157Y-82221425D01*
X181313505Y-82176006D01*
X181358924Y-82145658D01*
X181412500Y-82135001D01*
X181752500Y-82135001D01*
X181806076Y-82145658D01*
G37*
G36*
X172458576Y-81360657D02*
G01*
X172503995Y-81391005D01*
X172534343Y-81436424D01*
X172545000Y-81490000D01*
X172545000Y-81830000D01*
X172534343Y-81883576D01*
X172503995Y-81928995D01*
X172458576Y-81959343D01*
X172405000Y-81970000D01*
X172125000Y-81970000D01*
X172071424Y-81959343D01*
X172026005Y-81928995D01*
X171995657Y-81883576D01*
X171985000Y-81830000D01*
X171985000Y-81490000D01*
X171995657Y-81436424D01*
X172026005Y-81391005D01*
X172071424Y-81360657D01*
X172125000Y-81350000D01*
X172405000Y-81350000D01*
X172458576Y-81360657D01*
G37*
G36*
X173418576Y-81360657D02*
G01*
X173463995Y-81391005D01*
X173494343Y-81436424D01*
X173505000Y-81490000D01*
X173505000Y-81830000D01*
X173494343Y-81883576D01*
X173463995Y-81928995D01*
X173418576Y-81959343D01*
X173365000Y-81970000D01*
X173085000Y-81970000D01*
X173031424Y-81959343D01*
X172986005Y-81928995D01*
X172955657Y-81883576D01*
X172945000Y-81830000D01*
X172945000Y-81490000D01*
X172955657Y-81436424D01*
X172986005Y-81391005D01*
X173031424Y-81360657D01*
X173085000Y-81350000D01*
X173365000Y-81350000D01*
X173418576Y-81360657D01*
G37*
G36*
X167763576Y-81315658D02*
G01*
X167808995Y-81346006D01*
X167839343Y-81391425D01*
X167850000Y-81445001D01*
X167850000Y-81725001D01*
X167839343Y-81778577D01*
X167808995Y-81823996D01*
X167763576Y-81854344D01*
X167710000Y-81865001D01*
X167370000Y-81865001D01*
X167316424Y-81854344D01*
X167271005Y-81823996D01*
X167240657Y-81778577D01*
X167230000Y-81725001D01*
X167230000Y-81445001D01*
X167240657Y-81391425D01*
X167271005Y-81346006D01*
X167316424Y-81315658D01*
X167370000Y-81305001D01*
X167710000Y-81305001D01*
X167763576Y-81315658D01*
G37*
G36*
X168726662Y-81295277D02*
G01*
X168770459Y-81324542D01*
X168799724Y-81368339D01*
X168810000Y-81420001D01*
X168810000Y-81690001D01*
X168799724Y-81741663D01*
X168770459Y-81785460D01*
X168726662Y-81814725D01*
X168675000Y-81825001D01*
X168305000Y-81825001D01*
X168253338Y-81814725D01*
X168209541Y-81785460D01*
X168180276Y-81741663D01*
X168170000Y-81690001D01*
X168170000Y-81420001D01*
X168180276Y-81368339D01*
X168209541Y-81324542D01*
X168253338Y-81295277D01*
X168305000Y-81285001D01*
X168675000Y-81285001D01*
X168726662Y-81295277D01*
G37*
G36*
X158185103Y-81231418D02*
G01*
X158233766Y-81263934D01*
X158266282Y-81312597D01*
X158277700Y-81370000D01*
X158277700Y-81670000D01*
X158266282Y-81727403D01*
X158233766Y-81776066D01*
X158185103Y-81808582D01*
X158127700Y-81820000D01*
X156952700Y-81820000D01*
X156895297Y-81808582D01*
X156846634Y-81776066D01*
X156814118Y-81727403D01*
X156802700Y-81670000D01*
X156802700Y-81370000D01*
X156814118Y-81312597D01*
X156846634Y-81263934D01*
X156895297Y-81231418D01*
X156952700Y-81220000D01*
X158127700Y-81220000D01*
X158185103Y-81231418D01*
G37*
G36*
X181806076Y-81185658D02*
G01*
X181851495Y-81216006D01*
X181881843Y-81261425D01*
X181892500Y-81315001D01*
X181892500Y-81595001D01*
X181881843Y-81648577D01*
X181851495Y-81693996D01*
X181806076Y-81724344D01*
X181752500Y-81735001D01*
X181412500Y-81735001D01*
X181358924Y-81724344D01*
X181313505Y-81693996D01*
X181283157Y-81648577D01*
X181272500Y-81595001D01*
X181272500Y-81315001D01*
X181283157Y-81261425D01*
X181313505Y-81216006D01*
X181358924Y-81185658D01*
X181412500Y-81175001D01*
X181752500Y-81175001D01*
X181806076Y-81185658D01*
G37*
G36*
X182769162Y-81165277D02*
G01*
X182812959Y-81194542D01*
X182842224Y-81238339D01*
X182852500Y-81290001D01*
X182852500Y-81560001D01*
X182842224Y-81611663D01*
X182812959Y-81655460D01*
X182769162Y-81684725D01*
X182717500Y-81695001D01*
X182347500Y-81695001D01*
X182295838Y-81684725D01*
X182252041Y-81655460D01*
X182222776Y-81611663D01*
X182212500Y-81560001D01*
X182212500Y-81290001D01*
X182222776Y-81238339D01*
X182252041Y-81194542D01*
X182295838Y-81165277D01*
X182347500Y-81155001D01*
X182717500Y-81155001D01*
X182769162Y-81165277D01*
G37*
G36*
X190275000Y-81400000D02*
G01*
X188475000Y-81400000D01*
X188475000Y-80200000D01*
X190275000Y-80200000D01*
X190275000Y-81400000D01*
G37*
G36*
X152025000Y-81100000D02*
G01*
X150225000Y-81100000D01*
X150225000Y-79900000D01*
X152025000Y-79900000D01*
X152025000Y-81100000D01*
G37*
G36*
X172532071Y-79652929D02*
G01*
X172535000Y-79660000D01*
X172535000Y-79669944D01*
X172535000Y-79905151D01*
X172596730Y-79930721D01*
X172655897Y-79871554D01*
X172655898Y-79871553D01*
X172662929Y-79864523D01*
X172670000Y-79861594D01*
X172677071Y-79864523D01*
X172684102Y-79871554D01*
X172743270Y-79930721D01*
X172805000Y-79905151D01*
X172805000Y-79669944D01*
X172805000Y-79660000D01*
X172807929Y-79652929D01*
X172815000Y-79650000D01*
X173175000Y-79650000D01*
X173182071Y-79652929D01*
X173185000Y-79660000D01*
X173185000Y-80150000D01*
X173182071Y-80157071D01*
X173175000Y-80160000D01*
X173165056Y-80160000D01*
X173059849Y-80160000D01*
X173034279Y-80221730D01*
X173082548Y-80270000D01*
X173115477Y-80302929D01*
X173118406Y-80310000D01*
X173115477Y-80317071D01*
X173071362Y-80361186D01*
X173034279Y-80398270D01*
X173059849Y-80460000D01*
X173175000Y-80460000D01*
X173182071Y-80462929D01*
X173185000Y-80470000D01*
X173185000Y-80960000D01*
X173182071Y-80967071D01*
X173175000Y-80970000D01*
X173165056Y-80970000D01*
X172824944Y-80970000D01*
X172815000Y-80970000D01*
X172807929Y-80967071D01*
X172805000Y-80960000D01*
X172805000Y-80714849D01*
X172743270Y-80689279D01*
X172717699Y-80714849D01*
X172677071Y-80755477D01*
X172670000Y-80758406D01*
X172662929Y-80755477D01*
X172627452Y-80720000D01*
X172596730Y-80689279D01*
X172535000Y-80714849D01*
X172535000Y-80960000D01*
X172532071Y-80967071D01*
X172525000Y-80970000D01*
X172515056Y-80970000D01*
X172174944Y-80970000D01*
X172165000Y-80970000D01*
X172157929Y-80967071D01*
X172155000Y-80960000D01*
X172155000Y-80470000D01*
X172157929Y-80462929D01*
X172165000Y-80460000D01*
X172280151Y-80460000D01*
X172305721Y-80398270D01*
X172231554Y-80324102D01*
X172224523Y-80317071D01*
X172221594Y-80310000D01*
X172224523Y-80302929D01*
X172231553Y-80295898D01*
X172231554Y-80295897D01*
X172305721Y-80221730D01*
X172280151Y-80160000D01*
X172174944Y-80160000D01*
X172165000Y-80160000D01*
X172157929Y-80157071D01*
X172155000Y-80150000D01*
X172155000Y-79660000D01*
X172157929Y-79652929D01*
X172165000Y-79650000D01*
X172525000Y-79650000D01*
X172532071Y-79652929D01*
G37*
G36*
X160060103Y-80281418D02*
G01*
X160108766Y-80313934D01*
X160141282Y-80362597D01*
X160152700Y-80420000D01*
X160152700Y-80720000D01*
X160141282Y-80777403D01*
X160108766Y-80826066D01*
X160060103Y-80858582D01*
X160002700Y-80870000D01*
X158827700Y-80870000D01*
X158770297Y-80858582D01*
X158721634Y-80826066D01*
X158689118Y-80777403D01*
X158677700Y-80720000D01*
X158677700Y-80420000D01*
X158689118Y-80362597D01*
X158721634Y-80313934D01*
X158770297Y-80281418D01*
X158827700Y-80270000D01*
X160002700Y-80270000D01*
X160060103Y-80281418D01*
G37*
G36*
X166565000Y-80315000D02*
G01*
X165515000Y-80315000D01*
X165515000Y-79965000D01*
X166565000Y-79965000D01*
X166565000Y-80315000D01*
G37*
G36*
X168865000Y-80315000D02*
G01*
X167815000Y-80315000D01*
X167815000Y-79965000D01*
X168865000Y-79965000D01*
X168865000Y-80315000D01*
G37*
G36*
X180535000Y-80185000D02*
G01*
X179485000Y-80185000D01*
X179485000Y-79835000D01*
X180535000Y-79835000D01*
X180535000Y-80185000D01*
G37*
G36*
X182835000Y-80185000D02*
G01*
X181785000Y-80185000D01*
X181785000Y-79835000D01*
X182835000Y-79835000D01*
X182835000Y-80185000D01*
G37*
G36*
X186275000Y-79800000D02*
G01*
X184725000Y-79800000D01*
X184725000Y-79200000D01*
X186275000Y-79200000D01*
X186275000Y-79800000D01*
G37*
G36*
X166565000Y-79665002D02*
G01*
X165515000Y-79665002D01*
X165515000Y-79315002D01*
X166565000Y-79315002D01*
X166565000Y-79665002D01*
G37*
G36*
X168865000Y-79665002D02*
G01*
X167815000Y-79665002D01*
X167815000Y-79315002D01*
X168865000Y-79315002D01*
X168865000Y-79665002D01*
G37*
G36*
X180535000Y-79535002D02*
G01*
X179485000Y-79535002D01*
X179485000Y-79185002D01*
X180535000Y-79185002D01*
X180535000Y-79535002D01*
G37*
G36*
X182835000Y-79535002D02*
G01*
X181785000Y-79535002D01*
X181785000Y-79185002D01*
X182835000Y-79185002D01*
X182835000Y-79535002D01*
G37*
G36*
X155775000Y-79500000D02*
G01*
X154225000Y-79500000D01*
X154225000Y-78900000D01*
X155775000Y-78900000D01*
X155775000Y-79500000D01*
G37*
G36*
X172358576Y-78660657D02*
G01*
X172403995Y-78691005D01*
X172434343Y-78736424D01*
X172445000Y-78790000D01*
X172445000Y-79130000D01*
X172434343Y-79183576D01*
X172403995Y-79228995D01*
X172358576Y-79259343D01*
X172305000Y-79270000D01*
X172025000Y-79270000D01*
X171971424Y-79259343D01*
X171926005Y-79228995D01*
X171895657Y-79183576D01*
X171885000Y-79130000D01*
X171885000Y-78790000D01*
X171895657Y-78736424D01*
X171926005Y-78691005D01*
X171971424Y-78660657D01*
X172025000Y-78650000D01*
X172305000Y-78650000D01*
X172358576Y-78660657D01*
G37*
G36*
X173318576Y-78660657D02*
G01*
X173363995Y-78691005D01*
X173394343Y-78736424D01*
X173405000Y-78790000D01*
X173405000Y-79130000D01*
X173394343Y-79183576D01*
X173363995Y-79228995D01*
X173318576Y-79259343D01*
X173265000Y-79270000D01*
X172985000Y-79270000D01*
X172931424Y-79259343D01*
X172886005Y-79228995D01*
X172855657Y-79183576D01*
X172845000Y-79130000D01*
X172845000Y-78790000D01*
X172855657Y-78736424D01*
X172886005Y-78691005D01*
X172931424Y-78660657D01*
X172985000Y-78650000D01*
X173265000Y-78650000D01*
X173318576Y-78660657D01*
G37*
G36*
X161379047Y-78100805D02*
G01*
X161430408Y-78106764D01*
X161447954Y-78114511D01*
X161470671Y-78119030D01*
X161494991Y-78135280D01*
X161515793Y-78144465D01*
X161530000Y-78158672D01*
X161551777Y-78173223D01*
X161566327Y-78194999D01*
X161580534Y-78209206D01*
X161589718Y-78230006D01*
X161605970Y-78254329D01*
X161610489Y-78277048D01*
X161618235Y-78294591D01*
X161624192Y-78345940D01*
X161625000Y-78350000D01*
X161625000Y-78850000D01*
X161624192Y-78854059D01*
X161618235Y-78905408D01*
X161610489Y-78922950D01*
X161605970Y-78945671D01*
X161589716Y-78969995D01*
X161580534Y-78990793D01*
X161566329Y-79004997D01*
X161551777Y-79026777D01*
X161529997Y-79041329D01*
X161515793Y-79055534D01*
X161494995Y-79064716D01*
X161470671Y-79080970D01*
X161447950Y-79085489D01*
X161430408Y-79093235D01*
X161379061Y-79099192D01*
X161375000Y-79100000D01*
X160425000Y-79100000D01*
X160420941Y-79099192D01*
X160369591Y-79093235D01*
X160352048Y-79085489D01*
X160329329Y-79080970D01*
X160305006Y-79064718D01*
X160284206Y-79055534D01*
X160269999Y-79041327D01*
X160248223Y-79026777D01*
X160233672Y-79005000D01*
X160219465Y-78990793D01*
X160210280Y-78969991D01*
X160194030Y-78945671D01*
X160189511Y-78922954D01*
X160181764Y-78905408D01*
X160175805Y-78854049D01*
X160175000Y-78850000D01*
X160175000Y-78350000D01*
X160175804Y-78345953D01*
X160181764Y-78294591D01*
X160189511Y-78277043D01*
X160194030Y-78254329D01*
X160210278Y-78230010D01*
X160219465Y-78209206D01*
X160233674Y-78194996D01*
X160248223Y-78173223D01*
X160269996Y-78158674D01*
X160284206Y-78144465D01*
X160305010Y-78135278D01*
X160329329Y-78119030D01*
X160352043Y-78114511D01*
X160369591Y-78106764D01*
X160420952Y-78100805D01*
X160425000Y-78100000D01*
X161375000Y-78100000D01*
X161379047Y-78100805D01*
G37*
G36*
X163404047Y-78100805D02*
G01*
X163455408Y-78106764D01*
X163472954Y-78114511D01*
X163495671Y-78119030D01*
X163519991Y-78135280D01*
X163540793Y-78144465D01*
X163555000Y-78158672D01*
X163576777Y-78173223D01*
X163591327Y-78194999D01*
X163605534Y-78209206D01*
X163614718Y-78230006D01*
X163630970Y-78254329D01*
X163635489Y-78277048D01*
X163643235Y-78294591D01*
X163649192Y-78345940D01*
X163650000Y-78350000D01*
X163650000Y-78850000D01*
X163649192Y-78854059D01*
X163643235Y-78905408D01*
X163635489Y-78922950D01*
X163630970Y-78945671D01*
X163614716Y-78969995D01*
X163605534Y-78990793D01*
X163591329Y-79004997D01*
X163576777Y-79026777D01*
X163554997Y-79041329D01*
X163540793Y-79055534D01*
X163519995Y-79064716D01*
X163495671Y-79080970D01*
X163472950Y-79085489D01*
X163455408Y-79093235D01*
X163404061Y-79099192D01*
X163400000Y-79100000D01*
X162450000Y-79100000D01*
X162445941Y-79099192D01*
X162394591Y-79093235D01*
X162377048Y-79085489D01*
X162354329Y-79080970D01*
X162330006Y-79064718D01*
X162309206Y-79055534D01*
X162294999Y-79041327D01*
X162273223Y-79026777D01*
X162258672Y-79005000D01*
X162244465Y-78990793D01*
X162235280Y-78969991D01*
X162219030Y-78945671D01*
X162214511Y-78922954D01*
X162206764Y-78905408D01*
X162200805Y-78854049D01*
X162200000Y-78850000D01*
X162200000Y-78350000D01*
X162200804Y-78345953D01*
X162206764Y-78294591D01*
X162214511Y-78277043D01*
X162219030Y-78254329D01*
X162235278Y-78230010D01*
X162244465Y-78209206D01*
X162258674Y-78194996D01*
X162273223Y-78173223D01*
X162294996Y-78158674D01*
X162309206Y-78144465D01*
X162330010Y-78135278D01*
X162354329Y-78119030D01*
X162377043Y-78114511D01*
X162394591Y-78106764D01*
X162445952Y-78100805D01*
X162450000Y-78100000D01*
X163400000Y-78100000D01*
X163404047Y-78100805D01*
G37*
G36*
X166565000Y-79015000D02*
G01*
X165515000Y-79015000D01*
X165515000Y-78665000D01*
X166565000Y-78665000D01*
X166565000Y-79015000D01*
G37*
G36*
X168865000Y-79015000D02*
G01*
X167815000Y-79015000D01*
X167815000Y-78665000D01*
X168865000Y-78665000D01*
X168865000Y-79015000D01*
G37*
G36*
X164626662Y-78415277D02*
G01*
X164670459Y-78444542D01*
X164699724Y-78488339D01*
X164710000Y-78540001D01*
X164710000Y-78810001D01*
X164699724Y-78861663D01*
X164670459Y-78905460D01*
X164626662Y-78934725D01*
X164575000Y-78945001D01*
X164205000Y-78945001D01*
X164153338Y-78934725D01*
X164109541Y-78905460D01*
X164080276Y-78861663D01*
X164070000Y-78810001D01*
X164070000Y-78540001D01*
X164080276Y-78488339D01*
X164109541Y-78444542D01*
X164153338Y-78415277D01*
X164205000Y-78405001D01*
X164575000Y-78405001D01*
X164626662Y-78415277D01*
G37*
G36*
X180535000Y-78885000D02*
G01*
X179485000Y-78885000D01*
X179485000Y-78535000D01*
X180535000Y-78535000D01*
X180535000Y-78885000D01*
G37*
G36*
X182835000Y-78885000D02*
G01*
X181785000Y-78885000D01*
X181785000Y-78535000D01*
X182835000Y-78535000D01*
X182835000Y-78885000D01*
G37*
G36*
X174958576Y-78275657D02*
G01*
X175003995Y-78306005D01*
X175034343Y-78351424D01*
X175045000Y-78405000D01*
X175045000Y-78685000D01*
X175034343Y-78738576D01*
X175003995Y-78783995D01*
X174958576Y-78814343D01*
X174905000Y-78825000D01*
X174565000Y-78825000D01*
X174511424Y-78814343D01*
X174466005Y-78783995D01*
X174435657Y-78738576D01*
X174425000Y-78685000D01*
X174425000Y-78405000D01*
X174435657Y-78351424D01*
X174466005Y-78306005D01*
X174511424Y-78275657D01*
X174565000Y-78265000D01*
X174905000Y-78265000D01*
X174958576Y-78275657D01*
G37*
G36*
X176654047Y-77815805D02*
G01*
X176705408Y-77821764D01*
X176722954Y-77829511D01*
X176745671Y-77834030D01*
X176769991Y-77850280D01*
X176790793Y-77859465D01*
X176805000Y-77873672D01*
X176826777Y-77888223D01*
X176841327Y-77909999D01*
X176855534Y-77924206D01*
X176864718Y-77945006D01*
X176880970Y-77969329D01*
X176885489Y-77992048D01*
X176893235Y-78009591D01*
X176899192Y-78060940D01*
X176900000Y-78065000D01*
X176900000Y-78565000D01*
X176899192Y-78569059D01*
X176893235Y-78620408D01*
X176885489Y-78637950D01*
X176880970Y-78660671D01*
X176864716Y-78684995D01*
X176855534Y-78705793D01*
X176841329Y-78719997D01*
X176826777Y-78741777D01*
X176804997Y-78756329D01*
X176790793Y-78770534D01*
X176769995Y-78779716D01*
X176745671Y-78795970D01*
X176722950Y-78800489D01*
X176705408Y-78808235D01*
X176654061Y-78814192D01*
X176650000Y-78815000D01*
X175700000Y-78815000D01*
X175695941Y-78814192D01*
X175644591Y-78808235D01*
X175627048Y-78800489D01*
X175604329Y-78795970D01*
X175580006Y-78779718D01*
X175559206Y-78770534D01*
X175544999Y-78756327D01*
X175523223Y-78741777D01*
X175508672Y-78720000D01*
X175494465Y-78705793D01*
X175485280Y-78684991D01*
X175469030Y-78660671D01*
X175464511Y-78637954D01*
X175456764Y-78620408D01*
X175450805Y-78569049D01*
X175450000Y-78565000D01*
X175450000Y-78065000D01*
X175450804Y-78060953D01*
X175456764Y-78009591D01*
X175464511Y-77992043D01*
X175469030Y-77969329D01*
X175485278Y-77945010D01*
X175494465Y-77924206D01*
X175508674Y-77909996D01*
X175523223Y-77888223D01*
X175544996Y-77873674D01*
X175559206Y-77859465D01*
X175580010Y-77850278D01*
X175604329Y-77834030D01*
X175627043Y-77829511D01*
X175644591Y-77821764D01*
X175695952Y-77815805D01*
X175700000Y-77815000D01*
X176650000Y-77815000D01*
X176654047Y-77815805D01*
G37*
G36*
X178644047Y-77810805D02*
G01*
X178695408Y-77816764D01*
X178712954Y-77824511D01*
X178735671Y-77829030D01*
X178759991Y-77845280D01*
X178780793Y-77854465D01*
X178795000Y-77868672D01*
X178816777Y-77883223D01*
X178831327Y-77904999D01*
X178845534Y-77919206D01*
X178854718Y-77940006D01*
X178870970Y-77964329D01*
X178875489Y-77987048D01*
X178883235Y-78004591D01*
X178889192Y-78055940D01*
X178890000Y-78060000D01*
X178890000Y-78560000D01*
X178889192Y-78564059D01*
X178883235Y-78615408D01*
X178875489Y-78632950D01*
X178870970Y-78655671D01*
X178854716Y-78679995D01*
X178845534Y-78700793D01*
X178831329Y-78714997D01*
X178816777Y-78736777D01*
X178794997Y-78751329D01*
X178780793Y-78765534D01*
X178759995Y-78774716D01*
X178735671Y-78790970D01*
X178712950Y-78795489D01*
X178695408Y-78803235D01*
X178644061Y-78809192D01*
X178640000Y-78810000D01*
X177690000Y-78810000D01*
X177685941Y-78809192D01*
X177634591Y-78803235D01*
X177617048Y-78795489D01*
X177594329Y-78790970D01*
X177570006Y-78774718D01*
X177549206Y-78765534D01*
X177534999Y-78751327D01*
X177513223Y-78736777D01*
X177498672Y-78715000D01*
X177484465Y-78700793D01*
X177475280Y-78679991D01*
X177459030Y-78655671D01*
X177454511Y-78632954D01*
X177446764Y-78615408D01*
X177440805Y-78564049D01*
X177440000Y-78560000D01*
X177440000Y-78060000D01*
X177440804Y-78055953D01*
X177446764Y-78004591D01*
X177454511Y-77987043D01*
X177459030Y-77964329D01*
X177475278Y-77940010D01*
X177484465Y-77919206D01*
X177498674Y-77904996D01*
X177513223Y-77883223D01*
X177534996Y-77868674D01*
X177549206Y-77854465D01*
X177570010Y-77845278D01*
X177594329Y-77829030D01*
X177617043Y-77824511D01*
X177634591Y-77816764D01*
X177685952Y-77810805D01*
X177690000Y-77810000D01*
X178640000Y-77810000D01*
X178644047Y-77810805D01*
G37*
G36*
X186275000Y-78800000D02*
G01*
X184725000Y-78800000D01*
X184725000Y-78200000D01*
X186275000Y-78200000D01*
X186275000Y-78800000D01*
G37*
G36*
X155775000Y-78500000D02*
G01*
X154225000Y-78500000D01*
X154225000Y-77900000D01*
X155775000Y-77900000D01*
X155775000Y-78500000D01*
G37*
G36*
X166565000Y-78365002D02*
G01*
X165515000Y-78365002D01*
X165515000Y-78015002D01*
X166565000Y-78015002D01*
X166565000Y-78365002D01*
G37*
G36*
X168875000Y-78365002D02*
G01*
X167825000Y-78365002D01*
X167825000Y-78015002D01*
X168875000Y-78015002D01*
X168875000Y-78365002D01*
G37*
G36*
X172560000Y-78250000D02*
G01*
X171560000Y-78250000D01*
X171560000Y-77280000D01*
X172560000Y-77280000D01*
X172560000Y-78250000D01*
G37*
G36*
X174030000Y-78250000D02*
G01*
X173030000Y-78250000D01*
X173030000Y-77280000D01*
X174030000Y-77280000D01*
X174030000Y-78250000D01*
G37*
G36*
X180535000Y-78235002D02*
G01*
X179485000Y-78235002D01*
X179485000Y-77885002D01*
X180535000Y-77885002D01*
X180535000Y-78235002D01*
G37*
G36*
X182835000Y-78235002D02*
G01*
X181785000Y-78235002D01*
X181785000Y-77885002D01*
X182835000Y-77885002D01*
X182835000Y-78235002D01*
G37*
G36*
X164626662Y-77395277D02*
G01*
X164670459Y-77424542D01*
X164699724Y-77468339D01*
X164710000Y-77520001D01*
X164710000Y-77790001D01*
X164699724Y-77841663D01*
X164670459Y-77885460D01*
X164626662Y-77914725D01*
X164575000Y-77925001D01*
X164205000Y-77925001D01*
X164153338Y-77914725D01*
X164109541Y-77885460D01*
X164080276Y-77841663D01*
X164070000Y-77790001D01*
X164070000Y-77520001D01*
X164080276Y-77468339D01*
X164109541Y-77424542D01*
X164153338Y-77395277D01*
X164205000Y-77385001D01*
X164575000Y-77385001D01*
X164626662Y-77395277D01*
G37*
G36*
X174958576Y-77315657D02*
G01*
X175003995Y-77346005D01*
X175034343Y-77391424D01*
X175045000Y-77445000D01*
X175045000Y-77725000D01*
X175034343Y-77778576D01*
X175003995Y-77823995D01*
X174958576Y-77854343D01*
X174905000Y-77865000D01*
X174565000Y-77865000D01*
X174511424Y-77854343D01*
X174466005Y-77823995D01*
X174435657Y-77778576D01*
X174425000Y-77725000D01*
X174425000Y-77445000D01*
X174435657Y-77391424D01*
X174466005Y-77346005D01*
X174511424Y-77315657D01*
X174565000Y-77305000D01*
X174905000Y-77305000D01*
X174958576Y-77315657D01*
G37*
G36*
X186275000Y-77800000D02*
G01*
X184725000Y-77800000D01*
X184725000Y-77200000D01*
X186275000Y-77200000D01*
X186275000Y-77800000D01*
G37*
G36*
X159623576Y-77075657D02*
G01*
X159668995Y-77106005D01*
X159699343Y-77151424D01*
X159710000Y-77205000D01*
X159710000Y-77485000D01*
X159699343Y-77538576D01*
X159668995Y-77583995D01*
X159623576Y-77614343D01*
X159570000Y-77625000D01*
X159230000Y-77625000D01*
X159176424Y-77614343D01*
X159131005Y-77583995D01*
X159100657Y-77538576D01*
X159090000Y-77485000D01*
X159090000Y-77205000D01*
X159100657Y-77151424D01*
X159131005Y-77106005D01*
X159176424Y-77075657D01*
X159230000Y-77065000D01*
X159570000Y-77065000D01*
X159623576Y-77075657D01*
G37*
G36*
X155775000Y-77500000D02*
G01*
X154225000Y-77500000D01*
X154225000Y-76900000D01*
X155775000Y-76900000D01*
X155775000Y-77500000D01*
G37*
G36*
X161379047Y-76200805D02*
G01*
X161430408Y-76206764D01*
X161447954Y-76214511D01*
X161470671Y-76219030D01*
X161494991Y-76235280D01*
X161515793Y-76244465D01*
X161530000Y-76258672D01*
X161551777Y-76273223D01*
X161566327Y-76294999D01*
X161580534Y-76309206D01*
X161589718Y-76330006D01*
X161605970Y-76354329D01*
X161610489Y-76377048D01*
X161618235Y-76394591D01*
X161624192Y-76445940D01*
X161625000Y-76450000D01*
X161625000Y-76950000D01*
X161624192Y-76954059D01*
X161618235Y-77005408D01*
X161610489Y-77022950D01*
X161605970Y-77045671D01*
X161589716Y-77069995D01*
X161580534Y-77090793D01*
X161566329Y-77104997D01*
X161551777Y-77126777D01*
X161529997Y-77141329D01*
X161515793Y-77155534D01*
X161494995Y-77164716D01*
X161470671Y-77180970D01*
X161447950Y-77185489D01*
X161430408Y-77193235D01*
X161379061Y-77199192D01*
X161375000Y-77200000D01*
X160425000Y-77200000D01*
X160420941Y-77199192D01*
X160369591Y-77193235D01*
X160352048Y-77185489D01*
X160329329Y-77180970D01*
X160305006Y-77164718D01*
X160284206Y-77155534D01*
X160269999Y-77141327D01*
X160248223Y-77126777D01*
X160233672Y-77105000D01*
X160219465Y-77090793D01*
X160210280Y-77069991D01*
X160194030Y-77045671D01*
X160189511Y-77022954D01*
X160181764Y-77005408D01*
X160175805Y-76954049D01*
X160175000Y-76950000D01*
X160175000Y-76450000D01*
X160175804Y-76445953D01*
X160181764Y-76394591D01*
X160189511Y-76377043D01*
X160194030Y-76354329D01*
X160210278Y-76330010D01*
X160219465Y-76309206D01*
X160233674Y-76294996D01*
X160248223Y-76273223D01*
X160269996Y-76258674D01*
X160284206Y-76244465D01*
X160305010Y-76235278D01*
X160329329Y-76219030D01*
X160352043Y-76214511D01*
X160369591Y-76206764D01*
X160420952Y-76200805D01*
X160425000Y-76200000D01*
X161375000Y-76200000D01*
X161379047Y-76200805D01*
G37*
G36*
X163404047Y-76200805D02*
G01*
X163455408Y-76206764D01*
X163472954Y-76214511D01*
X163495671Y-76219030D01*
X163519991Y-76235280D01*
X163540793Y-76244465D01*
X163555000Y-76258672D01*
X163576777Y-76273223D01*
X163591327Y-76294999D01*
X163605534Y-76309206D01*
X163614718Y-76330006D01*
X163630970Y-76354329D01*
X163635489Y-76377048D01*
X163643235Y-76394591D01*
X163649192Y-76445940D01*
X163650000Y-76450000D01*
X163650000Y-76950000D01*
X163649192Y-76954059D01*
X163643235Y-77005408D01*
X163635489Y-77022950D01*
X163630970Y-77045671D01*
X163614716Y-77069995D01*
X163605534Y-77090793D01*
X163591329Y-77104997D01*
X163576777Y-77126777D01*
X163554997Y-77141329D01*
X163540793Y-77155534D01*
X163519995Y-77164716D01*
X163495671Y-77180970D01*
X163472950Y-77185489D01*
X163455408Y-77193235D01*
X163404061Y-77199192D01*
X163400000Y-77200000D01*
X162450000Y-77200000D01*
X162445941Y-77199192D01*
X162394591Y-77193235D01*
X162377048Y-77185489D01*
X162354329Y-77180970D01*
X162330006Y-77164718D01*
X162309206Y-77155534D01*
X162294999Y-77141327D01*
X162273223Y-77126777D01*
X162258672Y-77105000D01*
X162244465Y-77090793D01*
X162235280Y-77069991D01*
X162219030Y-77045671D01*
X162214511Y-77022954D01*
X162206764Y-77005408D01*
X162200805Y-76954049D01*
X162200000Y-76950000D01*
X162200000Y-76450000D01*
X162200804Y-76445953D01*
X162206764Y-76394591D01*
X162214511Y-76377043D01*
X162219030Y-76354329D01*
X162235278Y-76330010D01*
X162244465Y-76309206D01*
X162258674Y-76294996D01*
X162273223Y-76273223D01*
X162294996Y-76258674D01*
X162309206Y-76244465D01*
X162330010Y-76235278D01*
X162354329Y-76219030D01*
X162377043Y-76214511D01*
X162394591Y-76206764D01*
X162445952Y-76200805D01*
X162450000Y-76200000D01*
X163400000Y-76200000D01*
X163404047Y-76200805D01*
G37*
G36*
X166993376Y-76568159D02*
G01*
X167038795Y-76598507D01*
X167069143Y-76643926D01*
X167079800Y-76697502D01*
X167079800Y-77037502D01*
X167069143Y-77091078D01*
X167038795Y-77136497D01*
X166993376Y-77166845D01*
X166939800Y-77177502D01*
X166659800Y-77177502D01*
X166606224Y-77166845D01*
X166560805Y-77136497D01*
X166530457Y-77091078D01*
X166519800Y-77037502D01*
X166519800Y-76697502D01*
X166530457Y-76643926D01*
X166560805Y-76598507D01*
X166606224Y-76568159D01*
X166659800Y-76557502D01*
X166939800Y-76557502D01*
X166993376Y-76568159D01*
G37*
G36*
X167953376Y-76568159D02*
G01*
X167998795Y-76598507D01*
X168029143Y-76643926D01*
X168039800Y-76697502D01*
X168039800Y-77037502D01*
X168029143Y-77091078D01*
X167998795Y-77136497D01*
X167953376Y-77166845D01*
X167899800Y-77177502D01*
X167619800Y-77177502D01*
X167566224Y-77166845D01*
X167520805Y-77136497D01*
X167490457Y-77091078D01*
X167479800Y-77037502D01*
X167479800Y-76697502D01*
X167490457Y-76643926D01*
X167520805Y-76598507D01*
X167566224Y-76568159D01*
X167619800Y-76557502D01*
X167899800Y-76557502D01*
X167953376Y-76568159D01*
G37*
G36*
X180846076Y-76335658D02*
G01*
X180891495Y-76366006D01*
X180921843Y-76411425D01*
X180932500Y-76465001D01*
X180932500Y-76805001D01*
X180921843Y-76858577D01*
X180891495Y-76903996D01*
X180846076Y-76934344D01*
X180792500Y-76945001D01*
X180512500Y-76945001D01*
X180458924Y-76934344D01*
X180413505Y-76903996D01*
X180383157Y-76858577D01*
X180372500Y-76805001D01*
X180372500Y-76465001D01*
X180383157Y-76411425D01*
X180413505Y-76366006D01*
X180458924Y-76335658D01*
X180512500Y-76325001D01*
X180792500Y-76325001D01*
X180846076Y-76335658D01*
G37*
G36*
X181806076Y-76335658D02*
G01*
X181851495Y-76366006D01*
X181881843Y-76411425D01*
X181892500Y-76465001D01*
X181892500Y-76805001D01*
X181881843Y-76858577D01*
X181851495Y-76903996D01*
X181806076Y-76934344D01*
X181752500Y-76945001D01*
X181472500Y-76945001D01*
X181418924Y-76934344D01*
X181373505Y-76903996D01*
X181343157Y-76858577D01*
X181332500Y-76805001D01*
X181332500Y-76465001D01*
X181343157Y-76411425D01*
X181373505Y-76366006D01*
X181418924Y-76335658D01*
X181472500Y-76325001D01*
X181752500Y-76325001D01*
X181806076Y-76335658D01*
G37*
G36*
X176654047Y-75915805D02*
G01*
X176705408Y-75921764D01*
X176722954Y-75929511D01*
X176745671Y-75934030D01*
X176769991Y-75950280D01*
X176790793Y-75959465D01*
X176805000Y-75973672D01*
X176826777Y-75988223D01*
X176841327Y-76009999D01*
X176855534Y-76024206D01*
X176864718Y-76045006D01*
X176880970Y-76069329D01*
X176885489Y-76092048D01*
X176893235Y-76109591D01*
X176899192Y-76160940D01*
X176900000Y-76165000D01*
X176900000Y-76665000D01*
X176899192Y-76669059D01*
X176893235Y-76720408D01*
X176885489Y-76737950D01*
X176880970Y-76760671D01*
X176864716Y-76784995D01*
X176855534Y-76805793D01*
X176841329Y-76819997D01*
X176826777Y-76841777D01*
X176804997Y-76856329D01*
X176790793Y-76870534D01*
X176769995Y-76879716D01*
X176745671Y-76895970D01*
X176722950Y-76900489D01*
X176705408Y-76908235D01*
X176654061Y-76914192D01*
X176650000Y-76915000D01*
X175700000Y-76915000D01*
X175695941Y-76914192D01*
X175644591Y-76908235D01*
X175627048Y-76900489D01*
X175604329Y-76895970D01*
X175580006Y-76879718D01*
X175559206Y-76870534D01*
X175544999Y-76856327D01*
X175523223Y-76841777D01*
X175508672Y-76820000D01*
X175494465Y-76805793D01*
X175485280Y-76784991D01*
X175469030Y-76760671D01*
X175464511Y-76737954D01*
X175456764Y-76720408D01*
X175450805Y-76669049D01*
X175450000Y-76665000D01*
X175450000Y-76165000D01*
X175450804Y-76160953D01*
X175456764Y-76109591D01*
X175464511Y-76092043D01*
X175469030Y-76069329D01*
X175485278Y-76045010D01*
X175494465Y-76024206D01*
X175508674Y-76009996D01*
X175523223Y-75988223D01*
X175544996Y-75973674D01*
X175559206Y-75959465D01*
X175580010Y-75950278D01*
X175604329Y-75934030D01*
X175627043Y-75929511D01*
X175644591Y-75921764D01*
X175695952Y-75915805D01*
X175700000Y-75915000D01*
X176650000Y-75915000D01*
X176654047Y-75915805D01*
G37*
G36*
X178644047Y-75910805D02*
G01*
X178695408Y-75916764D01*
X178712954Y-75924511D01*
X178735671Y-75929030D01*
X178759991Y-75945280D01*
X178780793Y-75954465D01*
X178795000Y-75968672D01*
X178816777Y-75983223D01*
X178831327Y-76004999D01*
X178845534Y-76019206D01*
X178854718Y-76040006D01*
X178870970Y-76064329D01*
X178875489Y-76087048D01*
X178883235Y-76104591D01*
X178889192Y-76155940D01*
X178890000Y-76160000D01*
X178890000Y-76660000D01*
X178889192Y-76664059D01*
X178883235Y-76715408D01*
X178875489Y-76732950D01*
X178870970Y-76755671D01*
X178854716Y-76779995D01*
X178845534Y-76800793D01*
X178831329Y-76814997D01*
X178816777Y-76836777D01*
X178794997Y-76851329D01*
X178780793Y-76865534D01*
X178759995Y-76874716D01*
X178735671Y-76890970D01*
X178712950Y-76895489D01*
X178695408Y-76903235D01*
X178644061Y-76909192D01*
X178640000Y-76910000D01*
X177690000Y-76910000D01*
X177685941Y-76909192D01*
X177634591Y-76903235D01*
X177617048Y-76895489D01*
X177594329Y-76890970D01*
X177570006Y-76874718D01*
X177549206Y-76865534D01*
X177534999Y-76851327D01*
X177513223Y-76836777D01*
X177498672Y-76815000D01*
X177484465Y-76800793D01*
X177475280Y-76779991D01*
X177459030Y-76755671D01*
X177454511Y-76732954D01*
X177446764Y-76715408D01*
X177440805Y-76664049D01*
X177440000Y-76660000D01*
X177440000Y-76160000D01*
X177440804Y-76155953D01*
X177446764Y-76104591D01*
X177454511Y-76087043D01*
X177459030Y-76064329D01*
X177475278Y-76040010D01*
X177484465Y-76019206D01*
X177498674Y-76004996D01*
X177513223Y-75983223D01*
X177534996Y-75968674D01*
X177549206Y-75954465D01*
X177570010Y-75945278D01*
X177594329Y-75929030D01*
X177617043Y-75924511D01*
X177634591Y-75916764D01*
X177685952Y-75910805D01*
X177690000Y-75910000D01*
X178640000Y-75910000D01*
X178644047Y-75910805D01*
G37*
G36*
X173948576Y-76235657D02*
G01*
X173993995Y-76266005D01*
X174024343Y-76311424D01*
X174035000Y-76365000D01*
X174035000Y-76705000D01*
X174024343Y-76758576D01*
X173993995Y-76803995D01*
X173948576Y-76834343D01*
X173895000Y-76845000D01*
X173615000Y-76845000D01*
X173561424Y-76834343D01*
X173516005Y-76803995D01*
X173485657Y-76758576D01*
X173475000Y-76705000D01*
X173475000Y-76365000D01*
X173485657Y-76311424D01*
X173516005Y-76266005D01*
X173561424Y-76235657D01*
X173615000Y-76225000D01*
X173895000Y-76225000D01*
X173948576Y-76235657D01*
G37*
G36*
X174908576Y-76235657D02*
G01*
X174953995Y-76266005D01*
X174984343Y-76311424D01*
X174995000Y-76365000D01*
X174995000Y-76705000D01*
X174984343Y-76758576D01*
X174953995Y-76803995D01*
X174908576Y-76834343D01*
X174855000Y-76845000D01*
X174575000Y-76845000D01*
X174521424Y-76834343D01*
X174476005Y-76803995D01*
X174445657Y-76758576D01*
X174435000Y-76705000D01*
X174435000Y-76365000D01*
X174445657Y-76311424D01*
X174476005Y-76266005D01*
X174521424Y-76235657D01*
X174575000Y-76225000D01*
X174855000Y-76225000D01*
X174908576Y-76235657D01*
G37*
G36*
X190275000Y-76800000D02*
G01*
X188475000Y-76800000D01*
X188475000Y-75600000D01*
X190275000Y-75600000D01*
X190275000Y-76800000D01*
G37*
G36*
X159623576Y-76115657D02*
G01*
X159668995Y-76146005D01*
X159699343Y-76191424D01*
X159710000Y-76245000D01*
X159710000Y-76525000D01*
X159699343Y-76578576D01*
X159668995Y-76623995D01*
X159623576Y-76654343D01*
X159570000Y-76665000D01*
X159230000Y-76665000D01*
X159176424Y-76654343D01*
X159131005Y-76623995D01*
X159100657Y-76578576D01*
X159090000Y-76525000D01*
X159090000Y-76245000D01*
X159100657Y-76191424D01*
X159131005Y-76146005D01*
X159176424Y-76115657D01*
X159230000Y-76105000D01*
X159570000Y-76105000D01*
X159623576Y-76115657D01*
G37*
G36*
X152025000Y-76500000D02*
G01*
X150225000Y-76500000D01*
X150225000Y-75300000D01*
X152025000Y-75300000D01*
X152025000Y-76500000D01*
G37*
G36*
X179806662Y-75395276D02*
G01*
X179850459Y-75424541D01*
X179879724Y-75468338D01*
X179890000Y-75520000D01*
X179890000Y-75890000D01*
X179879724Y-75941662D01*
X179850459Y-75985459D01*
X179806662Y-76014724D01*
X179755000Y-76025000D01*
X179485000Y-76025000D01*
X179433338Y-76014724D01*
X179389541Y-75985459D01*
X179360276Y-75941662D01*
X179350000Y-75890000D01*
X179350000Y-75520000D01*
X179360276Y-75468338D01*
X179389541Y-75424541D01*
X179433338Y-75395276D01*
X179485000Y-75385000D01*
X179755000Y-75385000D01*
X179806662Y-75395276D01*
G37*
G36*
X180826662Y-75395276D02*
G01*
X180870459Y-75424541D01*
X180899724Y-75468338D01*
X180910000Y-75520000D01*
X180910000Y-75890000D01*
X180899724Y-75941662D01*
X180870459Y-75985459D01*
X180826662Y-76014724D01*
X180775000Y-76025000D01*
X180505000Y-76025000D01*
X180453338Y-76014724D01*
X180409541Y-75985459D01*
X180380276Y-75941662D01*
X180370000Y-75890000D01*
X180370000Y-75520000D01*
X180380276Y-75468338D01*
X180409541Y-75424541D01*
X180453338Y-75395276D01*
X180505000Y-75385000D01*
X180775000Y-75385000D01*
X180826662Y-75395276D01*
G37*
G36*
X161885000Y-75120000D02*
G01*
X159765000Y-75120000D01*
X159765000Y-73620000D01*
X161885000Y-73620000D01*
X161885000Y-75120000D01*
G37*
G36*
X166115000Y-75120000D02*
G01*
X163995000Y-75120000D01*
X163995000Y-73620000D01*
X166115000Y-73620000D01*
X166115000Y-75120000D01*
G37*
G36*
X167343576Y-73670657D02*
G01*
X167388995Y-73701005D01*
X167419343Y-73746424D01*
X167430000Y-73800000D01*
X167430000Y-74140000D01*
X167419343Y-74193576D01*
X167388995Y-74238995D01*
X167343576Y-74269343D01*
X167290000Y-74280000D01*
X167010000Y-74280000D01*
X166956424Y-74269343D01*
X166911005Y-74238995D01*
X166880657Y-74193576D01*
X166870000Y-74140000D01*
X166870000Y-73800000D01*
X166880657Y-73746424D01*
X166911005Y-73701005D01*
X166956424Y-73670657D01*
X167010000Y-73660000D01*
X167290000Y-73660000D01*
X167343576Y-73670657D01*
G37*
G36*
X168303576Y-73670657D02*
G01*
X168348995Y-73701005D01*
X168379343Y-73746424D01*
X168390000Y-73800000D01*
X168390000Y-74140000D01*
X168379343Y-74193576D01*
X168348995Y-74238995D01*
X168303576Y-74269343D01*
X168250000Y-74280000D01*
X167970000Y-74280000D01*
X167916424Y-74269343D01*
X167871005Y-74238995D01*
X167840657Y-74193576D01*
X167830000Y-74140000D01*
X167830000Y-73800000D01*
X167840657Y-73746424D01*
X167871005Y-73701005D01*
X167916424Y-73670657D01*
X167970000Y-73660000D01*
X168250000Y-73660000D01*
X168303576Y-73670657D01*
G37*
G36*
X152075000Y-74050000D02*
G01*
X150275000Y-74050000D01*
X150275000Y-72850000D01*
X152075000Y-72850000D01*
X152075000Y-74050000D01*
G37*
G36*
X175106662Y-73490276D02*
G01*
X175150459Y-73519541D01*
X175179724Y-73563338D01*
X175190000Y-73615000D01*
X175190000Y-73885000D01*
X175179724Y-73936662D01*
X175150459Y-73980459D01*
X175106662Y-74009724D01*
X175055000Y-74020000D01*
X174685000Y-74020000D01*
X174633338Y-74009724D01*
X174589541Y-73980459D01*
X174560276Y-73936662D01*
X174550000Y-73885000D01*
X174550000Y-73615000D01*
X174560276Y-73563338D01*
X174589541Y-73519541D01*
X174633338Y-73490276D01*
X174685000Y-73480000D01*
X175055000Y-73480000D01*
X175106662Y-73490276D01*
G37*
G36*
X176448576Y-72830657D02*
G01*
X176493995Y-72861005D01*
X176524343Y-72906424D01*
X176535000Y-72960000D01*
X176535000Y-73300000D01*
X176524343Y-73353576D01*
X176493995Y-73398995D01*
X176448576Y-73429343D01*
X176395000Y-73440000D01*
X176115000Y-73440000D01*
X176061424Y-73429343D01*
X176016005Y-73398995D01*
X175985657Y-73353576D01*
X175975000Y-73300000D01*
X175975000Y-72960000D01*
X175985657Y-72906424D01*
X176016005Y-72861005D01*
X176061424Y-72830657D01*
X176115000Y-72820000D01*
X176395000Y-72820000D01*
X176448576Y-72830657D01*
G37*
G36*
X177408576Y-72830657D02*
G01*
X177453995Y-72861005D01*
X177484343Y-72906424D01*
X177495000Y-72960000D01*
X177495000Y-73300000D01*
X177484343Y-73353576D01*
X177453995Y-73398995D01*
X177408576Y-73429343D01*
X177355000Y-73440000D01*
X177075000Y-73440000D01*
X177021424Y-73429343D01*
X176976005Y-73398995D01*
X176945657Y-73353576D01*
X176935000Y-73300000D01*
X176935000Y-72960000D01*
X176945657Y-72906424D01*
X176976005Y-72861005D01*
X177021424Y-72830657D01*
X177075000Y-72820000D01*
X177355000Y-72820000D01*
X177408576Y-72830657D01*
G37*
G36*
X190225000Y-73150000D02*
G01*
X188425000Y-73150000D01*
X188425000Y-71950000D01*
X190225000Y-71950000D01*
X190225000Y-73150000D01*
G37*
G36*
X175106662Y-72470276D02*
G01*
X175150459Y-72499541D01*
X175179724Y-72543338D01*
X175190000Y-72595000D01*
X175190000Y-72865000D01*
X175179724Y-72916662D01*
X175150459Y-72960459D01*
X175106662Y-72989724D01*
X175055000Y-73000000D01*
X174685000Y-73000000D01*
X174633338Y-72989724D01*
X174589541Y-72960459D01*
X174560276Y-72916662D01*
X174550000Y-72865000D01*
X174550000Y-72595000D01*
X174560276Y-72543338D01*
X174589541Y-72499541D01*
X174633338Y-72470276D01*
X174685000Y-72460000D01*
X175055000Y-72460000D01*
X175106662Y-72470276D01*
G37*
G36*
X156714372Y-72359739D02*
G01*
X156787847Y-72402160D01*
X156847840Y-72462153D01*
X156890261Y-72535628D01*
X156912220Y-72617579D01*
X156912220Y-72702421D01*
X156890261Y-72784372D01*
X156847840Y-72857847D01*
X156787847Y-72917840D01*
X156714372Y-72960261D01*
X156632421Y-72982220D01*
X156547579Y-72982220D01*
X156465628Y-72960261D01*
X156392153Y-72917840D01*
X156332160Y-72857847D01*
X156289739Y-72784372D01*
X156267780Y-72702421D01*
X156267780Y-72617579D01*
X156289739Y-72535628D01*
X156332160Y-72462153D01*
X156392153Y-72402160D01*
X156465628Y-72359739D01*
X156547579Y-72337780D01*
X156632421Y-72337780D01*
X156714372Y-72359739D01*
G37*
G36*
X172208644Y-70395136D02*
G01*
X172210673Y-70395474D01*
X172210683Y-70395475D01*
X172214546Y-70396119D01*
X172221099Y-70397055D01*
X172221188Y-70397068D01*
X172221414Y-70397101D01*
X172221644Y-70397136D01*
X172221877Y-70397174D01*
X172221904Y-70397179D01*
X172232242Y-70398902D01*
X172232247Y-70398903D01*
X172233644Y-70399136D01*
X172234747Y-70399385D01*
X172236100Y-70399771D01*
X172236115Y-70399775D01*
X172241234Y-70401238D01*
X172241252Y-70401243D01*
X172241747Y-70401385D01*
X172242162Y-70401513D01*
X172242662Y-70401679D01*
X172242676Y-70401684D01*
X172246473Y-70402950D01*
X172248162Y-70403513D01*
X172249472Y-70404056D01*
X172251056Y-70404848D01*
X172251068Y-70404853D01*
X172260600Y-70409619D01*
X172260620Y-70409630D01*
X172261472Y-70410056D01*
X172262145Y-70410425D01*
X172265801Y-70412619D01*
X172265993Y-70412734D01*
X172267675Y-70413657D01*
X172270109Y-70414873D01*
X172270119Y-70414879D01*
X172272472Y-70416056D01*
X172274247Y-70417191D01*
X172278079Y-70420256D01*
X172279786Y-70421505D01*
X172284547Y-70424679D01*
X172285247Y-70425191D01*
X172290247Y-70429191D01*
X172291809Y-70430753D01*
X172293543Y-70432921D01*
X172297078Y-70436456D01*
X172299247Y-70438191D01*
X172300809Y-70439753D01*
X172304809Y-70444753D01*
X172305321Y-70445453D01*
X172308352Y-70449999D01*
X172308482Y-70450195D01*
X172309755Y-70451935D01*
X172311003Y-70453496D01*
X172325986Y-70472203D01*
X172374014Y-70472203D01*
X172388996Y-70453496D01*
X172390244Y-70451935D01*
X172391518Y-70450195D01*
X172391649Y-70449999D01*
X172392370Y-70448916D01*
X172394075Y-70446358D01*
X172394082Y-70446347D01*
X172394679Y-70445453D01*
X172395191Y-70444753D01*
X172399191Y-70439753D01*
X172400753Y-70438191D01*
X172402924Y-70436453D01*
X172406453Y-70432924D01*
X172408191Y-70430753D01*
X172409753Y-70429191D01*
X172414753Y-70425191D01*
X172415453Y-70424679D01*
X172416347Y-70424082D01*
X172416358Y-70424075D01*
X172418912Y-70422373D01*
X172420194Y-70421518D01*
X172421936Y-70420244D01*
X172424437Y-70418243D01*
X172424444Y-70418237D01*
X172425753Y-70417191D01*
X172426855Y-70416425D01*
X172428284Y-70415567D01*
X172428295Y-70415560D01*
X172431031Y-70413918D01*
X172431058Y-70413903D01*
X172431855Y-70413425D01*
X172432528Y-70413056D01*
X172433368Y-70412635D01*
X172433399Y-70412619D01*
X172448931Y-70404853D01*
X172448948Y-70404845D01*
X172450528Y-70404056D01*
X172451838Y-70403513D01*
X172453521Y-70402951D01*
X172453526Y-70402950D01*
X172457323Y-70401684D01*
X172457350Y-70401675D01*
X172457838Y-70401513D01*
X172458253Y-70401385D01*
X172458734Y-70401247D01*
X172458765Y-70401238D01*
X172463884Y-70399775D01*
X172463902Y-70399770D01*
X172465253Y-70399385D01*
X172466356Y-70399136D01*
X172467748Y-70398903D01*
X172467757Y-70398902D01*
X172478095Y-70397179D01*
X172478134Y-70397172D01*
X172478356Y-70397136D01*
X172478586Y-70397101D01*
X172478797Y-70397070D01*
X172478900Y-70397055D01*
X172485454Y-70396119D01*
X172489316Y-70395475D01*
X172489327Y-70395474D01*
X172491356Y-70395136D01*
X172493000Y-70395000D01*
X172707000Y-70395000D01*
X172708644Y-70395136D01*
X172710673Y-70395474D01*
X172710683Y-70395475D01*
X172714546Y-70396119D01*
X172721099Y-70397055D01*
X172721188Y-70397068D01*
X172721414Y-70397101D01*
X172721644Y-70397136D01*
X172721877Y-70397174D01*
X172721904Y-70397179D01*
X172732242Y-70398902D01*
X172732247Y-70398903D01*
X172733644Y-70399136D01*
X172734747Y-70399385D01*
X172736100Y-70399771D01*
X172736115Y-70399775D01*
X172741234Y-70401238D01*
X172741252Y-70401243D01*
X172741747Y-70401385D01*
X172742162Y-70401513D01*
X172742662Y-70401679D01*
X172742676Y-70401684D01*
X172746473Y-70402950D01*
X172748162Y-70403513D01*
X172749472Y-70404056D01*
X172751056Y-70404848D01*
X172751068Y-70404853D01*
X172766600Y-70412619D01*
X172766620Y-70412630D01*
X172767472Y-70413056D01*
X172768145Y-70413425D01*
X172768952Y-70413909D01*
X172768968Y-70413918D01*
X172771704Y-70415560D01*
X172771708Y-70415562D01*
X172773145Y-70416425D01*
X172774247Y-70417191D01*
X172778079Y-70420256D01*
X172779786Y-70421505D01*
X172784547Y-70424679D01*
X172785247Y-70425191D01*
X172790247Y-70429191D01*
X172791809Y-70430753D01*
X172793543Y-70432921D01*
X172797078Y-70436456D01*
X172799247Y-70438191D01*
X172800809Y-70439753D01*
X172804809Y-70444753D01*
X172805321Y-70445453D01*
X172808352Y-70449999D01*
X172808482Y-70450195D01*
X172809755Y-70451935D01*
X172811003Y-70453496D01*
X172825986Y-70472203D01*
X172874014Y-70472203D01*
X172888996Y-70453496D01*
X172890244Y-70451935D01*
X172891518Y-70450195D01*
X172891649Y-70449999D01*
X172892370Y-70448916D01*
X172894075Y-70446358D01*
X172894082Y-70446347D01*
X172894679Y-70445453D01*
X172895191Y-70444753D01*
X172899191Y-70439753D01*
X172900753Y-70438191D01*
X172902924Y-70436453D01*
X172906453Y-70432924D01*
X172908191Y-70430753D01*
X172909753Y-70429191D01*
X172914753Y-70425191D01*
X172915453Y-70424679D01*
X172916347Y-70424082D01*
X172916358Y-70424075D01*
X172918912Y-70422373D01*
X172920194Y-70421518D01*
X172921936Y-70420244D01*
X172924437Y-70418243D01*
X172924444Y-70418237D01*
X172925753Y-70417191D01*
X172926855Y-70416425D01*
X172928284Y-70415567D01*
X172928295Y-70415560D01*
X172931031Y-70413918D01*
X172931058Y-70413903D01*
X172931855Y-70413425D01*
X172932528Y-70413056D01*
X172933368Y-70412635D01*
X172933399Y-70412619D01*
X172948931Y-70404853D01*
X172948948Y-70404845D01*
X172950528Y-70404056D01*
X172951838Y-70403513D01*
X172953521Y-70402951D01*
X172953526Y-70402950D01*
X172957323Y-70401684D01*
X172957350Y-70401675D01*
X172957838Y-70401513D01*
X172958253Y-70401385D01*
X172958734Y-70401247D01*
X172958765Y-70401238D01*
X172963884Y-70399775D01*
X172963902Y-70399770D01*
X172965253Y-70399385D01*
X172966356Y-70399136D01*
X172967748Y-70398903D01*
X172967757Y-70398902D01*
X172978095Y-70397179D01*
X172978134Y-70397172D01*
X172978356Y-70397136D01*
X172978586Y-70397101D01*
X172978797Y-70397070D01*
X172978900Y-70397055D01*
X172985454Y-70396119D01*
X172989316Y-70395475D01*
X172989327Y-70395474D01*
X172991356Y-70395136D01*
X172993000Y-70395000D01*
X173207000Y-70395000D01*
X173208644Y-70395136D01*
X173210673Y-70395474D01*
X173210683Y-70395475D01*
X173214546Y-70396119D01*
X173221099Y-70397055D01*
X173221188Y-70397068D01*
X173221414Y-70397101D01*
X173221644Y-70397136D01*
X173221877Y-70397174D01*
X173221904Y-70397179D01*
X173232242Y-70398902D01*
X173232247Y-70398903D01*
X173233644Y-70399136D01*
X173234747Y-70399385D01*
X173236100Y-70399771D01*
X173236115Y-70399775D01*
X173241234Y-70401238D01*
X173241252Y-70401243D01*
X173241747Y-70401385D01*
X173242162Y-70401513D01*
X173242662Y-70401679D01*
X173242676Y-70401684D01*
X173246473Y-70402950D01*
X173248162Y-70403513D01*
X173249472Y-70404056D01*
X173251056Y-70404848D01*
X173251068Y-70404853D01*
X173260600Y-70409619D01*
X173260620Y-70409630D01*
X173261472Y-70410056D01*
X173262145Y-70410425D01*
X173265801Y-70412619D01*
X173265993Y-70412734D01*
X173267675Y-70413657D01*
X173270109Y-70414873D01*
X173270119Y-70414879D01*
X173272472Y-70416056D01*
X173274247Y-70417191D01*
X173278079Y-70420256D01*
X173279786Y-70421505D01*
X173284547Y-70424679D01*
X173285247Y-70425191D01*
X173290247Y-70429191D01*
X173291809Y-70430753D01*
X173293543Y-70432921D01*
X173297078Y-70436456D01*
X173299247Y-70438191D01*
X173300809Y-70439753D01*
X173304809Y-70444753D01*
X173305321Y-70445453D01*
X173308352Y-70449999D01*
X173308478Y-70450189D01*
X173309756Y-70451936D01*
X173311256Y-70453811D01*
X173312809Y-70455753D01*
X173313575Y-70456855D01*
X173316575Y-70461855D01*
X173316944Y-70462528D01*
X173325944Y-70480528D01*
X173326487Y-70481838D01*
X173328487Y-70487838D01*
X173328615Y-70488253D01*
X173330615Y-70495253D01*
X173330864Y-70496356D01*
X173332864Y-70508356D01*
X173332899Y-70508586D01*
X173332942Y-70508887D01*
X173332944Y-70508900D01*
X173333881Y-70515454D01*
X173334524Y-70519316D01*
X173334864Y-70521356D01*
X173335000Y-70523000D01*
X173335000Y-70525067D01*
X173335000Y-70762410D01*
X173412023Y-70780593D01*
X173417738Y-70769160D01*
X173418513Y-70766838D01*
X173419056Y-70765528D01*
X173425056Y-70753528D01*
X173425425Y-70752855D01*
X173428218Y-70748198D01*
X173429872Y-70744892D01*
X173429881Y-70744877D01*
X173431056Y-70742528D01*
X173432191Y-70740753D01*
X173433838Y-70738694D01*
X173433842Y-70738688D01*
X173435244Y-70736936D01*
X173436522Y-70735189D01*
X173439075Y-70731358D01*
X173439082Y-70731347D01*
X173439679Y-70730453D01*
X173440191Y-70729753D01*
X173444191Y-70724753D01*
X173445753Y-70723191D01*
X173447924Y-70721453D01*
X173451453Y-70717924D01*
X173453191Y-70715753D01*
X173454753Y-70714191D01*
X173459753Y-70710191D01*
X173460453Y-70709679D01*
X173461347Y-70709082D01*
X173461358Y-70709075D01*
X173463912Y-70707373D01*
X173465194Y-70706518D01*
X173466936Y-70705244D01*
X173469437Y-70703243D01*
X173469444Y-70703237D01*
X173470753Y-70702191D01*
X173471855Y-70701425D01*
X173473284Y-70700567D01*
X173473295Y-70700560D01*
X173476031Y-70698918D01*
X173476058Y-70698903D01*
X173476855Y-70698425D01*
X173477528Y-70698056D01*
X173478368Y-70697635D01*
X173478399Y-70697619D01*
X173493931Y-70689853D01*
X173493948Y-70689845D01*
X173495528Y-70689056D01*
X173496838Y-70688513D01*
X173498521Y-70687951D01*
X173498526Y-70687950D01*
X173502323Y-70686684D01*
X173502350Y-70686675D01*
X173502838Y-70686513D01*
X173503253Y-70686385D01*
X173503734Y-70686247D01*
X173503765Y-70686238D01*
X173508884Y-70684775D01*
X173508902Y-70684770D01*
X173510253Y-70684385D01*
X173511356Y-70684136D01*
X173512748Y-70683903D01*
X173512757Y-70683902D01*
X173523095Y-70682179D01*
X173523134Y-70682172D01*
X173523356Y-70682136D01*
X173523586Y-70682101D01*
X173523797Y-70682070D01*
X173523900Y-70682055D01*
X173530454Y-70681119D01*
X173534316Y-70680475D01*
X173534327Y-70680474D01*
X173536356Y-70680136D01*
X173538000Y-70680000D01*
X173992000Y-70680000D01*
X173993644Y-70680136D01*
X173995673Y-70680474D01*
X173995683Y-70680475D01*
X173999546Y-70681119D01*
X174006099Y-70682055D01*
X174006188Y-70682068D01*
X174006414Y-70682101D01*
X174006644Y-70682136D01*
X174006877Y-70682174D01*
X174006904Y-70682179D01*
X174017242Y-70683902D01*
X174017247Y-70683903D01*
X174018644Y-70684136D01*
X174019747Y-70684385D01*
X174021100Y-70684771D01*
X174021115Y-70684775D01*
X174026234Y-70686238D01*
X174026252Y-70686243D01*
X174026747Y-70686385D01*
X174027162Y-70686513D01*
X174027662Y-70686679D01*
X174027676Y-70686684D01*
X174031473Y-70687950D01*
X174033162Y-70688513D01*
X174034472Y-70689056D01*
X174036056Y-70689848D01*
X174036068Y-70689853D01*
X174051600Y-70697619D01*
X174051620Y-70697630D01*
X174052472Y-70698056D01*
X174053145Y-70698425D01*
X174053952Y-70698909D01*
X174053968Y-70698918D01*
X174056704Y-70700560D01*
X174056708Y-70700562D01*
X174058145Y-70701425D01*
X174059247Y-70702191D01*
X174063079Y-70705256D01*
X174064786Y-70706505D01*
X174069547Y-70709679D01*
X174070247Y-70710191D01*
X174075247Y-70714191D01*
X174076809Y-70715753D01*
X174078543Y-70717921D01*
X174082078Y-70721456D01*
X174084247Y-70723191D01*
X174085809Y-70724753D01*
X174089809Y-70729753D01*
X174090321Y-70730453D01*
X174090924Y-70731358D01*
X174093478Y-70735189D01*
X174094756Y-70736936D01*
X174096157Y-70738688D01*
X174097809Y-70740753D01*
X174098944Y-70742528D01*
X174100121Y-70744882D01*
X174100126Y-70744890D01*
X174101343Y-70747325D01*
X174102263Y-70749003D01*
X174104575Y-70752855D01*
X174104944Y-70753528D01*
X174105374Y-70754388D01*
X174105380Y-70754399D01*
X174109386Y-70762410D01*
X174110944Y-70765528D01*
X174111487Y-70766838D01*
X174113487Y-70772838D01*
X174113615Y-70773253D01*
X174115615Y-70780253D01*
X174115864Y-70781356D01*
X174117864Y-70793356D01*
X174117899Y-70793586D01*
X174117942Y-70793887D01*
X174117944Y-70793900D01*
X174118881Y-70800454D01*
X174119524Y-70804316D01*
X174119864Y-70806356D01*
X174120000Y-70808000D01*
X174120000Y-71022000D01*
X174119864Y-71023644D01*
X174119524Y-71025683D01*
X174118881Y-71029546D01*
X174117944Y-71036099D01*
X174117899Y-71036414D01*
X174117864Y-71036644D01*
X174115864Y-71048644D01*
X174115615Y-71049747D01*
X174113615Y-71056747D01*
X174113487Y-71057162D01*
X174111487Y-71063162D01*
X174110944Y-71064472D01*
X174104944Y-71076472D01*
X174104575Y-71077145D01*
X174103776Y-71078476D01*
X174102266Y-71080993D01*
X174101343Y-71082675D01*
X174100461Y-71084439D01*
X174098944Y-71087472D01*
X174097809Y-71089247D01*
X174094743Y-71093079D01*
X174093494Y-71094786D01*
X174090321Y-71099547D01*
X174089809Y-71100247D01*
X174085809Y-71105247D01*
X174084247Y-71106809D01*
X174082080Y-71108541D01*
X174078541Y-71112080D01*
X174076809Y-71114247D01*
X174075247Y-71115809D01*
X174070247Y-71119809D01*
X174069547Y-71120321D01*
X174064789Y-71123492D01*
X174063081Y-71124741D01*
X174059247Y-71127809D01*
X174059225Y-71127823D01*
X174042795Y-71140963D01*
X174042795Y-71189037D01*
X174059225Y-71202176D01*
X174059247Y-71202191D01*
X174063081Y-71205258D01*
X174064789Y-71206507D01*
X174069547Y-71209679D01*
X174070247Y-71210191D01*
X174075247Y-71214191D01*
X174076809Y-71215753D01*
X174078543Y-71217921D01*
X174082078Y-71221456D01*
X174084247Y-71223191D01*
X174085809Y-71224753D01*
X174089809Y-71229753D01*
X174090321Y-71230453D01*
X174090924Y-71231358D01*
X174093478Y-71235189D01*
X174094756Y-71236936D01*
X174096157Y-71238688D01*
X174097809Y-71240753D01*
X174098944Y-71242528D01*
X174100121Y-71244882D01*
X174100126Y-71244890D01*
X174101343Y-71247325D01*
X174102263Y-71249003D01*
X174104575Y-71252855D01*
X174104944Y-71253528D01*
X174110944Y-71265528D01*
X174111487Y-71266838D01*
X174113487Y-71272838D01*
X174113615Y-71273253D01*
X174115615Y-71280253D01*
X174115864Y-71281356D01*
X174117864Y-71293356D01*
X174117899Y-71293586D01*
X174117942Y-71293887D01*
X174117944Y-71293900D01*
X174118881Y-71300454D01*
X174119524Y-71304316D01*
X174119864Y-71306356D01*
X174120000Y-71308000D01*
X174120000Y-71522000D01*
X174119864Y-71523644D01*
X174119524Y-71525683D01*
X174118881Y-71529546D01*
X174117944Y-71536099D01*
X174117899Y-71536414D01*
X174117864Y-71536644D01*
X174115864Y-71548644D01*
X174115615Y-71549747D01*
X174113615Y-71556747D01*
X174113487Y-71557162D01*
X174111487Y-71563162D01*
X174110944Y-71564472D01*
X174104944Y-71576472D01*
X174104575Y-71577145D01*
X174102266Y-71580993D01*
X174101343Y-71582675D01*
X174098944Y-71587472D01*
X174097809Y-71589247D01*
X174094743Y-71593079D01*
X174093494Y-71594786D01*
X174090321Y-71599547D01*
X174089809Y-71600247D01*
X174085809Y-71605247D01*
X174084247Y-71606809D01*
X174082080Y-71608541D01*
X174078541Y-71612080D01*
X174076809Y-71614247D01*
X174075247Y-71615809D01*
X174070247Y-71619809D01*
X174069547Y-71620321D01*
X174064789Y-71623492D01*
X174063081Y-71624741D01*
X174059247Y-71627809D01*
X174059225Y-71627823D01*
X174042795Y-71640963D01*
X174042795Y-71689037D01*
X174059225Y-71702176D01*
X174059247Y-71702191D01*
X174063081Y-71705258D01*
X174064789Y-71706507D01*
X174069547Y-71709679D01*
X174070247Y-71710191D01*
X174075247Y-71714191D01*
X174076809Y-71715753D01*
X174078543Y-71717921D01*
X174082078Y-71721456D01*
X174084247Y-71723191D01*
X174085809Y-71724753D01*
X174089809Y-71729753D01*
X174090321Y-71730453D01*
X174090924Y-71731358D01*
X174093478Y-71735189D01*
X174094756Y-71736936D01*
X174096157Y-71738688D01*
X174097809Y-71740753D01*
X174098944Y-71742528D01*
X174100121Y-71744882D01*
X174100126Y-71744890D01*
X174101343Y-71747325D01*
X174102263Y-71749003D01*
X174104575Y-71752855D01*
X174104944Y-71753528D01*
X174110944Y-71765528D01*
X174111487Y-71766838D01*
X174113487Y-71772838D01*
X174113615Y-71773253D01*
X174115615Y-71780253D01*
X174115864Y-71781356D01*
X174117864Y-71793356D01*
X174117899Y-71793586D01*
X174117942Y-71793887D01*
X174117944Y-71793900D01*
X174118881Y-71800454D01*
X174119524Y-71804316D01*
X174119864Y-71806356D01*
X174120000Y-71808000D01*
X174120000Y-72022000D01*
X174119864Y-72023644D01*
X174119524Y-72025683D01*
X174118881Y-72029546D01*
X174117944Y-72036099D01*
X174117899Y-72036414D01*
X174117864Y-72036644D01*
X174115864Y-72048644D01*
X174115615Y-72049747D01*
X174113615Y-72056747D01*
X174113487Y-72057162D01*
X174111487Y-72063162D01*
X174110944Y-72064472D01*
X174104944Y-72076472D01*
X174104575Y-72077145D01*
X174102266Y-72080993D01*
X174101343Y-72082675D01*
X174098944Y-72087472D01*
X174097809Y-72089247D01*
X174094743Y-72093079D01*
X174093494Y-72094786D01*
X174090321Y-72099547D01*
X174089809Y-72100247D01*
X174085809Y-72105247D01*
X174084247Y-72106809D01*
X174082080Y-72108541D01*
X174078541Y-72112080D01*
X174076809Y-72114247D01*
X174075247Y-72115809D01*
X174070247Y-72119809D01*
X174069547Y-72120321D01*
X174064789Y-72123492D01*
X174063081Y-72124741D01*
X174059247Y-72127809D01*
X174059225Y-72127823D01*
X174042795Y-72140963D01*
X174042795Y-72189037D01*
X174059225Y-72202176D01*
X174059247Y-72202191D01*
X174063081Y-72205258D01*
X174064789Y-72206507D01*
X174069547Y-72209679D01*
X174070247Y-72210191D01*
X174075247Y-72214191D01*
X174076809Y-72215753D01*
X174078543Y-72217921D01*
X174082078Y-72221456D01*
X174084247Y-72223191D01*
X174085809Y-72224753D01*
X174089809Y-72229753D01*
X174090321Y-72230453D01*
X174091986Y-72232950D01*
X174093478Y-72235189D01*
X174094756Y-72236936D01*
X174096157Y-72238688D01*
X174097809Y-72240753D01*
X174098944Y-72242528D01*
X174100121Y-72244882D01*
X174100126Y-72244890D01*
X174101343Y-72247325D01*
X174102263Y-72249003D01*
X174104575Y-72252855D01*
X174104944Y-72253528D01*
X174105374Y-72254388D01*
X174105380Y-72254399D01*
X174108557Y-72260753D01*
X174110944Y-72265528D01*
X174111487Y-72266838D01*
X174113487Y-72272838D01*
X174113615Y-72273253D01*
X174115615Y-72280253D01*
X174115864Y-72281356D01*
X174117864Y-72293356D01*
X174117899Y-72293586D01*
X174117942Y-72293887D01*
X174117944Y-72293900D01*
X174118881Y-72300454D01*
X174119172Y-72302203D01*
X174119864Y-72306356D01*
X174120000Y-72308000D01*
X174120000Y-72522000D01*
X174119864Y-72523644D01*
X174119524Y-72525683D01*
X174118881Y-72529546D01*
X174118011Y-72535628D01*
X174117899Y-72536414D01*
X174117864Y-72536644D01*
X174115864Y-72548644D01*
X174115615Y-72549747D01*
X174113615Y-72556747D01*
X174113487Y-72557162D01*
X174111487Y-72563162D01*
X174110944Y-72564472D01*
X174104944Y-72576472D01*
X174104575Y-72577145D01*
X174102266Y-72580993D01*
X174101343Y-72582675D01*
X174100127Y-72585107D01*
X174098944Y-72587472D01*
X174097809Y-72589247D01*
X174094743Y-72593079D01*
X174093494Y-72594786D01*
X174090321Y-72599547D01*
X174089809Y-72600247D01*
X174085809Y-72605247D01*
X174084247Y-72606809D01*
X174082080Y-72608541D01*
X174078541Y-72612080D01*
X174076809Y-72614247D01*
X174075247Y-72615809D01*
X174070247Y-72619809D01*
X174069547Y-72620321D01*
X174064786Y-72623494D01*
X174063079Y-72624743D01*
X174059247Y-72627809D01*
X174058145Y-72628575D01*
X174053145Y-72631575D01*
X174052472Y-72631944D01*
X174034472Y-72640944D01*
X174033162Y-72641487D01*
X174027162Y-72643487D01*
X174026747Y-72643615D01*
X174019747Y-72645615D01*
X174018644Y-72645864D01*
X174006644Y-72647864D01*
X174006414Y-72647899D01*
X174006099Y-72647944D01*
X173999546Y-72648881D01*
X173996455Y-72649395D01*
X173993644Y-72649864D01*
X173992000Y-72650000D01*
X173989933Y-72650000D01*
X173540067Y-72650000D01*
X173538000Y-72650000D01*
X173536356Y-72649864D01*
X173534316Y-72649524D01*
X173530454Y-72648881D01*
X173523900Y-72647944D01*
X173523887Y-72647942D01*
X173523586Y-72647899D01*
X173523356Y-72647864D01*
X173511356Y-72645864D01*
X173510253Y-72645615D01*
X173508886Y-72645224D01*
X173508884Y-72645224D01*
X173507177Y-72644736D01*
X173503253Y-72643615D01*
X173502838Y-72643487D01*
X173496838Y-72641487D01*
X173495528Y-72640944D01*
X173493936Y-72640148D01*
X173493931Y-72640146D01*
X173478399Y-72632380D01*
X173478388Y-72632374D01*
X173477528Y-72631944D01*
X173476855Y-72631575D01*
X173476038Y-72631085D01*
X173476031Y-72631081D01*
X173473295Y-72629439D01*
X173471855Y-72628575D01*
X173470753Y-72627809D01*
X173466939Y-72624758D01*
X173466936Y-72624756D01*
X173465189Y-72623478D01*
X173465186Y-72623476D01*
X173460453Y-72620321D01*
X173459753Y-72619809D01*
X173454753Y-72615809D01*
X173453191Y-72614247D01*
X173451456Y-72612078D01*
X173447921Y-72608543D01*
X173445753Y-72606809D01*
X173444191Y-72605247D01*
X173440191Y-72600247D01*
X173439679Y-72599547D01*
X173436505Y-72594786D01*
X173435256Y-72593079D01*
X173432191Y-72589247D01*
X173431056Y-72587472D01*
X173429878Y-72585117D01*
X173429872Y-72585107D01*
X173428221Y-72581805D01*
X173425425Y-72577145D01*
X173425056Y-72576472D01*
X173419056Y-72564472D01*
X173418513Y-72563162D01*
X173417738Y-72560838D01*
X173412023Y-72549407D01*
X173335000Y-72567590D01*
X173335000Y-72807000D01*
X173334864Y-72808644D01*
X173334524Y-72810683D01*
X173333881Y-72814546D01*
X173333101Y-72820000D01*
X173332899Y-72821414D01*
X173332864Y-72821644D01*
X173330864Y-72833644D01*
X173330615Y-72834747D01*
X173328615Y-72841747D01*
X173328487Y-72842162D01*
X173326487Y-72848162D01*
X173325944Y-72849472D01*
X173316944Y-72867472D01*
X173316575Y-72868145D01*
X173313575Y-72873145D01*
X173312809Y-72874247D01*
X173309743Y-72878079D01*
X173308494Y-72879786D01*
X173305321Y-72884547D01*
X173304809Y-72885247D01*
X173300809Y-72890247D01*
X173299247Y-72891809D01*
X173297080Y-72893541D01*
X173293541Y-72897080D01*
X173291809Y-72899247D01*
X173290247Y-72900809D01*
X173285247Y-72904809D01*
X173284547Y-72905321D01*
X173279786Y-72908494D01*
X173278079Y-72909743D01*
X173274247Y-72912809D01*
X173272472Y-72913944D01*
X173270112Y-72915123D01*
X173270109Y-72915126D01*
X173267675Y-72916343D01*
X173265996Y-72917263D01*
X173262145Y-72919575D01*
X173261472Y-72919944D01*
X173249472Y-72925944D01*
X173248162Y-72926487D01*
X173242162Y-72928487D01*
X173241747Y-72928615D01*
X173234747Y-72930615D01*
X173233644Y-72930864D01*
X173221644Y-72932864D01*
X173221414Y-72932899D01*
X173221099Y-72932944D01*
X173214546Y-72933881D01*
X173211455Y-72934395D01*
X173208644Y-72934864D01*
X173207000Y-72935000D01*
X173204933Y-72935000D01*
X172995067Y-72935000D01*
X172993000Y-72935000D01*
X172991356Y-72934864D01*
X172989316Y-72934524D01*
X172985454Y-72933881D01*
X172978900Y-72932944D01*
X172978887Y-72932942D01*
X172978586Y-72932899D01*
X172978356Y-72932864D01*
X172966356Y-72930864D01*
X172965253Y-72930615D01*
X172963886Y-72930224D01*
X172963884Y-72930224D01*
X172962177Y-72929736D01*
X172958253Y-72928615D01*
X172957838Y-72928487D01*
X172951838Y-72926487D01*
X172950528Y-72925944D01*
X172948936Y-72925148D01*
X172948931Y-72925146D01*
X172939399Y-72920380D01*
X172939388Y-72920374D01*
X172938528Y-72919944D01*
X172937855Y-72919575D01*
X172934003Y-72917263D01*
X172932325Y-72916343D01*
X172929890Y-72915126D01*
X172929882Y-72915121D01*
X172927528Y-72913944D01*
X172925753Y-72912809D01*
X172921939Y-72909758D01*
X172921936Y-72909756D01*
X172920189Y-72908478D01*
X172920186Y-72908476D01*
X172915453Y-72905321D01*
X172914753Y-72904809D01*
X172909753Y-72900809D01*
X172908191Y-72899247D01*
X172906456Y-72897078D01*
X172902921Y-72893543D01*
X172900753Y-72891809D01*
X172899191Y-72890247D01*
X172895191Y-72885247D01*
X172894679Y-72884547D01*
X172891507Y-72879789D01*
X172890258Y-72878081D01*
X172887191Y-72874247D01*
X172887176Y-72874225D01*
X172874037Y-72857795D01*
X172825963Y-72857795D01*
X172812823Y-72874225D01*
X172812809Y-72874247D01*
X172809741Y-72878081D01*
X172808492Y-72879789D01*
X172805321Y-72884547D01*
X172804809Y-72885247D01*
X172800809Y-72890247D01*
X172799247Y-72891809D01*
X172797080Y-72893541D01*
X172793541Y-72897080D01*
X172791809Y-72899247D01*
X172790247Y-72900809D01*
X172785247Y-72904809D01*
X172784547Y-72905321D01*
X172779786Y-72908494D01*
X172778079Y-72909743D01*
X172774247Y-72912809D01*
X172773145Y-72913575D01*
X172768145Y-72916575D01*
X172767472Y-72916944D01*
X172749472Y-72925944D01*
X172748162Y-72926487D01*
X172742162Y-72928487D01*
X172741747Y-72928615D01*
X172734747Y-72930615D01*
X172733644Y-72930864D01*
X172721644Y-72932864D01*
X172721414Y-72932899D01*
X172721099Y-72932944D01*
X172714546Y-72933881D01*
X172711455Y-72934395D01*
X172708644Y-72934864D01*
X172707000Y-72935000D01*
X172704933Y-72935000D01*
X172495067Y-72935000D01*
X172493000Y-72935000D01*
X172491356Y-72934864D01*
X172489316Y-72934524D01*
X172485454Y-72933881D01*
X172478900Y-72932944D01*
X172478887Y-72932942D01*
X172478586Y-72932899D01*
X172478356Y-72932864D01*
X172466356Y-72930864D01*
X172465253Y-72930615D01*
X172463886Y-72930224D01*
X172463884Y-72930224D01*
X172462177Y-72929736D01*
X172458253Y-72928615D01*
X172457838Y-72928487D01*
X172451838Y-72926487D01*
X172450528Y-72925944D01*
X172448936Y-72925148D01*
X172448931Y-72925146D01*
X172439399Y-72920380D01*
X172439388Y-72920374D01*
X172438528Y-72919944D01*
X172437855Y-72919575D01*
X172434003Y-72917263D01*
X172432325Y-72916343D01*
X172429890Y-72915126D01*
X172429882Y-72915121D01*
X172427528Y-72913944D01*
X172425753Y-72912809D01*
X172421939Y-72909758D01*
X172421936Y-72909756D01*
X172420189Y-72908478D01*
X172420186Y-72908476D01*
X172415453Y-72905321D01*
X172414753Y-72904809D01*
X172409753Y-72900809D01*
X172408191Y-72899247D01*
X172406456Y-72897078D01*
X172402921Y-72893543D01*
X172400753Y-72891809D01*
X172399191Y-72890247D01*
X172395191Y-72885247D01*
X172394679Y-72884547D01*
X172391507Y-72879789D01*
X172390258Y-72878081D01*
X172387191Y-72874247D01*
X172387176Y-72874225D01*
X172374037Y-72857795D01*
X172325963Y-72857795D01*
X172312823Y-72874225D01*
X172312809Y-72874247D01*
X172309741Y-72878081D01*
X172308492Y-72879789D01*
X172305321Y-72884547D01*
X172304809Y-72885247D01*
X172300809Y-72890247D01*
X172299247Y-72891809D01*
X172297080Y-72893541D01*
X172293541Y-72897080D01*
X172291809Y-72899247D01*
X172290247Y-72900809D01*
X172285247Y-72904809D01*
X172284547Y-72905321D01*
X172279786Y-72908494D01*
X172278079Y-72909743D01*
X172274247Y-72912809D01*
X172272472Y-72913944D01*
X172270112Y-72915123D01*
X172270109Y-72915126D01*
X172267675Y-72916343D01*
X172265996Y-72917263D01*
X172262145Y-72919575D01*
X172261472Y-72919944D01*
X172249472Y-72925944D01*
X172248162Y-72926487D01*
X172242162Y-72928487D01*
X172241747Y-72928615D01*
X172234747Y-72930615D01*
X172233644Y-72930864D01*
X172221644Y-72932864D01*
X172221414Y-72932899D01*
X172221099Y-72932944D01*
X172214546Y-72933881D01*
X172211455Y-72934395D01*
X172208644Y-72934864D01*
X172207000Y-72935000D01*
X172204933Y-72935000D01*
X171995067Y-72935000D01*
X171993000Y-72935000D01*
X171991356Y-72934864D01*
X171989316Y-72934524D01*
X171985454Y-72933881D01*
X171978900Y-72932944D01*
X171978887Y-72932942D01*
X171978586Y-72932899D01*
X171978356Y-72932864D01*
X171966356Y-72930864D01*
X171965253Y-72930615D01*
X171963886Y-72930224D01*
X171963884Y-72930224D01*
X171962177Y-72929736D01*
X171958253Y-72928615D01*
X171957838Y-72928487D01*
X171951838Y-72926487D01*
X171950528Y-72925944D01*
X171948936Y-72925148D01*
X171948931Y-72925146D01*
X171939399Y-72920380D01*
X171939388Y-72920374D01*
X171938528Y-72919944D01*
X171937855Y-72919575D01*
X171934003Y-72917263D01*
X171932325Y-72916343D01*
X171929890Y-72915126D01*
X171929882Y-72915121D01*
X171927528Y-72913944D01*
X171925753Y-72912809D01*
X171921939Y-72909758D01*
X171921936Y-72909756D01*
X171920189Y-72908478D01*
X171920186Y-72908476D01*
X171915453Y-72905321D01*
X171914753Y-72904809D01*
X171909753Y-72900809D01*
X171908191Y-72899247D01*
X171906456Y-72897078D01*
X171902921Y-72893543D01*
X171900753Y-72891809D01*
X171899191Y-72890247D01*
X171895191Y-72885247D01*
X171894679Y-72884547D01*
X171891505Y-72879786D01*
X171890256Y-72878079D01*
X171887191Y-72874247D01*
X171886425Y-72873145D01*
X171885560Y-72871704D01*
X171883918Y-72868968D01*
X171883909Y-72868952D01*
X171883425Y-72868145D01*
X171883056Y-72867472D01*
X171882630Y-72866620D01*
X171882619Y-72866600D01*
X171874853Y-72851068D01*
X171874848Y-72851056D01*
X171874056Y-72849472D01*
X171873513Y-72848162D01*
X171871513Y-72842162D01*
X171871385Y-72841747D01*
X171871238Y-72841234D01*
X171869775Y-72836115D01*
X171869771Y-72836100D01*
X171869385Y-72834747D01*
X171869136Y-72833644D01*
X171868789Y-72831561D01*
X171867179Y-72821904D01*
X171867174Y-72821877D01*
X171867136Y-72821644D01*
X171867101Y-72821414D01*
X171867068Y-72821188D01*
X171867055Y-72821099D01*
X171866119Y-72814546D01*
X171865475Y-72810683D01*
X171865474Y-72810673D01*
X171865136Y-72808644D01*
X171865000Y-72807000D01*
X171865000Y-72567590D01*
X171787977Y-72549407D01*
X171782262Y-72560837D01*
X171781487Y-72563162D01*
X171780944Y-72564472D01*
X171774944Y-72576472D01*
X171774575Y-72577145D01*
X171771773Y-72581815D01*
X171770127Y-72585107D01*
X171770126Y-72585109D01*
X171768944Y-72587472D01*
X171767809Y-72589247D01*
X171764743Y-72593079D01*
X171763494Y-72594786D01*
X171760321Y-72599547D01*
X171759809Y-72600247D01*
X171755809Y-72605247D01*
X171754247Y-72606809D01*
X171752080Y-72608541D01*
X171748541Y-72612080D01*
X171746809Y-72614247D01*
X171745247Y-72615809D01*
X171740247Y-72619809D01*
X171739547Y-72620321D01*
X171734786Y-72623494D01*
X171733079Y-72624743D01*
X171729247Y-72627809D01*
X171728145Y-72628575D01*
X171723145Y-72631575D01*
X171722472Y-72631944D01*
X171704472Y-72640944D01*
X171703162Y-72641487D01*
X171697162Y-72643487D01*
X171696747Y-72643615D01*
X171689747Y-72645615D01*
X171688644Y-72645864D01*
X171676644Y-72647864D01*
X171676414Y-72647899D01*
X171676099Y-72647944D01*
X171669546Y-72648881D01*
X171666455Y-72649395D01*
X171663644Y-72649864D01*
X171662000Y-72650000D01*
X171659933Y-72650000D01*
X171210067Y-72650000D01*
X171208000Y-72650000D01*
X171206356Y-72649864D01*
X171204316Y-72649524D01*
X171200454Y-72648881D01*
X171193900Y-72647944D01*
X171193887Y-72647942D01*
X171193586Y-72647899D01*
X171193356Y-72647864D01*
X171181356Y-72645864D01*
X171180253Y-72645615D01*
X171178886Y-72645224D01*
X171178884Y-72645224D01*
X171177177Y-72644736D01*
X171173253Y-72643615D01*
X171172838Y-72643487D01*
X171166838Y-72641487D01*
X171165528Y-72640944D01*
X171163936Y-72640148D01*
X171163931Y-72640146D01*
X171148399Y-72632380D01*
X171148388Y-72632374D01*
X171147528Y-72631944D01*
X171146855Y-72631575D01*
X171146038Y-72631085D01*
X171146031Y-72631081D01*
X171143295Y-72629439D01*
X171141855Y-72628575D01*
X171140753Y-72627809D01*
X171136939Y-72624758D01*
X171136936Y-72624756D01*
X171135189Y-72623478D01*
X171135186Y-72623476D01*
X171130453Y-72620321D01*
X171129753Y-72619809D01*
X171124753Y-72615809D01*
X171123191Y-72614247D01*
X171121456Y-72612078D01*
X171117921Y-72608543D01*
X171115753Y-72606809D01*
X171114191Y-72605247D01*
X171110191Y-72600247D01*
X171109679Y-72599547D01*
X171106505Y-72594786D01*
X171105256Y-72593079D01*
X171102191Y-72589247D01*
X171101056Y-72587472D01*
X171099879Y-72585119D01*
X171099873Y-72585109D01*
X171098657Y-72582675D01*
X171097734Y-72580993D01*
X171095918Y-72577967D01*
X171095915Y-72577963D01*
X171095425Y-72577145D01*
X171095056Y-72576472D01*
X171094630Y-72575620D01*
X171094619Y-72575600D01*
X171089853Y-72566068D01*
X171089848Y-72566056D01*
X171089056Y-72564472D01*
X171088513Y-72563162D01*
X171086513Y-72557162D01*
X171086385Y-72556747D01*
X171086238Y-72556234D01*
X171084775Y-72551115D01*
X171084771Y-72551100D01*
X171084385Y-72549747D01*
X171084136Y-72548644D01*
X171083252Y-72543338D01*
X171082179Y-72536904D01*
X171082174Y-72536877D01*
X171082136Y-72536644D01*
X171082101Y-72536414D01*
X171082068Y-72536188D01*
X171082055Y-72536099D01*
X171081119Y-72529546D01*
X171080475Y-72525683D01*
X171080474Y-72525673D01*
X171080136Y-72523644D01*
X171080000Y-72522000D01*
X171080000Y-72308000D01*
X171080136Y-72306356D01*
X171080474Y-72304327D01*
X171080475Y-72304316D01*
X171081119Y-72300454D01*
X171082055Y-72293900D01*
X171082070Y-72293797D01*
X171082101Y-72293586D01*
X171082136Y-72293356D01*
X171082172Y-72293134D01*
X171082179Y-72293095D01*
X171083902Y-72282757D01*
X171083903Y-72282748D01*
X171084136Y-72281356D01*
X171084385Y-72280253D01*
X171084770Y-72278902D01*
X171084775Y-72278884D01*
X171086238Y-72273765D01*
X171086247Y-72273734D01*
X171086385Y-72273253D01*
X171086513Y-72272838D01*
X171086675Y-72272350D01*
X171086684Y-72272323D01*
X171087950Y-72268526D01*
X171087951Y-72268521D01*
X171088513Y-72266838D01*
X171089056Y-72265528D01*
X171089845Y-72263948D01*
X171089853Y-72263931D01*
X171094619Y-72254399D01*
X171094635Y-72254368D01*
X171095056Y-72253528D01*
X171095425Y-72252855D01*
X171095909Y-72252047D01*
X171095918Y-72252032D01*
X171097734Y-72249007D01*
X171098657Y-72247325D01*
X171099873Y-72244890D01*
X171099884Y-72244873D01*
X171101056Y-72242528D01*
X171102191Y-72240753D01*
X171103838Y-72238694D01*
X171103842Y-72238688D01*
X171105244Y-72236936D01*
X171106522Y-72235189D01*
X171109075Y-72231358D01*
X171109082Y-72231347D01*
X171109679Y-72230453D01*
X171110191Y-72229753D01*
X171114191Y-72224753D01*
X171115753Y-72223191D01*
X171117924Y-72221453D01*
X171121453Y-72217924D01*
X171123191Y-72215753D01*
X171124753Y-72214191D01*
X171129753Y-72210191D01*
X171130453Y-72209679D01*
X171131347Y-72209082D01*
X171131358Y-72209075D01*
X171135195Y-72206518D01*
X171136935Y-72205244D01*
X171138496Y-72203996D01*
X171157203Y-72189014D01*
X171157203Y-72140986D01*
X171138496Y-72126003D01*
X171136935Y-72124755D01*
X171135195Y-72123482D01*
X171131358Y-72120924D01*
X171130453Y-72120321D01*
X171129753Y-72119809D01*
X171124753Y-72115809D01*
X171123191Y-72114247D01*
X171121456Y-72112078D01*
X171117921Y-72108543D01*
X171115753Y-72106809D01*
X171114191Y-72105247D01*
X171110191Y-72100247D01*
X171109679Y-72099547D01*
X171106505Y-72094786D01*
X171105256Y-72093079D01*
X171102191Y-72089247D01*
X171101056Y-72087472D01*
X171099879Y-72085119D01*
X171099873Y-72085109D01*
X171098657Y-72082675D01*
X171097734Y-72080993D01*
X171095918Y-72077967D01*
X171095915Y-72077963D01*
X171095425Y-72077145D01*
X171095056Y-72076472D01*
X171094630Y-72075620D01*
X171094619Y-72075600D01*
X171089853Y-72066068D01*
X171089848Y-72066056D01*
X171089056Y-72064472D01*
X171088513Y-72063162D01*
X171086513Y-72057162D01*
X171086385Y-72056747D01*
X171086238Y-72056234D01*
X171084775Y-72051115D01*
X171084771Y-72051100D01*
X171084385Y-72049747D01*
X171084136Y-72048644D01*
X171082136Y-72036644D01*
X171082101Y-72036414D01*
X171082068Y-72036188D01*
X171082055Y-72036099D01*
X171081119Y-72029546D01*
X171080475Y-72025683D01*
X171080474Y-72025673D01*
X171080136Y-72023644D01*
X171080000Y-72022000D01*
X171080000Y-71808000D01*
X171080136Y-71806356D01*
X171080474Y-71804327D01*
X171080475Y-71804316D01*
X171081119Y-71800454D01*
X171082055Y-71793900D01*
X171082070Y-71793797D01*
X171082101Y-71793586D01*
X171082136Y-71793356D01*
X171082172Y-71793134D01*
X171082179Y-71793095D01*
X171083902Y-71782757D01*
X171083903Y-71782748D01*
X171084136Y-71781356D01*
X171084385Y-71780253D01*
X171084770Y-71778902D01*
X171084775Y-71778884D01*
X171086238Y-71773765D01*
X171086247Y-71773734D01*
X171086385Y-71773253D01*
X171086513Y-71772838D01*
X171086675Y-71772350D01*
X171086684Y-71772323D01*
X171087950Y-71768526D01*
X171087951Y-71768521D01*
X171088513Y-71766838D01*
X171089056Y-71765528D01*
X171089845Y-71763948D01*
X171089853Y-71763931D01*
X171094619Y-71754399D01*
X171094635Y-71754368D01*
X171095056Y-71753528D01*
X171095425Y-71752855D01*
X171095909Y-71752047D01*
X171095918Y-71752032D01*
X171097734Y-71749007D01*
X171098657Y-71747325D01*
X171099873Y-71744890D01*
X171099882Y-71744875D01*
X171101056Y-71742528D01*
X171102191Y-71740753D01*
X171103838Y-71738694D01*
X171103842Y-71738688D01*
X171105244Y-71736936D01*
X171106522Y-71735189D01*
X171109075Y-71731358D01*
X171109082Y-71731347D01*
X171109679Y-71730453D01*
X171110191Y-71729753D01*
X171114191Y-71724753D01*
X171115753Y-71723191D01*
X171117924Y-71721453D01*
X171121453Y-71717924D01*
X171123191Y-71715753D01*
X171124753Y-71714191D01*
X171129753Y-71710191D01*
X171130453Y-71709679D01*
X171131347Y-71709082D01*
X171131358Y-71709075D01*
X171135195Y-71706518D01*
X171136935Y-71705244D01*
X171138496Y-71703996D01*
X171157203Y-71689014D01*
X171157203Y-71640986D01*
X171138496Y-71626003D01*
X171136935Y-71624755D01*
X171135195Y-71623482D01*
X171131358Y-71620924D01*
X171130453Y-71620321D01*
X171129753Y-71619809D01*
X171124753Y-71615809D01*
X171123191Y-71614247D01*
X171121456Y-71612078D01*
X171117921Y-71608543D01*
X171115753Y-71606809D01*
X171114191Y-71605247D01*
X171110191Y-71600247D01*
X171109679Y-71599547D01*
X171106505Y-71594786D01*
X171105256Y-71593079D01*
X171102191Y-71589247D01*
X171101056Y-71587472D01*
X171099879Y-71585119D01*
X171099873Y-71585109D01*
X171098657Y-71582675D01*
X171097734Y-71580993D01*
X171095918Y-71577967D01*
X171095915Y-71577963D01*
X171095425Y-71577145D01*
X171095056Y-71576472D01*
X171094630Y-71575620D01*
X171094619Y-71575600D01*
X171089853Y-71566068D01*
X171089848Y-71566056D01*
X171089056Y-71564472D01*
X171088513Y-71563162D01*
X171086513Y-71557162D01*
X171086385Y-71556747D01*
X171086238Y-71556234D01*
X171084775Y-71551115D01*
X171084771Y-71551100D01*
X171084385Y-71549747D01*
X171084136Y-71548644D01*
X171083542Y-71545077D01*
X171082179Y-71536904D01*
X171082174Y-71536877D01*
X171082136Y-71536644D01*
X171082101Y-71536414D01*
X171082068Y-71536188D01*
X171082055Y-71536099D01*
X171081119Y-71529546D01*
X171080475Y-71525683D01*
X171080474Y-71525673D01*
X171080136Y-71523644D01*
X171080000Y-71522000D01*
X171080000Y-71308000D01*
X171080136Y-71306356D01*
X171080474Y-71304327D01*
X171080475Y-71304316D01*
X171081119Y-71300454D01*
X171082055Y-71293900D01*
X171082070Y-71293797D01*
X171082101Y-71293586D01*
X171082136Y-71293356D01*
X171082172Y-71293134D01*
X171082179Y-71293095D01*
X171083902Y-71282757D01*
X171083903Y-71282748D01*
X171084136Y-71281356D01*
X171084385Y-71280253D01*
X171084770Y-71278902D01*
X171084775Y-71278884D01*
X171086238Y-71273765D01*
X171086247Y-71273734D01*
X171086385Y-71273253D01*
X171086513Y-71272838D01*
X171086675Y-71272350D01*
X171086684Y-71272323D01*
X171087950Y-71268526D01*
X171087951Y-71268521D01*
X171088513Y-71266838D01*
X171089056Y-71265528D01*
X171089845Y-71263948D01*
X171089853Y-71263931D01*
X171094619Y-71254399D01*
X171094635Y-71254368D01*
X171095056Y-71253528D01*
X171095425Y-71252855D01*
X171095909Y-71252047D01*
X171095918Y-71252032D01*
X171097734Y-71249007D01*
X171098657Y-71247325D01*
X171099873Y-71244890D01*
X171099882Y-71244875D01*
X171101056Y-71242528D01*
X171102191Y-71240753D01*
X171103838Y-71238694D01*
X171103842Y-71238688D01*
X171105244Y-71236936D01*
X171106522Y-71235189D01*
X171109075Y-71231358D01*
X171109082Y-71231347D01*
X171109679Y-71230453D01*
X171110191Y-71229753D01*
X171114191Y-71224753D01*
X171115753Y-71223191D01*
X171117924Y-71221453D01*
X171121453Y-71217924D01*
X171123191Y-71215753D01*
X171124753Y-71214191D01*
X171129753Y-71210191D01*
X171130453Y-71209679D01*
X171131347Y-71209082D01*
X171131358Y-71209075D01*
X171135195Y-71206518D01*
X171136935Y-71205244D01*
X171138496Y-71203996D01*
X171157203Y-71189014D01*
X171157203Y-71140986D01*
X171157174Y-71140963D01*
X171712795Y-71140963D01*
X171712795Y-71189037D01*
X171729225Y-71202176D01*
X171729247Y-71202191D01*
X171733081Y-71205258D01*
X171734789Y-71206507D01*
X171739547Y-71209679D01*
X171740247Y-71210191D01*
X171745247Y-71214191D01*
X171746809Y-71215753D01*
X171748543Y-71217921D01*
X171752078Y-71221456D01*
X171754247Y-71223191D01*
X171755809Y-71224753D01*
X171759809Y-71229753D01*
X171760321Y-71230453D01*
X171760924Y-71231358D01*
X171763478Y-71235189D01*
X171764756Y-71236936D01*
X171766157Y-71238688D01*
X171767809Y-71240753D01*
X171768944Y-71242528D01*
X171770121Y-71244882D01*
X171770126Y-71244890D01*
X171771343Y-71247325D01*
X171772263Y-71249003D01*
X171774575Y-71252855D01*
X171774944Y-71253528D01*
X171780944Y-71265528D01*
X171781487Y-71266838D01*
X171783487Y-71272838D01*
X171783615Y-71273253D01*
X171785615Y-71280253D01*
X171785864Y-71281356D01*
X171787864Y-71293356D01*
X171787899Y-71293586D01*
X171787942Y-71293887D01*
X171787944Y-71293900D01*
X171788881Y-71300454D01*
X171789524Y-71304316D01*
X171789864Y-71306356D01*
X171790000Y-71308000D01*
X171790000Y-71522000D01*
X171789864Y-71523644D01*
X171789524Y-71525683D01*
X171788881Y-71529546D01*
X171787944Y-71536099D01*
X171787899Y-71536414D01*
X171787864Y-71536644D01*
X171785864Y-71548644D01*
X171785615Y-71549747D01*
X171783615Y-71556747D01*
X171783487Y-71557162D01*
X171781487Y-71563162D01*
X171780944Y-71564472D01*
X171774944Y-71576472D01*
X171774575Y-71577145D01*
X171772266Y-71580993D01*
X171771343Y-71582675D01*
X171768944Y-71587472D01*
X171767809Y-71589247D01*
X171764743Y-71593079D01*
X171763494Y-71594786D01*
X171760321Y-71599547D01*
X171759809Y-71600247D01*
X171755809Y-71605247D01*
X171754247Y-71606809D01*
X171752080Y-71608541D01*
X171748541Y-71612080D01*
X171746809Y-71614247D01*
X171745247Y-71615809D01*
X171740247Y-71619809D01*
X171739547Y-71620321D01*
X171734789Y-71623492D01*
X171733081Y-71624741D01*
X171729247Y-71627809D01*
X171729225Y-71627823D01*
X171712795Y-71640963D01*
X171712795Y-71689037D01*
X171729225Y-71702176D01*
X171729247Y-71702191D01*
X171733081Y-71705258D01*
X171734789Y-71706507D01*
X171739547Y-71709679D01*
X171740247Y-71710191D01*
X171745247Y-71714191D01*
X171746809Y-71715753D01*
X171748543Y-71717921D01*
X171752078Y-71721456D01*
X171754247Y-71723191D01*
X171755809Y-71724753D01*
X171759809Y-71729753D01*
X171760321Y-71730453D01*
X171760924Y-71731358D01*
X171763478Y-71735189D01*
X171764756Y-71736936D01*
X171766157Y-71738688D01*
X171767809Y-71740753D01*
X171768944Y-71742528D01*
X171770121Y-71744882D01*
X171770126Y-71744890D01*
X171771343Y-71747325D01*
X171772263Y-71749003D01*
X171774575Y-71752855D01*
X171774944Y-71753528D01*
X171780944Y-71765528D01*
X171781487Y-71766838D01*
X171783487Y-71772838D01*
X171783615Y-71773253D01*
X171785615Y-71780253D01*
X171785864Y-71781356D01*
X171787864Y-71793356D01*
X171787899Y-71793586D01*
X171787942Y-71793887D01*
X171787944Y-71793900D01*
X171788881Y-71800454D01*
X171789524Y-71804316D01*
X171789864Y-71806356D01*
X171790000Y-71808000D01*
X171790000Y-72022000D01*
X171789864Y-72023644D01*
X171789524Y-72025683D01*
X171788881Y-72029546D01*
X171787944Y-72036099D01*
X171787899Y-72036414D01*
X171787864Y-72036644D01*
X171785864Y-72048644D01*
X171785615Y-72049747D01*
X171783615Y-72056747D01*
X171783487Y-72057162D01*
X171781487Y-72063162D01*
X171780944Y-72064472D01*
X171774944Y-72076472D01*
X171774575Y-72077145D01*
X171772266Y-72080993D01*
X171771343Y-72082675D01*
X171768944Y-72087472D01*
X171767809Y-72089247D01*
X171764743Y-72093079D01*
X171763494Y-72094786D01*
X171760321Y-72099547D01*
X171759809Y-72100247D01*
X171755809Y-72105247D01*
X171754247Y-72106809D01*
X171752080Y-72108541D01*
X171748541Y-72112080D01*
X171746809Y-72114247D01*
X171745247Y-72115809D01*
X171740247Y-72119809D01*
X171739547Y-72120321D01*
X171734789Y-72123492D01*
X171733081Y-72124741D01*
X171729247Y-72127809D01*
X171729225Y-72127823D01*
X171712795Y-72140963D01*
X171712795Y-72189037D01*
X171729225Y-72202176D01*
X171729247Y-72202191D01*
X171733081Y-72205258D01*
X171734789Y-72206507D01*
X171739547Y-72209679D01*
X171740247Y-72210191D01*
X171745247Y-72214191D01*
X171746809Y-72215753D01*
X171748543Y-72217921D01*
X171752078Y-72221456D01*
X171754247Y-72223191D01*
X171755809Y-72224753D01*
X171759809Y-72229753D01*
X171760321Y-72230453D01*
X171761986Y-72232950D01*
X171763478Y-72235189D01*
X171764756Y-72236936D01*
X171766157Y-72238688D01*
X171767809Y-72240753D01*
X171768944Y-72242528D01*
X171770121Y-72244882D01*
X171770126Y-72244890D01*
X171771343Y-72247325D01*
X171772263Y-72249003D01*
X171774575Y-72252855D01*
X171774944Y-72253528D01*
X171775374Y-72254388D01*
X171775380Y-72254399D01*
X171778557Y-72260753D01*
X171780944Y-72265528D01*
X171781487Y-72266838D01*
X171783487Y-72272838D01*
X171783615Y-72273253D01*
X171785615Y-72280253D01*
X171785864Y-72281356D01*
X171786780Y-72286855D01*
X171792252Y-72319681D01*
X171864079Y-72330481D01*
X171882619Y-72293398D01*
X171882642Y-72293356D01*
X171883056Y-72292528D01*
X171883425Y-72291855D01*
X171883902Y-72291058D01*
X171883918Y-72291031D01*
X171885560Y-72288295D01*
X171885567Y-72288284D01*
X171886425Y-72286855D01*
X171887191Y-72285753D01*
X171888237Y-72284444D01*
X171888243Y-72284437D01*
X171890244Y-72281936D01*
X171891522Y-72280189D01*
X171894075Y-72276358D01*
X171894082Y-72276347D01*
X171894679Y-72275453D01*
X171895191Y-72274753D01*
X171899191Y-72269753D01*
X171900753Y-72268191D01*
X171902924Y-72266453D01*
X171906453Y-72262924D01*
X171908191Y-72260753D01*
X171909753Y-72259191D01*
X171914753Y-72255191D01*
X171915453Y-72254679D01*
X171916347Y-72254082D01*
X171916358Y-72254075D01*
X171918912Y-72252373D01*
X171920194Y-72251518D01*
X171921936Y-72250244D01*
X171924437Y-72248243D01*
X171924444Y-72248237D01*
X171925753Y-72247191D01*
X171926855Y-72246425D01*
X171928284Y-72245567D01*
X171928295Y-72245560D01*
X171931031Y-72243918D01*
X171931058Y-72243903D01*
X171931855Y-72243425D01*
X171932528Y-72243056D01*
X171933368Y-72242635D01*
X171933399Y-72242619D01*
X171948931Y-72234853D01*
X171948948Y-72234845D01*
X171950528Y-72234056D01*
X171951838Y-72233513D01*
X171953521Y-72232951D01*
X171953526Y-72232950D01*
X171957323Y-72231684D01*
X171957350Y-72231675D01*
X171957838Y-72231513D01*
X171958253Y-72231385D01*
X171958734Y-72231247D01*
X171958765Y-72231238D01*
X171963884Y-72229775D01*
X171963902Y-72229770D01*
X171965253Y-72229385D01*
X171966356Y-72229136D01*
X171967748Y-72228903D01*
X171967757Y-72228902D01*
X171978095Y-72227179D01*
X171978134Y-72227172D01*
X171978356Y-72227136D01*
X171978586Y-72227101D01*
X171978797Y-72227070D01*
X171978900Y-72227055D01*
X171985454Y-72226119D01*
X171989316Y-72225475D01*
X171989327Y-72225474D01*
X171991356Y-72225136D01*
X171993000Y-72225000D01*
X172207000Y-72225000D01*
X172208644Y-72225136D01*
X172210673Y-72225474D01*
X172210683Y-72225475D01*
X172214546Y-72226119D01*
X172221099Y-72227055D01*
X172221188Y-72227068D01*
X172221414Y-72227101D01*
X172221644Y-72227136D01*
X172221877Y-72227174D01*
X172221904Y-72227179D01*
X172232242Y-72228902D01*
X172232247Y-72228903D01*
X172233644Y-72229136D01*
X172234747Y-72229385D01*
X172236100Y-72229771D01*
X172236115Y-72229775D01*
X172241234Y-72231238D01*
X172241252Y-72231243D01*
X172241747Y-72231385D01*
X172242162Y-72231513D01*
X172242662Y-72231679D01*
X172242676Y-72231684D01*
X172246473Y-72232950D01*
X172248162Y-72233513D01*
X172249472Y-72234056D01*
X172251056Y-72234848D01*
X172251068Y-72234853D01*
X172260600Y-72239619D01*
X172260620Y-72239630D01*
X172261472Y-72240056D01*
X172262145Y-72240425D01*
X172265801Y-72242619D01*
X172265993Y-72242734D01*
X172267675Y-72243657D01*
X172270109Y-72244873D01*
X172270119Y-72244879D01*
X172272472Y-72246056D01*
X172274247Y-72247191D01*
X172278079Y-72250256D01*
X172279786Y-72251505D01*
X172284547Y-72254679D01*
X172285247Y-72255191D01*
X172290247Y-72259191D01*
X172291809Y-72260753D01*
X172293543Y-72262921D01*
X172297078Y-72266456D01*
X172299247Y-72268191D01*
X172300809Y-72269753D01*
X172304809Y-72274753D01*
X172305321Y-72275453D01*
X172305924Y-72276358D01*
X172308482Y-72280195D01*
X172309755Y-72281935D01*
X172310412Y-72282757D01*
X172325986Y-72302203D01*
X172374014Y-72302203D01*
X172389588Y-72282757D01*
X172390244Y-72281935D01*
X172391518Y-72280195D01*
X172394075Y-72276358D01*
X172394082Y-72276347D01*
X172394679Y-72275453D01*
X172395191Y-72274753D01*
X172399191Y-72269753D01*
X172400753Y-72268191D01*
X172402924Y-72266453D01*
X172406453Y-72262924D01*
X172408191Y-72260753D01*
X172409753Y-72259191D01*
X172414753Y-72255191D01*
X172415453Y-72254679D01*
X172416347Y-72254082D01*
X172416358Y-72254075D01*
X172418912Y-72252373D01*
X172420194Y-72251518D01*
X172421936Y-72250244D01*
X172424437Y-72248243D01*
X172424444Y-72248237D01*
X172425753Y-72247191D01*
X172426855Y-72246425D01*
X172428284Y-72245567D01*
X172428295Y-72245560D01*
X172431031Y-72243918D01*
X172431058Y-72243903D01*
X172431855Y-72243425D01*
X172432528Y-72243056D01*
X172433368Y-72242635D01*
X172433399Y-72242619D01*
X172448931Y-72234853D01*
X172448948Y-72234845D01*
X172450528Y-72234056D01*
X172451838Y-72233513D01*
X172453521Y-72232951D01*
X172453526Y-72232950D01*
X172457323Y-72231684D01*
X172457350Y-72231675D01*
X172457838Y-72231513D01*
X172458253Y-72231385D01*
X172458734Y-72231247D01*
X172458765Y-72231238D01*
X172463884Y-72229775D01*
X172463902Y-72229770D01*
X172465253Y-72229385D01*
X172466356Y-72229136D01*
X172467748Y-72228903D01*
X172467757Y-72228902D01*
X172478095Y-72227179D01*
X172478134Y-72227172D01*
X172478356Y-72227136D01*
X172478586Y-72227101D01*
X172478797Y-72227070D01*
X172478900Y-72227055D01*
X172485454Y-72226119D01*
X172489316Y-72225475D01*
X172489327Y-72225474D01*
X172491356Y-72225136D01*
X172493000Y-72225000D01*
X172707000Y-72225000D01*
X172708644Y-72225136D01*
X172710673Y-72225474D01*
X172710683Y-72225475D01*
X172714546Y-72226119D01*
X172721099Y-72227055D01*
X172721188Y-72227068D01*
X172721414Y-72227101D01*
X172721644Y-72227136D01*
X172721877Y-72227174D01*
X172721904Y-72227179D01*
X172732242Y-72228902D01*
X172732247Y-72228903D01*
X172733644Y-72229136D01*
X172734747Y-72229385D01*
X172736100Y-72229771D01*
X172736115Y-72229775D01*
X172741234Y-72231238D01*
X172741252Y-72231243D01*
X172741747Y-72231385D01*
X172742162Y-72231513D01*
X172742662Y-72231679D01*
X172742676Y-72231684D01*
X172746473Y-72232950D01*
X172748162Y-72233513D01*
X172749472Y-72234056D01*
X172751056Y-72234848D01*
X172751068Y-72234853D01*
X172766600Y-72242619D01*
X172766620Y-72242630D01*
X172767472Y-72243056D01*
X172768145Y-72243425D01*
X172768952Y-72243909D01*
X172768968Y-72243918D01*
X172771704Y-72245560D01*
X172771708Y-72245562D01*
X172773145Y-72246425D01*
X172774247Y-72247191D01*
X172778079Y-72250256D01*
X172779786Y-72251505D01*
X172784547Y-72254679D01*
X172785247Y-72255191D01*
X172790247Y-72259191D01*
X172791809Y-72260753D01*
X172793543Y-72262921D01*
X172797078Y-72266456D01*
X172799247Y-72268191D01*
X172800809Y-72269753D01*
X172804809Y-72274753D01*
X172805321Y-72275453D01*
X172805924Y-72276358D01*
X172808482Y-72280195D01*
X172809755Y-72281935D01*
X172810412Y-72282757D01*
X172825986Y-72302203D01*
X172874014Y-72302203D01*
X172889588Y-72282757D01*
X172890244Y-72281935D01*
X172891518Y-72280195D01*
X172894075Y-72276358D01*
X172894082Y-72276347D01*
X172894679Y-72275453D01*
X172895191Y-72274753D01*
X172899191Y-72269753D01*
X172900753Y-72268191D01*
X172902924Y-72266453D01*
X172906453Y-72262924D01*
X172908191Y-72260753D01*
X172909753Y-72259191D01*
X172914753Y-72255191D01*
X172915453Y-72254679D01*
X172916347Y-72254082D01*
X172916358Y-72254075D01*
X172918912Y-72252373D01*
X172920194Y-72251518D01*
X172921936Y-72250244D01*
X172924437Y-72248243D01*
X172924444Y-72248237D01*
X172925753Y-72247191D01*
X172926855Y-72246425D01*
X172928284Y-72245567D01*
X172928295Y-72245560D01*
X172931031Y-72243918D01*
X172931058Y-72243903D01*
X172931855Y-72243425D01*
X172932528Y-72243056D01*
X172933368Y-72242635D01*
X172933399Y-72242619D01*
X172948931Y-72234853D01*
X172948948Y-72234845D01*
X172950528Y-72234056D01*
X172951838Y-72233513D01*
X172953521Y-72232951D01*
X172953526Y-72232950D01*
X172957323Y-72231684D01*
X172957350Y-72231675D01*
X172957838Y-72231513D01*
X172958253Y-72231385D01*
X172958734Y-72231247D01*
X172958765Y-72231238D01*
X172963884Y-72229775D01*
X172963902Y-72229770D01*
X172965253Y-72229385D01*
X172966356Y-72229136D01*
X172967748Y-72228903D01*
X172967757Y-72228902D01*
X172978095Y-72227179D01*
X172978134Y-72227172D01*
X172978356Y-72227136D01*
X172978586Y-72227101D01*
X172978797Y-72227070D01*
X172978900Y-72227055D01*
X172985454Y-72226119D01*
X172989316Y-72225475D01*
X172989327Y-72225474D01*
X172991356Y-72225136D01*
X172993000Y-72225000D01*
X173207000Y-72225000D01*
X173208644Y-72225136D01*
X173210673Y-72225474D01*
X173210683Y-72225475D01*
X173214546Y-72226119D01*
X173221099Y-72227055D01*
X173221188Y-72227068D01*
X173221414Y-72227101D01*
X173221644Y-72227136D01*
X173221877Y-72227174D01*
X173221904Y-72227179D01*
X173232242Y-72228902D01*
X173232247Y-72228903D01*
X173233644Y-72229136D01*
X173234747Y-72229385D01*
X173236100Y-72229771D01*
X173236115Y-72229775D01*
X173241234Y-72231238D01*
X173241252Y-72231243D01*
X173241747Y-72231385D01*
X173242162Y-72231513D01*
X173242662Y-72231679D01*
X173242676Y-72231684D01*
X173246473Y-72232950D01*
X173248162Y-72233513D01*
X173249472Y-72234056D01*
X173251056Y-72234848D01*
X173251068Y-72234853D01*
X173260600Y-72239619D01*
X173260620Y-72239630D01*
X173261472Y-72240056D01*
X173262145Y-72240425D01*
X173265801Y-72242619D01*
X173265993Y-72242734D01*
X173267675Y-72243657D01*
X173270109Y-72244873D01*
X173270119Y-72244879D01*
X173272472Y-72246056D01*
X173274247Y-72247191D01*
X173278079Y-72250256D01*
X173279786Y-72251505D01*
X173284547Y-72254679D01*
X173285247Y-72255191D01*
X173290247Y-72259191D01*
X173291809Y-72260753D01*
X173293543Y-72262921D01*
X173297078Y-72266456D01*
X173299247Y-72268191D01*
X173300809Y-72269753D01*
X173304809Y-72274753D01*
X173305321Y-72275453D01*
X173305924Y-72276358D01*
X173308478Y-72280189D01*
X173309756Y-72281936D01*
X173311256Y-72283811D01*
X173312809Y-72285753D01*
X173313575Y-72286855D01*
X173316575Y-72291855D01*
X173316944Y-72292528D01*
X173317368Y-72293377D01*
X173317380Y-72293398D01*
X173335921Y-72330481D01*
X173407748Y-72319681D01*
X173413902Y-72282757D01*
X173413903Y-72282748D01*
X173414136Y-72281356D01*
X173414385Y-72280253D01*
X173414770Y-72278902D01*
X173414775Y-72278884D01*
X173416238Y-72273765D01*
X173416247Y-72273734D01*
X173416385Y-72273253D01*
X173416513Y-72272838D01*
X173416675Y-72272350D01*
X173416684Y-72272323D01*
X173417950Y-72268526D01*
X173417951Y-72268521D01*
X173418513Y-72266838D01*
X173419056Y-72265528D01*
X173419845Y-72263948D01*
X173419853Y-72263931D01*
X173424619Y-72254399D01*
X173424635Y-72254368D01*
X173425056Y-72253528D01*
X173425425Y-72252855D01*
X173425909Y-72252047D01*
X173425918Y-72252032D01*
X173427734Y-72249007D01*
X173428657Y-72247325D01*
X173429873Y-72244890D01*
X173429884Y-72244873D01*
X173431056Y-72242528D01*
X173432191Y-72240753D01*
X173433838Y-72238694D01*
X173433842Y-72238688D01*
X173435244Y-72236936D01*
X173436522Y-72235189D01*
X173439075Y-72231358D01*
X173439082Y-72231347D01*
X173439679Y-72230453D01*
X173440191Y-72229753D01*
X173444191Y-72224753D01*
X173445753Y-72223191D01*
X173447924Y-72221453D01*
X173451453Y-72217924D01*
X173453191Y-72215753D01*
X173454753Y-72214191D01*
X173459753Y-72210191D01*
X173460453Y-72209679D01*
X173461347Y-72209082D01*
X173461358Y-72209075D01*
X173465195Y-72206518D01*
X173466935Y-72205244D01*
X173468496Y-72203996D01*
X173487203Y-72189014D01*
X173487203Y-72140986D01*
X173468496Y-72126003D01*
X173466935Y-72124755D01*
X173465195Y-72123482D01*
X173461358Y-72120924D01*
X173460453Y-72120321D01*
X173459753Y-72119809D01*
X173454753Y-72115809D01*
X173453191Y-72114247D01*
X173451456Y-72112078D01*
X173447921Y-72108543D01*
X173445753Y-72106809D01*
X173444191Y-72105247D01*
X173440191Y-72100247D01*
X173439679Y-72099547D01*
X173436505Y-72094786D01*
X173435256Y-72093079D01*
X173432191Y-72089247D01*
X173431056Y-72087472D01*
X173429879Y-72085119D01*
X173429873Y-72085109D01*
X173428657Y-72082675D01*
X173427734Y-72080993D01*
X173425918Y-72077967D01*
X173425915Y-72077963D01*
X173425425Y-72077145D01*
X173425056Y-72076472D01*
X173424630Y-72075620D01*
X173424619Y-72075600D01*
X173419853Y-72066068D01*
X173419848Y-72066056D01*
X173419056Y-72064472D01*
X173418513Y-72063162D01*
X173416513Y-72057162D01*
X173416385Y-72056747D01*
X173416238Y-72056234D01*
X173414775Y-72051115D01*
X173414771Y-72051100D01*
X173414385Y-72049747D01*
X173414136Y-72048644D01*
X173412136Y-72036644D01*
X173412101Y-72036414D01*
X173412068Y-72036188D01*
X173412055Y-72036099D01*
X173411119Y-72029546D01*
X173410475Y-72025683D01*
X173410474Y-72025673D01*
X173410136Y-72023644D01*
X173410000Y-72022000D01*
X173410000Y-71808000D01*
X173410136Y-71806356D01*
X173410474Y-71804327D01*
X173410475Y-71804316D01*
X173411119Y-71800454D01*
X173412055Y-71793900D01*
X173412070Y-71793797D01*
X173412101Y-71793586D01*
X173412136Y-71793356D01*
X173412172Y-71793134D01*
X173412179Y-71793095D01*
X173413902Y-71782757D01*
X173413903Y-71782748D01*
X173414136Y-71781356D01*
X173414385Y-71780253D01*
X173414770Y-71778902D01*
X173414775Y-71778884D01*
X173416238Y-71773765D01*
X173416247Y-71773734D01*
X173416385Y-71773253D01*
X173416513Y-71772838D01*
X173416675Y-71772350D01*
X173416684Y-71772323D01*
X173417950Y-71768526D01*
X173417951Y-71768521D01*
X173418513Y-71766838D01*
X173419056Y-71765528D01*
X173419845Y-71763948D01*
X173419853Y-71763931D01*
X173424619Y-71754399D01*
X173424635Y-71754368D01*
X173425056Y-71753528D01*
X173425425Y-71752855D01*
X173425909Y-71752047D01*
X173425918Y-71752032D01*
X173427734Y-71749007D01*
X173428657Y-71747325D01*
X173429873Y-71744890D01*
X173429882Y-71744875D01*
X173431056Y-71742528D01*
X173432191Y-71740753D01*
X173433838Y-71738694D01*
X173433842Y-71738688D01*
X173435244Y-71736936D01*
X173436522Y-71735189D01*
X173439075Y-71731358D01*
X173439082Y-71731347D01*
X173439679Y-71730453D01*
X173440191Y-71729753D01*
X173444191Y-71724753D01*
X173445753Y-71723191D01*
X173447924Y-71721453D01*
X173451453Y-71717924D01*
X173453191Y-71715753D01*
X173454753Y-71714191D01*
X173459753Y-71710191D01*
X173460453Y-71709679D01*
X173461347Y-71709082D01*
X173461358Y-71709075D01*
X173465195Y-71706518D01*
X173466935Y-71705244D01*
X173468496Y-71703996D01*
X173487203Y-71689014D01*
X173487203Y-71640986D01*
X173468496Y-71626003D01*
X173466935Y-71624755D01*
X173465195Y-71623482D01*
X173461358Y-71620924D01*
X173460453Y-71620321D01*
X173459753Y-71619809D01*
X173454753Y-71615809D01*
X173453191Y-71614247D01*
X173451456Y-71612078D01*
X173447921Y-71608543D01*
X173445753Y-71606809D01*
X173444191Y-71605247D01*
X173440191Y-71600247D01*
X173439679Y-71599547D01*
X173436505Y-71594786D01*
X173435256Y-71593079D01*
X173432191Y-71589247D01*
X173431056Y-71587472D01*
X173429879Y-71585119D01*
X173429873Y-71585109D01*
X173428657Y-71582675D01*
X173427734Y-71580993D01*
X173425918Y-71577967D01*
X173425915Y-71577963D01*
X173425425Y-71577145D01*
X173425056Y-71576472D01*
X173424630Y-71575620D01*
X173424619Y-71575600D01*
X173419853Y-71566068D01*
X173419848Y-71566056D01*
X173419056Y-71564472D01*
X173418513Y-71563162D01*
X173416513Y-71557162D01*
X173416385Y-71556747D01*
X173416238Y-71556234D01*
X173414775Y-71551115D01*
X173414771Y-71551100D01*
X173414385Y-71549747D01*
X173414136Y-71548644D01*
X173413542Y-71545077D01*
X173412179Y-71536904D01*
X173412174Y-71536877D01*
X173412136Y-71536644D01*
X173412101Y-71536414D01*
X173412068Y-71536188D01*
X173412055Y-71536099D01*
X173411119Y-71529546D01*
X173410475Y-71525683D01*
X173410474Y-71525673D01*
X173410136Y-71523644D01*
X173410000Y-71522000D01*
X173410000Y-71308000D01*
X173410136Y-71306356D01*
X173410474Y-71304327D01*
X173410475Y-71304316D01*
X173411119Y-71300454D01*
X173412055Y-71293900D01*
X173412070Y-71293797D01*
X173412101Y-71293586D01*
X173412136Y-71293356D01*
X173412172Y-71293134D01*
X173412179Y-71293095D01*
X173413902Y-71282757D01*
X173413903Y-71282748D01*
X173414136Y-71281356D01*
X173414385Y-71280253D01*
X173414770Y-71278902D01*
X173414775Y-71278884D01*
X173416238Y-71273765D01*
X173416247Y-71273734D01*
X173416385Y-71273253D01*
X173416513Y-71272838D01*
X173416675Y-71272350D01*
X173416684Y-71272323D01*
X173417950Y-71268526D01*
X173417951Y-71268521D01*
X173418513Y-71266838D01*
X173419056Y-71265528D01*
X173419845Y-71263948D01*
X173419853Y-71263931D01*
X173424619Y-71254399D01*
X173424635Y-71254368D01*
X173425056Y-71253528D01*
X173425425Y-71252855D01*
X173425909Y-71252047D01*
X173425918Y-71252032D01*
X173427734Y-71249007D01*
X173428657Y-71247325D01*
X173429873Y-71244890D01*
X173429882Y-71244875D01*
X173431056Y-71242528D01*
X173432191Y-71240753D01*
X173433838Y-71238694D01*
X173433842Y-71238688D01*
X173435244Y-71236936D01*
X173436522Y-71235189D01*
X173439075Y-71231358D01*
X173439082Y-71231347D01*
X173439679Y-71230453D01*
X173440191Y-71229753D01*
X173444191Y-71224753D01*
X173445753Y-71223191D01*
X173447924Y-71221453D01*
X173451453Y-71217924D01*
X173453191Y-71215753D01*
X173454753Y-71214191D01*
X173459753Y-71210191D01*
X173460453Y-71209679D01*
X173461347Y-71209082D01*
X173461358Y-71209075D01*
X173465195Y-71206518D01*
X173466935Y-71205244D01*
X173468496Y-71203996D01*
X173487203Y-71189014D01*
X173487203Y-71140986D01*
X173468496Y-71126003D01*
X173466935Y-71124755D01*
X173465195Y-71123482D01*
X173461358Y-71120924D01*
X173460453Y-71120321D01*
X173459753Y-71119809D01*
X173454753Y-71115809D01*
X173453191Y-71114247D01*
X173451456Y-71112078D01*
X173447921Y-71108543D01*
X173445753Y-71106809D01*
X173444191Y-71105247D01*
X173440191Y-71100247D01*
X173439679Y-71099547D01*
X173436505Y-71094786D01*
X173435256Y-71093079D01*
X173432191Y-71089247D01*
X173431056Y-71087472D01*
X173429879Y-71085119D01*
X173429873Y-71085109D01*
X173428657Y-71082675D01*
X173427734Y-71080993D01*
X173425918Y-71077967D01*
X173425915Y-71077963D01*
X173425425Y-71077145D01*
X173425056Y-71076472D01*
X173424630Y-71075620D01*
X173424619Y-71075600D01*
X173419853Y-71066068D01*
X173419848Y-71066056D01*
X173419056Y-71064472D01*
X173418513Y-71063162D01*
X173417541Y-71060247D01*
X173416684Y-71057676D01*
X173416679Y-71057662D01*
X173416513Y-71057162D01*
X173416385Y-71056747D01*
X173416238Y-71056234D01*
X173414775Y-71051115D01*
X173414771Y-71051100D01*
X173414385Y-71049747D01*
X173414136Y-71048644D01*
X173413403Y-71044247D01*
X173407748Y-71010319D01*
X173335921Y-70999519D01*
X173317474Y-71036414D01*
X173316944Y-71037472D01*
X173316575Y-71038145D01*
X173313575Y-71043145D01*
X173312809Y-71044247D01*
X173309743Y-71048079D01*
X173308494Y-71049786D01*
X173305321Y-71054547D01*
X173304809Y-71055247D01*
X173300809Y-71060247D01*
X173299247Y-71061809D01*
X173297080Y-71063541D01*
X173293541Y-71067080D01*
X173291809Y-71069247D01*
X173290247Y-71070809D01*
X173285247Y-71074809D01*
X173284547Y-71075321D01*
X173279786Y-71078494D01*
X173278079Y-71079743D01*
X173274247Y-71082809D01*
X173272472Y-71083944D01*
X173270112Y-71085123D01*
X173270109Y-71085126D01*
X173267675Y-71086343D01*
X173265996Y-71087263D01*
X173262145Y-71089575D01*
X173261472Y-71089944D01*
X173249472Y-71095944D01*
X173248162Y-71096487D01*
X173242162Y-71098487D01*
X173241747Y-71098615D01*
X173234747Y-71100615D01*
X173233644Y-71100864D01*
X173221644Y-71102864D01*
X173221414Y-71102899D01*
X173221099Y-71102944D01*
X173214546Y-71103881D01*
X173211455Y-71104395D01*
X173208644Y-71104864D01*
X173207000Y-71105000D01*
X173204933Y-71105000D01*
X172995067Y-71105000D01*
X172993000Y-71105000D01*
X172991356Y-71104864D01*
X172989316Y-71104524D01*
X172985454Y-71103881D01*
X172978900Y-71102944D01*
X172978887Y-71102942D01*
X172978586Y-71102899D01*
X172978356Y-71102864D01*
X172966356Y-71100864D01*
X172965253Y-71100615D01*
X172963886Y-71100224D01*
X172963884Y-71100224D01*
X172961515Y-71099547D01*
X172958253Y-71098615D01*
X172957838Y-71098487D01*
X172951838Y-71096487D01*
X172950528Y-71095944D01*
X172948936Y-71095148D01*
X172948931Y-71095146D01*
X172939399Y-71090380D01*
X172939388Y-71090374D01*
X172938528Y-71089944D01*
X172937855Y-71089575D01*
X172934003Y-71087263D01*
X172932325Y-71086343D01*
X172929890Y-71085126D01*
X172929882Y-71085121D01*
X172927528Y-71083944D01*
X172925753Y-71082809D01*
X172921939Y-71079758D01*
X172921936Y-71079756D01*
X172920189Y-71078478D01*
X172920186Y-71078476D01*
X172915453Y-71075321D01*
X172914753Y-71074809D01*
X172909753Y-71070809D01*
X172908191Y-71069247D01*
X172906456Y-71067078D01*
X172902921Y-71063543D01*
X172900753Y-71061809D01*
X172899191Y-71060247D01*
X172895191Y-71055247D01*
X172894679Y-71054547D01*
X172891507Y-71049789D01*
X172890258Y-71048081D01*
X172887191Y-71044247D01*
X172887176Y-71044225D01*
X172874037Y-71027795D01*
X172825963Y-71027795D01*
X172812823Y-71044225D01*
X172812809Y-71044247D01*
X172809741Y-71048081D01*
X172808492Y-71049789D01*
X172805321Y-71054547D01*
X172804809Y-71055247D01*
X172800809Y-71060247D01*
X172799247Y-71061809D01*
X172797080Y-71063541D01*
X172793541Y-71067080D01*
X172791809Y-71069247D01*
X172790247Y-71070809D01*
X172785247Y-71074809D01*
X172784547Y-71075321D01*
X172779786Y-71078494D01*
X172778079Y-71079743D01*
X172774247Y-71082809D01*
X172773145Y-71083575D01*
X172768145Y-71086575D01*
X172767472Y-71086944D01*
X172749472Y-71095944D01*
X172748162Y-71096487D01*
X172742162Y-71098487D01*
X172741747Y-71098615D01*
X172734747Y-71100615D01*
X172733644Y-71100864D01*
X172721644Y-71102864D01*
X172721414Y-71102899D01*
X172721099Y-71102944D01*
X172714546Y-71103881D01*
X172711455Y-71104395D01*
X172708644Y-71104864D01*
X172707000Y-71105000D01*
X172704933Y-71105000D01*
X172495067Y-71105000D01*
X172493000Y-71105000D01*
X172491356Y-71104864D01*
X172489316Y-71104524D01*
X172485454Y-71103881D01*
X172478900Y-71102944D01*
X172478887Y-71102942D01*
X172478586Y-71102899D01*
X172478356Y-71102864D01*
X172466356Y-71100864D01*
X172465253Y-71100615D01*
X172463886Y-71100224D01*
X172463884Y-71100224D01*
X172461515Y-71099547D01*
X172458253Y-71098615D01*
X172457838Y-71098487D01*
X172451838Y-71096487D01*
X172450528Y-71095944D01*
X172448936Y-71095148D01*
X172448931Y-71095146D01*
X172439399Y-71090380D01*
X172439388Y-71090374D01*
X172438528Y-71089944D01*
X172437855Y-71089575D01*
X172434003Y-71087263D01*
X172432325Y-71086343D01*
X172429890Y-71085126D01*
X172429882Y-71085121D01*
X172427528Y-71083944D01*
X172425753Y-71082809D01*
X172421939Y-71079758D01*
X172421936Y-71079756D01*
X172420189Y-71078478D01*
X172420186Y-71078476D01*
X172415453Y-71075321D01*
X172414753Y-71074809D01*
X172409753Y-71070809D01*
X172408191Y-71069247D01*
X172406456Y-71067078D01*
X172402921Y-71063543D01*
X172400753Y-71061809D01*
X172399191Y-71060247D01*
X172395191Y-71055247D01*
X172394679Y-71054547D01*
X172391507Y-71049789D01*
X172390258Y-71048081D01*
X172387191Y-71044247D01*
X172387176Y-71044225D01*
X172374037Y-71027795D01*
X172325963Y-71027795D01*
X172312823Y-71044225D01*
X172312809Y-71044247D01*
X172309741Y-71048081D01*
X172308492Y-71049789D01*
X172305321Y-71054547D01*
X172304809Y-71055247D01*
X172300809Y-71060247D01*
X172299247Y-71061809D01*
X172297080Y-71063541D01*
X172293541Y-71067080D01*
X172291809Y-71069247D01*
X172290247Y-71070809D01*
X172285247Y-71074809D01*
X172284547Y-71075321D01*
X172279786Y-71078494D01*
X172278079Y-71079743D01*
X172274247Y-71082809D01*
X172272472Y-71083944D01*
X172270112Y-71085123D01*
X172270109Y-71085126D01*
X172267675Y-71086343D01*
X172265996Y-71087263D01*
X172262145Y-71089575D01*
X172261472Y-71089944D01*
X172249472Y-71095944D01*
X172248162Y-71096487D01*
X172242162Y-71098487D01*
X172241747Y-71098615D01*
X172234747Y-71100615D01*
X172233644Y-71100864D01*
X172221644Y-71102864D01*
X172221414Y-71102899D01*
X172221099Y-71102944D01*
X172214546Y-71103881D01*
X172211455Y-71104395D01*
X172208644Y-71104864D01*
X172207000Y-71105000D01*
X172204933Y-71105000D01*
X171995067Y-71105000D01*
X171993000Y-71105000D01*
X171991356Y-71104864D01*
X171989316Y-71104524D01*
X171985454Y-71103881D01*
X171978900Y-71102944D01*
X171978887Y-71102942D01*
X171978586Y-71102899D01*
X171978356Y-71102864D01*
X171966356Y-71100864D01*
X171965253Y-71100615D01*
X171963886Y-71100224D01*
X171963884Y-71100224D01*
X171961515Y-71099547D01*
X171958253Y-71098615D01*
X171957838Y-71098487D01*
X171951838Y-71096487D01*
X171950528Y-71095944D01*
X171948936Y-71095148D01*
X171948931Y-71095146D01*
X171939399Y-71090380D01*
X171939388Y-71090374D01*
X171938528Y-71089944D01*
X171937855Y-71089575D01*
X171934003Y-71087263D01*
X171932325Y-71086343D01*
X171929890Y-71085126D01*
X171929882Y-71085121D01*
X171927528Y-71083944D01*
X171925753Y-71082809D01*
X171921939Y-71079758D01*
X171921936Y-71079756D01*
X171920189Y-71078478D01*
X171920186Y-71078476D01*
X171915453Y-71075321D01*
X171914753Y-71074809D01*
X171909753Y-71070809D01*
X171908191Y-71069247D01*
X171906456Y-71067078D01*
X171902921Y-71063543D01*
X171900753Y-71061809D01*
X171899191Y-71060247D01*
X171895191Y-71055247D01*
X171894679Y-71054547D01*
X171891505Y-71049786D01*
X171890256Y-71048079D01*
X171887191Y-71044247D01*
X171886425Y-71043145D01*
X171885560Y-71041704D01*
X171883918Y-71038968D01*
X171883909Y-71038952D01*
X171883425Y-71038145D01*
X171883056Y-71037472D01*
X171882635Y-71036631D01*
X171882619Y-71036601D01*
X171864079Y-70999519D01*
X171792252Y-71010319D01*
X171787871Y-71036601D01*
X171787864Y-71036644D01*
X171785864Y-71048644D01*
X171785615Y-71049747D01*
X171783615Y-71056747D01*
X171783487Y-71057162D01*
X171781487Y-71063162D01*
X171780944Y-71064472D01*
X171774944Y-71076472D01*
X171774575Y-71077145D01*
X171773776Y-71078476D01*
X171772266Y-71080993D01*
X171771343Y-71082675D01*
X171770461Y-71084439D01*
X171768944Y-71087472D01*
X171767809Y-71089247D01*
X171764743Y-71093079D01*
X171763494Y-71094786D01*
X171760321Y-71099547D01*
X171759809Y-71100247D01*
X171755809Y-71105247D01*
X171754247Y-71106809D01*
X171752080Y-71108541D01*
X171748541Y-71112080D01*
X171746809Y-71114247D01*
X171745247Y-71115809D01*
X171740247Y-71119809D01*
X171739547Y-71120321D01*
X171734789Y-71123492D01*
X171733081Y-71124741D01*
X171729247Y-71127809D01*
X171729225Y-71127823D01*
X171712795Y-71140963D01*
X171157174Y-71140963D01*
X171138496Y-71126003D01*
X171136935Y-71124755D01*
X171135195Y-71123482D01*
X171131358Y-71120924D01*
X171130453Y-71120321D01*
X171129753Y-71119809D01*
X171124753Y-71115809D01*
X171123191Y-71114247D01*
X171121456Y-71112078D01*
X171117921Y-71108543D01*
X171115753Y-71106809D01*
X171114191Y-71105247D01*
X171110191Y-71100247D01*
X171109679Y-71099547D01*
X171106505Y-71094786D01*
X171105256Y-71093079D01*
X171102191Y-71089247D01*
X171101056Y-71087472D01*
X171099879Y-71085119D01*
X171099873Y-71085109D01*
X171098657Y-71082675D01*
X171097734Y-71080993D01*
X171095918Y-71077967D01*
X171095915Y-71077963D01*
X171095425Y-71077145D01*
X171095056Y-71076472D01*
X171094630Y-71075620D01*
X171094619Y-71075600D01*
X171089853Y-71066068D01*
X171089848Y-71066056D01*
X171089056Y-71064472D01*
X171088513Y-71063162D01*
X171087541Y-71060247D01*
X171086684Y-71057676D01*
X171086679Y-71057662D01*
X171086513Y-71057162D01*
X171086385Y-71056747D01*
X171086238Y-71056234D01*
X171084775Y-71051115D01*
X171084771Y-71051100D01*
X171084385Y-71049747D01*
X171084136Y-71048644D01*
X171083220Y-71043145D01*
X171082179Y-71036904D01*
X171082174Y-71036877D01*
X171082136Y-71036644D01*
X171082101Y-71036414D01*
X171082068Y-71036188D01*
X171082055Y-71036099D01*
X171081119Y-71029546D01*
X171080475Y-71025683D01*
X171080474Y-71025673D01*
X171080136Y-71023644D01*
X171080000Y-71022000D01*
X171080000Y-70808000D01*
X171080136Y-70806356D01*
X171080474Y-70804327D01*
X171080475Y-70804316D01*
X171081119Y-70800454D01*
X171082055Y-70793900D01*
X171082070Y-70793797D01*
X171082101Y-70793586D01*
X171082136Y-70793356D01*
X171082172Y-70793134D01*
X171082179Y-70793095D01*
X171083902Y-70782757D01*
X171083903Y-70782748D01*
X171084136Y-70781356D01*
X171084385Y-70780253D01*
X171084770Y-70778902D01*
X171084775Y-70778884D01*
X171086238Y-70773765D01*
X171086247Y-70773734D01*
X171086385Y-70773253D01*
X171086513Y-70772838D01*
X171086675Y-70772350D01*
X171086684Y-70772323D01*
X171087950Y-70768526D01*
X171087951Y-70768521D01*
X171088513Y-70766838D01*
X171089056Y-70765528D01*
X171089845Y-70763948D01*
X171089853Y-70763931D01*
X171094619Y-70754399D01*
X171094635Y-70754368D01*
X171095056Y-70753528D01*
X171095425Y-70752855D01*
X171095909Y-70752047D01*
X171095918Y-70752032D01*
X171097734Y-70749007D01*
X171098657Y-70747325D01*
X171099873Y-70744890D01*
X171099882Y-70744875D01*
X171101056Y-70742528D01*
X171102191Y-70740753D01*
X171103838Y-70738694D01*
X171103842Y-70738688D01*
X171105244Y-70736936D01*
X171106522Y-70735189D01*
X171109075Y-70731358D01*
X171109082Y-70731347D01*
X171109679Y-70730453D01*
X171110191Y-70729753D01*
X171114191Y-70724753D01*
X171115753Y-70723191D01*
X171117924Y-70721453D01*
X171121453Y-70717924D01*
X171123191Y-70715753D01*
X171124753Y-70714191D01*
X171129753Y-70710191D01*
X171130453Y-70709679D01*
X171131347Y-70709082D01*
X171131358Y-70709075D01*
X171133912Y-70707373D01*
X171135194Y-70706518D01*
X171136936Y-70705244D01*
X171139437Y-70703243D01*
X171139444Y-70703237D01*
X171140753Y-70702191D01*
X171141855Y-70701425D01*
X171143284Y-70700567D01*
X171143295Y-70700560D01*
X171146031Y-70698918D01*
X171146058Y-70698903D01*
X171146855Y-70698425D01*
X171147528Y-70698056D01*
X171148368Y-70697635D01*
X171148399Y-70697619D01*
X171163931Y-70689853D01*
X171163948Y-70689845D01*
X171165528Y-70689056D01*
X171166838Y-70688513D01*
X171168521Y-70687951D01*
X171168526Y-70687950D01*
X171172323Y-70686684D01*
X171172350Y-70686675D01*
X171172838Y-70686513D01*
X171173253Y-70686385D01*
X171173734Y-70686247D01*
X171173765Y-70686238D01*
X171178884Y-70684775D01*
X171178902Y-70684770D01*
X171180253Y-70684385D01*
X171181356Y-70684136D01*
X171182748Y-70683903D01*
X171182757Y-70683902D01*
X171193095Y-70682179D01*
X171193134Y-70682172D01*
X171193356Y-70682136D01*
X171193586Y-70682101D01*
X171193797Y-70682070D01*
X171193900Y-70682055D01*
X171200454Y-70681119D01*
X171204316Y-70680475D01*
X171204327Y-70680474D01*
X171206356Y-70680136D01*
X171208000Y-70680000D01*
X171662000Y-70680000D01*
X171663644Y-70680136D01*
X171665673Y-70680474D01*
X171665683Y-70680475D01*
X171669546Y-70681119D01*
X171676099Y-70682055D01*
X171676188Y-70682068D01*
X171676414Y-70682101D01*
X171676644Y-70682136D01*
X171676877Y-70682174D01*
X171676904Y-70682179D01*
X171687242Y-70683902D01*
X171687247Y-70683903D01*
X171688644Y-70684136D01*
X171689747Y-70684385D01*
X171691100Y-70684771D01*
X171691115Y-70684775D01*
X171696234Y-70686238D01*
X171696252Y-70686243D01*
X171696747Y-70686385D01*
X171697162Y-70686513D01*
X171697662Y-70686679D01*
X171697676Y-70686684D01*
X171701473Y-70687950D01*
X171703162Y-70688513D01*
X171704472Y-70689056D01*
X171706056Y-70689848D01*
X171706068Y-70689853D01*
X171721600Y-70697619D01*
X171721620Y-70697630D01*
X171722472Y-70698056D01*
X171723145Y-70698425D01*
X171723952Y-70698909D01*
X171723968Y-70698918D01*
X171726704Y-70700560D01*
X171726708Y-70700562D01*
X171728145Y-70701425D01*
X171729247Y-70702191D01*
X171733079Y-70705256D01*
X171734786Y-70706505D01*
X171739547Y-70709679D01*
X171740247Y-70710191D01*
X171745247Y-70714191D01*
X171746809Y-70715753D01*
X171748543Y-70717921D01*
X171752078Y-70721456D01*
X171754247Y-70723191D01*
X171755809Y-70724753D01*
X171759809Y-70729753D01*
X171760321Y-70730453D01*
X171760924Y-70731358D01*
X171763478Y-70735189D01*
X171764756Y-70736936D01*
X171766157Y-70738688D01*
X171767809Y-70740753D01*
X171768944Y-70742528D01*
X171770122Y-70744884D01*
X171770127Y-70744892D01*
X171771775Y-70748189D01*
X171774575Y-70752855D01*
X171774944Y-70753528D01*
X171780944Y-70765528D01*
X171781487Y-70766838D01*
X171782261Y-70769162D01*
X171787977Y-70780593D01*
X171865000Y-70762410D01*
X171865000Y-70525067D01*
X171865000Y-70523000D01*
X171865136Y-70521356D01*
X171865474Y-70519327D01*
X171865475Y-70519316D01*
X171866119Y-70515454D01*
X171867055Y-70508900D01*
X171867070Y-70508797D01*
X171867101Y-70508586D01*
X171867136Y-70508356D01*
X171867172Y-70508134D01*
X171867179Y-70508095D01*
X171868902Y-70497757D01*
X171868903Y-70497748D01*
X171869136Y-70496356D01*
X171869385Y-70495253D01*
X171869770Y-70493902D01*
X171869775Y-70493884D01*
X171871238Y-70488765D01*
X171871247Y-70488734D01*
X171871385Y-70488253D01*
X171871513Y-70487838D01*
X171871675Y-70487350D01*
X171871684Y-70487323D01*
X171872950Y-70483526D01*
X171872951Y-70483521D01*
X171873513Y-70481838D01*
X171874056Y-70480528D01*
X171874845Y-70478948D01*
X171874853Y-70478931D01*
X171882619Y-70463399D01*
X171882635Y-70463368D01*
X171883056Y-70462528D01*
X171883425Y-70461855D01*
X171883903Y-70461058D01*
X171883918Y-70461031D01*
X171885560Y-70458295D01*
X171885567Y-70458284D01*
X171886425Y-70456855D01*
X171887191Y-70455753D01*
X171888237Y-70454444D01*
X171888243Y-70454437D01*
X171890244Y-70451936D01*
X171891522Y-70450189D01*
X171891649Y-70449999D01*
X171892373Y-70448912D01*
X171894075Y-70446358D01*
X171894082Y-70446347D01*
X171894679Y-70445453D01*
X171895191Y-70444753D01*
X171899191Y-70439753D01*
X171900753Y-70438191D01*
X171902924Y-70436453D01*
X171906453Y-70432924D01*
X171908191Y-70430753D01*
X171909753Y-70429191D01*
X171914753Y-70425191D01*
X171915453Y-70424679D01*
X171916347Y-70424082D01*
X171916358Y-70424075D01*
X171918912Y-70422373D01*
X171920194Y-70421518D01*
X171921936Y-70420244D01*
X171924437Y-70418243D01*
X171924444Y-70418237D01*
X171925753Y-70417191D01*
X171926855Y-70416425D01*
X171928284Y-70415567D01*
X171928295Y-70415560D01*
X171931031Y-70413918D01*
X171931058Y-70413903D01*
X171931855Y-70413425D01*
X171932528Y-70413056D01*
X171933368Y-70412635D01*
X171933399Y-70412619D01*
X171948931Y-70404853D01*
X171948948Y-70404845D01*
X171950528Y-70404056D01*
X171951838Y-70403513D01*
X171953521Y-70402951D01*
X171953526Y-70402950D01*
X171957323Y-70401684D01*
X171957350Y-70401675D01*
X171957838Y-70401513D01*
X171958253Y-70401385D01*
X171958734Y-70401247D01*
X171958765Y-70401238D01*
X171963884Y-70399775D01*
X171963902Y-70399770D01*
X171965253Y-70399385D01*
X171966356Y-70399136D01*
X171967748Y-70398903D01*
X171967757Y-70398902D01*
X171978095Y-70397179D01*
X171978134Y-70397172D01*
X171978356Y-70397136D01*
X171978586Y-70397101D01*
X171978797Y-70397070D01*
X171978900Y-70397055D01*
X171985454Y-70396119D01*
X171989316Y-70395475D01*
X171989327Y-70395474D01*
X171991356Y-70395136D01*
X171993000Y-70395000D01*
X172207000Y-70395000D01*
X172208644Y-70395136D01*
G37*
G36*
X159540000Y-72525000D02*
G01*
X158240000Y-72525000D01*
X158240000Y-71475000D01*
X159540000Y-71475000D01*
X159540000Y-72525000D01*
G37*
G36*
X161840000Y-72525000D02*
G01*
X160540000Y-72525000D01*
X160540000Y-71475000D01*
X161840000Y-71475000D01*
X161840000Y-72525000D01*
G37*
G36*
X155825000Y-72450000D02*
G01*
X154275000Y-72450000D01*
X154275000Y-71850000D01*
X155825000Y-71850000D01*
X155825000Y-72450000D01*
G37*
G36*
X175716104Y-71072127D02*
G01*
X175789099Y-71120901D01*
X175837873Y-71193896D01*
X175855000Y-71280000D01*
X175855000Y-71780000D01*
X175837873Y-71866104D01*
X175789099Y-71939099D01*
X175716104Y-71987873D01*
X175630000Y-72005000D01*
X175180000Y-72005000D01*
X175093896Y-71987873D01*
X175020901Y-71939099D01*
X174972127Y-71866104D01*
X174955000Y-71780000D01*
X174955000Y-71280000D01*
X174972127Y-71193896D01*
X175020901Y-71120901D01*
X175093896Y-71072127D01*
X175180000Y-71055000D01*
X175630000Y-71055000D01*
X175716104Y-71072127D01*
G37*
G36*
X177266104Y-71072127D02*
G01*
X177339099Y-71120901D01*
X177387873Y-71193896D01*
X177405000Y-71280000D01*
X177405000Y-71780000D01*
X177387873Y-71866104D01*
X177339099Y-71939099D01*
X177266104Y-71987873D01*
X177180000Y-72005000D01*
X176730000Y-72005000D01*
X176643896Y-71987873D01*
X176570901Y-71939099D01*
X176522127Y-71866104D01*
X176505000Y-71780000D01*
X176505000Y-71280000D01*
X176522127Y-71193896D01*
X176570901Y-71120901D01*
X176643896Y-71072127D01*
X176730000Y-71055000D01*
X177180000Y-71055000D01*
X177266104Y-71072127D01*
G37*
G36*
X186225000Y-71550000D02*
G01*
X184675000Y-71550000D01*
X184675000Y-70950000D01*
X186225000Y-70950000D01*
X186225000Y-71550000D01*
G37*
G36*
X155825000Y-71450000D02*
G01*
X154275000Y-71450000D01*
X154275000Y-70850000D01*
X155825000Y-70850000D01*
X155825000Y-71450000D01*
G37*
G36*
X166533576Y-70540657D02*
G01*
X166578995Y-70571005D01*
X166609343Y-70616424D01*
X166620000Y-70670000D01*
X166620000Y-70950000D01*
X166609343Y-71003576D01*
X166578995Y-71048995D01*
X166533576Y-71079343D01*
X166480000Y-71090000D01*
X166140000Y-71090000D01*
X166086424Y-71079343D01*
X166041005Y-71048995D01*
X166010657Y-71003576D01*
X166000000Y-70950000D01*
X166000000Y-70670000D01*
X166010657Y-70616424D01*
X166041005Y-70571005D01*
X166086424Y-70540657D01*
X166140000Y-70530000D01*
X166480000Y-70530000D01*
X166533576Y-70540657D01*
G37*
G36*
X159540000Y-70775000D02*
G01*
X158240000Y-70775000D01*
X158240000Y-69725000D01*
X159540000Y-69725000D01*
X159540000Y-70775000D01*
G37*
G36*
X161840000Y-70775000D02*
G01*
X160540000Y-70775000D01*
X160540000Y-69725000D01*
X161840000Y-69725000D01*
X161840000Y-70775000D01*
G37*
G36*
X186225000Y-70550000D02*
G01*
X184675000Y-70550000D01*
X184675000Y-69950000D01*
X186225000Y-69950000D01*
X186225000Y-70550000D01*
G37*
G36*
X155825000Y-70450000D02*
G01*
X154275000Y-70450000D01*
X154275000Y-69850000D01*
X155825000Y-69850000D01*
X155825000Y-70450000D01*
G37*
G36*
X176383576Y-69715657D02*
G01*
X176428995Y-69746005D01*
X176459343Y-69791424D01*
X176470000Y-69845000D01*
X176470000Y-70185000D01*
X176459343Y-70238576D01*
X176428995Y-70283995D01*
X176383576Y-70314343D01*
X176330000Y-70325000D01*
X176050000Y-70325000D01*
X175996424Y-70314343D01*
X175951005Y-70283995D01*
X175920657Y-70238576D01*
X175910000Y-70185000D01*
X175910000Y-69845000D01*
X175920657Y-69791424D01*
X175951005Y-69746005D01*
X175996424Y-69715657D01*
X176050000Y-69705000D01*
X176330000Y-69705000D01*
X176383576Y-69715657D01*
G37*
G36*
X177343576Y-69715657D02*
G01*
X177388995Y-69746005D01*
X177419343Y-69791424D01*
X177430000Y-69845000D01*
X177430000Y-70185000D01*
X177419343Y-70238576D01*
X177388995Y-70283995D01*
X177343576Y-70314343D01*
X177290000Y-70325000D01*
X177010000Y-70325000D01*
X176956424Y-70314343D01*
X176911005Y-70283995D01*
X176880657Y-70238576D01*
X176870000Y-70185000D01*
X176870000Y-69845000D01*
X176880657Y-69791424D01*
X176911005Y-69746005D01*
X176956424Y-69715657D01*
X177010000Y-69705000D01*
X177290000Y-69705000D01*
X177343576Y-69715657D01*
G37*
G36*
X166533576Y-69580657D02*
G01*
X166578995Y-69611005D01*
X166609343Y-69656424D01*
X166620000Y-69710000D01*
X166620000Y-69990000D01*
X166609343Y-70043576D01*
X166578995Y-70088995D01*
X166533576Y-70119343D01*
X166480000Y-70130000D01*
X166140000Y-70130000D01*
X166086424Y-70119343D01*
X166041005Y-70088995D01*
X166010657Y-70043576D01*
X166000000Y-69990000D01*
X166000000Y-69710000D01*
X166010657Y-69656424D01*
X166041005Y-69611005D01*
X166086424Y-69580657D01*
X166140000Y-69570000D01*
X166480000Y-69570000D01*
X166533576Y-69580657D01*
G37*
G36*
X172173576Y-69425657D02*
G01*
X172218995Y-69456005D01*
X172249343Y-69501424D01*
X172260000Y-69555000D01*
X172260000Y-69835000D01*
X172249343Y-69888576D01*
X172218995Y-69933995D01*
X172173576Y-69964343D01*
X172120000Y-69975000D01*
X171780000Y-69975000D01*
X171726424Y-69964343D01*
X171681005Y-69933995D01*
X171650657Y-69888576D01*
X171640000Y-69835000D01*
X171640000Y-69555000D01*
X171650657Y-69501424D01*
X171681005Y-69456005D01*
X171726424Y-69425657D01*
X171780000Y-69415000D01*
X172120000Y-69415000D01*
X172173576Y-69425657D01*
G37*
G36*
X173153576Y-69425657D02*
G01*
X173198995Y-69456005D01*
X173229343Y-69501424D01*
X173240000Y-69555000D01*
X173240000Y-69835000D01*
X173229343Y-69888576D01*
X173198995Y-69933995D01*
X173153576Y-69964343D01*
X173100000Y-69975000D01*
X172760000Y-69975000D01*
X172706424Y-69964343D01*
X172661005Y-69933995D01*
X172630657Y-69888576D01*
X172620000Y-69835000D01*
X172620000Y-69555000D01*
X172630657Y-69501424D01*
X172661005Y-69456005D01*
X172706424Y-69425657D01*
X172760000Y-69415000D01*
X173100000Y-69415000D01*
X173153576Y-69425657D01*
G37*
G36*
X174123576Y-69425657D02*
G01*
X174168995Y-69456005D01*
X174199343Y-69501424D01*
X174210000Y-69555000D01*
X174210000Y-69835000D01*
X174199343Y-69888576D01*
X174168995Y-69933995D01*
X174123576Y-69964343D01*
X174070000Y-69975000D01*
X173730000Y-69975000D01*
X173676424Y-69964343D01*
X173631005Y-69933995D01*
X173600657Y-69888576D01*
X173590000Y-69835000D01*
X173590000Y-69555000D01*
X173600657Y-69501424D01*
X173631005Y-69456005D01*
X173676424Y-69425657D01*
X173730000Y-69415000D01*
X174070000Y-69415000D01*
X174123576Y-69425657D01*
G37*
G36*
X186225000Y-69550000D02*
G01*
X184675000Y-69550000D01*
X184675000Y-68950000D01*
X186225000Y-68950000D01*
X186225000Y-69550000D01*
G37*
G36*
X155825000Y-69450000D02*
G01*
X154275000Y-69450000D01*
X154275000Y-68850000D01*
X155825000Y-68850000D01*
X155825000Y-69450000D01*
G37*
G36*
X172173576Y-68465657D02*
G01*
X172218995Y-68496005D01*
X172249343Y-68541424D01*
X172260000Y-68595000D01*
X172260000Y-68875000D01*
X172249343Y-68928576D01*
X172218995Y-68973995D01*
X172173576Y-69004343D01*
X172120000Y-69015000D01*
X171780000Y-69015000D01*
X171726424Y-69004343D01*
X171681005Y-68973995D01*
X171650657Y-68928576D01*
X171640000Y-68875000D01*
X171640000Y-68595000D01*
X171650657Y-68541424D01*
X171681005Y-68496005D01*
X171726424Y-68465657D01*
X171780000Y-68455000D01*
X172120000Y-68455000D01*
X172173576Y-68465657D01*
G37*
G36*
X173153576Y-68465657D02*
G01*
X173198995Y-68496005D01*
X173229343Y-68541424D01*
X173240000Y-68595000D01*
X173240000Y-68875000D01*
X173229343Y-68928576D01*
X173198995Y-68973995D01*
X173153576Y-69004343D01*
X173100000Y-69015000D01*
X172760000Y-69015000D01*
X172706424Y-69004343D01*
X172661005Y-68973995D01*
X172630657Y-68928576D01*
X172620000Y-68875000D01*
X172620000Y-68595000D01*
X172630657Y-68541424D01*
X172661005Y-68496005D01*
X172706424Y-68465657D01*
X172760000Y-68455000D01*
X173100000Y-68455000D01*
X173153576Y-68465657D01*
G37*
G36*
X174123576Y-68465657D02*
G01*
X174168995Y-68496005D01*
X174199343Y-68541424D01*
X174210000Y-68595000D01*
X174210000Y-68875000D01*
X174199343Y-68928576D01*
X174168995Y-68973995D01*
X174123576Y-69004343D01*
X174070000Y-69015000D01*
X173730000Y-69015000D01*
X173676424Y-69004343D01*
X173631005Y-68973995D01*
X173600657Y-68928576D01*
X173590000Y-68875000D01*
X173590000Y-68595000D01*
X173600657Y-68541424D01*
X173631005Y-68496005D01*
X173676424Y-68465657D01*
X173730000Y-68455000D01*
X174070000Y-68455000D01*
X174123576Y-68465657D01*
G37*
G36*
X175504047Y-67805805D02*
G01*
X175555408Y-67811764D01*
X175572954Y-67819511D01*
X175595671Y-67824030D01*
X175619991Y-67840280D01*
X175640793Y-67849465D01*
X175655000Y-67863672D01*
X175676777Y-67878223D01*
X175691327Y-67899999D01*
X175705534Y-67914206D01*
X175714718Y-67935006D01*
X175730970Y-67959329D01*
X175735489Y-67982048D01*
X175743235Y-67999591D01*
X175749192Y-68050940D01*
X175750000Y-68055000D01*
X175750000Y-68685000D01*
X175749192Y-68689059D01*
X175743235Y-68740408D01*
X175735489Y-68757950D01*
X175730970Y-68780671D01*
X175714716Y-68804995D01*
X175705534Y-68825793D01*
X175691329Y-68839997D01*
X175676777Y-68861777D01*
X175654997Y-68876329D01*
X175640793Y-68890534D01*
X175619995Y-68899716D01*
X175595671Y-68915970D01*
X175572950Y-68920489D01*
X175555408Y-68928235D01*
X175504061Y-68934192D01*
X175500000Y-68935000D01*
X174910000Y-68935000D01*
X174905941Y-68934192D01*
X174854591Y-68928235D01*
X174837048Y-68920489D01*
X174814329Y-68915970D01*
X174790006Y-68899718D01*
X174769206Y-68890534D01*
X174754999Y-68876327D01*
X174733223Y-68861777D01*
X174718672Y-68840000D01*
X174704465Y-68825793D01*
X174695280Y-68804991D01*
X174679030Y-68780671D01*
X174674511Y-68757954D01*
X174666764Y-68740408D01*
X174660805Y-68689049D01*
X174660000Y-68685000D01*
X174660000Y-68055000D01*
X174660804Y-68050953D01*
X174666764Y-67999591D01*
X174674511Y-67982043D01*
X174679030Y-67959329D01*
X174695278Y-67935010D01*
X174704465Y-67914206D01*
X174718674Y-67899996D01*
X174733223Y-67878223D01*
X174754996Y-67863674D01*
X174769206Y-67849465D01*
X174790010Y-67840278D01*
X174814329Y-67824030D01*
X174837043Y-67819511D01*
X174854591Y-67811764D01*
X174905952Y-67805805D01*
X174910000Y-67805000D01*
X175500000Y-67805000D01*
X175504047Y-67805805D01*
G37*
G36*
X176934047Y-67805805D02*
G01*
X176985408Y-67811764D01*
X177002954Y-67819511D01*
X177025671Y-67824030D01*
X177049991Y-67840280D01*
X177070793Y-67849465D01*
X177085000Y-67863672D01*
X177106777Y-67878223D01*
X177121327Y-67899999D01*
X177135534Y-67914206D01*
X177144718Y-67935006D01*
X177160970Y-67959329D01*
X177165489Y-67982048D01*
X177173235Y-67999591D01*
X177179192Y-68050940D01*
X177180000Y-68055000D01*
X177180000Y-68685000D01*
X177179192Y-68689059D01*
X177173235Y-68740408D01*
X177165489Y-68757950D01*
X177160970Y-68780671D01*
X177144716Y-68804995D01*
X177135534Y-68825793D01*
X177121329Y-68839997D01*
X177106777Y-68861777D01*
X177084997Y-68876329D01*
X177070793Y-68890534D01*
X177049995Y-68899716D01*
X177025671Y-68915970D01*
X177002950Y-68920489D01*
X176985408Y-68928235D01*
X176934061Y-68934192D01*
X176930000Y-68935000D01*
X176340000Y-68935000D01*
X176335941Y-68934192D01*
X176284591Y-68928235D01*
X176267048Y-68920489D01*
X176244329Y-68915970D01*
X176220006Y-68899718D01*
X176199206Y-68890534D01*
X176184999Y-68876327D01*
X176163223Y-68861777D01*
X176148672Y-68840000D01*
X176134465Y-68825793D01*
X176125280Y-68804991D01*
X176109030Y-68780671D01*
X176104511Y-68757954D01*
X176096764Y-68740408D01*
X176090805Y-68689049D01*
X176090000Y-68685000D01*
X176090000Y-68055000D01*
X176090804Y-68050953D01*
X176096764Y-67999591D01*
X176104511Y-67982043D01*
X176109030Y-67959329D01*
X176125278Y-67935010D01*
X176134465Y-67914206D01*
X176148674Y-67899996D01*
X176163223Y-67878223D01*
X176184996Y-67863674D01*
X176199206Y-67849465D01*
X176220010Y-67840278D01*
X176244329Y-67824030D01*
X176267043Y-67819511D01*
X176284591Y-67811764D01*
X176335952Y-67805805D01*
X176340000Y-67805000D01*
X176930000Y-67805000D01*
X176934047Y-67805805D01*
G37*
G36*
X158175000Y-68907500D02*
G01*
X157725000Y-68907500D01*
X157725000Y-67432500D01*
X158175000Y-67432500D01*
X158175000Y-68907500D01*
G37*
G36*
X158825000Y-68907500D02*
G01*
X158375000Y-68907500D01*
X158375000Y-67432500D01*
X158825000Y-67432500D01*
X158825000Y-68907500D01*
G37*
G36*
X159475000Y-68907500D02*
G01*
X159025000Y-68907500D01*
X159025000Y-67432500D01*
X159475000Y-67432500D01*
X159475000Y-68907500D01*
G37*
G36*
X160125000Y-68907500D02*
G01*
X159675000Y-68907500D01*
X159675000Y-67432500D01*
X160125000Y-67432500D01*
X160125000Y-68907500D01*
G37*
G36*
X160775000Y-68907500D02*
G01*
X160325000Y-68907500D01*
X160325000Y-67432500D01*
X160775000Y-67432500D01*
X160775000Y-68907500D01*
G37*
G36*
X161425000Y-68907500D02*
G01*
X160975000Y-68907500D01*
X160975000Y-67432500D01*
X161425000Y-67432500D01*
X161425000Y-68907500D01*
G37*
G36*
X162075000Y-68907500D02*
G01*
X161625000Y-68907500D01*
X161625000Y-67432500D01*
X162075000Y-67432500D01*
X162075000Y-68907500D01*
G37*
G36*
X162725000Y-68907500D02*
G01*
X162275000Y-68907500D01*
X162275000Y-67432500D01*
X162725000Y-67432500D01*
X162725000Y-68907500D01*
G37*
G36*
X163375000Y-68907500D02*
G01*
X162925000Y-68907500D01*
X162925000Y-67432500D01*
X163375000Y-67432500D01*
X163375000Y-68907500D01*
G37*
G36*
X164025000Y-68907500D02*
G01*
X163575000Y-68907500D01*
X163575000Y-67432500D01*
X164025000Y-67432500D01*
X164025000Y-68907500D01*
G37*
G36*
X164675000Y-68907500D02*
G01*
X164225000Y-68907500D01*
X164225000Y-67432500D01*
X164675000Y-67432500D01*
X164675000Y-68907500D01*
G37*
G36*
X165325000Y-68907500D02*
G01*
X164875000Y-68907500D01*
X164875000Y-67432500D01*
X165325000Y-67432500D01*
X165325000Y-68907500D01*
G37*
G36*
X165975000Y-68907500D02*
G01*
X165525000Y-68907500D01*
X165525000Y-67432500D01*
X165975000Y-67432500D01*
X165975000Y-68907500D01*
G37*
G36*
X166625000Y-68907500D02*
G01*
X166175000Y-68907500D01*
X166175000Y-67432500D01*
X166625000Y-67432500D01*
X166625000Y-68907500D01*
G37*
G36*
X186225000Y-68550000D02*
G01*
X184675000Y-68550000D01*
X184675000Y-67950000D01*
X186225000Y-67950000D01*
X186225000Y-68550000D01*
G37*
G36*
X155825000Y-68450000D02*
G01*
X154275000Y-68450000D01*
X154275000Y-67850000D01*
X155825000Y-67850000D01*
X155825000Y-68450000D01*
G37*
G36*
X169246662Y-67020276D02*
G01*
X169290459Y-67049541D01*
X169319724Y-67093338D01*
X169330000Y-67145000D01*
X169330000Y-67415000D01*
X169319724Y-67466662D01*
X169290459Y-67510459D01*
X169246662Y-67539724D01*
X169195000Y-67550000D01*
X168825000Y-67550000D01*
X168773338Y-67539724D01*
X168729541Y-67510459D01*
X168700276Y-67466662D01*
X168690000Y-67415000D01*
X168690000Y-67145000D01*
X168700276Y-67093338D01*
X168729541Y-67049541D01*
X168773338Y-67020276D01*
X168825000Y-67010000D01*
X169195000Y-67010000D01*
X169246662Y-67020276D01*
G37*
G36*
X190225000Y-67550000D02*
G01*
X188425000Y-67550000D01*
X188425000Y-66350000D01*
X190225000Y-66350000D01*
X190225000Y-67550000D01*
G37*
G36*
X155825000Y-67450000D02*
G01*
X154275000Y-67450000D01*
X154275000Y-66850000D01*
X155825000Y-66850000D01*
X155825000Y-67450000D01*
G37*
G36*
X175648576Y-66760657D02*
G01*
X175693995Y-66791005D01*
X175724343Y-66836424D01*
X175735000Y-66890000D01*
X175735000Y-67230000D01*
X175724343Y-67283576D01*
X175693995Y-67328995D01*
X175648576Y-67359343D01*
X175595000Y-67370000D01*
X175315000Y-67370000D01*
X175261424Y-67359343D01*
X175216005Y-67328995D01*
X175185657Y-67283576D01*
X175175000Y-67230000D01*
X175175000Y-66890000D01*
X175185657Y-66836424D01*
X175216005Y-66791005D01*
X175261424Y-66760657D01*
X175315000Y-66750000D01*
X175595000Y-66750000D01*
X175648576Y-66760657D01*
G37*
G36*
X176608576Y-66760657D02*
G01*
X176653995Y-66791005D01*
X176684343Y-66836424D01*
X176695000Y-66890000D01*
X176695000Y-67230000D01*
X176684343Y-67283576D01*
X176653995Y-67328995D01*
X176608576Y-67359343D01*
X176555000Y-67370000D01*
X176275000Y-67370000D01*
X176221424Y-67359343D01*
X176176005Y-67328995D01*
X176145657Y-67283576D01*
X176135000Y-67230000D01*
X176135000Y-66890000D01*
X176145657Y-66836424D01*
X176176005Y-66791005D01*
X176221424Y-66760657D01*
X176275000Y-66750000D01*
X176555000Y-66750000D01*
X176608576Y-66760657D01*
G37*
G36*
X156714372Y-66579739D02*
G01*
X156787847Y-66622160D01*
X156847840Y-66682153D01*
X156890261Y-66755628D01*
X156912220Y-66837579D01*
X156912220Y-66922421D01*
X156890261Y-67004372D01*
X156847840Y-67077847D01*
X156787847Y-67137840D01*
X156714372Y-67180261D01*
X156632421Y-67202220D01*
X156547579Y-67202220D01*
X156465628Y-67180261D01*
X156392153Y-67137840D01*
X156332160Y-67077847D01*
X156289739Y-67004372D01*
X156267780Y-66922421D01*
X156267780Y-66837579D01*
X156289739Y-66755628D01*
X156332160Y-66682153D01*
X156392153Y-66622160D01*
X156465628Y-66579739D01*
X156547579Y-66557780D01*
X156632421Y-66557780D01*
X156714372Y-66579739D01*
G37*
G36*
X165275000Y-66607000D02*
G01*
X159075000Y-66607000D01*
X159075000Y-63857000D01*
X165275000Y-63857000D01*
X165275000Y-66607000D01*
G37*
G36*
X169246662Y-66000276D02*
G01*
X169290459Y-66029541D01*
X169319724Y-66073338D01*
X169330000Y-66125000D01*
X169330000Y-66395000D01*
X169319724Y-66446662D01*
X169290459Y-66490459D01*
X169246662Y-66519724D01*
X169195000Y-66530000D01*
X168825000Y-66530000D01*
X168773338Y-66519724D01*
X168729541Y-66490459D01*
X168700276Y-66446662D01*
X168690000Y-66395000D01*
X168690000Y-66125000D01*
X168700276Y-66073338D01*
X168729541Y-66029541D01*
X168773338Y-66000276D01*
X168825000Y-65990000D01*
X169195000Y-65990000D01*
X169246662Y-66000276D01*
G37*
G36*
X152075000Y-66450000D02*
G01*
X150275000Y-66450000D01*
X150275000Y-65250000D01*
X152075000Y-65250000D01*
X152075000Y-66450000D01*
G37*
G36*
X175979000Y-66320000D02*
G01*
X175599000Y-66320000D01*
X175599000Y-65920000D01*
X175979000Y-65920000D01*
X175979000Y-66320000D01*
G37*
G36*
X176541000Y-66320000D02*
G01*
X176161000Y-66320000D01*
X176161000Y-65920000D01*
X176541000Y-65920000D01*
X176541000Y-66320000D01*
G37*
G36*
X176113576Y-64915657D02*
G01*
X176158995Y-64946005D01*
X176189343Y-64991424D01*
X176200000Y-65045000D01*
X176200000Y-65385000D01*
X176189343Y-65438576D01*
X176158995Y-65483995D01*
X176113576Y-65514343D01*
X176060000Y-65525000D01*
X175780000Y-65525000D01*
X175726424Y-65514343D01*
X175681005Y-65483995D01*
X175650657Y-65438576D01*
X175640000Y-65385000D01*
X175640000Y-65045000D01*
X175650657Y-64991424D01*
X175681005Y-64946005D01*
X175726424Y-64915657D01*
X175780000Y-64905000D01*
X176060000Y-64905000D01*
X176113576Y-64915657D01*
G37*
G36*
X177073576Y-64915657D02*
G01*
X177118995Y-64946005D01*
X177149343Y-64991424D01*
X177160000Y-65045000D01*
X177160000Y-65385000D01*
X177149343Y-65438576D01*
X177118995Y-65483995D01*
X177073576Y-65514343D01*
X177020000Y-65525000D01*
X176740000Y-65525000D01*
X176686424Y-65514343D01*
X176641005Y-65483995D01*
X176610657Y-65438576D01*
X176600000Y-65385000D01*
X176600000Y-65045000D01*
X176610657Y-64991424D01*
X176641005Y-64946005D01*
X176686424Y-64915657D01*
X176740000Y-64905000D01*
X177020000Y-64905000D01*
X177073576Y-64915657D01*
G37*
G36*
X171463576Y-64865657D02*
G01*
X171508995Y-64896005D01*
X171539343Y-64941424D01*
X171550000Y-64995000D01*
X171550000Y-65335000D01*
X171539343Y-65388576D01*
X171508995Y-65433995D01*
X171463576Y-65464343D01*
X171410000Y-65475000D01*
X171130000Y-65475000D01*
X171076424Y-65464343D01*
X171031005Y-65433995D01*
X171000657Y-65388576D01*
X170990000Y-65335000D01*
X170990000Y-64995000D01*
X171000657Y-64941424D01*
X171031005Y-64896005D01*
X171076424Y-64865657D01*
X171130000Y-64855000D01*
X171410000Y-64855000D01*
X171463576Y-64865657D01*
G37*
G36*
X172423576Y-64865657D02*
G01*
X172468995Y-64896005D01*
X172499343Y-64941424D01*
X172510000Y-64995000D01*
X172510000Y-65335000D01*
X172499343Y-65388576D01*
X172468995Y-65433995D01*
X172423576Y-65464343D01*
X172370000Y-65475000D01*
X172090000Y-65475000D01*
X172036424Y-65464343D01*
X171991005Y-65433995D01*
X171960657Y-65388576D01*
X171950000Y-65335000D01*
X171950000Y-64995000D01*
X171960657Y-64941424D01*
X171991005Y-64896005D01*
X172036424Y-64865657D01*
X172090000Y-64855000D01*
X172370000Y-64855000D01*
X172423576Y-64865657D01*
G37*
G36*
X168273576Y-64240657D02*
G01*
X168318995Y-64271005D01*
X168349343Y-64316424D01*
X168360000Y-64370000D01*
X168360000Y-64710000D01*
X168349343Y-64763576D01*
X168318995Y-64808995D01*
X168273576Y-64839343D01*
X168220000Y-64850000D01*
X167940000Y-64850000D01*
X167886424Y-64839343D01*
X167841005Y-64808995D01*
X167810657Y-64763576D01*
X167800000Y-64710000D01*
X167800000Y-64370000D01*
X167810657Y-64316424D01*
X167841005Y-64271005D01*
X167886424Y-64240657D01*
X167940000Y-64230000D01*
X168220000Y-64230000D01*
X168273576Y-64240657D01*
G37*
G36*
X169233576Y-64240657D02*
G01*
X169278995Y-64271005D01*
X169309343Y-64316424D01*
X169320000Y-64370000D01*
X169320000Y-64710000D01*
X169309343Y-64763576D01*
X169278995Y-64808995D01*
X169233576Y-64839343D01*
X169180000Y-64850000D01*
X168900000Y-64850000D01*
X168846424Y-64839343D01*
X168801005Y-64808995D01*
X168770657Y-64763576D01*
X168760000Y-64710000D01*
X168760000Y-64370000D01*
X168770657Y-64316424D01*
X168801005Y-64271005D01*
X168846424Y-64240657D01*
X168900000Y-64230000D01*
X169180000Y-64230000D01*
X169233576Y-64240657D01*
G37*
G36*
X152025000Y-64100000D02*
G01*
X150225000Y-64100000D01*
X150225000Y-62900000D01*
X152025000Y-62900000D01*
X152025000Y-64100000D01*
G37*
G36*
X190275000Y-63900000D02*
G01*
X188475000Y-63900000D01*
X188475000Y-62700000D01*
X190275000Y-62700000D01*
X190275000Y-63900000D01*
G37*
G36*
X168469047Y-62640805D02*
G01*
X168520408Y-62646764D01*
X168537954Y-62654511D01*
X168560671Y-62659030D01*
X168584991Y-62675280D01*
X168605793Y-62684465D01*
X168620000Y-62698672D01*
X168641777Y-62713223D01*
X168656327Y-62734999D01*
X168670534Y-62749206D01*
X168679718Y-62770006D01*
X168695970Y-62794329D01*
X168700489Y-62817048D01*
X168708235Y-62834591D01*
X168714192Y-62885940D01*
X168715000Y-62890000D01*
X168715000Y-63480000D01*
X168714192Y-63484059D01*
X168708235Y-63535408D01*
X168700489Y-63552950D01*
X168695970Y-63575671D01*
X168679716Y-63599995D01*
X168670534Y-63620793D01*
X168656329Y-63634997D01*
X168641777Y-63656777D01*
X168619997Y-63671329D01*
X168605793Y-63685534D01*
X168584995Y-63694716D01*
X168560671Y-63710970D01*
X168537950Y-63715489D01*
X168520408Y-63723235D01*
X168469061Y-63729192D01*
X168465000Y-63730000D01*
X167835000Y-63730000D01*
X167830941Y-63729192D01*
X167779591Y-63723235D01*
X167762048Y-63715489D01*
X167739329Y-63710970D01*
X167715006Y-63694718D01*
X167694206Y-63685534D01*
X167679999Y-63671327D01*
X167658223Y-63656777D01*
X167643672Y-63635000D01*
X167629465Y-63620793D01*
X167620280Y-63599991D01*
X167604030Y-63575671D01*
X167599511Y-63552954D01*
X167591764Y-63535408D01*
X167585805Y-63484049D01*
X167585000Y-63480000D01*
X167585000Y-62890000D01*
X167585804Y-62885953D01*
X167591764Y-62834591D01*
X167599511Y-62817043D01*
X167604030Y-62794329D01*
X167620278Y-62770010D01*
X167629465Y-62749206D01*
X167643674Y-62734996D01*
X167658223Y-62713223D01*
X167679996Y-62698674D01*
X167694206Y-62684465D01*
X167715010Y-62675278D01*
X167739329Y-62659030D01*
X167762043Y-62654511D01*
X167779591Y-62646764D01*
X167830952Y-62640805D01*
X167835000Y-62640000D01*
X168465000Y-62640000D01*
X168469047Y-62640805D01*
G37*
G36*
X179543576Y-62850657D02*
G01*
X179588995Y-62881005D01*
X179619343Y-62926424D01*
X179630000Y-62980000D01*
X179630000Y-63320000D01*
X179619343Y-63373576D01*
X179588995Y-63418995D01*
X179543576Y-63449343D01*
X179490000Y-63460000D01*
X179210000Y-63460000D01*
X179156424Y-63449343D01*
X179111005Y-63418995D01*
X179080657Y-63373576D01*
X179070000Y-63320000D01*
X179070000Y-62980000D01*
X179080657Y-62926424D01*
X179111005Y-62881005D01*
X179156424Y-62850657D01*
X179210000Y-62840000D01*
X179490000Y-62840000D01*
X179543576Y-62850657D01*
G37*
G36*
X180503576Y-62850657D02*
G01*
X180548995Y-62881005D01*
X180579343Y-62926424D01*
X180590000Y-62980000D01*
X180590000Y-63320000D01*
X180579343Y-63373576D01*
X180548995Y-63418995D01*
X180503576Y-63449343D01*
X180450000Y-63460000D01*
X180170000Y-63460000D01*
X180116424Y-63449343D01*
X180071005Y-63418995D01*
X180040657Y-63373576D01*
X180030000Y-63320000D01*
X180030000Y-62980000D01*
X180040657Y-62926424D01*
X180071005Y-62881005D01*
X180116424Y-62850657D01*
X180170000Y-62840000D01*
X180450000Y-62840000D01*
X180503576Y-62850657D01*
G37*
G36*
X158175000Y-63031500D02*
G01*
X157725000Y-63031500D01*
X157725000Y-61556500D01*
X158175000Y-61556500D01*
X158175000Y-63031500D01*
G37*
G36*
X158825000Y-63031500D02*
G01*
X158375000Y-63031500D01*
X158375000Y-61556500D01*
X158825000Y-61556500D01*
X158825000Y-63031500D01*
G37*
G36*
X159475000Y-63031500D02*
G01*
X159025000Y-63031500D01*
X159025000Y-61556500D01*
X159475000Y-61556500D01*
X159475000Y-63031500D01*
G37*
G36*
X160125000Y-63031500D02*
G01*
X159675000Y-63031500D01*
X159675000Y-61556500D01*
X160125000Y-61556500D01*
X160125000Y-63031500D01*
G37*
G36*
X160775000Y-63031500D02*
G01*
X160325000Y-63031500D01*
X160325000Y-61556500D01*
X160775000Y-61556500D01*
X160775000Y-63031500D01*
G37*
G36*
X161425000Y-63031500D02*
G01*
X160975000Y-63031500D01*
X160975000Y-61556500D01*
X161425000Y-61556500D01*
X161425000Y-63031500D01*
G37*
G36*
X162075000Y-63031500D02*
G01*
X161625000Y-63031500D01*
X161625000Y-61556500D01*
X162075000Y-61556500D01*
X162075000Y-63031500D01*
G37*
G36*
X162725000Y-63031500D02*
G01*
X162275000Y-63031500D01*
X162275000Y-61556500D01*
X162725000Y-61556500D01*
X162725000Y-63031500D01*
G37*
G36*
X163375000Y-63031500D02*
G01*
X162925000Y-63031500D01*
X162925000Y-61556500D01*
X163375000Y-61556500D01*
X163375000Y-63031500D01*
G37*
G36*
X164025000Y-63031500D02*
G01*
X163575000Y-63031500D01*
X163575000Y-61556500D01*
X164025000Y-61556500D01*
X164025000Y-63031500D01*
G37*
G36*
X164675000Y-63031500D02*
G01*
X164225000Y-63031500D01*
X164225000Y-61556500D01*
X164675000Y-61556500D01*
X164675000Y-63031500D01*
G37*
G36*
X165325000Y-63031500D02*
G01*
X164875000Y-63031500D01*
X164875000Y-61556500D01*
X165325000Y-61556500D01*
X165325000Y-63031500D01*
G37*
G36*
X165975000Y-63031500D02*
G01*
X165525000Y-63031500D01*
X165525000Y-61556500D01*
X165975000Y-61556500D01*
X165975000Y-63031500D01*
G37*
G36*
X166625000Y-63031500D02*
G01*
X166175000Y-63031500D01*
X166175000Y-61556500D01*
X166625000Y-61556500D01*
X166625000Y-63031500D01*
G37*
G36*
X169736662Y-62120276D02*
G01*
X169780459Y-62149541D01*
X169809724Y-62193338D01*
X169820000Y-62245000D01*
X169820000Y-62515000D01*
X169809724Y-62566662D01*
X169780459Y-62610459D01*
X169736662Y-62639724D01*
X169685000Y-62650000D01*
X169315000Y-62650000D01*
X169263338Y-62639724D01*
X169219541Y-62610459D01*
X169190276Y-62566662D01*
X169180000Y-62515000D01*
X169180000Y-62245000D01*
X169190276Y-62193338D01*
X169219541Y-62149541D01*
X169263338Y-62120276D01*
X169315000Y-62110000D01*
X169685000Y-62110000D01*
X169736662Y-62120276D01*
G37*
G36*
X155775000Y-62500000D02*
G01*
X154225000Y-62500000D01*
X154225000Y-61900000D01*
X155775000Y-61900000D01*
X155775000Y-62500000D01*
G37*
G36*
X179946104Y-61472127D02*
G01*
X180019099Y-61520901D01*
X180067873Y-61593896D01*
X180085000Y-61680000D01*
X180085000Y-62180000D01*
X180067873Y-62266104D01*
X180019099Y-62339099D01*
X179946104Y-62387873D01*
X179860000Y-62405000D01*
X179410000Y-62405000D01*
X179323896Y-62387873D01*
X179250901Y-62339099D01*
X179202127Y-62266104D01*
X179185000Y-62180000D01*
X179185000Y-61680000D01*
X179202127Y-61593896D01*
X179250901Y-61520901D01*
X179323896Y-61472127D01*
X179410000Y-61455000D01*
X179860000Y-61455000D01*
X179946104Y-61472127D01*
G37*
G36*
X181496104Y-61472127D02*
G01*
X181569099Y-61520901D01*
X181617873Y-61593896D01*
X181635000Y-61680000D01*
X181635000Y-62180000D01*
X181617873Y-62266104D01*
X181569099Y-62339099D01*
X181496104Y-62387873D01*
X181410000Y-62405000D01*
X180960000Y-62405000D01*
X180873896Y-62387873D01*
X180800901Y-62339099D01*
X180752127Y-62266104D01*
X180735000Y-62180000D01*
X180735000Y-61680000D01*
X180752127Y-61593896D01*
X180800901Y-61520901D01*
X180873896Y-61472127D01*
X180960000Y-61455000D01*
X181410000Y-61455000D01*
X181496104Y-61472127D01*
G37*
G36*
X168469047Y-61210805D02*
G01*
X168520408Y-61216764D01*
X168537954Y-61224511D01*
X168560671Y-61229030D01*
X168584991Y-61245280D01*
X168605793Y-61254465D01*
X168620000Y-61268672D01*
X168641777Y-61283223D01*
X168656327Y-61304999D01*
X168670534Y-61319206D01*
X168679718Y-61340006D01*
X168695970Y-61364329D01*
X168700489Y-61387048D01*
X168708235Y-61404591D01*
X168714192Y-61455940D01*
X168715000Y-61460000D01*
X168715000Y-62050000D01*
X168714192Y-62054059D01*
X168708235Y-62105408D01*
X168700489Y-62122950D01*
X168695970Y-62145671D01*
X168679716Y-62169995D01*
X168670534Y-62190793D01*
X168656329Y-62204997D01*
X168641777Y-62226777D01*
X168619997Y-62241329D01*
X168605793Y-62255534D01*
X168584995Y-62264716D01*
X168560671Y-62280970D01*
X168537950Y-62285489D01*
X168520408Y-62293235D01*
X168469061Y-62299192D01*
X168465000Y-62300000D01*
X167835000Y-62300000D01*
X167830941Y-62299192D01*
X167779591Y-62293235D01*
X167762048Y-62285489D01*
X167739329Y-62280970D01*
X167715006Y-62264718D01*
X167694206Y-62255534D01*
X167679999Y-62241327D01*
X167658223Y-62226777D01*
X167643672Y-62205000D01*
X167629465Y-62190793D01*
X167620280Y-62169991D01*
X167604030Y-62145671D01*
X167599511Y-62122954D01*
X167591764Y-62105408D01*
X167585805Y-62054049D01*
X167585000Y-62050000D01*
X167585000Y-61460000D01*
X167585804Y-61455953D01*
X167591764Y-61404591D01*
X167599511Y-61387043D01*
X167604030Y-61364329D01*
X167620278Y-61340010D01*
X167629465Y-61319206D01*
X167643674Y-61304996D01*
X167658223Y-61283223D01*
X167679996Y-61268674D01*
X167694206Y-61254465D01*
X167715010Y-61245278D01*
X167739329Y-61229030D01*
X167762043Y-61224511D01*
X167779591Y-61216764D01*
X167830952Y-61210805D01*
X167835000Y-61210000D01*
X168465000Y-61210000D01*
X168469047Y-61210805D01*
G37*
G36*
X186275000Y-62300000D02*
G01*
X184725000Y-62300000D01*
X184725000Y-61700000D01*
X186275000Y-61700000D01*
X186275000Y-62300000D01*
G37*
G36*
X169736662Y-61100276D02*
G01*
X169780459Y-61129541D01*
X169809724Y-61173338D01*
X169820000Y-61225000D01*
X169820000Y-61495000D01*
X169809724Y-61546662D01*
X169780459Y-61590459D01*
X169736662Y-61619724D01*
X169685000Y-61630000D01*
X169315000Y-61630000D01*
X169263338Y-61619724D01*
X169219541Y-61590459D01*
X169190276Y-61546662D01*
X169180000Y-61495000D01*
X169180000Y-61225000D01*
X169190276Y-61173338D01*
X169219541Y-61129541D01*
X169263338Y-61100276D01*
X169315000Y-61090000D01*
X169685000Y-61090000D01*
X169736662Y-61100276D01*
G37*
G36*
X155775000Y-61500000D02*
G01*
X154225000Y-61500000D01*
X154225000Y-60900000D01*
X155775000Y-60900000D01*
X155775000Y-61500000D01*
G37*
G36*
X186275000Y-61300000D02*
G01*
X184725000Y-61300000D01*
X184725000Y-60700000D01*
X186275000Y-60700000D01*
X186275000Y-61300000D01*
G37*
G36*
X160593576Y-60580657D02*
G01*
X160638995Y-60611005D01*
X160669343Y-60656424D01*
X160680000Y-60710000D01*
X160680000Y-60990000D01*
X160669343Y-61043576D01*
X160638995Y-61088995D01*
X160593576Y-61119343D01*
X160540000Y-61130000D01*
X160200000Y-61130000D01*
X160146424Y-61119343D01*
X160101005Y-61088995D01*
X160070657Y-61043576D01*
X160060000Y-60990000D01*
X160060000Y-60710000D01*
X160070657Y-60656424D01*
X160101005Y-60611005D01*
X160146424Y-60580657D01*
X160200000Y-60570000D01*
X160540000Y-60570000D01*
X160593576Y-60580657D01*
G37*
G36*
X161796662Y-60600276D02*
G01*
X161840459Y-60629541D01*
X161869724Y-60673338D01*
X161880000Y-60725000D01*
X161880000Y-60995000D01*
X161869724Y-61046662D01*
X161840459Y-61090459D01*
X161796662Y-61119724D01*
X161745000Y-61130000D01*
X161375000Y-61130000D01*
X161323338Y-61119724D01*
X161279541Y-61090459D01*
X161250276Y-61046662D01*
X161240000Y-60995000D01*
X161240000Y-60725000D01*
X161250276Y-60673338D01*
X161279541Y-60629541D01*
X161323338Y-60600276D01*
X161375000Y-60590000D01*
X161745000Y-60590000D01*
X161796662Y-60600276D01*
G37*
G36*
X164103576Y-60560657D02*
G01*
X164148995Y-60591005D01*
X164179343Y-60636424D01*
X164190000Y-60690000D01*
X164190000Y-60970000D01*
X164179343Y-61023576D01*
X164148995Y-61068995D01*
X164103576Y-61099343D01*
X164050000Y-61110000D01*
X163710000Y-61110000D01*
X163656424Y-61099343D01*
X163611005Y-61068995D01*
X163580657Y-61023576D01*
X163570000Y-60970000D01*
X163570000Y-60690000D01*
X163580657Y-60636424D01*
X163611005Y-60591005D01*
X163656424Y-60560657D01*
X163710000Y-60550000D01*
X164050000Y-60550000D01*
X164103576Y-60560657D01*
G37*
G36*
X162743576Y-60530657D02*
G01*
X162788995Y-60561005D01*
X162819343Y-60606424D01*
X162830000Y-60660000D01*
X162830000Y-60940000D01*
X162819343Y-60993576D01*
X162788995Y-61038995D01*
X162743576Y-61069343D01*
X162690000Y-61080000D01*
X162350000Y-61080000D01*
X162296424Y-61069343D01*
X162251005Y-61038995D01*
X162220657Y-60993576D01*
X162210000Y-60940000D01*
X162210000Y-60660000D01*
X162220657Y-60606424D01*
X162251005Y-60561005D01*
X162296424Y-60530657D01*
X162350000Y-60520000D01*
X162690000Y-60520000D01*
X162743576Y-60530657D01*
G37*
G36*
X179464166Y-60022569D02*
G01*
X179475115Y-60029885D01*
X179482431Y-60040834D01*
X179485000Y-60053750D01*
X179485000Y-60906250D01*
X179482431Y-60919166D01*
X179475115Y-60930115D01*
X179464166Y-60937431D01*
X179451250Y-60940000D01*
X179248750Y-60940000D01*
X179235834Y-60937431D01*
X179224885Y-60930115D01*
X179217569Y-60919166D01*
X179215000Y-60906250D01*
X179215000Y-60053750D01*
X179217569Y-60040834D01*
X179224885Y-60029885D01*
X179235834Y-60022569D01*
X179248750Y-60020000D01*
X179451250Y-60020000D01*
X179464166Y-60022569D01*
G37*
G36*
X180114166Y-60022569D02*
G01*
X180125115Y-60029885D01*
X180132431Y-60040834D01*
X180135000Y-60053750D01*
X180135000Y-60906250D01*
X180132431Y-60919166D01*
X180125115Y-60930115D01*
X180114166Y-60937431D01*
X180101250Y-60940000D01*
X179898750Y-60940000D01*
X179885834Y-60937431D01*
X179874885Y-60930115D01*
X179867569Y-60919166D01*
X179865000Y-60906250D01*
X179865000Y-60053750D01*
X179867569Y-60040834D01*
X179874885Y-60029885D01*
X179885834Y-60022569D01*
X179898750Y-60020000D01*
X180101250Y-60020000D01*
X180114166Y-60022569D01*
G37*
G36*
X180764166Y-60022569D02*
G01*
X180775115Y-60029885D01*
X180782431Y-60040834D01*
X180785000Y-60053750D01*
X180785000Y-60906250D01*
X180782431Y-60919166D01*
X180775115Y-60930115D01*
X180764166Y-60937431D01*
X180751250Y-60940000D01*
X180548750Y-60940000D01*
X180535834Y-60937431D01*
X180524885Y-60930115D01*
X180517569Y-60919166D01*
X180515000Y-60906250D01*
X180515000Y-60053750D01*
X180517569Y-60040834D01*
X180524885Y-60029885D01*
X180535834Y-60022569D01*
X180548750Y-60020000D01*
X180751250Y-60020000D01*
X180764166Y-60022569D01*
G37*
G36*
X181414166Y-60022569D02*
G01*
X181425115Y-60029885D01*
X181432431Y-60040834D01*
X181435000Y-60053750D01*
X181435000Y-60906250D01*
X181432431Y-60919166D01*
X181425115Y-60930115D01*
X181414166Y-60937431D01*
X181401250Y-60940000D01*
X181198750Y-60940000D01*
X181185834Y-60937431D01*
X181174885Y-60930115D01*
X181167569Y-60919166D01*
X181165000Y-60906250D01*
X181165000Y-60053750D01*
X181167569Y-60040834D01*
X181174885Y-60029885D01*
X181185834Y-60022569D01*
X181198750Y-60020000D01*
X181401250Y-60020000D01*
X181414166Y-60022569D01*
G37*
G36*
X166224047Y-59475805D02*
G01*
X166275408Y-59481764D01*
X166292954Y-59489511D01*
X166315671Y-59494030D01*
X166339991Y-59510280D01*
X166360793Y-59519465D01*
X166375000Y-59533672D01*
X166396777Y-59548223D01*
X166411327Y-59569999D01*
X166425534Y-59584206D01*
X166434718Y-59605006D01*
X166450970Y-59629329D01*
X166455489Y-59652048D01*
X166463235Y-59669591D01*
X166469192Y-59720940D01*
X166470000Y-59725000D01*
X166470000Y-60355000D01*
X166469192Y-60359059D01*
X166463235Y-60410408D01*
X166455489Y-60427950D01*
X166450970Y-60450671D01*
X166434716Y-60474995D01*
X166425534Y-60495793D01*
X166411329Y-60509997D01*
X166396777Y-60531777D01*
X166374997Y-60546329D01*
X166360793Y-60560534D01*
X166339995Y-60569716D01*
X166315671Y-60585970D01*
X166292950Y-60590489D01*
X166275408Y-60598235D01*
X166224061Y-60604192D01*
X166220000Y-60605000D01*
X165630000Y-60605000D01*
X165625941Y-60604192D01*
X165574591Y-60598235D01*
X165557048Y-60590489D01*
X165534329Y-60585970D01*
X165510006Y-60569718D01*
X165489206Y-60560534D01*
X165474999Y-60546327D01*
X165453223Y-60531777D01*
X165438672Y-60510000D01*
X165424465Y-60495793D01*
X165415280Y-60474991D01*
X165399030Y-60450671D01*
X165394511Y-60427954D01*
X165386764Y-60410408D01*
X165380805Y-60359049D01*
X165380000Y-60355000D01*
X165380000Y-59725000D01*
X165380804Y-59720953D01*
X165386764Y-59669591D01*
X165394511Y-59652043D01*
X165399030Y-59629329D01*
X165415278Y-59605010D01*
X165424465Y-59584206D01*
X165438674Y-59569996D01*
X165453223Y-59548223D01*
X165474996Y-59533674D01*
X165489206Y-59519465D01*
X165510010Y-59510278D01*
X165534329Y-59494030D01*
X165557043Y-59489511D01*
X165574591Y-59481764D01*
X165625952Y-59475805D01*
X165630000Y-59475000D01*
X166220000Y-59475000D01*
X166224047Y-59475805D01*
G37*
G36*
X167654047Y-59475805D02*
G01*
X167705408Y-59481764D01*
X167722954Y-59489511D01*
X167745671Y-59494030D01*
X167769991Y-59510280D01*
X167790793Y-59519465D01*
X167805000Y-59533672D01*
X167826777Y-59548223D01*
X167841327Y-59569999D01*
X167855534Y-59584206D01*
X167864718Y-59605006D01*
X167880970Y-59629329D01*
X167885489Y-59652048D01*
X167893235Y-59669591D01*
X167899192Y-59720940D01*
X167900000Y-59725000D01*
X167900000Y-60355000D01*
X167899192Y-60359059D01*
X167893235Y-60410408D01*
X167885489Y-60427950D01*
X167880970Y-60450671D01*
X167864716Y-60474995D01*
X167855534Y-60495793D01*
X167841329Y-60509997D01*
X167826777Y-60531777D01*
X167804997Y-60546329D01*
X167790793Y-60560534D01*
X167769995Y-60569716D01*
X167745671Y-60585970D01*
X167722950Y-60590489D01*
X167705408Y-60598235D01*
X167654061Y-60604192D01*
X167650000Y-60605000D01*
X167060000Y-60605000D01*
X167055941Y-60604192D01*
X167004591Y-60598235D01*
X166987048Y-60590489D01*
X166964329Y-60585970D01*
X166940006Y-60569718D01*
X166919206Y-60560534D01*
X166904999Y-60546327D01*
X166883223Y-60531777D01*
X166868672Y-60510000D01*
X166854465Y-60495793D01*
X166845280Y-60474991D01*
X166829030Y-60450671D01*
X166824511Y-60427954D01*
X166816764Y-60410408D01*
X166810805Y-60359049D01*
X166810000Y-60355000D01*
X166810000Y-59725000D01*
X166810804Y-59720953D01*
X166816764Y-59669591D01*
X166824511Y-59652043D01*
X166829030Y-59629329D01*
X166845278Y-59605010D01*
X166854465Y-59584206D01*
X166868674Y-59569996D01*
X166883223Y-59548223D01*
X166904996Y-59533674D01*
X166919206Y-59519465D01*
X166940010Y-59510278D01*
X166964329Y-59494030D01*
X166987043Y-59489511D01*
X167004591Y-59481764D01*
X167055952Y-59475805D01*
X167060000Y-59475000D01*
X167650000Y-59475000D01*
X167654047Y-59475805D01*
G37*
G36*
X155775000Y-60500000D02*
G01*
X154225000Y-60500000D01*
X154225000Y-59900000D01*
X155775000Y-59900000D01*
X155775000Y-60500000D01*
G37*
G36*
X186275000Y-60300000D02*
G01*
X184725000Y-60300000D01*
X184725000Y-59700000D01*
X186275000Y-59700000D01*
X186275000Y-60300000D01*
G37*
G36*
X160593576Y-59620657D02*
G01*
X160638995Y-59651005D01*
X160669343Y-59696424D01*
X160680000Y-59750000D01*
X160680000Y-60030000D01*
X160669343Y-60083576D01*
X160638995Y-60128995D01*
X160593576Y-60159343D01*
X160540000Y-60170000D01*
X160200000Y-60170000D01*
X160146424Y-60159343D01*
X160101005Y-60128995D01*
X160070657Y-60083576D01*
X160060000Y-60030000D01*
X160060000Y-59750000D01*
X160070657Y-59696424D01*
X160101005Y-59651005D01*
X160146424Y-59620657D01*
X160200000Y-59610000D01*
X160540000Y-59610000D01*
X160593576Y-59620657D01*
G37*
G36*
X164103576Y-59600657D02*
G01*
X164148995Y-59631005D01*
X164179343Y-59676424D01*
X164190000Y-59730000D01*
X164190000Y-60010000D01*
X164179343Y-60063576D01*
X164148995Y-60108995D01*
X164103576Y-60139343D01*
X164050000Y-60150000D01*
X163710000Y-60150000D01*
X163656424Y-60139343D01*
X163611005Y-60108995D01*
X163580657Y-60063576D01*
X163570000Y-60010000D01*
X163570000Y-59730000D01*
X163580657Y-59676424D01*
X163611005Y-59631005D01*
X163656424Y-59600657D01*
X163710000Y-59590000D01*
X164050000Y-59590000D01*
X164103576Y-59600657D01*
G37*
G36*
X162743576Y-59570657D02*
G01*
X162788995Y-59601005D01*
X162819343Y-59646424D01*
X162830000Y-59700000D01*
X162830000Y-59980000D01*
X162819343Y-60033576D01*
X162788995Y-60078995D01*
X162743576Y-60109343D01*
X162690000Y-60120000D01*
X162350000Y-60120000D01*
X162296424Y-60109343D01*
X162251005Y-60078995D01*
X162220657Y-60033576D01*
X162210000Y-59980000D01*
X162210000Y-59700000D01*
X162220657Y-59646424D01*
X162251005Y-59601005D01*
X162296424Y-59570657D01*
X162350000Y-59560000D01*
X162690000Y-59560000D01*
X162743576Y-59570657D01*
G37*
G36*
X161796662Y-59580276D02*
G01*
X161840459Y-59609541D01*
X161869724Y-59653338D01*
X161880000Y-59705000D01*
X161880000Y-59975000D01*
X161869724Y-60026662D01*
X161840459Y-60070459D01*
X161796662Y-60099724D01*
X161745000Y-60110000D01*
X161375000Y-60110000D01*
X161323338Y-60099724D01*
X161279541Y-60070459D01*
X161250276Y-60026662D01*
X161240000Y-59975000D01*
X161240000Y-59705000D01*
X161250276Y-59653338D01*
X161279541Y-59609541D01*
X161323338Y-59580276D01*
X161375000Y-59570000D01*
X161745000Y-59570000D01*
X161796662Y-59580276D01*
G37*
G36*
X181450000Y-59840000D02*
G01*
X179200000Y-59840000D01*
X179200000Y-58340000D01*
X181450000Y-58340000D01*
X181450000Y-59840000D01*
G37*
G36*
X152025000Y-59500000D02*
G01*
X150225000Y-59500000D01*
X150225000Y-58300000D01*
X152025000Y-58300000D01*
X152025000Y-59500000D01*
G37*
G36*
X190275000Y-59300000D02*
G01*
X188475000Y-59300000D01*
X188475000Y-58100000D01*
X190275000Y-58100000D01*
X190275000Y-59300000D01*
G37*
G36*
X162660000Y-58845000D02*
G01*
X162060000Y-58845000D01*
X162060000Y-57295000D01*
X162660000Y-57295000D01*
X162660000Y-58845000D01*
G37*
G36*
X163660000Y-58845000D02*
G01*
X163060000Y-58845000D01*
X163060000Y-57295000D01*
X163660000Y-57295000D01*
X163660000Y-58845000D01*
G37*
G36*
X164660000Y-58845000D02*
G01*
X164060000Y-58845000D01*
X164060000Y-57295000D01*
X164660000Y-57295000D01*
X164660000Y-58845000D01*
G37*
G36*
X165660000Y-58845000D02*
G01*
X165060000Y-58845000D01*
X165060000Y-57295000D01*
X165660000Y-57295000D01*
X165660000Y-58845000D01*
G37*
G36*
X170030000Y-58835000D02*
G01*
X169430000Y-58835000D01*
X169430000Y-57285000D01*
X170030000Y-57285000D01*
X170030000Y-58835000D01*
G37*
G36*
X171030000Y-58835000D02*
G01*
X170430000Y-58835000D01*
X170430000Y-57285000D01*
X171030000Y-57285000D01*
X171030000Y-58835000D01*
G37*
G36*
X172030000Y-58835000D02*
G01*
X171430000Y-58835000D01*
X171430000Y-57285000D01*
X172030000Y-57285000D01*
X172030000Y-58835000D01*
G37*
G36*
X173030000Y-58835000D02*
G01*
X172430000Y-58835000D01*
X172430000Y-57285000D01*
X173030000Y-57285000D01*
X173030000Y-58835000D01*
G37*
G36*
X174030000Y-58835000D02*
G01*
X173430000Y-58835000D01*
X173430000Y-57285000D01*
X174030000Y-57285000D01*
X174030000Y-58835000D01*
G37*
G36*
X175030000Y-58835000D02*
G01*
X174430000Y-58835000D01*
X174430000Y-57285000D01*
X175030000Y-57285000D01*
X175030000Y-58835000D01*
G37*
G36*
X176030000Y-58835000D02*
G01*
X175430000Y-58835000D01*
X175430000Y-57285000D01*
X176030000Y-57285000D01*
X176030000Y-58835000D01*
G37*
G36*
X177030000Y-58835000D02*
G01*
X176430000Y-58835000D01*
X176430000Y-57285000D01*
X177030000Y-57285000D01*
X177030000Y-58835000D01*
G37*
G36*
X179464166Y-57242569D02*
G01*
X179475115Y-57249885D01*
X179482431Y-57260834D01*
X179485000Y-57273750D01*
X179485000Y-58126250D01*
X179482431Y-58139166D01*
X179475115Y-58150115D01*
X179464166Y-58157431D01*
X179451250Y-58160000D01*
X179248750Y-58160000D01*
X179235834Y-58157431D01*
X179224885Y-58150115D01*
X179217569Y-58139166D01*
X179215000Y-58126250D01*
X179215000Y-57273750D01*
X179217569Y-57260834D01*
X179224885Y-57249885D01*
X179235834Y-57242569D01*
X179248750Y-57240000D01*
X179451250Y-57240000D01*
X179464166Y-57242569D01*
G37*
G36*
X180114166Y-57242569D02*
G01*
X180125115Y-57249885D01*
X180132431Y-57260834D01*
X180135000Y-57273750D01*
X180135000Y-58126250D01*
X180132431Y-58139166D01*
X180125115Y-58150115D01*
X180114166Y-58157431D01*
X180101250Y-58160000D01*
X179898750Y-58160000D01*
X179885834Y-58157431D01*
X179874885Y-58150115D01*
X179867569Y-58139166D01*
X179865000Y-58126250D01*
X179865000Y-57273750D01*
X179867569Y-57260834D01*
X179874885Y-57249885D01*
X179885834Y-57242569D01*
X179898750Y-57240000D01*
X180101250Y-57240000D01*
X180114166Y-57242569D01*
G37*
G36*
X180764166Y-57242569D02*
G01*
X180775115Y-57249885D01*
X180782431Y-57260834D01*
X180785000Y-57273750D01*
X180785000Y-58126250D01*
X180782431Y-58139166D01*
X180775115Y-58150115D01*
X180764166Y-58157431D01*
X180751250Y-58160000D01*
X180548750Y-58160000D01*
X180535834Y-58157431D01*
X180524885Y-58150115D01*
X180517569Y-58139166D01*
X180515000Y-58126250D01*
X180515000Y-57273750D01*
X180517569Y-57260834D01*
X180524885Y-57249885D01*
X180535834Y-57242569D01*
X180548750Y-57240000D01*
X180751250Y-57240000D01*
X180764166Y-57242569D01*
G37*
G36*
X181414166Y-57242569D02*
G01*
X181425115Y-57249885D01*
X181432431Y-57260834D01*
X181435000Y-57273750D01*
X181435000Y-58126250D01*
X181432431Y-58139166D01*
X181425115Y-58150115D01*
X181414166Y-58157431D01*
X181401250Y-58160000D01*
X181198750Y-58160000D01*
X181185834Y-58157431D01*
X181174885Y-58150115D01*
X181167569Y-58139166D01*
X181165000Y-58126250D01*
X181165000Y-57273750D01*
X181167569Y-57260834D01*
X181174885Y-57249885D01*
X181185834Y-57242569D01*
X181198750Y-57240000D01*
X181401250Y-57240000D01*
X181414166Y-57242569D01*
G37*
G36*
X180996104Y-55772127D02*
G01*
X181069099Y-55820901D01*
X181117873Y-55893896D01*
X181135000Y-55980000D01*
X181135000Y-56480000D01*
X181117873Y-56566104D01*
X181069099Y-56639099D01*
X180996104Y-56687873D01*
X180910000Y-56705000D01*
X180460000Y-56705000D01*
X180373896Y-56687873D01*
X180300901Y-56639099D01*
X180252127Y-56566104D01*
X180235000Y-56480000D01*
X180235000Y-55980000D01*
X180252127Y-55893896D01*
X180300901Y-55820901D01*
X180373896Y-55772127D01*
X180460000Y-55755000D01*
X180910000Y-55755000D01*
X180996104Y-55772127D01*
G37*
G36*
X182546104Y-55772127D02*
G01*
X182619099Y-55820901D01*
X182667873Y-55893896D01*
X182685000Y-55980000D01*
X182685000Y-56480000D01*
X182667873Y-56566104D01*
X182619099Y-56639099D01*
X182546104Y-56687873D01*
X182460000Y-56705000D01*
X182010000Y-56705000D01*
X181923896Y-56687873D01*
X181850901Y-56639099D01*
X181802127Y-56566104D01*
X181785000Y-56480000D01*
X181785000Y-55980000D01*
X181802127Y-55893896D01*
X181850901Y-55820901D01*
X181923896Y-55772127D01*
X182010000Y-55755000D01*
X182460000Y-55755000D01*
X182546104Y-55772127D01*
G37*
G36*
X155429199Y-52342272D02*
G01*
X155707167Y-52416754D01*
X155973035Y-52526880D01*
X156222255Y-52670767D01*
X156450561Y-52845952D01*
X156654048Y-53049439D01*
X156829233Y-53277745D01*
X156973120Y-53526965D01*
X157083246Y-53792833D01*
X157157728Y-54070801D01*
X157195290Y-54356113D01*
X157195290Y-54643887D01*
X157157728Y-54929199D01*
X157083246Y-55207167D01*
X156973120Y-55473035D01*
X156829233Y-55722255D01*
X156654048Y-55950561D01*
X156450561Y-56154048D01*
X156222255Y-56329233D01*
X155973035Y-56473120D01*
X155707167Y-56583246D01*
X155429199Y-56657728D01*
X155143887Y-56695290D01*
X154856113Y-56695290D01*
X154570801Y-56657728D01*
X154292833Y-56583246D01*
X154026965Y-56473120D01*
X153777745Y-56329233D01*
X153549439Y-56154048D01*
X153345952Y-55950561D01*
X153170767Y-55722255D01*
X153026880Y-55473035D01*
X152916754Y-55207167D01*
X152842272Y-54929199D01*
X152804710Y-54643887D01*
X152804710Y-54356113D01*
X152842272Y-54070801D01*
X152916754Y-53792833D01*
X153026880Y-53526965D01*
X153170767Y-53277745D01*
X153345952Y-53049439D01*
X153549439Y-52845952D01*
X153777745Y-52670767D01*
X154026965Y-52526880D01*
X154292833Y-52416754D01*
X154570801Y-52342272D01*
X154856113Y-52304710D01*
X155143887Y-52304710D01*
X155429199Y-52342272D01*
G37*
G36*
X185929199Y-52342272D02*
G01*
X186207167Y-52416754D01*
X186473035Y-52526880D01*
X186722255Y-52670767D01*
X186950561Y-52845952D01*
X187154048Y-53049439D01*
X187329233Y-53277745D01*
X187473120Y-53526965D01*
X187583246Y-53792833D01*
X187657728Y-54070801D01*
X187695290Y-54356113D01*
X187695290Y-54643887D01*
X187657728Y-54929199D01*
X187583246Y-55207167D01*
X187473120Y-55473035D01*
X187329233Y-55722255D01*
X187154048Y-55950561D01*
X186950561Y-56154048D01*
X186722255Y-56329233D01*
X186473035Y-56473120D01*
X186207167Y-56583246D01*
X185929199Y-56657728D01*
X185643887Y-56695290D01*
X185356113Y-56695290D01*
X185070801Y-56657728D01*
X184792833Y-56583246D01*
X184526965Y-56473120D01*
X184277745Y-56329233D01*
X184049439Y-56154048D01*
X183845952Y-55950561D01*
X183670767Y-55722255D01*
X183526880Y-55473035D01*
X183416754Y-55207167D01*
X183342272Y-54929199D01*
X183304710Y-54643887D01*
X183304710Y-54356113D01*
X183342272Y-54070801D01*
X183416754Y-53792833D01*
X183526880Y-53526965D01*
X183670767Y-53277745D01*
X183845952Y-53049439D01*
X184049439Y-52845952D01*
X184277745Y-52670767D01*
X184526965Y-52526880D01*
X184792833Y-52416754D01*
X185070801Y-52342272D01*
X185356113Y-52304710D01*
X185643887Y-52304710D01*
X185929199Y-52342272D01*
G37*
G36*
X161660000Y-55095000D02*
G01*
X160460000Y-55095000D01*
X160460000Y-53295000D01*
X161660000Y-53295000D01*
X161660000Y-55095000D01*
G37*
G36*
X167260000Y-55095000D02*
G01*
X166060000Y-55095000D01*
X166060000Y-53295000D01*
X167260000Y-53295000D01*
X167260000Y-55095000D01*
G37*
G36*
X169030000Y-55085000D02*
G01*
X167830000Y-55085000D01*
X167830000Y-53285000D01*
X169030000Y-53285000D01*
X169030000Y-55085000D01*
G37*
G36*
X178630000Y-55085000D02*
G01*
X177430000Y-55085000D01*
X177430000Y-53285000D01*
X178630000Y-53285000D01*
X178630000Y-55085000D01*
G37*
M02*
