%TF.GenerationSoftware,KiCad,Pcbnew,10.0.1*%
%TF.CreationDate,2026-05-02T20:58:05+05:30*%
%TF.ProjectId,VENDETTAESC,56454e44-4554-4544-9145-53432e6b6963,rev?*%
%TF.SameCoordinates,Original*%
%TF.FileFunction,Legend,Top*%
%TF.FilePolarity,Positive*%
%FSLAX46Y46*%
G04 Gerber Fmt 4.6, Leading zero omitted, Abs format (unit mm)*
G04 Created by KiCad (PCBNEW 10.0.1) date 2026-05-02 20:58:05*
%MOMM*%
%LPD*%
G01*
G04 APERTURE LIST*
%ADD10C,0.100000*%
%ADD11C,0.254001*%
%ADD12C,0.000000*%
%ADD13C,0.120000*%
%ADD14C,0.127000*%
%ADD15C,0.200000*%
G04 APERTURE END LIST*
D10*
X182430000Y-89018978D02*
G75*
G02*
X183160700Y-89799998I-9300J-741022D01*
G01*
X182469263Y-101018978D02*
G75*
G02*
X183200000Y-101800000I-9263J-741022D01*
G01*
X183160737Y-98300000D02*
G75*
G02*
X182400737Y-99060037I-760037J0D01*
G01*
X183160737Y-98300000D02*
X183160737Y-89800000D01*
X183200000Y-110300000D02*
G75*
G02*
X182440000Y-111060000I-760000J0D01*
G01*
X183200000Y-110300000D02*
X183200000Y-101800000D01*
X216400000Y-89750000D02*
X216400000Y-98250000D01*
X216400000Y-89750000D02*
G75*
G02*
X217160000Y-88990000I760000J0D01*
G01*
X216400000Y-101750000D02*
X216400000Y-110250000D01*
X216400000Y-101750000D02*
G75*
G02*
X217160000Y-100990000I760000J0D01*
G01*
X217130737Y-99031022D02*
G75*
G02*
X216400000Y-98250000I9263J741022D01*
G01*
X217130737Y-111031022D02*
G75*
G02*
X216400000Y-110250000I9263J741022D01*
G01*
G36*
X195685059Y-88482778D02*
G01*
X195717575Y-88491256D01*
X195747529Y-88505220D01*
X195774573Y-88524215D01*
X195797433Y-88547206D01*
X195816430Y-88574549D01*
X195829212Y-88605700D01*
X195839425Y-88656785D01*
X195849000Y-88753853D01*
X195849000Y-89127807D01*
X195148706Y-89127807D01*
X195148706Y-88813650D01*
X195290953Y-88813650D01*
X195290953Y-88909265D01*
X195422258Y-88909265D01*
X195422258Y-88815061D01*
X195421126Y-88799289D01*
X195556299Y-88799289D01*
X195556299Y-88909265D01*
X195698546Y-88909265D01*
X195698546Y-88798818D01*
X195695803Y-88761800D01*
X195688766Y-88736560D01*
X195678671Y-88719916D01*
X195664073Y-88707269D01*
X195646576Y-88699638D01*
X195625285Y-88696963D01*
X195605578Y-88699574D01*
X195589162Y-88707089D01*
X195575234Y-88719702D01*
X195565688Y-88736122D01*
X195558948Y-88761513D01*
X195556299Y-88799289D01*
X195421126Y-88799289D01*
X195419845Y-88781432D01*
X195413714Y-88758962D01*
X195405033Y-88744535D01*
X195392276Y-88733789D01*
X195376021Y-88727107D01*
X195355195Y-88724703D01*
X195335959Y-88727052D01*
X195320511Y-88733680D01*
X195307965Y-88744535D01*
X195299359Y-88758918D01*
X195293319Y-88780990D01*
X195290953Y-88813650D01*
X195148706Y-88813650D01*
X195148706Y-88722309D01*
X195152295Y-88671392D01*
X195162283Y-88629480D01*
X195177864Y-88594984D01*
X195198758Y-88566641D01*
X195225551Y-88542676D01*
X195254724Y-88525931D01*
X195286817Y-88515825D01*
X195322626Y-88512358D01*
X195362486Y-88516779D01*
X195397533Y-88529639D01*
X195428883Y-88551083D01*
X195446410Y-88569887D01*
X195462038Y-88594677D01*
X195475601Y-88626652D01*
X195491692Y-88578334D01*
X195512659Y-88542076D01*
X195538091Y-88515521D01*
X195569322Y-88496094D01*
X195605964Y-88484094D01*
X195649392Y-88479874D01*
X195685059Y-88482778D01*
G37*
G36*
X195849000Y-87917083D02*
G01*
X195734108Y-87951534D01*
X195734108Y-88198244D01*
X195849000Y-88232224D01*
X195849000Y-88453630D01*
X195148706Y-88190122D01*
X195148706Y-88074419D01*
X195330918Y-88074419D01*
X195583654Y-88151398D01*
X195583654Y-87996969D01*
X195330918Y-88074419D01*
X195148706Y-88074419D01*
X195148706Y-87953927D01*
X195849000Y-87690420D01*
X195849000Y-87917083D01*
G37*
G36*
X195148706Y-87737950D02*
G01*
X195148706Y-87079501D01*
X195321044Y-87079501D01*
X195321044Y-87300437D01*
X195849000Y-87300437D01*
X195849000Y-87517056D01*
X195321044Y-87517056D01*
X195321044Y-87737950D01*
X195148706Y-87737950D01*
G37*
G36*
X196770596Y-88775866D02*
G01*
X196625614Y-88775866D01*
X196625614Y-88441106D01*
X196923315Y-88441106D01*
X196964729Y-88506985D01*
X196993695Y-88563213D01*
X197012348Y-88611136D01*
X197024973Y-88660916D01*
X197033065Y-88718919D01*
X197035942Y-88786338D01*
X197032913Y-88849752D01*
X197024402Y-88904008D01*
X197011115Y-88950338D01*
X196993541Y-88989835D01*
X196969874Y-89026787D01*
X196941214Y-89059230D01*
X196907217Y-89087512D01*
X196867322Y-89111779D01*
X196809966Y-89135400D01*
X196746206Y-89149981D01*
X196674853Y-89155034D01*
X196617672Y-89151866D01*
X196565905Y-89142709D01*
X196518869Y-89127939D01*
X196475972Y-89107718D01*
X196436338Y-89081365D01*
X196401958Y-89049750D01*
X196372425Y-89012506D01*
X196347574Y-88969019D01*
X196329901Y-88920259D01*
X196318118Y-88857414D01*
X196313764Y-88777276D01*
X196316653Y-88699107D01*
X196324153Y-88642749D01*
X196334751Y-88603442D01*
X196351495Y-88566843D01*
X196373120Y-88535158D01*
X196399805Y-88507827D01*
X196430777Y-88485205D01*
X196467733Y-88466092D01*
X196511577Y-88450681D01*
X196549019Y-88659649D01*
X196524027Y-88670540D01*
X196503951Y-88685089D01*
X196488068Y-88703417D01*
X196476704Y-88724915D01*
X196469518Y-88750791D01*
X196466953Y-88782063D01*
X196470223Y-88816833D01*
X196479585Y-88846767D01*
X196494813Y-88872817D01*
X196516278Y-88895630D01*
X196541661Y-88912687D01*
X196574805Y-88925917D01*
X196617581Y-88934703D01*
X196672246Y-88937945D01*
X196730690Y-88934585D01*
X196775414Y-88925578D01*
X196809157Y-88912191D01*
X196834197Y-88895160D01*
X196855051Y-88872203D01*
X196870073Y-88845254D01*
X196879443Y-88813516D01*
X196882752Y-88775866D01*
X196880102Y-88740135D01*
X196872281Y-88706537D01*
X196858908Y-88672929D01*
X196836462Y-88630969D01*
X196770596Y-88630969D01*
X196770596Y-88775866D01*
G37*
G36*
X196324706Y-88310956D02*
G01*
X196324706Y-88108698D01*
X196712039Y-87844720D01*
X196324706Y-87844720D01*
X196324706Y-87640539D01*
X197025000Y-87640539D01*
X197025000Y-87844720D01*
X196639847Y-88107245D01*
X197025000Y-88107245D01*
X197025000Y-88310956D01*
X196324706Y-88310956D01*
G37*
G36*
X196747558Y-86852004D02*
G01*
X196804403Y-86861030D01*
X196846592Y-86874209D01*
X196886144Y-86893777D01*
X196920517Y-86917419D01*
X196950243Y-86945204D01*
X196975536Y-86977018D01*
X196993867Y-87009423D01*
X197005894Y-87042743D01*
X197020521Y-87112693D01*
X197025000Y-87171868D01*
X197025000Y-87493676D01*
X196324706Y-87493676D01*
X196324706Y-87223031D01*
X196483367Y-87223031D01*
X196483367Y-87277057D01*
X196866339Y-87277057D01*
X196866339Y-87223971D01*
X196864194Y-87178269D01*
X196858766Y-87147348D01*
X196851294Y-87127373D01*
X196839272Y-87110217D01*
X196822083Y-87095264D01*
X196798678Y-87082451D01*
X196772815Y-87074335D01*
X196733685Y-87068468D01*
X196676990Y-87066166D01*
X196618693Y-87069179D01*
X196576035Y-87077083D01*
X196545588Y-87088492D01*
X196524485Y-87102540D01*
X196507648Y-87121929D01*
X196494865Y-87147396D01*
X196486462Y-87180447D01*
X196483367Y-87223031D01*
X196324706Y-87223031D01*
X196324706Y-87171868D01*
X196328000Y-87108544D01*
X196336974Y-87058043D01*
X196350523Y-87018123D01*
X196370389Y-86981052D01*
X196394992Y-86948947D01*
X196424553Y-86921311D01*
X196458101Y-86898365D01*
X196495375Y-86879871D01*
X196536837Y-86865832D01*
X196602092Y-86852995D01*
X196672459Y-86848606D01*
X196747558Y-86852004D01*
G37*
G36*
X197913770Y-88661572D02*
G01*
X197971344Y-88471710D01*
X198023080Y-88487524D01*
X198067052Y-88507704D01*
X198104273Y-88531977D01*
X198137035Y-88561712D01*
X198163752Y-88595606D01*
X198184800Y-88634089D01*
X198199165Y-88675630D01*
X198208541Y-88726721D01*
X198211942Y-88789244D01*
X198207773Y-88865114D01*
X198196325Y-88926545D01*
X198178859Y-88975986D01*
X198159975Y-89009787D01*
X198134785Y-89041782D01*
X198102596Y-89072184D01*
X198062471Y-89101051D01*
X198020177Y-89123096D01*
X197971282Y-89139527D01*
X197914704Y-89149943D01*
X197849186Y-89153624D01*
X197778667Y-89149382D01*
X197718127Y-89137395D01*
X197666092Y-89118483D01*
X197621323Y-89093055D01*
X197582857Y-89061086D01*
X197550542Y-89022724D01*
X197524940Y-88978387D01*
X197505973Y-88927184D01*
X197493993Y-88867949D01*
X197489764Y-88799289D01*
X197493626Y-88732137D01*
X197504384Y-88676176D01*
X197521075Y-88629646D01*
X197543150Y-88591047D01*
X197572162Y-88556806D01*
X197608446Y-88526634D01*
X197652992Y-88500434D01*
X197707110Y-88478421D01*
X197749639Y-88669693D01*
X197720105Y-88680801D01*
X197702793Y-88690723D01*
X197680693Y-88711044D01*
X197664538Y-88735218D01*
X197654586Y-88762710D01*
X197651160Y-88794031D01*
X197655029Y-88829456D01*
X197666089Y-88859351D01*
X197684230Y-88884925D01*
X197710273Y-88906871D01*
X197741128Y-88922021D01*
X197785579Y-88932506D01*
X197847989Y-88936535D01*
X197909076Y-88933581D01*
X197953715Y-88925847D01*
X197985487Y-88914728D01*
X198007419Y-88901144D01*
X198026048Y-88881969D01*
X198039365Y-88859492D01*
X198047632Y-88833053D01*
X198050546Y-88801682D01*
X198046219Y-88761734D01*
X198034337Y-88731156D01*
X198015540Y-88707734D01*
X197990494Y-88689534D01*
X197957203Y-88673986D01*
X197913770Y-88661572D01*
G37*
G36*
X197500706Y-87910245D02*
G01*
X197500706Y-87694096D01*
X197917360Y-87694096D01*
X197978001Y-87699006D01*
X198034389Y-87713458D01*
X198069611Y-87728841D01*
X198101596Y-87749013D01*
X198130688Y-87774195D01*
X198156163Y-87803174D01*
X198175230Y-87832037D01*
X198188604Y-87861005D01*
X198201086Y-87903693D01*
X198209090Y-87953820D01*
X198211942Y-88012570D01*
X198210229Y-88064781D01*
X198204761Y-88124256D01*
X198193580Y-88181636D01*
X198176423Y-88225385D01*
X198151195Y-88263759D01*
X198116156Y-88299757D01*
X198075564Y-88328630D01*
X198035543Y-88345876D01*
X197970286Y-88361336D01*
X197917360Y-88365965D01*
X197500706Y-88365965D01*
X197500706Y-88149816D01*
X197926507Y-88149816D01*
X197963275Y-88145949D01*
X197992444Y-88135189D01*
X198015711Y-88118016D01*
X198033074Y-88094948D01*
X198043919Y-88066099D01*
X198047810Y-88029795D01*
X198043979Y-87993773D01*
X198033292Y-87965067D01*
X198016181Y-87942045D01*
X197993207Y-87924935D01*
X197963931Y-87914147D01*
X197926507Y-87910245D01*
X197500706Y-87910245D01*
G37*
G36*
X198201000Y-87102967D02*
G01*
X197986774Y-87218714D01*
X197949727Y-87241535D01*
X197932748Y-87257909D01*
X197920606Y-87282760D01*
X197916505Y-87310995D01*
X197916505Y-87330101D01*
X198201000Y-87330101D01*
X198201000Y-87547703D01*
X197500706Y-87547703D01*
X197500706Y-87234956D01*
X197642953Y-87234956D01*
X197642953Y-87330101D01*
X197785200Y-87330101D01*
X197785200Y-87238760D01*
X197775669Y-87181400D01*
X197768042Y-87161904D01*
X197753699Y-87146265D01*
X197734801Y-87136062D01*
X197713137Y-87132630D01*
X197691534Y-87135219D01*
X197674558Y-87142449D01*
X197661119Y-87154173D01*
X197652101Y-87169844D01*
X197645570Y-87195401D01*
X197642953Y-87234956D01*
X197500706Y-87234956D01*
X197500706Y-87186657D01*
X197503032Y-87119189D01*
X197509140Y-87069199D01*
X197517889Y-87033169D01*
X197532627Y-87000040D01*
X197553702Y-86971722D01*
X197581661Y-86947598D01*
X197614097Y-86929878D01*
X197651524Y-86918913D01*
X197695099Y-86915071D01*
X197733269Y-86918011D01*
X197766500Y-86926418D01*
X197795630Y-86939947D01*
X197821917Y-86958499D01*
X197844676Y-86981155D01*
X197864146Y-87008292D01*
X197878641Y-87039046D01*
X197891843Y-87084331D01*
X197905891Y-87048611D01*
X197917830Y-87027911D01*
X197929379Y-87015179D01*
X197954845Y-86993247D01*
X197998614Y-86962857D01*
X198201000Y-86858138D01*
X198201000Y-87102967D01*
G37*
G36*
X198676706Y-89177517D02*
G01*
X198676706Y-88519069D01*
X198849044Y-88519069D01*
X198849044Y-88740005D01*
X199377000Y-88740005D01*
X199377000Y-88956624D01*
X198849044Y-88956624D01*
X198849044Y-89177517D01*
X198676706Y-89177517D01*
G37*
G36*
X198676706Y-88469445D02*
G01*
X198676706Y-88230813D01*
X198892129Y-88106475D01*
X198676706Y-87985984D01*
X198676706Y-87749789D01*
X199015868Y-87967819D01*
X199377000Y-87729230D01*
X199377000Y-87972606D01*
X199152003Y-88110792D01*
X199377000Y-88249492D01*
X199377000Y-88491414D01*
X199012064Y-88249492D01*
X198676706Y-88469445D01*
G37*
G36*
X199852706Y-89130671D02*
G01*
X199852706Y-88845664D01*
X200278507Y-88735688D01*
X199852706Y-88626181D01*
X199852706Y-88342158D01*
X200553000Y-88342158D01*
X200553000Y-88519069D01*
X200018376Y-88519069D01*
X200553000Y-88656315D01*
X200553000Y-88816514D01*
X200018376Y-88953247D01*
X200553000Y-88953247D01*
X200553000Y-89130671D01*
X199852706Y-89130671D01*
G37*
G36*
X199841764Y-87793857D02*
G01*
X200553000Y-87793857D01*
X200553000Y-87990857D01*
X200088004Y-87990857D01*
X200121363Y-88039006D01*
X200146433Y-88083394D01*
X200167312Y-88131276D01*
X200189175Y-88195551D01*
X200030515Y-88195551D01*
X200005931Y-88130306D01*
X199980037Y-88079630D01*
X199953194Y-88041079D01*
X199920852Y-88007155D01*
X199883862Y-87978538D01*
X199841764Y-87954996D01*
X199841764Y-87793857D01*
G37*
G36*
X201028706Y-89130671D02*
G01*
X201028706Y-88845664D01*
X201454507Y-88735688D01*
X201028706Y-88626181D01*
X201028706Y-88342158D01*
X201729000Y-88342158D01*
X201729000Y-88519069D01*
X201194376Y-88519069D01*
X201729000Y-88656315D01*
X201729000Y-88816514D01*
X201194376Y-88953247D01*
X201729000Y-88953247D01*
X201729000Y-89130671D01*
X201028706Y-89130671D01*
G37*
G36*
X201729000Y-87665245D02*
G01*
X201729000Y-88249577D01*
X201672935Y-88238442D01*
X201618994Y-88218284D01*
X201566578Y-88188627D01*
X201519088Y-88150606D01*
X201460113Y-88089281D01*
X201387230Y-87997568D01*
X201325890Y-87920999D01*
X201291145Y-87888061D01*
X201257866Y-87869653D01*
X201228870Y-87864168D01*
X201208615Y-87866808D01*
X201190677Y-87874582D01*
X201174416Y-87887848D01*
X201161956Y-87904800D01*
X201154424Y-87924390D01*
X201151805Y-87947388D01*
X201154552Y-87971261D01*
X201162410Y-87991289D01*
X201175356Y-88008339D01*
X201192715Y-88021138D01*
X201219358Y-88032008D01*
X201258490Y-88040139D01*
X201242633Y-88235216D01*
X201188122Y-88224565D01*
X201145872Y-88210299D01*
X201113636Y-88193157D01*
X201085445Y-88170288D01*
X201061804Y-88141778D01*
X201042512Y-88106860D01*
X201029695Y-88068792D01*
X201021011Y-88018373D01*
X201017764Y-87952645D01*
X201020862Y-87883843D01*
X201029099Y-87831608D01*
X201041144Y-87792703D01*
X201059776Y-87756921D01*
X201083625Y-87727196D01*
X201112995Y-87702815D01*
X201146531Y-87684623D01*
X201182475Y-87673732D01*
X201221561Y-87670032D01*
X201263130Y-87674116D01*
X201303636Y-87686440D01*
X201343761Y-87707560D01*
X201379822Y-87735721D01*
X201421994Y-87779751D01*
X201471390Y-87844079D01*
X201528024Y-87922768D01*
X201570339Y-87969357D01*
X201570339Y-87665245D01*
X201729000Y-87665245D01*
G37*
G36*
X202204706Y-89130671D02*
G01*
X202204706Y-88845664D01*
X202630507Y-88735688D01*
X202204706Y-88626181D01*
X202204706Y-88342158D01*
X202905000Y-88342158D01*
X202905000Y-88519069D01*
X202370376Y-88519069D01*
X202905000Y-88656315D01*
X202905000Y-88816514D01*
X202370376Y-88953247D01*
X202905000Y-88953247D01*
X202905000Y-89130671D01*
X202204706Y-89130671D01*
G37*
G36*
X202407135Y-88046337D02*
G01*
X202374394Y-88230429D01*
X202332054Y-88215797D01*
X202296137Y-88196221D01*
X202265769Y-88171779D01*
X202240354Y-88142208D01*
X202221243Y-88109000D01*
X202206667Y-88068184D01*
X202197191Y-88018241D01*
X202193764Y-87957390D01*
X202197725Y-87886662D01*
X202208383Y-87831998D01*
X202224281Y-87790292D01*
X202244542Y-87758936D01*
X202272105Y-87731726D01*
X202302133Y-87712895D01*
X202335200Y-87701598D01*
X202372214Y-87697729D01*
X202401482Y-87700528D01*
X202428498Y-87708784D01*
X202453810Y-87722605D01*
X202476232Y-87741079D01*
X202497584Y-87765756D01*
X202517881Y-87797704D01*
X202529539Y-87759791D01*
X202541304Y-87735513D01*
X202566288Y-87704409D01*
X202597937Y-87681230D01*
X202622046Y-87670738D01*
X202649765Y-87664174D01*
X202681798Y-87661868D01*
X202721753Y-87665382D01*
X202760682Y-87675951D01*
X202799126Y-87693925D01*
X202833548Y-87718294D01*
X202862231Y-87748818D01*
X202885594Y-87786206D01*
X202901589Y-87827510D01*
X202912099Y-87879489D01*
X202915942Y-87944481D01*
X202913023Y-88008371D01*
X202905194Y-88057766D01*
X202893630Y-88095362D01*
X202876184Y-88130417D01*
X202854447Y-88160528D01*
X202828277Y-88186233D01*
X202798171Y-88207509D01*
X202762385Y-88225808D01*
X202720095Y-88240943D01*
X202694364Y-88046337D01*
X202732810Y-88036110D01*
X202758862Y-88024041D01*
X202775661Y-88010732D01*
X202788093Y-87993458D01*
X202795666Y-87973246D01*
X202798314Y-87949269D01*
X202795067Y-87924377D01*
X202785605Y-87902911D01*
X202769591Y-87884001D01*
X202749013Y-87869879D01*
X202723867Y-87861069D01*
X202692911Y-87857928D01*
X202661277Y-87861036D01*
X202636574Y-87869596D01*
X202617257Y-87883060D01*
X202602598Y-87901344D01*
X202593602Y-87923659D01*
X202590415Y-87951192D01*
X202592859Y-87976017D01*
X202601912Y-88014323D01*
X202462230Y-88004278D01*
X202464581Y-87978932D01*
X202461799Y-87954387D01*
X202453785Y-87933382D01*
X202440517Y-87915117D01*
X202423173Y-87900700D01*
X202404369Y-87892333D01*
X202383456Y-87889515D01*
X202363197Y-87891789D01*
X202346662Y-87898214D01*
X202333019Y-87908663D01*
X202322797Y-87922483D01*
X202316414Y-87939685D01*
X202314127Y-87961236D01*
X202316561Y-87983345D01*
X202323478Y-88001722D01*
X202334772Y-88017186D01*
X202350040Y-88028889D01*
X202373267Y-88038827D01*
X202407135Y-88046337D01*
G37*
G36*
X203380706Y-89130671D02*
G01*
X203380706Y-88845664D01*
X203806507Y-88735688D01*
X203380706Y-88626181D01*
X203380706Y-88342158D01*
X204081000Y-88342158D01*
X204081000Y-88519069D01*
X203546376Y-88519069D01*
X204081000Y-88656315D01*
X204081000Y-88816514D01*
X203546376Y-88953247D01*
X204081000Y-88953247D01*
X204081000Y-89130671D01*
X203380706Y-89130671D01*
G37*
G36*
X203949695Y-87730726D02*
G01*
X204081000Y-87730726D01*
X204081000Y-87900499D01*
X203949695Y-87900499D01*
X203949695Y-88255305D01*
X203790051Y-88255305D01*
X203369764Y-87900499D01*
X203577322Y-87900499D01*
X203799241Y-88087925D01*
X203799241Y-87900499D01*
X203577322Y-87900499D01*
X203369764Y-87900499D01*
X203369764Y-87730726D01*
X203799241Y-87730726D01*
X203799241Y-87642762D01*
X203949695Y-87642762D01*
X203949695Y-87730726D01*
G37*
G36*
X181595819Y-85860781D02*
G01*
X181595819Y-87892882D01*
X181032962Y-87892882D01*
X181032962Y-86564323D01*
X180895393Y-86659634D01*
X180768569Y-86731263D01*
X180631764Y-86790917D01*
X180448122Y-86853384D01*
X180448122Y-86400069D01*
X180634537Y-86329828D01*
X180779324Y-86255846D01*
X180889469Y-86179152D01*
X180986395Y-86086745D01*
X181068158Y-85981061D01*
X181135422Y-85860781D01*
X181595819Y-85860781D01*
G37*
G36*
X182043283Y-114150000D02*
G01*
X180373761Y-114150000D01*
X180405576Y-113989815D01*
X180463171Y-113835699D01*
X180547906Y-113685938D01*
X180656535Y-113550251D01*
X180831749Y-113381754D01*
X181093789Y-113173517D01*
X181312557Y-112998259D01*
X181406664Y-112898988D01*
X181459258Y-112803903D01*
X181474930Y-112721057D01*
X181467387Y-112663185D01*
X181445176Y-112611934D01*
X181407274Y-112565474D01*
X181358840Y-112529876D01*
X181302868Y-112508354D01*
X181237159Y-112500872D01*
X181168949Y-112508721D01*
X181111727Y-112531172D01*
X181063014Y-112568161D01*
X181026444Y-112617758D01*
X180995389Y-112693881D01*
X180972156Y-112805687D01*
X180414794Y-112760380D01*
X180445224Y-112604634D01*
X180485984Y-112483922D01*
X180534961Y-112391817D01*
X180600302Y-112311273D01*
X180681760Y-112243728D01*
X180781524Y-112188607D01*
X180890289Y-112151987D01*
X181034345Y-112127174D01*
X181222138Y-112117899D01*
X181418716Y-112126749D01*
X181567960Y-112150285D01*
X181679117Y-112184699D01*
X181781350Y-112237932D01*
X181866280Y-112306072D01*
X181935938Y-112389986D01*
X181987916Y-112485805D01*
X182019034Y-112588501D01*
X182029605Y-112700174D01*
X182017937Y-112818942D01*
X181982725Y-112934677D01*
X181922383Y-113049319D01*
X181841923Y-113152350D01*
X181716123Y-113272841D01*
X181532327Y-113413974D01*
X181307501Y-113575785D01*
X181174389Y-113696685D01*
X182043283Y-113696685D01*
X182043283Y-114150000D01*
G37*
G36*
X217984448Y-86417529D02*
G01*
X217458471Y-86323984D01*
X217500277Y-86203011D01*
X217556208Y-86100392D01*
X217626040Y-86013628D01*
X217710530Y-85941011D01*
X217805410Y-85886409D01*
X217922029Y-85844763D01*
X218064722Y-85817689D01*
X218238583Y-85807899D01*
X218440662Y-85819214D01*
X218596844Y-85849668D01*
X218716005Y-85895091D01*
X218805593Y-85952979D01*
X218883335Y-86031729D01*
X218937138Y-86117523D01*
X218969416Y-86212002D01*
X218980471Y-86317756D01*
X218972472Y-86401379D01*
X218948885Y-86478568D01*
X218909396Y-86550886D01*
X218856614Y-86614948D01*
X218786108Y-86675955D01*
X218694829Y-86733946D01*
X218803151Y-86767255D01*
X218872515Y-86800868D01*
X218961385Y-86872253D01*
X219027609Y-86962679D01*
X219057587Y-87031560D01*
X219076341Y-87110759D01*
X219082930Y-87202281D01*
X219072890Y-87316437D01*
X219042693Y-87427663D01*
X218991339Y-87537505D01*
X218921712Y-87635851D01*
X218834502Y-87717805D01*
X218727679Y-87784556D01*
X218609667Y-87830256D01*
X218461155Y-87860283D01*
X218275464Y-87871263D01*
X218092921Y-87862923D01*
X217951792Y-87840556D01*
X217844375Y-87807515D01*
X217744218Y-87757669D01*
X217658188Y-87695565D01*
X217584745Y-87620792D01*
X217523956Y-87534776D01*
X217471673Y-87432530D01*
X217428429Y-87311702D01*
X217984448Y-87238185D01*
X218013666Y-87348030D01*
X218048149Y-87422465D01*
X218086175Y-87470460D01*
X218135531Y-87505981D01*
X218193279Y-87527618D01*
X218261786Y-87535184D01*
X218332904Y-87525908D01*
X218394235Y-87498872D01*
X218448265Y-87453119D01*
X218488614Y-87394323D01*
X218513784Y-87322479D01*
X218522759Y-87234033D01*
X218513878Y-87143648D01*
X218489421Y-87073069D01*
X218450952Y-87017878D01*
X218398712Y-86975996D01*
X218334957Y-86950293D01*
X218256290Y-86941186D01*
X218185361Y-86948168D01*
X218075917Y-86974036D01*
X218104616Y-86574944D01*
X218177034Y-86581660D01*
X218247163Y-86573713D01*
X218307176Y-86550816D01*
X218359361Y-86512906D01*
X218400554Y-86463352D01*
X218424459Y-86409626D01*
X218432512Y-86349874D01*
X218426014Y-86291992D01*
X218407657Y-86244751D01*
X218377801Y-86205771D01*
X218338315Y-86176564D01*
X218289167Y-86158328D01*
X218227592Y-86151793D01*
X218164423Y-86158745D01*
X218111919Y-86178509D01*
X218067735Y-86210778D01*
X218034299Y-86254402D01*
X218005906Y-86320764D01*
X217984448Y-86417529D01*
G37*
G36*
X219016193Y-113284975D02*
G01*
X219267519Y-113284975D01*
X219267519Y-113714842D01*
X219016193Y-113714842D01*
X219016193Y-114090000D01*
X218531127Y-114090000D01*
X218531127Y-113714842D01*
X217517397Y-113714842D01*
X217517397Y-113284975D01*
X217995624Y-113284975D01*
X218531127Y-113284975D01*
X218531127Y-112650921D01*
X217995624Y-113284975D01*
X217517397Y-113284975D01*
X217517397Y-113258719D01*
X218531127Y-112057899D01*
X219016193Y-112057899D01*
X219016193Y-113284975D01*
G37*
%TO.C,Q14*%
D11*
X212098516Y-95628489D02*
X212098516Y-92631283D01*
X212098516Y-95628489D02*
X212351526Y-95628489D01*
X212099050Y-92505299D02*
X212098542Y-92631283D01*
D12*
X212099050Y-92505299D02*
X212099049Y-92505299D01*
X212099049Y-92505299D01*
X212099049Y-92505299D01*
X212099049Y-92505299D01*
X212099049Y-92505299D01*
X212099049Y-92505299D01*
X212099049Y-92505299D01*
X212099049Y-92505298D01*
X212099049Y-92505298D01*
X212099049Y-92505298D01*
X212099049Y-92505298D01*
X212099049Y-92505298D01*
X212099050Y-92505298D01*
X212099050Y-92505298D01*
X212099050Y-92505298D01*
X212099050Y-92505298D01*
X212099050Y-92505298D01*
X212099050Y-92505298D01*
X212099050Y-92505298D01*
X212099050Y-92505298D01*
X212099050Y-92505298D01*
X212099050Y-92505298D01*
X212099050Y-92505298D01*
X212099050Y-92505298D01*
X212099051Y-92505298D01*
X212099051Y-92505298D01*
X212099051Y-92505298D01*
X212099051Y-92505298D01*
X212099051Y-92505298D01*
X212099051Y-92505298D01*
X212099051Y-92505299D01*
X212099051Y-92505299D01*
X212099051Y-92505299D01*
X212099051Y-92505299D01*
X212099051Y-92505299D01*
X212099051Y-92505299D01*
X212099051Y-92505299D01*
X212099050Y-92505299D01*
X212099050Y-92505299D02*
X212099051Y-92505299D01*
X212099051Y-92505299D01*
X212099051Y-92505299D01*
X212099051Y-92505299D01*
X212099051Y-92505299D01*
X212099051Y-92505299D01*
X212099051Y-92505300D01*
X212099051Y-92505300D01*
X212099051Y-92505300D01*
X212099051Y-92505300D01*
X212099051Y-92505300D01*
X212099051Y-92505300D01*
X212099051Y-92505300D01*
X212099050Y-92505300D01*
X212099050Y-92505300D01*
X212099050Y-92505300D01*
X212099050Y-92505300D01*
X212099050Y-92505300D01*
X212099050Y-92505300D01*
X212099050Y-92505300D01*
X212099050Y-92505300D01*
X212099050Y-92505300D01*
X212099050Y-92505300D01*
X212099050Y-92505300D01*
X212099050Y-92505300D01*
X212099049Y-92505300D01*
X212099049Y-92505300D01*
X212099049Y-92505300D01*
X212099049Y-92505300D01*
X212099049Y-92505300D01*
X212099049Y-92505300D01*
X212099049Y-92505299D01*
X212099049Y-92505299D01*
X212099049Y-92505299D01*
X212099049Y-92505299D01*
X212099049Y-92505299D01*
X212099049Y-92505299D01*
X212099050Y-92505299D01*
D11*
X212339334Y-92506315D02*
X212099050Y-92505299D01*
X215398542Y-92506391D02*
X215157673Y-92506391D01*
X215398542Y-92631283D02*
X215398542Y-92506391D01*
X215398542Y-95628489D02*
X215094732Y-95628489D01*
X215398542Y-95628489D02*
X215398542Y-92631283D01*
X212315458Y-96106518D02*
G75*
G02*
X212061458Y-96106518I-127000J0D01*
G01*
X212061458Y-96106518D02*
G75*
G02*
X212315458Y-96106518I127000J0D01*
G01*
%TO.C,C31*%
D13*
X202335000Y-103331252D02*
X202335000Y-102808748D01*
X203805000Y-103331252D02*
X203805000Y-102808748D01*
%TO.C,Q15*%
D11*
D12*
X208216770Y-106824371D02*
X208216769Y-106824371D01*
X208216769Y-106824371D01*
X208216769Y-106824371D01*
X208216769Y-106824371D01*
X208216769Y-106824371D01*
X208216769Y-106824371D01*
X208216769Y-106824371D01*
X208216769Y-106824370D01*
X208216769Y-106824370D01*
X208216769Y-106824370D01*
X208216769Y-106824370D01*
X208216769Y-106824370D01*
X208216770Y-106824370D01*
X208216770Y-106824370D01*
X208216770Y-106824370D01*
X208216770Y-106824370D01*
X208216770Y-106824370D01*
X208216770Y-106824370D01*
X208216770Y-106824370D01*
X208216770Y-106824370D01*
X208216770Y-106824370D01*
X208216770Y-106824370D01*
X208216770Y-106824370D01*
X208216770Y-106824370D01*
X208216771Y-106824370D01*
X208216771Y-106824370D01*
X208216771Y-106824370D01*
X208216771Y-106824370D01*
X208216771Y-106824370D01*
X208216771Y-106824370D01*
X208216771Y-106824371D01*
X208216771Y-106824371D01*
X208216771Y-106824371D01*
X208216771Y-106824371D01*
X208216771Y-106824371D01*
X208216771Y-106824371D01*
X208216771Y-106824371D01*
X208216770Y-106824371D01*
X208216770Y-106824371D02*
X208216771Y-106824371D01*
X208216771Y-106824371D01*
X208216771Y-106824371D01*
X208216771Y-106824371D01*
X208216771Y-106824371D01*
X208216771Y-106824371D01*
X208216771Y-106824372D01*
X208216771Y-106824372D01*
X208216771Y-106824372D01*
X208216771Y-106824372D01*
X208216771Y-106824372D01*
X208216771Y-106824372D01*
X208216771Y-106824372D01*
X208216770Y-106824372D01*
X208216770Y-106824372D01*
X208216770Y-106824372D01*
X208216770Y-106824372D01*
X208216770Y-106824372D01*
X208216770Y-106824372D01*
X208216770Y-106824372D01*
X208216770Y-106824372D01*
X208216770Y-106824372D01*
X208216770Y-106824372D01*
X208216770Y-106824372D01*
X208216770Y-106824372D01*
X208216769Y-106824372D01*
X208216769Y-106824372D01*
X208216769Y-106824372D01*
X208216769Y-106824372D01*
X208216769Y-106824372D01*
X208216769Y-106824372D01*
X208216769Y-106824371D01*
X208216769Y-106824371D01*
X208216769Y-106824371D01*
X208216769Y-106824371D01*
X208216769Y-106824371D01*
X208216769Y-106824371D01*
X208216770Y-106824371D01*
D11*
X208216770Y-106824371D02*
X208342754Y-106824879D01*
X208217786Y-106584087D02*
X208216770Y-106824371D01*
X208217862Y-103524879D02*
X208217862Y-103765748D01*
X208342754Y-103524879D02*
X208217862Y-103524879D01*
X211339960Y-103524879D02*
X208342754Y-103524879D01*
X211339960Y-103524879D02*
X211339960Y-103828689D01*
X211339960Y-106824905D02*
X208342754Y-106824905D01*
X211339960Y-106824905D02*
X211339960Y-106571895D01*
X211944989Y-106734963D02*
G75*
G02*
X211690989Y-106734963I-127000J0D01*
G01*
X211690989Y-106734963D02*
G75*
G02*
X211944989Y-106734963I127000J0D01*
G01*
%TO.C,Q2*%
X188407196Y-100069987D02*
X188407196Y-100322997D01*
X188407196Y-100069987D02*
X191404402Y-100069987D01*
X188407196Y-103370013D02*
X188407196Y-103066203D01*
X188407196Y-103370013D02*
X191404402Y-103370013D01*
X191404402Y-103370013D02*
X191529294Y-103370013D01*
X191529294Y-103370013D02*
X191529294Y-103129144D01*
X191529370Y-100310805D02*
X191530386Y-100070521D01*
X191530386Y-100070521D02*
X191404402Y-100070013D01*
D12*
X191530386Y-100070521D02*
X191530385Y-100070521D01*
X191530385Y-100070521D01*
X191530385Y-100070521D01*
X191530385Y-100070521D01*
X191530385Y-100070521D01*
X191530385Y-100070521D01*
X191530385Y-100070521D01*
X191530385Y-100070520D01*
X191530385Y-100070520D01*
X191530385Y-100070520D01*
X191530385Y-100070520D01*
X191530385Y-100070520D01*
X191530386Y-100070520D01*
X191530386Y-100070520D01*
X191530386Y-100070520D01*
X191530386Y-100070520D01*
X191530386Y-100070520D01*
X191530386Y-100070520D01*
X191530386Y-100070520D01*
X191530386Y-100070520D01*
X191530386Y-100070520D01*
X191530386Y-100070520D01*
X191530386Y-100070520D01*
X191530386Y-100070520D01*
X191530387Y-100070520D01*
X191530387Y-100070520D01*
X191530387Y-100070520D01*
X191530387Y-100070520D01*
X191530387Y-100070520D01*
X191530387Y-100070520D01*
X191530387Y-100070521D01*
X191530387Y-100070521D01*
X191530387Y-100070521D01*
X191530387Y-100070521D01*
X191530387Y-100070521D01*
X191530387Y-100070521D01*
X191530387Y-100070521D01*
X191530386Y-100070521D01*
X191530386Y-100070521D02*
X191530387Y-100070521D01*
X191530387Y-100070521D01*
X191530387Y-100070521D01*
X191530387Y-100070521D01*
X191530387Y-100070521D01*
X191530387Y-100070521D01*
X191530387Y-100070522D01*
X191530387Y-100070522D01*
X191530387Y-100070522D01*
X191530387Y-100070522D01*
X191530387Y-100070522D01*
X191530387Y-100070522D01*
X191530387Y-100070522D01*
X191530386Y-100070522D01*
X191530386Y-100070522D01*
X191530386Y-100070522D01*
X191530386Y-100070522D01*
X191530386Y-100070522D01*
X191530386Y-100070522D01*
X191530386Y-100070522D01*
X191530386Y-100070522D01*
X191530386Y-100070522D01*
X191530386Y-100070522D01*
X191530386Y-100070522D01*
X191530386Y-100070522D01*
X191530385Y-100070522D01*
X191530385Y-100070522D01*
X191530385Y-100070522D01*
X191530385Y-100070522D01*
X191530385Y-100070522D01*
X191530385Y-100070522D01*
X191530385Y-100070521D01*
X191530385Y-100070521D01*
X191530385Y-100070521D01*
X191530385Y-100070521D01*
X191530385Y-100070521D01*
X191530385Y-100070521D01*
X191530386Y-100070521D01*
D11*
X188056167Y-100159929D02*
G75*
G02*
X187802167Y-100159929I-127000J0D01*
G01*
X187802167Y-100159929D02*
G75*
G02*
X188056167Y-100159929I127000J0D01*
G01*
D12*
%TO.C,G\u002A\u002A\u002A*%
G36*
X191284654Y-114855480D02*
G01*
X191388543Y-114923680D01*
X191458913Y-115026391D01*
X191477573Y-115129199D01*
X191462806Y-115241600D01*
X191419243Y-115336927D01*
X191401326Y-115358133D01*
X191326661Y-115407307D01*
X191228207Y-115442895D01*
X191138653Y-115453129D01*
X191137698Y-115453043D01*
X191093771Y-115469825D01*
X191032010Y-115515129D01*
X190969694Y-115573229D01*
X190924100Y-115628403D01*
X190911259Y-115659107D01*
X190891105Y-115686784D01*
X190840253Y-115734186D01*
X190812279Y-115757280D01*
X190750717Y-115815164D01*
X190713237Y-115867160D01*
X190708581Y-115881759D01*
X190681459Y-115929764D01*
X190614975Y-115991825D01*
X190594111Y-116007675D01*
X190521200Y-116068435D01*
X190490843Y-116115652D01*
X190488961Y-116137578D01*
X190474344Y-116183036D01*
X190452862Y-116191057D01*
X190400406Y-116219059D01*
X190340267Y-116284306D01*
X190285579Y-116371510D01*
X190270686Y-116403146D01*
X190254923Y-116458547D01*
X190269922Y-116505166D01*
X190321433Y-116563774D01*
X190384100Y-116633665D01*
X190458778Y-116727005D01*
X190511087Y-116798084D01*
X190566597Y-116879826D01*
X190591477Y-116928612D01*
X190589082Y-116956631D01*
X190562770Y-116976071D01*
X190560418Y-116977273D01*
X190503820Y-117011695D01*
X190427543Y-117064831D01*
X190395697Y-117088618D01*
X190287534Y-117171316D01*
X190275169Y-117043833D01*
X190248274Y-116876093D01*
X190202930Y-116754769D01*
X190135807Y-116671833D01*
X190114131Y-116655397D01*
X190057279Y-116623011D01*
X190033151Y-116628853D01*
X190030882Y-116643610D01*
X190011207Y-116674650D01*
X189954926Y-116740776D01*
X189866156Y-116837897D01*
X189749009Y-116961921D01*
X189607603Y-117108758D01*
X189446051Y-117274315D01*
X189268470Y-117454501D01*
X189078974Y-117645225D01*
X188881678Y-117842395D01*
X188680698Y-118041921D01*
X188480149Y-118239710D01*
X188284144Y-118431671D01*
X188096801Y-118613713D01*
X187922235Y-118781745D01*
X187764559Y-118931675D01*
X187627890Y-119059411D01*
X187516343Y-119160863D01*
X187434032Y-119231939D01*
X187402722Y-119256594D01*
X187295526Y-119333008D01*
X187170361Y-119417948D01*
X187035679Y-119506178D01*
X186899934Y-119592460D01*
X186771578Y-119671555D01*
X186659066Y-119738227D01*
X186570851Y-119787236D01*
X186515386Y-119813346D01*
X186500785Y-119815451D01*
X186509318Y-119787430D01*
X186542866Y-119720930D01*
X186596359Y-119625303D01*
X186664725Y-119509906D01*
X186679859Y-119485079D01*
X186717923Y-119423148D01*
X187054879Y-119423148D01*
X187056570Y-119423856D01*
X187104755Y-119396377D01*
X187185201Y-119343276D01*
X187285197Y-119273148D01*
X187357614Y-119220314D01*
X187416841Y-119174682D01*
X187483369Y-119119696D01*
X187560674Y-119052035D01*
X187652230Y-118968374D01*
X187761512Y-118865388D01*
X187891994Y-118739757D01*
X188047151Y-118588156D01*
X188230456Y-118407260D01*
X188445386Y-118193747D01*
X188695414Y-117944294D01*
X188779197Y-117860542D01*
X189961738Y-116678001D01*
X189910404Y-116639434D01*
X189859068Y-116600867D01*
X188426818Y-118025517D01*
X188163075Y-118288339D01*
X187922326Y-118529209D01*
X187706643Y-118746015D01*
X187518097Y-118936642D01*
X187358757Y-119098978D01*
X187230695Y-119230909D01*
X187135981Y-119330324D01*
X187076686Y-119395108D01*
X187054879Y-119423148D01*
X186717923Y-119423148D01*
X186756511Y-119360364D01*
X186825765Y-119249809D01*
X186891260Y-119149263D01*
X186956635Y-119054574D01*
X187025525Y-118961591D01*
X187101572Y-118866164D01*
X187188411Y-118764141D01*
X187289682Y-118651370D01*
X187409022Y-118523701D01*
X187550070Y-118376981D01*
X187716464Y-118207061D01*
X187877472Y-118044491D01*
X188259887Y-118044491D01*
X188282282Y-118025590D01*
X188310665Y-117999267D01*
X188431760Y-117882699D01*
X188566465Y-117748553D01*
X188690466Y-117621147D01*
X188720220Y-117589711D01*
X188759745Y-117546487D01*
X188762040Y-117540904D01*
X188729708Y-117570519D01*
X188665351Y-117632891D01*
X188571571Y-117725576D01*
X188508969Y-117788014D01*
X188400782Y-117896743D01*
X188321578Y-117977466D01*
X188273799Y-118027583D01*
X188259887Y-118044491D01*
X187877472Y-118044491D01*
X187898248Y-118023513D01*
X187911842Y-118009788D01*
X188139841Y-117781012D01*
X188320844Y-117599890D01*
X188404101Y-117516579D01*
X188411719Y-117508962D01*
X188650926Y-117270141D01*
X189009989Y-117270141D01*
X189009989Y-117290118D01*
X189029967Y-117290118D01*
X189029967Y-117270140D01*
X189009989Y-117270141D01*
X188650926Y-117270141D01*
X188686984Y-117234141D01*
X188830926Y-117091077D01*
X188924509Y-116998065D01*
X189126039Y-116799054D01*
X189293316Y-116635427D01*
X189428081Y-116505503D01*
X189532079Y-116407602D01*
X189607052Y-116340042D01*
X189654741Y-116301143D01*
X189676476Y-116289205D01*
X189699454Y-116277255D01*
X189684259Y-116236130D01*
X189666605Y-116208757D01*
X189607043Y-116141109D01*
X189528864Y-116094284D01*
X189418317Y-116061978D01*
X189306290Y-116043537D01*
X189140112Y-116021231D01*
X189226063Y-115935279D01*
X189282729Y-115865223D01*
X189317742Y-115796872D01*
X189321465Y-115781215D01*
X189333423Y-115723372D01*
X189343505Y-115699238D01*
X189374272Y-115705766D01*
X189441144Y-115746861D01*
X189538747Y-115818718D01*
X189661709Y-115917529D01*
X189716921Y-115963858D01*
X189879046Y-116101409D01*
X189969400Y-116031936D01*
X190031453Y-115973706D01*
X190070736Y-115917481D01*
X190074475Y-115907260D01*
X190111573Y-115853643D01*
X190153666Y-115837155D01*
X190223942Y-115806056D01*
X190281369Y-115756486D01*
X190308699Y-115704837D01*
X190308209Y-115690283D01*
X190322744Y-115656900D01*
X190341539Y-115651331D01*
X190405814Y-115628116D01*
X190471667Y-115582994D01*
X190518995Y-115531914D01*
X190530339Y-115501588D01*
X190547886Y-115461734D01*
X190580816Y-115452806D01*
X190639611Y-115425680D01*
X190710698Y-115363657D01*
X190780959Y-115282315D01*
X190837279Y-115197230D01*
X190850282Y-115164678D01*
X191031566Y-115164678D01*
X191032733Y-115172070D01*
X191069079Y-115246659D01*
X191147886Y-115286405D01*
X191178189Y-115291734D01*
X191229192Y-115277124D01*
X191283806Y-115235002D01*
X191321814Y-115184171D01*
X191327561Y-115152808D01*
X191312811Y-115144296D01*
X191302417Y-115160374D01*
X191272694Y-115175439D01*
X191212135Y-115150985D01*
X191117718Y-115085687D01*
X191099055Y-115071193D01*
X191060448Y-115063931D01*
X191035007Y-115099572D01*
X191031566Y-115164678D01*
X190850282Y-115164678D01*
X190866539Y-115123978D01*
X190868009Y-115111778D01*
X190894934Y-115026383D01*
X191101774Y-115026383D01*
X191105042Y-115026567D01*
X191140776Y-115020673D01*
X191188285Y-115013249D01*
X191234245Y-115004870D01*
X191225999Y-114999207D01*
X191195169Y-114995058D01*
X191136676Y-114997452D01*
X191111926Y-115008377D01*
X191101774Y-115026383D01*
X190894934Y-115026383D01*
X190897787Y-115017336D01*
X190948844Y-114952327D01*
X190967030Y-114929171D01*
X191005223Y-114901674D01*
X191059430Y-114862651D01*
X191158679Y-114833142D01*
X191163933Y-114832901D01*
X191284654Y-114855480D01*
G37*
%TO.C,Q17*%
D11*
X188282881Y-95981458D02*
X188282881Y-96234468D01*
X188282881Y-95981458D02*
X191280087Y-95981458D01*
X188282881Y-99281484D02*
X188282881Y-98977674D01*
X188282881Y-99281484D02*
X191280087Y-99281484D01*
X191280087Y-99281484D02*
X191404979Y-99281484D01*
X191404979Y-99281484D02*
X191404979Y-99040615D01*
X191405055Y-96222276D02*
X191406071Y-95981992D01*
X191406071Y-95981992D02*
X191280087Y-95981484D01*
D12*
X191406071Y-95981992D02*
X191406070Y-95981992D01*
X191406070Y-95981992D01*
X191406070Y-95981992D01*
X191406070Y-95981992D01*
X191406070Y-95981992D01*
X191406070Y-95981992D01*
X191406070Y-95981992D01*
X191406070Y-95981991D01*
X191406070Y-95981991D01*
X191406070Y-95981991D01*
X191406070Y-95981991D01*
X191406070Y-95981991D01*
X191406071Y-95981991D01*
X191406071Y-95981991D01*
X191406071Y-95981991D01*
X191406071Y-95981991D01*
X191406071Y-95981991D01*
X191406071Y-95981991D01*
X191406071Y-95981991D01*
X191406071Y-95981991D01*
X191406071Y-95981991D01*
X191406071Y-95981991D01*
X191406071Y-95981991D01*
X191406071Y-95981991D01*
X191406072Y-95981991D01*
X191406072Y-95981991D01*
X191406072Y-95981991D01*
X191406072Y-95981991D01*
X191406072Y-95981991D01*
X191406072Y-95981991D01*
X191406072Y-95981992D01*
X191406072Y-95981992D01*
X191406072Y-95981992D01*
X191406072Y-95981992D01*
X191406072Y-95981992D01*
X191406072Y-95981992D01*
X191406072Y-95981992D01*
X191406071Y-95981992D01*
X191406071Y-95981992D02*
X191406072Y-95981992D01*
X191406072Y-95981992D01*
X191406072Y-95981992D01*
X191406072Y-95981992D01*
X191406072Y-95981992D01*
X191406072Y-95981992D01*
X191406072Y-95981993D01*
X191406072Y-95981993D01*
X191406072Y-95981993D01*
X191406072Y-95981993D01*
X191406072Y-95981993D01*
X191406072Y-95981993D01*
X191406072Y-95981993D01*
X191406071Y-95981993D01*
X191406071Y-95981993D01*
X191406071Y-95981993D01*
X191406071Y-95981993D01*
X191406071Y-95981993D01*
X191406071Y-95981993D01*
X191406071Y-95981993D01*
X191406071Y-95981993D01*
X191406071Y-95981993D01*
X191406071Y-95981993D01*
X191406071Y-95981993D01*
X191406071Y-95981993D01*
X191406070Y-95981993D01*
X191406070Y-95981993D01*
X191406070Y-95981993D01*
X191406070Y-95981993D01*
X191406070Y-95981993D01*
X191406070Y-95981993D01*
X191406070Y-95981992D01*
X191406070Y-95981992D01*
X191406070Y-95981992D01*
X191406070Y-95981992D01*
X191406070Y-95981992D01*
X191406070Y-95981992D01*
X191406071Y-95981992D01*
D11*
X187931852Y-96071400D02*
G75*
G02*
X187677852Y-96071400I-127000J0D01*
G01*
X187677852Y-96071400D02*
G75*
G02*
X187931852Y-96071400I127000J0D01*
G01*
%TO.C,D1*%
D14*
X197647500Y-115187500D02*
X197647500Y-115620000D01*
X197647500Y-118380000D02*
X197647500Y-118812500D01*
X197647500Y-118812500D02*
X201972500Y-118812500D01*
X201972500Y-115187500D02*
X197647500Y-115187500D01*
X201972500Y-115187500D02*
X201972500Y-115620000D01*
X201972500Y-118812500D02*
X201972500Y-118380000D01*
D15*
X202910000Y-118600000D02*
G75*
G02*
X202710000Y-118600000I-100000J0D01*
G01*
X202710000Y-118600000D02*
G75*
G02*
X202910000Y-118600000I100000J0D01*
G01*
%TO.C,C35*%
D13*
X196062500Y-107378748D02*
X196062500Y-107901252D01*
X197532500Y-107378748D02*
X197532500Y-107901252D01*
%TO.C,C40*%
X198155000Y-99298748D02*
X198155000Y-99821252D01*
X199625000Y-99298748D02*
X199625000Y-99821252D01*
%TO.C,Q6*%
D11*
X183914684Y-103886298D02*
X183914684Y-100889092D01*
X183914684Y-103886298D02*
X184167694Y-103886298D01*
X183915218Y-100763108D02*
X183914710Y-100889092D01*
D12*
X183915218Y-100763108D02*
X183915217Y-100763108D01*
X183915217Y-100763108D01*
X183915217Y-100763108D01*
X183915217Y-100763108D01*
X183915217Y-100763108D01*
X183915217Y-100763108D01*
X183915217Y-100763108D01*
X183915217Y-100763107D01*
X183915217Y-100763107D01*
X183915217Y-100763107D01*
X183915217Y-100763107D01*
X183915217Y-100763107D01*
X183915218Y-100763107D01*
X183915218Y-100763107D01*
X183915218Y-100763107D01*
X183915218Y-100763107D01*
X183915218Y-100763107D01*
X183915218Y-100763107D01*
X183915218Y-100763107D01*
X183915218Y-100763107D01*
X183915218Y-100763107D01*
X183915218Y-100763107D01*
X183915218Y-100763107D01*
X183915218Y-100763107D01*
X183915219Y-100763107D01*
X183915219Y-100763107D01*
X183915219Y-100763107D01*
X183915219Y-100763107D01*
X183915219Y-100763107D01*
X183915219Y-100763107D01*
X183915219Y-100763108D01*
X183915219Y-100763108D01*
X183915219Y-100763108D01*
X183915219Y-100763108D01*
X183915219Y-100763108D01*
X183915219Y-100763108D01*
X183915219Y-100763108D01*
X183915218Y-100763108D01*
X183915218Y-100763108D02*
X183915219Y-100763108D01*
X183915219Y-100763108D01*
X183915219Y-100763108D01*
X183915219Y-100763108D01*
X183915219Y-100763108D01*
X183915219Y-100763108D01*
X183915219Y-100763109D01*
X183915219Y-100763109D01*
X183915219Y-100763109D01*
X183915219Y-100763109D01*
X183915219Y-100763109D01*
X183915219Y-100763109D01*
X183915219Y-100763109D01*
X183915218Y-100763109D01*
X183915218Y-100763109D01*
X183915218Y-100763109D01*
X183915218Y-100763109D01*
X183915218Y-100763109D01*
X183915218Y-100763109D01*
X183915218Y-100763109D01*
X183915218Y-100763109D01*
X183915218Y-100763109D01*
X183915218Y-100763109D01*
X183915218Y-100763109D01*
X183915218Y-100763109D01*
X183915217Y-100763109D01*
X183915217Y-100763109D01*
X183915217Y-100763109D01*
X183915217Y-100763109D01*
X183915217Y-100763109D01*
X183915217Y-100763109D01*
X183915217Y-100763108D01*
X183915217Y-100763108D01*
X183915217Y-100763108D01*
X183915217Y-100763108D01*
X183915217Y-100763108D01*
X183915217Y-100763108D01*
X183915218Y-100763108D01*
D11*
X184155502Y-100764124D02*
X183915218Y-100763108D01*
X187214710Y-100764200D02*
X186973841Y-100764200D01*
X187214710Y-100889092D02*
X187214710Y-100764200D01*
X187214710Y-103886298D02*
X186910900Y-103886298D01*
X187214710Y-103886298D02*
X187214710Y-100889092D01*
X184131626Y-104364327D02*
G75*
G02*
X183877626Y-104364327I-127000J0D01*
G01*
X183877626Y-104364327D02*
G75*
G02*
X184131626Y-104364327I127000J0D01*
G01*
%TO.C,Q10*%
X183896155Y-95580613D02*
X183896155Y-92583407D01*
X183896155Y-95580613D02*
X184149165Y-95580613D01*
X183896689Y-92457423D02*
X183896181Y-92583407D01*
D12*
X183896689Y-92457423D02*
X183896688Y-92457423D01*
X183896688Y-92457423D01*
X183896688Y-92457423D01*
X183896688Y-92457423D01*
X183896688Y-92457423D01*
X183896688Y-92457423D01*
X183896688Y-92457423D01*
X183896688Y-92457422D01*
X183896688Y-92457422D01*
X183896688Y-92457422D01*
X183896688Y-92457422D01*
X183896688Y-92457422D01*
X183896689Y-92457422D01*
X183896689Y-92457422D01*
X183896689Y-92457422D01*
X183896689Y-92457422D01*
X183896689Y-92457422D01*
X183896689Y-92457422D01*
X183896689Y-92457422D01*
X183896689Y-92457422D01*
X183896689Y-92457422D01*
X183896689Y-92457422D01*
X183896689Y-92457422D01*
X183896689Y-92457422D01*
X183896690Y-92457422D01*
X183896690Y-92457422D01*
X183896690Y-92457422D01*
X183896690Y-92457422D01*
X183896690Y-92457422D01*
X183896690Y-92457422D01*
X183896690Y-92457423D01*
X183896690Y-92457423D01*
X183896690Y-92457423D01*
X183896690Y-92457423D01*
X183896690Y-92457423D01*
X183896690Y-92457423D01*
X183896690Y-92457423D01*
X183896689Y-92457423D01*
X183896689Y-92457423D02*
X183896690Y-92457423D01*
X183896690Y-92457423D01*
X183896690Y-92457423D01*
X183896690Y-92457423D01*
X183896690Y-92457423D01*
X183896690Y-92457423D01*
X183896690Y-92457424D01*
X183896690Y-92457424D01*
X183896690Y-92457424D01*
X183896690Y-92457424D01*
X183896690Y-92457424D01*
X183896690Y-92457424D01*
X183896690Y-92457424D01*
X183896689Y-92457424D01*
X183896689Y-92457424D01*
X183896689Y-92457424D01*
X183896689Y-92457424D01*
X183896689Y-92457424D01*
X183896689Y-92457424D01*
X183896689Y-92457424D01*
X183896689Y-92457424D01*
X183896689Y-92457424D01*
X183896689Y-92457424D01*
X183896689Y-92457424D01*
X183896689Y-92457424D01*
X183896688Y-92457424D01*
X183896688Y-92457424D01*
X183896688Y-92457424D01*
X183896688Y-92457424D01*
X183896688Y-92457424D01*
X183896688Y-92457424D01*
X183896688Y-92457423D01*
X183896688Y-92457423D01*
X183896688Y-92457423D01*
X183896688Y-92457423D01*
X183896688Y-92457423D01*
X183896688Y-92457423D01*
X183896689Y-92457423D01*
D11*
X184136973Y-92458439D02*
X183896689Y-92457423D01*
X187196181Y-92458515D02*
X186955312Y-92458515D01*
X187196181Y-92583407D02*
X187196181Y-92458515D01*
X187196181Y-95580613D02*
X186892371Y-95580613D01*
X187196181Y-95580613D02*
X187196181Y-92583407D01*
X184113097Y-96058642D02*
G75*
G02*
X183859097Y-96058642I-127000J0D01*
G01*
X183859097Y-96058642D02*
G75*
G02*
X184113097Y-96058642I127000J0D01*
G01*
%TO.C,Q5*%
X183904684Y-91526298D02*
X183904684Y-88529092D01*
X183904684Y-91526298D02*
X184157694Y-91526298D01*
X183905218Y-88403108D02*
X183904710Y-88529092D01*
D12*
X183905218Y-88403108D02*
X183905217Y-88403108D01*
X183905217Y-88403108D01*
X183905217Y-88403108D01*
X183905217Y-88403108D01*
X183905217Y-88403108D01*
X183905217Y-88403108D01*
X183905217Y-88403108D01*
X183905217Y-88403107D01*
X183905217Y-88403107D01*
X183905217Y-88403107D01*
X183905217Y-88403107D01*
X183905217Y-88403107D01*
X183905218Y-88403107D01*
X183905218Y-88403107D01*
X183905218Y-88403107D01*
X183905218Y-88403107D01*
X183905218Y-88403107D01*
X183905218Y-88403107D01*
X183905218Y-88403107D01*
X183905218Y-88403107D01*
X183905218Y-88403107D01*
X183905218Y-88403107D01*
X183905218Y-88403107D01*
X183905218Y-88403107D01*
X183905219Y-88403107D01*
X183905219Y-88403107D01*
X183905219Y-88403107D01*
X183905219Y-88403107D01*
X183905219Y-88403107D01*
X183905219Y-88403107D01*
X183905219Y-88403108D01*
X183905219Y-88403108D01*
X183905219Y-88403108D01*
X183905219Y-88403108D01*
X183905219Y-88403108D01*
X183905219Y-88403108D01*
X183905219Y-88403108D01*
X183905218Y-88403108D01*
X183905218Y-88403108D02*
X183905219Y-88403108D01*
X183905219Y-88403108D01*
X183905219Y-88403108D01*
X183905219Y-88403108D01*
X183905219Y-88403108D01*
X183905219Y-88403108D01*
X183905219Y-88403109D01*
X183905219Y-88403109D01*
X183905219Y-88403109D01*
X183905219Y-88403109D01*
X183905219Y-88403109D01*
X183905219Y-88403109D01*
X183905219Y-88403109D01*
X183905218Y-88403109D01*
X183905218Y-88403109D01*
X183905218Y-88403109D01*
X183905218Y-88403109D01*
X183905218Y-88403109D01*
X183905218Y-88403109D01*
X183905218Y-88403109D01*
X183905218Y-88403109D01*
X183905218Y-88403109D01*
X183905218Y-88403109D01*
X183905218Y-88403109D01*
X183905218Y-88403109D01*
X183905217Y-88403109D01*
X183905217Y-88403109D01*
X183905217Y-88403109D01*
X183905217Y-88403109D01*
X183905217Y-88403109D01*
X183905217Y-88403109D01*
X183905217Y-88403108D01*
X183905217Y-88403108D01*
X183905217Y-88403108D01*
X183905217Y-88403108D01*
X183905217Y-88403108D01*
X183905217Y-88403108D01*
X183905218Y-88403108D01*
D11*
X184145502Y-88404124D02*
X183905218Y-88403108D01*
X187204710Y-88404200D02*
X186963841Y-88404200D01*
X187204710Y-88529092D02*
X187204710Y-88404200D01*
X187204710Y-91526298D02*
X186900900Y-91526298D01*
X187204710Y-91526298D02*
X187204710Y-88529092D01*
X184121626Y-92004327D02*
G75*
G02*
X183867626Y-92004327I-127000J0D01*
G01*
X183867626Y-92004327D02*
G75*
G02*
X184121626Y-92004327I127000J0D01*
G01*
D12*
%TO.C,G\u002A\u002A\u002A*%
G36*
X208641600Y-114937194D02*
G01*
X208736927Y-114980757D01*
X208758133Y-114998674D01*
X208807307Y-115073339D01*
X208842895Y-115171793D01*
X208853129Y-115261347D01*
X208853043Y-115262302D01*
X208869825Y-115306229D01*
X208915129Y-115367990D01*
X208973229Y-115430306D01*
X209028403Y-115475900D01*
X209059107Y-115488741D01*
X209086784Y-115508895D01*
X209134186Y-115559747D01*
X209157280Y-115587721D01*
X209215164Y-115649283D01*
X209267160Y-115686763D01*
X209281759Y-115691419D01*
X209329764Y-115718541D01*
X209391825Y-115785025D01*
X209407675Y-115805889D01*
X209468435Y-115878800D01*
X209515652Y-115909157D01*
X209537578Y-115911039D01*
X209583036Y-115925656D01*
X209591057Y-115947138D01*
X209619059Y-115999594D01*
X209684306Y-116059733D01*
X209771510Y-116114421D01*
X209803146Y-116129314D01*
X209858547Y-116145077D01*
X209905166Y-116130078D01*
X209963774Y-116078567D01*
X210033665Y-116015900D01*
X210127005Y-115941222D01*
X210198084Y-115888913D01*
X210279826Y-115833403D01*
X210328612Y-115808523D01*
X210356631Y-115810918D01*
X210376071Y-115837230D01*
X210377273Y-115839582D01*
X210411695Y-115896180D01*
X210464831Y-115972457D01*
X210488618Y-116004303D01*
X210571316Y-116112466D01*
X210443833Y-116124831D01*
X210276093Y-116151726D01*
X210154769Y-116197070D01*
X210071833Y-116264193D01*
X210055397Y-116285869D01*
X210023011Y-116342721D01*
X210028853Y-116366849D01*
X210043610Y-116369118D01*
X210074650Y-116388793D01*
X210140776Y-116445074D01*
X210237897Y-116533844D01*
X210361921Y-116650991D01*
X210508758Y-116792397D01*
X210674315Y-116953949D01*
X210854501Y-117131530D01*
X211045225Y-117321026D01*
X211242395Y-117518322D01*
X211441921Y-117719302D01*
X211639710Y-117919851D01*
X211831671Y-118115856D01*
X212013713Y-118303199D01*
X212181745Y-118477765D01*
X212331675Y-118635441D01*
X212459411Y-118772110D01*
X212560863Y-118883657D01*
X212631939Y-118965968D01*
X212656594Y-118997278D01*
X212733008Y-119104474D01*
X212817948Y-119229639D01*
X212906178Y-119364321D01*
X212992460Y-119500066D01*
X213071555Y-119628422D01*
X213138227Y-119740934D01*
X213187236Y-119829149D01*
X213213346Y-119884614D01*
X213215451Y-119899215D01*
X213187430Y-119890682D01*
X213120930Y-119857134D01*
X213025303Y-119803641D01*
X212909906Y-119735275D01*
X212885079Y-119720141D01*
X212760364Y-119643489D01*
X212649809Y-119574235D01*
X212549263Y-119508740D01*
X212454574Y-119443365D01*
X212361591Y-119374475D01*
X212266164Y-119298428D01*
X212164141Y-119211589D01*
X212051370Y-119110318D01*
X211923701Y-118990978D01*
X211776981Y-118849930D01*
X211607061Y-118683536D01*
X211423513Y-118501752D01*
X211409788Y-118488158D01*
X211181012Y-118260159D01*
X210999890Y-118079156D01*
X210916579Y-117995899D01*
X210908962Y-117988281D01*
X210634141Y-117713016D01*
X210559543Y-117637960D01*
X210940904Y-117637960D01*
X210970519Y-117670292D01*
X211032891Y-117734649D01*
X211125576Y-117828429D01*
X211188014Y-117891031D01*
X211296743Y-117999218D01*
X211377466Y-118078422D01*
X211427583Y-118126201D01*
X211444491Y-118140113D01*
X211425590Y-118117718D01*
X211399267Y-118089335D01*
X211282699Y-117968240D01*
X211148553Y-117833535D01*
X211021147Y-117709534D01*
X210989711Y-117679780D01*
X210946487Y-117640255D01*
X210940904Y-117637960D01*
X210559543Y-117637960D01*
X210491077Y-117569074D01*
X210398065Y-117475491D01*
X210293925Y-117370033D01*
X210670140Y-117370033D01*
X210670141Y-117390011D01*
X210690118Y-117390011D01*
X210690118Y-117370033D01*
X210670140Y-117370033D01*
X210293925Y-117370033D01*
X210199054Y-117273961D01*
X210035427Y-117106684D01*
X209905503Y-116971919D01*
X209807602Y-116867921D01*
X209740042Y-116792948D01*
X209701143Y-116745259D01*
X209689205Y-116723524D01*
X209677255Y-116700546D01*
X209636130Y-116715741D01*
X209608757Y-116733395D01*
X209541109Y-116792957D01*
X209494284Y-116871136D01*
X209461978Y-116981683D01*
X209443537Y-117093710D01*
X209421231Y-117259888D01*
X209335279Y-117173937D01*
X209265223Y-117117271D01*
X209196872Y-117082258D01*
X209181215Y-117078535D01*
X209123372Y-117066577D01*
X209099238Y-117056495D01*
X209105766Y-117025728D01*
X209146861Y-116958856D01*
X209218718Y-116861253D01*
X209317529Y-116738291D01*
X209363858Y-116683079D01*
X209484459Y-116540932D01*
X210000867Y-116540932D01*
X211425517Y-117973182D01*
X211688339Y-118236925D01*
X211929209Y-118477674D01*
X212146015Y-118693357D01*
X212336642Y-118881903D01*
X212498978Y-119041243D01*
X212630909Y-119169305D01*
X212730324Y-119264019D01*
X212795108Y-119323314D01*
X212823148Y-119345121D01*
X212823856Y-119343430D01*
X212796377Y-119295245D01*
X212743276Y-119214799D01*
X212673148Y-119114803D01*
X212620314Y-119042386D01*
X212574682Y-118983159D01*
X212519696Y-118916631D01*
X212452035Y-118839326D01*
X212368374Y-118747770D01*
X212265388Y-118638488D01*
X212139757Y-118508006D01*
X211988156Y-118352849D01*
X211807260Y-118169544D01*
X211593747Y-117954614D01*
X211344294Y-117704586D01*
X211260542Y-117620803D01*
X210078001Y-116438262D01*
X210039434Y-116489596D01*
X210000867Y-116540932D01*
X209484459Y-116540932D01*
X209501409Y-116520954D01*
X209431936Y-116430600D01*
X209373706Y-116368547D01*
X209317481Y-116329264D01*
X209307260Y-116325525D01*
X209253643Y-116288427D01*
X209237155Y-116246334D01*
X209206056Y-116176058D01*
X209156486Y-116118631D01*
X209104837Y-116091301D01*
X209090283Y-116091791D01*
X209056900Y-116077256D01*
X209051331Y-116058461D01*
X209028116Y-115994186D01*
X208982994Y-115928333D01*
X208931914Y-115881005D01*
X208901588Y-115869661D01*
X208861734Y-115852114D01*
X208852806Y-115819184D01*
X208825680Y-115760389D01*
X208763657Y-115689302D01*
X208682315Y-115619041D01*
X208597230Y-115562721D01*
X208523978Y-115533461D01*
X208511778Y-115531991D01*
X208417336Y-115502213D01*
X208352327Y-115451156D01*
X208329171Y-115432970D01*
X208301674Y-115394777D01*
X208262651Y-115340570D01*
X208262348Y-115339552D01*
X208463931Y-115339552D01*
X208499572Y-115364993D01*
X208564678Y-115368434D01*
X208572070Y-115367267D01*
X208646659Y-115330921D01*
X208686405Y-115252114D01*
X208691734Y-115221811D01*
X208677124Y-115170808D01*
X208635002Y-115116194D01*
X208584171Y-115078186D01*
X208552808Y-115072439D01*
X208544296Y-115087189D01*
X208560374Y-115097583D01*
X208575439Y-115127306D01*
X208550985Y-115187865D01*
X208485687Y-115282282D01*
X208471193Y-115300945D01*
X208463931Y-115339552D01*
X208262348Y-115339552D01*
X208233142Y-115241321D01*
X208232901Y-115236067D01*
X208238743Y-115204831D01*
X208395058Y-115204831D01*
X208397452Y-115263324D01*
X208408377Y-115288074D01*
X208426383Y-115298226D01*
X208426567Y-115294958D01*
X208420673Y-115259224D01*
X208413249Y-115211715D01*
X208404870Y-115165755D01*
X208399207Y-115174001D01*
X208395058Y-115204831D01*
X208238743Y-115204831D01*
X208255480Y-115115346D01*
X208323680Y-115011457D01*
X208426391Y-114941087D01*
X208529199Y-114922427D01*
X208641600Y-114937194D01*
G37*
%TO.C,C51*%
D13*
X202215000Y-111441252D02*
X202215000Y-110918748D01*
X203685000Y-111441252D02*
X203685000Y-110918748D01*
%TO.C,Q9*%
D11*
X188127196Y-91709987D02*
X188127196Y-91962997D01*
X188127196Y-91709987D02*
X191124402Y-91709987D01*
X188127196Y-95010013D02*
X188127196Y-94706203D01*
X188127196Y-95010013D02*
X191124402Y-95010013D01*
X191124402Y-95010013D02*
X191249294Y-95010013D01*
X191249294Y-95010013D02*
X191249294Y-94769144D01*
X191249370Y-91950805D02*
X191250386Y-91710521D01*
X191250386Y-91710521D02*
X191124402Y-91710013D01*
D12*
X191250386Y-91710521D02*
X191250385Y-91710521D01*
X191250385Y-91710521D01*
X191250385Y-91710521D01*
X191250385Y-91710521D01*
X191250385Y-91710521D01*
X191250385Y-91710521D01*
X191250385Y-91710521D01*
X191250385Y-91710520D01*
X191250385Y-91710520D01*
X191250385Y-91710520D01*
X191250385Y-91710520D01*
X191250385Y-91710520D01*
X191250386Y-91710520D01*
X191250386Y-91710520D01*
X191250386Y-91710520D01*
X191250386Y-91710520D01*
X191250386Y-91710520D01*
X191250386Y-91710520D01*
X191250386Y-91710520D01*
X191250386Y-91710520D01*
X191250386Y-91710520D01*
X191250386Y-91710520D01*
X191250386Y-91710520D01*
X191250386Y-91710520D01*
X191250387Y-91710520D01*
X191250387Y-91710520D01*
X191250387Y-91710520D01*
X191250387Y-91710520D01*
X191250387Y-91710520D01*
X191250387Y-91710520D01*
X191250387Y-91710521D01*
X191250387Y-91710521D01*
X191250387Y-91710521D01*
X191250387Y-91710521D01*
X191250387Y-91710521D01*
X191250387Y-91710521D01*
X191250387Y-91710521D01*
X191250386Y-91710521D01*
X191250386Y-91710521D02*
X191250387Y-91710521D01*
X191250387Y-91710521D01*
X191250387Y-91710521D01*
X191250387Y-91710521D01*
X191250387Y-91710521D01*
X191250387Y-91710521D01*
X191250387Y-91710522D01*
X191250387Y-91710522D01*
X191250387Y-91710522D01*
X191250387Y-91710522D01*
X191250387Y-91710522D01*
X191250387Y-91710522D01*
X191250387Y-91710522D01*
X191250386Y-91710522D01*
X191250386Y-91710522D01*
X191250386Y-91710522D01*
X191250386Y-91710522D01*
X191250386Y-91710522D01*
X191250386Y-91710522D01*
X191250386Y-91710522D01*
X191250386Y-91710522D01*
X191250386Y-91710522D01*
X191250386Y-91710522D01*
X191250386Y-91710522D01*
X191250386Y-91710522D01*
X191250385Y-91710522D01*
X191250385Y-91710522D01*
X191250385Y-91710522D01*
X191250385Y-91710522D01*
X191250385Y-91710522D01*
X191250385Y-91710522D01*
X191250385Y-91710521D01*
X191250385Y-91710521D01*
X191250385Y-91710521D01*
X191250385Y-91710521D01*
X191250385Y-91710521D01*
X191250385Y-91710521D01*
X191250386Y-91710521D01*
D11*
X187776167Y-91799929D02*
G75*
G02*
X187522167Y-91799929I-127000J0D01*
G01*
X187522167Y-91799929D02*
G75*
G02*
X187776167Y-91799929I127000J0D01*
G01*
%TO.C,C56*%
D13*
X198165000Y-92288748D02*
X198165000Y-92811252D01*
X199635000Y-92288748D02*
X199635000Y-92811252D01*
%TO.C,C47*%
X202325000Y-96341252D02*
X202325000Y-95818748D01*
X203795000Y-96341252D02*
X203795000Y-95818748D01*
%TO.C,R1*%
X197990000Y-112177064D02*
X197990000Y-107822936D01*
X201410000Y-112177064D02*
X201410000Y-107822936D01*
%TO.C,C44*%
X196095000Y-96311252D02*
X196095000Y-95788748D01*
X197565000Y-96311252D02*
X197565000Y-95788748D01*
%TO.C,Q4*%
D11*
D12*
X208116770Y-103215265D02*
X208116769Y-103215265D01*
X208116769Y-103215265D01*
X208116769Y-103215265D01*
X208116769Y-103215265D01*
X208116769Y-103215265D01*
X208116769Y-103215265D01*
X208116769Y-103215265D01*
X208116769Y-103215264D01*
X208116769Y-103215264D01*
X208116769Y-103215264D01*
X208116769Y-103215264D01*
X208116769Y-103215264D01*
X208116770Y-103215264D01*
X208116770Y-103215264D01*
X208116770Y-103215264D01*
X208116770Y-103215264D01*
X208116770Y-103215264D01*
X208116770Y-103215264D01*
X208116770Y-103215264D01*
X208116770Y-103215264D01*
X208116770Y-103215264D01*
X208116770Y-103215264D01*
X208116770Y-103215264D01*
X208116770Y-103215264D01*
X208116771Y-103215264D01*
X208116771Y-103215264D01*
X208116771Y-103215264D01*
X208116771Y-103215264D01*
X208116771Y-103215264D01*
X208116771Y-103215264D01*
X208116771Y-103215265D01*
X208116771Y-103215265D01*
X208116771Y-103215265D01*
X208116771Y-103215265D01*
X208116771Y-103215265D01*
X208116771Y-103215265D01*
X208116771Y-103215265D01*
X208116770Y-103215265D01*
X208116770Y-103215265D02*
X208116771Y-103215265D01*
X208116771Y-103215265D01*
X208116771Y-103215265D01*
X208116771Y-103215265D01*
X208116771Y-103215265D01*
X208116771Y-103215265D01*
X208116771Y-103215266D01*
X208116771Y-103215266D01*
X208116771Y-103215266D01*
X208116771Y-103215266D01*
X208116771Y-103215266D01*
X208116771Y-103215266D01*
X208116771Y-103215266D01*
X208116770Y-103215266D01*
X208116770Y-103215266D01*
X208116770Y-103215266D01*
X208116770Y-103215266D01*
X208116770Y-103215266D01*
X208116770Y-103215266D01*
X208116770Y-103215266D01*
X208116770Y-103215266D01*
X208116770Y-103215266D01*
X208116770Y-103215266D01*
X208116770Y-103215266D01*
X208116770Y-103215266D01*
X208116769Y-103215266D01*
X208116769Y-103215266D01*
X208116769Y-103215266D01*
X208116769Y-103215266D01*
X208116769Y-103215266D01*
X208116769Y-103215266D01*
X208116769Y-103215265D01*
X208116769Y-103215265D01*
X208116769Y-103215265D01*
X208116769Y-103215265D01*
X208116769Y-103215265D01*
X208116769Y-103215265D01*
X208116770Y-103215265D01*
D11*
X208116770Y-103215265D02*
X208242754Y-103215773D01*
X208117786Y-102974981D02*
X208116770Y-103215265D01*
X208117862Y-99915773D02*
X208117862Y-100156642D01*
X208242754Y-99915773D02*
X208117862Y-99915773D01*
X211239960Y-99915773D02*
X208242754Y-99915773D01*
X211239960Y-99915773D02*
X211239960Y-100219583D01*
X211239960Y-103215799D02*
X208242754Y-103215799D01*
X211239960Y-103215799D02*
X211239960Y-102962789D01*
X211844989Y-103125857D02*
G75*
G02*
X211590989Y-103125857I-127000J0D01*
G01*
X211590989Y-103125857D02*
G75*
G02*
X211844989Y-103125857I127000J0D01*
G01*
%TO.C,Q20*%
X183944684Y-112046298D02*
X183944684Y-109049092D01*
X183944684Y-112046298D02*
X184197694Y-112046298D01*
X183945218Y-108923108D02*
X183944710Y-109049092D01*
D12*
X183945218Y-108923108D02*
X183945217Y-108923108D01*
X183945217Y-108923108D01*
X183945217Y-108923108D01*
X183945217Y-108923108D01*
X183945217Y-108923108D01*
X183945217Y-108923108D01*
X183945217Y-108923108D01*
X183945217Y-108923107D01*
X183945217Y-108923107D01*
X183945217Y-108923107D01*
X183945217Y-108923107D01*
X183945217Y-108923107D01*
X183945218Y-108923107D01*
X183945218Y-108923107D01*
X183945218Y-108923107D01*
X183945218Y-108923107D01*
X183945218Y-108923107D01*
X183945218Y-108923107D01*
X183945218Y-108923107D01*
X183945218Y-108923107D01*
X183945218Y-108923107D01*
X183945218Y-108923107D01*
X183945218Y-108923107D01*
X183945218Y-108923107D01*
X183945219Y-108923107D01*
X183945219Y-108923107D01*
X183945219Y-108923107D01*
X183945219Y-108923107D01*
X183945219Y-108923107D01*
X183945219Y-108923107D01*
X183945219Y-108923108D01*
X183945219Y-108923108D01*
X183945219Y-108923108D01*
X183945219Y-108923108D01*
X183945219Y-108923108D01*
X183945219Y-108923108D01*
X183945219Y-108923108D01*
X183945218Y-108923108D01*
X183945218Y-108923108D02*
X183945219Y-108923108D01*
X183945219Y-108923108D01*
X183945219Y-108923108D01*
X183945219Y-108923108D01*
X183945219Y-108923108D01*
X183945219Y-108923108D01*
X183945219Y-108923109D01*
X183945219Y-108923109D01*
X183945219Y-108923109D01*
X183945219Y-108923109D01*
X183945219Y-108923109D01*
X183945219Y-108923109D01*
X183945219Y-108923109D01*
X183945218Y-108923109D01*
X183945218Y-108923109D01*
X183945218Y-108923109D01*
X183945218Y-108923109D01*
X183945218Y-108923109D01*
X183945218Y-108923109D01*
X183945218Y-108923109D01*
X183945218Y-108923109D01*
X183945218Y-108923109D01*
X183945218Y-108923109D01*
X183945218Y-108923109D01*
X183945218Y-108923109D01*
X183945217Y-108923109D01*
X183945217Y-108923109D01*
X183945217Y-108923109D01*
X183945217Y-108923109D01*
X183945217Y-108923109D01*
X183945217Y-108923109D01*
X183945217Y-108923108D01*
X183945217Y-108923108D01*
X183945217Y-108923108D01*
X183945217Y-108923108D01*
X183945217Y-108923108D01*
X183945217Y-108923108D01*
X183945218Y-108923108D01*
D11*
X184185502Y-108924124D02*
X183945218Y-108923108D01*
X187244710Y-108924200D02*
X187003841Y-108924200D01*
X187244710Y-109049092D02*
X187244710Y-108924200D01*
X187244710Y-112046298D02*
X186940900Y-112046298D01*
X187244710Y-112046298D02*
X187244710Y-109049092D01*
X184161626Y-112524327D02*
G75*
G02*
X183907626Y-112524327I-127000J0D01*
G01*
X183907626Y-112524327D02*
G75*
G02*
X184161626Y-112524327I127000J0D01*
G01*
%TO.C,C58*%
D13*
X194055000Y-92258748D02*
X194055000Y-92781252D01*
X195525000Y-92258748D02*
X195525000Y-92781252D01*
%TO.C,C27*%
X193955000Y-103271252D02*
X193955000Y-102748748D01*
X195425000Y-103271252D02*
X195425000Y-102748748D01*
%TO.C,Q16*%
D11*
X212109987Y-107842804D02*
X212109987Y-104845598D01*
X212109987Y-107842804D02*
X212362997Y-107842804D01*
X212110521Y-104719614D02*
X212110013Y-104845598D01*
D12*
X212110521Y-104719614D02*
X212110520Y-104719614D01*
X212110520Y-104719614D01*
X212110520Y-104719614D01*
X212110520Y-104719614D01*
X212110520Y-104719614D01*
X212110520Y-104719614D01*
X212110520Y-104719614D01*
X212110520Y-104719613D01*
X212110520Y-104719613D01*
X212110520Y-104719613D01*
X212110520Y-104719613D01*
X212110520Y-104719613D01*
X212110521Y-104719613D01*
X212110521Y-104719613D01*
X212110521Y-104719613D01*
X212110521Y-104719613D01*
X212110521Y-104719613D01*
X212110521Y-104719613D01*
X212110521Y-104719613D01*
X212110521Y-104719613D01*
X212110521Y-104719613D01*
X212110521Y-104719613D01*
X212110521Y-104719613D01*
X212110521Y-104719613D01*
X212110522Y-104719613D01*
X212110522Y-104719613D01*
X212110522Y-104719613D01*
X212110522Y-104719613D01*
X212110522Y-104719613D01*
X212110522Y-104719613D01*
X212110522Y-104719614D01*
X212110522Y-104719614D01*
X212110522Y-104719614D01*
X212110522Y-104719614D01*
X212110522Y-104719614D01*
X212110522Y-104719614D01*
X212110522Y-104719614D01*
X212110521Y-104719614D01*
X212110521Y-104719614D02*
X212110522Y-104719614D01*
X212110522Y-104719614D01*
X212110522Y-104719614D01*
X212110522Y-104719614D01*
X212110522Y-104719614D01*
X212110522Y-104719614D01*
X212110522Y-104719615D01*
X212110522Y-104719615D01*
X212110522Y-104719615D01*
X212110522Y-104719615D01*
X212110522Y-104719615D01*
X212110522Y-104719615D01*
X212110522Y-104719615D01*
X212110521Y-104719615D01*
X212110521Y-104719615D01*
X212110521Y-104719615D01*
X212110521Y-104719615D01*
X212110521Y-104719615D01*
X212110521Y-104719615D01*
X212110521Y-104719615D01*
X212110521Y-104719615D01*
X212110521Y-104719615D01*
X212110521Y-104719615D01*
X212110521Y-104719615D01*
X212110521Y-104719615D01*
X212110520Y-104719615D01*
X212110520Y-104719615D01*
X212110520Y-104719615D01*
X212110520Y-104719615D01*
X212110520Y-104719615D01*
X212110520Y-104719615D01*
X212110520Y-104719614D01*
X212110520Y-104719614D01*
X212110520Y-104719614D01*
X212110520Y-104719614D01*
X212110520Y-104719614D01*
X212110520Y-104719614D01*
X212110521Y-104719614D01*
D11*
X212350805Y-104720630D02*
X212110521Y-104719614D01*
X215410013Y-104720706D02*
X215169144Y-104720706D01*
X215410013Y-104845598D02*
X215410013Y-104720706D01*
X215410013Y-107842804D02*
X215106203Y-107842804D01*
X215410013Y-107842804D02*
X215410013Y-104845598D01*
X212326929Y-108320833D02*
G75*
G02*
X212072929Y-108320833I-127000J0D01*
G01*
X212072929Y-108320833D02*
G75*
G02*
X212326929Y-108320833I127000J0D01*
G01*
%TO.C,C45*%
D13*
X198155000Y-96331252D02*
X198155000Y-95808748D01*
X199625000Y-96331252D02*
X199625000Y-95808748D01*
%TO.C,C55*%
X200245000Y-92278748D02*
X200245000Y-92801252D01*
X201715000Y-92278748D02*
X201715000Y-92801252D01*
%TO.C,Q21*%
D11*
D12*
X208275299Y-99140950D02*
X208275298Y-99140950D01*
X208275298Y-99140950D01*
X208275298Y-99140950D01*
X208275298Y-99140950D01*
X208275298Y-99140950D01*
X208275298Y-99140950D01*
X208275298Y-99140950D01*
X208275298Y-99140949D01*
X208275298Y-99140949D01*
X208275298Y-99140949D01*
X208275298Y-99140949D01*
X208275298Y-99140949D01*
X208275299Y-99140949D01*
X208275299Y-99140949D01*
X208275299Y-99140949D01*
X208275299Y-99140949D01*
X208275299Y-99140949D01*
X208275299Y-99140949D01*
X208275299Y-99140949D01*
X208275299Y-99140949D01*
X208275299Y-99140949D01*
X208275299Y-99140949D01*
X208275299Y-99140949D01*
X208275299Y-99140949D01*
X208275300Y-99140949D01*
X208275300Y-99140949D01*
X208275300Y-99140949D01*
X208275300Y-99140949D01*
X208275300Y-99140949D01*
X208275300Y-99140949D01*
X208275300Y-99140950D01*
X208275300Y-99140950D01*
X208275300Y-99140950D01*
X208275300Y-99140950D01*
X208275300Y-99140950D01*
X208275300Y-99140950D01*
X208275300Y-99140950D01*
X208275299Y-99140950D01*
X208275299Y-99140950D02*
X208275300Y-99140950D01*
X208275300Y-99140950D01*
X208275300Y-99140950D01*
X208275300Y-99140950D01*
X208275300Y-99140950D01*
X208275300Y-99140950D01*
X208275300Y-99140951D01*
X208275300Y-99140951D01*
X208275300Y-99140951D01*
X208275300Y-99140951D01*
X208275300Y-99140951D01*
X208275300Y-99140951D01*
X208275300Y-99140951D01*
X208275299Y-99140951D01*
X208275299Y-99140951D01*
X208275299Y-99140951D01*
X208275299Y-99140951D01*
X208275299Y-99140951D01*
X208275299Y-99140951D01*
X208275299Y-99140951D01*
X208275299Y-99140951D01*
X208275299Y-99140951D01*
X208275299Y-99140951D01*
X208275299Y-99140951D01*
X208275299Y-99140951D01*
X208275298Y-99140951D01*
X208275298Y-99140951D01*
X208275298Y-99140951D01*
X208275298Y-99140951D01*
X208275298Y-99140951D01*
X208275298Y-99140951D01*
X208275298Y-99140950D01*
X208275298Y-99140950D01*
X208275298Y-99140950D01*
X208275298Y-99140950D01*
X208275298Y-99140950D01*
X208275298Y-99140950D01*
X208275299Y-99140950D01*
D11*
X208275299Y-99140950D02*
X208401283Y-99141458D01*
X208276315Y-98900666D02*
X208275299Y-99140950D01*
X208276391Y-95841458D02*
X208276391Y-96082327D01*
X208401283Y-95841458D02*
X208276391Y-95841458D01*
X211398489Y-95841458D02*
X208401283Y-95841458D01*
X211398489Y-95841458D02*
X211398489Y-96145268D01*
X211398489Y-99141484D02*
X208401283Y-99141484D01*
X211398489Y-99141484D02*
X211398489Y-98888474D01*
X212003518Y-99051542D02*
G75*
G02*
X211749518Y-99051542I-127000J0D01*
G01*
X211749518Y-99051542D02*
G75*
G02*
X212003518Y-99051542I127000J0D01*
G01*
D12*
%TO.C,G\u002A\u002A\u002A*%
G36*
X204733632Y-117055283D02*
G01*
X204760030Y-117072491D01*
X204780379Y-117094438D01*
X204794449Y-117119851D01*
X204802011Y-117147453D01*
X204802837Y-117175968D01*
X204796699Y-117204122D01*
X204783368Y-117230637D01*
X204768329Y-117248863D01*
X204755196Y-117260325D01*
X204740859Y-117270428D01*
X204734848Y-117273815D01*
X204731822Y-117275210D01*
X204728367Y-117276444D01*
X204723962Y-117277525D01*
X204718083Y-117278467D01*
X204710209Y-117279280D01*
X204699818Y-117279975D01*
X204686388Y-117280563D01*
X204669396Y-117281056D01*
X204648320Y-117281464D01*
X204622638Y-117281799D01*
X204591828Y-117282072D01*
X204555368Y-117282294D01*
X204512735Y-117282477D01*
X204463408Y-117282631D01*
X204406864Y-117282767D01*
X204342581Y-117282897D01*
X204306397Y-117282965D01*
X204228640Y-117283069D01*
X204159238Y-117283078D01*
X204098015Y-117282990D01*
X204044796Y-117282803D01*
X203999406Y-117282515D01*
X203961671Y-117282126D01*
X203931416Y-117281633D01*
X203908467Y-117281034D01*
X203892647Y-117280330D01*
X203883783Y-117279517D01*
X203882068Y-117279134D01*
X203854426Y-117264849D01*
X203831572Y-117244139D01*
X203814591Y-117218265D01*
X203804772Y-117189486D01*
X203802101Y-117157075D01*
X203807411Y-117126687D01*
X203820222Y-117099296D01*
X203840059Y-117075880D01*
X203866443Y-117057415D01*
X203870393Y-117055398D01*
X203894862Y-117043385D01*
X204302132Y-117043385D01*
X204709402Y-117043385D01*
X204733632Y-117055283D01*
G37*
G36*
X204368884Y-116350735D02*
G01*
X204446051Y-116360707D01*
X204522241Y-116378054D01*
X204596878Y-116402808D01*
X204669385Y-116435000D01*
X204739187Y-116474662D01*
X204805707Y-116521824D01*
X204813885Y-116528347D01*
X204876539Y-116584358D01*
X204932597Y-116645648D01*
X204981834Y-116711824D01*
X205024023Y-116782490D01*
X205058936Y-116857253D01*
X205086348Y-116935718D01*
X205106031Y-117017492D01*
X205110715Y-117044644D01*
X205114386Y-117075991D01*
X205116756Y-117113012D01*
X205117822Y-117153165D01*
X205117580Y-117193906D01*
X205116026Y-117232694D01*
X205113159Y-117266986D01*
X205111036Y-117282904D01*
X205094269Y-117364286D01*
X205070192Y-117442741D01*
X205039128Y-117517538D01*
X205001399Y-117587944D01*
X204957329Y-117653228D01*
X204935345Y-117680943D01*
X204916811Y-117701988D01*
X204894261Y-117725769D01*
X204869551Y-117750480D01*
X204844540Y-117774311D01*
X204821086Y-117795454D01*
X204801047Y-117812100D01*
X204798959Y-117813710D01*
X204737649Y-117855861D01*
X204671068Y-117893155D01*
X204601342Y-117924560D01*
X204530600Y-117949045D01*
X204505335Y-117955957D01*
X204449464Y-117967772D01*
X204390085Y-117976091D01*
X204330212Y-117980644D01*
X204272864Y-117981160D01*
X204242290Y-117979531D01*
X204159224Y-117968754D01*
X204078760Y-117950079D01*
X204001358Y-117923815D01*
X203927480Y-117890272D01*
X203857585Y-117849758D01*
X203792137Y-117802583D01*
X203731594Y-117749056D01*
X203676420Y-117689487D01*
X203627073Y-117624184D01*
X203584017Y-117553458D01*
X203571551Y-117529550D01*
X203538658Y-117454549D01*
X203513726Y-117377235D01*
X203496718Y-117298255D01*
X203487597Y-117218260D01*
X203486874Y-117172565D01*
X203541042Y-117172565D01*
X203545889Y-117251293D01*
X203556026Y-117315502D01*
X203575850Y-117392565D01*
X203603229Y-117466214D01*
X203637726Y-117536011D01*
X203678903Y-117601520D01*
X203726323Y-117662302D01*
X203779549Y-117717923D01*
X203838144Y-117767943D01*
X203901670Y-117811927D01*
X203969689Y-117849438D01*
X204041765Y-117880038D01*
X204117460Y-117903291D01*
X204152217Y-117911167D01*
X204191500Y-117917754D01*
X204238105Y-117923176D01*
X204290888Y-117927300D01*
X204295735Y-117927593D01*
X204303178Y-117927468D01*
X204317120Y-117926756D01*
X204335560Y-117925572D01*
X204356316Y-117924049D01*
X204436432Y-117913702D01*
X204513896Y-117895529D01*
X204588237Y-117869867D01*
X204658983Y-117837050D01*
X204725663Y-117797414D01*
X204787807Y-117751296D01*
X204844943Y-117699030D01*
X204896600Y-117640953D01*
X204942308Y-117577400D01*
X204981594Y-117508707D01*
X205002620Y-117463448D01*
X205030063Y-117388412D01*
X205049332Y-117312012D01*
X205060536Y-117234841D01*
X205063783Y-117157495D01*
X205059181Y-117080567D01*
X205046840Y-117004651D01*
X205026866Y-116930342D01*
X204999369Y-116858233D01*
X204964457Y-116788919D01*
X204922237Y-116722993D01*
X204872819Y-116661050D01*
X204852308Y-116638818D01*
X204793334Y-116583365D01*
X204729910Y-116535014D01*
X204662550Y-116493935D01*
X204591768Y-116460296D01*
X204518081Y-116434269D01*
X204442002Y-116416022D01*
X204364046Y-116405725D01*
X204284729Y-116403549D01*
X204204566Y-116409662D01*
X204172062Y-116414521D01*
X204094732Y-116432012D01*
X204019859Y-116457523D01*
X203948055Y-116490745D01*
X203879935Y-116531371D01*
X203816114Y-116579092D01*
X203779653Y-116611462D01*
X203724662Y-116669240D01*
X203676475Y-116731767D01*
X203635284Y-116798433D01*
X203601283Y-116868630D01*
X203574666Y-116941750D01*
X203555624Y-117017185D01*
X203544352Y-117094326D01*
X203541042Y-117172565D01*
X203486874Y-117172565D01*
X203486326Y-117137900D01*
X203492870Y-117057822D01*
X203507190Y-116978678D01*
X203529251Y-116901116D01*
X203559015Y-116825786D01*
X203596446Y-116753338D01*
X203617452Y-116719275D01*
X203640256Y-116686030D01*
X203664140Y-116655023D01*
X203691017Y-116623923D01*
X203722798Y-116590401D01*
X203725464Y-116587693D01*
X203785501Y-116532701D01*
X203849745Y-116484801D01*
X203917621Y-116444026D01*
X203988553Y-116410406D01*
X204061965Y-116383972D01*
X204137280Y-116364757D01*
X204213922Y-116352792D01*
X204291315Y-116348107D01*
X204368884Y-116350735D01*
G37*
%TO.C,C53*%
D13*
X204435000Y-92338748D02*
X204435000Y-92861252D01*
X205905000Y-92338748D02*
X205905000Y-92861252D01*
%TO.C,C43*%
X194045000Y-96301252D02*
X194045000Y-95778748D01*
X195515000Y-96301252D02*
X195515000Y-95778748D01*
%TO.C,Q24*%
D11*
X212119987Y-111902804D02*
X212119987Y-108905598D01*
X212119987Y-111902804D02*
X212372997Y-111902804D01*
X212120521Y-108779614D02*
X212120013Y-108905598D01*
D12*
X212120521Y-108779614D02*
X212120520Y-108779614D01*
X212120520Y-108779614D01*
X212120520Y-108779614D01*
X212120520Y-108779614D01*
X212120520Y-108779614D01*
X212120520Y-108779614D01*
X212120520Y-108779614D01*
X212120520Y-108779613D01*
X212120520Y-108779613D01*
X212120520Y-108779613D01*
X212120520Y-108779613D01*
X212120520Y-108779613D01*
X212120521Y-108779613D01*
X212120521Y-108779613D01*
X212120521Y-108779613D01*
X212120521Y-108779613D01*
X212120521Y-108779613D01*
X212120521Y-108779613D01*
X212120521Y-108779613D01*
X212120521Y-108779613D01*
X212120521Y-108779613D01*
X212120521Y-108779613D01*
X212120521Y-108779613D01*
X212120521Y-108779613D01*
X212120522Y-108779613D01*
X212120522Y-108779613D01*
X212120522Y-108779613D01*
X212120522Y-108779613D01*
X212120522Y-108779613D01*
X212120522Y-108779613D01*
X212120522Y-108779614D01*
X212120522Y-108779614D01*
X212120522Y-108779614D01*
X212120522Y-108779614D01*
X212120522Y-108779614D01*
X212120522Y-108779614D01*
X212120522Y-108779614D01*
X212120521Y-108779614D01*
X212120521Y-108779614D02*
X212120522Y-108779614D01*
X212120522Y-108779614D01*
X212120522Y-108779614D01*
X212120522Y-108779614D01*
X212120522Y-108779614D01*
X212120522Y-108779614D01*
X212120522Y-108779615D01*
X212120522Y-108779615D01*
X212120522Y-108779615D01*
X212120522Y-108779615D01*
X212120522Y-108779615D01*
X212120522Y-108779615D01*
X212120522Y-108779615D01*
X212120521Y-108779615D01*
X212120521Y-108779615D01*
X212120521Y-108779615D01*
X212120521Y-108779615D01*
X212120521Y-108779615D01*
X212120521Y-108779615D01*
X212120521Y-108779615D01*
X212120521Y-108779615D01*
X212120521Y-108779615D01*
X212120521Y-108779615D01*
X212120521Y-108779615D01*
X212120521Y-108779615D01*
X212120520Y-108779615D01*
X212120520Y-108779615D01*
X212120520Y-108779615D01*
X212120520Y-108779615D01*
X212120520Y-108779615D01*
X212120520Y-108779615D01*
X212120520Y-108779614D01*
X212120520Y-108779614D01*
X212120520Y-108779614D01*
X212120520Y-108779614D01*
X212120520Y-108779614D01*
X212120520Y-108779614D01*
X212120521Y-108779614D01*
D11*
X212360805Y-108780630D02*
X212120521Y-108779614D01*
X215420013Y-108780706D02*
X215179144Y-108780706D01*
X215420013Y-108905598D02*
X215420013Y-108780706D01*
X215420013Y-111902804D02*
X215116203Y-111902804D01*
X215420013Y-111902804D02*
X215420013Y-108905598D01*
X212336929Y-112380833D02*
G75*
G02*
X212082929Y-112380833I-127000J0D01*
G01*
X212082929Y-112380833D02*
G75*
G02*
X212336929Y-112380833I127000J0D01*
G01*
%TO.C,Q13*%
D12*
X208245299Y-94840950D02*
X208245298Y-94840950D01*
X208245298Y-94840950D01*
X208245298Y-94840950D01*
X208245298Y-94840950D01*
X208245298Y-94840950D01*
X208245298Y-94840950D01*
X208245298Y-94840950D01*
X208245298Y-94840949D01*
X208245298Y-94840949D01*
X208245298Y-94840949D01*
X208245298Y-94840949D01*
X208245298Y-94840949D01*
X208245299Y-94840949D01*
X208245299Y-94840949D01*
X208245299Y-94840949D01*
X208245299Y-94840949D01*
X208245299Y-94840949D01*
X208245299Y-94840949D01*
X208245299Y-94840949D01*
X208245299Y-94840949D01*
X208245299Y-94840949D01*
X208245299Y-94840949D01*
X208245299Y-94840949D01*
X208245299Y-94840949D01*
X208245300Y-94840949D01*
X208245300Y-94840949D01*
X208245300Y-94840949D01*
X208245300Y-94840949D01*
X208245300Y-94840949D01*
X208245300Y-94840949D01*
X208245300Y-94840950D01*
X208245300Y-94840950D01*
X208245300Y-94840950D01*
X208245300Y-94840950D01*
X208245300Y-94840950D01*
X208245300Y-94840950D01*
X208245300Y-94840950D01*
X208245299Y-94840950D01*
X208245299Y-94840950D02*
X208245300Y-94840950D01*
X208245300Y-94840950D01*
X208245300Y-94840950D01*
X208245300Y-94840950D01*
X208245300Y-94840950D01*
X208245300Y-94840950D01*
X208245300Y-94840951D01*
X208245300Y-94840951D01*
X208245300Y-94840951D01*
X208245300Y-94840951D01*
X208245300Y-94840951D01*
X208245300Y-94840951D01*
X208245300Y-94840951D01*
X208245299Y-94840951D01*
X208245299Y-94840951D01*
X208245299Y-94840951D01*
X208245299Y-94840951D01*
X208245299Y-94840951D01*
X208245299Y-94840951D01*
X208245299Y-94840951D01*
X208245299Y-94840951D01*
X208245299Y-94840951D01*
X208245299Y-94840951D01*
X208245299Y-94840951D01*
X208245299Y-94840951D01*
X208245298Y-94840951D01*
X208245298Y-94840951D01*
X208245298Y-94840951D01*
X208245298Y-94840951D01*
X208245298Y-94840951D01*
X208245298Y-94840951D01*
X208245298Y-94840950D01*
X208245298Y-94840950D01*
X208245298Y-94840950D01*
X208245298Y-94840950D01*
X208245298Y-94840950D01*
X208245298Y-94840950D01*
X208245299Y-94840950D01*
D11*
X208245299Y-94840950D02*
X208371283Y-94841458D01*
X208246315Y-94600666D02*
X208245299Y-94840950D01*
X208246391Y-91541458D02*
X208246391Y-91782327D01*
X208371283Y-91541458D02*
X208246391Y-91541458D01*
X211368489Y-91541458D02*
X208371283Y-91541458D01*
X211368489Y-91541458D02*
X211368489Y-91845268D01*
X211368489Y-94841484D02*
X208371283Y-94841484D01*
X211368489Y-94841484D02*
X211368489Y-94588474D01*
X211973518Y-94751542D02*
G75*
G02*
X211719518Y-94751542I-127000J0D01*
G01*
X211719518Y-94751542D02*
G75*
G02*
X211973518Y-94751542I127000J0D01*
G01*
%TO.C,C38*%
D13*
X202265000Y-99388748D02*
X202265000Y-99911252D01*
X203735000Y-99388748D02*
X203735000Y-99911252D01*
%TO.C,Q7*%
D11*
X212078516Y-91568489D02*
X212078516Y-88571283D01*
X212078516Y-91568489D02*
X212331526Y-91568489D01*
X212079050Y-88445299D02*
X212078542Y-88571283D01*
D12*
X212079050Y-88445299D02*
X212079049Y-88445299D01*
X212079049Y-88445299D01*
X212079049Y-88445299D01*
X212079049Y-88445299D01*
X212079049Y-88445299D01*
X212079049Y-88445299D01*
X212079049Y-88445299D01*
X212079049Y-88445298D01*
X212079049Y-88445298D01*
X212079049Y-88445298D01*
X212079049Y-88445298D01*
X212079049Y-88445298D01*
X212079050Y-88445298D01*
X212079050Y-88445298D01*
X212079050Y-88445298D01*
X212079050Y-88445298D01*
X212079050Y-88445298D01*
X212079050Y-88445298D01*
X212079050Y-88445298D01*
X212079050Y-88445298D01*
X212079050Y-88445298D01*
X212079050Y-88445298D01*
X212079050Y-88445298D01*
X212079050Y-88445298D01*
X212079051Y-88445298D01*
X212079051Y-88445298D01*
X212079051Y-88445298D01*
X212079051Y-88445298D01*
X212079051Y-88445298D01*
X212079051Y-88445298D01*
X212079051Y-88445299D01*
X212079051Y-88445299D01*
X212079051Y-88445299D01*
X212079051Y-88445299D01*
X212079051Y-88445299D01*
X212079051Y-88445299D01*
X212079051Y-88445299D01*
X212079050Y-88445299D01*
X212079050Y-88445299D02*
X212079051Y-88445299D01*
X212079051Y-88445299D01*
X212079051Y-88445299D01*
X212079051Y-88445299D01*
X212079051Y-88445299D01*
X212079051Y-88445299D01*
X212079051Y-88445300D01*
X212079051Y-88445300D01*
X212079051Y-88445300D01*
X212079051Y-88445300D01*
X212079051Y-88445300D01*
X212079051Y-88445300D01*
X212079051Y-88445300D01*
X212079050Y-88445300D01*
X212079050Y-88445300D01*
X212079050Y-88445300D01*
X212079050Y-88445300D01*
X212079050Y-88445300D01*
X212079050Y-88445300D01*
X212079050Y-88445300D01*
X212079050Y-88445300D01*
X212079050Y-88445300D01*
X212079050Y-88445300D01*
X212079050Y-88445300D01*
X212079050Y-88445300D01*
X212079049Y-88445300D01*
X212079049Y-88445300D01*
X212079049Y-88445300D01*
X212079049Y-88445300D01*
X212079049Y-88445300D01*
X212079049Y-88445300D01*
X212079049Y-88445299D01*
X212079049Y-88445299D01*
X212079049Y-88445299D01*
X212079049Y-88445299D01*
X212079049Y-88445299D01*
X212079049Y-88445299D01*
X212079050Y-88445299D01*
D11*
X212319334Y-88446315D02*
X212079050Y-88445299D01*
X215378542Y-88446391D02*
X215137673Y-88446391D01*
X215378542Y-88571283D02*
X215378542Y-88446391D01*
X215378542Y-91568489D02*
X215074732Y-91568489D01*
X215378542Y-91568489D02*
X215378542Y-88571283D01*
X212295458Y-92046518D02*
G75*
G02*
X212041458Y-92046518I-127000J0D01*
G01*
X212041458Y-92046518D02*
G75*
G02*
X212295458Y-92046518I127000J0D01*
G01*
%TO.C,C39*%
D13*
X200235000Y-99288748D02*
X200235000Y-99811252D01*
X201705000Y-99288748D02*
X201705000Y-99811252D01*
%TO.C,Q1*%
D11*
X188117679Y-87486325D02*
X188117679Y-87739335D01*
X188117679Y-87486325D02*
X191114885Y-87486325D01*
X188117679Y-90786351D02*
X188117679Y-90482541D01*
X188117679Y-90786351D02*
X191114885Y-90786351D01*
X191114885Y-90786351D02*
X191239777Y-90786351D01*
X191239777Y-90786351D02*
X191239777Y-90545482D01*
X191239853Y-87727143D02*
X191240869Y-87486859D01*
X191240869Y-87486859D02*
X191114885Y-87486351D01*
D12*
X191240869Y-87486859D02*
X191240868Y-87486859D01*
X191240868Y-87486859D01*
X191240868Y-87486859D01*
X191240868Y-87486859D01*
X191240868Y-87486859D01*
X191240868Y-87486859D01*
X191240868Y-87486859D01*
X191240868Y-87486858D01*
X191240868Y-87486858D01*
X191240868Y-87486858D01*
X191240868Y-87486858D01*
X191240868Y-87486858D01*
X191240869Y-87486858D01*
X191240869Y-87486858D01*
X191240869Y-87486858D01*
X191240869Y-87486858D01*
X191240869Y-87486858D01*
X191240869Y-87486858D01*
X191240869Y-87486858D01*
X191240869Y-87486858D01*
X191240869Y-87486858D01*
X191240869Y-87486858D01*
X191240869Y-87486858D01*
X191240869Y-87486858D01*
X191240870Y-87486858D01*
X191240870Y-87486858D01*
X191240870Y-87486858D01*
X191240870Y-87486858D01*
X191240870Y-87486858D01*
X191240870Y-87486858D01*
X191240870Y-87486859D01*
X191240870Y-87486859D01*
X191240870Y-87486859D01*
X191240870Y-87486859D01*
X191240870Y-87486859D01*
X191240870Y-87486859D01*
X191240870Y-87486859D01*
X191240869Y-87486859D01*
X191240869Y-87486859D02*
X191240870Y-87486859D01*
X191240870Y-87486859D01*
X191240870Y-87486859D01*
X191240870Y-87486859D01*
X191240870Y-87486859D01*
X191240870Y-87486859D01*
X191240870Y-87486860D01*
X191240870Y-87486860D01*
X191240870Y-87486860D01*
X191240870Y-87486860D01*
X191240870Y-87486860D01*
X191240870Y-87486860D01*
X191240870Y-87486860D01*
X191240869Y-87486860D01*
X191240869Y-87486860D01*
X191240869Y-87486860D01*
X191240869Y-87486860D01*
X191240869Y-87486860D01*
X191240869Y-87486860D01*
X191240869Y-87486860D01*
X191240869Y-87486860D01*
X191240869Y-87486860D01*
X191240869Y-87486860D01*
X191240869Y-87486860D01*
X191240869Y-87486860D01*
X191240868Y-87486860D01*
X191240868Y-87486860D01*
X191240868Y-87486860D01*
X191240868Y-87486860D01*
X191240868Y-87486860D01*
X191240868Y-87486860D01*
X191240868Y-87486859D01*
X191240868Y-87486859D01*
X191240868Y-87486859D01*
X191240868Y-87486859D01*
X191240868Y-87486859D01*
X191240868Y-87486859D01*
X191240869Y-87486859D01*
D11*
X187766650Y-87576267D02*
G75*
G02*
X187512650Y-87576267I-127000J0D01*
G01*
X187512650Y-87576267D02*
G75*
G02*
X187766650Y-87576267I127000J0D01*
G01*
%TO.C,C48*%
D13*
X204405000Y-96351252D02*
X204405000Y-95828748D01*
X205875000Y-96351252D02*
X205875000Y-95828748D01*
%TO.C,C46*%
X200235000Y-96321252D02*
X200235000Y-95798748D01*
X201705000Y-96321252D02*
X201705000Y-95798748D01*
%TO.C,C41*%
X196095000Y-99278748D02*
X196095000Y-99801252D01*
X197565000Y-99278748D02*
X197565000Y-99801252D01*
%TO.C,C34*%
X196045000Y-111381252D02*
X196045000Y-110858748D01*
X197515000Y-111381252D02*
X197515000Y-110858748D01*
%TO.C,C37*%
X204405000Y-99318748D02*
X204405000Y-99841252D01*
X205875000Y-99318748D02*
X205875000Y-99841252D01*
%TO.C,Q18*%
D11*
X183916236Y-99749142D02*
X183916236Y-96751936D01*
X183916236Y-99749142D02*
X184169246Y-99749142D01*
X183916770Y-96625952D02*
X183916262Y-96751936D01*
D12*
X183916770Y-96625952D02*
X183916769Y-96625952D01*
X183916769Y-96625952D01*
X183916769Y-96625952D01*
X183916769Y-96625952D01*
X183916769Y-96625952D01*
X183916769Y-96625952D01*
X183916769Y-96625952D01*
X183916769Y-96625951D01*
X183916769Y-96625951D01*
X183916769Y-96625951D01*
X183916769Y-96625951D01*
X183916769Y-96625951D01*
X183916770Y-96625951D01*
X183916770Y-96625951D01*
X183916770Y-96625951D01*
X183916770Y-96625951D01*
X183916770Y-96625951D01*
X183916770Y-96625951D01*
X183916770Y-96625951D01*
X183916770Y-96625951D01*
X183916770Y-96625951D01*
X183916770Y-96625951D01*
X183916770Y-96625951D01*
X183916770Y-96625951D01*
X183916771Y-96625951D01*
X183916771Y-96625951D01*
X183916771Y-96625951D01*
X183916771Y-96625951D01*
X183916771Y-96625951D01*
X183916771Y-96625951D01*
X183916771Y-96625952D01*
X183916771Y-96625952D01*
X183916771Y-96625952D01*
X183916771Y-96625952D01*
X183916771Y-96625952D01*
X183916771Y-96625952D01*
X183916771Y-96625952D01*
X183916770Y-96625952D01*
X183916770Y-96625952D02*
X183916771Y-96625952D01*
X183916771Y-96625952D01*
X183916771Y-96625952D01*
X183916771Y-96625952D01*
X183916771Y-96625952D01*
X183916771Y-96625952D01*
X183916771Y-96625953D01*
X183916771Y-96625953D01*
X183916771Y-96625953D01*
X183916771Y-96625953D01*
X183916771Y-96625953D01*
X183916771Y-96625953D01*
X183916771Y-96625953D01*
X183916770Y-96625953D01*
X183916770Y-96625953D01*
X183916770Y-96625953D01*
X183916770Y-96625953D01*
X183916770Y-96625953D01*
X183916770Y-96625953D01*
X183916770Y-96625953D01*
X183916770Y-96625953D01*
X183916770Y-96625953D01*
X183916770Y-96625953D01*
X183916770Y-96625953D01*
X183916770Y-96625953D01*
X183916769Y-96625953D01*
X183916769Y-96625953D01*
X183916769Y-96625953D01*
X183916769Y-96625953D01*
X183916769Y-96625953D01*
X183916769Y-96625953D01*
X183916769Y-96625952D01*
X183916769Y-96625952D01*
X183916769Y-96625952D01*
X183916769Y-96625952D01*
X183916769Y-96625952D01*
X183916769Y-96625952D01*
X183916770Y-96625952D01*
D11*
X184157054Y-96626968D02*
X183916770Y-96625952D01*
X187216262Y-96627044D02*
X186975393Y-96627044D01*
X187216262Y-96751936D02*
X187216262Y-96627044D01*
X187216262Y-99749142D02*
X186912452Y-99749142D01*
X187216262Y-99749142D02*
X187216262Y-96751936D01*
X184133178Y-100227171D02*
G75*
G02*
X183879178Y-100227171I-127000J0D01*
G01*
X183879178Y-100227171D02*
G75*
G02*
X184133178Y-100227171I127000J0D01*
G01*
%TO.C,C54*%
D13*
X202355000Y-92328748D02*
X202355000Y-92851252D01*
X203825000Y-92328748D02*
X203825000Y-92851252D01*
%TO.C,Q3*%
D11*
D12*
X208185299Y-90930950D02*
X208185298Y-90930950D01*
X208185298Y-90930950D01*
X208185298Y-90930950D01*
X208185298Y-90930950D01*
X208185298Y-90930950D01*
X208185298Y-90930950D01*
X208185298Y-90930950D01*
X208185298Y-90930949D01*
X208185298Y-90930949D01*
X208185298Y-90930949D01*
X208185298Y-90930949D01*
X208185298Y-90930949D01*
X208185299Y-90930949D01*
X208185299Y-90930949D01*
X208185299Y-90930949D01*
X208185299Y-90930949D01*
X208185299Y-90930949D01*
X208185299Y-90930949D01*
X208185299Y-90930949D01*
X208185299Y-90930949D01*
X208185299Y-90930949D01*
X208185299Y-90930949D01*
X208185299Y-90930949D01*
X208185299Y-90930949D01*
X208185300Y-90930949D01*
X208185300Y-90930949D01*
X208185300Y-90930949D01*
X208185300Y-90930949D01*
X208185300Y-90930949D01*
X208185300Y-90930949D01*
X208185300Y-90930950D01*
X208185300Y-90930950D01*
X208185300Y-90930950D01*
X208185300Y-90930950D01*
X208185300Y-90930950D01*
X208185300Y-90930950D01*
X208185300Y-90930950D01*
X208185299Y-90930950D01*
X208185299Y-90930950D02*
X208185300Y-90930950D01*
X208185300Y-90930950D01*
X208185300Y-90930950D01*
X208185300Y-90930950D01*
X208185300Y-90930950D01*
X208185300Y-90930950D01*
X208185300Y-90930951D01*
X208185300Y-90930951D01*
X208185300Y-90930951D01*
X208185300Y-90930951D01*
X208185300Y-90930951D01*
X208185300Y-90930951D01*
X208185300Y-90930951D01*
X208185299Y-90930951D01*
X208185299Y-90930951D01*
X208185299Y-90930951D01*
X208185299Y-90930951D01*
X208185299Y-90930951D01*
X208185299Y-90930951D01*
X208185299Y-90930951D01*
X208185299Y-90930951D01*
X208185299Y-90930951D01*
X208185299Y-90930951D01*
X208185299Y-90930951D01*
X208185299Y-90930951D01*
X208185298Y-90930951D01*
X208185298Y-90930951D01*
X208185298Y-90930951D01*
X208185298Y-90930951D01*
X208185298Y-90930951D01*
X208185298Y-90930951D01*
X208185298Y-90930950D01*
X208185298Y-90930950D01*
X208185298Y-90930950D01*
X208185298Y-90930950D01*
X208185298Y-90930950D01*
X208185298Y-90930950D01*
X208185299Y-90930950D01*
D11*
X208185299Y-90930950D02*
X208311283Y-90931458D01*
X208186315Y-90690666D02*
X208185299Y-90930950D01*
X208186391Y-87631458D02*
X208186391Y-87872327D01*
X208311283Y-87631458D02*
X208186391Y-87631458D01*
X211308489Y-87631458D02*
X208311283Y-87631458D01*
X211308489Y-87631458D02*
X211308489Y-87935268D01*
X211308489Y-90931484D02*
X208311283Y-90931484D01*
X211308489Y-90931484D02*
X211308489Y-90678474D01*
X211913518Y-90841542D02*
G75*
G02*
X211659518Y-90841542I-127000J0D01*
G01*
X211659518Y-90841542D02*
G75*
G02*
X211913518Y-90841542I127000J0D01*
G01*
%TO.C,Q23*%
D12*
X208356770Y-111365265D02*
X208356769Y-111365265D01*
X208356769Y-111365265D01*
X208356769Y-111365265D01*
X208356769Y-111365265D01*
X208356769Y-111365265D01*
X208356769Y-111365265D01*
X208356769Y-111365265D01*
X208356769Y-111365264D01*
X208356769Y-111365264D01*
X208356769Y-111365264D01*
X208356769Y-111365264D01*
X208356769Y-111365264D01*
X208356770Y-111365264D01*
X208356770Y-111365264D01*
X208356770Y-111365264D01*
X208356770Y-111365264D01*
X208356770Y-111365264D01*
X208356770Y-111365264D01*
X208356770Y-111365264D01*
X208356770Y-111365264D01*
X208356770Y-111365264D01*
X208356770Y-111365264D01*
X208356770Y-111365264D01*
X208356770Y-111365264D01*
X208356771Y-111365264D01*
X208356771Y-111365264D01*
X208356771Y-111365264D01*
X208356771Y-111365264D01*
X208356771Y-111365264D01*
X208356771Y-111365264D01*
X208356771Y-111365265D01*
X208356771Y-111365265D01*
X208356771Y-111365265D01*
X208356771Y-111365265D01*
X208356771Y-111365265D01*
X208356771Y-111365265D01*
X208356771Y-111365265D01*
X208356770Y-111365265D01*
X208356770Y-111365265D02*
X208356771Y-111365265D01*
X208356771Y-111365265D01*
X208356771Y-111365265D01*
X208356771Y-111365265D01*
X208356771Y-111365265D01*
X208356771Y-111365265D01*
X208356771Y-111365266D01*
X208356771Y-111365266D01*
X208356771Y-111365266D01*
X208356771Y-111365266D01*
X208356771Y-111365266D01*
X208356771Y-111365266D01*
X208356771Y-111365266D01*
X208356770Y-111365266D01*
X208356770Y-111365266D01*
X208356770Y-111365266D01*
X208356770Y-111365266D01*
X208356770Y-111365266D01*
X208356770Y-111365266D01*
X208356770Y-111365266D01*
X208356770Y-111365266D01*
X208356770Y-111365266D01*
X208356770Y-111365266D01*
X208356770Y-111365266D01*
X208356770Y-111365266D01*
X208356769Y-111365266D01*
X208356769Y-111365266D01*
X208356769Y-111365266D01*
X208356769Y-111365266D01*
X208356769Y-111365266D01*
X208356769Y-111365266D01*
X208356769Y-111365265D01*
X208356769Y-111365265D01*
X208356769Y-111365265D01*
X208356769Y-111365265D01*
X208356769Y-111365265D01*
X208356769Y-111365265D01*
X208356770Y-111365265D01*
D11*
X208356770Y-111365265D02*
X208482754Y-111365773D01*
X208357786Y-111124981D02*
X208356770Y-111365265D01*
X208357862Y-108065773D02*
X208357862Y-108306642D01*
X208482754Y-108065773D02*
X208357862Y-108065773D01*
X211479960Y-108065773D02*
X208482754Y-108065773D01*
X211479960Y-108065773D02*
X211479960Y-108369583D01*
X211479960Y-111365799D02*
X208482754Y-111365799D01*
X211479960Y-111365799D02*
X211479960Y-111112789D01*
X212084989Y-111275857D02*
G75*
G02*
X211830989Y-111275857I-127000J0D01*
G01*
X211830989Y-111275857D02*
G75*
G02*
X212084989Y-111275857I127000J0D01*
G01*
%TO.C,Q8*%
X212089987Y-103792804D02*
X212089987Y-100795598D01*
X212089987Y-103792804D02*
X212342997Y-103792804D01*
X212090521Y-100669614D02*
X212090013Y-100795598D01*
D12*
X212090521Y-100669614D02*
X212090520Y-100669614D01*
X212090520Y-100669614D01*
X212090520Y-100669614D01*
X212090520Y-100669614D01*
X212090520Y-100669614D01*
X212090520Y-100669614D01*
X212090520Y-100669614D01*
X212090520Y-100669613D01*
X212090520Y-100669613D01*
X212090520Y-100669613D01*
X212090520Y-100669613D01*
X212090520Y-100669613D01*
X212090521Y-100669613D01*
X212090521Y-100669613D01*
X212090521Y-100669613D01*
X212090521Y-100669613D01*
X212090521Y-100669613D01*
X212090521Y-100669613D01*
X212090521Y-100669613D01*
X212090521Y-100669613D01*
X212090521Y-100669613D01*
X212090521Y-100669613D01*
X212090521Y-100669613D01*
X212090521Y-100669613D01*
X212090522Y-100669613D01*
X212090522Y-100669613D01*
X212090522Y-100669613D01*
X212090522Y-100669613D01*
X212090522Y-100669613D01*
X212090522Y-100669613D01*
X212090522Y-100669614D01*
X212090522Y-100669614D01*
X212090522Y-100669614D01*
X212090522Y-100669614D01*
X212090522Y-100669614D01*
X212090522Y-100669614D01*
X212090522Y-100669614D01*
X212090521Y-100669614D01*
X212090521Y-100669614D02*
X212090522Y-100669614D01*
X212090522Y-100669614D01*
X212090522Y-100669614D01*
X212090522Y-100669614D01*
X212090522Y-100669614D01*
X212090522Y-100669614D01*
X212090522Y-100669615D01*
X212090522Y-100669615D01*
X212090522Y-100669615D01*
X212090522Y-100669615D01*
X212090522Y-100669615D01*
X212090522Y-100669615D01*
X212090522Y-100669615D01*
X212090521Y-100669615D01*
X212090521Y-100669615D01*
X212090521Y-100669615D01*
X212090521Y-100669615D01*
X212090521Y-100669615D01*
X212090521Y-100669615D01*
X212090521Y-100669615D01*
X212090521Y-100669615D01*
X212090521Y-100669615D01*
X212090521Y-100669615D01*
X212090521Y-100669615D01*
X212090521Y-100669615D01*
X212090520Y-100669615D01*
X212090520Y-100669615D01*
X212090520Y-100669615D01*
X212090520Y-100669615D01*
X212090520Y-100669615D01*
X212090520Y-100669615D01*
X212090520Y-100669614D01*
X212090520Y-100669614D01*
X212090520Y-100669614D01*
X212090520Y-100669614D01*
X212090520Y-100669614D01*
X212090520Y-100669614D01*
X212090521Y-100669614D01*
D11*
X212330805Y-100670630D02*
X212090521Y-100669614D01*
X215390013Y-100670706D02*
X215149144Y-100670706D01*
X215390013Y-100795598D02*
X215390013Y-100670706D01*
X215390013Y-103792804D02*
X215086203Y-103792804D01*
X215390013Y-103792804D02*
X215390013Y-100795598D01*
X212306929Y-104270833D02*
G75*
G02*
X212052929Y-104270833I-127000J0D01*
G01*
X212052929Y-104270833D02*
G75*
G02*
X212306929Y-104270833I127000J0D01*
G01*
%TO.C,Q11*%
X188367196Y-103989987D02*
X188367196Y-104242997D01*
X188367196Y-103989987D02*
X191364402Y-103989987D01*
X188367196Y-107290013D02*
X188367196Y-106986203D01*
X188367196Y-107290013D02*
X191364402Y-107290013D01*
X191364402Y-107290013D02*
X191489294Y-107290013D01*
X191489294Y-107290013D02*
X191489294Y-107049144D01*
X191489370Y-104230805D02*
X191490386Y-103990521D01*
X191490386Y-103990521D02*
X191364402Y-103990013D01*
D12*
X191490386Y-103990521D02*
X191490385Y-103990521D01*
X191490385Y-103990521D01*
X191490385Y-103990521D01*
X191490385Y-103990521D01*
X191490385Y-103990521D01*
X191490385Y-103990521D01*
X191490385Y-103990521D01*
X191490385Y-103990520D01*
X191490385Y-103990520D01*
X191490385Y-103990520D01*
X191490385Y-103990520D01*
X191490385Y-103990520D01*
X191490386Y-103990520D01*
X191490386Y-103990520D01*
X191490386Y-103990520D01*
X191490386Y-103990520D01*
X191490386Y-103990520D01*
X191490386Y-103990520D01*
X191490386Y-103990520D01*
X191490386Y-103990520D01*
X191490386Y-103990520D01*
X191490386Y-103990520D01*
X191490386Y-103990520D01*
X191490386Y-103990520D01*
X191490387Y-103990520D01*
X191490387Y-103990520D01*
X191490387Y-103990520D01*
X191490387Y-103990520D01*
X191490387Y-103990520D01*
X191490387Y-103990520D01*
X191490387Y-103990521D01*
X191490387Y-103990521D01*
X191490387Y-103990521D01*
X191490387Y-103990521D01*
X191490387Y-103990521D01*
X191490387Y-103990521D01*
X191490387Y-103990521D01*
X191490386Y-103990521D01*
X191490386Y-103990521D02*
X191490387Y-103990521D01*
X191490387Y-103990521D01*
X191490387Y-103990521D01*
X191490387Y-103990521D01*
X191490387Y-103990521D01*
X191490387Y-103990521D01*
X191490387Y-103990522D01*
X191490387Y-103990522D01*
X191490387Y-103990522D01*
X191490387Y-103990522D01*
X191490387Y-103990522D01*
X191490387Y-103990522D01*
X191490387Y-103990522D01*
X191490386Y-103990522D01*
X191490386Y-103990522D01*
X191490386Y-103990522D01*
X191490386Y-103990522D01*
X191490386Y-103990522D01*
X191490386Y-103990522D01*
X191490386Y-103990522D01*
X191490386Y-103990522D01*
X191490386Y-103990522D01*
X191490386Y-103990522D01*
X191490386Y-103990522D01*
X191490386Y-103990522D01*
X191490385Y-103990522D01*
X191490385Y-103990522D01*
X191490385Y-103990522D01*
X191490385Y-103990522D01*
X191490385Y-103990522D01*
X191490385Y-103990522D01*
X191490385Y-103990521D01*
X191490385Y-103990521D01*
X191490385Y-103990521D01*
X191490385Y-103990521D01*
X191490385Y-103990521D01*
X191490385Y-103990521D01*
X191490386Y-103990521D01*
D11*
X188016167Y-104079929D02*
G75*
G02*
X187762167Y-104079929I-127000J0D01*
G01*
X187762167Y-104079929D02*
G75*
G02*
X188016167Y-104079929I127000J0D01*
G01*
%TO.C,C29*%
D13*
X198165000Y-103321252D02*
X198165000Y-102798748D01*
X199635000Y-103321252D02*
X199635000Y-102798748D01*
%TO.C,C28*%
X196005000Y-103281252D02*
X196005000Y-102758748D01*
X197475000Y-103281252D02*
X197475000Y-102758748D01*
%TO.C,C32*%
X204415000Y-103341252D02*
X204415000Y-102818748D01*
X205885000Y-103341252D02*
X205885000Y-102818748D01*
D12*
%TO.C,G\u002A\u002A\u002A*%
G36*
X195327777Y-116598080D02*
G01*
X195356508Y-116609627D01*
X195380985Y-116628171D01*
X195400273Y-116653138D01*
X195404423Y-116660814D01*
X195415396Y-116682832D01*
X195415396Y-116844167D01*
X195415396Y-117005501D01*
X195576737Y-117006806D01*
X195618312Y-117007162D01*
X195652244Y-117007527D01*
X195679436Y-117007951D01*
X195700792Y-117008487D01*
X195717215Y-117009185D01*
X195729611Y-117010096D01*
X195738882Y-117011272D01*
X195745933Y-117012764D01*
X195751667Y-117014623D01*
X195756989Y-117016901D01*
X195757311Y-117017050D01*
X195785914Y-117034060D01*
X195807111Y-117055221D01*
X195821164Y-117080909D01*
X195828333Y-117111497D01*
X195829066Y-117119726D01*
X195828514Y-117149486D01*
X195822135Y-117174614D01*
X195809169Y-117197363D01*
X195798508Y-117210163D01*
X195790211Y-117219133D01*
X195782812Y-117226533D01*
X195775419Y-117232524D01*
X195767142Y-117237270D01*
X195757090Y-117240932D01*
X195744372Y-117243672D01*
X195728098Y-117245653D01*
X195707377Y-117247038D01*
X195681318Y-117247987D01*
X195649031Y-117248664D01*
X195609624Y-117249231D01*
X195582079Y-117249587D01*
X195417533Y-117251724D01*
X195415396Y-117416271D01*
X195414830Y-117459797D01*
X195414273Y-117495675D01*
X195413584Y-117524804D01*
X195412618Y-117548080D01*
X195411234Y-117566402D01*
X195409286Y-117580669D01*
X195406633Y-117591779D01*
X195403132Y-117600629D01*
X195398638Y-117608118D01*
X195393010Y-117615145D01*
X195386104Y-117622607D01*
X195381802Y-117627124D01*
X195360898Y-117645288D01*
X195338301Y-117656528D01*
X195311576Y-117661929D01*
X195302136Y-117662584D01*
X195285346Y-117662777D01*
X195270610Y-117661966D01*
X195261506Y-117660420D01*
X195234468Y-117647408D01*
X195210070Y-117627751D01*
X195190518Y-117603337D01*
X195186143Y-117595776D01*
X195184096Y-117591333D01*
X195182405Y-117585863D01*
X195181021Y-117578498D01*
X195179897Y-117568374D01*
X195178983Y-117554624D01*
X195178230Y-117536383D01*
X195177590Y-117512783D01*
X195177015Y-117482961D01*
X195176454Y-117446049D01*
X195176055Y-117416271D01*
X195173918Y-117251724D01*
X195009372Y-117249587D01*
X194967439Y-117249026D01*
X194933173Y-117248502D01*
X194905691Y-117247959D01*
X194884112Y-117247344D01*
X194867555Y-117246599D01*
X194855139Y-117245670D01*
X194845983Y-117244502D01*
X194839204Y-117243040D01*
X194833922Y-117241227D01*
X194829255Y-117239010D01*
X194827730Y-117238196D01*
X194800716Y-117219063D01*
X194780437Y-117194869D01*
X194767308Y-117166308D01*
X194761745Y-117134077D01*
X194761577Y-117127551D01*
X194765325Y-117095440D01*
X194776625Y-117067215D01*
X194795242Y-117043234D01*
X194820943Y-117023852D01*
X194833923Y-117017109D01*
X194839349Y-117014779D01*
X194845169Y-117012869D01*
X194852293Y-117011322D01*
X194861629Y-117010083D01*
X194874086Y-117009096D01*
X194890574Y-117008303D01*
X194912000Y-117007649D01*
X194939275Y-117007077D01*
X194973306Y-117006531D01*
X195013646Y-117005973D01*
X195173918Y-117003836D01*
X195176055Y-116839289D01*
X195178192Y-116674743D01*
X195189862Y-116654892D01*
X195209719Y-116628889D01*
X195234347Y-116609852D01*
X195263122Y-116598137D01*
X195295420Y-116594104D01*
X195295726Y-116594104D01*
X195327777Y-116598080D01*
G37*
G36*
X195408377Y-116318109D02*
G01*
X195486186Y-116332636D01*
X195562266Y-116354599D01*
X195636017Y-116383901D01*
X195706839Y-116420442D01*
X195774132Y-116464123D01*
X195837293Y-116514847D01*
X195869948Y-116545605D01*
X195923552Y-116603646D01*
X195969646Y-116663726D01*
X196009245Y-116727253D01*
X196030872Y-116768769D01*
X196063360Y-116845021D01*
X196087699Y-116922621D01*
X196104061Y-117001046D01*
X196112619Y-117079772D01*
X196113544Y-117158274D01*
X196107007Y-117236029D01*
X196093182Y-117312511D01*
X196072238Y-117387197D01*
X196044350Y-117459563D01*
X196009687Y-117529085D01*
X195968423Y-117595238D01*
X195920729Y-117657499D01*
X195866777Y-117715342D01*
X195806738Y-117768245D01*
X195740785Y-117815682D01*
X195675073Y-117854025D01*
X195599707Y-117888901D01*
X195522026Y-117915674D01*
X195441325Y-117934575D01*
X195410573Y-117939616D01*
X195389852Y-117941850D01*
X195362878Y-117943615D01*
X195331933Y-117944872D01*
X195299302Y-117945579D01*
X195267268Y-117945696D01*
X195238114Y-117945181D01*
X195214124Y-117943995D01*
X195205973Y-117943269D01*
X195127216Y-117930600D01*
X195049629Y-117909801D01*
X194974042Y-117881283D01*
X194901286Y-117845458D01*
X194832192Y-117802737D01*
X194767591Y-117753532D01*
X194708314Y-117698253D01*
X194705842Y-117695689D01*
X194651493Y-117633030D01*
X194604145Y-117565896D01*
X194563979Y-117494883D01*
X194531172Y-117420587D01*
X194505905Y-117343606D01*
X194488357Y-117264534D01*
X194478706Y-117183968D01*
X194477353Y-117113923D01*
X194532776Y-117113923D01*
X194535331Y-117192241D01*
X194546135Y-117271072D01*
X194548073Y-117280912D01*
X194563425Y-117341655D01*
X194584550Y-117403308D01*
X194610398Y-117463335D01*
X194639920Y-117519203D01*
X194660378Y-117551787D01*
X194708029Y-117615093D01*
X194761593Y-117672962D01*
X194820403Y-117724948D01*
X194883793Y-117770607D01*
X194951096Y-117809495D01*
X195021644Y-117841167D01*
X195094771Y-117865178D01*
X195148985Y-117877536D01*
X195170749Y-117881549D01*
X195188401Y-117884573D01*
X195203703Y-117886728D01*
X195218420Y-117888130D01*
X195234317Y-117888898D01*
X195253157Y-117889149D01*
X195276704Y-117889001D01*
X195306723Y-117888572D01*
X195312821Y-117888476D01*
X195345336Y-117887816D01*
X195371268Y-117886869D01*
X195392580Y-117885462D01*
X195411235Y-117883422D01*
X195429197Y-117880573D01*
X195448429Y-117876743D01*
X195450588Y-117876280D01*
X195529062Y-117855126D01*
X195603941Y-117826453D01*
X195674778Y-117790612D01*
X195741127Y-117747957D01*
X195802543Y-117698838D01*
X195858577Y-117643608D01*
X195908785Y-117582618D01*
X195952720Y-117516222D01*
X195985365Y-117454604D01*
X196015435Y-117381351D01*
X196037575Y-117305912D01*
X196051812Y-117228991D01*
X196058171Y-117151290D01*
X196056677Y-117073513D01*
X196047356Y-116996363D01*
X196030234Y-116920542D01*
X196005335Y-116846754D01*
X195972686Y-116775703D01*
X195959863Y-116752362D01*
X195925307Y-116698272D01*
X195884412Y-116644711D01*
X195839185Y-116594048D01*
X195791635Y-116548649D01*
X195775447Y-116534958D01*
X195712771Y-116489136D01*
X195645941Y-116450429D01*
X195575665Y-116418923D01*
X195502655Y-116394704D01*
X195427622Y-116377858D01*
X195351276Y-116368473D01*
X195274327Y-116366636D01*
X195197487Y-116372431D01*
X195121465Y-116385946D01*
X195046972Y-116407268D01*
X194974719Y-116436483D01*
X194973043Y-116437270D01*
X194902410Y-116475105D01*
X194837101Y-116519260D01*
X194777382Y-116569206D01*
X194723519Y-116624415D01*
X194675778Y-116684360D01*
X194634425Y-116748512D01*
X194599725Y-116816345D01*
X194571944Y-116887330D01*
X194551349Y-116960940D01*
X194538204Y-117036647D01*
X194532776Y-117113923D01*
X194477353Y-117113923D01*
X194477133Y-117102505D01*
X194483816Y-117020741D01*
X194490463Y-116979102D01*
X194509774Y-116898417D01*
X194536845Y-116820881D01*
X194571320Y-116746960D01*
X194612843Y-116677118D01*
X194661058Y-116611822D01*
X194715610Y-116551536D01*
X194776142Y-116496726D01*
X194842298Y-116447857D01*
X194913724Y-116405396D01*
X194938852Y-116392644D01*
X195014422Y-116360479D01*
X195091867Y-116336343D01*
X195170585Y-116320136D01*
X195249976Y-116311761D01*
X195329441Y-116311118D01*
X195408377Y-116318109D01*
G37*
%TO.C,C36*%
D13*
X193982500Y-107368748D02*
X193982500Y-107891252D01*
X195452500Y-107368748D02*
X195452500Y-107891252D01*
%TO.C,Q12*%
D11*
X183934684Y-107956298D02*
X183934684Y-104959092D01*
X183934684Y-107956298D02*
X184187694Y-107956298D01*
X183935218Y-104833108D02*
X183934710Y-104959092D01*
D12*
X183935218Y-104833108D02*
X183935217Y-104833108D01*
X183935217Y-104833108D01*
X183935217Y-104833108D01*
X183935217Y-104833108D01*
X183935217Y-104833108D01*
X183935217Y-104833108D01*
X183935217Y-104833108D01*
X183935217Y-104833107D01*
X183935217Y-104833107D01*
X183935217Y-104833107D01*
X183935217Y-104833107D01*
X183935217Y-104833107D01*
X183935218Y-104833107D01*
X183935218Y-104833107D01*
X183935218Y-104833107D01*
X183935218Y-104833107D01*
X183935218Y-104833107D01*
X183935218Y-104833107D01*
X183935218Y-104833107D01*
X183935218Y-104833107D01*
X183935218Y-104833107D01*
X183935218Y-104833107D01*
X183935218Y-104833107D01*
X183935218Y-104833107D01*
X183935219Y-104833107D01*
X183935219Y-104833107D01*
X183935219Y-104833107D01*
X183935219Y-104833107D01*
X183935219Y-104833107D01*
X183935219Y-104833107D01*
X183935219Y-104833108D01*
X183935219Y-104833108D01*
X183935219Y-104833108D01*
X183935219Y-104833108D01*
X183935219Y-104833108D01*
X183935219Y-104833108D01*
X183935219Y-104833108D01*
X183935218Y-104833108D01*
X183935218Y-104833108D02*
X183935219Y-104833108D01*
X183935219Y-104833108D01*
X183935219Y-104833108D01*
X183935219Y-104833108D01*
X183935219Y-104833108D01*
X183935219Y-104833108D01*
X183935219Y-104833109D01*
X183935219Y-104833109D01*
X183935219Y-104833109D01*
X183935219Y-104833109D01*
X183935219Y-104833109D01*
X183935219Y-104833109D01*
X183935219Y-104833109D01*
X183935218Y-104833109D01*
X183935218Y-104833109D01*
X183935218Y-104833109D01*
X183935218Y-104833109D01*
X183935218Y-104833109D01*
X183935218Y-104833109D01*
X183935218Y-104833109D01*
X183935218Y-104833109D01*
X183935218Y-104833109D01*
X183935218Y-104833109D01*
X183935218Y-104833109D01*
X183935218Y-104833109D01*
X183935217Y-104833109D01*
X183935217Y-104833109D01*
X183935217Y-104833109D01*
X183935217Y-104833109D01*
X183935217Y-104833109D01*
X183935217Y-104833109D01*
X183935217Y-104833108D01*
X183935217Y-104833108D01*
X183935217Y-104833108D01*
X183935217Y-104833108D01*
X183935217Y-104833108D01*
X183935217Y-104833108D01*
X183935218Y-104833108D01*
D11*
X184175502Y-104834124D02*
X183935218Y-104833108D01*
X187234710Y-104834200D02*
X186993841Y-104834200D01*
X187234710Y-104959092D02*
X187234710Y-104834200D01*
X187234710Y-107956298D02*
X186930900Y-107956298D01*
X187234710Y-107956298D02*
X187234710Y-104959092D01*
X184151626Y-108434327D02*
G75*
G02*
X183897626Y-108434327I-127000J0D01*
G01*
X183897626Y-108434327D02*
G75*
G02*
X184151626Y-108434327I127000J0D01*
G01*
%TO.C,Q22*%
X212088516Y-99738489D02*
X212088516Y-96741283D01*
X212088516Y-99738489D02*
X212341526Y-99738489D01*
X212089050Y-96615299D02*
X212088542Y-96741283D01*
D12*
X212089050Y-96615299D02*
X212089049Y-96615299D01*
X212089049Y-96615299D01*
X212089049Y-96615299D01*
X212089049Y-96615299D01*
X212089049Y-96615299D01*
X212089049Y-96615299D01*
X212089049Y-96615299D01*
X212089049Y-96615298D01*
X212089049Y-96615298D01*
X212089049Y-96615298D01*
X212089049Y-96615298D01*
X212089049Y-96615298D01*
X212089050Y-96615298D01*
X212089050Y-96615298D01*
X212089050Y-96615298D01*
X212089050Y-96615298D01*
X212089050Y-96615298D01*
X212089050Y-96615298D01*
X212089050Y-96615298D01*
X212089050Y-96615298D01*
X212089050Y-96615298D01*
X212089050Y-96615298D01*
X212089050Y-96615298D01*
X212089050Y-96615298D01*
X212089051Y-96615298D01*
X212089051Y-96615298D01*
X212089051Y-96615298D01*
X212089051Y-96615298D01*
X212089051Y-96615298D01*
X212089051Y-96615298D01*
X212089051Y-96615299D01*
X212089051Y-96615299D01*
X212089051Y-96615299D01*
X212089051Y-96615299D01*
X212089051Y-96615299D01*
X212089051Y-96615299D01*
X212089051Y-96615299D01*
X212089050Y-96615299D01*
X212089050Y-96615299D02*
X212089051Y-96615299D01*
X212089051Y-96615299D01*
X212089051Y-96615299D01*
X212089051Y-96615299D01*
X212089051Y-96615299D01*
X212089051Y-96615299D01*
X212089051Y-96615300D01*
X212089051Y-96615300D01*
X212089051Y-96615300D01*
X212089051Y-96615300D01*
X212089051Y-96615300D01*
X212089051Y-96615300D01*
X212089051Y-96615300D01*
X212089050Y-96615300D01*
X212089050Y-96615300D01*
X212089050Y-96615300D01*
X212089050Y-96615300D01*
X212089050Y-96615300D01*
X212089050Y-96615300D01*
X212089050Y-96615300D01*
X212089050Y-96615300D01*
X212089050Y-96615300D01*
X212089050Y-96615300D01*
X212089050Y-96615300D01*
X212089050Y-96615300D01*
X212089049Y-96615300D01*
X212089049Y-96615300D01*
X212089049Y-96615300D01*
X212089049Y-96615300D01*
X212089049Y-96615300D01*
X212089049Y-96615300D01*
X212089049Y-96615299D01*
X212089049Y-96615299D01*
X212089049Y-96615299D01*
X212089049Y-96615299D01*
X212089049Y-96615299D01*
X212089049Y-96615299D01*
X212089050Y-96615299D01*
D11*
X212329334Y-96616315D02*
X212089050Y-96615299D01*
X215388542Y-96616391D02*
X215147673Y-96616391D01*
X215388542Y-96741283D02*
X215388542Y-96616391D01*
X215388542Y-99738489D02*
X215084732Y-99738489D01*
X215388542Y-99738489D02*
X215388542Y-96741283D01*
X212305458Y-100216518D02*
G75*
G02*
X212051458Y-100216518I-127000J0D01*
G01*
X212051458Y-100216518D02*
G75*
G02*
X212305458Y-100216518I127000J0D01*
G01*
%TO.C,C50*%
D13*
X202252500Y-107418748D02*
X202252500Y-107941252D01*
X203722500Y-107418748D02*
X203722500Y-107941252D01*
%TO.C,C42*%
X194045000Y-99268748D02*
X194045000Y-99791252D01*
X195515000Y-99268748D02*
X195515000Y-99791252D01*
%TO.C,C49*%
X204332500Y-107428748D02*
X204332500Y-107951252D01*
X205802500Y-107428748D02*
X205802500Y-107951252D01*
%TO.C,C33*%
X193965000Y-111371252D02*
X193965000Y-110848748D01*
X195435000Y-111371252D02*
X195435000Y-110848748D01*
%TO.C,C30*%
X200245000Y-103311252D02*
X200245000Y-102788748D01*
X201715000Y-103311252D02*
X201715000Y-102788748D01*
%TO.C,Q19*%
D11*
X188337196Y-108089987D02*
X188337196Y-108342997D01*
X188337196Y-108089987D02*
X191334402Y-108089987D01*
X188337196Y-111390013D02*
X188337196Y-111086203D01*
X188337196Y-111390013D02*
X191334402Y-111390013D01*
X191334402Y-111390013D02*
X191459294Y-111390013D01*
X191459294Y-111390013D02*
X191459294Y-111149144D01*
X191459370Y-108330805D02*
X191460386Y-108090521D01*
X191460386Y-108090521D02*
X191334402Y-108090013D01*
D12*
X191460386Y-108090521D02*
X191460385Y-108090521D01*
X191460385Y-108090521D01*
X191460385Y-108090521D01*
X191460385Y-108090521D01*
X191460385Y-108090521D01*
X191460385Y-108090521D01*
X191460385Y-108090521D01*
X191460385Y-108090520D01*
X191460385Y-108090520D01*
X191460385Y-108090520D01*
X191460385Y-108090520D01*
X191460385Y-108090520D01*
X191460386Y-108090520D01*
X191460386Y-108090520D01*
X191460386Y-108090520D01*
X191460386Y-108090520D01*
X191460386Y-108090520D01*
X191460386Y-108090520D01*
X191460386Y-108090520D01*
X191460386Y-108090520D01*
X191460386Y-108090520D01*
X191460386Y-108090520D01*
X191460386Y-108090520D01*
X191460386Y-108090520D01*
X191460387Y-108090520D01*
X191460387Y-108090520D01*
X191460387Y-108090520D01*
X191460387Y-108090520D01*
X191460387Y-108090520D01*
X191460387Y-108090520D01*
X191460387Y-108090521D01*
X191460387Y-108090521D01*
X191460387Y-108090521D01*
X191460387Y-108090521D01*
X191460387Y-108090521D01*
X191460387Y-108090521D01*
X191460387Y-108090521D01*
X191460386Y-108090521D01*
X191460386Y-108090521D02*
X191460387Y-108090521D01*
X191460387Y-108090521D01*
X191460387Y-108090521D01*
X191460387Y-108090521D01*
X191460387Y-108090521D01*
X191460387Y-108090521D01*
X191460387Y-108090522D01*
X191460387Y-108090522D01*
X191460387Y-108090522D01*
X191460387Y-108090522D01*
X191460387Y-108090522D01*
X191460387Y-108090522D01*
X191460387Y-108090522D01*
X191460386Y-108090522D01*
X191460386Y-108090522D01*
X191460386Y-108090522D01*
X191460386Y-108090522D01*
X191460386Y-108090522D01*
X191460386Y-108090522D01*
X191460386Y-108090522D01*
X191460386Y-108090522D01*
X191460386Y-108090522D01*
X191460386Y-108090522D01*
X191460386Y-108090522D01*
X191460386Y-108090522D01*
X191460385Y-108090522D01*
X191460385Y-108090522D01*
X191460385Y-108090522D01*
X191460385Y-108090522D01*
X191460385Y-108090522D01*
X191460385Y-108090522D01*
X191460385Y-108090521D01*
X191460385Y-108090521D01*
X191460385Y-108090521D01*
X191460385Y-108090521D01*
X191460385Y-108090521D01*
X191460385Y-108090521D01*
X191460386Y-108090521D01*
D11*
X187986167Y-108179929D02*
G75*
G02*
X187732167Y-108179929I-127000J0D01*
G01*
X187732167Y-108179929D02*
G75*
G02*
X187986167Y-108179929I127000J0D01*
G01*
%TO.C,C57*%
D13*
X196105000Y-92268748D02*
X196105000Y-92791252D01*
X197575000Y-92268748D02*
X197575000Y-92791252D01*
%TO.C,C52*%
X204295000Y-111451252D02*
X204295000Y-110928748D01*
X205765000Y-111451252D02*
X205765000Y-110928748D01*
%TD*%
M02*
