%TF.GenerationSoftware,KiCad,Pcbnew,10.0.1*%
%TF.CreationDate,2026-05-02T20:58:05+05:30*%
%TF.ProjectId,VENDETTAESC,56454e44-4554-4544-9145-53432e6b6963,rev?*%
%TF.SameCoordinates,Original*%
%TF.FileFunction,Profile,NP*%
%FSLAX46Y46*%
G04 Gerber Fmt 4.6, Leading zero omitted, Abs format (unit mm)*
G04 Created by KiCad (PCBNEW 10.0.1) date 2026-05-02 20:58:05*
%MOMM*%
%LPD*%
G01*
G04 APERTURE LIST*
%TA.AperFunction,Profile*%
%ADD10C,0.050000*%
%TD*%
G04 APERTURE END LIST*
%TO.C,U12*%
D10*
X179500000Y-85000000D02*
X179500000Y-88600000D01*
X179500000Y-91400000D02*
X179500000Y-92600000D01*
X179500000Y-95400000D02*
X179500000Y-96600000D01*
X179500000Y-99399998D02*
X179500000Y-100600000D01*
X179500000Y-103400000D02*
X179500000Y-104600000D01*
X179500000Y-107399998D02*
X179500000Y-108600000D01*
X179500000Y-111400000D02*
X179500000Y-115500000D01*
X184500000Y-80000000D02*
X189500000Y-80000000D01*
X189500000Y-80000000D02*
X189500000Y-80500000D01*
X189500000Y-120500000D02*
X184500000Y-120500000D01*
X192000000Y-83000000D02*
X207500000Y-83000000D01*
X193800000Y-123000000D02*
X192000000Y-123000000D01*
X196800000Y-123000000D02*
X198750000Y-123000000D01*
X198750000Y-123000000D02*
X198750000Y-121410000D01*
X200750000Y-123000000D02*
X200750000Y-121410000D01*
X202600000Y-123000000D02*
X200750000Y-123000000D01*
X205600000Y-123000000D02*
X207500000Y-123000000D01*
X210000000Y-80000000D02*
X215000000Y-80000000D01*
X210000000Y-80500000D02*
X210000000Y-80000000D01*
X210000000Y-120500000D02*
X215000000Y-120500000D01*
X219996670Y-91503330D02*
X219996670Y-92496670D01*
X219996670Y-95503330D02*
X219996670Y-96496670D01*
X219996670Y-99503330D02*
X219996670Y-100496670D01*
X219996670Y-103503330D02*
X219996670Y-104496670D01*
X219996670Y-107503330D02*
X219996670Y-108496670D01*
X219996670Y-111503330D02*
X219996670Y-115500000D01*
X220000000Y-85000000D02*
X220000000Y-88496670D01*
X179500000Y-85000000D02*
G75*
G02*
X184500000Y-80000000I5000000J0D01*
G01*
X179500000Y-88600000D02*
G75*
G02*
X179500000Y-91400000I-1400000J-1400000D01*
G01*
X179500000Y-92600000D02*
G75*
G02*
X179500000Y-95400000I-1400000J-1400000D01*
G01*
X179500000Y-96600000D02*
G75*
G02*
X179500000Y-99400000I-1400000J-1400000D01*
G01*
X179500000Y-100600000D02*
G75*
G02*
X179500000Y-103400000I-1400000J-1400000D01*
G01*
X179500000Y-104600000D02*
G75*
G02*
X179500000Y-107400000I-1400000J-1400000D01*
G01*
X179500000Y-108600000D02*
G75*
G02*
X179500000Y-111400000I-1400000J-1400000D01*
G01*
X184500000Y-120500000D02*
G75*
G02*
X179500000Y-115500000I0J5000000D01*
G01*
X189500000Y-120500000D02*
G75*
G02*
X192000000Y-123000000I0J-2500000D01*
G01*
X192000000Y-83000000D02*
G75*
G02*
X189500000Y-80500000I0J2500000D01*
G01*
X193800000Y-123000000D02*
G75*
G02*
X196800000Y-123000000I1500000J0D01*
G01*
X198750000Y-121410000D02*
G75*
G02*
X200750000Y-121410000I1000000J0D01*
G01*
X202600000Y-123000000D02*
G75*
G02*
X205600000Y-123000000I1500000J0D01*
G01*
X207500000Y-123000000D02*
G75*
G02*
X210000000Y-120500000I2500000J0D01*
G01*
X210000000Y-80500000D02*
G75*
G02*
X207500000Y-83000000I-2500000J0D01*
G01*
X215000000Y-80000000D02*
G75*
G02*
X220000000Y-85000000I0J-5000000D01*
G01*
X219996670Y-91503330D02*
G75*
G02*
X219996670Y-88496670I1503330J1503330D01*
G01*
X219996670Y-95503330D02*
G75*
G02*
X219996670Y-92496670I1503330J1503330D01*
G01*
X219996670Y-99503330D02*
G75*
G02*
X219996670Y-96496670I1503330J1503330D01*
G01*
X219996670Y-103503330D02*
G75*
G02*
X219996670Y-100496670I1503330J1503330D01*
G01*
X219996670Y-107503330D02*
G75*
G02*
X219996670Y-104496670I1503330J1503330D01*
G01*
X219996670Y-111503330D02*
G75*
G02*
X219996670Y-108496670I1503330J1503330D01*
G01*
X220000000Y-115500000D02*
G75*
G02*
X215000000Y-120500000I-5000000J0D01*
G01*
%TD*%
M02*
