%TF.GenerationSoftware,KiCad,Pcbnew,10.0.1*%
%TF.CreationDate,2026-05-02T20:58:05+05:30*%
%TF.ProjectId,VENDETTAESC,56454e44-4554-4544-9145-53432e6b6963,rev?*%
%TF.SameCoordinates,Original*%
%TF.FileFunction,Soldermask,Bot*%
%TF.FilePolarity,Negative*%
%FSLAX46Y46*%
G04 Gerber Fmt 4.6, Leading zero omitted, Abs format (unit mm)*
G04 Created by KiCad (PCBNEW 10.0.1) date 2026-05-02 20:58:05*
%MOMM*%
%LPD*%
G01*
G04 APERTURE LIST*
G04 Aperture macros list*
%AMRoundRect*
0 Rectangle with rounded corners*
0 $1 Rounding radius*
0 $2 $3 $4 $5 $6 $7 $8 $9 X,Y pos of 4 corners*
0 Add a 4 corners polygon primitive as box body*
4,1,4,$2,$3,$4,$5,$6,$7,$8,$9,$2,$3,0*
0 Add four circle primitives for the rounded corners*
1,1,$1+$1,$2,$3*
1,1,$1+$1,$4,$5*
1,1,$1+$1,$6,$7*
1,1,$1+$1,$8,$9*
0 Add four rect primitives between the rounded corners*
20,1,$1+$1,$2,$3,$4,$5,0*
20,1,$1+$1,$4,$5,$6,$7,0*
20,1,$1+$1,$6,$7,$8,$9,0*
20,1,$1+$1,$8,$9,$2,$3,0*%
G04 Aperture macros list end*
%ADD10RoundRect,0.270000X-1.230000X0.630000X-1.230000X-0.630000X1.230000X-0.630000X1.230000X0.630000X0*%
%ADD11RoundRect,0.270000X1.230000X-0.630000X1.230000X0.630000X-1.230000X0.630000X-1.230000X-0.630000X0*%
%ADD12C,4.400000*%
%ADD13RoundRect,0.100000X0.130000X0.100000X-0.130000X0.100000X-0.130000X-0.100000X0.130000X-0.100000X0*%
%ADD14RoundRect,0.100000X-0.100000X0.130000X-0.100000X-0.130000X0.100000X-0.130000X0.100000X0.130000X0*%
%ADD15RoundRect,0.225000X-0.250000X0.225000X-0.250000X-0.225000X0.250000X-0.225000X0.250000X0.225000X0*%
%ADD16RoundRect,0.150000X-0.150000X-0.625000X0.150000X-0.625000X0.150000X0.625000X-0.150000X0.625000X0*%
%ADD17RoundRect,0.250000X-0.350000X-0.650000X0.350000X-0.650000X0.350000X0.650000X-0.350000X0.650000X0*%
%ADD18C,1.000000*%
%ADD19RoundRect,0.100000X-0.130000X-0.100000X0.130000X-0.100000X0.130000X0.100000X-0.130000X0.100000X0*%
%ADD20RoundRect,0.140000X0.140000X0.170000X-0.140000X0.170000X-0.140000X-0.170000X0.140000X-0.170000X0*%
%ADD21RoundRect,0.140000X-0.140000X-0.170000X0.140000X-0.170000X0.140000X0.170000X-0.140000X0.170000X0*%
%ADD22RoundRect,0.140000X-0.170000X0.140000X-0.170000X-0.140000X0.170000X-0.140000X0.170000X0.140000X0*%
%ADD23RoundRect,0.100000X0.100000X-0.130000X0.100000X0.130000X-0.100000X0.130000X-0.100000X-0.130000X0*%
%ADD24R,0.711200X0.203200*%
%ADD25R,0.203200X0.711200*%
%ADD26R,2.895600X2.895600*%
%ADD27R,0.280010X0.700000*%
%ADD28R,0.700000X0.280010*%
%ADD29R,2.800000X2.800000*%
%ADD30RoundRect,0.102000X0.625000X0.295000X-0.625000X0.295000X-0.625000X-0.295000X0.625000X-0.295000X0*%
%ADD31RoundRect,0.147500X0.147500X0.172500X-0.147500X0.172500X-0.147500X-0.172500X0.147500X-0.172500X0*%
%ADD32RoundRect,0.087500X0.250000X0.087500X-0.250000X0.087500X-0.250000X-0.087500X0.250000X-0.087500X0*%
%ADD33RoundRect,0.093750X-0.093750X-0.106250X0.093750X-0.106250X0.093750X0.106250X-0.093750X0.106250X0*%
%ADD34R,1.000000X1.600000*%
G04 APERTURE END LIST*
D10*
%TO.C,U12*%
X180500000Y-89500000D03*
D11*
X180500000Y-90500000D03*
D10*
X180500000Y-93500000D03*
D11*
X180500000Y-94500000D03*
D10*
X180500000Y-97500000D03*
D11*
X180500000Y-98500000D03*
D10*
X180500000Y-101500000D03*
D11*
X180500000Y-102500000D03*
D10*
X180500000Y-105500000D03*
D11*
X180500000Y-106500000D03*
D10*
X180500000Y-109500000D03*
D11*
X180500000Y-110500000D03*
D10*
X219000000Y-89500000D03*
D11*
X219000000Y-90500000D03*
D10*
X219000000Y-93500000D03*
D11*
X219000000Y-94500000D03*
D10*
X219000000Y-97500000D03*
D11*
X219000000Y-98500000D03*
D10*
X219000000Y-101500000D03*
D11*
X219000000Y-102500000D03*
D10*
X219000000Y-105500000D03*
D11*
X219000000Y-106500000D03*
D10*
X219000000Y-109500000D03*
D11*
X219000000Y-110500000D03*
X192800000Y-119600000D03*
X206700000Y-119600000D03*
D12*
X184500000Y-85000000D03*
X184500000Y-115500000D03*
X215000000Y-85000000D03*
X215000000Y-115500000D03*
%TD*%
D13*
%TO.C,C14*%
X202515000Y-108890000D03*
X201875000Y-108890000D03*
%TD*%
%TO.C,C68*%
X187070000Y-110230000D03*
X186430000Y-110230000D03*
%TD*%
D14*
%TO.C,R29*%
X195330000Y-99570000D03*
X195330000Y-100210000D03*
%TD*%
D15*
%TO.C,C4*%
X192600000Y-116225000D03*
X192600000Y-117775000D03*
%TD*%
D14*
%TO.C,R74*%
X215280000Y-95765000D03*
X215280000Y-96405000D03*
%TD*%
D16*
%TO.C,J6*%
X196270000Y-88470000D03*
X197270000Y-88470000D03*
X198270000Y-88470000D03*
X199270000Y-88470000D03*
X200270000Y-88470000D03*
X201270000Y-88470000D03*
X202270000Y-88470000D03*
X203270000Y-88470000D03*
D17*
X194970000Y-84595000D03*
X204570000Y-84595000D03*
%TD*%
D13*
%TO.C,R26*%
X197365000Y-111620000D03*
X196725000Y-111620000D03*
%TD*%
D18*
%TO.C,TP4*%
X194220000Y-104510000D03*
%TD*%
D19*
%TO.C,R17*%
X196590000Y-98820000D03*
X197230000Y-98820000D03*
%TD*%
D20*
%TO.C,C62*%
X212934330Y-111910000D03*
X211974330Y-111910000D03*
%TD*%
D21*
%TO.C,C23*%
X188860000Y-90950000D03*
X189820000Y-90950000D03*
%TD*%
D22*
%TO.C,C10*%
X194120000Y-114120000D03*
X194120000Y-115080000D03*
%TD*%
D14*
%TO.C,C71*%
X198000000Y-96580000D03*
X198000000Y-97220000D03*
%TD*%
D19*
%TO.C,C69*%
X212230000Y-94300000D03*
X212870000Y-94300000D03*
%TD*%
D13*
%TO.C,R69*%
X186550000Y-89550000D03*
X185910000Y-89550000D03*
%TD*%
D14*
%TO.C,R42*%
X192141100Y-99588900D03*
X192141100Y-100228900D03*
%TD*%
%TO.C,R68*%
X215810000Y-108400000D03*
X215810000Y-109040000D03*
%TD*%
D23*
%TO.C,R3*%
X198700000Y-118140000D03*
X198700000Y-117500000D03*
%TD*%
D19*
%TO.C,R65*%
X211280000Y-101810000D03*
X211920000Y-101810000D03*
%TD*%
%TO.C,C70*%
X212834330Y-105060000D03*
X213474330Y-105060000D03*
%TD*%
D20*
%TO.C,C25*%
X210380000Y-100750000D03*
X209420000Y-100750000D03*
%TD*%
D23*
%TO.C,R48*%
X207210000Y-92330000D03*
X207210000Y-91690000D03*
%TD*%
D13*
%TO.C,C6*%
X204190000Y-114610000D03*
X203550000Y-114610000D03*
%TD*%
D14*
%TO.C,R30*%
X194550000Y-99570000D03*
X194550000Y-100210000D03*
%TD*%
D24*
%TO.C,U7*%
X203790430Y-108620000D03*
X203790430Y-108220001D03*
X203790430Y-107819999D03*
X203790430Y-107420000D03*
X203790430Y-107020001D03*
X203790430Y-106619999D03*
X203790430Y-106220000D03*
D25*
X204584330Y-105426100D03*
X204984329Y-105426100D03*
X205384331Y-105426100D03*
X205784330Y-105426100D03*
X206184329Y-105426100D03*
X206584331Y-105426100D03*
X206984330Y-105426100D03*
D24*
X207778230Y-106220000D03*
X207778230Y-106619999D03*
X207778230Y-107020001D03*
X207778230Y-107420000D03*
X207778230Y-107819999D03*
X207778230Y-108220001D03*
X207778230Y-108620000D03*
D25*
X206984330Y-109413900D03*
X206584331Y-109413900D03*
X206184329Y-109413900D03*
X205784330Y-109413900D03*
X205384331Y-109413900D03*
X204984329Y-109413900D03*
X204584330Y-109413900D03*
D26*
X205784330Y-107420000D03*
%TD*%
D14*
%TO.C,C2*%
X200090000Y-113310000D03*
X200090000Y-113950000D03*
%TD*%
D19*
%TO.C,FB3*%
X202115000Y-95990000D03*
X202755000Y-95990000D03*
%TD*%
D14*
%TO.C,R38*%
X202440000Y-103160000D03*
X202440000Y-103800000D03*
%TD*%
D24*
%TO.C,U4*%
X195273900Y-94590000D03*
X195273900Y-94989999D03*
X195273900Y-95390001D03*
X195273900Y-95790000D03*
X195273900Y-96189999D03*
X195273900Y-96590001D03*
X195273900Y-96990000D03*
D25*
X194480000Y-97783900D03*
X194080001Y-97783900D03*
X193679999Y-97783900D03*
X193280000Y-97783900D03*
X192880001Y-97783900D03*
X192479999Y-97783900D03*
X192080000Y-97783900D03*
D24*
X191286100Y-96990000D03*
X191286100Y-96590001D03*
X191286100Y-96189999D03*
X191286100Y-95790000D03*
X191286100Y-95390001D03*
X191286100Y-94989999D03*
X191286100Y-94590000D03*
D25*
X192080000Y-93796100D03*
X192479999Y-93796100D03*
X192880001Y-93796100D03*
X193280000Y-93796100D03*
X193679999Y-93796100D03*
X194080001Y-93796100D03*
X194480000Y-93796100D03*
D26*
X193280000Y-95790000D03*
%TD*%
D23*
%TO.C,R43*%
X191341100Y-100228900D03*
X191341100Y-99588900D03*
%TD*%
%TO.C,R41*%
X192941100Y-100228900D03*
X192941100Y-99588900D03*
%TD*%
D27*
%TO.C,U11*%
X211150064Y-106350470D03*
X211649936Y-106350470D03*
X212150064Y-106350470D03*
X212649936Y-106350470D03*
X213150064Y-106350470D03*
X213649936Y-106350470D03*
D28*
X214449530Y-107150064D03*
X214449530Y-107649936D03*
X214449530Y-108150064D03*
X214449530Y-108649936D03*
X214449530Y-109150064D03*
X214449530Y-109649936D03*
D27*
X213649936Y-110449530D03*
X213150064Y-110449530D03*
X212649936Y-110449530D03*
X212150064Y-110449530D03*
X211649936Y-110449530D03*
X211150064Y-110449530D03*
D28*
X210350470Y-109649936D03*
X210350470Y-109150064D03*
X210350470Y-108649936D03*
X210350470Y-108150064D03*
X210350470Y-107649936D03*
X210350470Y-107150064D03*
D29*
X212400000Y-108400000D03*
%TD*%
D13*
%TO.C,R24*%
X202530000Y-105790000D03*
X201890000Y-105790000D03*
%TD*%
D19*
%TO.C,C11*%
X196610000Y-94920000D03*
X197250000Y-94920000D03*
%TD*%
D30*
%TO.C,U2*%
X205500000Y-115870000D03*
X205500000Y-116820000D03*
X205500000Y-117770000D03*
X202990000Y-117770000D03*
X202990000Y-116820000D03*
X202990000Y-115870000D03*
%TD*%
D23*
%TO.C,C73*%
X201300000Y-96020000D03*
X201300000Y-95380000D03*
%TD*%
D19*
%TO.C,R10*%
X196725000Y-107730000D03*
X197365000Y-107730000D03*
%TD*%
D13*
%TO.C,R19*%
X202755000Y-93710000D03*
X202115000Y-93710000D03*
%TD*%
%TO.C,R23*%
X202755000Y-94470000D03*
X202115000Y-94470000D03*
%TD*%
D23*
%TO.C,R70*%
X183970000Y-95610000D03*
X183970000Y-94970000D03*
%TD*%
D19*
%TO.C,C12*%
X196725000Y-106960000D03*
X197365000Y-106960000D03*
%TD*%
%TO.C,FB4*%
X201885000Y-107340000D03*
X202525000Y-107340000D03*
%TD*%
D13*
%TO.C,C13*%
X202760000Y-97520000D03*
X202120000Y-97520000D03*
%TD*%
%TO.C,C17*%
X202755000Y-95230000D03*
X202115000Y-95230000D03*
%TD*%
%TO.C,R61*%
X187990000Y-89540000D03*
X187350000Y-89540000D03*
%TD*%
D31*
%TO.C,L1*%
X204385000Y-113590000D03*
X203415000Y-113590000D03*
%TD*%
D18*
%TO.C,TP3*%
X194550000Y-91510000D03*
%TD*%
D23*
%TO.C,R46*%
X191190000Y-112180000D03*
X191190000Y-111540000D03*
%TD*%
D22*
%TO.C,C9*%
X193124200Y-114120000D03*
X193124200Y-115080000D03*
%TD*%
D24*
%TO.C,U5*%
X195513900Y-106910000D03*
X195513900Y-107309999D03*
X195513900Y-107710001D03*
X195513900Y-108110000D03*
X195513900Y-108509999D03*
X195513900Y-108910001D03*
X195513900Y-109310000D03*
D25*
X194720000Y-110103900D03*
X194320001Y-110103900D03*
X193919999Y-110103900D03*
X193520000Y-110103900D03*
X193120001Y-110103900D03*
X192719999Y-110103900D03*
X192320000Y-110103900D03*
D24*
X191526100Y-109310000D03*
X191526100Y-108910001D03*
X191526100Y-108509999D03*
X191526100Y-108110000D03*
X191526100Y-107710001D03*
X191526100Y-107309999D03*
X191526100Y-106910000D03*
D25*
X192320000Y-106116100D03*
X192719999Y-106116100D03*
X193120001Y-106116100D03*
X193520000Y-106116100D03*
X193919999Y-106116100D03*
X194320001Y-106116100D03*
X194720000Y-106116100D03*
D26*
X193520000Y-108110000D03*
%TD*%
D19*
%TO.C,R6*%
X196735000Y-106180000D03*
X197375000Y-106180000D03*
%TD*%
D24*
%TO.C,U6*%
X204006100Y-97000000D03*
X204006100Y-96600001D03*
X204006100Y-96199999D03*
X204006100Y-95800000D03*
X204006100Y-95400001D03*
X204006100Y-94999999D03*
X204006100Y-94600000D03*
D25*
X204800000Y-93806100D03*
X205199999Y-93806100D03*
X205600001Y-93806100D03*
X206000000Y-93806100D03*
X206399999Y-93806100D03*
X206800001Y-93806100D03*
X207200000Y-93806100D03*
D24*
X207993900Y-94600000D03*
X207993900Y-94999999D03*
X207993900Y-95400001D03*
X207993900Y-95800000D03*
X207993900Y-96199999D03*
X207993900Y-96600001D03*
X207993900Y-97000000D03*
D25*
X207200000Y-97793900D03*
X206800001Y-97793900D03*
X206399999Y-97793900D03*
X206000000Y-97793900D03*
X205600001Y-97793900D03*
X205199999Y-97793900D03*
X204800000Y-97793900D03*
D26*
X206000000Y-95800000D03*
%TD*%
D23*
%TO.C,R2*%
X199270000Y-113960000D03*
X199270000Y-113320000D03*
%TD*%
D21*
%TO.C,C64*%
X185730000Y-103020000D03*
X186690000Y-103020000D03*
%TD*%
D14*
%TO.C,R35*%
X204120000Y-91720000D03*
X204120000Y-92360000D03*
%TD*%
D23*
%TO.C,R62*%
X183980000Y-94150000D03*
X183980000Y-93510000D03*
%TD*%
D14*
%TO.C,R33*%
X194330000Y-111520000D03*
X194330000Y-112160000D03*
%TD*%
D13*
%TO.C,R25*%
X197230000Y-99590000D03*
X196590000Y-99590000D03*
%TD*%
D19*
%TO.C,R18*%
X196725000Y-110840000D03*
X197365000Y-110840000D03*
%TD*%
D13*
%TO.C,R57*%
X185080000Y-89540000D03*
X184440000Y-89540000D03*
%TD*%
D18*
%TO.C,TP6*%
X205544330Y-111170000D03*
%TD*%
D19*
%TO.C,R27*%
X202125000Y-92940000D03*
X202765000Y-92940000D03*
%TD*%
%TO.C,R67*%
X208360000Y-113700000D03*
X209000000Y-113700000D03*
%TD*%
%TO.C,R21*%
X196590000Y-98060000D03*
X197230000Y-98060000D03*
%TD*%
D23*
%TO.C,R4*%
X200800000Y-118140000D03*
X200800000Y-117500000D03*
%TD*%
D19*
%TO.C,R59*%
X214700000Y-101850000D03*
X215340000Y-101850000D03*
%TD*%
D23*
%TO.C,R44*%
X192750000Y-112170000D03*
X192750000Y-111530000D03*
%TD*%
D32*
%TO.C,U1*%
X197022500Y-114160000D03*
X197022500Y-114660000D03*
X197022500Y-115160000D03*
X195597500Y-115160000D03*
X195597500Y-114660000D03*
X195597500Y-114160000D03*
%TD*%
D23*
%TO.C,R39*%
X203220000Y-103785000D03*
X203220000Y-103145000D03*
%TD*%
D13*
%TO.C,FB2*%
X197365000Y-108510000D03*
X196725000Y-108510000D03*
%TD*%
D23*
%TO.C,C21*%
X209430000Y-95190000D03*
X209430000Y-94550000D03*
%TD*%
%TO.C,R51*%
X206944330Y-103760000D03*
X206944330Y-103120000D03*
%TD*%
D14*
%TO.C,C20*%
X190050000Y-108705000D03*
X190050000Y-109345000D03*
%TD*%
%TO.C,R14*%
X192620000Y-102900000D03*
X192620000Y-103540000D03*
%TD*%
D23*
%TO.C,R40*%
X204000000Y-103790000D03*
X204000000Y-103150000D03*
%TD*%
D19*
%TO.C,C15*%
X196590000Y-97280000D03*
X197230000Y-97280000D03*
%TD*%
D13*
%TO.C,C18*%
X202525000Y-106570000D03*
X201885000Y-106570000D03*
%TD*%
D23*
%TO.C,R64*%
X183940000Y-106200000D03*
X183940000Y-105560000D03*
%TD*%
D13*
%TO.C,R63*%
X188605000Y-101600000D03*
X187965000Y-101600000D03*
%TD*%
%TO.C,R8*%
X202505000Y-109670000D03*
X201865000Y-109670000D03*
%TD*%
D14*
%TO.C,C72*%
X198200000Y-108580000D03*
X198200000Y-109220000D03*
%TD*%
D13*
%TO.C,R16*%
X207230000Y-112410000D03*
X206590000Y-112410000D03*
%TD*%
%TO.C,R11*%
X202765000Y-96760000D03*
X202125000Y-96760000D03*
%TD*%
D23*
%TO.C,C74*%
X201100000Y-107320000D03*
X201100000Y-106680000D03*
%TD*%
D14*
%TO.C,C1*%
X198450000Y-113310000D03*
X198450000Y-113950000D03*
%TD*%
D18*
%TO.C,TP10*%
X208594330Y-111170000D03*
%TD*%
D14*
%TO.C,R13*%
X192980000Y-89850000D03*
X192980000Y-90490000D03*
%TD*%
D19*
%TO.C,R75*%
X209835000Y-113690000D03*
X210475000Y-113690000D03*
%TD*%
D21*
%TO.C,C63*%
X185120000Y-90950000D03*
X186080000Y-90950000D03*
%TD*%
%TO.C,C59*%
X186980000Y-90950000D03*
X187940000Y-90950000D03*
%TD*%
D18*
%TO.C,TP8*%
X191170000Y-104510000D03*
%TD*%
D14*
%TO.C,R66*%
X215280000Y-97220000D03*
X215280000Y-97860000D03*
%TD*%
D15*
%TO.C,C5*%
X194150000Y-116225000D03*
X194150000Y-117775000D03*
%TD*%
D13*
%TO.C,R12*%
X202520000Y-108130000D03*
X201880000Y-108130000D03*
%TD*%
D23*
%TO.C,R49*%
X207980000Y-92330000D03*
X207980000Y-91690000D03*
%TD*%
D19*
%TO.C,R56*%
X206885000Y-113710000D03*
X207525000Y-113710000D03*
%TD*%
D21*
%TO.C,C24*%
X189490000Y-103020000D03*
X190450000Y-103020000D03*
%TD*%
D14*
%TO.C,R31*%
X193740000Y-99590000D03*
X193740000Y-100230000D03*
%TD*%
D23*
%TO.C,R72*%
X183940000Y-107650000D03*
X183940000Y-107010000D03*
%TD*%
%TO.C,R15*%
X206910000Y-101290000D03*
X206910000Y-100650000D03*
%TD*%
D13*
%TO.C,R7*%
X202755000Y-98280000D03*
X202115000Y-98280000D03*
%TD*%
D23*
%TO.C,C22*%
X209160000Y-106770000D03*
X209160000Y-106130000D03*
%TD*%
D19*
%TO.C,R22*%
X196725000Y-110070000D03*
X197365000Y-110070000D03*
%TD*%
D21*
%TO.C,C60*%
X187610000Y-103020000D03*
X188570000Y-103020000D03*
%TD*%
D20*
%TO.C,C26*%
X211054330Y-111910000D03*
X210094330Y-111910000D03*
%TD*%
D13*
%TO.C,R71*%
X187135000Y-101600000D03*
X186495000Y-101600000D03*
%TD*%
D19*
%TO.C,R73*%
X213250000Y-101850000D03*
X213890000Y-101850000D03*
%TD*%
D18*
%TO.C,TP7*%
X191500000Y-91510000D03*
%TD*%
D20*
%TO.C,C65*%
X214140000Y-100730000D03*
X213180000Y-100730000D03*
%TD*%
D18*
%TO.C,TP9*%
X208410000Y-99430000D03*
%TD*%
D14*
%TO.C,R47*%
X206440000Y-91700000D03*
X206440000Y-92340000D03*
%TD*%
D20*
%TO.C,C61*%
X212270000Y-100730000D03*
X211310000Y-100730000D03*
%TD*%
D14*
%TO.C,C7*%
X201617500Y-113250000D03*
X201617500Y-113890000D03*
%TD*%
D23*
%TO.C,R52*%
X207714330Y-103760000D03*
X207714330Y-103120000D03*
%TD*%
D27*
%TO.C,U9*%
X188735607Y-108769530D03*
X188235735Y-108769530D03*
X187735607Y-108769530D03*
X187235735Y-108769530D03*
X186735607Y-108769530D03*
X186235735Y-108769530D03*
D28*
X185436141Y-107969936D03*
X185436141Y-107470064D03*
X185436141Y-106969936D03*
X185436141Y-106470064D03*
X185436141Y-105969936D03*
X185436141Y-105470064D03*
D27*
X186235735Y-104670470D03*
X186735607Y-104670470D03*
X187235735Y-104670470D03*
X187735607Y-104670470D03*
X188235735Y-104670470D03*
X188735607Y-104670470D03*
D28*
X189535201Y-105470064D03*
X189535201Y-105969936D03*
X189535201Y-106470064D03*
X189535201Y-106969936D03*
X189535201Y-107470064D03*
X189535201Y-107969936D03*
D29*
X187485671Y-106720000D03*
%TD*%
D13*
%TO.C,R53*%
X189450000Y-89550000D03*
X188810000Y-89550000D03*
%TD*%
D14*
%TO.C,C19*%
X189850000Y-96180000D03*
X189850000Y-96820000D03*
%TD*%
D19*
%TO.C,R55*%
X209820000Y-101820000D03*
X210460000Y-101820000D03*
%TD*%
D27*
%TO.C,U8*%
X188409936Y-96325201D03*
X187910064Y-96325201D03*
X187409936Y-96325201D03*
X186910064Y-96325201D03*
X186409936Y-96325201D03*
X185910064Y-96325201D03*
D28*
X185110470Y-95525607D03*
X185110470Y-95025735D03*
X185110470Y-94525607D03*
X185110470Y-94025735D03*
X185110470Y-93525607D03*
X185110470Y-93025735D03*
D27*
X185910064Y-92226141D03*
X186409936Y-92226141D03*
X186910064Y-92226141D03*
X187409936Y-92226141D03*
X187910064Y-92226141D03*
X188409936Y-92226141D03*
D28*
X189209530Y-93025735D03*
X189209530Y-93525607D03*
X189209530Y-94025735D03*
X189209530Y-94525607D03*
X189209530Y-95025735D03*
X189209530Y-95525607D03*
D29*
X187160000Y-94275671D03*
%TD*%
D23*
%TO.C,R36*%
X204890000Y-92350000D03*
X204890000Y-91710000D03*
%TD*%
%TO.C,C3*%
X207755000Y-117890800D03*
X207755000Y-117250800D03*
%TD*%
D18*
%TO.C,TP5*%
X205360000Y-99430000D03*
%TD*%
D13*
%TO.C,R28*%
X201620000Y-104250000D03*
X200980000Y-104250000D03*
%TD*%
D27*
%TO.C,U10*%
X210815734Y-95040470D03*
X211315606Y-95040470D03*
X211815734Y-95040470D03*
X212315606Y-95040470D03*
X212815734Y-95040470D03*
X213315606Y-95040470D03*
D28*
X214115200Y-95840064D03*
X214115200Y-96339936D03*
X214115200Y-96840064D03*
X214115200Y-97339936D03*
X214115200Y-97840064D03*
X214115200Y-98339936D03*
D27*
X213315606Y-99139530D03*
X212815734Y-99139530D03*
X212315606Y-99139530D03*
X211815734Y-99139530D03*
X211315606Y-99139530D03*
X210815734Y-99139530D03*
D28*
X210016140Y-98339936D03*
X210016140Y-97840064D03*
X210016140Y-97339936D03*
X210016140Y-96840064D03*
X210016140Y-96339936D03*
X210016140Y-95840064D03*
D29*
X212065670Y-97090000D03*
%TD*%
D14*
%TO.C,R34*%
X193540000Y-111520000D03*
X193540000Y-112160000D03*
%TD*%
%TO.C,R76*%
X215830000Y-106970000D03*
X215830000Y-107610000D03*
%TD*%
D13*
%TO.C,C67*%
X186750000Y-97340000D03*
X186110000Y-97340000D03*
%TD*%
D20*
%TO.C,C66*%
X214814330Y-111910000D03*
X213854330Y-111910000D03*
%TD*%
D13*
%TO.C,R58*%
X185500000Y-102000000D03*
X184860000Y-102000000D03*
%TD*%
D14*
%TO.C,R45*%
X191975000Y-111530000D03*
X191975000Y-112170000D03*
%TD*%
D19*
%TO.C,R9*%
X196610000Y-95720000D03*
X197250000Y-95720000D03*
%TD*%
%TO.C,R5*%
X196610000Y-94120000D03*
X197250000Y-94120000D03*
%TD*%
D14*
%TO.C,C8*%
X192214200Y-114250300D03*
X192214200Y-114890300D03*
%TD*%
%TO.C,R32*%
X195120000Y-111530000D03*
X195120000Y-112170000D03*
%TD*%
D19*
%TO.C,C16*%
X196735000Y-109280000D03*
X197375000Y-109280000D03*
%TD*%
D23*
%TO.C,R37*%
X205680000Y-92340000D03*
X205680000Y-91700000D03*
%TD*%
D13*
%TO.C,R54*%
X190075000Y-101610000D03*
X189435000Y-101610000D03*
%TD*%
D33*
%TO.C,U3*%
X189417500Y-117785000D03*
X189417500Y-117135000D03*
X189417500Y-116485000D03*
X191192500Y-116485000D03*
X191192500Y-117135000D03*
X191192500Y-117785000D03*
D34*
X190305000Y-117135000D03*
%TD*%
D14*
%TO.C,R50*%
X206154330Y-103130000D03*
X206154330Y-103770000D03*
%TD*%
D19*
%TO.C,R60*%
X211470000Y-113710000D03*
X212110000Y-113710000D03*
%TD*%
D13*
%TO.C,R20*%
X202530000Y-105030000D03*
X201890000Y-105030000D03*
%TD*%
%TO.C,FB1*%
X197240000Y-96520000D03*
X196600000Y-96520000D03*
%TD*%
M02*
