%TF.GenerationSoftware,KiCad,Pcbnew,10.0.1*%
%TF.CreationDate,2026-05-02T20:58:05+05:30*%
%TF.ProjectId,VENDETTAESC,56454e44-4554-4544-9145-53432e6b6963,rev?*%
%TF.SameCoordinates,Original*%
%TF.FileFunction,Other,User*%
%FSLAX46Y46*%
G04 Gerber Fmt 4.6, Leading zero omitted, Abs format (unit mm)*
G04 Created by KiCad (PCBNEW 10.0.1) date 2026-05-02 20:58:05*
%MOMM*%
%LPD*%
G01*
G04 APERTURE LIST*
%ADD10C,0.050000*%
%ADD11C,0.152400*%
G04 APERTURE END LIST*
%TO.C,C14*%
D10*
X201495000Y-108540000D02*
X202895000Y-108540000D01*
X202895000Y-109240000D01*
X201495000Y-109240000D01*
X201495000Y-108540000D01*
%TO.C,C68*%
X186050000Y-109880000D02*
X187450000Y-109880000D01*
X187450000Y-110580000D01*
X186050000Y-110580000D01*
X186050000Y-109880000D01*
%TO.C,R29*%
X194980000Y-99190000D02*
X195680000Y-99190000D01*
X195680000Y-100590000D01*
X194980000Y-100590000D01*
X194980000Y-99190000D01*
%TO.C,C4*%
X191870000Y-115520000D02*
X193330000Y-115520000D01*
X193330000Y-118480000D01*
X191870000Y-118480000D01*
X191870000Y-115520000D01*
%TO.C,R74*%
X214930000Y-95385000D02*
X215630000Y-95385000D01*
X215630000Y-96785000D01*
X214930000Y-96785000D01*
X214930000Y-95385000D01*
%TO.C,J6*%
X193870000Y-83190000D02*
X193870000Y-86000000D01*
X193870000Y-86000000D02*
X194270000Y-86000000D01*
X194270000Y-86000000D02*
X194270000Y-88650000D01*
X194270000Y-88650000D02*
X195470000Y-88650000D01*
X195470000Y-88650000D02*
X195470000Y-89750000D01*
X195470000Y-89750000D02*
X204070000Y-89750000D01*
X196070000Y-83190000D02*
X193870000Y-83190000D01*
X196070000Y-83390000D02*
X196070000Y-83190000D01*
X203470000Y-83190000D02*
X203470000Y-83390000D01*
X203470000Y-83390000D02*
X196070000Y-83390000D01*
X204070000Y-88650000D02*
X205270000Y-88650000D01*
X204070000Y-89750000D02*
X204070000Y-88650000D01*
X205270000Y-86000000D02*
X205670000Y-86000000D01*
X205270000Y-88650000D02*
X205270000Y-86000000D01*
X205670000Y-83190000D02*
X203470000Y-83190000D01*
X205670000Y-86000000D02*
X205670000Y-83190000D01*
%TO.C,R26*%
X196345000Y-111270000D02*
X197745000Y-111270000D01*
X197745000Y-111970000D01*
X196345000Y-111970000D01*
X196345000Y-111270000D01*
%TO.C,TP4*%
X195220000Y-104510000D02*
G75*
G02*
X193220000Y-104510000I-1000000J0D01*
G01*
X193220000Y-104510000D02*
G75*
G02*
X195220000Y-104510000I1000000J0D01*
G01*
%TO.C,R17*%
X196210000Y-98470000D02*
X197610000Y-98470000D01*
X197610000Y-99170000D01*
X196210000Y-99170000D01*
X196210000Y-98470000D01*
%TO.C,C62*%
X211544330Y-111450000D02*
X213364330Y-111450000D01*
X213364330Y-112370000D01*
X211544330Y-112370000D01*
X211544330Y-111450000D01*
%TO.C,C23*%
X188430000Y-90490000D02*
X190250000Y-90490000D01*
X190250000Y-91410000D01*
X188430000Y-91410000D01*
X188430000Y-90490000D01*
%TO.C,C10*%
X193660000Y-113690000D02*
X194580000Y-113690000D01*
X194580000Y-115510000D01*
X193660000Y-115510000D01*
X193660000Y-113690000D01*
%TO.C,C71*%
X197650000Y-96200000D02*
X198350000Y-96200000D01*
X198350000Y-97600000D01*
X197650000Y-97600000D01*
X197650000Y-96200000D01*
%TO.C,C69*%
X211850000Y-93950000D02*
X213250000Y-93950000D01*
X213250000Y-94650000D01*
X211850000Y-94650000D01*
X211850000Y-93950000D01*
%TO.C,R69*%
X185530000Y-89200000D02*
X186930000Y-89200000D01*
X186930000Y-89900000D01*
X185530000Y-89900000D01*
X185530000Y-89200000D01*
%TO.C,R42*%
X191791100Y-99208900D02*
X192491100Y-99208900D01*
X192491100Y-100608900D01*
X191791100Y-100608900D01*
X191791100Y-99208900D01*
%TO.C,R68*%
X215460000Y-108020000D02*
X216160000Y-108020000D01*
X216160000Y-109420000D01*
X215460000Y-109420000D01*
X215460000Y-108020000D01*
%TO.C,R3*%
X198350000Y-117120000D02*
X199050000Y-117120000D01*
X199050000Y-118520000D01*
X198350000Y-118520000D01*
X198350000Y-117120000D01*
%TO.C,R65*%
X210900000Y-101460000D02*
X212300000Y-101460000D01*
X212300000Y-102160000D01*
X210900000Y-102160000D01*
X210900000Y-101460000D01*
%TO.C,C70*%
X212454330Y-104710000D02*
X213854330Y-104710000D01*
X213854330Y-105410000D01*
X212454330Y-105410000D01*
X212454330Y-104710000D01*
%TO.C,C25*%
X208990000Y-100290000D02*
X210810000Y-100290000D01*
X210810000Y-101210000D01*
X208990000Y-101210000D01*
X208990000Y-100290000D01*
%TO.C,R48*%
X206860000Y-91310000D02*
X207560000Y-91310000D01*
X207560000Y-92710000D01*
X206860000Y-92710000D01*
X206860000Y-91310000D01*
%TO.C,C6*%
X203170000Y-114260000D02*
X204570000Y-114260000D01*
X204570000Y-114960000D01*
X203170000Y-114960000D01*
X203170000Y-114260000D01*
%TO.C,R30*%
X194200000Y-99190000D02*
X194900000Y-99190000D01*
X194900000Y-100590000D01*
X194200000Y-100590000D01*
X194200000Y-99190000D01*
%TO.C,U7*%
D11*
X203180830Y-105864400D02*
X203180830Y-108975600D01*
X203180830Y-108975600D02*
X203485630Y-108975600D01*
X203485630Y-105121300D02*
X203485630Y-105864400D01*
X203485630Y-105864400D02*
X203180830Y-105864400D01*
X203485630Y-108975600D02*
X203485630Y-109718700D01*
X203485630Y-109718700D02*
X204228730Y-109718700D01*
X204228730Y-104816500D02*
X204228730Y-105121300D01*
X204228730Y-105121300D02*
X203485630Y-105121300D01*
X204228730Y-109718700D02*
X204228730Y-110023500D01*
X204228730Y-110023500D02*
X207339930Y-110023500D01*
X207339930Y-104816500D02*
X204228730Y-104816500D01*
X207339930Y-105121300D02*
X207339930Y-104816500D01*
X207339930Y-109718700D02*
X208083030Y-109718700D01*
X207339930Y-110023500D02*
X207339930Y-109718700D01*
X208083030Y-105121300D02*
X207339930Y-105121300D01*
X208083030Y-105864400D02*
X208083030Y-105121300D01*
X208083030Y-108975600D02*
X208387830Y-108975600D01*
X208083030Y-109718700D02*
X208083030Y-108975600D01*
X208387830Y-105864400D02*
X208083030Y-105864400D01*
X208387830Y-108975600D02*
X208387830Y-105864400D01*
%TO.C,C2*%
D10*
X199740000Y-112930000D02*
X200440000Y-112930000D01*
X200440000Y-114330000D01*
X199740000Y-114330000D01*
X199740000Y-112930000D01*
%TO.C,FB3*%
X201735000Y-95640000D02*
X203135000Y-95640000D01*
X203135000Y-96340000D01*
X201735000Y-96340000D01*
X201735000Y-95640000D01*
%TO.C,R38*%
X202090000Y-102780000D02*
X202790000Y-102780000D01*
X202790000Y-104180000D01*
X202090000Y-104180000D01*
X202090000Y-102780000D01*
%TO.C,U4*%
D11*
X190676500Y-94234400D02*
X190676500Y-97345600D01*
X190676500Y-97345600D02*
X190981300Y-97345600D01*
X190981300Y-93491300D02*
X190981300Y-94234400D01*
X190981300Y-94234400D02*
X190676500Y-94234400D01*
X190981300Y-97345600D02*
X190981300Y-98088700D01*
X190981300Y-98088700D02*
X191724400Y-98088700D01*
X191724400Y-93186500D02*
X191724400Y-93491300D01*
X191724400Y-93491300D02*
X190981300Y-93491300D01*
X191724400Y-98088700D02*
X191724400Y-98393500D01*
X191724400Y-98393500D02*
X194835600Y-98393500D01*
X194835600Y-93186500D02*
X191724400Y-93186500D01*
X194835600Y-93491300D02*
X194835600Y-93186500D01*
X194835600Y-98088700D02*
X195578700Y-98088700D01*
X194835600Y-98393500D02*
X194835600Y-98088700D01*
X195578700Y-93491300D02*
X194835600Y-93491300D01*
X195578700Y-94234400D02*
X195578700Y-93491300D01*
X195578700Y-97345600D02*
X195883500Y-97345600D01*
X195578700Y-98088700D02*
X195578700Y-97345600D01*
X195883500Y-94234400D02*
X195578700Y-94234400D01*
X195883500Y-97345600D02*
X195883500Y-94234400D01*
%TO.C,R43*%
D10*
X190991100Y-99208900D02*
X191691100Y-99208900D01*
X191691100Y-100608900D01*
X190991100Y-100608900D01*
X190991100Y-99208900D01*
%TO.C,R41*%
X192591100Y-99208900D02*
X193291100Y-99208900D01*
X193291100Y-100608900D01*
X192591100Y-100608900D01*
X192591100Y-99208900D01*
%TO.C,R24*%
X201510000Y-105440000D02*
X202910000Y-105440000D01*
X202910000Y-106140000D01*
X201510000Y-106140000D01*
X201510000Y-105440000D01*
%TO.C,C11*%
X196230000Y-94570000D02*
X197630000Y-94570000D01*
X197630000Y-95270000D01*
X196230000Y-95270000D01*
X196230000Y-94570000D01*
%TO.C,U2*%
X202115000Y-115120000D02*
X202115000Y-118520000D01*
X202115000Y-118520000D02*
X206375000Y-118520000D01*
X206375000Y-115120000D02*
X202115000Y-115120000D01*
X206375000Y-118520000D02*
X206375000Y-115120000D01*
%TO.C,C73*%
X200950000Y-95000000D02*
X201650000Y-95000000D01*
X201650000Y-96400000D01*
X200950000Y-96400000D01*
X200950000Y-95000000D01*
%TO.C,R10*%
X196345000Y-107380000D02*
X197745000Y-107380000D01*
X197745000Y-108080000D01*
X196345000Y-108080000D01*
X196345000Y-107380000D01*
%TO.C,R19*%
X201735000Y-93360000D02*
X203135000Y-93360000D01*
X203135000Y-94060000D01*
X201735000Y-94060000D01*
X201735000Y-93360000D01*
%TO.C,R23*%
X201735000Y-94120000D02*
X203135000Y-94120000D01*
X203135000Y-94820000D01*
X201735000Y-94820000D01*
X201735000Y-94120000D01*
%TO.C,R70*%
X183620000Y-94590000D02*
X184320000Y-94590000D01*
X184320000Y-95990000D01*
X183620000Y-95990000D01*
X183620000Y-94590000D01*
%TO.C,C12*%
X196345000Y-106610000D02*
X197745000Y-106610000D01*
X197745000Y-107310000D01*
X196345000Y-107310000D01*
X196345000Y-106610000D01*
%TO.C,FB4*%
X201505000Y-106990000D02*
X202905000Y-106990000D01*
X202905000Y-107690000D01*
X201505000Y-107690000D01*
X201505000Y-106990000D01*
%TO.C,C13*%
X201740000Y-97170000D02*
X203140000Y-97170000D01*
X203140000Y-97870000D01*
X201740000Y-97870000D01*
X201740000Y-97170000D01*
%TO.C,C17*%
X201735000Y-94880000D02*
X203135000Y-94880000D01*
X203135000Y-95580000D01*
X201735000Y-95580000D01*
X201735000Y-94880000D01*
%TO.C,R61*%
X186970000Y-89190000D02*
X188370000Y-89190000D01*
X188370000Y-89890000D01*
X186970000Y-89890000D01*
X186970000Y-89190000D01*
%TO.C,L1*%
X202970000Y-113120000D02*
X204830000Y-113120000D01*
X204830000Y-114060000D01*
X202970000Y-114060000D01*
X202970000Y-113120000D01*
%TO.C,TP3*%
X195550000Y-91510000D02*
G75*
G02*
X193550000Y-91510000I-1000000J0D01*
G01*
X193550000Y-91510000D02*
G75*
G02*
X195550000Y-91510000I1000000J0D01*
G01*
%TO.C,R46*%
X190840000Y-111160000D02*
X191540000Y-111160000D01*
X191540000Y-112560000D01*
X190840000Y-112560000D01*
X190840000Y-111160000D01*
%TO.C,C9*%
X192664200Y-113690000D02*
X193584200Y-113690000D01*
X193584200Y-115510000D01*
X192664200Y-115510000D01*
X192664200Y-113690000D01*
%TO.C,U5*%
D11*
X190916500Y-106554400D02*
X190916500Y-109665600D01*
X190916500Y-109665600D02*
X191221300Y-109665600D01*
X191221300Y-105811300D02*
X191221300Y-106554400D01*
X191221300Y-106554400D02*
X190916500Y-106554400D01*
X191221300Y-109665600D02*
X191221300Y-110408700D01*
X191221300Y-110408700D02*
X191964400Y-110408700D01*
X191964400Y-105506500D02*
X191964400Y-105811300D01*
X191964400Y-105811300D02*
X191221300Y-105811300D01*
X191964400Y-110408700D02*
X191964400Y-110713500D01*
X191964400Y-110713500D02*
X195075600Y-110713500D01*
X195075600Y-105506500D02*
X191964400Y-105506500D01*
X195075600Y-105811300D02*
X195075600Y-105506500D01*
X195075600Y-110408700D02*
X195818700Y-110408700D01*
X195075600Y-110713500D02*
X195075600Y-110408700D01*
X195818700Y-105811300D02*
X195075600Y-105811300D01*
X195818700Y-106554400D02*
X195818700Y-105811300D01*
X195818700Y-109665600D02*
X196123500Y-109665600D01*
X195818700Y-110408700D02*
X195818700Y-109665600D01*
X196123500Y-106554400D02*
X195818700Y-106554400D01*
X196123500Y-109665600D02*
X196123500Y-106554400D01*
%TO.C,R6*%
D10*
X196355000Y-105830000D02*
X197755000Y-105830000D01*
X197755000Y-106530000D01*
X196355000Y-106530000D01*
X196355000Y-105830000D01*
%TO.C,U6*%
D11*
X203396500Y-94244400D02*
X203396500Y-97355600D01*
X203396500Y-97355600D02*
X203701300Y-97355600D01*
X203701300Y-93501300D02*
X203701300Y-94244400D01*
X203701300Y-94244400D02*
X203396500Y-94244400D01*
X203701300Y-97355600D02*
X203701300Y-98098700D01*
X203701300Y-98098700D02*
X204444400Y-98098700D01*
X204444400Y-93196500D02*
X204444400Y-93501300D01*
X204444400Y-93501300D02*
X203701300Y-93501300D01*
X204444400Y-98098700D02*
X204444400Y-98403500D01*
X204444400Y-98403500D02*
X207555600Y-98403500D01*
X207555600Y-93196500D02*
X204444400Y-93196500D01*
X207555600Y-93501300D02*
X207555600Y-93196500D01*
X207555600Y-98098700D02*
X208298700Y-98098700D01*
X207555600Y-98403500D02*
X207555600Y-98098700D01*
X208298700Y-93501300D02*
X207555600Y-93501300D01*
X208298700Y-94244400D02*
X208298700Y-93501300D01*
X208298700Y-97355600D02*
X208603500Y-97355600D01*
X208298700Y-98098700D02*
X208298700Y-97355600D01*
X208603500Y-94244400D02*
X208298700Y-94244400D01*
X208603500Y-97355600D02*
X208603500Y-94244400D01*
%TO.C,R2*%
D10*
X198920000Y-112940000D02*
X199620000Y-112940000D01*
X199620000Y-114340000D01*
X198920000Y-114340000D01*
X198920000Y-112940000D01*
%TO.C,C64*%
X185300000Y-102560000D02*
X187120000Y-102560000D01*
X187120000Y-103480000D01*
X185300000Y-103480000D01*
X185300000Y-102560000D01*
%TO.C,R35*%
X203770000Y-91340000D02*
X204470000Y-91340000D01*
X204470000Y-92740000D01*
X203770000Y-92740000D01*
X203770000Y-91340000D01*
%TO.C,R62*%
X183630000Y-93130000D02*
X184330000Y-93130000D01*
X184330000Y-94530000D01*
X183630000Y-94530000D01*
X183630000Y-93130000D01*
%TO.C,R33*%
X193980000Y-111140000D02*
X194680000Y-111140000D01*
X194680000Y-112540000D01*
X193980000Y-112540000D01*
X193980000Y-111140000D01*
%TO.C,R25*%
X196210000Y-99240000D02*
X197610000Y-99240000D01*
X197610000Y-99940000D01*
X196210000Y-99940000D01*
X196210000Y-99240000D01*
%TO.C,R18*%
X196345000Y-110490000D02*
X197745000Y-110490000D01*
X197745000Y-111190000D01*
X196345000Y-111190000D01*
X196345000Y-110490000D01*
%TO.C,R57*%
X184060000Y-89190000D02*
X185460000Y-89190000D01*
X185460000Y-89890000D01*
X184060000Y-89890000D01*
X184060000Y-89190000D01*
%TO.C,TP6*%
X206544330Y-111170000D02*
G75*
G02*
X204544330Y-111170000I-1000000J0D01*
G01*
X204544330Y-111170000D02*
G75*
G02*
X206544330Y-111170000I1000000J0D01*
G01*
%TO.C,R27*%
X201745000Y-92590000D02*
X203145000Y-92590000D01*
X203145000Y-93290000D01*
X201745000Y-93290000D01*
X201745000Y-92590000D01*
%TO.C,R67*%
X207980000Y-113350000D02*
X209380000Y-113350000D01*
X209380000Y-114050000D01*
X207980000Y-114050000D01*
X207980000Y-113350000D01*
%TO.C,R21*%
X196210000Y-97710000D02*
X197610000Y-97710000D01*
X197610000Y-98410000D01*
X196210000Y-98410000D01*
X196210000Y-97710000D01*
%TO.C,R4*%
X200450000Y-117120000D02*
X201150000Y-117120000D01*
X201150000Y-118520000D01*
X200450000Y-118520000D01*
X200450000Y-117120000D01*
%TO.C,R59*%
X214320000Y-101500000D02*
X215720000Y-101500000D01*
X215720000Y-102200000D01*
X214320000Y-102200000D01*
X214320000Y-101500000D01*
%TO.C,R44*%
X192400000Y-111150000D02*
X193100000Y-111150000D01*
X193100000Y-112550000D01*
X192400000Y-112550000D01*
X192400000Y-111150000D01*
%TO.C,U1*%
X195110000Y-113830000D02*
X195110000Y-115490000D01*
X195110000Y-115490000D02*
X195560000Y-115490000D01*
X195560000Y-113710000D02*
X195560000Y-113830000D01*
X195560000Y-113830000D02*
X195110000Y-113830000D01*
X195560000Y-115490000D02*
X195560000Y-115610000D01*
X195560000Y-115610000D02*
X197060000Y-115610000D01*
X197060000Y-113710000D02*
X195560000Y-113710000D01*
X197060000Y-113830000D02*
X197060000Y-113710000D01*
X197060000Y-115490000D02*
X197510000Y-115490000D01*
X197060000Y-115610000D02*
X197060000Y-115490000D01*
X197510000Y-113830000D02*
X197060000Y-113830000D01*
X197510000Y-115490000D02*
X197510000Y-113830000D01*
%TO.C,R39*%
X202870000Y-102765000D02*
X203570000Y-102765000D01*
X203570000Y-104165000D01*
X202870000Y-104165000D01*
X202870000Y-102765000D01*
%TO.C,FB2*%
X196345000Y-108160000D02*
X197745000Y-108160000D01*
X197745000Y-108860000D01*
X196345000Y-108860000D01*
X196345000Y-108160000D01*
%TO.C,C21*%
X209080000Y-94170000D02*
X209780000Y-94170000D01*
X209780000Y-95570000D01*
X209080000Y-95570000D01*
X209080000Y-94170000D01*
%TO.C,R51*%
X206594330Y-102740000D02*
X207294330Y-102740000D01*
X207294330Y-104140000D01*
X206594330Y-104140000D01*
X206594330Y-102740000D01*
%TO.C,C20*%
X189700000Y-108325000D02*
X190400000Y-108325000D01*
X190400000Y-109725000D01*
X189700000Y-109725000D01*
X189700000Y-108325000D01*
%TO.C,R14*%
X192270000Y-102520000D02*
X192970000Y-102520000D01*
X192970000Y-103920000D01*
X192270000Y-103920000D01*
X192270000Y-102520000D01*
%TO.C,R40*%
X203650000Y-102770000D02*
X204350000Y-102770000D01*
X204350000Y-104170000D01*
X203650000Y-104170000D01*
X203650000Y-102770000D01*
%TO.C,C15*%
X196210000Y-96930000D02*
X197610000Y-96930000D01*
X197610000Y-97630000D01*
X196210000Y-97630000D01*
X196210000Y-96930000D01*
%TO.C,C18*%
X201505000Y-106220000D02*
X202905000Y-106220000D01*
X202905000Y-106920000D01*
X201505000Y-106920000D01*
X201505000Y-106220000D01*
%TO.C,R64*%
X183590000Y-105180000D02*
X184290000Y-105180000D01*
X184290000Y-106580000D01*
X183590000Y-106580000D01*
X183590000Y-105180000D01*
%TO.C,R63*%
X187585000Y-101250000D02*
X188985000Y-101250000D01*
X188985000Y-101950000D01*
X187585000Y-101950000D01*
X187585000Y-101250000D01*
%TO.C,R8*%
X201485000Y-109320000D02*
X202885000Y-109320000D01*
X202885000Y-110020000D01*
X201485000Y-110020000D01*
X201485000Y-109320000D01*
%TO.C,C72*%
X197850000Y-108200000D02*
X198550000Y-108200000D01*
X198550000Y-109600000D01*
X197850000Y-109600000D01*
X197850000Y-108200000D01*
%TO.C,R16*%
X206210000Y-112060000D02*
X207610000Y-112060000D01*
X207610000Y-112760000D01*
X206210000Y-112760000D01*
X206210000Y-112060000D01*
%TO.C,R11*%
X201745000Y-96410000D02*
X203145000Y-96410000D01*
X203145000Y-97110000D01*
X201745000Y-97110000D01*
X201745000Y-96410000D01*
%TO.C,C74*%
X200750000Y-106300000D02*
X201450000Y-106300000D01*
X201450000Y-107700000D01*
X200750000Y-107700000D01*
X200750000Y-106300000D01*
%TO.C,C1*%
X198100000Y-112930000D02*
X198800000Y-112930000D01*
X198800000Y-114330000D01*
X198100000Y-114330000D01*
X198100000Y-112930000D01*
%TO.C,TP10*%
X209594330Y-111170000D02*
G75*
G02*
X207594330Y-111170000I-1000000J0D01*
G01*
X207594330Y-111170000D02*
G75*
G02*
X209594330Y-111170000I1000000J0D01*
G01*
%TO.C,R13*%
X192630000Y-89470000D02*
X193330000Y-89470000D01*
X193330000Y-90870000D01*
X192630000Y-90870000D01*
X192630000Y-89470000D01*
%TO.C,R75*%
X209455000Y-113340000D02*
X210855000Y-113340000D01*
X210855000Y-114040000D01*
X209455000Y-114040000D01*
X209455000Y-113340000D01*
%TO.C,C63*%
X184690000Y-90490000D02*
X186510000Y-90490000D01*
X186510000Y-91410000D01*
X184690000Y-91410000D01*
X184690000Y-90490000D01*
%TO.C,C59*%
X186550000Y-90490000D02*
X188370000Y-90490000D01*
X188370000Y-91410000D01*
X186550000Y-91410000D01*
X186550000Y-90490000D01*
%TO.C,TP8*%
X192170000Y-104510000D02*
G75*
G02*
X190170000Y-104510000I-1000000J0D01*
G01*
X190170000Y-104510000D02*
G75*
G02*
X192170000Y-104510000I1000000J0D01*
G01*
%TO.C,R66*%
X214930000Y-96840000D02*
X215630000Y-96840000D01*
X215630000Y-98240000D01*
X214930000Y-98240000D01*
X214930000Y-96840000D01*
%TO.C,C5*%
X193420000Y-115520000D02*
X194880000Y-115520000D01*
X194880000Y-118480000D01*
X193420000Y-118480000D01*
X193420000Y-115520000D01*
%TO.C,R12*%
X201500000Y-107780000D02*
X202900000Y-107780000D01*
X202900000Y-108480000D01*
X201500000Y-108480000D01*
X201500000Y-107780000D01*
%TO.C,R49*%
X207630000Y-91310000D02*
X208330000Y-91310000D01*
X208330000Y-92710000D01*
X207630000Y-92710000D01*
X207630000Y-91310000D01*
%TO.C,R56*%
X206505000Y-113360000D02*
X207905000Y-113360000D01*
X207905000Y-114060000D01*
X206505000Y-114060000D01*
X206505000Y-113360000D01*
%TO.C,C24*%
X189060000Y-102560000D02*
X190880000Y-102560000D01*
X190880000Y-103480000D01*
X189060000Y-103480000D01*
X189060000Y-102560000D01*
%TO.C,R31*%
X193390000Y-99210000D02*
X194090000Y-99210000D01*
X194090000Y-100610000D01*
X193390000Y-100610000D01*
X193390000Y-99210000D01*
%TO.C,R72*%
X183590000Y-106630000D02*
X184290000Y-106630000D01*
X184290000Y-108030000D01*
X183590000Y-108030000D01*
X183590000Y-106630000D01*
%TO.C,R15*%
X206560000Y-100270000D02*
X207260000Y-100270000D01*
X207260000Y-101670000D01*
X206560000Y-101670000D01*
X206560000Y-100270000D01*
%TO.C,R7*%
X201735000Y-97930000D02*
X203135000Y-97930000D01*
X203135000Y-98630000D01*
X201735000Y-98630000D01*
X201735000Y-97930000D01*
%TO.C,C22*%
X208810000Y-105750000D02*
X209510000Y-105750000D01*
X209510000Y-107150000D01*
X208810000Y-107150000D01*
X208810000Y-105750000D01*
%TO.C,R22*%
X196345000Y-109720000D02*
X197745000Y-109720000D01*
X197745000Y-110420000D01*
X196345000Y-110420000D01*
X196345000Y-109720000D01*
%TO.C,C60*%
X187180000Y-102560000D02*
X189000000Y-102560000D01*
X189000000Y-103480000D01*
X187180000Y-103480000D01*
X187180000Y-102560000D01*
%TO.C,C26*%
X209664330Y-111450000D02*
X211484330Y-111450000D01*
X211484330Y-112370000D01*
X209664330Y-112370000D01*
X209664330Y-111450000D01*
%TO.C,R71*%
X186115000Y-101250000D02*
X187515000Y-101250000D01*
X187515000Y-101950000D01*
X186115000Y-101950000D01*
X186115000Y-101250000D01*
%TO.C,R73*%
X212870000Y-101500000D02*
X214270000Y-101500000D01*
X214270000Y-102200000D01*
X212870000Y-102200000D01*
X212870000Y-101500000D01*
%TO.C,TP7*%
X192500000Y-91510000D02*
G75*
G02*
X190500000Y-91510000I-1000000J0D01*
G01*
X190500000Y-91510000D02*
G75*
G02*
X192500000Y-91510000I1000000J0D01*
G01*
%TO.C,C65*%
X212750000Y-100270000D02*
X214570000Y-100270000D01*
X214570000Y-101190000D01*
X212750000Y-101190000D01*
X212750000Y-100270000D01*
%TO.C,TP9*%
X209410000Y-99430000D02*
G75*
G02*
X207410000Y-99430000I-1000000J0D01*
G01*
X207410000Y-99430000D02*
G75*
G02*
X209410000Y-99430000I1000000J0D01*
G01*
%TO.C,R47*%
X206090000Y-91320000D02*
X206790000Y-91320000D01*
X206790000Y-92720000D01*
X206090000Y-92720000D01*
X206090000Y-91320000D01*
%TO.C,C61*%
X210880000Y-100270000D02*
X212700000Y-100270000D01*
X212700000Y-101190000D01*
X210880000Y-101190000D01*
X210880000Y-100270000D01*
%TO.C,C7*%
X201267500Y-112870000D02*
X201967500Y-112870000D01*
X201967500Y-114270000D01*
X201267500Y-114270000D01*
X201267500Y-112870000D01*
%TO.C,R52*%
X207364330Y-102740000D02*
X208064330Y-102740000D01*
X208064330Y-104140000D01*
X207364330Y-104140000D01*
X207364330Y-102740000D01*
%TO.C,R53*%
X188430000Y-89200000D02*
X189830000Y-89200000D01*
X189830000Y-89900000D01*
X188430000Y-89900000D01*
X188430000Y-89200000D01*
%TO.C,C19*%
X189500000Y-95800000D02*
X190200000Y-95800000D01*
X190200000Y-97200000D01*
X189500000Y-97200000D01*
X189500000Y-95800000D01*
%TO.C,R55*%
X209440000Y-101470000D02*
X210840000Y-101470000D01*
X210840000Y-102170000D01*
X209440000Y-102170000D01*
X209440000Y-101470000D01*
%TO.C,R36*%
X204540000Y-91330000D02*
X205240000Y-91330000D01*
X205240000Y-92730000D01*
X204540000Y-92730000D01*
X204540000Y-91330000D01*
%TO.C,C3*%
X207405000Y-116870800D02*
X208105000Y-116870800D01*
X208105000Y-118270800D01*
X207405000Y-118270800D01*
X207405000Y-116870800D01*
%TO.C,TP5*%
X206360000Y-99430000D02*
G75*
G02*
X204360000Y-99430000I-1000000J0D01*
G01*
X204360000Y-99430000D02*
G75*
G02*
X206360000Y-99430000I1000000J0D01*
G01*
%TO.C,R28*%
X200600000Y-103900000D02*
X202000000Y-103900000D01*
X202000000Y-104600000D01*
X200600000Y-104600000D01*
X200600000Y-103900000D01*
%TO.C,R34*%
X193190000Y-111140000D02*
X193890000Y-111140000D01*
X193890000Y-112540000D01*
X193190000Y-112540000D01*
X193190000Y-111140000D01*
%TO.C,R76*%
X215480000Y-106590000D02*
X216180000Y-106590000D01*
X216180000Y-107990000D01*
X215480000Y-107990000D01*
X215480000Y-106590000D01*
%TO.C,C67*%
X185730000Y-96990000D02*
X187130000Y-96990000D01*
X187130000Y-97690000D01*
X185730000Y-97690000D01*
X185730000Y-96990000D01*
%TO.C,C66*%
X213424330Y-111450000D02*
X215244330Y-111450000D01*
X215244330Y-112370000D01*
X213424330Y-112370000D01*
X213424330Y-111450000D01*
%TO.C,R58*%
X184480000Y-101650000D02*
X185880000Y-101650000D01*
X185880000Y-102350000D01*
X184480000Y-102350000D01*
X184480000Y-101650000D01*
%TO.C,R45*%
X191625000Y-111150000D02*
X192325000Y-111150000D01*
X192325000Y-112550000D01*
X191625000Y-112550000D01*
X191625000Y-111150000D01*
%TO.C,R9*%
X196230000Y-95370000D02*
X197630000Y-95370000D01*
X197630000Y-96070000D01*
X196230000Y-96070000D01*
X196230000Y-95370000D01*
%TO.C,R5*%
X196230000Y-93770000D02*
X197630000Y-93770000D01*
X197630000Y-94470000D01*
X196230000Y-94470000D01*
X196230000Y-93770000D01*
%TO.C,C8*%
X191864200Y-113870300D02*
X192564200Y-113870300D01*
X192564200Y-115270300D01*
X191864200Y-115270300D01*
X191864200Y-113870300D01*
%TO.C,R32*%
X194770000Y-111150000D02*
X195470000Y-111150000D01*
X195470000Y-112550000D01*
X194770000Y-112550000D01*
X194770000Y-111150000D01*
%TO.C,C16*%
X196355000Y-108930000D02*
X197755000Y-108930000D01*
X197755000Y-109630000D01*
X196355000Y-109630000D01*
X196355000Y-108930000D01*
%TO.C,R37*%
X205330000Y-91320000D02*
X206030000Y-91320000D01*
X206030000Y-92720000D01*
X205330000Y-92720000D01*
X205330000Y-91320000D01*
%TO.C,R54*%
X189055000Y-101260000D02*
X190455000Y-101260000D01*
X190455000Y-101960000D01*
X189055000Y-101960000D01*
X189055000Y-101260000D01*
%TO.C,U3*%
X188975000Y-116035000D02*
X188975000Y-118235000D01*
X188975000Y-118235000D02*
X189055000Y-118235000D01*
X189055000Y-115885000D02*
X189055000Y-116035000D01*
X189055000Y-116035000D02*
X188975000Y-116035000D01*
X189055000Y-118235000D02*
X189055000Y-118385000D01*
X189055000Y-118385000D02*
X191555000Y-118385000D01*
X191555000Y-115885000D02*
X189055000Y-115885000D01*
X191555000Y-116035000D02*
X191555000Y-115885000D01*
X191555000Y-118235000D02*
X191635000Y-118235000D01*
X191555000Y-118385000D02*
X191555000Y-118235000D01*
X191635000Y-116035000D02*
X191555000Y-116035000D01*
X191635000Y-118235000D02*
X191635000Y-116035000D01*
%TO.C,R50*%
X205804330Y-102750000D02*
X206504330Y-102750000D01*
X206504330Y-104150000D01*
X205804330Y-104150000D01*
X205804330Y-102750000D01*
%TO.C,R60*%
X211090000Y-113360000D02*
X212490000Y-113360000D01*
X212490000Y-114060000D01*
X211090000Y-114060000D01*
X211090000Y-113360000D01*
%TO.C,R20*%
X201510000Y-104680000D02*
X202910000Y-104680000D01*
X202910000Y-105380000D01*
X201510000Y-105380000D01*
X201510000Y-104680000D01*
%TO.C,FB1*%
X196220000Y-96170000D02*
X197620000Y-96170000D01*
X197620000Y-96870000D01*
X196220000Y-96870000D01*
X196220000Y-96170000D01*
%TD*%
M02*
