M48
; DRILL file KiCad 10.0.1 date 2026-05-02T20:58:11
; FORMAT={-:-/ absolute / metric / decimal}
; #@! TF.CreationDate,2026-05-02T20:58:11+05:30
; #@! TF.GenerationSoftware,Kicad,Pcbnew,10.0.1
; #@! TF.FileFunction,Plated,1,6,PTH
FMAT,2
METRIC
; #@! TA.AperFunction,Plated,PTH,ViaDrill
T1C0.150
; #@! TA.AperFunction,Plated,PTH,ViaDrill
T2C0.200
; #@! TA.AperFunction,Plated,PTH,ComponentDrill
T3C0.200
; #@! TA.AperFunction,Plated,PTH,ViaDrill
T4C0.300
; #@! TA.AperFunction,Plated,PTH,ComponentDrill
T5C0.400
; #@! TA.AperFunction,Plated,PTH,ViaDrill
T6C0.450
; #@! TA.AperFunction,Plated,PTH,ComponentDrill
T7C4.000
%
G90
G05
T1
X181.06Y-95.85
X181.25Y-104.05
X181.41Y-96.16
X181.47Y-108.12
X181.48Y-100.03
X181.72Y-95.82
X181.78Y-103.83
X181.85Y-107.75
X181.93Y-104.27
X181.97Y-96.21
X182.0Y-99.79
X182.0Y-108.31
X182.21Y-95.66
X182.29Y-103.61
X182.31Y-100.15
X182.37Y-107.72
X182.38Y-91.93
X182.45Y-104.16
X182.5Y-99.59
X182.5Y-108.24
X182.69Y-91.52
X182.81Y-100.0
X182.95Y-91.96
X183.2Y-91.32
X183.3Y-100.4
X183.48Y-91.83
X183.8Y-112.9
X184.45Y-95.1
X184.45Y-95.4
X184.45Y-95.75
X184.45Y-107.55
X184.45Y-107.85
X184.45Y-108.2
X184.5Y-91.3
X184.5Y-91.6
X184.5Y-91.9
X184.7Y-103.55
X184.7Y-104.15
X184.7Y-112.8
X184.8Y-95.95
X184.8Y-107.45
X184.8Y-107.75
X184.8Y-108.1
X184.85Y-103.85
X185.2Y-95.95
X185.25Y-91.65
X185.532Y-112.968
X185.65Y-103.65
X185.65Y-104.15
X185.85Y-103.9
X185.95Y-91.6
X185.96Y-95.03
X186.08Y-107.52
X186.08Y-107.82
X186.09Y-108.13
X187.3Y-100.1
X187.7Y-107.3
X188.2Y-99.5
X188.24Y-116.1
X188.3Y-86.9
X188.6Y-102.16
X188.6Y-115.71
X188.68Y-103.81
X188.7Y-107.28
X188.8Y-116.18
X188.85Y-90.95
X188.9Y-116.79
X189.0Y-85.9
X189.04Y-92.0
X189.15Y-99.8
X189.15Y-115.76
X189.2Y-108.8
X189.23Y-103.64
X189.26Y-104.93
X189.9Y-85.9
X191.1Y-85.95
X191.2Y-116.5
X191.2Y-117.8
X191.7Y-116.0
X191.75Y-116.9
X191.75Y-117.5
X192.0Y-116.45
X192.15Y-92.6
X192.25Y-112.75
X192.28Y-96.03
X192.35Y-116.0
X192.4Y-116.85
X192.65Y-116.45
X192.85Y-96.66
X192.95Y-116.0
X193.0Y-116.85
X193.3Y-116.45
X193.31Y-87.48
X193.31Y-88.06
X193.55Y-112.8
X193.6Y-116.0
X193.65Y-116.9
X193.84Y-88.45
X193.85Y-87.9
X193.87Y-87.27
X193.95Y-116.45
X194.23Y-88.86
X194.25Y-116.0
X194.28Y-94.87
X194.3Y-116.9
X194.35Y-112.8
X194.38Y-87.64
X194.39Y-88.2
X194.45Y-95.39
X194.55Y-100.3
X194.55Y-107.65
X194.58Y-94.52
X194.65Y-108.6
X194.65Y-116.45
X194.7Y-109.3
X194.8Y-88.71
X194.82Y-89.3
X194.94Y-87.73
X194.95Y-88.24
X195.2Y-115.2
X195.24Y-89.74
X195.25Y-86.85
X195.55Y-88.77
X195.56Y-88.24
X195.6Y-115.2
X195.69Y-87.16
X195.76Y-89.29
X195.8Y-101.25
X195.91Y-89.97
X196.1Y-115.2
X196.14Y-93.62
X196.22Y-88.23
X196.22Y-88.76
X196.33Y-87.21
X196.38Y-101.88
X196.42Y-89.33
X196.43Y-93.19
X196.48Y-89.89
X196.5Y-112.8
X196.66Y-102.34
X196.67Y-85.91
X196.86Y-93.6
X196.9Y-87.35
X196.99Y-101.9
X197.16Y-86.45
X197.17Y-93.19
X197.2Y-85.99
X197.23Y-87.78
X197.27Y-88.33
X197.28Y-88.92
X197.3Y-102.35
X197.57Y-93.59
X197.58Y-101.91
X197.62Y-86.88
X197.7Y-105.5
X197.98Y-99.62
X198.01Y-87.28
X198.05Y-97.8
X198.06Y-87.93
X198.06Y-88.58
X198.08Y-115.04
X198.1Y-89.21
X198.1Y-110.55
X198.28Y-115.5
X198.4Y-87.66
X198.42Y-88.3
X198.43Y-88.93
X198.62Y-115.08
X198.9Y-115.5
X199.21Y-115.09
X199.57Y-114.68
X199.6Y-115.52
X199.86Y-115.08
X200.13Y-114.67
X200.2Y-115.52
X200.33Y-93.29
X200.43Y-115.05
X200.59Y-93.78
X200.98Y-93.29
X201.1Y-100.74
X201.11Y-105.78
X201.12Y-104.99
X201.2Y-97.82
X201.25Y-93.78
X201.33Y-110.96
X201.58Y-100.26
X201.65Y-93.34
X201.65Y-110.58
X201.71Y-110.07
X201.8Y-114.0
X201.87Y-100.72
X202.12Y-111.9
X202.16Y-100.26
X202.34Y-102.11
X202.46Y-112.4
X202.52Y-100.71
X202.8Y-111.9
X202.81Y-100.26
X203.02Y-102.11
X203.09Y-112.38
X203.14Y-100.77
X203.46Y-100.26
X203.46Y-111.89
X203.65Y-102.09
X204.07Y-100.53
X204.09Y-93.29
X204.6Y-90.7
X204.75Y-107.7
X204.83Y-95.18
X204.85Y-108.45
X205.1Y-90.7
X205.13Y-115.38
X205.16Y-115.94
X205.33Y-113.68
X205.39Y-107.69
X205.41Y-114.93
X205.43Y-113.16
X205.49Y-95.15
X205.52Y-115.66
X205.73Y-114.14
X205.84Y-115.31
X205.86Y-113.6
X205.87Y-116.07
X205.93Y-113.07
X206.07Y-95.06
X206.31Y-114.03
X206.37Y-95.65
X206.37Y-113.41
X206.67Y-95.21
X208.48Y-117.26
X209.2Y-117.26
X209.8Y-117.25
X209.99Y-103.19
X210.3Y-99.05
X210.35Y-115.0
X210.42Y-117.25
X210.76Y-102.53
X210.78Y-103.63
X211.0Y-92.2
X211.46Y-112.46
X212.2Y-115.0
X212.2Y-115.7
X212.4Y-116.5
X212.52Y-99.88
X212.71Y-112.74
X212.82Y-103.88
X212.84Y-103.34
X213.38Y-103.91
X213.43Y-103.35
X214.01Y-103.88
X214.02Y-103.31
X214.46Y-109.71
X214.7Y-103.79
X215.55Y-90.95
X215.8Y-99.55
X215.8Y-108.4
X216.0Y-112.1
T2
X182.97Y-97.31
X183.39Y-94.97
X183.43Y-107.24
X183.96Y-111.17
X184.2Y-99.65
X184.27Y-112.06
X184.5Y-100.1
X184.53Y-111.69
X184.55Y-99.3
X184.64Y-109.32
X184.75Y-112.09
X184.85Y-99.7
X184.99Y-111.7
X185.05Y-99.3
X185.1Y-90.65
X185.1Y-100.15
X185.26Y-112.09
X185.35Y-99.7
X185.52Y-111.69
X185.6Y-99.3
X185.65Y-100.15
X185.74Y-103.01
X185.76Y-112.08
X185.9Y-99.75
X186.01Y-111.67
X186.3Y-107.05
X186.4Y-94.7
X186.85Y-94.7
X186.85Y-107.05
X186.88Y-92.37
X186.95Y-98.85
X187.073Y-111.95
X187.12Y-111.36
X187.2Y-95.0
X187.2Y-107.35
X187.24Y-104.66
X187.3Y-94.55
X187.35Y-106.9
X187.4Y-98.5
X187.45Y-99.05
X187.55Y-111.75
X187.7Y-94.95
X187.7Y-117.1
X187.71Y-116.13
X187.95Y-116.6
X187.95Y-117.5
X188.0Y-110.7
X188.05Y-98.6
X188.05Y-115.63
X188.11Y-117.96
X188.15Y-95.0
X188.2Y-107.33
X188.2Y-117.05
X188.45Y-116.6
X188.46Y-117.65
X188.52Y-115.22
X188.67Y-117.24
X188.93Y-117.69
X189.07Y-115.22
X189.21Y-109.3
X189.21Y-109.72
X189.51Y-115.39
X189.57Y-99.39
X189.63Y-96.04
X190.05Y-116.6
X190.05Y-117.05
X190.05Y-117.5
X190.14Y-96.03
X190.3Y-111.59
X190.55Y-116.6
X190.55Y-117.05
X190.55Y-117.5
X192.14Y-114.96
X192.39Y-101.67
X192.4Y-118.0
X192.45Y-101.08
X192.6Y-117.55
X192.66Y-115.0
X192.95Y-118.0
X193.1Y-115.1
X193.25Y-117.55
X193.6Y-115.2
X193.6Y-118.0
X193.9Y-117.55
X194.11Y-115.12
X194.58Y-102.31
X194.74Y-100.76
X194.87Y-86.39
X195.22Y-102.34
X195.4Y-93.62
X195.64Y-93.17
X195.87Y-102.33
X196.0Y-100.53
X197.25Y-96.1
X197.27Y-100.67
X197.365Y-107.735
X197.93Y-100.66
X198.0Y-102.36
X198.09Y-101.85
X198.384Y-113.98
X198.57Y-110.29
X198.58Y-100.25
X198.6Y-110.82
X200.42Y-94.85
X200.44Y-95.35
X200.51Y-101.81
X200.51Y-110.26
X200.52Y-102.36
X200.53Y-110.84
X201.04Y-110.52
X201.06Y-100.26
X201.14Y-102.37
X201.16Y-101.8
X201.43Y-94.84
X201.51Y-95.35
X201.9Y-108.15
X202.08Y-113.45
X202.1Y-96.0
X202.1Y-113.0
X202.11Y-92.42
X202.17Y-110.25
X202.22Y-110.87
X202.56Y-113.59
X202.6Y-113.09
X203.03Y-113.66
X203.06Y-113.21
X203.19Y-110.12
X203.27Y-110.55
X203.5Y-113.77
X203.53Y-113.36
X203.74Y-110.04
X203.91Y-110.46
X204.1Y-93.79
X204.24Y-101.9
X204.69Y-103.12
X205.22Y-94.58
X206.91Y-101.29
X207.3Y-111.6
X207.39Y-90.91
X207.81Y-115.01
X208.92Y-106.92
X208.96Y-115.01
X209.23Y-95.19
X209.37Y-106.73
X209.75Y-95.2
X210.36Y-100.27
X210.45Y-105.55
X210.46Y-106.6
X210.52Y-91.72
X211.01Y-100.14
X211.01Y-103.158
X211.08Y-114.95
X211.18Y-88.3
X211.21Y-90.24
X211.3Y-95.8
X211.65Y-96.0
X212.0Y-95.75
X212.04Y-91.59
X212.12Y-103.5
X212.12Y-104.43
X212.14Y-103.98
X212.149Y-98.491
X212.18Y-94.27
X212.2Y-96.45
X212.2Y-109.15
X212.21Y-100.56
X212.25Y-108.3
X212.25Y-108.75
X212.26Y-95.11
X212.27Y-94.66
X212.3Y-96.05
X212.3Y-114.4
X212.4Y-91.03
X212.65Y-95.8
X212.67Y-91.48
X212.93Y-90.99
X212.95Y-91.82
X213.0Y-96.0
X213.2Y-91.46
X213.28Y-99.89
X213.28Y-99.89
X213.35Y-95.75
X213.46Y-90.98
X213.54Y-91.81
X213.76Y-91.43
X213.78Y-99.23
X213.85Y-92.92
X213.9Y-111.28
X214.12Y-98.37
X214.14Y-99.96
X214.15Y-99.52
X215.28Y-95.77
X215.41Y-103.61
X215.52Y-95.06
X216.05Y-103.64
T3
X192.7Y-84.3
X194.7Y-84.3
X196.7Y-84.3
X198.7Y-84.3
X200.7Y-84.3
X202.7Y-84.3
X204.7Y-84.3
X206.7Y-84.3
T4
X186.55Y-99.4
X188.9Y-96.05
X194.02Y-89.87
X195.0Y-120.0
X195.0Y-121.0
X195.5Y-120.5
X196.0Y-120.0
X196.0Y-121.0
X196.5Y-120.5
X197.0Y-120.0
X197.0Y-121.0
X197.5Y-120.5
X197.5Y-121.5
X198.0Y-120.0
X198.0Y-121.0
X198.0Y-122.0
X198.3Y-95.09
X199.78Y-90.42
X200.6Y-86.4
X200.9Y-95.09
X200.965Y-90.495
X201.5Y-120.0
X201.5Y-121.0
X201.5Y-122.0
X202.0Y-120.5
X202.0Y-121.5
X202.5Y-86.5
X202.5Y-120.0
X202.5Y-121.0
X202.54Y-90.5
X202.6Y-110.6
X203.0Y-120.5
X203.5Y-120.0
X203.5Y-121.0
X204.0Y-120.5
X204.5Y-86.5
X204.5Y-120.0
X204.5Y-121.0
X205.73Y-88.47
X206.5Y-86.5
X211.85Y-107.85
X212.05Y-107.35
X212.45Y-107.85
X212.65Y-107.35
X213.05Y-107.95
X213.2Y-107.4
T5
X180.5Y-89.0
X180.5Y-91.0
X180.5Y-93.0
X180.5Y-95.0
X180.5Y-97.0
X180.5Y-99.0
X180.5Y-101.0
X180.5Y-103.0
X180.5Y-105.0
X180.5Y-107.0
X180.5Y-109.0
X180.5Y-111.0
X192.8Y-120.1
X206.7Y-120.1
X219.0Y-89.0
X219.0Y-91.0
X219.0Y-93.0
X219.0Y-95.0
X219.0Y-97.0
X219.0Y-99.0
X219.0Y-101.0
X219.0Y-103.0
X219.0Y-105.0
X219.0Y-107.0
X219.0Y-109.0
X219.0Y-111.0
T6
X180.8Y-85.8
X181.1Y-84.2
X181.1Y-114.4
X181.1Y-116.2
X181.7Y-82.7
X182.1Y-118.1
X183.7Y-81.7
X184.2Y-119.2
X186.4Y-81.7
X186.7Y-119.1
X213.2Y-118.9
X214.2Y-81.6
X215.5Y-119.0
X216.2Y-81.8
X217.5Y-118.2
X217.7Y-82.6
X218.3Y-84.0
X218.3Y-85.2
X218.3Y-114.4
X218.4Y-116.6
T7
X184.5Y-85.0
X184.5Y-115.5
X215.0Y-85.0
X215.0Y-115.5
M30
