%TF.GenerationSoftware,KiCad,Pcbnew,10.0.1*%
%TF.CreationDate,2026-05-02T20:58:05+05:30*%
%TF.ProjectId,VENDETTAESC,56454e44-4554-4544-9145-53432e6b6963,rev?*%
%TF.SameCoordinates,Original*%
%TF.FileFunction,Other,User*%
%FSLAX46Y46*%
G04 Gerber Fmt 4.6, Leading zero omitted, Abs format (unit mm)*
G04 Created by KiCad (PCBNEW 10.0.1) date 2026-05-02 20:58:05*
%MOMM*%
%LPD*%
G01*
G04 APERTURE LIST*
%ADD10C,0.050000*%
G04 APERTURE END LIST*
%TO.C,C31*%
D10*
X202090000Y-101370000D02*
X204050000Y-101370000D01*
X204050000Y-104770000D01*
X202090000Y-104770000D01*
X202090000Y-101370000D01*
%TO.C,D1*%
X196255000Y-114937500D02*
X196255000Y-119062500D01*
X196255000Y-119062500D02*
X203365000Y-119062500D01*
X203365000Y-114937500D02*
X196255000Y-114937500D01*
X203365000Y-119062500D02*
X203365000Y-114937500D01*
%TO.C,C35*%
X195817500Y-105940000D02*
X197777500Y-105940000D01*
X197777500Y-109340000D01*
X195817500Y-109340000D01*
X195817500Y-105940000D01*
%TO.C,C40*%
X197910000Y-97860000D02*
X199870000Y-97860000D01*
X199870000Y-101260000D01*
X197910000Y-101260000D01*
X197910000Y-97860000D01*
%TO.C,C51*%
X201970000Y-109480000D02*
X203930000Y-109480000D01*
X203930000Y-112880000D01*
X201970000Y-112880000D01*
X201970000Y-109480000D01*
%TO.C,C56*%
X197920000Y-90850000D02*
X199880000Y-90850000D01*
X199880000Y-94250000D01*
X197920000Y-94250000D01*
X197920000Y-90850000D01*
%TO.C,C47*%
X202080000Y-94380000D02*
X204040000Y-94380000D01*
X204040000Y-97780000D01*
X202080000Y-97780000D01*
X202080000Y-94380000D01*
%TO.C,R1*%
X197770000Y-106170000D02*
X201630000Y-106170000D01*
X201630000Y-113830000D01*
X197770000Y-113830000D01*
X197770000Y-106170000D01*
%TO.C,C44*%
X195850000Y-94350000D02*
X197810000Y-94350000D01*
X197810000Y-97750000D01*
X195850000Y-97750000D01*
X195850000Y-94350000D01*
%TO.C,C58*%
X193810000Y-90820000D02*
X195770000Y-90820000D01*
X195770000Y-94220000D01*
X193810000Y-94220000D01*
X193810000Y-90820000D01*
%TO.C,C27*%
X193710000Y-101310000D02*
X195670000Y-101310000D01*
X195670000Y-104710000D01*
X193710000Y-104710000D01*
X193710000Y-101310000D01*
%TO.C,C45*%
X197910000Y-94370000D02*
X199870000Y-94370000D01*
X199870000Y-97770000D01*
X197910000Y-97770000D01*
X197910000Y-94370000D01*
%TO.C,C55*%
X200000000Y-90840000D02*
X201960000Y-90840000D01*
X201960000Y-94240000D01*
X200000000Y-94240000D01*
X200000000Y-90840000D01*
%TO.C,C53*%
X204190000Y-90900000D02*
X206150000Y-90900000D01*
X206150000Y-94300000D01*
X204190000Y-94300000D01*
X204190000Y-90900000D01*
%TO.C,C43*%
X193800000Y-94340000D02*
X195760000Y-94340000D01*
X195760000Y-97740000D01*
X193800000Y-97740000D01*
X193800000Y-94340000D01*
%TO.C,C38*%
X202020000Y-97950000D02*
X203980000Y-97950000D01*
X203980000Y-101350000D01*
X202020000Y-101350000D01*
X202020000Y-97950000D01*
%TO.C,C39*%
X199990000Y-97850000D02*
X201950000Y-97850000D01*
X201950000Y-101250000D01*
X199990000Y-101250000D01*
X199990000Y-97850000D01*
%TO.C,C48*%
X204160000Y-94390000D02*
X206120000Y-94390000D01*
X206120000Y-97790000D01*
X204160000Y-97790000D01*
X204160000Y-94390000D01*
%TO.C,C46*%
X199990000Y-94360000D02*
X201950000Y-94360000D01*
X201950000Y-97760000D01*
X199990000Y-97760000D01*
X199990000Y-94360000D01*
%TO.C,C41*%
X195850000Y-97840000D02*
X197810000Y-97840000D01*
X197810000Y-101240000D01*
X195850000Y-101240000D01*
X195850000Y-97840000D01*
%TO.C,C34*%
X195800000Y-109420000D02*
X197760000Y-109420000D01*
X197760000Y-112820000D01*
X195800000Y-112820000D01*
X195800000Y-109420000D01*
%TO.C,C37*%
X204160000Y-97880000D02*
X206120000Y-97880000D01*
X206120000Y-101280000D01*
X204160000Y-101280000D01*
X204160000Y-97880000D01*
%TO.C,C54*%
X202110000Y-90890000D02*
X204070000Y-90890000D01*
X204070000Y-94290000D01*
X202110000Y-94290000D01*
X202110000Y-90890000D01*
%TO.C,C29*%
X197920000Y-101360000D02*
X199880000Y-101360000D01*
X199880000Y-104760000D01*
X197920000Y-104760000D01*
X197920000Y-101360000D01*
%TO.C,C28*%
X195760000Y-101320000D02*
X197720000Y-101320000D01*
X197720000Y-104720000D01*
X195760000Y-104720000D01*
X195760000Y-101320000D01*
%TO.C,C32*%
X204170000Y-101380000D02*
X206130000Y-101380000D01*
X206130000Y-104780000D01*
X204170000Y-104780000D01*
X204170000Y-101380000D01*
%TO.C,C36*%
X193737500Y-105930000D02*
X195697500Y-105930000D01*
X195697500Y-109330000D01*
X193737500Y-109330000D01*
X193737500Y-105930000D01*
%TO.C,C50*%
X202007500Y-105980000D02*
X203967500Y-105980000D01*
X203967500Y-109380000D01*
X202007500Y-109380000D01*
X202007500Y-105980000D01*
%TO.C,C42*%
X193800000Y-97830000D02*
X195760000Y-97830000D01*
X195760000Y-101230000D01*
X193800000Y-101230000D01*
X193800000Y-97830000D01*
%TO.C,C49*%
X204087500Y-105990000D02*
X206047500Y-105990000D01*
X206047500Y-109390000D01*
X204087500Y-109390000D01*
X204087500Y-105990000D01*
%TO.C,C33*%
X193720000Y-109410000D02*
X195680000Y-109410000D01*
X195680000Y-112810000D01*
X193720000Y-112810000D01*
X193720000Y-109410000D01*
%TO.C,C30*%
X200000000Y-101350000D02*
X201960000Y-101350000D01*
X201960000Y-104750000D01*
X200000000Y-104750000D01*
X200000000Y-101350000D01*
%TO.C,C57*%
X195860000Y-90830000D02*
X197820000Y-90830000D01*
X197820000Y-94230000D01*
X195860000Y-94230000D01*
X195860000Y-90830000D01*
%TO.C,C52*%
X204050000Y-109490000D02*
X206010000Y-109490000D01*
X206010000Y-112890000D01*
X204050000Y-112890000D01*
X204050000Y-109490000D01*
%TD*%
M02*
