%TF.GenerationSoftware,KiCad,Pcbnew,10.0.1*%
%TF.CreationDate,2026-05-02T20:42:04+05:30*%
%TF.ProjectId,VENDETTAESC,56454e44-4554-4544-9145-53432e6b6963,rev?*%
%TF.SameCoordinates,Original*%
%TF.FileFunction,Component,L1,Top*%
%TF.FilePolarity,Positive*%
%FSLAX46Y46*%
G04 Gerber Fmt 4.6, Leading zero omitted, Abs format (unit mm)*
G04 Created by KiCad (PCBNEW 10.0.1) date 2026-05-02 20:42:04*
%MOMM*%
%LPD*%
G01*
G04 APERTURE LIST*
%TA.AperFunction,ComponentMain*%
%ADD10C,0.300000*%
%TD*%
%TA.AperFunction,ComponentOutline,Footprint*%
%ADD11C,0.100000*%
%TD*%
%TA.AperFunction,ComponentPin*%
%ADD12P,0.360000X4X0.000000*%
%TD*%
%TA.AperFunction,ComponentPin*%
%ADD13C,0.100000*%
%TD*%
%TA.AperFunction,ComponentOutline,Courtyard*%
%ADD14C,0.100000*%
%TD*%
G04 APERTURE END LIST*
D10*
%TO.C,Q14*%
%TO.CFtp,POWERPAK-1212-8_L3.0-W3.0-P0.65-LS3.3-BL*%
%TO.CVal,SP40N03GNJ*%
%TO.CLbN,SP40N03GNJ*%
%TO.CMnt,SMD*%
%TO.CRot,0*%
X213748529Y-94066386D03*
D11*
X212498529Y-92199482D02*
X212498529Y-96047793D01*
X214998529Y-96047793D01*
X214998529Y-92199482D01*
X212498529Y-92199482D01*
D12*
%TO.P,Q14,1,S_1*%
X212773421Y-95552289D03*
X213423662Y-95552289D03*
X214073650Y-95552289D03*
D13*
%TO.P,Q14,2,G_2*%
X214723637Y-95552289D03*
%TO.P,Q14,3,D_3*%
X212773421Y-92580483D03*
X213423662Y-92580483D03*
X213748529Y-93545685D03*
X214073650Y-92580483D03*
X214723637Y-92580483D03*
%TD*%
D10*
%TO.C,C31*%
%TO.CFtp,C_0805_2012Metric*%
%TO.CVal,10uF*%
%TO.CLbN,Capacitor_SMD*%
%TO.CMnt,SMD*%
%TO.CRot,90*%
X203070000Y-103070000D03*
D14*
X204045000Y-101375000D02*
X204045000Y-104765000D01*
X202095000Y-104765000D01*
X202095000Y-101375000D01*
X204045000Y-101375000D01*
D12*
%TO.P,C31,1*%
X203070000Y-104020000D03*
D13*
%TO.P,C31,2*%
X203070000Y-102120000D03*
%TD*%
D10*
%TO.C,Q15*%
%TO.CFtp,POWERPAK-1212-8_L3.0-W3.0-P0.65-LS3.3-BL*%
%TO.CVal,SP40N03GNJ*%
%TO.CLbN,SP40N03GNJ*%
%TO.CMnt,SMD*%
%TO.CRot,90*%
X209777857Y-105174892D03*
D11*
X207910953Y-106424892D02*
X211759264Y-106424892D01*
X211759264Y-103924892D01*
X207910953Y-103924892D01*
X207910953Y-106424892D01*
D12*
%TO.P,Q15,1,S_1*%
X211263760Y-106150000D03*
X211263760Y-105499759D03*
X211263760Y-104849771D03*
D13*
%TO.P,Q15,2,G_2*%
X211263760Y-104199784D03*
%TO.P,Q15,3,D_3*%
X208291954Y-106150000D03*
X208291954Y-105499759D03*
X209257156Y-105174892D03*
X208291954Y-104849771D03*
X208291954Y-104199784D03*
%TD*%
D10*
%TO.C,Q2*%
%TO.CFtp,POWERPAK-1212-8_L3.0-W3.0-P0.65-LS3.3-BL*%
%TO.CVal,SP40N03GNJ*%
%TO.CLbN,SP40N03GNJ*%
%TO.CMnt,SMD*%
%TO.CRot,-90*%
X189969299Y-101720000D03*
D11*
X191836203Y-100470000D02*
X187987892Y-100470000D01*
X187987892Y-102970000D01*
X191836203Y-102970000D01*
X191836203Y-100470000D01*
D12*
%TO.P,Q2,1,S_1*%
X188483396Y-100744892D03*
X188483396Y-101395133D03*
X188483396Y-102045121D03*
D13*
%TO.P,Q2,2,G_2*%
X188483396Y-102695108D03*
%TO.P,Q2,3,D_3*%
X191455202Y-100744892D03*
X191455202Y-101395133D03*
X190490000Y-101720000D03*
X191455202Y-102045121D03*
X191455202Y-102695108D03*
%TD*%
D10*
%TO.C,Q17*%
%TO.CFtp,POWERPAK-1212-8_L3.0-W3.0-P0.65-LS3.3-BL*%
%TO.CVal,SP40N03GNJ*%
%TO.CLbN,SP40N03GNJ*%
%TO.CMnt,SMD*%
%TO.CRot,-90*%
X189844984Y-97631471D03*
D11*
X191711888Y-96381471D02*
X187863577Y-96381471D01*
X187863577Y-98881471D01*
X191711888Y-98881471D01*
X191711888Y-96381471D01*
D12*
%TO.P,Q17,1,S_1*%
X188359081Y-96656363D03*
X188359081Y-97306604D03*
X188359081Y-97956592D03*
D13*
%TO.P,Q17,2,G_2*%
X188359081Y-98606579D03*
%TO.P,Q17,3,D_3*%
X191330887Y-96656363D03*
X191330887Y-97306604D03*
X190365685Y-97631471D03*
X191330887Y-97956592D03*
X191330887Y-98606579D03*
%TD*%
D10*
%TO.C,D1*%
%TO.CFtp,DIOM4336X265N*%
%TO.CVal,SMBJ30A*%
%TO.CLbN,SMBJ30A*%
%TO.CMnt,SMD*%
%TO.CRot,180*%
X199810000Y-117000000D03*
D14*
X203360000Y-114942500D02*
X203360000Y-119057500D01*
X196260000Y-119057500D01*
X196260000Y-114942500D01*
X203360000Y-114942500D01*
D13*
%TO.P,D1,A*%
X197645000Y-117000000D03*
%TO.P,D1,C*%
X201975000Y-117000000D03*
%TD*%
D10*
%TO.C,C35*%
%TO.CFtp,C_0805_2012Metric*%
%TO.CVal,10uF*%
%TO.CLbN,Capacitor_SMD*%
%TO.CMnt,SMD*%
%TO.CRot,-90*%
X196797500Y-107640000D03*
D14*
X197772500Y-105945000D02*
X197772500Y-109335000D01*
X195822500Y-109335000D01*
X195822500Y-105945000D01*
X197772500Y-105945000D01*
D12*
%TO.P,C35,1*%
X196797500Y-106690000D03*
D13*
%TO.P,C35,2*%
X196797500Y-108590000D03*
%TD*%
D10*
%TO.C,C40*%
%TO.CFtp,C_0805_2012Metric*%
%TO.CVal,10uF*%
%TO.CLbN,Capacitor_SMD*%
%TO.CMnt,SMD*%
%TO.CRot,-90*%
X198890000Y-99560000D03*
D14*
X199865000Y-97865000D02*
X199865000Y-101255000D01*
X197915000Y-101255000D01*
X197915000Y-97865000D01*
X199865000Y-97865000D01*
D12*
%TO.P,C40,1*%
X198890000Y-98610000D03*
D13*
%TO.P,C40,2*%
X198890000Y-100510000D03*
%TD*%
D10*
%TO.C,Q6*%
%TO.CFtp,POWERPAK-1212-8_L3.0-W3.0-P0.65-LS3.3-BL*%
%TO.CVal,SP40N03GNJ*%
%TO.CLbN,SP40N03GNJ*%
%TO.CMnt,SMD*%
%TO.CRot,0*%
X185564697Y-102324195D03*
D11*
X184314697Y-100457291D02*
X184314697Y-104305602D01*
X186814697Y-104305602D01*
X186814697Y-100457291D01*
X184314697Y-100457291D01*
D12*
%TO.P,Q6,1,S_1*%
X184589589Y-103810098D03*
X185239830Y-103810098D03*
X185889818Y-103810098D03*
D13*
%TO.P,Q6,2,G_2*%
X186539805Y-103810098D03*
%TO.P,Q6,3,D_3*%
X184589589Y-100838292D03*
X185239830Y-100838292D03*
X185564697Y-101803494D03*
X185889818Y-100838292D03*
X186539805Y-100838292D03*
%TD*%
D10*
%TO.C,Q10*%
%TO.CFtp,POWERPAK-1212-8_L3.0-W3.0-P0.65-LS3.3-BL*%
%TO.CVal,SP40N03GNJ*%
%TO.CLbN,SP40N03GNJ*%
%TO.CMnt,SMD*%
%TO.CRot,0*%
X185546168Y-94018510D03*
D11*
X184296168Y-92151606D02*
X184296168Y-95999917D01*
X186796168Y-95999917D01*
X186796168Y-92151606D01*
X184296168Y-92151606D01*
D12*
%TO.P,Q10,1,S_1*%
X184571060Y-95504413D03*
X185221301Y-95504413D03*
X185871289Y-95504413D03*
D13*
%TO.P,Q10,2,G_2*%
X186521276Y-95504413D03*
%TO.P,Q10,3,D_3*%
X184571060Y-92532607D03*
X185221301Y-92532607D03*
X185546168Y-93497809D03*
X185871289Y-92532607D03*
X186521276Y-92532607D03*
%TD*%
D10*
%TO.C,Q5*%
%TO.CFtp,POWERPAK-1212-8_L3.0-W3.0-P0.65-LS3.3-BL*%
%TO.CVal,SP40N03GNJ*%
%TO.CLbN,SP40N03GNJ*%
%TO.CMnt,SMD*%
%TO.CRot,0*%
X185554697Y-89964195D03*
D11*
X184304697Y-88097291D02*
X184304697Y-91945602D01*
X186804697Y-91945602D01*
X186804697Y-88097291D01*
X184304697Y-88097291D01*
D12*
%TO.P,Q5,1,S_1*%
X184579589Y-91450098D03*
X185229830Y-91450098D03*
X185879818Y-91450098D03*
D13*
%TO.P,Q5,2,G_2*%
X186529805Y-91450098D03*
%TO.P,Q5,3,D_3*%
X184579589Y-88478292D03*
X185229830Y-88478292D03*
X185554697Y-89443494D03*
X185879818Y-88478292D03*
X186529805Y-88478292D03*
%TD*%
D10*
%TO.C,C51*%
%TO.CFtp,C_0805_2012Metric*%
%TO.CVal,10uF*%
%TO.CLbN,Capacitor_SMD*%
%TO.CMnt,SMD*%
%TO.CRot,90*%
X202950000Y-111180000D03*
D14*
X203925000Y-109485000D02*
X203925000Y-112875000D01*
X201975000Y-112875000D01*
X201975000Y-109485000D01*
X203925000Y-109485000D01*
D12*
%TO.P,C51,1*%
X202950000Y-112130000D03*
D13*
%TO.P,C51,2*%
X202950000Y-110230000D03*
%TD*%
D10*
%TO.C,Q9*%
%TO.CFtp,POWERPAK-1212-8_L3.0-W3.0-P0.65-LS3.3-BL*%
%TO.CVal,SP40N03GNJ*%
%TO.CLbN,SP40N03GNJ*%
%TO.CMnt,SMD*%
%TO.CRot,-90*%
X189689299Y-93360000D03*
D11*
X191556203Y-92110000D02*
X187707892Y-92110000D01*
X187707892Y-94610000D01*
X191556203Y-94610000D01*
X191556203Y-92110000D01*
D12*
%TO.P,Q9,1,S_1*%
X188203396Y-92384892D03*
X188203396Y-93035133D03*
X188203396Y-93685121D03*
D13*
%TO.P,Q9,2,G_2*%
X188203396Y-94335108D03*
%TO.P,Q9,3,D_3*%
X191175202Y-92384892D03*
X191175202Y-93035133D03*
X190210000Y-93360000D03*
X191175202Y-93685121D03*
X191175202Y-94335108D03*
%TD*%
D10*
%TO.C,C56*%
%TO.CFtp,C_0805_2012Metric*%
%TO.CVal,10uF*%
%TO.CLbN,Capacitor_SMD*%
%TO.CMnt,SMD*%
%TO.CRot,-90*%
X198900000Y-92550000D03*
D14*
X199875000Y-90855000D02*
X199875000Y-94245000D01*
X197925000Y-94245000D01*
X197925000Y-90855000D01*
X199875000Y-90855000D01*
D12*
%TO.P,C56,1*%
X198900000Y-91600000D03*
D13*
%TO.P,C56,2*%
X198900000Y-93500000D03*
%TD*%
D10*
%TO.C,C47*%
%TO.CFtp,C_0805_2012Metric*%
%TO.CVal,10uF*%
%TO.CLbN,Capacitor_SMD*%
%TO.CMnt,SMD*%
%TO.CRot,90*%
X203060000Y-96080000D03*
D14*
X204035000Y-94385000D02*
X204035000Y-97775000D01*
X202085000Y-97775000D01*
X202085000Y-94385000D01*
X204035000Y-94385000D01*
D12*
%TO.P,C47,1*%
X203060000Y-97030000D03*
D13*
%TO.P,C47,2*%
X203060000Y-95130000D03*
%TD*%
D10*
%TO.C,R1*%
%TO.CFtp,R_2512_6332Metric*%
%TO.CVal,0.5mR*%
%TO.CLbN,Resistor_SMD*%
%TO.CMnt,SMD*%
%TO.CRot,90*%
X199700000Y-110000000D03*
D14*
X201625000Y-106175000D02*
X201625000Y-113825000D01*
X197775000Y-113825000D01*
X197775000Y-106175000D01*
X201625000Y-106175000D01*
D12*
%TO.P,R1,1*%
X199700000Y-112962500D03*
D13*
%TO.P,R1,2*%
X199700000Y-107037500D03*
%TD*%
D10*
%TO.C,C44*%
%TO.CFtp,C_0805_2012Metric*%
%TO.CVal,10uF*%
%TO.CLbN,Capacitor_SMD*%
%TO.CMnt,SMD*%
%TO.CRot,90*%
X196830000Y-96050000D03*
D14*
X197805000Y-94355000D02*
X197805000Y-97745000D01*
X195855000Y-97745000D01*
X195855000Y-94355000D01*
X197805000Y-94355000D01*
D12*
%TO.P,C44,1*%
X196830000Y-97000000D03*
D13*
%TO.P,C44,2*%
X196830000Y-95100000D03*
%TD*%
D10*
%TO.C,Q4*%
%TO.CFtp,POWERPAK-1212-8_L3.0-W3.0-P0.65-LS3.3-BL*%
%TO.CVal,SP40N03GNJ*%
%TO.CLbN,SP40N03GNJ*%
%TO.CMnt,SMD*%
%TO.CRot,90*%
X209677857Y-101565786D03*
D11*
X207810953Y-102815786D02*
X211659264Y-102815786D01*
X211659264Y-100315786D01*
X207810953Y-100315786D01*
X207810953Y-102815786D01*
D12*
%TO.P,Q4,1,S_1*%
X211163760Y-102540894D03*
X211163760Y-101890653D03*
X211163760Y-101240665D03*
D13*
%TO.P,Q4,2,G_2*%
X211163760Y-100590678D03*
%TO.P,Q4,3,D_3*%
X208191954Y-102540894D03*
X208191954Y-101890653D03*
X209157156Y-101565786D03*
X208191954Y-101240665D03*
X208191954Y-100590678D03*
%TD*%
D10*
%TO.C,Q20*%
%TO.CFtp,POWERPAK-1212-8_L3.0-W3.0-P0.65-LS3.3-BL*%
%TO.CVal,SP40N03GNJ*%
%TO.CLbN,SP40N03GNJ*%
%TO.CMnt,SMD*%
%TO.CRot,0*%
X185594697Y-110484195D03*
D11*
X184344697Y-108617291D02*
X184344697Y-112465602D01*
X186844697Y-112465602D01*
X186844697Y-108617291D01*
X184344697Y-108617291D01*
D12*
%TO.P,Q20,1,S_1*%
X184619589Y-111970098D03*
X185269830Y-111970098D03*
X185919818Y-111970098D03*
D13*
%TO.P,Q20,2,G_2*%
X186569805Y-111970098D03*
%TO.P,Q20,3,D_3*%
X184619589Y-108998292D03*
X185269830Y-108998292D03*
X185594697Y-109963494D03*
X185919818Y-108998292D03*
X186569805Y-108998292D03*
%TD*%
D10*
%TO.C,C58*%
%TO.CFtp,C_0805_2012Metric*%
%TO.CVal,10uF*%
%TO.CLbN,Capacitor_SMD*%
%TO.CMnt,SMD*%
%TO.CRot,-90*%
X194790000Y-92520000D03*
D14*
X195765000Y-90825000D02*
X195765000Y-94215000D01*
X193815000Y-94215000D01*
X193815000Y-90825000D01*
X195765000Y-90825000D01*
D12*
%TO.P,C58,1*%
X194790000Y-91570000D03*
D13*
%TO.P,C58,2*%
X194790000Y-93470000D03*
%TD*%
D10*
%TO.C,C27*%
%TO.CFtp,C_0805_2012Metric*%
%TO.CVal,10uF*%
%TO.CLbN,Capacitor_SMD*%
%TO.CMnt,SMD*%
%TO.CRot,90*%
X194690000Y-103010000D03*
D14*
X195665000Y-101315000D02*
X195665000Y-104705000D01*
X193715000Y-104705000D01*
X193715000Y-101315000D01*
X195665000Y-101315000D01*
D12*
%TO.P,C27,1*%
X194690000Y-103960000D03*
D13*
%TO.P,C27,2*%
X194690000Y-102060000D03*
%TD*%
D10*
%TO.C,Q16*%
%TO.CFtp,POWERPAK-1212-8_L3.0-W3.0-P0.65-LS3.3-BL*%
%TO.CVal,SP40N03GNJ*%
%TO.CLbN,SP40N03GNJ*%
%TO.CMnt,SMD*%
%TO.CRot,0*%
X213760000Y-106280701D03*
D11*
X212510000Y-104413797D02*
X212510000Y-108262108D01*
X215010000Y-108262108D01*
X215010000Y-104413797D01*
X212510000Y-104413797D01*
D12*
%TO.P,Q16,1,S_1*%
X212784892Y-107766604D03*
X213435133Y-107766604D03*
X214085121Y-107766604D03*
D13*
%TO.P,Q16,2,G_2*%
X214735108Y-107766604D03*
%TO.P,Q16,3,D_3*%
X212784892Y-104794798D03*
X213435133Y-104794798D03*
X213760000Y-105760000D03*
X214085121Y-104794798D03*
X214735108Y-104794798D03*
%TD*%
D10*
%TO.C,C45*%
%TO.CFtp,C_0805_2012Metric*%
%TO.CVal,10uF*%
%TO.CLbN,Capacitor_SMD*%
%TO.CMnt,SMD*%
%TO.CRot,90*%
X198890000Y-96070000D03*
D14*
X199865000Y-94375000D02*
X199865000Y-97765000D01*
X197915000Y-97765000D01*
X197915000Y-94375000D01*
X199865000Y-94375000D01*
D12*
%TO.P,C45,1*%
X198890000Y-97020000D03*
D13*
%TO.P,C45,2*%
X198890000Y-95120000D03*
%TD*%
D10*
%TO.C,C55*%
%TO.CFtp,C_0805_2012Metric*%
%TO.CVal,10uF*%
%TO.CLbN,Capacitor_SMD*%
%TO.CMnt,SMD*%
%TO.CRot,-90*%
X200980000Y-92540000D03*
D14*
X201955000Y-90845000D02*
X201955000Y-94235000D01*
X200005000Y-94235000D01*
X200005000Y-90845000D01*
X201955000Y-90845000D01*
D12*
%TO.P,C55,1*%
X200980000Y-91590000D03*
D13*
%TO.P,C55,2*%
X200980000Y-93490000D03*
%TD*%
D10*
%TO.C,U12*%
%TO.CFtp,VESC*%
%TO.CVal,VESC*%
%TO.CLbN,VESC*%
%TO.CMnt,SMD*%
%TO.CRot,0*%
X139500000Y-110000000D03*
D11*
X179000000Y-78800000D02*
X179000000Y-124300000D01*
X220500000Y-124300000D01*
X220500000Y-78800000D01*
X179000000Y-78800000D01*
D12*
%TO.P,U12,1,1A_1*%
X180500000Y-89000000D03*
X180500000Y-91000000D03*
D13*
%TO.P,U12,2,1B_2*%
X180500000Y-93000000D03*
X180500000Y-95000000D03*
%TO.P,U12,3,1C_3*%
X180500000Y-97000000D03*
X180500000Y-99000000D03*
%TO.P,U12,4,2A_4*%
X180500000Y-101000000D03*
X180500000Y-103000000D03*
%TO.P,U12,5,2B_5*%
X180500000Y-105000000D03*
X180500000Y-107000000D03*
%TO.P,U12,6,2C_6*%
X180500000Y-109000000D03*
X180500000Y-111000000D03*
%TO.P,U12,7,3A_7*%
X219000000Y-89000000D03*
X219000000Y-91000000D03*
%TO.P,U12,8,3B_8*%
X219000000Y-93000000D03*
X219000000Y-95000000D03*
%TO.P,U12,9,3C_9*%
X219000000Y-97000000D03*
X219000000Y-99000000D03*
%TO.P,U12,10,4A_10*%
X219000000Y-101000000D03*
X219000000Y-103000000D03*
%TO.P,U12,11,4B_11*%
X219000000Y-105000000D03*
X219000000Y-107000000D03*
%TO.P,U12,12,4C_12*%
X219000000Y-109000000D03*
X219000000Y-111000000D03*
%TO.P,U12,13,VBAT_13*%
X192800000Y-120100000D03*
%TO.P,U12,14,BATGND_14*%
X206700000Y-120100000D03*
%TO.P,U12,15,GND_15*%
X184500000Y-85000000D03*
X184500000Y-115500000D03*
X215000000Y-85000000D03*
X215000000Y-115500000D03*
%TO.P,U12,16,+BAT_16*%
X192700000Y-84300000D03*
%TO.P,U12,17,GND_17*%
X194700000Y-84300000D03*
%TO.P,U12,18,CUR_18*%
X196700000Y-84300000D03*
%TO.P,U12,19,TX_19*%
X198700000Y-84300000D03*
%TO.P,U12,20,M1_20*%
X200700000Y-84300000D03*
%TO.P,U12,21,M2_21*%
X202700000Y-84300000D03*
%TO.P,U12,22,M3_22*%
X204700000Y-84300000D03*
%TO.P,U12,23,M4_23*%
X206700000Y-84300000D03*
%TD*%
D10*
%TO.C,Q21*%
%TO.CFtp,POWERPAK-1212-8_L3.0-W3.0-P0.65-LS3.3-BL*%
%TO.CVal,SP40N03GNJ*%
%TO.CLbN,SP40N03GNJ*%
%TO.CMnt,SMD*%
%TO.CRot,90*%
X209836386Y-97491471D03*
D11*
X207969482Y-98741471D02*
X211817793Y-98741471D01*
X211817793Y-96241471D01*
X207969482Y-96241471D01*
X207969482Y-98741471D01*
D12*
%TO.P,Q21,1,S_1*%
X211322289Y-98466579D03*
X211322289Y-97816338D03*
X211322289Y-97166350D03*
D13*
%TO.P,Q21,2,G_2*%
X211322289Y-96516363D03*
%TO.P,Q21,3,D_3*%
X208350483Y-98466579D03*
X208350483Y-97816338D03*
X209315685Y-97491471D03*
X208350483Y-97166350D03*
X208350483Y-96516363D03*
%TD*%
D10*
%TO.C,C53*%
%TO.CFtp,C_0805_2012Metric*%
%TO.CVal,10uF*%
%TO.CLbN,Capacitor_SMD*%
%TO.CMnt,SMD*%
%TO.CRot,-90*%
X205170000Y-92600000D03*
D14*
X206145000Y-90905000D02*
X206145000Y-94295000D01*
X204195000Y-94295000D01*
X204195000Y-90905000D01*
X206145000Y-90905000D01*
D12*
%TO.P,C53,1*%
X205170000Y-91650000D03*
D13*
%TO.P,C53,2*%
X205170000Y-93550000D03*
%TD*%
D10*
%TO.C,C43*%
%TO.CFtp,C_0805_2012Metric*%
%TO.CVal,10uF*%
%TO.CLbN,Capacitor_SMD*%
%TO.CMnt,SMD*%
%TO.CRot,90*%
X194780000Y-96040000D03*
D14*
X195755000Y-94345000D02*
X195755000Y-97735000D01*
X193805000Y-97735000D01*
X193805000Y-94345000D01*
X195755000Y-94345000D01*
D12*
%TO.P,C43,1*%
X194780000Y-96990000D03*
D13*
%TO.P,C43,2*%
X194780000Y-95090000D03*
%TD*%
D10*
%TO.C,Q24*%
%TO.CFtp,POWERPAK-1212-8_L3.0-W3.0-P0.65-LS3.3-BL*%
%TO.CVal,SP40N03GNJ*%
%TO.CLbN,SP40N03GNJ*%
%TO.CMnt,SMD*%
%TO.CRot,0*%
X213770000Y-110340701D03*
D11*
X212520000Y-108473797D02*
X212520000Y-112322108D01*
X215020000Y-112322108D01*
X215020000Y-108473797D01*
X212520000Y-108473797D01*
D12*
%TO.P,Q24,1,S_1*%
X212794892Y-111826604D03*
X213445133Y-111826604D03*
X214095121Y-111826604D03*
D13*
%TO.P,Q24,2,G_2*%
X214745108Y-111826604D03*
%TO.P,Q24,3,D_3*%
X212794892Y-108854798D03*
X213445133Y-108854798D03*
X213770000Y-109820000D03*
X214095121Y-108854798D03*
X214745108Y-108854798D03*
%TD*%
D10*
%TO.C,Q13*%
%TO.CFtp,POWERPAK-1212-8_L3.0-W3.0-P0.65-LS3.3-BL*%
%TO.CVal,SP40N03GNJ*%
%TO.CLbN,SP40N03GNJ*%
%TO.CMnt,SMD*%
%TO.CRot,90*%
X209806386Y-93191471D03*
D11*
X207939482Y-94441471D02*
X211787793Y-94441471D01*
X211787793Y-91941471D01*
X207939482Y-91941471D01*
X207939482Y-94441471D01*
D12*
%TO.P,Q13,1,S_1*%
X211292289Y-94166579D03*
X211292289Y-93516338D03*
X211292289Y-92866350D03*
D13*
%TO.P,Q13,2,G_2*%
X211292289Y-92216363D03*
%TO.P,Q13,3,D_3*%
X208320483Y-94166579D03*
X208320483Y-93516338D03*
X209285685Y-93191471D03*
X208320483Y-92866350D03*
X208320483Y-92216363D03*
%TD*%
D10*
%TO.C,C38*%
%TO.CFtp,C_0805_2012Metric*%
%TO.CVal,10uF*%
%TO.CLbN,Capacitor_SMD*%
%TO.CMnt,SMD*%
%TO.CRot,-90*%
X203000000Y-99650000D03*
D14*
X203975000Y-97955000D02*
X203975000Y-101345000D01*
X202025000Y-101345000D01*
X202025000Y-97955000D01*
X203975000Y-97955000D01*
D12*
%TO.P,C38,1*%
X203000000Y-98700000D03*
D13*
%TO.P,C38,2*%
X203000000Y-100600000D03*
%TD*%
D10*
%TO.C,Q7*%
%TO.CFtp,POWERPAK-1212-8_L3.0-W3.0-P0.65-LS3.3-BL*%
%TO.CVal,SP40N03GNJ*%
%TO.CLbN,SP40N03GNJ*%
%TO.CMnt,SMD*%
%TO.CRot,0*%
X213728529Y-90006386D03*
D11*
X212478529Y-88139482D02*
X212478529Y-91987793D01*
X214978529Y-91987793D01*
X214978529Y-88139482D01*
X212478529Y-88139482D01*
D12*
%TO.P,Q7,1,S_1*%
X212753421Y-91492289D03*
X213403662Y-91492289D03*
X214053650Y-91492289D03*
D13*
%TO.P,Q7,2,G_2*%
X214703637Y-91492289D03*
%TO.P,Q7,3,D_3*%
X212753421Y-88520483D03*
X213403662Y-88520483D03*
X213728529Y-89485685D03*
X214053650Y-88520483D03*
X214703637Y-88520483D03*
%TD*%
D10*
%TO.C,C39*%
%TO.CFtp,C_0805_2012Metric*%
%TO.CVal,10uF*%
%TO.CLbN,Capacitor_SMD*%
%TO.CMnt,SMD*%
%TO.CRot,-90*%
X200970000Y-99550000D03*
D14*
X201945000Y-97855000D02*
X201945000Y-101245000D01*
X199995000Y-101245000D01*
X199995000Y-97855000D01*
X201945000Y-97855000D01*
D12*
%TO.P,C39,1*%
X200970000Y-98600000D03*
D13*
%TO.P,C39,2*%
X200970000Y-100500000D03*
%TD*%
D10*
%TO.C,Q1*%
%TO.CFtp,POWERPAK-1212-8_L3.0-W3.0-P0.65-LS3.3-BL*%
%TO.CVal,SP40N03GNJ*%
%TO.CLbN,SP40N03GNJ*%
%TO.CMnt,SMD*%
%TO.CRot,-90*%
X189679782Y-89136338D03*
D11*
X191546686Y-87886338D02*
X187698375Y-87886338D01*
X187698375Y-90386338D01*
X191546686Y-90386338D01*
X191546686Y-87886338D01*
D12*
%TO.P,Q1,1,S_1*%
X188193879Y-88161230D03*
X188193879Y-88811471D03*
X188193879Y-89461459D03*
D13*
%TO.P,Q1,2,G_2*%
X188193879Y-90111446D03*
%TO.P,Q1,3,D_3*%
X191165685Y-88161230D03*
X191165685Y-88811471D03*
X190200483Y-89136338D03*
X191165685Y-89461459D03*
X191165685Y-90111446D03*
%TD*%
D10*
%TO.C,C48*%
%TO.CFtp,C_0805_2012Metric*%
%TO.CVal,10uF*%
%TO.CLbN,Capacitor_SMD*%
%TO.CMnt,SMD*%
%TO.CRot,90*%
X205140000Y-96090000D03*
D14*
X206115000Y-94395000D02*
X206115000Y-97785000D01*
X204165000Y-97785000D01*
X204165000Y-94395000D01*
X206115000Y-94395000D01*
D12*
%TO.P,C48,1*%
X205140000Y-97040000D03*
D13*
%TO.P,C48,2*%
X205140000Y-95140000D03*
%TD*%
D10*
%TO.C,C46*%
%TO.CFtp,C_0805_2012Metric*%
%TO.CVal,10uF*%
%TO.CLbN,Capacitor_SMD*%
%TO.CMnt,SMD*%
%TO.CRot,90*%
X200970000Y-96060000D03*
D14*
X201945000Y-94365000D02*
X201945000Y-97755000D01*
X199995000Y-97755000D01*
X199995000Y-94365000D01*
X201945000Y-94365000D01*
D12*
%TO.P,C46,1*%
X200970000Y-97010000D03*
D13*
%TO.P,C46,2*%
X200970000Y-95110000D03*
%TD*%
D10*
%TO.C,C41*%
%TO.CFtp,C_0805_2012Metric*%
%TO.CVal,10uF*%
%TO.CLbN,Capacitor_SMD*%
%TO.CMnt,SMD*%
%TO.CRot,-90*%
X196830000Y-99540000D03*
D14*
X197805000Y-97845000D02*
X197805000Y-101235000D01*
X195855000Y-101235000D01*
X195855000Y-97845000D01*
X197805000Y-97845000D01*
D12*
%TO.P,C41,1*%
X196830000Y-98590000D03*
D13*
%TO.P,C41,2*%
X196830000Y-100490000D03*
%TD*%
D10*
%TO.C,C34*%
%TO.CFtp,C_0805_2012Metric*%
%TO.CVal,10uF*%
%TO.CLbN,Capacitor_SMD*%
%TO.CMnt,SMD*%
%TO.CRot,90*%
X196780000Y-111120000D03*
D14*
X197755000Y-109425000D02*
X197755000Y-112815000D01*
X195805000Y-112815000D01*
X195805000Y-109425000D01*
X197755000Y-109425000D01*
D12*
%TO.P,C34,1*%
X196780000Y-112070000D03*
D13*
%TO.P,C34,2*%
X196780000Y-110170000D03*
%TD*%
D10*
%TO.C,C37*%
%TO.CFtp,C_0805_2012Metric*%
%TO.CVal,10uF*%
%TO.CLbN,Capacitor_SMD*%
%TO.CMnt,SMD*%
%TO.CRot,-90*%
X205140000Y-99580000D03*
D14*
X206115000Y-97885000D02*
X206115000Y-101275000D01*
X204165000Y-101275000D01*
X204165000Y-97885000D01*
X206115000Y-97885000D01*
D12*
%TO.P,C37,1*%
X205140000Y-98630000D03*
D13*
%TO.P,C37,2*%
X205140000Y-100530000D03*
%TD*%
D10*
%TO.C,Q18*%
%TO.CFtp,POWERPAK-1212-8_L3.0-W3.0-P0.65-LS3.3-BL*%
%TO.CVal,SP40N03GNJ*%
%TO.CLbN,SP40N03GNJ*%
%TO.CMnt,SMD*%
%TO.CRot,0*%
X185566249Y-98187039D03*
D11*
X184316249Y-96320135D02*
X184316249Y-100168446D01*
X186816249Y-100168446D01*
X186816249Y-96320135D01*
X184316249Y-96320135D01*
D12*
%TO.P,Q18,1,S_1*%
X184591141Y-99672942D03*
X185241382Y-99672942D03*
X185891370Y-99672942D03*
D13*
%TO.P,Q18,2,G_2*%
X186541357Y-99672942D03*
%TO.P,Q18,3,D_3*%
X184591141Y-96701136D03*
X185241382Y-96701136D03*
X185566249Y-97666338D03*
X185891370Y-96701136D03*
X186541357Y-96701136D03*
%TD*%
D10*
%TO.C,C54*%
%TO.CFtp,C_0805_2012Metric*%
%TO.CVal,10uF*%
%TO.CLbN,Capacitor_SMD*%
%TO.CMnt,SMD*%
%TO.CRot,-90*%
X203090000Y-92590000D03*
D14*
X204065000Y-90895000D02*
X204065000Y-94285000D01*
X202115000Y-94285000D01*
X202115000Y-90895000D01*
X204065000Y-90895000D01*
D12*
%TO.P,C54,1*%
X203090000Y-91640000D03*
D13*
%TO.P,C54,2*%
X203090000Y-93540000D03*
%TD*%
D10*
%TO.C,Q3*%
%TO.CFtp,POWERPAK-1212-8_L3.0-W3.0-P0.65-LS3.3-BL*%
%TO.CVal,SP40N03GNJ*%
%TO.CLbN,SP40N03GNJ*%
%TO.CMnt,SMD*%
%TO.CRot,90*%
X209746386Y-89281471D03*
D11*
X207879482Y-90531471D02*
X211727793Y-90531471D01*
X211727793Y-88031471D01*
X207879482Y-88031471D01*
X207879482Y-90531471D01*
D12*
%TO.P,Q3,1,S_1*%
X211232289Y-90256579D03*
X211232289Y-89606338D03*
X211232289Y-88956350D03*
D13*
%TO.P,Q3,2,G_2*%
X211232289Y-88306363D03*
%TO.P,Q3,3,D_3*%
X208260483Y-90256579D03*
X208260483Y-89606338D03*
X209225685Y-89281471D03*
X208260483Y-88956350D03*
X208260483Y-88306363D03*
%TD*%
D10*
%TO.C,Q23*%
%TO.CFtp,POWERPAK-1212-8_L3.0-W3.0-P0.65-LS3.3-BL*%
%TO.CVal,SP40N03GNJ*%
%TO.CLbN,SP40N03GNJ*%
%TO.CMnt,SMD*%
%TO.CRot,90*%
X209917857Y-109715786D03*
D11*
X208050953Y-110965786D02*
X211899264Y-110965786D01*
X211899264Y-108465786D01*
X208050953Y-108465786D01*
X208050953Y-110965786D01*
D12*
%TO.P,Q23,1,S_1*%
X211403760Y-110690894D03*
X211403760Y-110040653D03*
X211403760Y-109390665D03*
D13*
%TO.P,Q23,2,G_2*%
X211403760Y-108740678D03*
%TO.P,Q23,3,D_3*%
X208431954Y-110690894D03*
X208431954Y-110040653D03*
X209397156Y-109715786D03*
X208431954Y-109390665D03*
X208431954Y-108740678D03*
%TD*%
D10*
%TO.C,Q8*%
%TO.CFtp,POWERPAK-1212-8_L3.0-W3.0-P0.65-LS3.3-BL*%
%TO.CVal,SP40N03GNJ*%
%TO.CLbN,SP40N03GNJ*%
%TO.CMnt,SMD*%
%TO.CRot,0*%
X213740000Y-102230701D03*
D11*
X212490000Y-100363797D02*
X212490000Y-104212108D01*
X214990000Y-104212108D01*
X214990000Y-100363797D01*
X212490000Y-100363797D01*
D12*
%TO.P,Q8,1,S_1*%
X212764892Y-103716604D03*
X213415133Y-103716604D03*
X214065121Y-103716604D03*
D13*
%TO.P,Q8,2,G_2*%
X214715108Y-103716604D03*
%TO.P,Q8,3,D_3*%
X212764892Y-100744798D03*
X213415133Y-100744798D03*
X213740000Y-101710000D03*
X214065121Y-100744798D03*
X214715108Y-100744798D03*
%TD*%
D10*
%TO.C,Q11*%
%TO.CFtp,POWERPAK-1212-8_L3.0-W3.0-P0.65-LS3.3-BL*%
%TO.CVal,SP40N03GNJ*%
%TO.CLbN,SP40N03GNJ*%
%TO.CMnt,SMD*%
%TO.CRot,-90*%
X189929299Y-105640000D03*
D11*
X191796203Y-104390000D02*
X187947892Y-104390000D01*
X187947892Y-106890000D01*
X191796203Y-106890000D01*
X191796203Y-104390000D01*
D12*
%TO.P,Q11,1,S_1*%
X188443396Y-104664892D03*
X188443396Y-105315133D03*
X188443396Y-105965121D03*
D13*
%TO.P,Q11,2,G_2*%
X188443396Y-106615108D03*
%TO.P,Q11,3,D_3*%
X191415202Y-104664892D03*
X191415202Y-105315133D03*
X190450000Y-105640000D03*
X191415202Y-105965121D03*
X191415202Y-106615108D03*
%TD*%
D10*
%TO.C,C29*%
%TO.CFtp,C_0805_2012Metric*%
%TO.CVal,10uF*%
%TO.CLbN,Capacitor_SMD*%
%TO.CMnt,SMD*%
%TO.CRot,90*%
X198900000Y-103060000D03*
D14*
X199875000Y-101365000D02*
X199875000Y-104755000D01*
X197925000Y-104755000D01*
X197925000Y-101365000D01*
X199875000Y-101365000D01*
D12*
%TO.P,C29,1*%
X198900000Y-104010000D03*
D13*
%TO.P,C29,2*%
X198900000Y-102110000D03*
%TD*%
D10*
%TO.C,C28*%
%TO.CFtp,C_0805_2012Metric*%
%TO.CVal,10uF*%
%TO.CLbN,Capacitor_SMD*%
%TO.CMnt,SMD*%
%TO.CRot,90*%
X196740000Y-103020000D03*
D14*
X197715000Y-101325000D02*
X197715000Y-104715000D01*
X195765000Y-104715000D01*
X195765000Y-101325000D01*
X197715000Y-101325000D01*
D12*
%TO.P,C28,1*%
X196740000Y-103970000D03*
D13*
%TO.P,C28,2*%
X196740000Y-102070000D03*
%TD*%
D10*
%TO.C,C32*%
%TO.CFtp,C_0805_2012Metric*%
%TO.CVal,10uF*%
%TO.CLbN,Capacitor_SMD*%
%TO.CMnt,SMD*%
%TO.CRot,90*%
X205150000Y-103080000D03*
D14*
X206125000Y-101385000D02*
X206125000Y-104775000D01*
X204175000Y-104775000D01*
X204175000Y-101385000D01*
X206125000Y-101385000D01*
D12*
%TO.P,C32,1*%
X205150000Y-104030000D03*
D13*
%TO.P,C32,2*%
X205150000Y-102130000D03*
%TD*%
D10*
%TO.C,C36*%
%TO.CFtp,C_0805_2012Metric*%
%TO.CVal,10uF*%
%TO.CLbN,Capacitor_SMD*%
%TO.CMnt,SMD*%
%TO.CRot,-90*%
X194717500Y-107630000D03*
D14*
X195692500Y-105935000D02*
X195692500Y-109325000D01*
X193742500Y-109325000D01*
X193742500Y-105935000D01*
X195692500Y-105935000D01*
D12*
%TO.P,C36,1*%
X194717500Y-106680000D03*
D13*
%TO.P,C36,2*%
X194717500Y-108580000D03*
%TD*%
D10*
%TO.C,Q12*%
%TO.CFtp,POWERPAK-1212-8_L3.0-W3.0-P0.65-LS3.3-BL*%
%TO.CVal,SP40N03GNJ*%
%TO.CLbN,SP40N03GNJ*%
%TO.CMnt,SMD*%
%TO.CRot,0*%
X185584697Y-106394195D03*
D11*
X184334697Y-104527291D02*
X184334697Y-108375602D01*
X186834697Y-108375602D01*
X186834697Y-104527291D01*
X184334697Y-104527291D01*
D12*
%TO.P,Q12,1,S_1*%
X184609589Y-107880098D03*
X185259830Y-107880098D03*
X185909818Y-107880098D03*
D13*
%TO.P,Q12,2,G_2*%
X186559805Y-107880098D03*
%TO.P,Q12,3,D_3*%
X184609589Y-104908292D03*
X185259830Y-104908292D03*
X185584697Y-105873494D03*
X185909818Y-104908292D03*
X186559805Y-104908292D03*
%TD*%
D10*
%TO.C,Q22*%
%TO.CFtp,POWERPAK-1212-8_L3.0-W3.0-P0.65-LS3.3-BL*%
%TO.CVal,SP40N03GNJ*%
%TO.CLbN,SP40N03GNJ*%
%TO.CMnt,SMD*%
%TO.CRot,0*%
X213738529Y-98176386D03*
D11*
X212488529Y-96309482D02*
X212488529Y-100157793D01*
X214988529Y-100157793D01*
X214988529Y-96309482D01*
X212488529Y-96309482D01*
D12*
%TO.P,Q22,1,S_1*%
X212763421Y-99662289D03*
X213413662Y-99662289D03*
X214063650Y-99662289D03*
D13*
%TO.P,Q22,2,G_2*%
X214713637Y-99662289D03*
%TO.P,Q22,3,D_3*%
X212763421Y-96690483D03*
X213413662Y-96690483D03*
X213738529Y-97655685D03*
X214063650Y-96690483D03*
X214713637Y-96690483D03*
%TD*%
D10*
%TO.C,C50*%
%TO.CFtp,C_0805_2012Metric*%
%TO.CVal,10uF*%
%TO.CLbN,Capacitor_SMD*%
%TO.CMnt,SMD*%
%TO.CRot,-90*%
X202987500Y-107680000D03*
D14*
X203962500Y-105985000D02*
X203962500Y-109375000D01*
X202012500Y-109375000D01*
X202012500Y-105985000D01*
X203962500Y-105985000D01*
D12*
%TO.P,C50,1*%
X202987500Y-106730000D03*
D13*
%TO.P,C50,2*%
X202987500Y-108630000D03*
%TD*%
D10*
%TO.C,C42*%
%TO.CFtp,C_0805_2012Metric*%
%TO.CVal,10uF*%
%TO.CLbN,Capacitor_SMD*%
%TO.CMnt,SMD*%
%TO.CRot,-90*%
X194780000Y-99530000D03*
D14*
X195755000Y-97835000D02*
X195755000Y-101225000D01*
X193805000Y-101225000D01*
X193805000Y-97835000D01*
X195755000Y-97835000D01*
D12*
%TO.P,C42,1*%
X194780000Y-98580000D03*
D13*
%TO.P,C42,2*%
X194780000Y-100480000D03*
%TD*%
D10*
%TO.C,C49*%
%TO.CFtp,C_0805_2012Metric*%
%TO.CVal,10uF*%
%TO.CLbN,Capacitor_SMD*%
%TO.CMnt,SMD*%
%TO.CRot,-90*%
X205067500Y-107690000D03*
D14*
X206042500Y-105995000D02*
X206042500Y-109385000D01*
X204092500Y-109385000D01*
X204092500Y-105995000D01*
X206042500Y-105995000D01*
D12*
%TO.P,C49,1*%
X205067500Y-106740000D03*
D13*
%TO.P,C49,2*%
X205067500Y-108640000D03*
%TD*%
D10*
%TO.C,C33*%
%TO.CFtp,C_0805_2012Metric*%
%TO.CVal,10uF*%
%TO.CLbN,Capacitor_SMD*%
%TO.CMnt,SMD*%
%TO.CRot,90*%
X194700000Y-111110000D03*
D14*
X195675000Y-109415000D02*
X195675000Y-112805000D01*
X193725000Y-112805000D01*
X193725000Y-109415000D01*
X195675000Y-109415000D01*
D12*
%TO.P,C33,1*%
X194700000Y-112060000D03*
D13*
%TO.P,C33,2*%
X194700000Y-110160000D03*
%TD*%
D10*
%TO.C,C30*%
%TO.CFtp,C_0805_2012Metric*%
%TO.CVal,10uF*%
%TO.CLbN,Capacitor_SMD*%
%TO.CMnt,SMD*%
%TO.CRot,90*%
X200980000Y-103050000D03*
D14*
X201955000Y-101355000D02*
X201955000Y-104745000D01*
X200005000Y-104745000D01*
X200005000Y-101355000D01*
X201955000Y-101355000D01*
D12*
%TO.P,C30,1*%
X200980000Y-104000000D03*
D13*
%TO.P,C30,2*%
X200980000Y-102100000D03*
%TD*%
D10*
%TO.C,Q19*%
%TO.CFtp,POWERPAK-1212-8_L3.0-W3.0-P0.65-LS3.3-BL*%
%TO.CVal,SP40N03GNJ*%
%TO.CLbN,SP40N03GNJ*%
%TO.CMnt,SMD*%
%TO.CRot,-90*%
X189899299Y-109740000D03*
D11*
X191766203Y-108490000D02*
X187917892Y-108490000D01*
X187917892Y-110990000D01*
X191766203Y-110990000D01*
X191766203Y-108490000D01*
D12*
%TO.P,Q19,1,S_1*%
X188413396Y-108764892D03*
X188413396Y-109415133D03*
X188413396Y-110065121D03*
D13*
%TO.P,Q19,2,G_2*%
X188413396Y-110715108D03*
%TO.P,Q19,3,D_3*%
X191385202Y-108764892D03*
X191385202Y-109415133D03*
X190420000Y-109740000D03*
X191385202Y-110065121D03*
X191385202Y-110715108D03*
%TD*%
D10*
%TO.C,C57*%
%TO.CFtp,C_0805_2012Metric*%
%TO.CVal,10uF*%
%TO.CLbN,Capacitor_SMD*%
%TO.CMnt,SMD*%
%TO.CRot,-90*%
X196840000Y-92530000D03*
D14*
X197815000Y-90835000D02*
X197815000Y-94225000D01*
X195865000Y-94225000D01*
X195865000Y-90835000D01*
X197815000Y-90835000D01*
D12*
%TO.P,C57,1*%
X196840000Y-91580000D03*
D13*
%TO.P,C57,2*%
X196840000Y-93480000D03*
%TD*%
D10*
%TO.C,C52*%
%TO.CFtp,C_0805_2012Metric*%
%TO.CVal,10uF*%
%TO.CLbN,Capacitor_SMD*%
%TO.CMnt,SMD*%
%TO.CRot,90*%
X205030000Y-111190000D03*
D14*
X206005000Y-109495000D02*
X206005000Y-112885000D01*
X204055000Y-112885000D01*
X204055000Y-109495000D01*
X206005000Y-109495000D01*
D12*
%TO.P,C52,1*%
X205030000Y-112140000D03*
D13*
%TO.P,C52,2*%
X205030000Y-110240000D03*
%TD*%
M02*
