M48
; DRILL file KiCad 10.0.1 date 2026-05-30T20:28:28
; FORMAT={-:-/ absolute / metric / decimal}
; #@! TF.CreationDate,2026-05-30T20:28:28+05:30
; #@! TF.GenerationSoftware,Kicad,Pcbnew,10.0.1
; #@! TF.FileFunction,Plated,1,6,PTH
FMAT,2
METRIC
; #@! TA.AperFunction,Plated,PTH,ViaDrill
T1C0.300
; #@! TA.AperFunction,Plated,PTH,ComponentDrill
T2C0.400
; #@! TA.AperFunction,Plated,PTH,ComponentDrill
T3C4.000
; #@! TA.AperFunction,Plated,PTH,ComponentDrill
T4C4.100
%
G90
G05
T1
X180.8Y-85.8
X181.0Y-115.205
X181.1Y-84.2
X181.1Y-114.4
X181.1Y-116.2
X181.26Y-95.82
X181.41Y-117.22
X181.55Y-96.18
X181.7Y-82.7
X181.73Y-95.73
X181.82Y-99.95
X181.905Y-103.965
X181.94Y-108.02
X182.03Y-96.16
X182.1Y-118.1
X182.24Y-92.02
X182.25Y-95.63
X182.28Y-99.66
X182.31Y-100.12
X182.33Y-107.77
X182.35Y-108.23
X182.4Y-105.075
X182.405Y-91.495
X182.41Y-103.9
X182.45Y-92.925
X182.525Y-96.95
X182.585Y-82.085
X182.675Y-101.05
X182.675Y-109.95
X182.7Y-112.625
X182.77Y-92.0
X182.77Y-107.72
X182.79Y-108.2
X182.81Y-99.59
X182.81Y-100.1
X182.825Y-88.675
X182.83Y-104.19
X182.85Y-91.5
X182.85Y-103.69
X182.85Y-105.075
X182.975Y-92.925
X183.0Y-96.925
X183.075Y-118.84
X183.175Y-101.05
X183.175Y-109.95
X183.2Y-112.625
X183.22Y-107.31
X183.24Y-91.28
X183.245Y-91.77
X183.29Y-100.39
X183.32Y-96.13
X183.325Y-88.675
X183.35Y-95.015
X183.35Y-104.15
X183.36Y-103.67
X183.7Y-81.7
X183.79Y-112.9
X183.96Y-111.17
X184.2Y-119.2
X184.23Y-91.28
X184.23Y-91.805
X184.355Y-100.0
X184.39Y-112.16
X184.49Y-107.945
X184.52Y-107.44
X184.555Y-99.49
X184.62Y-109.31
X184.63Y-111.74
X184.71Y-112.8
X184.73Y-104.18
X184.74Y-103.15
X184.74Y-103.675
X184.775Y-107.72
X184.785Y-108.285
X184.845Y-99.99
X184.87Y-112.14
X184.905Y-90.65
X184.915Y-96.015
X185.085Y-99.49
X185.1Y-111.73
X185.115Y-91.725
X185.14Y-81.645
X185.34Y-112.14
X185.365Y-99.99
X185.51Y-119.32
X185.53Y-112.99
X185.55Y-96.01
X185.57Y-103.005
X185.58Y-111.73
X185.645Y-99.48
X185.74Y-104.13
X185.75Y-103.68
X185.795Y-94.88
X185.82Y-95.36
X185.85Y-112.15
X185.875Y-100.0
X185.98Y-95.795
X185.99Y-91.535
X186.205Y-94.695
X186.22Y-107.08
X186.4Y-81.7
X186.555Y-99.785
X186.7Y-119.1
X186.89Y-94.715
X186.91Y-92.36
X186.92Y-117.335
X186.95Y-98.84
X187.11Y-111.92
X187.12Y-111.35
X187.15Y-106.83
X187.21Y-117.78
X187.22Y-107.33
X187.25Y-104.68
X187.26Y-116.91
X187.27Y-95.035
X187.31Y-100.1
X187.33Y-94.545
X187.38Y-98.49
X187.41Y-117.345
X187.46Y-99.0
X187.47Y-116.5
X187.56Y-112.22
X187.57Y-111.73
X187.615Y-106.795
X187.66Y-107.35
X187.71Y-117.8
X187.725Y-95.02
X187.76Y-116.89
X187.79Y-116.05
X187.91Y-117.335
X187.92Y-110.72
X188.05Y-98.59
X188.05Y-116.49
X188.13Y-107.35
X188.19Y-99.48
X188.22Y-117.78
X188.27Y-116.9
X188.275Y-113.06
X188.3Y-86.91
X188.41Y-117.315
X188.58Y-113.52
X188.59Y-102.12
X188.63Y-107.35
X188.695Y-103.91
X188.85Y-90.92
X188.85Y-113.045
X188.9Y-96.05
X189.01Y-85.91
X189.04Y-91.99
X189.13Y-113.5
X189.15Y-99.79
X189.21Y-103.645
X189.23Y-108.495
X189.23Y-109.155
X189.23Y-109.785
X189.26Y-104.94
X189.32Y-117.56
X189.38Y-117.12
X189.39Y-116.65
X189.57Y-99.38
X189.585Y-117.935
X189.63Y-96.05
X189.82Y-116.65
X189.85Y-117.13
X189.88Y-117.58
X189.91Y-85.91
X190.14Y-96.03
X190.32Y-111.58
X190.485Y-117.835
X190.505Y-116.61
X191.1Y-85.95
X191.21Y-117.76
X191.3Y-116.24
X191.31Y-116.72
X191.33Y-117.21
X191.775Y-114.025
X191.88Y-118.2
X191.9Y-117.64
X192.16Y-92.59
X192.22Y-116.12
X192.24Y-116.88
X192.25Y-97.01
X192.26Y-96.54
X192.28Y-96.03
X192.34Y-120.975
X192.37Y-122.0
X192.39Y-101.67
X192.48Y-101.04
X192.5Y-118.17
X192.53Y-117.64
X192.7Y-121.49
X192.76Y-96.02
X192.78Y-96.53
X192.81Y-97.0
X192.835Y-115.41
X192.86Y-116.62
X192.87Y-117.06
X192.92Y-116.11
X193.085Y-120.975
X193.105Y-121.96
X193.145Y-87.875
X193.16Y-117.78
X193.17Y-118.24
X193.215Y-112.53
X193.315Y-88.375
X193.345Y-115.405
X193.49Y-87.44
X193.49Y-116.12
X193.5Y-116.66
X193.55Y-121.48
X193.63Y-107.55
X193.635Y-87.985
X193.66Y-108.06
X193.67Y-108.6
X193.68Y-109.15
X193.715Y-88.665
X193.76Y-118.2
X193.77Y-89.875
X193.79Y-117.77
X193.82Y-117.05
X193.825Y-87.09
X193.9Y-115.16
X193.94Y-120.95
X193.955Y-87.62
X193.995Y-88.29
X194.1Y-94.49
X194.1Y-94.94
X194.11Y-116.11
X194.14Y-116.64
X194.18Y-107.57
X194.21Y-109.15
X194.23Y-108.06
X194.23Y-108.59
X194.295Y-87.235
X194.3Y-87.93
X194.3Y-102.28
X194.345Y-119.545
X194.36Y-115.16
X194.415Y-88.81
X194.45Y-117.03
X194.48Y-120.4
X194.51Y-100.26
X194.52Y-100.74
X194.54Y-94.49
X194.56Y-86.015
X194.56Y-94.95
X194.585Y-89.265
X194.625Y-87.59
X194.68Y-116.62
X194.71Y-116.09
X194.72Y-86.525
X194.72Y-88.335
X194.82Y-102.29
X194.9Y-88.82
X194.995Y-87.94
X195.0Y-120.0
X195.0Y-121.0
X195.04Y-115.41
X195.07Y-86.18
X195.07Y-114.62
X195.075Y-86.94
X195.135Y-89.33
X195.2Y-116.64
X195.205Y-88.41
X195.28Y-116.1
X195.35Y-102.29
X195.375Y-86.61
X195.41Y-88.885
X195.425Y-89.79
X195.49Y-119.535
X195.5Y-120.5
X195.505Y-88.03
X195.525Y-87.295
X195.715Y-89.32
X195.73Y-101.325
X195.745Y-88.515
X195.775Y-111.05
X195.805Y-86.97
X195.81Y-99.055
X195.84Y-102.31
X195.995Y-89.78
X196.0Y-120.0
X196.0Y-121.0
X196.025Y-88.06
X196.115Y-88.865
X196.23Y-87.345
X196.32Y-88.43
X196.38Y-102.31
X196.42Y-89.31
X196.5Y-120.5
X196.505Y-119.51
X196.61Y-86.99
X196.651Y-115.131
X196.75Y-121.545
X196.775Y-87.47
X196.891Y-114.711
X196.92Y-101.79
X196.92Y-102.29
X197.0Y-120.0
X197.0Y-121.0
X197.02Y-86.27
X197.07Y-95.965
X197.08Y-89.435
X197.08Y-89.92
X197.11Y-101.025
X197.135Y-88.73
X197.155Y-88.085
X197.225Y-107.715
X197.23Y-122.05
X197.255Y-87.615
X197.38Y-100.64
X197.42Y-101.8
X197.42Y-102.32
X197.445Y-86.68
X197.46Y-89.08
X197.48Y-88.455
X197.5Y-120.5
X197.5Y-121.5
X197.505Y-89.645
X197.53Y-119.53
X197.55Y-95.955
X197.61Y-101.025
X197.695Y-107.69
X197.7Y-105.49
X197.885Y-87.1
X197.885Y-100.64
X197.94Y-102.3
X197.96Y-101.81
X198.0Y-120.0
X198.0Y-121.0
X198.0Y-122.0
X198.05Y-97.815
X198.095Y-93.955
X198.115Y-94.47
X198.275Y-87.53
X198.46Y-110.29
X198.48Y-110.78
X198.585Y-93.935
X198.6Y-111.525
X198.625Y-94.455
X198.635Y-94.97
X198.675Y-99.625
X198.96Y-110.28
X198.97Y-110.83
X199.27Y-88.3
X199.27Y-88.81
X199.78Y-90.42
X199.79Y-93.27
X200.04Y-93.78
X200.045Y-94.27
X200.18Y-94.77
X200.205Y-95.275
X200.29Y-86.795
X200.34Y-93.27
X200.5Y-101.82
X200.51Y-102.38
X200.51Y-110.28
X200.53Y-110.83
X200.59Y-93.8
X200.595Y-108.3
X200.6Y-86.4
X200.62Y-94.28
X200.63Y-109.35
X200.64Y-100.77
X200.74Y-94.77
X200.75Y-95.25
X200.87Y-93.28
X200.965Y-90.495
X201.06Y-108.025
X201.1Y-93.82
X201.1Y-103.075
X201.1Y-105.78
X201.1Y-110.32
X201.13Y-110.86
X201.14Y-101.82
X201.15Y-94.295
X201.18Y-100.23
X201.18Y-102.37
X201.19Y-100.78
X201.275Y-94.755
X201.305Y-95.305
X201.5Y-120.0
X201.5Y-121.0
X201.5Y-122.0
X201.6Y-95.95
X201.71Y-110.34
X201.72Y-101.825
X201.73Y-100.21
X201.73Y-110.85
X201.74Y-102.39
X201.77Y-100.74
X202.0Y-120.5
X202.0Y-121.5
X202.01Y-119.67
X202.015Y-86.545
X202.125Y-95.935
X202.2Y-92.415
X202.225Y-102.11
X202.255Y-122.03
X202.32Y-100.26
X202.32Y-100.77
X202.33Y-110.365
X202.36Y-110.865
X202.5Y-86.5
X202.5Y-120.0
X202.5Y-121.0
X202.54Y-90.5
X202.675Y-102.3
X202.685Y-101.82
X202.81Y-121.505
X202.92Y-100.27
X202.92Y-110.375
X202.95Y-100.81
X202.96Y-110.885
X203.0Y-120.5
X203.02Y-119.66
X203.185Y-101.8
X203.215Y-102.32
X203.425Y-109.995
X203.43Y-110.53
X203.49Y-100.85
X203.5Y-120.0
X203.5Y-121.0
X203.51Y-100.29
X203.69Y-93.27
X203.7Y-93.725
X203.735Y-101.81
X203.98Y-109.445
X203.99Y-100.59
X203.99Y-109.98
X204.0Y-120.5
X204.01Y-110.5
X204.02Y-119.66
X204.125Y-86.87
X204.15Y-94.15
X204.23Y-93.26
X204.5Y-86.5
X204.5Y-120.0
X204.5Y-121.0
X204.53Y-105.445
X204.57Y-107.72
X204.59Y-108.2
X204.6Y-90.64
X204.6Y-108.66
X204.755Y-95.36
X204.815Y-94.515
X204.93Y-94.925
X205.0Y-120.465
X205.02Y-119.545
X205.08Y-107.72
X205.08Y-108.2
X205.09Y-108.65
X205.195Y-90.53
X205.395Y-94.51
X205.4Y-102.975
X205.41Y-95.37
X205.415Y-121.055
X205.51Y-94.92
X205.55Y-107.98
X205.56Y-108.49
X205.73Y-88.47
X205.73Y-118.18
X205.825Y-121.655
X205.88Y-94.5
X205.9Y-113.725
X205.97Y-95.365
X206.03Y-94.93
X206.145Y-86.85
X206.2Y-121.085
X206.26Y-122.09
X206.3Y-118.19
X206.5Y-86.5
X206.63Y-121.635
X206.81Y-114.47
X206.81Y-114.96
X206.81Y-115.46
X206.9Y-101.29
X207.0Y-90.35
X207.035Y-122.09
X207.04Y-121.085
X207.3Y-111.6
X207.35Y-114.45
X207.36Y-114.97
X207.37Y-115.45
X207.775Y-113.74
X208.93Y-106.92
X208.975Y-95.19
X209.31Y-114.69
X209.33Y-94.84
X209.36Y-115.19
X209.36Y-115.82
X209.36Y-116.37
X209.405Y-106.785
X209.8Y-103.175
X209.82Y-113.73
X210.0Y-115.25
X210.01Y-114.68
X210.01Y-115.82
X210.01Y-116.38
X210.305Y-99.065
X210.36Y-100.27
X210.45Y-106.61
X210.46Y-105.825
X210.52Y-91.72
X210.77Y-103.67
X210.78Y-114.67
X210.79Y-115.23
X210.8Y-103.1
X210.8Y-116.35
X210.81Y-115.81
X210.83Y-117.14
X210.85Y-102.53
X211.0Y-92.18
X211.015Y-100.105
X211.03Y-95.85
X211.195Y-88.295
X211.21Y-90.23
X211.46Y-112.46
X211.475Y-95.86
X211.49Y-113.77
X211.64Y-107.95
X211.65Y-107.33
X211.945Y-95.86
X212.04Y-91.57
X212.11Y-103.5
X212.12Y-103.94
X212.13Y-104.39
X212.14Y-114.98
X212.15Y-98.46
X212.16Y-92.27
X212.165Y-94.44
X212.19Y-115.66
X212.2Y-96.32
X212.21Y-108.36
X212.22Y-100.555
X212.23Y-107.83
X212.26Y-107.32
X212.285Y-94.895
X212.365Y-114.415
X212.395Y-95.86
X212.44Y-116.48
X212.5Y-90.97
X212.72Y-112.74
X212.78Y-91.42
X212.79Y-108.08
X212.85Y-103.08
X212.85Y-107.5
X212.88Y-103.85
X212.905Y-95.85
X213.005Y-100.025
X213.03Y-90.96
X213.04Y-91.78
X213.13Y-103.48
X213.2Y-118.9
X213.32Y-91.41
X213.32Y-94.92
X213.33Y-95.38
X213.36Y-103.86
X213.375Y-95.85
X213.4Y-81.6
X213.4Y-108.09
X213.405Y-112.445
X213.41Y-103.02
X213.45Y-107.56
X213.56Y-90.99
X213.63Y-91.77
X213.64Y-103.47
X213.78Y-99.59
X213.785Y-111.155
X213.805Y-98.9
X213.86Y-103.87
X213.91Y-103.05
X213.92Y-91.43
X214.085Y-92.43
X214.09Y-90.99
X214.095Y-98.35
X214.12Y-103.46
X214.16Y-100.025
X214.17Y-99.22
X214.375Y-118.985
X214.43Y-110.4
X214.515Y-81.545
X214.7Y-103.81
X215.41Y-103.58
X215.415Y-95.17
X215.5Y-119.0
X215.56Y-90.94
X215.6Y-81.6
X215.62Y-112.83
X215.675Y-108.35
X215.74Y-111.275
X215.83Y-106.455
X215.85Y-95.715
X215.905Y-100.125
X216.01Y-112.11
X216.04Y-103.66
X216.3Y-89.075
X216.3Y-91.725
X216.36Y-113.11
X216.37Y-112.6
X216.4Y-95.825
X216.425Y-93.125
X216.475Y-97.175
X216.475Y-99.85
X216.525Y-101.125
X216.575Y-103.975
X216.625Y-118.84
X216.775Y-89.075
X216.79Y-82.05
X216.8Y-91.725
X216.85Y-107.825
X216.875Y-95.825
X216.9Y-93.125
X216.93Y-113.49
X216.95Y-97.175
X216.95Y-112.725
X217.0Y-101.125
X217.0Y-103.675
X217.0Y-105.225
X217.02Y-100.145
X217.025Y-99.68
X217.075Y-109.62
X217.1Y-110.125
X217.5Y-118.2
X217.52Y-99.975
X217.7Y-82.7
X218.09Y-117.505
X218.3Y-114.4
X218.35Y-83.7
X218.4Y-116.6
X218.47Y-115.45
X218.525Y-108.1
X218.545Y-84.625
X218.65Y-85.66
T2
X180.5Y-89.0
X180.5Y-91.0
X180.5Y-93.0
X180.5Y-95.0
X180.5Y-97.0
X180.5Y-99.0
X180.5Y-101.0
X180.5Y-103.0
X180.5Y-105.0
X180.5Y-107.0
X180.5Y-109.0
X180.5Y-111.0
X192.7Y-84.3
X193.375Y-120.1
X194.7Y-84.3
X196.7Y-84.3
X198.7Y-84.3
X200.7Y-84.3
X202.7Y-84.3
X204.7Y-84.3
X206.125Y-120.1
X206.7Y-84.3
X219.0Y-89.0
X219.0Y-91.0
X219.0Y-93.0
X219.0Y-95.0
X219.0Y-97.0
X219.0Y-99.0
X219.0Y-101.0
X219.0Y-103.0
X219.0Y-105.0
X219.0Y-107.0
X219.0Y-109.0
X219.0Y-111.0
T3
X178.075Y-90.0
X178.075Y-94.0
X178.075Y-98.0
X178.075Y-102.0
X178.075Y-106.0
X178.075Y-110.0
X184.5Y-85.0
X184.5Y-115.5
X195.3Y-123.5
X204.125Y-123.5
X215.0Y-85.0
X215.0Y-115.5
T4
X221.425Y-90.0
X221.425Y-94.0
X221.425Y-98.0
X221.425Y-102.0
X221.425Y-106.0
X221.425Y-110.0
M30
