%TF.GenerationSoftware,KiCad,Pcbnew,10.0.1*%
%TF.CreationDate,2026-05-30T20:28:34+05:30*%
%TF.ProjectId,VENDETTAESC,56454e44-4554-4544-9145-53432e6b6963,rev?*%
%TF.SameCoordinates,Original*%
%TF.FileFunction,Paste,Bot*%
%TF.FilePolarity,Positive*%
%FSLAX46Y46*%
G04 Gerber Fmt 4.6, Leading zero omitted, Abs format (unit mm)*
G04 Created by KiCad (PCBNEW 10.0.1) date 2026-05-30 20:28:34*
%MOMM*%
%LPD*%
G01*
G04 APERTURE LIST*
G04 Aperture macros list*
%AMRoundRect*
0 Rectangle with rounded corners*
0 $1 Rounding radius*
0 $2 $3 $4 $5 $6 $7 $8 $9 X,Y pos of 4 corners*
0 Add a 4 corners polygon primitive as box body*
4,1,4,$2,$3,$4,$5,$6,$7,$8,$9,$2,$3,0*
0 Add four circle primitives for the rounded corners*
1,1,$1+$1,$2,$3*
1,1,$1+$1,$4,$5*
1,1,$1+$1,$6,$7*
1,1,$1+$1,$8,$9*
0 Add four rect primitives between the rounded corners*
20,1,$1+$1,$2,$3,$4,$5,0*
20,1,$1+$1,$4,$5,$6,$7,0*
20,1,$1+$1,$6,$7,$8,$9,0*
20,1,$1+$1,$8,$9,$2,$3,0*%
G04 Aperture macros list end*
%ADD10C,0.000000*%
%ADD11RoundRect,0.140000X0.140000X0.170000X-0.140000X0.170000X-0.140000X-0.170000X0.140000X-0.170000X0*%
%ADD12RoundRect,0.225000X0.225000X0.250000X-0.225000X0.250000X-0.225000X-0.250000X0.225000X-0.250000X0*%
%ADD13RoundRect,0.135000X-0.185000X0.135000X-0.185000X-0.135000X0.185000X-0.135000X0.185000X0.135000X0*%
%ADD14RoundRect,0.250000X-0.475000X0.250000X-0.475000X-0.250000X0.475000X-0.250000X0.475000X0.250000X0*%
%ADD15RoundRect,0.150000X-0.150000X-0.625000X0.150000X-0.625000X0.150000X0.625000X-0.150000X0.625000X0*%
%ADD16RoundRect,0.250000X-0.350000X-0.650000X0.350000X-0.650000X0.350000X0.650000X-0.350000X0.650000X0*%
%ADD17RoundRect,0.135000X0.135000X0.185000X-0.135000X0.185000X-0.135000X-0.185000X0.135000X-0.185000X0*%
%ADD18RoundRect,0.303571X-0.546429X-1.746429X0.546429X-1.746429X0.546429X1.746429X-0.546429X1.746429X0*%
%ADD19RoundRect,0.135000X-0.135000X-0.185000X0.135000X-0.185000X0.135000X0.185000X-0.135000X0.185000X0*%
%ADD20RoundRect,0.140000X-0.140000X-0.170000X0.140000X-0.170000X0.140000X0.170000X-0.140000X0.170000X0*%
%ADD21RoundRect,0.250000X0.475000X-0.250000X0.475000X0.250000X-0.475000X0.250000X-0.475000X-0.250000X0*%
%ADD22RoundRect,0.140000X-0.170000X0.140000X-0.170000X-0.140000X0.170000X-0.140000X0.170000X0.140000X0*%
%ADD23RoundRect,0.225000X-0.225000X-0.250000X0.225000X-0.250000X0.225000X0.250000X-0.225000X0.250000X0*%
%ADD24RoundRect,0.135000X0.185000X-0.135000X0.185000X0.135000X-0.185000X0.135000X-0.185000X-0.135000X0*%
%ADD25R,0.711200X0.203200*%
%ADD26R,0.203200X0.711200*%
%ADD27R,2.895600X2.895600*%
%ADD28RoundRect,0.147500X-0.147500X-0.172500X0.147500X-0.172500X0.147500X0.172500X-0.147500X0.172500X0*%
%ADD29R,0.280010X0.700000*%
%ADD30R,0.700000X0.280010*%
%ADD31R,2.800000X2.800000*%
%ADD32R,0.590000X1.250000*%
%ADD33RoundRect,0.140000X0.170000X-0.140000X0.170000X0.140000X-0.170000X0.140000X-0.170000X-0.140000X0*%
%ADD34RoundRect,0.225000X0.250000X-0.225000X0.250000X0.225000X-0.250000X0.225000X-0.250000X-0.225000X0*%
%ADD35RoundRect,0.087500X0.250000X0.087500X-0.250000X0.087500X-0.250000X-0.087500X0.250000X-0.087500X0*%
%ADD36RoundRect,0.147500X0.147500X0.172500X-0.147500X0.172500X-0.147500X-0.172500X0.147500X-0.172500X0*%
%ADD37RoundRect,0.172500X-0.262500X-0.172500X0.262500X-0.172500X0.262500X0.172500X-0.262500X0.172500X0*%
%ADD38RoundRect,0.093750X-0.093750X-0.106250X0.093750X-0.106250X0.093750X0.106250X-0.093750X0.106250X0*%
G04 APERTURE END LIST*
D10*
%TO.C,U7*%
G36*
X205684330Y-107320000D02*
G01*
X204436530Y-107320000D01*
X204436530Y-106072200D01*
X205684330Y-106072200D01*
X205684330Y-107320000D01*
G37*
G36*
X205684330Y-108767800D02*
G01*
X204436530Y-108767800D01*
X204436530Y-107520000D01*
X205684330Y-107520000D01*
X205684330Y-108767800D01*
G37*
G36*
X207132130Y-107320000D02*
G01*
X205884330Y-107320000D01*
X205884330Y-106072200D01*
X207132130Y-106072200D01*
X207132130Y-107320000D01*
G37*
G36*
X207132130Y-108767800D02*
G01*
X205884330Y-108767800D01*
X205884330Y-107520000D01*
X207132130Y-107520000D01*
X207132130Y-108767800D01*
G37*
%TO.C,U4*%
G36*
X193180000Y-95690000D02*
G01*
X191932200Y-95690000D01*
X191932200Y-94442200D01*
X193180000Y-94442200D01*
X193180000Y-95690000D01*
G37*
G36*
X193180000Y-97137800D02*
G01*
X191932200Y-97137800D01*
X191932200Y-95890000D01*
X193180000Y-95890000D01*
X193180000Y-97137800D01*
G37*
G36*
X194627800Y-95690000D02*
G01*
X193380000Y-95690000D01*
X193380000Y-94442200D01*
X194627800Y-94442200D01*
X194627800Y-95690000D01*
G37*
G36*
X194627800Y-97137800D02*
G01*
X193380000Y-97137800D01*
X193380000Y-95890000D01*
X194627800Y-95890000D01*
X194627800Y-97137800D01*
G37*
%TO.C,U5*%
G36*
X193420000Y-108010000D02*
G01*
X192172200Y-108010000D01*
X192172200Y-106762200D01*
X193420000Y-106762200D01*
X193420000Y-108010000D01*
G37*
G36*
X193420000Y-109457800D02*
G01*
X192172200Y-109457800D01*
X192172200Y-108210000D01*
X193420000Y-108210000D01*
X193420000Y-109457800D01*
G37*
G36*
X194867800Y-108010000D02*
G01*
X193620000Y-108010000D01*
X193620000Y-106762200D01*
X194867800Y-106762200D01*
X194867800Y-108010000D01*
G37*
G36*
X194867800Y-109457800D02*
G01*
X193620000Y-109457800D01*
X193620000Y-108210000D01*
X194867800Y-108210000D01*
X194867800Y-109457800D01*
G37*
%TO.C,U6*%
G36*
X205900000Y-95700000D02*
G01*
X204652200Y-95700000D01*
X204652200Y-94452200D01*
X205900000Y-94452200D01*
X205900000Y-95700000D01*
G37*
G36*
X205900000Y-97147800D02*
G01*
X204652200Y-97147800D01*
X204652200Y-95900000D01*
X205900000Y-95900000D01*
X205900000Y-97147800D01*
G37*
G36*
X207347800Y-95700000D02*
G01*
X206100000Y-95700000D01*
X206100000Y-94452200D01*
X207347800Y-94452200D01*
X207347800Y-95700000D01*
G37*
G36*
X207347800Y-97147800D02*
G01*
X206100000Y-97147800D01*
X206100000Y-95900000D01*
X207347800Y-95900000D01*
X207347800Y-97147800D01*
G37*
%TD*%
D11*
%TO.C,C14*%
X202510000Y-108740000D03*
X201550000Y-108740000D03*
%TD*%
D12*
%TO.C,C68*%
X186800000Y-110400000D03*
X185250000Y-110400000D03*
%TD*%
D13*
%TO.C,R29*%
X195330000Y-99560000D03*
X195330000Y-100580000D03*
%TD*%
D14*
%TO.C,C4*%
X194100000Y-116475000D03*
X194100000Y-118375000D03*
%TD*%
D13*
%TO.C,R74*%
X215370000Y-95195000D03*
X215370000Y-96215000D03*
%TD*%
D15*
%TO.C,J6*%
X196270000Y-88470000D03*
X197270000Y-88470000D03*
X198270000Y-88470000D03*
X199270000Y-88470000D03*
X200270000Y-88470000D03*
X201270000Y-88470000D03*
X202270000Y-88470000D03*
X203270000Y-88470000D03*
D16*
X194970000Y-84595000D03*
X204570000Y-84595000D03*
%TD*%
D17*
%TO.C,R26*%
X197785000Y-111550000D03*
X196765000Y-111550000D03*
%TD*%
D18*
%TO.C,L1*%
X198560000Y-116400000D03*
X201260000Y-116400000D03*
%TD*%
D19*
%TO.C,R17*%
X196390000Y-98650000D03*
X197410000Y-98650000D03*
%TD*%
D11*
%TO.C,C62*%
X212934330Y-111910000D03*
X211974330Y-111910000D03*
%TD*%
D20*
%TO.C,C23*%
X188860000Y-90950000D03*
X189820000Y-90950000D03*
%TD*%
D13*
%TO.C,R94*%
X182650000Y-105065000D03*
X182650000Y-106085000D03*
%TD*%
D21*
%TO.C,C10*%
X188645000Y-115195000D03*
X188645000Y-113295000D03*
%TD*%
D22*
%TO.C,C71*%
X198340000Y-95715000D03*
X198340000Y-96675000D03*
%TD*%
D23*
%TO.C,C69*%
X212635000Y-93495000D03*
X214185000Y-93495000D03*
%TD*%
D17*
%TO.C,R69*%
X186860000Y-89525000D03*
X185840000Y-89525000D03*
%TD*%
D13*
%TO.C,R42*%
X191543900Y-99380000D03*
X191543900Y-100400000D03*
%TD*%
%TO.C,R68*%
X215915000Y-108380000D03*
X215915000Y-109400000D03*
%TD*%
D17*
%TO.C,R3*%
X204135000Y-118875000D03*
X203115000Y-118875000D03*
%TD*%
D19*
%TO.C,R65*%
X210715000Y-101725000D03*
X211735000Y-101725000D03*
%TD*%
D23*
%TO.C,C70*%
X213170000Y-105015000D03*
X214720000Y-105015000D03*
%TD*%
D11*
%TO.C,C25*%
X210380000Y-100750000D03*
X209420000Y-100750000D03*
%TD*%
D24*
%TO.C,R48*%
X207715000Y-92205000D03*
X207715000Y-91185000D03*
%TD*%
D13*
%TO.C,R91*%
X182725000Y-92890000D03*
X182725000Y-93910000D03*
%TD*%
D22*
%TO.C,C6*%
X206180000Y-116530000D03*
X206180000Y-117490000D03*
%TD*%
D13*
%TO.C,R30*%
X194375000Y-99490000D03*
X194375000Y-100510000D03*
%TD*%
D25*
%TO.C,U7*%
X203790430Y-108620000D03*
X203790430Y-108220001D03*
X203790430Y-107819999D03*
X203790430Y-107420000D03*
X203790430Y-107020001D03*
X203790430Y-106619999D03*
X203790430Y-106220000D03*
D26*
X204584330Y-105426100D03*
X204984329Y-105426100D03*
X205384331Y-105426100D03*
X205784330Y-105426100D03*
X206184329Y-105426100D03*
X206584331Y-105426100D03*
X206984330Y-105426100D03*
D25*
X207778230Y-106220000D03*
X207778230Y-106619999D03*
X207778230Y-107020001D03*
X207778230Y-107420000D03*
X207778230Y-107819999D03*
X207778230Y-108220001D03*
X207778230Y-108620000D03*
D26*
X206984330Y-109413900D03*
X206584331Y-109413900D03*
X206184329Y-109413900D03*
X205784330Y-109413900D03*
X205384331Y-109413900D03*
X204984329Y-109413900D03*
X204584330Y-109413900D03*
D27*
X205784330Y-107420000D03*
%TD*%
D22*
%TO.C,C2*%
X200975000Y-112345000D03*
X200975000Y-113305000D03*
%TD*%
D28*
%TO.C,FB3*%
X201955000Y-95595000D03*
X202925000Y-95595000D03*
%TD*%
D13*
%TO.C,R38*%
X203515000Y-102950000D03*
X203515000Y-103970000D03*
%TD*%
D20*
%TO.C,C78*%
X212350000Y-92290000D03*
X213310000Y-92290000D03*
%TD*%
D25*
%TO.C,U4*%
X195273900Y-94590000D03*
X195273900Y-94989999D03*
X195273900Y-95390001D03*
X195273900Y-95790000D03*
X195273900Y-96189999D03*
X195273900Y-96590001D03*
X195273900Y-96990000D03*
D26*
X194480000Y-97783900D03*
X194080001Y-97783900D03*
X193679999Y-97783900D03*
X193280000Y-97783900D03*
X192880001Y-97783900D03*
X192479999Y-97783900D03*
X192080000Y-97783900D03*
D25*
X191286100Y-96990000D03*
X191286100Y-96590001D03*
X191286100Y-96189999D03*
X191286100Y-95790000D03*
X191286100Y-95390001D03*
X191286100Y-94989999D03*
X191286100Y-94590000D03*
D26*
X192080000Y-93796100D03*
X192479999Y-93796100D03*
X192880001Y-93796100D03*
X193280000Y-93796100D03*
X193679999Y-93796100D03*
X194080001Y-93796100D03*
X194480000Y-93796100D03*
D27*
X193280000Y-95790000D03*
%TD*%
D24*
%TO.C,R43*%
X190602800Y-100391100D03*
X190602800Y-99371100D03*
%TD*%
D20*
%TO.C,C76*%
X212045000Y-103790000D03*
X213005000Y-103790000D03*
%TD*%
D24*
%TO.C,R41*%
X192485000Y-100408900D03*
X192485000Y-99388900D03*
%TD*%
D29*
%TO.C,U11*%
X211150064Y-106350470D03*
X211649936Y-106350470D03*
X212150064Y-106350470D03*
X212649936Y-106350470D03*
X213150064Y-106350470D03*
X213649936Y-106350470D03*
D30*
X214449530Y-107150064D03*
X214449530Y-107649936D03*
X214449530Y-108150064D03*
X214449530Y-108649936D03*
X214449530Y-109150064D03*
X214449530Y-109649936D03*
D29*
X213649936Y-110449530D03*
X213150064Y-110449530D03*
X212649936Y-110449530D03*
X212150064Y-110449530D03*
X211649936Y-110449530D03*
X211150064Y-110449530D03*
D30*
X210350470Y-109649936D03*
X210350470Y-109150064D03*
X210350470Y-108649936D03*
X210350470Y-108150064D03*
X210350470Y-107649936D03*
X210350470Y-107150064D03*
D31*
X212400000Y-108400000D03*
%TD*%
D17*
%TO.C,R24*%
X202530000Y-104965000D03*
X201510000Y-104965000D03*
%TD*%
D20*
%TO.C,C11*%
X196415000Y-93850000D03*
X197375000Y-93850000D03*
%TD*%
D32*
%TO.C,U2*%
X207400000Y-115097500D03*
X208350000Y-115097500D03*
X209300000Y-115097500D03*
X209300000Y-117607500D03*
X208350000Y-117607500D03*
X207400000Y-117607500D03*
%TD*%
D33*
%TO.C,C73*%
X201005000Y-97540000D03*
X201005000Y-96580000D03*
%TD*%
D19*
%TO.C,R10*%
X196560000Y-106615000D03*
X197580000Y-106615000D03*
%TD*%
D17*
%TO.C,R19*%
X202940000Y-93710000D03*
X201920000Y-93710000D03*
%TD*%
%TO.C,R23*%
X202945000Y-94650000D03*
X201925000Y-94650000D03*
%TD*%
D24*
%TO.C,R70*%
X184000000Y-96135000D03*
X184000000Y-95115000D03*
%TD*%
D20*
%TO.C,C12*%
X196590000Y-105685000D03*
X197550000Y-105685000D03*
%TD*%
D28*
%TO.C,FB4*%
X201550000Y-106860000D03*
X202520000Y-106860000D03*
%TD*%
D13*
%TO.C,R101*%
X216925000Y-109860000D03*
X216925000Y-110880000D03*
%TD*%
D11*
%TO.C,C13*%
X202905000Y-98510000D03*
X201945000Y-98510000D03*
%TD*%
%TO.C,C17*%
X202890000Y-96575000D03*
X201930000Y-96575000D03*
%TD*%
D17*
%TO.C,R61*%
X188730000Y-89525000D03*
X187710000Y-89525000D03*
%TD*%
D13*
%TO.C,R93*%
X182975000Y-101040000D03*
X182975000Y-102060000D03*
%TD*%
D24*
%TO.C,R46*%
X190355000Y-112580000D03*
X190355000Y-111560000D03*
%TD*%
D34*
%TO.C,C9*%
X190475000Y-115275000D03*
X190475000Y-113725000D03*
%TD*%
D25*
%TO.C,U5*%
X195513900Y-106910000D03*
X195513900Y-107309999D03*
X195513900Y-107710001D03*
X195513900Y-108110000D03*
X195513900Y-108509999D03*
X195513900Y-108910001D03*
X195513900Y-109310000D03*
D26*
X194720000Y-110103900D03*
X194320001Y-110103900D03*
X193919999Y-110103900D03*
X193520000Y-110103900D03*
X193120001Y-110103900D03*
X192719999Y-110103900D03*
X192320000Y-110103900D03*
D25*
X191526100Y-109310000D03*
X191526100Y-108910001D03*
X191526100Y-108509999D03*
X191526100Y-108110000D03*
X191526100Y-107710001D03*
X191526100Y-107309999D03*
X191526100Y-106910000D03*
D26*
X192320000Y-106116100D03*
X192719999Y-106116100D03*
X193120001Y-106116100D03*
X193520000Y-106116100D03*
X193919999Y-106116100D03*
X194320001Y-106116100D03*
X194720000Y-106116100D03*
D27*
X193520000Y-108110000D03*
%TD*%
D19*
%TO.C,R6*%
X196565000Y-104675000D03*
X197585000Y-104675000D03*
%TD*%
D25*
%TO.C,U6*%
X204006100Y-97000000D03*
X204006100Y-96600001D03*
X204006100Y-96199999D03*
X204006100Y-95800000D03*
X204006100Y-95400001D03*
X204006100Y-94999999D03*
X204006100Y-94600000D03*
D26*
X204800000Y-93806100D03*
X205199999Y-93806100D03*
X205600001Y-93806100D03*
X206000000Y-93806100D03*
X206399999Y-93806100D03*
X206800001Y-93806100D03*
X207200000Y-93806100D03*
D25*
X207993900Y-94600000D03*
X207993900Y-94999999D03*
X207993900Y-95400001D03*
X207993900Y-95800000D03*
X207993900Y-96199999D03*
X207993900Y-96600001D03*
X207993900Y-97000000D03*
D26*
X207200000Y-97793900D03*
X206800001Y-97793900D03*
X206399999Y-97793900D03*
X206000000Y-97793900D03*
X205600001Y-97793900D03*
X205199999Y-97793900D03*
X204800000Y-97793900D03*
D27*
X206000000Y-95800000D03*
%TD*%
D24*
%TO.C,R2*%
X200005000Y-113320000D03*
X200005000Y-112300000D03*
%TD*%
D20*
%TO.C,C64*%
X185730000Y-103020000D03*
X186690000Y-103020000D03*
%TD*%
D13*
%TO.C,R35*%
X203905000Y-91185000D03*
X203905000Y-92205000D03*
%TD*%
D24*
%TO.C,R62*%
X183675000Y-94260000D03*
X183675000Y-93240000D03*
%TD*%
D22*
%TO.C,C98*%
X216925000Y-111745000D03*
X216925000Y-112705000D03*
%TD*%
D13*
%TO.C,R33*%
X194145000Y-111505000D03*
X194145000Y-112525000D03*
%TD*%
%TO.C,R98*%
X216725000Y-97165000D03*
X216725000Y-98185000D03*
%TD*%
D17*
%TO.C,R25*%
X197920000Y-99590000D03*
X196900000Y-99590000D03*
%TD*%
D19*
%TO.C,R18*%
X196565000Y-110615000D03*
X197585000Y-110615000D03*
%TD*%
D17*
%TO.C,R57*%
X184985000Y-89540000D03*
X183965000Y-89540000D03*
%TD*%
D19*
%TO.C,R27*%
X201600000Y-92745000D03*
X202620000Y-92745000D03*
%TD*%
%TO.C,R67*%
X207790000Y-113750000D03*
X208810000Y-113750000D03*
%TD*%
D22*
%TO.C,C96*%
X216745000Y-102965000D03*
X216745000Y-103925000D03*
%TD*%
D19*
%TO.C,R21*%
X196390000Y-97705000D03*
X197410000Y-97705000D03*
%TD*%
D13*
%TO.C,R92*%
X182750000Y-96940000D03*
X182750000Y-97960000D03*
%TD*%
D22*
%TO.C,C93*%
X216550000Y-90915000D03*
X216550000Y-91875000D03*
%TD*%
D24*
%TO.C,R4*%
X205025000Y-119785000D03*
X205025000Y-118765000D03*
%TD*%
D19*
%TO.C,R59*%
X214425000Y-101720000D03*
X215445000Y-101720000D03*
%TD*%
D24*
%TO.C,R44*%
X192270000Y-112525000D03*
X192270000Y-111505000D03*
%TD*%
D35*
%TO.C,U1*%
X195742500Y-114120000D03*
X195742500Y-114620000D03*
X195742500Y-115120000D03*
X194317500Y-115120000D03*
X194317500Y-114620000D03*
X194317500Y-114120000D03*
%TD*%
D24*
%TO.C,R39*%
X204470000Y-103955000D03*
X204470000Y-102935000D03*
%TD*%
D36*
%TO.C,FB2*%
X197555000Y-107720000D03*
X196585000Y-107720000D03*
%TD*%
D33*
%TO.C,C21*%
X209445000Y-95115000D03*
X209445000Y-94155000D03*
%TD*%
D22*
%TO.C,C94*%
X216675000Y-95015000D03*
X216675000Y-95975000D03*
%TD*%
D24*
%TO.C,R51*%
X207325000Y-103685000D03*
X207325000Y-102665000D03*
%TD*%
D13*
%TO.C,R95*%
X182925000Y-109760000D03*
X182925000Y-110780000D03*
%TD*%
D22*
%TO.C,C20*%
X190025000Y-108695000D03*
X190025000Y-109655000D03*
%TD*%
D13*
%TO.C,R14*%
X192620000Y-102710000D03*
X192620000Y-103730000D03*
%TD*%
D24*
%TO.C,R40*%
X205425000Y-103960000D03*
X205425000Y-102940000D03*
%TD*%
D20*
%TO.C,C15*%
X196420000Y-96745000D03*
X197380000Y-96745000D03*
%TD*%
D11*
%TO.C,C18*%
X202515000Y-105935000D03*
X201555000Y-105935000D03*
%TD*%
D24*
%TO.C,R77*%
X200615000Y-109365000D03*
X200615000Y-108345000D03*
%TD*%
%TO.C,R64*%
X183650000Y-106360000D03*
X183650000Y-105340000D03*
%TD*%
D17*
%TO.C,R63*%
X188795000Y-101475000D03*
X187775000Y-101475000D03*
%TD*%
D22*
%TO.C,C90*%
X182970000Y-102905000D03*
X182970000Y-103865000D03*
%TD*%
D17*
%TO.C,R8*%
X202530000Y-109670000D03*
X201510000Y-109670000D03*
%TD*%
D22*
%TO.C,C72*%
X198475000Y-107720000D03*
X198475000Y-108680000D03*
%TD*%
%TO.C,C95*%
X216725000Y-99040000D03*
X216725000Y-100000000D03*
%TD*%
D17*
%TO.C,R16*%
X207550000Y-112465000D03*
X206530000Y-112465000D03*
%TD*%
%TO.C,R11*%
X202955000Y-97530000D03*
X201935000Y-97530000D03*
%TD*%
D33*
%TO.C,C74*%
X200610000Y-107455000D03*
X200610000Y-106495000D03*
%TD*%
D22*
%TO.C,C1*%
X199050000Y-112320000D03*
X199050000Y-113280000D03*
%TD*%
D13*
%TO.C,R13*%
X192980000Y-89660000D03*
X192980000Y-90680000D03*
%TD*%
%TO.C,R97*%
X216675000Y-93140000D03*
X216675000Y-94160000D03*
%TD*%
D11*
%TO.C,C77*%
X185900000Y-98790000D03*
X184940000Y-98790000D03*
%TD*%
D19*
%TO.C,R75*%
X209645000Y-113740000D03*
X210665000Y-113740000D03*
%TD*%
D20*
%TO.C,C63*%
X185070000Y-90895000D03*
X186030000Y-90895000D03*
%TD*%
%TO.C,C59*%
X186980000Y-90950000D03*
X187940000Y-90950000D03*
%TD*%
D11*
%TO.C,C75*%
X187080000Y-111605000D03*
X186120000Y-111605000D03*
%TD*%
D13*
%TO.C,R66*%
X215365000Y-97055000D03*
X215365000Y-98075000D03*
%TD*%
D14*
%TO.C,C5*%
X196095000Y-116490000D03*
X196095000Y-118390000D03*
%TD*%
D17*
%TO.C,R12*%
X202535000Y-107800000D03*
X201515000Y-107800000D03*
%TD*%
D24*
%TO.C,R49*%
X208650000Y-92205000D03*
X208650000Y-91185000D03*
%TD*%
D19*
%TO.C,R56*%
X205935000Y-113750000D03*
X206955000Y-113750000D03*
%TD*%
D20*
%TO.C,C24*%
X189490000Y-103020000D03*
X190450000Y-103020000D03*
%TD*%
D13*
%TO.C,R90*%
X183075000Y-88665000D03*
X183075000Y-89685000D03*
%TD*%
%TO.C,R31*%
X193425000Y-99390000D03*
X193425000Y-100410000D03*
%TD*%
%TO.C,R100*%
X216875000Y-105165000D03*
X216875000Y-106185000D03*
%TD*%
D22*
%TO.C,C97*%
X216900000Y-107045000D03*
X216900000Y-108005000D03*
%TD*%
D24*
%TO.C,R72*%
X183875000Y-108260000D03*
X183875000Y-107240000D03*
%TD*%
D22*
%TO.C,C87*%
X183075000Y-90540000D03*
X183075000Y-91500000D03*
%TD*%
D24*
%TO.C,R15*%
X206910000Y-101480000D03*
X206910000Y-100460000D03*
%TD*%
D17*
%TO.C,R7*%
X202945000Y-99475000D03*
X201925000Y-99475000D03*
%TD*%
D33*
%TO.C,C22*%
X209195000Y-106755000D03*
X209195000Y-105795000D03*
%TD*%
D19*
%TO.C,R22*%
X196565000Y-109660000D03*
X197585000Y-109660000D03*
%TD*%
D20*
%TO.C,C60*%
X187610000Y-103020000D03*
X188570000Y-103020000D03*
%TD*%
D11*
%TO.C,C26*%
X211054330Y-111910000D03*
X210094330Y-111910000D03*
%TD*%
D17*
%TO.C,R71*%
X186935000Y-101465000D03*
X185915000Y-101465000D03*
%TD*%
D22*
%TO.C,C88*%
X182725000Y-94765000D03*
X182725000Y-95725000D03*
%TD*%
D19*
%TO.C,R73*%
X212570000Y-101720000D03*
X213590000Y-101720000D03*
%TD*%
D11*
%TO.C,C65*%
X214140000Y-100730000D03*
X213180000Y-100730000D03*
%TD*%
D13*
%TO.C,R47*%
X206765000Y-91180000D03*
X206765000Y-92200000D03*
%TD*%
D11*
%TO.C,C61*%
X212270000Y-100730000D03*
X211310000Y-100730000D03*
%TD*%
D22*
%TO.C,C7*%
X192220000Y-116730000D03*
X192220000Y-117690000D03*
%TD*%
D24*
%TO.C,R52*%
X208275000Y-103685000D03*
X208275000Y-102665000D03*
%TD*%
D29*
%TO.C,U9*%
X188735607Y-108769530D03*
X188235735Y-108769530D03*
X187735607Y-108769530D03*
X187235735Y-108769530D03*
X186735607Y-108769530D03*
X186235735Y-108769530D03*
D30*
X185436141Y-107969936D03*
X185436141Y-107470064D03*
X185436141Y-106969936D03*
X185436141Y-106470064D03*
X185436141Y-105969936D03*
X185436141Y-105470064D03*
D29*
X186235735Y-104670470D03*
X186735607Y-104670470D03*
X187235735Y-104670470D03*
X187735607Y-104670470D03*
X188235735Y-104670470D03*
X188735607Y-104670470D03*
D30*
X189535201Y-105470064D03*
X189535201Y-105969936D03*
X189535201Y-106470064D03*
X189535201Y-106969936D03*
X189535201Y-107470064D03*
X189535201Y-107969936D03*
D31*
X187485671Y-106720000D03*
%TD*%
D22*
%TO.C,C92*%
X182925000Y-111645000D03*
X182925000Y-112605000D03*
%TD*%
D17*
%TO.C,R53*%
X190585000Y-89510000D03*
X189565000Y-89510000D03*
%TD*%
D22*
%TO.C,C19*%
X189850000Y-96095000D03*
X189850000Y-97055000D03*
%TD*%
D19*
%TO.C,R55*%
X208855000Y-101725000D03*
X209875000Y-101725000D03*
%TD*%
D29*
%TO.C,U8*%
X188409936Y-96325201D03*
X187910064Y-96325201D03*
X187409936Y-96325201D03*
X186910064Y-96325201D03*
X186409936Y-96325201D03*
X185910064Y-96325201D03*
D30*
X185110470Y-95525607D03*
X185110470Y-95025735D03*
X185110470Y-94525607D03*
X185110470Y-94025735D03*
X185110470Y-93525607D03*
X185110470Y-93025735D03*
D29*
X185910064Y-92226141D03*
X186409936Y-92226141D03*
X186910064Y-92226141D03*
X187409936Y-92226141D03*
X187910064Y-92226141D03*
X188409936Y-92226141D03*
D30*
X189209530Y-93025735D03*
X189209530Y-93525607D03*
X189209530Y-94025735D03*
X189209530Y-94525607D03*
X189209530Y-95025735D03*
X189209530Y-95525607D03*
D31*
X187160000Y-94275671D03*
%TD*%
D24*
%TO.C,R36*%
X204860000Y-92215000D03*
X204860000Y-91195000D03*
%TD*%
D22*
%TO.C,C3*%
X210820000Y-116250000D03*
X210820000Y-117210000D03*
%TD*%
D17*
%TO.C,R28*%
X202095000Y-103060000D03*
X201075000Y-103060000D03*
%TD*%
D29*
%TO.C,U10*%
X210815734Y-95040470D03*
X211315606Y-95040470D03*
X211815734Y-95040470D03*
X212315606Y-95040470D03*
X212815734Y-95040470D03*
X213315606Y-95040470D03*
D30*
X214115200Y-95840064D03*
X214115200Y-96339936D03*
X214115200Y-96840064D03*
X214115200Y-97339936D03*
X214115200Y-97840064D03*
X214115200Y-98339936D03*
D29*
X213315606Y-99139530D03*
X212815734Y-99139530D03*
X212315606Y-99139530D03*
X211815734Y-99139530D03*
X211315606Y-99139530D03*
X210815734Y-99139530D03*
D30*
X210016140Y-98339936D03*
X210016140Y-97840064D03*
X210016140Y-97339936D03*
X210016140Y-96840064D03*
X210016140Y-96339936D03*
X210016140Y-95840064D03*
D31*
X212065670Y-97090000D03*
%TD*%
D13*
%TO.C,R34*%
X193205000Y-111495000D03*
X193205000Y-112515000D03*
%TD*%
%TO.C,R76*%
X215830000Y-106475000D03*
X215830000Y-107495000D03*
%TD*%
D12*
%TO.C,C67*%
X186535000Y-97575000D03*
X184985000Y-97575000D03*
%TD*%
D11*
%TO.C,C66*%
X214814330Y-111910000D03*
X213854330Y-111910000D03*
%TD*%
D17*
%TO.C,R58*%
X185060000Y-101950000D03*
X184040000Y-101950000D03*
%TD*%
D13*
%TO.C,R45*%
X191330000Y-111565000D03*
X191330000Y-112585000D03*
%TD*%
D19*
%TO.C,R9*%
X196390000Y-94795000D03*
X197410000Y-94795000D03*
%TD*%
%TO.C,R5*%
X196380000Y-92905000D03*
X197400000Y-92905000D03*
%TD*%
D22*
%TO.C,C89*%
X182750000Y-98815000D03*
X182750000Y-99775000D03*
%TD*%
D33*
%TO.C,C8*%
X191795000Y-114985000D03*
X191795000Y-114025000D03*
%TD*%
D13*
%TO.C,R32*%
X195100000Y-111515000D03*
X195100000Y-112535000D03*
%TD*%
D22*
%TO.C,C91*%
X182625000Y-106945000D03*
X182625000Y-107905000D03*
%TD*%
D20*
%TO.C,C16*%
X196600000Y-108665000D03*
X197560000Y-108665000D03*
%TD*%
D24*
%TO.C,R37*%
X205800000Y-92195000D03*
X205800000Y-91175000D03*
%TD*%
D17*
%TO.C,R54*%
X190660000Y-101475000D03*
X189640000Y-101475000D03*
%TD*%
D13*
%TO.C,R99*%
X216750000Y-101090000D03*
X216750000Y-102110000D03*
%TD*%
D37*
%TO.C,U3*%
X189620000Y-116840000D03*
X189620000Y-117640000D03*
D38*
X188732500Y-117890000D03*
X188732500Y-117240000D03*
X188732500Y-116590000D03*
X190507500Y-116590000D03*
X190507500Y-117240000D03*
X190507500Y-117890000D03*
%TD*%
D13*
%TO.C,R50*%
X206375000Y-102675000D03*
X206375000Y-103695000D03*
%TD*%
D19*
%TO.C,R60*%
X211515000Y-113750000D03*
X212535000Y-113750000D03*
%TD*%
D17*
%TO.C,R20*%
X202530000Y-104020000D03*
X201510000Y-104020000D03*
%TD*%
D36*
%TO.C,FB1*%
X197395000Y-95815000D03*
X196425000Y-95815000D03*
%TD*%
D13*
%TO.C,R96*%
X216550000Y-89040000D03*
X216550000Y-90060000D03*
%TD*%
M02*
