M48
; DRILL file KiCad 10.0.1 date 2026-05-23T03:13:28
; FORMAT={-:-/ absolute / metric / decimal}
; #@! TF.CreationDate,2026-05-23T03:13:28+05:30
; #@! TF.GenerationSoftware,Kicad,Pcbnew,10.0.1
; #@! TF.FileFunction,Plated,1,6,PTH
FMAT,2
METRIC
; #@! TA.AperFunction,Plated,PTH,ViaDrill
T1C0.300
; #@! TA.AperFunction,Plated,PTH,ComponentDrill
T2C0.400
; #@! TA.AperFunction,Plated,PTH,ViaDrill
T3C0.450
; #@! TA.AperFunction,Plated,PTH,ComponentDrill
T4C4.000
%
G90
G05
T1
X181.26Y-95.82
X181.55Y-96.18
X181.73Y-95.73
X181.94Y-108.02
X182.03Y-96.16
X182.25Y-95.63
X182.28Y-99.66
X182.29Y-91.965
X182.31Y-100.12
X182.33Y-107.77
X182.35Y-108.23
X182.54Y-91.42
X182.56Y-103.9
X182.77Y-107.72
X182.79Y-108.2
X182.81Y-99.59
X182.81Y-100.1
X182.855Y-91.88
X182.96Y-97.32
X182.98Y-97.32
X182.98Y-104.13
X183.0Y-103.63
X183.105Y-91.305
X183.29Y-100.39
X183.295Y-91.715
X183.4Y-94.96
X183.43Y-107.24
X183.5Y-104.09
X183.51Y-103.61
X183.79Y-112.9
X183.96Y-111.17
X184.32Y-91.815
X184.32Y-99.82
X184.34Y-91.26
X184.39Y-112.16
X184.43Y-107.41
X184.43Y-107.93
X184.455Y-95.605
X184.46Y-95.12
X184.52Y-99.31
X184.62Y-109.31
X184.63Y-111.74
X184.71Y-112.8
X184.72Y-104.06
X184.74Y-103.39
X184.77Y-95.99
X184.78Y-107.68
X184.79Y-108.16
X184.81Y-99.81
X184.87Y-112.14
X185.05Y-99.31
X185.1Y-111.73
X185.11Y-90.65
X185.185Y-91.655
X185.29Y-96.0
X185.33Y-99.81
X185.34Y-112.14
X185.53Y-112.99
X185.58Y-111.73
X185.61Y-99.3
X185.74Y-104.13
X185.75Y-102.99
X185.75Y-103.68
X185.84Y-99.82
X185.85Y-112.15
X185.87Y-94.8
X185.87Y-95.27
X185.88Y-95.76
X186.0Y-91.57
X186.05Y-108.27
X186.33Y-94.67
X186.35Y-107.07
X186.55Y-99.4
X186.79Y-94.7
X186.79Y-107.07
X186.91Y-92.36
X186.95Y-98.84
X187.11Y-111.92
X187.12Y-111.35
X187.22Y-106.89
X187.22Y-107.33
X187.23Y-94.53
X187.24Y-94.99
X187.25Y-104.68
X187.31Y-100.1
X187.38Y-98.49
X187.46Y-99.0
X187.56Y-112.22
X187.57Y-111.73
X187.64Y-106.88
X187.64Y-116.48
X187.66Y-107.35
X187.67Y-117.32
X187.71Y-95.0
X187.89Y-117.77
X187.94Y-116.9
X188.0Y-110.71
X188.05Y-98.59
X188.13Y-107.35
X188.15Y-95.01
X188.15Y-116.49
X188.16Y-117.33
X188.19Y-99.48
X188.3Y-86.91
X188.39Y-117.79
X188.44Y-116.88
X188.59Y-102.12
X188.63Y-107.35
X188.66Y-117.32
X188.71Y-103.8
X188.73Y-116.48
X188.85Y-90.92
X188.9Y-96.05
X188.9Y-117.77
X188.95Y-116.89
X189.01Y-85.91
X189.04Y-91.99
X189.15Y-99.79
X189.16Y-117.3
X189.2Y-103.62
X189.23Y-108.63
X189.24Y-109.39
X189.24Y-109.89
X189.26Y-104.94
X189.43Y-117.75
X189.57Y-99.38
X189.63Y-96.05
X189.91Y-85.91
X189.99Y-117.49
X190.05Y-117.05
X190.06Y-116.58
X190.14Y-96.03
X190.27Y-117.83
X190.32Y-111.58
X190.49Y-116.58
X190.52Y-117.06
X190.55Y-117.51
X191.1Y-85.95
X191.13Y-116.52
X191.17Y-117.73
X191.7Y-117.73
X191.72Y-116.01
X191.74Y-116.57
X191.78Y-117.13
X192.16Y-92.59
X192.19Y-114.96
X192.25Y-97.01
X192.26Y-96.54
X192.28Y-96.03
X192.29Y-112.85
X192.29Y-116.02
X192.3Y-116.56
X192.34Y-120.975
X192.37Y-122.0
X192.39Y-101.67
X192.48Y-101.04
X192.48Y-117.52
X192.5Y-118.01
X192.64Y-116.9
X192.69Y-115.0
X192.7Y-121.49
X192.76Y-96.02
X192.78Y-96.53
X192.81Y-97.0
X192.91Y-116.01
X192.94Y-116.54
X193.08Y-117.51
X193.085Y-120.975
X193.1Y-118.01
X193.105Y-121.96
X193.145Y-87.875
X193.16Y-115.12
X193.29Y-116.9
X193.315Y-88.375
X193.49Y-87.44
X193.51Y-115.99
X193.54Y-112.8
X193.54Y-116.55
X193.55Y-121.48
X193.62Y-115.16
X193.63Y-107.55
X193.63Y-117.54
X193.635Y-87.985
X193.65Y-118.03
X193.66Y-108.06
X193.67Y-108.6
X193.68Y-109.15
X193.715Y-88.665
X193.72Y-120.03
X193.77Y-89.875
X193.825Y-87.09
X193.89Y-116.93
X193.94Y-120.95
X193.955Y-87.62
X193.995Y-88.29
X194.08Y-116.0
X194.09Y-115.14
X194.1Y-94.49
X194.1Y-94.94
X194.11Y-116.55
X194.18Y-107.57
X194.21Y-109.15
X194.23Y-108.06
X194.23Y-108.59
X194.23Y-117.51
X194.27Y-118.02
X194.295Y-87.235
X194.3Y-87.93
X194.3Y-102.28
X194.34Y-112.89
X194.345Y-119.545
X194.415Y-88.81
X194.48Y-120.4
X194.5Y-116.92
X194.51Y-100.26
X194.52Y-100.74
X194.54Y-94.49
X194.56Y-86.015
X194.56Y-94.95
X194.585Y-89.265
X194.625Y-87.59
X194.72Y-86.525
X194.72Y-88.335
X194.82Y-102.29
X194.9Y-88.82
X194.995Y-87.94
X195.0Y-120.0
X195.0Y-121.0
X195.02Y-100.74
X195.07Y-86.18
X195.075Y-86.94
X195.135Y-89.33
X195.18Y-115.2
X195.205Y-88.41
X195.35Y-102.29
X195.375Y-86.61
X195.39Y-93.16
X195.395Y-93.695
X195.41Y-88.885
X195.425Y-89.79
X195.49Y-119.535
X195.5Y-120.5
X195.505Y-88.03
X195.525Y-87.295
X195.64Y-115.2
X195.715Y-89.32
X195.72Y-101.28
X195.745Y-88.515
X195.805Y-86.97
X195.84Y-102.31
X195.88Y-100.77
X195.89Y-100.27
X195.995Y-89.78
X196.0Y-120.0
X196.0Y-121.0
X196.005Y-93.18
X196.025Y-88.06
X196.035Y-93.685
X196.08Y-115.18
X196.115Y-88.865
X196.23Y-87.345
X196.32Y-88.43
X196.38Y-102.31
X196.42Y-89.31
X196.5Y-112.88
X196.5Y-120.5
X196.505Y-119.51
X196.61Y-86.99
X196.615Y-93.19
X196.75Y-121.545
X196.775Y-87.47
X196.92Y-101.79
X196.92Y-102.29
X197.0Y-120.0
X197.0Y-121.0
X197.02Y-86.27
X197.08Y-89.435
X197.08Y-89.92
X197.135Y-88.73
X197.155Y-88.085
X197.17Y-100.87
X197.19Y-93.18
X197.195Y-93.66
X197.23Y-122.05
X197.25Y-96.105
X197.255Y-87.615
X197.365Y-107.74
X197.4Y-100.42
X197.42Y-101.8
X197.42Y-102.32
X197.445Y-86.68
X197.46Y-89.08
X197.48Y-88.455
X197.5Y-120.5
X197.5Y-121.5
X197.505Y-89.645
X197.53Y-119.53
X197.67Y-100.87
X197.7Y-105.49
X197.725Y-93.645
X197.885Y-87.1
X197.94Y-102.3
X197.95Y-110.27
X197.96Y-101.81
X197.96Y-110.78
X197.97Y-100.42
X197.975Y-99.625
X198.0Y-120.0
X198.0Y-121.0
X198.0Y-122.0
X198.02Y-115.48
X198.05Y-97.815
X198.05Y-114.99
X198.275Y-87.53
X198.3Y-95.09
X198.44Y-113.95
X198.46Y-110.29
X198.48Y-110.78
X198.59Y-114.98
X198.6Y-115.47
X198.96Y-110.28
X198.97Y-110.83
X199.16Y-114.97
X199.17Y-115.48
X199.68Y-114.98
X199.68Y-115.5
X199.78Y-90.42
X199.79Y-93.27
X199.93Y-114.63
X200.04Y-93.78
X200.2Y-114.98
X200.21Y-115.51
X200.29Y-86.795
X200.34Y-93.27
X200.395Y-94.85
X200.42Y-95.355
X200.5Y-101.82
X200.51Y-102.38
X200.51Y-110.28
X200.53Y-110.83
X200.59Y-93.8
X200.6Y-86.4
X200.64Y-100.77
X200.87Y-93.28
X200.955Y-94.85
X200.965Y-90.495
X200.965Y-95.33
X201.09Y-110.26
X201.1Y-93.82
X201.1Y-105.78
X201.12Y-104.98
X201.12Y-110.8
X201.14Y-101.82
X201.18Y-100.23
X201.18Y-102.37
X201.19Y-100.78
X201.39Y-113.9
X201.41Y-93.28
X201.49Y-94.835
X201.5Y-120.0
X201.5Y-121.0
X201.5Y-122.0
X201.52Y-95.385
X201.7Y-110.28
X201.72Y-110.79
X201.73Y-100.21
X201.73Y-113.26
X201.77Y-100.74
X201.89Y-108.16
X202.0Y-120.5
X202.0Y-121.5
X202.015Y-86.545
X202.025Y-112.86
X202.1Y-96.0
X202.11Y-92.41
X202.18Y-113.47
X202.23Y-102.23
X202.255Y-122.03
X202.31Y-114.005
X202.32Y-100.26
X202.32Y-100.77
X202.33Y-110.29
X202.36Y-110.79
X202.5Y-86.5
X202.5Y-120.0
X202.5Y-121.0
X202.525Y-113.01
X202.54Y-90.5
X202.67Y-113.58
X202.68Y-102.42
X202.69Y-101.94
X202.81Y-121.505
X202.86Y-114.15
X202.92Y-100.27
X202.92Y-110.3
X202.95Y-100.81
X202.96Y-110.81
X202.995Y-119.585
X203.0Y-120.5
X203.02Y-113.155
X203.11Y-113.7
X203.19Y-101.92
X203.22Y-102.44
X203.485Y-113.355
X203.49Y-100.85
X203.5Y-120.0
X203.5Y-121.0
X203.51Y-100.29
X203.69Y-93.27
X203.74Y-101.93
X203.78Y-102.42
X203.82Y-93.75
X203.99Y-100.59
X204.0Y-120.5
X204.005Y-119.56
X204.125Y-86.87
X204.23Y-93.26
X204.36Y-93.76
X204.5Y-86.5
X204.5Y-120.0
X204.5Y-121.0
X204.57Y-107.72
X204.59Y-108.2
X204.6Y-90.64
X204.6Y-108.66
X204.69Y-103.12
X204.82Y-95.36
X204.88Y-94.515
X205.0Y-120.465
X205.02Y-119.545
X205.08Y-107.72
X205.08Y-108.2
X205.08Y-115.35
X205.09Y-108.65
X205.09Y-115.94
X205.1Y-114.75
X205.175Y-94.935
X205.18Y-90.66
X205.31Y-113.7
X205.415Y-121.055
X205.43Y-113.1
X205.46Y-94.51
X205.475Y-95.37
X205.48Y-115.1
X205.5Y-115.63
X205.55Y-107.98
X205.56Y-108.49
X205.73Y-88.47
X205.74Y-114.13
X205.755Y-94.93
X205.82Y-120.47
X205.825Y-121.655
X205.84Y-119.57
X205.87Y-115.32
X205.9Y-113.6
X205.9Y-115.94
X205.945Y-94.5
X205.95Y-113.03
X206.035Y-95.365
X206.145Y-86.85
X206.2Y-121.085
X206.26Y-122.09
X206.275Y-94.94
X206.31Y-114.01
X206.4Y-113.4
X206.485Y-94.495
X206.5Y-86.5
X206.55Y-95.405
X206.63Y-121.635
X206.9Y-101.29
X207.035Y-122.09
X207.04Y-121.085
X207.3Y-111.6
X207.39Y-90.88
X207.81Y-116.69
X207.81Y-117.23
X207.82Y-115.01
X208.29Y-117.25
X208.32Y-116.69
X208.93Y-106.92
X208.95Y-115.01
X209.235Y-94.865
X209.37Y-106.75
X209.74Y-94.87
X209.99Y-103.19
X210.29Y-99.04
X210.35Y-115.0
X210.36Y-100.27
X210.45Y-105.56
X210.45Y-106.61
X210.52Y-91.72
X210.76Y-102.54
X210.77Y-103.67
X210.98Y-103.16
X211.0Y-92.18
X211.03Y-100.12
X211.07Y-114.96
X211.195Y-88.295
X211.21Y-90.23
X211.29Y-95.86
X211.46Y-112.46
X211.76Y-95.86
X211.87Y-107.78
X211.95Y-107.27
X212.04Y-91.57
X212.11Y-103.5
X212.12Y-98.49
X212.12Y-103.94
X212.13Y-104.39
X212.14Y-114.98
X212.16Y-94.27
X212.19Y-108.15
X212.19Y-115.66
X212.2Y-96.32
X212.2Y-108.62
X212.21Y-95.86
X212.21Y-100.57
X212.21Y-109.05
X212.26Y-95.14
X212.29Y-94.69
X212.4Y-91.01
X212.43Y-114.32
X212.44Y-116.48
X212.47Y-107.75
X212.56Y-99.97
X212.59Y-107.25
X212.68Y-91.46
X212.72Y-95.85
X212.72Y-112.74
X212.76Y-103.96
X212.93Y-91.0
X212.94Y-91.82
X213.01Y-103.59
X213.05Y-107.95
X213.19Y-95.85
X213.2Y-107.4
X213.22Y-91.45
X213.24Y-103.97
X213.33Y-95.38
X213.37Y-99.99
X213.41Y-112.42
X213.46Y-91.03
X213.52Y-103.58
X213.53Y-91.81
X213.74Y-103.98
X213.82Y-91.47
X213.85Y-92.9
X213.86Y-99.21
X213.9Y-111.28
X213.99Y-91.03
X214.0Y-103.57
X214.11Y-98.35
X214.17Y-99.57
X214.19Y-100.02
X214.45Y-109.69
X214.7Y-103.81
X215.28Y-95.77
X215.41Y-103.58
X215.52Y-95.05
X215.56Y-90.94
X215.79Y-108.4
X215.81Y-99.56
X216.01Y-112.11
X216.04Y-103.66
T2
X180.5Y-89.0
X180.5Y-91.0
X180.5Y-93.0
X180.5Y-95.0
X180.5Y-97.0
X180.5Y-99.0
X180.5Y-101.0
X180.5Y-103.0
X180.5Y-105.0
X180.5Y-107.0
X180.5Y-109.0
X180.5Y-111.0
X192.7Y-84.3
X192.8Y-120.1
X194.7Y-84.3
X196.7Y-84.3
X198.7Y-84.3
X200.7Y-84.3
X202.7Y-84.3
X204.7Y-84.3
X206.7Y-84.3
X206.7Y-120.1
X219.0Y-89.0
X219.0Y-91.0
X219.0Y-93.0
X219.0Y-95.0
X219.0Y-97.0
X219.0Y-99.0
X219.0Y-101.0
X219.0Y-103.0
X219.0Y-105.0
X219.0Y-107.0
X219.0Y-109.0
X219.0Y-111.0
T3
X180.8Y-85.8
X181.0Y-115.205
X181.1Y-84.2
X181.1Y-114.4
X181.1Y-116.2
X181.41Y-117.22
X181.7Y-82.7
X182.1Y-118.1
X182.585Y-82.085
X183.075Y-118.84
X183.7Y-81.7
X184.2Y-119.2
X185.14Y-81.645
X185.51Y-119.32
X186.4Y-81.7
X186.7Y-119.1
X213.2Y-118.9
X213.4Y-81.6
X214.375Y-118.985
X214.515Y-81.545
X215.5Y-119.0
X215.6Y-81.6
X216.625Y-118.84
X216.79Y-82.05
X217.5Y-118.2
X217.7Y-82.7
X218.09Y-117.505
X218.3Y-114.4
X218.35Y-83.7
X218.4Y-116.6
X218.47Y-115.45
X218.545Y-84.625
X218.65Y-85.66
T4
X184.5Y-85.0
X184.5Y-115.5
X215.0Y-85.0
X215.0Y-115.5
M30
