%TF.GenerationSoftware,KiCad,Pcbnew,10.0.1*%
%TF.CreationDate,2026-05-30T18:57:59+05:30*%
%TF.ProjectId,VENDETTAESC,56454e44-4554-4544-9145-53432e6b6963,rev?*%
%TF.SameCoordinates,Original*%
%TF.FileFunction,Legend,Bot*%
%TF.FilePolarity,Positive*%
%FSLAX46Y46*%
G04 Gerber Fmt 4.6, Leading zero omitted, Abs format (unit mm)*
G04 Created by KiCad (PCBNEW 10.0.1) date 2026-05-30 18:57:59*
%MOMM*%
%LPD*%
G01*
G04 APERTURE LIST*
%ADD10C,0.100000*%
%ADD11C,0.150000*%
%ADD12C,0.120000*%
%ADD13C,0.000000*%
%ADD14C,0.152400*%
%ADD15C,0.200000*%
%ADD16C,0.059995*%
%ADD17C,0.127000*%
G04 APERTURE END LIST*
D10*
X195427003Y-93140000D02*
G75*
G02*
X195062997Y-93140000I-182003J0D01*
G01*
X195062997Y-93140000D02*
G75*
G02*
X195427003Y-93140000I182003J0D01*
G01*
X195684189Y-105450000D02*
G75*
G02*
X195345811Y-105450000I-169189J0D01*
G01*
X195345811Y-105450000D02*
G75*
G02*
X195684189Y-105450000I169189J0D01*
G01*
X204031177Y-110185000D02*
G75*
G02*
X203668823Y-110185000I-181177J0D01*
G01*
X203668823Y-110185000D02*
G75*
G02*
X204031177Y-110185000I181177J0D01*
G01*
X204219189Y-98565000D02*
G75*
G02*
X203880811Y-98565000I-169189J0D01*
G01*
X203880811Y-98565000D02*
G75*
G02*
X204219189Y-98565000I169189J0D01*
G01*
G36*
X211254759Y-85284583D02*
G01*
X211100886Y-86188342D01*
X211078476Y-86188342D01*
X210903599Y-85284583D01*
X210704968Y-85284583D01*
X210965209Y-86415000D01*
X211231006Y-86415000D01*
X211470242Y-85284583D01*
X211254759Y-85284583D01*
G37*
G36*
X209886510Y-85284583D02*
G01*
X209886510Y-85425877D01*
X210359364Y-85425877D01*
X210359364Y-85778442D01*
X210015226Y-85778442D01*
X210015226Y-85916927D01*
X210359364Y-85916927D01*
X210359364Y-86276514D01*
X209886510Y-86276514D01*
X209886510Y-86415000D01*
X210579000Y-86415000D01*
X210579000Y-85284583D01*
X209886510Y-85284583D01*
G37*
G36*
X209067991Y-85284583D02*
G01*
X209067991Y-85425877D01*
X209435943Y-85425877D01*
X209458542Y-85429094D01*
X209477953Y-85438517D01*
X209494420Y-85453220D01*
X209508728Y-85473504D01*
X209519574Y-85497009D01*
X209527595Y-85524551D01*
X209533885Y-85585368D01*
X209530563Y-85633338D01*
X209521419Y-85671937D01*
X209507323Y-85702909D01*
X209486729Y-85728524D01*
X209463323Y-85742863D01*
X209435943Y-85747667D01*
X209247083Y-85747667D01*
X209192316Y-85753842D01*
X209146393Y-85771481D01*
X209106647Y-85799656D01*
X209073609Y-85837243D01*
X209048349Y-85882246D01*
X209029584Y-85937260D01*
X209018674Y-85996828D01*
X209014869Y-86063839D01*
X209019021Y-86136393D01*
X209030989Y-86201653D01*
X209050834Y-86262382D01*
X209076418Y-86312845D01*
X209109175Y-86355960D01*
X209146393Y-86387705D01*
X209189033Y-86408173D01*
X209235908Y-86415000D01*
X209703145Y-86415000D01*
X209703145Y-86276514D01*
X209326828Y-86276514D01*
X209302983Y-86272825D01*
X209282070Y-86261859D01*
X209264211Y-86244932D01*
X209248487Y-86221987D01*
X209236517Y-86195236D01*
X209227543Y-86162513D01*
X209220521Y-86089057D01*
X209222619Y-86044616D01*
X209228215Y-86010655D01*
X209239066Y-85981110D01*
X209254776Y-85959609D01*
X209276075Y-85943676D01*
X209304480Y-85932376D01*
X209337392Y-85926285D01*
X209382821Y-85923949D01*
X209504515Y-85923949D01*
X209559536Y-85917993D01*
X209606669Y-85900868D01*
X209647697Y-85873295D01*
X209681530Y-85836510D01*
X209707480Y-85792143D01*
X209726959Y-85737897D01*
X209738339Y-85678682D01*
X209742346Y-85610586D01*
X209738415Y-85544650D01*
X209726959Y-85483946D01*
X209707979Y-85427272D01*
X209683606Y-85380448D01*
X209652224Y-85340507D01*
X209615706Y-85310472D01*
X209573731Y-85291101D01*
X209526924Y-85284583D01*
X209067991Y-85284583D01*
G37*
G36*
X208187984Y-85284583D02*
G01*
X208187984Y-85425877D01*
X208550319Y-85425877D01*
X208572826Y-85429405D01*
X208592329Y-85439860D01*
X208608957Y-85455779D01*
X208623775Y-85476985D01*
X208635295Y-85501414D01*
X208644108Y-85530840D01*
X208651069Y-85595198D01*
X208651069Y-86108597D01*
X208644108Y-86170879D01*
X208624508Y-86224734D01*
X208610048Y-86246374D01*
X208593000Y-86262531D01*
X208572933Y-86273006D01*
X208550319Y-86276514D01*
X208187984Y-86276514D01*
X208187984Y-86415000D01*
X208644047Y-86415000D01*
X208690936Y-86408964D01*
X208732219Y-86391247D01*
X208768229Y-86363407D01*
X208799385Y-86326156D01*
X208823796Y-86282133D01*
X208842739Y-86228948D01*
X208854181Y-86171625D01*
X208858126Y-86108597D01*
X208858126Y-85595198D01*
X208854170Y-85530852D01*
X208842739Y-85472772D01*
X208823626Y-85418902D01*
X208798653Y-85374159D01*
X208766903Y-85336287D01*
X208730814Y-85308396D01*
X208689717Y-85290590D01*
X208644047Y-85284583D01*
X208187984Y-85284583D01*
G37*
G36*
X211264590Y-87198201D02*
G01*
X211091116Y-87878173D01*
X211084094Y-87878173D01*
X210910621Y-87198201D01*
X210688176Y-87198201D01*
X210948417Y-88095000D01*
X211223984Y-88095000D01*
X211485629Y-87198201D01*
X211264590Y-87198201D01*
G37*
G36*
X210085141Y-86964583D02*
G01*
X210039409Y-86970729D01*
X209997702Y-86989068D01*
X209961084Y-87017844D01*
X209929192Y-87056967D01*
X209904184Y-87102989D01*
X209885106Y-87157657D01*
X209873663Y-87216324D01*
X209869719Y-87280755D01*
X209873685Y-87345016D01*
X209885106Y-87402510D01*
X209904049Y-87455696D01*
X209928459Y-87499719D01*
X209959731Y-87536758D01*
X209996297Y-87564077D01*
X210038110Y-87581300D01*
X210085141Y-87587158D01*
X210299220Y-87587158D01*
X210327405Y-87592503D01*
X210349797Y-87608251D01*
X210367834Y-87636687D01*
X210380768Y-87683118D01*
X210385926Y-87755013D01*
X210385926Y-87956514D01*
X209865505Y-87956514D01*
X209865505Y-88095000D01*
X210598600Y-88095000D01*
X210598600Y-87755013D01*
X210595001Y-87690669D01*
X210584617Y-87632648D01*
X210566878Y-87578819D01*
X210543340Y-87534706D01*
X210512888Y-87497451D01*
X210477578Y-87469677D01*
X210436727Y-87451977D01*
X210388735Y-87445863D01*
X210177465Y-87445863D01*
X210149392Y-87440742D01*
X210125325Y-87425366D01*
X210104070Y-87397625D01*
X210089443Y-87364348D01*
X210080112Y-87324445D01*
X210076775Y-87276542D01*
X210080099Y-87228682D01*
X210089419Y-87188553D01*
X210104070Y-87154848D01*
X210125378Y-87126636D01*
X210149446Y-87111055D01*
X210177465Y-87105877D01*
X210493637Y-87105877D01*
X210493637Y-86964583D01*
X210085141Y-86964583D01*
G37*
G36*
X209249891Y-87907543D02*
G01*
X209249891Y-88095000D01*
X209505919Y-88095000D01*
X209505919Y-87907543D01*
X209249891Y-87907543D01*
G37*
G36*
X208721998Y-86970571D02*
G01*
X208763665Y-86988396D01*
X208800357Y-87016343D01*
X208832236Y-87054159D01*
X208857376Y-87098879D01*
X208877055Y-87152772D01*
X208888989Y-87210878D01*
X208893114Y-87275198D01*
X208893114Y-87788597D01*
X208889023Y-87850372D01*
X208877055Y-87907543D01*
X208857580Y-87960865D01*
X208832969Y-88005484D01*
X208801636Y-88043233D01*
X208765069Y-88071247D01*
X208723217Y-88088982D01*
X208676226Y-88095000D01*
X208369884Y-88095000D01*
X208324109Y-88089025D01*
X208282445Y-88071247D01*
X208245746Y-88043263D01*
X208213874Y-88005484D01*
X208188863Y-87960789D01*
X208169788Y-87907543D01*
X208158324Y-87850396D01*
X208154401Y-87788597D01*
X208343262Y-87788597D01*
X208345222Y-87821612D01*
X208350956Y-87852283D01*
X208360255Y-87881092D01*
X208371960Y-87905406D01*
X208387046Y-87926455D01*
X208404872Y-87942531D01*
X208425312Y-87953079D01*
X208446821Y-87956514D01*
X208597885Y-87956514D01*
X208343262Y-87247172D01*
X208343262Y-87788597D01*
X208154401Y-87788597D01*
X208154401Y-87275198D01*
X208158541Y-87210880D01*
X208170521Y-87152772D01*
X208187604Y-87105877D01*
X208442608Y-87105877D01*
X208701444Y-87822180D01*
X208701444Y-87275198D01*
X208694483Y-87210840D01*
X208685671Y-87181414D01*
X208674150Y-87156985D01*
X208659332Y-87135779D01*
X208642704Y-87119860D01*
X208623201Y-87109405D01*
X208600694Y-87105877D01*
X208442608Y-87105877D01*
X208187604Y-87105877D01*
X208190152Y-87098881D01*
X208215279Y-87054159D01*
X208247109Y-87016346D01*
X208283789Y-86988396D01*
X208325274Y-86970529D01*
X208369884Y-86964583D01*
X208676226Y-86964583D01*
X208721998Y-86970571D01*
G37*
D11*
X202799829Y-108274819D02*
X202799829Y-108512914D01*
X203037924Y-108417676D02*
X202799829Y-108512914D01*
X202799829Y-108512914D02*
X202561734Y-108417676D01*
X202942686Y-108703390D02*
X202799829Y-108512914D01*
X202799829Y-108512914D02*
X202656972Y-108703390D01*
X202799830Y-109365180D02*
X202799830Y-109127085D01*
X202561735Y-109222323D02*
X202799830Y-109127085D01*
X202799830Y-109127085D02*
X203037925Y-109222323D01*
X202656973Y-108936609D02*
X202799830Y-109127085D01*
X202799830Y-109127085D02*
X202942687Y-108936609D01*
X196264499Y-93844819D02*
X196264499Y-94082914D01*
X196502594Y-93987676D02*
X196264499Y-94082914D01*
X196264499Y-94082914D02*
X196026404Y-93987676D01*
X196407356Y-94273390D02*
X196264499Y-94082914D01*
X196264499Y-94082914D02*
X196121642Y-94273390D01*
X196264499Y-93844819D02*
X196264499Y-94082914D01*
X196502594Y-93987676D02*
X196264499Y-94082914D01*
X196264499Y-94082914D02*
X196026404Y-93987676D01*
X196407356Y-94273390D02*
X196264499Y-94082914D01*
X196264499Y-94082914D02*
X196121642Y-94273390D01*
X196504499Y-106164819D02*
X196504499Y-106402914D01*
X196742594Y-106307676D02*
X196504499Y-106402914D01*
X196504499Y-106402914D02*
X196266404Y-106307676D01*
X196647356Y-106593390D02*
X196504499Y-106402914D01*
X196504499Y-106402914D02*
X196361642Y-106593390D01*
X196504499Y-106164819D02*
X196504499Y-106402914D01*
X196742594Y-106307676D02*
X196504499Y-106402914D01*
X196504499Y-106402914D02*
X196266404Y-106307676D01*
X196647356Y-106593390D02*
X196504499Y-106402914D01*
X196504499Y-106402914D02*
X196361642Y-106593390D01*
X203015499Y-96654819D02*
X203015499Y-96892914D01*
X203253594Y-96797676D02*
X203015499Y-96892914D01*
X203015499Y-96892914D02*
X202777404Y-96797676D01*
X203158356Y-97083390D02*
X203015499Y-96892914D01*
X203015499Y-96892914D02*
X202872642Y-97083390D01*
X203015500Y-97745180D02*
X203015500Y-97507085D01*
X202777405Y-97602323D02*
X203015500Y-97507085D01*
X203015500Y-97507085D02*
X203253595Y-97602323D01*
X202872643Y-97316609D02*
X203015500Y-97507085D01*
X203015500Y-97507085D02*
X203158357Y-97316609D01*
%TO.C,C14*%
D12*
X202137836Y-108380000D02*
X201922164Y-108380000D01*
X202137836Y-109100000D02*
X201922164Y-109100000D01*
%TO.C,C68*%
X186165580Y-109890000D02*
X185884420Y-109890000D01*
X186165580Y-110910000D02*
X185884420Y-110910000D01*
%TO.C,R29*%
X194950000Y-99846359D02*
X194950000Y-100153641D01*
X195710000Y-99846359D02*
X195710000Y-100153641D01*
%TO.C,C4*%
X193365000Y-117163748D02*
X193365000Y-117686252D01*
X194835000Y-117163748D02*
X194835000Y-117686252D01*
%TO.C,R74*%
X214990000Y-95551359D02*
X214990000Y-95858641D01*
X215750000Y-95551359D02*
X215750000Y-95858641D01*
%TO.C,J6*%
X194660000Y-85755000D02*
X194660000Y-88255000D01*
X194660000Y-88255000D02*
X195710000Y-88255000D01*
X195710000Y-88255000D02*
X195710000Y-89245000D01*
X195830000Y-83785000D02*
X203710000Y-83785000D01*
X204880000Y-85755000D02*
X204880000Y-88255000D01*
X204880000Y-88255000D02*
X203830000Y-88255000D01*
%TO.C,R26*%
X197428641Y-111170000D02*
X197121359Y-111170000D01*
X197428641Y-111930000D02*
X197121359Y-111930000D01*
%TO.C,L1*%
X197750000Y-118710000D02*
X202070000Y-118710000D01*
X202070000Y-114090000D02*
X197750000Y-114090000D01*
D13*
%TO.C,vlogo*%
G36*
X199555467Y-103771632D02*
G01*
X199588685Y-103792105D01*
X199598705Y-103802268D01*
X199621529Y-103826908D01*
X199648062Y-103856754D01*
X199674800Y-103887722D01*
X199698237Y-103915729D01*
X199714870Y-103936689D01*
X199721193Y-103946519D01*
X199718387Y-103950019D01*
X199703211Y-103956639D01*
X199700550Y-103957216D01*
X199678646Y-103959126D01*
X199642885Y-103960191D01*
X199597567Y-103960489D01*
X199546994Y-103960098D01*
X199495466Y-103959096D01*
X199447284Y-103957561D01*
X199406748Y-103955569D01*
X199378160Y-103953201D01*
X199365820Y-103950532D01*
X199366993Y-103938510D01*
X199378727Y-103915379D01*
X199398025Y-103885505D01*
X199421868Y-103853234D01*
X199447240Y-103822913D01*
X199471122Y-103798885D01*
X199480795Y-103790969D01*
X199519200Y-103771271D01*
X199555467Y-103771632D01*
G37*
G36*
X198011289Y-101473627D02*
G01*
X198008364Y-101494224D01*
X198001081Y-101523863D01*
X197997741Y-101536955D01*
X197989605Y-101576801D01*
X197981400Y-101625813D01*
X197974477Y-101676257D01*
X197970883Y-101703940D01*
X197962219Y-101752892D01*
X197951594Y-101788293D01*
X197937729Y-101814971D01*
X197918147Y-101840587D01*
X197865777Y-101888392D01*
X197803977Y-101923489D01*
X197797401Y-101926372D01*
X197766530Y-101942902D01*
X197743375Y-101959606D01*
X197725181Y-101973686D01*
X197698608Y-101987952D01*
X197693265Y-101990020D01*
X197684941Y-101995508D01*
X197687029Y-102003482D01*
X197701538Y-102017223D01*
X197730478Y-102040014D01*
X197759398Y-102063111D01*
X197787675Y-102087276D01*
X197805910Y-102104711D01*
X197825403Y-102126250D01*
X197763771Y-102119496D01*
X197757582Y-102118804D01*
X197720416Y-102114396D01*
X197670073Y-102108162D01*
X197612376Y-102100831D01*
X197553151Y-102093132D01*
X197486719Y-102084536D01*
X197408836Y-102074711D01*
X197331832Y-102065215D01*
X197265448Y-102057260D01*
X197207889Y-102049941D01*
X197140259Y-102040251D01*
X197076134Y-102030065D01*
X197023984Y-102020668D01*
X196972760Y-102010823D01*
X196912056Y-101999623D01*
X196845209Y-101987635D01*
X196775512Y-101975419D01*
X196706262Y-101963534D01*
X196640753Y-101952539D01*
X196582281Y-101942994D01*
X196534140Y-101935459D01*
X196499625Y-101930493D01*
X196482032Y-101928654D01*
X196466714Y-101926950D01*
X196429195Y-101917676D01*
X196381403Y-101901872D01*
X196328397Y-101881273D01*
X196275236Y-101857618D01*
X196251858Y-101845429D01*
X196212340Y-101820387D01*
X196178415Y-101793724D01*
X196154375Y-101768985D01*
X196144512Y-101749711D01*
X196144148Y-101743756D01*
X196144188Y-101715190D01*
X196145807Y-101680619D01*
X196148479Y-101648896D01*
X196151680Y-101628871D01*
X196154065Y-101623238D01*
X196175038Y-101601691D01*
X196213425Y-101579485D01*
X196266836Y-101557640D01*
X196332882Y-101537173D01*
X196409171Y-101519104D01*
X196415109Y-101517942D01*
X196466046Y-101510649D01*
X196533765Y-101504339D01*
X196615000Y-101499108D01*
X196706488Y-101495052D01*
X196804962Y-101492267D01*
X196907159Y-101490848D01*
X197009814Y-101490893D01*
X197109661Y-101492496D01*
X197203437Y-101495753D01*
X197276745Y-101498719D01*
X197380466Y-101501651D01*
X197483094Y-101503199D01*
X197582200Y-101503413D01*
X197675355Y-101502345D01*
X197760128Y-101500047D01*
X197834091Y-101496570D01*
X197894815Y-101491966D01*
X197939870Y-101486286D01*
X197966827Y-101479582D01*
X197975738Y-101476016D01*
X197998806Y-101468780D01*
X198010462Y-101468311D01*
X198011289Y-101473627D01*
G37*
G36*
X200469027Y-103504931D02*
G01*
X200467526Y-103519152D01*
X200454064Y-103540759D01*
X200427453Y-103571777D01*
X200386504Y-103614232D01*
X200342693Y-103656570D01*
X200271909Y-103715720D01*
X200200618Y-103761925D01*
X200122994Y-103798737D01*
X200033210Y-103829710D01*
X200020147Y-103833581D01*
X199985754Y-103842789D01*
X199962371Y-103846002D01*
X199943419Y-103843589D01*
X199922325Y-103835918D01*
X199912989Y-103831478D01*
X199885593Y-103815342D01*
X199853141Y-103793490D01*
X199820109Y-103769276D01*
X199790973Y-103746055D01*
X199770209Y-103727179D01*
X199762293Y-103716003D01*
X199764058Y-103712107D01*
X199777291Y-103697206D01*
X199799227Y-103677548D01*
X199804924Y-103672718D01*
X199828375Y-103646625D01*
X199832107Y-103626244D01*
X199816029Y-103611206D01*
X199780045Y-103601138D01*
X199768785Y-103599362D01*
X199745192Y-103597672D01*
X199724173Y-103601618D01*
X199699122Y-103613051D01*
X199663438Y-103633822D01*
X199622502Y-103655759D01*
X199578215Y-103675027D01*
X199541147Y-103686896D01*
X199519645Y-103691436D01*
X199497127Y-103693810D01*
X199476532Y-103690532D01*
X199451170Y-103680270D01*
X199414350Y-103661697D01*
X199406685Y-103657775D01*
X199371151Y-103640764D01*
X199342427Y-103628810D01*
X199326133Y-103624295D01*
X199316881Y-103625851D01*
X199310988Y-103637262D01*
X199320829Y-103658334D01*
X199345874Y-103687380D01*
X199359041Y-103700896D01*
X199373132Y-103719530D01*
X199376274Y-103736699D01*
X199371248Y-103760403D01*
X199362301Y-103780840D01*
X199335632Y-103815307D01*
X199298784Y-103847104D01*
X199257506Y-103870655D01*
X199224560Y-103877852D01*
X199172450Y-103872982D01*
X199109440Y-103853062D01*
X199036774Y-103818506D01*
X198955699Y-103769733D01*
X198939771Y-103758534D01*
X198902596Y-103728750D01*
X198862382Y-103692960D01*
X198823984Y-103655767D01*
X198792257Y-103621776D01*
X198772055Y-103595589D01*
X198771198Y-103594035D01*
X198771598Y-103575812D01*
X198785202Y-103559462D01*
X198806177Y-103552370D01*
X198809865Y-103552032D01*
X198829650Y-103542655D01*
X198848876Y-103525045D01*
X198851864Y-103520531D01*
X200274431Y-103520531D01*
X200286322Y-103524950D01*
X200300732Y-103527843D01*
X200334765Y-103528966D01*
X200366595Y-103523852D01*
X200390147Y-103513829D01*
X200399348Y-103500226D01*
X200396465Y-103494519D01*
X200381367Y-103495830D01*
X200372994Y-103498538D01*
X200345725Y-103504802D01*
X200312010Y-103510611D01*
X200299853Y-103512444D01*
X200278272Y-103516736D01*
X200274431Y-103520531D01*
X198851864Y-103520531D01*
X198861846Y-103505454D01*
X198862864Y-103490138D01*
X198862394Y-103489447D01*
X198850364Y-103483498D01*
X198824686Y-103482367D01*
X198782156Y-103485883D01*
X198774509Y-103486711D01*
X198674410Y-103492349D01*
X198589332Y-103486169D01*
X198517259Y-103467669D01*
X198456176Y-103436347D01*
X198404067Y-103391702D01*
X198384072Y-103365888D01*
X198364923Y-103327964D01*
X198354942Y-103290264D01*
X198355371Y-103258047D01*
X198367451Y-103236574D01*
X198381156Y-103229649D01*
X198414736Y-103219751D01*
X198461337Y-103209985D01*
X198516602Y-103200905D01*
X198576171Y-103193066D01*
X198635685Y-103187025D01*
X198690784Y-103183336D01*
X198737110Y-103182556D01*
X198770304Y-103185239D01*
X198777169Y-103186219D01*
X198809566Y-103188395D01*
X198856924Y-103189572D01*
X198915095Y-103189828D01*
X198979929Y-103189237D01*
X199047276Y-103187877D01*
X199112988Y-103185824D01*
X199172914Y-103183153D01*
X199222906Y-103179941D01*
X199258814Y-103176264D01*
X199275810Y-103173011D01*
X199312055Y-103157970D01*
X199349334Y-103129084D01*
X199382524Y-103101297D01*
X199440918Y-103066857D01*
X199500501Y-103051731D01*
X199564408Y-103055351D01*
X199635774Y-103077147D01*
X199671994Y-103092583D01*
X199709416Y-103111516D01*
X199745899Y-103134341D01*
X199786761Y-103164438D01*
X199837321Y-103205185D01*
X199842198Y-103209188D01*
X199871327Y-103232112D01*
X199893897Y-103248275D01*
X199905368Y-103254393D01*
X199906918Y-103254791D01*
X199921660Y-103263573D01*
X199946733Y-103281512D01*
X199977710Y-103305481D01*
X200014798Y-103332895D01*
X200054914Y-103354304D01*
X200095116Y-103364149D01*
X200142471Y-103364982D01*
X200149708Y-103364697D01*
X200181891Y-103364279D01*
X200224879Y-103364467D01*
X200271421Y-103365248D01*
X200291055Y-103365789D01*
X200331917Y-103368165D01*
X200360893Y-103373006D01*
X200384280Y-103381709D01*
X200408376Y-103395675D01*
X200422068Y-103404710D01*
X200441379Y-103420636D01*
X200448416Y-103435820D01*
X200447171Y-103456524D01*
X200446562Y-103481576D01*
X200456637Y-103494733D01*
X200459757Y-103496070D01*
X200464105Y-103500226D01*
X200469027Y-103504931D01*
G37*
G36*
X200518778Y-103547815D02*
G01*
X200522649Y-103571339D01*
X200521655Y-103583234D01*
X200512837Y-103621244D01*
X200495892Y-103673005D01*
X200472028Y-103735581D01*
X200442455Y-103806034D01*
X200408382Y-103881429D01*
X200371018Y-103958830D01*
X200331574Y-104035299D01*
X200318029Y-104061100D01*
X200287968Y-104120523D01*
X200257139Y-104183740D01*
X200230438Y-104240800D01*
X200213949Y-104276892D01*
X200191558Y-104325283D01*
X200171724Y-104367490D01*
X200157380Y-104397233D01*
X200148704Y-104416434D01*
X200141080Y-104439692D01*
X200141552Y-104450872D01*
X200146261Y-104451457D01*
X200162283Y-104439212D01*
X200185549Y-104408512D01*
X200215785Y-104359785D01*
X200252714Y-104293463D01*
X200296060Y-104209975D01*
X200319635Y-104163468D01*
X200349330Y-104105246D01*
X200376620Y-104052107D01*
X200399232Y-104008479D01*
X200414890Y-103978786D01*
X200415326Y-103977974D01*
X200433384Y-103944148D01*
X200457740Y-103898232D01*
X200485256Y-103846152D01*
X200512795Y-103793834D01*
X200526397Y-103767933D01*
X200562634Y-103699188D01*
X200591222Y-103646243D01*
X200613666Y-103607325D01*
X200631472Y-103580659D01*
X200646147Y-103564472D01*
X200659196Y-103556989D01*
X200672125Y-103556438D01*
X200686441Y-103561044D01*
X200703648Y-103569034D01*
X200705070Y-103569720D01*
X200738670Y-103593146D01*
X200764848Y-103624346D01*
X200781235Y-103658453D01*
X200785461Y-103690601D01*
X200775157Y-103715922D01*
X200765650Y-103729441D01*
X200748463Y-103758321D01*
X200727032Y-103797146D01*
X200703932Y-103841377D01*
X200679931Y-103887919D01*
X200601605Y-104031301D01*
X200517944Y-104172866D01*
X200430385Y-104310694D01*
X200340367Y-104442866D01*
X200249325Y-104567461D01*
X200158697Y-104682562D01*
X200069922Y-104786247D01*
X199984436Y-104876599D01*
X199903676Y-104951696D01*
X199829081Y-105009621D01*
X199795732Y-105030229D01*
X199749048Y-105054208D01*
X199701571Y-105074439D01*
X199659293Y-105088416D01*
X199628208Y-105093632D01*
X199628055Y-105093632D01*
X199614597Y-105090647D01*
X199606825Y-105079754D01*
X199604396Y-105057905D01*
X199606968Y-105022056D01*
X199614198Y-104969160D01*
X199621656Y-104915751D01*
X199629385Y-104852350D01*
X199636493Y-104786553D01*
X199642548Y-104722912D01*
X199647117Y-104665977D01*
X199649771Y-104620302D01*
X199650079Y-104590436D01*
X199649992Y-104588936D01*
X199644214Y-104559672D01*
X199633379Y-104538252D01*
X199627780Y-104529205D01*
X199620462Y-104499456D01*
X199619065Y-104461408D01*
X199623560Y-104422754D01*
X199633918Y-104391183D01*
X199644488Y-104364303D01*
X199649267Y-104337845D01*
X199651388Y-104320028D01*
X199660727Y-104308348D01*
X199681681Y-104300084D01*
X199718652Y-104292349D01*
X199807166Y-104272872D01*
X199922084Y-104237023D01*
X200026909Y-104191970D01*
X200116783Y-104139577D01*
X200118251Y-104138560D01*
X200142880Y-104117754D01*
X200156186Y-104099280D01*
X200156579Y-104086622D01*
X200142471Y-104083264D01*
X200137048Y-104084048D01*
X200126294Y-104086296D01*
X200109803Y-104090477D01*
X200085249Y-104097250D01*
X200050307Y-104107277D01*
X200002653Y-104121216D01*
X199939961Y-104139727D01*
X199859906Y-104163471D01*
X199813381Y-104177080D01*
X199755836Y-104192781D01*
X199707539Y-104203856D01*
X199662356Y-104211468D01*
X199614152Y-104216783D01*
X199556791Y-104220963D01*
X199501917Y-104223551D01*
X199443077Y-104224537D01*
X199392558Y-104223534D01*
X199356427Y-104220552D01*
X199342730Y-104218134D01*
X199289529Y-104204074D01*
X199225994Y-104182012D01*
X199157550Y-104154112D01*
X199089619Y-104122536D01*
X199027625Y-104089445D01*
X198997435Y-104073000D01*
X198963674Y-104058495D01*
X198945161Y-104055906D01*
X198941958Y-104064038D01*
X198954130Y-104081691D01*
X198981743Y-104107668D01*
X199024860Y-104140772D01*
X199072136Y-104172312D01*
X199191662Y-104236585D01*
X199323095Y-104287847D01*
X199413064Y-104317002D01*
X199433552Y-104371762D01*
X199443329Y-104400829D01*
X199452420Y-104448248D01*
X199450870Y-104496743D01*
X199438924Y-104554711D01*
X199433728Y-104576626D01*
X199430223Y-104599931D01*
X199429361Y-104625813D01*
X199431244Y-104658708D01*
X199435972Y-104703052D01*
X199443645Y-104763283D01*
X199452637Y-104832524D01*
X199461962Y-104908387D01*
X199468377Y-104967638D01*
X199471993Y-105012389D01*
X199472920Y-105044755D01*
X199471269Y-105066848D01*
X199467151Y-105080782D01*
X199460676Y-105088670D01*
X199442827Y-105095446D01*
X199405706Y-105093725D01*
X199355880Y-105079344D01*
X199295073Y-105052679D01*
X199264156Y-105035579D01*
X199226786Y-105009161D01*
X199186631Y-104973670D01*
X199139054Y-104925321D01*
X199111293Y-104894200D01*
X199067138Y-104840047D01*
X199019563Y-104777512D01*
X198971969Y-104711356D01*
X198927755Y-104646341D01*
X198890320Y-104587227D01*
X198863064Y-104538778D01*
X198849560Y-104515598D01*
X198826587Y-104481216D01*
X198800869Y-104446302D01*
X198788080Y-104429350D01*
X198747457Y-104370460D01*
X198700338Y-104295951D01*
X198648081Y-104208146D01*
X198592048Y-104109367D01*
X198533598Y-104001938D01*
X198474090Y-103888181D01*
X198461838Y-103862846D01*
X198451823Y-103835826D01*
X198445455Y-103806235D01*
X198441512Y-103768080D01*
X198438767Y-103715367D01*
X198438166Y-103699107D01*
X198437594Y-103644207D01*
X198439989Y-103607930D01*
X198445305Y-103591138D01*
X198447162Y-103590077D01*
X198461795Y-103594812D01*
X198485244Y-103612199D01*
X198514592Y-103639237D01*
X198546920Y-103672922D01*
X198579309Y-103710252D01*
X198608841Y-103748224D01*
X198632598Y-103783836D01*
X198639179Y-103794889D01*
X198682102Y-103866559D01*
X198716660Y-103923250D01*
X198744507Y-103967460D01*
X198767298Y-104001683D01*
X198786688Y-104028417D01*
X198804331Y-104050157D01*
X198821882Y-104069400D01*
X198869371Y-104118914D01*
X198836649Y-104054093D01*
X198829052Y-104039565D01*
X198804764Y-103996434D01*
X198775577Y-103947742D01*
X198746237Y-103901500D01*
X198735734Y-103885479D01*
X198684064Y-103804995D01*
X198643920Y-103739053D01*
X198614504Y-103686132D01*
X198595016Y-103644711D01*
X198584655Y-103613268D01*
X198582623Y-103590283D01*
X198586892Y-103568478D01*
X198598442Y-103558350D01*
X198623893Y-103554344D01*
X198655423Y-103554498D01*
X198682515Y-103564143D01*
X198705558Y-103586974D01*
X198729380Y-103626284D01*
X198743443Y-103652830D01*
X198767624Y-103698606D01*
X198790221Y-103741517D01*
X198806192Y-103771793D01*
X198826026Y-103808169D01*
X198842087Y-103834507D01*
X198857863Y-103855845D01*
X198876843Y-103877221D01*
X198902518Y-103903674D01*
X198909064Y-103910358D01*
X198924245Y-103925725D01*
X198937928Y-103938161D01*
X198952742Y-103948833D01*
X198971314Y-103958903D01*
X198996274Y-103969536D01*
X199030251Y-103981897D01*
X199075875Y-103997150D01*
X199135773Y-104016458D01*
X199212576Y-104040987D01*
X199232756Y-104047407D01*
X199293798Y-104066068D01*
X199344556Y-104079492D01*
X199390159Y-104088280D01*
X199435735Y-104093030D01*
X199486412Y-104094343D01*
X199547317Y-104092818D01*
X199623579Y-104089055D01*
X199702468Y-104083962D01*
X199789381Y-104075709D01*
X199860094Y-104065305D01*
X199917041Y-104052371D01*
X199962657Y-104036532D01*
X199968362Y-104034158D01*
X199993207Y-104024159D01*
X200029164Y-104009930D01*
X200070545Y-103993726D01*
X200123263Y-103972845D01*
X200186650Y-103945649D01*
X200236159Y-103920052D01*
X200275139Y-103893153D01*
X200306940Y-103862049D01*
X200334909Y-103823838D01*
X200362397Y-103775617D01*
X200392752Y-103714484D01*
X200410119Y-103679383D01*
X200440777Y-103623130D01*
X200467866Y-103580862D01*
X200490492Y-103553562D01*
X200507761Y-103542218D01*
X200518778Y-103547815D01*
G37*
G36*
X199464413Y-98944727D02*
G01*
X199598692Y-98946225D01*
X199732676Y-98949005D01*
X199863170Y-98953023D01*
X199986978Y-98958237D01*
X200100903Y-98964603D01*
X200201750Y-98972077D01*
X200286322Y-98980617D01*
X200291266Y-98981213D01*
X200390366Y-98993816D01*
X200494172Y-99008150D01*
X200600406Y-99023811D01*
X200706786Y-99040396D01*
X200811034Y-99057503D01*
X200910869Y-99074728D01*
X201004012Y-99091668D01*
X201088182Y-99107920D01*
X201161101Y-99123081D01*
X201220487Y-99136748D01*
X201264061Y-99148518D01*
X201289544Y-99157988D01*
X201318052Y-99177429D01*
X201355336Y-99213981D01*
X201387527Y-99257386D01*
X201392772Y-99272031D01*
X201399601Y-99307727D01*
X201406509Y-99361046D01*
X201413367Y-99430353D01*
X201420047Y-99514014D01*
X201426421Y-99610392D01*
X201432362Y-99717853D01*
X201437742Y-99834761D01*
X201442433Y-99959481D01*
X201442993Y-99975138D01*
X201445289Y-100025826D01*
X201447930Y-100068077D01*
X201450630Y-100097856D01*
X201453105Y-100111126D01*
X201453220Y-100111402D01*
X201454485Y-100125126D01*
X201455829Y-100157188D01*
X201457210Y-100205566D01*
X201458589Y-100268241D01*
X201459924Y-100343192D01*
X201461176Y-100428398D01*
X201462305Y-100521838D01*
X201463270Y-100621491D01*
X201464183Y-100717048D01*
X201465716Y-100837445D01*
X201467566Y-100940237D01*
X201469788Y-101027156D01*
X201472438Y-101099934D01*
X201475572Y-101160305D01*
X201479246Y-101210000D01*
X201483515Y-101250752D01*
X201489248Y-101297486D01*
X201496917Y-101361617D01*
X201504008Y-101422540D01*
X201509512Y-101471666D01*
X201513444Y-101506964D01*
X201521616Y-101572682D01*
X201529065Y-101620778D01*
X201536083Y-101653258D01*
X201547654Y-101663500D01*
X201576948Y-101675785D01*
X201621011Y-101689072D01*
X201676969Y-101702665D01*
X201741946Y-101715869D01*
X201813069Y-101727986D01*
X201887463Y-101738322D01*
X201937864Y-101744878D01*
X201986981Y-101751980D01*
X202026842Y-101758479D01*
X202051865Y-101763521D01*
X202054359Y-101764126D01*
X202081340Y-101769258D01*
X202122779Y-101775790D01*
X202173497Y-101782944D01*
X202228312Y-101789946D01*
X202253221Y-101793001D01*
X202320226Y-101801483D01*
X202396570Y-101811425D01*
X202474643Y-101821829D01*
X202546840Y-101831698D01*
X202580022Y-101836210D01*
X202654125Y-101845739D01*
X202729463Y-101854802D01*
X202798848Y-101862550D01*
X202855092Y-101868132D01*
X202877253Y-101870197D01*
X202954193Y-101878584D01*
X203032529Y-101888774D01*
X203109140Y-101900217D01*
X203180905Y-101912360D01*
X203244704Y-101924653D01*
X203297417Y-101936542D01*
X203335925Y-101947477D01*
X203357105Y-101956905D01*
X203373885Y-101971057D01*
X203399415Y-102006586D01*
X203405853Y-102043409D01*
X203393126Y-102078752D01*
X203361161Y-102109843D01*
X203316190Y-102135177D01*
X203252479Y-102163138D01*
X203175136Y-102191627D01*
X203087625Y-102219671D01*
X202993409Y-102246292D01*
X202895952Y-102270514D01*
X202798717Y-102291363D01*
X202705167Y-102307862D01*
X202618765Y-102319034D01*
X202580678Y-102322922D01*
X202524121Y-102328910D01*
X202472596Y-102334594D01*
X202433814Y-102339135D01*
X202424089Y-102340127D01*
X202385681Y-102342454D01*
X202330821Y-102344396D01*
X202262471Y-102345951D01*
X202183592Y-102347118D01*
X202097145Y-102347894D01*
X202006093Y-102348276D01*
X201913395Y-102348264D01*
X201822014Y-102347855D01*
X201734911Y-102347047D01*
X201655047Y-102345838D01*
X201585384Y-102344226D01*
X201528884Y-102342209D01*
X201488507Y-102339784D01*
X201458272Y-102337254D01*
X201371992Y-102329959D01*
X201303640Y-102323589D01*
X201251279Y-102317385D01*
X201212969Y-102310585D01*
X201186772Y-102302430D01*
X201170749Y-102292158D01*
X201162961Y-102279010D01*
X201161469Y-102262224D01*
X201164335Y-102241041D01*
X201169619Y-102214699D01*
X201175971Y-102185327D01*
X201188774Y-102132738D01*
X201201877Y-102084879D01*
X201202086Y-102084171D01*
X201212834Y-102041357D01*
X201215631Y-102008483D01*
X201211220Y-101976990D01*
X201208288Y-101964296D01*
X201201897Y-101931888D01*
X201203232Y-101912335D01*
X201215490Y-101902149D01*
X201241871Y-101897843D01*
X201285574Y-101895929D01*
X201370343Y-101892944D01*
X201368423Y-101746253D01*
X201366730Y-101684703D01*
X201362805Y-101604671D01*
X201357353Y-101524064D01*
X201351002Y-101453414D01*
X201344772Y-101391822D01*
X201337337Y-101312567D01*
X201330377Y-101232972D01*
X201324827Y-101163414D01*
X201324384Y-101156957D01*
X201322370Y-101116801D01*
X201320242Y-101058454D01*
X201318033Y-100983834D01*
X201315776Y-100894860D01*
X201313507Y-100793449D01*
X201311257Y-100681519D01*
X201309062Y-100560988D01*
X201306954Y-100433775D01*
X201304967Y-100301797D01*
X201303135Y-100166972D01*
X201301492Y-100031218D01*
X201300072Y-99896453D01*
X201298907Y-99764596D01*
X201298032Y-99637564D01*
X201298031Y-99637338D01*
X201295843Y-99544284D01*
X201290588Y-99464810D01*
X201282482Y-99400628D01*
X201271743Y-99353453D01*
X201258586Y-99324997D01*
X201253984Y-99320756D01*
X201243060Y-99316705D01*
X201224081Y-99314762D01*
X201193944Y-99314851D01*
X201149545Y-99316897D01*
X201087778Y-99320823D01*
X201023495Y-99324337D01*
X200932062Y-99327534D01*
X200828095Y-99329686D01*
X200715923Y-99330796D01*
X200599879Y-99330863D01*
X200484291Y-99329889D01*
X200373490Y-99327872D01*
X200271807Y-99324815D01*
X200183571Y-99320717D01*
X200147563Y-99318860D01*
X200076714Y-99316263D01*
X200006951Y-99314902D01*
X199944745Y-99314878D01*
X199896562Y-99316289D01*
X199884710Y-99316821D01*
X199835060Y-99317634D01*
X199769939Y-99317234D01*
X199693172Y-99315766D01*
X199608582Y-99313376D01*
X199519994Y-99310211D01*
X199431233Y-99306416D01*
X199346121Y-99302137D01*
X199268483Y-99297519D01*
X199202143Y-99292709D01*
X199150926Y-99287853D01*
X199110769Y-99283270D01*
X199012524Y-99271969D01*
X198931779Y-99262466D01*
X198866383Y-99254423D01*
X198814184Y-99247506D01*
X198773034Y-99241378D01*
X198740780Y-99235704D01*
X198715273Y-99230146D01*
X198694361Y-99224371D01*
X198675894Y-99218041D01*
X198657722Y-99210821D01*
X198650445Y-99207631D01*
X198618247Y-99190265D01*
X198593366Y-99172282D01*
X198582730Y-99163810D01*
X198564190Y-99159246D01*
X198551875Y-99174008D01*
X198545499Y-99208311D01*
X198545279Y-99210889D01*
X198541238Y-99237931D01*
X198535767Y-99255208D01*
X198532355Y-99265119D01*
X198525122Y-99292466D01*
X198515270Y-99333148D01*
X198503639Y-99383456D01*
X198491070Y-99439679D01*
X198478403Y-99498108D01*
X198466479Y-99555031D01*
X198456138Y-99606739D01*
X198452360Y-99625487D01*
X198441654Y-99674435D01*
X198430810Y-99719765D01*
X198428418Y-99729999D01*
X198421114Y-99767251D01*
X198412495Y-99817446D01*
X198403443Y-99875291D01*
X198394841Y-99935492D01*
X198390429Y-99967494D01*
X198383001Y-100018905D01*
X198376496Y-100060958D01*
X198371490Y-100089981D01*
X198368562Y-100102301D01*
X198367334Y-100105644D01*
X198362719Y-100125732D01*
X198356471Y-100158871D01*
X198349583Y-100199963D01*
X198336087Y-100284780D01*
X198317941Y-100397584D01*
X198302316Y-100492718D01*
X198288903Y-100571785D01*
X198277387Y-100636385D01*
X198267458Y-100688118D01*
X198258803Y-100728585D01*
X198251110Y-100759386D01*
X198244067Y-100782121D01*
X198237362Y-100798392D01*
X198230683Y-100809798D01*
X198216821Y-100827625D01*
X198203414Y-100838752D01*
X198194896Y-100835430D01*
X198191086Y-100816515D01*
X198191802Y-100780866D01*
X198196863Y-100727341D01*
X198206088Y-100654797D01*
X198211090Y-100619008D01*
X198224298Y-100529719D01*
X198239733Y-100430861D01*
X198256247Y-100329704D01*
X198272690Y-100233519D01*
X198277512Y-100205645D01*
X198285768Y-100156815D01*
X198293464Y-100110218D01*
X198298432Y-100081744D01*
X198306990Y-100035626D01*
X198317970Y-99978247D01*
X198330486Y-99914231D01*
X198343652Y-99848203D01*
X198353329Y-99799885D01*
X198369001Y-99720668D01*
X198384728Y-99640192D01*
X198399117Y-99565589D01*
X198410778Y-99503988D01*
X198426419Y-99424266D01*
X198451193Y-99313419D01*
X198476592Y-99217356D01*
X198502237Y-99137220D01*
X198527746Y-99074159D01*
X198552740Y-99029317D01*
X198576837Y-99003839D01*
X198579892Y-99002081D01*
X198605929Y-98993049D01*
X198645174Y-98984768D01*
X198691513Y-98978585D01*
X198694759Y-98978267D01*
X198750528Y-98972745D01*
X198810851Y-98966690D01*
X198863223Y-98961356D01*
X198900469Y-98957978D01*
X198988278Y-98952418D01*
X199091772Y-98948356D01*
X199207757Y-98945749D01*
X199333036Y-98944554D01*
X199464413Y-98944727D01*
G37*
%TO.C,TP4*%
D12*
X194920000Y-104510000D02*
G75*
G02*
X193520000Y-104510000I-700000J0D01*
G01*
X193520000Y-104510000D02*
G75*
G02*
X194920000Y-104510000I700000J0D01*
G01*
%TO.C,R17*%
X196746359Y-98270000D02*
X197053641Y-98270000D01*
X196746359Y-99030000D02*
X197053641Y-99030000D01*
%TO.C,C62*%
X212562166Y-111550000D02*
X212346494Y-111550000D01*
X212562166Y-112270000D02*
X212346494Y-112270000D01*
%TO.C,C23*%
X189232164Y-90590000D02*
X189447836Y-90590000D01*
X189232164Y-91310000D02*
X189447836Y-91310000D01*
%TO.C,R94*%
X182270000Y-105421359D02*
X182270000Y-105728641D01*
X183030000Y-105421359D02*
X183030000Y-105728641D01*
%TO.C,C10*%
X187910000Y-114506252D02*
X187910000Y-113983748D01*
X189380000Y-114506252D02*
X189380000Y-113983748D01*
%TO.C,C71*%
X197980000Y-96087164D02*
X197980000Y-96302836D01*
X198700000Y-96087164D02*
X198700000Y-96302836D01*
%TO.C,C69*%
X213269420Y-92985000D02*
X213550580Y-92985000D01*
X213269420Y-94005000D02*
X213550580Y-94005000D01*
%TO.C,R69*%
X186503641Y-89145000D02*
X186196359Y-89145000D01*
X186503641Y-89905000D02*
X186196359Y-89905000D01*
%TO.C,R42*%
X191163900Y-99736359D02*
X191163900Y-100043641D01*
X191923900Y-99736359D02*
X191923900Y-100043641D01*
%TO.C,R68*%
X215535000Y-108736359D02*
X215535000Y-109043641D01*
X216295000Y-108736359D02*
X216295000Y-109043641D01*
%TO.C,R3*%
X203778641Y-118495000D02*
X203471359Y-118495000D01*
X203778641Y-119255000D02*
X203471359Y-119255000D01*
%TO.C,R65*%
X211071359Y-101345000D02*
X211378641Y-101345000D01*
X211071359Y-102105000D02*
X211378641Y-102105000D01*
%TO.C,C70*%
X213804420Y-104505000D02*
X214085580Y-104505000D01*
X213804420Y-105525000D02*
X214085580Y-105525000D01*
%TO.C,C25*%
X210007836Y-100390000D02*
X209792164Y-100390000D01*
X210007836Y-101110000D02*
X209792164Y-101110000D01*
%TO.C,R48*%
X207335000Y-91848641D02*
X207335000Y-91541359D01*
X208095000Y-91848641D02*
X208095000Y-91541359D01*
%TO.C,R91*%
X182345000Y-93246359D02*
X182345000Y-93553641D01*
X183105000Y-93246359D02*
X183105000Y-93553641D01*
%TO.C,C6*%
X205820000Y-116902164D02*
X205820000Y-117117836D01*
X206540000Y-116902164D02*
X206540000Y-117117836D01*
%TO.C,R30*%
X193995000Y-99846359D02*
X193995000Y-100153641D01*
X194755000Y-99846359D02*
X194755000Y-100153641D01*
%TO.C,U7*%
D14*
X203612630Y-105248300D02*
X204149990Y-105248300D01*
X203612630Y-105785660D02*
X203612630Y-105248300D01*
X203612630Y-109591700D02*
X203612630Y-109054340D01*
X204149990Y-109591700D02*
X203612630Y-109591700D01*
X207418670Y-105248300D02*
X207956030Y-105248300D01*
X207956030Y-105248300D02*
X207956030Y-105785660D01*
X207956030Y-109054340D02*
X207956030Y-109591700D01*
X207956030Y-109591700D02*
X207418670Y-109591700D01*
D13*
G36*
X205574831Y-104816500D02*
G01*
X205193831Y-104816500D01*
X205193831Y-104562500D01*
X205574831Y-104562500D01*
X205574831Y-104816500D01*
G37*
G36*
X208641830Y-108410501D02*
G01*
X208387830Y-108410501D01*
X208387830Y-108029501D01*
X208641830Y-108029501D01*
X208641830Y-108410501D01*
G37*
%TO.C,C2*%
D12*
X200615000Y-112717164D02*
X200615000Y-112932836D01*
X201335000Y-112717164D02*
X201335000Y-112932836D01*
%TO.C,R38*%
X203135000Y-103306359D02*
X203135000Y-103613641D01*
X203895000Y-103306359D02*
X203895000Y-103613641D01*
%TO.C,C78*%
X212722164Y-91930000D02*
X212937836Y-91930000D01*
X212722164Y-92650000D02*
X212937836Y-92650000D01*
%TO.C,U4*%
D14*
X191108300Y-93618300D02*
X191645660Y-93618300D01*
X191108300Y-94155660D02*
X191108300Y-93618300D01*
X191108300Y-97961700D02*
X191108300Y-97424340D01*
X191645660Y-97961700D02*
X191108300Y-97961700D01*
X194914340Y-93618300D02*
X195451700Y-93618300D01*
X195451700Y-93618300D02*
X195451700Y-94155660D01*
X195451700Y-97424340D02*
X195451700Y-97961700D01*
X195451700Y-97961700D02*
X194914340Y-97961700D01*
D13*
G36*
X190676500Y-95180499D02*
G01*
X190422500Y-95180499D01*
X190422500Y-94799499D01*
X190676500Y-94799499D01*
X190676500Y-95180499D01*
G37*
G36*
X193870499Y-98647500D02*
G01*
X193489499Y-98647500D01*
X193489499Y-98393500D01*
X193870499Y-98393500D01*
X193870499Y-98647500D01*
G37*
%TO.C,R43*%
D12*
X190222800Y-100034741D02*
X190222800Y-99727459D01*
X190982800Y-100034741D02*
X190982800Y-99727459D01*
%TO.C,C76*%
X212417164Y-103430000D02*
X212632836Y-103430000D01*
X212417164Y-104150000D02*
X212632836Y-104150000D01*
%TO.C,R41*%
X192105000Y-100052541D02*
X192105000Y-99745259D01*
X192865000Y-100052541D02*
X192865000Y-99745259D01*
%TO.C,U11*%
D14*
X210323800Y-106323800D02*
X210323800Y-106857607D01*
X210323800Y-110476200D02*
X210323800Y-109942393D01*
X210857607Y-106323800D02*
X210323800Y-106323800D01*
X210857607Y-110476200D02*
X210323800Y-110476200D01*
X213942393Y-106323800D02*
X214476200Y-106323800D01*
X213942393Y-110476200D02*
X214476200Y-110476200D01*
X214476200Y-106323800D02*
X214476200Y-106857607D01*
X214476200Y-110476200D02*
X214476200Y-109942393D01*
D15*
X210488138Y-106031953D02*
G75*
G02*
X210287986Y-106031953I-100076J0D01*
G01*
X210287986Y-106031953D02*
G75*
G02*
X210488138Y-106031953I100076J0D01*
G01*
D16*
X210429972Y-106400000D02*
G75*
G02*
X210370028Y-106400000I-29972J0D01*
G01*
X210370028Y-106400000D02*
G75*
G02*
X210429972Y-106400000I29972J0D01*
G01*
%TO.C,R24*%
D12*
X202173641Y-104585000D02*
X201866359Y-104585000D01*
X202173641Y-105345000D02*
X201866359Y-105345000D01*
%TO.C,C11*%
X196787164Y-93490000D02*
X197002836Y-93490000D01*
X196787164Y-94210000D02*
X197002836Y-94210000D01*
%TO.C,U2*%
D17*
X206791500Y-115552500D02*
X206791500Y-117152500D01*
X209908500Y-117152500D02*
X209908500Y-115552500D01*
D15*
X207500000Y-113852500D02*
G75*
G02*
X207300000Y-113852500I-100000J0D01*
G01*
X207300000Y-113852500D02*
G75*
G02*
X207500000Y-113852500I100000J0D01*
G01*
%TO.C,C73*%
D12*
X200645000Y-97167836D02*
X200645000Y-96952164D01*
X201365000Y-97167836D02*
X201365000Y-96952164D01*
%TO.C,R10*%
X196916359Y-106235000D02*
X197223641Y-106235000D01*
X196916359Y-106995000D02*
X197223641Y-106995000D01*
%TO.C,R19*%
X202583641Y-93330000D02*
X202276359Y-93330000D01*
X202583641Y-94090000D02*
X202276359Y-94090000D01*
%TO.C,R23*%
X202588641Y-94270000D02*
X202281359Y-94270000D01*
X202588641Y-95030000D02*
X202281359Y-95030000D01*
%TO.C,R70*%
X183620000Y-95778641D02*
X183620000Y-95471359D01*
X184380000Y-95778641D02*
X184380000Y-95471359D01*
%TO.C,C12*%
X196962164Y-105325000D02*
X197177836Y-105325000D01*
X196962164Y-106045000D02*
X197177836Y-106045000D01*
%TO.C,R101*%
X216545000Y-110216359D02*
X216545000Y-110523641D01*
X217305000Y-110216359D02*
X217305000Y-110523641D01*
%TO.C,C13*%
X202532836Y-98150000D02*
X202317164Y-98150000D01*
X202532836Y-98870000D02*
X202317164Y-98870000D01*
%TO.C,C17*%
X202517836Y-96215000D02*
X202302164Y-96215000D01*
X202517836Y-96935000D02*
X202302164Y-96935000D01*
%TO.C,R61*%
X188373641Y-89145000D02*
X188066359Y-89145000D01*
X188373641Y-89905000D02*
X188066359Y-89905000D01*
%TO.C,R93*%
X182595000Y-101396359D02*
X182595000Y-101703641D01*
X183355000Y-101396359D02*
X183355000Y-101703641D01*
%TO.C,TP3*%
X195250000Y-91510000D02*
G75*
G02*
X193850000Y-91510000I-700000J0D01*
G01*
X193850000Y-91510000D02*
G75*
G02*
X195250000Y-91510000I700000J0D01*
G01*
%TO.C,R46*%
X189975000Y-112223641D02*
X189975000Y-111916359D01*
X190735000Y-112223641D02*
X190735000Y-111916359D01*
%TO.C,C9*%
X189965000Y-114640580D02*
X189965000Y-114359420D01*
X190985000Y-114640580D02*
X190985000Y-114359420D01*
%TO.C,U5*%
D14*
X191348300Y-105938300D02*
X191885660Y-105938300D01*
X191348300Y-106475660D02*
X191348300Y-105938300D01*
X191348300Y-110281700D02*
X191348300Y-109744340D01*
X191885660Y-110281700D02*
X191348300Y-110281700D01*
X195154340Y-105938300D02*
X195691700Y-105938300D01*
X195691700Y-105938300D02*
X195691700Y-106475660D01*
X195691700Y-109744340D02*
X195691700Y-110281700D01*
X195691700Y-110281700D02*
X195154340Y-110281700D01*
D13*
G36*
X190916500Y-107500499D02*
G01*
X190662500Y-107500499D01*
X190662500Y-107119499D01*
X190916500Y-107119499D01*
X190916500Y-107500499D01*
G37*
G36*
X194110499Y-110967500D02*
G01*
X193729499Y-110967500D01*
X193729499Y-110713500D01*
X194110499Y-110713500D01*
X194110499Y-110967500D01*
G37*
%TO.C,R6*%
D12*
X196921359Y-104295000D02*
X197228641Y-104295000D01*
X196921359Y-105055000D02*
X197228641Y-105055000D01*
%TO.C,U6*%
D14*
X203828300Y-93628300D02*
X204365660Y-93628300D01*
X203828300Y-94165660D02*
X203828300Y-93628300D01*
X203828300Y-97971700D02*
X203828300Y-97434340D01*
X204365660Y-97971700D02*
X203828300Y-97971700D01*
X207634340Y-93628300D02*
X208171700Y-93628300D01*
X208171700Y-93628300D02*
X208171700Y-94165660D01*
X208171700Y-97434340D02*
X208171700Y-97971700D01*
X208171700Y-97971700D02*
X207634340Y-97971700D01*
D13*
G36*
X205790501Y-93196500D02*
G01*
X205409501Y-93196500D01*
X205409501Y-92942500D01*
X205790501Y-92942500D01*
X205790501Y-93196500D01*
G37*
G36*
X208857500Y-96790501D02*
G01*
X208603500Y-96790501D01*
X208603500Y-96409501D01*
X208857500Y-96409501D01*
X208857500Y-96790501D01*
G37*
%TO.C,R2*%
D12*
X199625000Y-112963641D02*
X199625000Y-112656359D01*
X200385000Y-112963641D02*
X200385000Y-112656359D01*
%TO.C,C64*%
X186102164Y-102660000D02*
X186317836Y-102660000D01*
X186102164Y-103380000D02*
X186317836Y-103380000D01*
%TO.C,R35*%
X203525000Y-91541359D02*
X203525000Y-91848641D01*
X204285000Y-91541359D02*
X204285000Y-91848641D01*
%TO.C,R62*%
X183295000Y-93903641D02*
X183295000Y-93596359D01*
X184055000Y-93903641D02*
X184055000Y-93596359D01*
%TO.C,C98*%
X216565000Y-112117164D02*
X216565000Y-112332836D01*
X217285000Y-112117164D02*
X217285000Y-112332836D01*
%TO.C,R33*%
X193765000Y-111861359D02*
X193765000Y-112168641D01*
X194525000Y-111861359D02*
X194525000Y-112168641D01*
%TO.C,R98*%
X216345000Y-97521359D02*
X216345000Y-97828641D01*
X217105000Y-97521359D02*
X217105000Y-97828641D01*
%TO.C,R25*%
X197563641Y-99210000D02*
X197256359Y-99210000D01*
X197563641Y-99970000D02*
X197256359Y-99970000D01*
%TO.C,R18*%
X196921359Y-110235000D02*
X197228641Y-110235000D01*
X196921359Y-110995000D02*
X197228641Y-110995000D01*
%TO.C,R57*%
X184628641Y-89160000D02*
X184321359Y-89160000D01*
X184628641Y-89920000D02*
X184321359Y-89920000D01*
%TO.C,TP6*%
X206244330Y-111170000D02*
G75*
G02*
X204844330Y-111170000I-700000J0D01*
G01*
X204844330Y-111170000D02*
G75*
G02*
X206244330Y-111170000I700000J0D01*
G01*
%TO.C,R27*%
X201956359Y-92365000D02*
X202263641Y-92365000D01*
X201956359Y-93125000D02*
X202263641Y-93125000D01*
%TO.C,R67*%
X208146359Y-113370000D02*
X208453641Y-113370000D01*
X208146359Y-114130000D02*
X208453641Y-114130000D01*
%TO.C,C96*%
X216385000Y-103337164D02*
X216385000Y-103552836D01*
X217105000Y-103337164D02*
X217105000Y-103552836D01*
%TO.C,R21*%
X196746359Y-97325000D02*
X197053641Y-97325000D01*
X196746359Y-98085000D02*
X197053641Y-98085000D01*
%TO.C,R92*%
X182370000Y-97296359D02*
X182370000Y-97603641D01*
X183130000Y-97296359D02*
X183130000Y-97603641D01*
%TO.C,C93*%
X216190000Y-91287164D02*
X216190000Y-91502836D01*
X216910000Y-91287164D02*
X216910000Y-91502836D01*
%TO.C,R4*%
X204645000Y-119428641D02*
X204645000Y-119121359D01*
X205405000Y-119428641D02*
X205405000Y-119121359D01*
%TO.C,R59*%
X214781359Y-101340000D02*
X215088641Y-101340000D01*
X214781359Y-102100000D02*
X215088641Y-102100000D01*
%TO.C,R44*%
X191890000Y-112168641D02*
X191890000Y-111861359D01*
X192650000Y-112168641D02*
X192650000Y-111861359D01*
%TO.C,U1*%
X194320000Y-115555000D02*
X195740000Y-115555000D01*
X195455568Y-113685000D02*
X194320000Y-113685000D01*
X195750000Y-113680000D02*
X195610000Y-113490000D01*
X195890000Y-113490000D01*
X195750000Y-113680000D01*
G36*
X195750000Y-113680000D02*
G01*
X195610000Y-113490000D01*
X195890000Y-113490000D01*
X195750000Y-113680000D01*
G37*
%TO.C,R39*%
X204090000Y-103598641D02*
X204090000Y-103291359D01*
X204850000Y-103598641D02*
X204850000Y-103291359D01*
%TO.C,C21*%
X209085000Y-94742836D02*
X209085000Y-94527164D01*
X209805000Y-94742836D02*
X209805000Y-94527164D01*
%TO.C,C94*%
X216315000Y-95387164D02*
X216315000Y-95602836D01*
X217035000Y-95387164D02*
X217035000Y-95602836D01*
%TO.C,R51*%
X206945000Y-103328641D02*
X206945000Y-103021359D01*
X207705000Y-103328641D02*
X207705000Y-103021359D01*
%TO.C,R95*%
X182545000Y-110116359D02*
X182545000Y-110423641D01*
X183305000Y-110116359D02*
X183305000Y-110423641D01*
%TO.C,C20*%
X189665000Y-109067164D02*
X189665000Y-109282836D01*
X190385000Y-109067164D02*
X190385000Y-109282836D01*
%TO.C,R14*%
X192240000Y-103066359D02*
X192240000Y-103373641D01*
X193000000Y-103066359D02*
X193000000Y-103373641D01*
%TO.C,R40*%
X205045000Y-103603641D02*
X205045000Y-103296359D01*
X205805000Y-103603641D02*
X205805000Y-103296359D01*
%TO.C,C15*%
X196792164Y-96385000D02*
X197007836Y-96385000D01*
X196792164Y-97105000D02*
X197007836Y-97105000D01*
%TO.C,C18*%
X202142836Y-105575000D02*
X201927164Y-105575000D01*
X202142836Y-106295000D02*
X201927164Y-106295000D01*
%TO.C,R77*%
X200235000Y-109008641D02*
X200235000Y-108701359D01*
X200995000Y-109008641D02*
X200995000Y-108701359D01*
%TO.C,R64*%
X183270000Y-106003641D02*
X183270000Y-105696359D01*
X184030000Y-106003641D02*
X184030000Y-105696359D01*
%TO.C,R63*%
X188438641Y-101095000D02*
X188131359Y-101095000D01*
X188438641Y-101855000D02*
X188131359Y-101855000D01*
%TO.C,C90*%
X182610000Y-103277164D02*
X182610000Y-103492836D01*
X183330000Y-103277164D02*
X183330000Y-103492836D01*
%TO.C,R8*%
X202173641Y-109290000D02*
X201866359Y-109290000D01*
X202173641Y-110050000D02*
X201866359Y-110050000D01*
%TO.C,C72*%
X198115000Y-108092164D02*
X198115000Y-108307836D01*
X198835000Y-108092164D02*
X198835000Y-108307836D01*
%TO.C,C95*%
X216365000Y-99412164D02*
X216365000Y-99627836D01*
X217085000Y-99412164D02*
X217085000Y-99627836D01*
%TO.C,R16*%
X207193641Y-112085000D02*
X206886359Y-112085000D01*
X207193641Y-112845000D02*
X206886359Y-112845000D01*
%TO.C,R11*%
X202598641Y-97150000D02*
X202291359Y-97150000D01*
X202598641Y-97910000D02*
X202291359Y-97910000D01*
%TO.C,C74*%
X200250000Y-107082836D02*
X200250000Y-106867164D01*
X200970000Y-107082836D02*
X200970000Y-106867164D01*
%TO.C,C1*%
X198690000Y-112692164D02*
X198690000Y-112907836D01*
X199410000Y-112692164D02*
X199410000Y-112907836D01*
%TO.C,TP10*%
X209294330Y-111170000D02*
G75*
G02*
X207894330Y-111170000I-700000J0D01*
G01*
X207894330Y-111170000D02*
G75*
G02*
X209294330Y-111170000I700000J0D01*
G01*
%TO.C,R13*%
X192600000Y-90016359D02*
X192600000Y-90323641D01*
X193360000Y-90016359D02*
X193360000Y-90323641D01*
%TO.C,R97*%
X216295000Y-93496359D02*
X216295000Y-93803641D01*
X217055000Y-93496359D02*
X217055000Y-93803641D01*
D13*
%TO.C,G\u002A\u002A\u002A*%
G36*
X188423000Y-85892755D02*
G01*
X188423000Y-85956755D01*
X188359000Y-85956755D01*
X188295000Y-85956755D01*
X188295000Y-85892755D01*
X188295000Y-85828755D01*
X188359000Y-85828755D01*
X188423000Y-85828755D01*
X188423000Y-85892755D01*
G37*
G36*
X188551000Y-86276755D02*
G01*
X188551000Y-86340754D01*
X188423000Y-86340754D01*
X188295000Y-86340754D01*
X188295000Y-86276755D01*
X188295000Y-86212755D01*
X188423000Y-86212755D01*
X188551000Y-86212755D01*
X188551000Y-86276755D01*
G37*
G36*
X188551000Y-85764755D02*
G01*
X188551000Y-85828755D01*
X188487000Y-85828755D01*
X188423000Y-85828755D01*
X188423000Y-85764755D01*
X188423000Y-85700755D01*
X188487000Y-85700755D01*
X188551000Y-85700755D01*
X188551000Y-85764755D01*
G37*
G36*
X188679000Y-86020755D02*
G01*
X188679000Y-86084755D01*
X188615000Y-86084755D01*
X188551000Y-86084755D01*
X188551000Y-86020755D01*
X188551000Y-85956755D01*
X188615000Y-85956755D01*
X188679000Y-85956755D01*
X188679000Y-86020755D01*
G37*
G36*
X189191000Y-87044755D02*
G01*
X189191000Y-87108755D01*
X189127000Y-87108755D01*
X189063000Y-87108755D01*
X189063000Y-87044755D01*
X189063000Y-86980755D01*
X189127000Y-86980755D01*
X189191000Y-86980755D01*
X189191000Y-87044755D01*
G37*
G36*
X189447000Y-84740755D02*
G01*
X189447000Y-84804755D01*
X189383000Y-84804755D01*
X189319000Y-84804755D01*
X189319000Y-84740755D01*
X189319000Y-84676755D01*
X189383000Y-84676755D01*
X189447000Y-84676755D01*
X189447000Y-84740755D01*
G37*
G36*
X189703000Y-86916755D02*
G01*
X189703000Y-86980755D01*
X189639000Y-86980755D01*
X189575000Y-86980755D01*
X189575000Y-86916755D01*
X189575000Y-86852755D01*
X189639000Y-86852755D01*
X189703000Y-86852755D01*
X189703000Y-86916755D01*
G37*
G36*
X189959000Y-86404755D02*
G01*
X189959000Y-86468755D01*
X189895000Y-86468755D01*
X189831001Y-86468755D01*
X189831001Y-86404755D01*
X189831001Y-86340754D01*
X189895000Y-86340754D01*
X189959000Y-86340754D01*
X189959000Y-86404755D01*
G37*
G36*
X190471000Y-85444755D02*
G01*
X190471000Y-85572755D01*
X190407000Y-85572755D01*
X190343000Y-85572755D01*
X190343000Y-85444755D01*
X190343000Y-85316754D01*
X190407000Y-85316754D01*
X190471000Y-85316754D01*
X190471000Y-85444755D01*
G37*
G36*
X191111000Y-86276755D02*
G01*
X191111000Y-86340754D01*
X191047000Y-86340754D01*
X190983000Y-86340754D01*
X190983000Y-86276755D01*
X190983000Y-86212755D01*
X191047000Y-86212755D01*
X191111000Y-86212755D01*
X191111000Y-86276755D01*
G37*
G36*
X189959000Y-86724755D02*
G01*
X189959000Y-86852755D01*
X189831001Y-86852755D01*
X189703000Y-86852755D01*
X189703000Y-86788755D01*
X189703000Y-86724755D01*
X189767000Y-86724755D01*
X189831001Y-86724755D01*
X189831001Y-86660755D01*
X189831001Y-86596755D01*
X189895000Y-86596755D01*
X189959000Y-86596755D01*
X189959000Y-86724755D01*
G37*
G36*
X189639000Y-86340754D02*
G01*
X189703000Y-86340754D01*
X189703000Y-86468755D01*
X189703000Y-86596755D01*
X189639000Y-86596755D01*
X189575000Y-86596755D01*
X189575000Y-86468755D01*
X189575000Y-86340754D01*
X189639000Y-86340754D01*
G37*
G36*
X189575000Y-86276755D02*
G01*
X189575000Y-86340754D01*
X189511000Y-86340754D01*
X189447000Y-86340754D01*
X189447000Y-86276755D01*
X189447000Y-86212755D01*
X189511000Y-86212755D01*
X189575000Y-86212755D01*
X189575000Y-86276755D01*
G37*
G36*
X190663000Y-86468755D02*
G01*
X190727000Y-86468755D01*
X190727000Y-86532755D01*
X190727000Y-86596755D01*
X190663000Y-86596755D01*
X190599000Y-86596755D01*
X190599000Y-86532755D01*
X190599000Y-86468755D01*
X190663000Y-86468755D01*
G37*
G36*
X190599000Y-86404755D02*
G01*
X190599000Y-86468755D01*
X190535000Y-86468755D01*
X190471000Y-86468755D01*
X190471000Y-86404755D01*
X190471000Y-86340754D01*
X190535000Y-86340754D01*
X190599000Y-86340754D01*
X190599000Y-86404755D01*
G37*
G36*
X190727000Y-86020755D02*
G01*
X190727000Y-86084755D01*
X190791000Y-86084755D01*
X190855001Y-86084755D01*
X190855001Y-86020755D01*
X190855001Y-85956755D01*
X190919000Y-85956755D01*
X190983000Y-85956755D01*
X190983000Y-86020755D01*
X190983000Y-86084755D01*
X190919000Y-86084755D01*
X190855001Y-86084755D01*
X190855001Y-86212755D01*
X190855001Y-86340754D01*
X190727000Y-86340754D01*
X190599000Y-86340754D01*
X190599000Y-86276755D01*
X190599000Y-86212755D01*
X190535000Y-86212755D01*
X190471000Y-86212755D01*
X190471000Y-86148755D01*
X190471000Y-86084755D01*
X190535000Y-86084755D01*
X190599000Y-86084755D01*
X190599000Y-86148755D01*
X190599000Y-86212755D01*
X190663000Y-86212755D01*
X190727000Y-86212755D01*
X190727000Y-86148755D01*
X190727000Y-86084755D01*
X190663000Y-86084755D01*
X190599000Y-86084755D01*
X190599000Y-86020755D01*
X190599000Y-85956755D01*
X190663000Y-85956755D01*
X190727000Y-85956755D01*
X190727000Y-86020755D01*
G37*
G36*
X188745076Y-84933068D02*
G01*
X188917438Y-84933421D01*
X188923117Y-84937421D01*
X188924720Y-84938681D01*
X188928812Y-84942869D01*
X188931898Y-84947298D01*
X188935000Y-84953174D01*
X188934993Y-85123298D01*
X188934989Y-85140144D01*
X188934966Y-85167261D01*
X188934922Y-85191753D01*
X188934858Y-85213648D01*
X188934773Y-85232971D01*
X188934667Y-85249751D01*
X188934539Y-85264014D01*
X188934390Y-85275786D01*
X188934219Y-85285095D01*
X188934026Y-85291967D01*
X188933811Y-85296429D01*
X188933573Y-85298508D01*
X188933404Y-85299061D01*
X188930846Y-85303962D01*
X188926788Y-85308847D01*
X188922033Y-85312887D01*
X188917385Y-85315249D01*
X188917181Y-85315290D01*
X188914648Y-85315471D01*
X188909579Y-85315643D01*
X188902080Y-85315804D01*
X188892257Y-85315953D01*
X188880217Y-85316090D01*
X188866067Y-85316214D01*
X188849913Y-85316324D01*
X188831862Y-85316419D01*
X188812020Y-85316499D01*
X188790495Y-85316562D01*
X188767392Y-85316607D01*
X188742819Y-85316634D01*
X188572638Y-85316754D01*
X188565532Y-85313042D01*
X188561026Y-85310321D01*
X188557646Y-85307010D01*
X188554713Y-85302223D01*
X188551000Y-85295117D01*
X188551000Y-85124754D01*
X188551000Y-84954392D01*
X188554713Y-84947286D01*
X188557479Y-84942719D01*
X188560783Y-84939372D01*
X188565569Y-84936447D01*
X188572713Y-84932715D01*
X188745076Y-84933068D01*
G37*
G36*
X191049076Y-84933068D02*
G01*
X191221438Y-84933421D01*
X191227117Y-84937421D01*
X191228720Y-84938681D01*
X191232812Y-84942869D01*
X191235898Y-84947298D01*
X191239000Y-84953174D01*
X191238993Y-85123298D01*
X191238989Y-85140144D01*
X191238966Y-85167261D01*
X191238922Y-85191753D01*
X191238858Y-85213648D01*
X191238773Y-85232971D01*
X191238667Y-85249751D01*
X191238539Y-85264014D01*
X191238390Y-85275786D01*
X191238219Y-85285095D01*
X191238026Y-85291967D01*
X191237811Y-85296429D01*
X191237573Y-85298508D01*
X191237404Y-85299061D01*
X191234846Y-85303962D01*
X191230788Y-85308847D01*
X191226033Y-85312887D01*
X191221385Y-85315249D01*
X191221181Y-85315290D01*
X191218648Y-85315471D01*
X191213579Y-85315643D01*
X191206080Y-85315804D01*
X191196257Y-85315953D01*
X191184217Y-85316090D01*
X191170067Y-85316214D01*
X191153913Y-85316324D01*
X191135862Y-85316419D01*
X191116020Y-85316499D01*
X191094495Y-85316562D01*
X191071392Y-85316607D01*
X191046819Y-85316634D01*
X190876638Y-85316754D01*
X190869532Y-85313042D01*
X190865026Y-85310321D01*
X190861646Y-85307010D01*
X190858713Y-85302223D01*
X190855001Y-85295117D01*
X190855001Y-85124754D01*
X190855001Y-84954392D01*
X190858713Y-84947286D01*
X190861479Y-84942719D01*
X190864783Y-84939372D01*
X190869569Y-84936447D01*
X190876713Y-84932715D01*
X191049076Y-84933068D01*
G37*
G36*
X191049076Y-87237068D02*
G01*
X191221438Y-87237421D01*
X191227117Y-87241421D01*
X191228720Y-87242681D01*
X191232812Y-87246869D01*
X191235898Y-87251298D01*
X191239000Y-87257174D01*
X191238993Y-87427298D01*
X191238989Y-87444144D01*
X191238966Y-87471261D01*
X191238922Y-87495753D01*
X191238858Y-87517648D01*
X191238773Y-87536971D01*
X191238667Y-87553751D01*
X191238539Y-87568014D01*
X191238390Y-87579786D01*
X191238219Y-87589095D01*
X191238026Y-87595967D01*
X191237811Y-87600429D01*
X191237573Y-87602508D01*
X191237404Y-87603061D01*
X191234846Y-87607962D01*
X191230788Y-87612847D01*
X191226033Y-87616887D01*
X191221385Y-87619249D01*
X191221181Y-87619290D01*
X191218648Y-87619471D01*
X191213579Y-87619643D01*
X191206080Y-87619804D01*
X191196257Y-87619953D01*
X191184217Y-87620090D01*
X191170067Y-87620214D01*
X191153913Y-87620324D01*
X191135862Y-87620419D01*
X191116020Y-87620499D01*
X191094495Y-87620562D01*
X191071392Y-87620607D01*
X191046819Y-87620634D01*
X190876638Y-87620755D01*
X190869532Y-87617042D01*
X190865026Y-87614321D01*
X190861646Y-87611010D01*
X190858713Y-87606223D01*
X190855001Y-87599117D01*
X190855001Y-87428754D01*
X190855001Y-87258392D01*
X190858713Y-87251286D01*
X190861479Y-87246719D01*
X190864783Y-87243372D01*
X190869569Y-87240447D01*
X190876713Y-87236715D01*
X191049076Y-87237068D01*
G37*
G36*
X189447000Y-87108755D02*
G01*
X189447000Y-87364755D01*
X189511000Y-87364755D01*
X189575000Y-87364755D01*
X189575000Y-87236755D01*
X189575000Y-87108755D01*
X189639000Y-87108755D01*
X189703000Y-87108755D01*
X189703000Y-87172755D01*
X189703000Y-87236755D01*
X189831001Y-87236755D01*
X189959000Y-87236755D01*
X189959000Y-87172755D01*
X189959000Y-87108755D01*
X189831001Y-87108755D01*
X189703000Y-87108755D01*
X189703000Y-87044755D01*
X189703000Y-86980755D01*
X189895000Y-86980755D01*
X190087000Y-86980755D01*
X190087000Y-87108755D01*
X190087000Y-87236755D01*
X190151000Y-87236755D01*
X190215000Y-87236755D01*
X190215000Y-87172755D01*
X190215000Y-87108755D01*
X190279000Y-87108755D01*
X190343000Y-87108755D01*
X190343000Y-87172755D01*
X190343000Y-87236755D01*
X190279000Y-87236755D01*
X190215000Y-87236755D01*
X190215000Y-87300755D01*
X190215000Y-87364755D01*
X190279000Y-87364755D01*
X190343000Y-87364755D01*
X190343000Y-87300755D01*
X190343000Y-87236755D01*
X190407000Y-87236755D01*
X190471000Y-87236755D01*
X190471000Y-87556755D01*
X190471000Y-87876755D01*
X190407000Y-87876755D01*
X190343000Y-87876755D01*
X190343000Y-87684755D01*
X190343000Y-87492755D01*
X190279000Y-87492755D01*
X190215000Y-87492755D01*
X190215000Y-87684755D01*
X190215000Y-87876755D01*
X190151000Y-87876755D01*
X190087000Y-87876755D01*
X190087000Y-87620755D01*
X190087000Y-87364755D01*
X190023000Y-87364755D01*
X189959000Y-87364755D01*
X189959000Y-87620755D01*
X189959000Y-87876755D01*
X189831001Y-87876755D01*
X189703000Y-87876755D01*
X189703000Y-87812755D01*
X189703000Y-87748755D01*
X189767000Y-87748755D01*
X189831001Y-87748755D01*
X189831001Y-87684755D01*
X189831001Y-87620755D01*
X189703000Y-87620755D01*
X189575000Y-87620755D01*
X189575000Y-87556755D01*
X189575000Y-87492755D01*
X189447000Y-87492755D01*
X189319000Y-87492755D01*
X189319000Y-87428755D01*
X189575000Y-87428755D01*
X189575000Y-87492755D01*
X189703000Y-87492755D01*
X189831001Y-87492755D01*
X189831001Y-87428755D01*
X189831001Y-87364755D01*
X189703000Y-87364755D01*
X189575000Y-87364755D01*
X189575000Y-87428755D01*
X189319000Y-87428755D01*
X189319000Y-87364755D01*
X189255000Y-87364755D01*
X189191000Y-87364755D01*
X189191000Y-87428755D01*
X189191000Y-87492755D01*
X189127000Y-87492755D01*
X189063000Y-87492755D01*
X189063000Y-87428755D01*
X189063000Y-87364755D01*
X188999000Y-87364755D01*
X188935000Y-87364755D01*
X188935000Y-87492755D01*
X188935000Y-87620755D01*
X189191000Y-87620755D01*
X189447000Y-87620755D01*
X189447000Y-87684755D01*
X189447000Y-87748755D01*
X189063000Y-87748755D01*
X188679000Y-87748755D01*
X188679000Y-87812755D01*
X188679000Y-87876755D01*
X188487000Y-87876755D01*
X188295000Y-87876755D01*
X188295000Y-87812755D01*
X188295000Y-87748755D01*
X188359000Y-87748755D01*
X188423000Y-87748755D01*
X188423000Y-87684755D01*
X188423000Y-87620755D01*
X188487000Y-87620755D01*
X188551000Y-87620755D01*
X188551000Y-87684755D01*
X188551000Y-87748755D01*
X188615000Y-87748755D01*
X188679000Y-87748755D01*
X188679000Y-87684755D01*
X188679000Y-87620755D01*
X188743000Y-87620755D01*
X188807000Y-87620755D01*
X188807000Y-87492755D01*
X188807000Y-87364755D01*
X188743000Y-87364755D01*
X188679000Y-87364755D01*
X188679000Y-87236755D01*
X188679000Y-87108755D01*
X188487000Y-87108755D01*
X188295000Y-87108755D01*
X188295000Y-86788755D01*
X188295000Y-86468755D01*
X188487000Y-86468755D01*
X188679000Y-86468755D01*
X188679000Y-86532755D01*
X188679000Y-86596755D01*
X188615000Y-86596755D01*
X188551000Y-86596755D01*
X188551000Y-86660755D01*
X188551000Y-86724755D01*
X188487000Y-86724755D01*
X188423000Y-86724755D01*
X188423000Y-86852755D01*
X188423000Y-86980755D01*
X188551000Y-86980755D01*
X188679000Y-86980755D01*
X188679000Y-87044755D01*
X188679000Y-87108755D01*
X188743000Y-87108755D01*
X188807000Y-87108755D01*
X188807000Y-86980755D01*
X188807000Y-86852755D01*
X188935000Y-86852755D01*
X188935000Y-87044755D01*
X188935000Y-87236755D01*
X189127000Y-87236755D01*
X189319000Y-87236755D01*
X189319000Y-87044755D01*
X189319000Y-86852755D01*
X189127000Y-86852755D01*
X188935000Y-86852755D01*
X188807000Y-86852755D01*
X188743000Y-86852755D01*
X188679000Y-86852755D01*
X188679000Y-86788755D01*
X188679000Y-86724755D01*
X188935000Y-86724755D01*
X189191000Y-86724755D01*
X189191000Y-86660755D01*
X189191000Y-86596755D01*
X189127000Y-86596755D01*
X189063000Y-86596755D01*
X189063000Y-86532755D01*
X189063000Y-86468755D01*
X188999000Y-86468755D01*
X188935000Y-86468755D01*
X188935000Y-86532755D01*
X188935000Y-86596755D01*
X188871000Y-86596755D01*
X188807000Y-86596755D01*
X188807000Y-86468755D01*
X188807000Y-86340754D01*
X188743000Y-86340754D01*
X188679000Y-86340754D01*
X188679000Y-86276755D01*
X188679000Y-86212755D01*
X188935000Y-86212755D01*
X189191000Y-86212755D01*
X189191000Y-86276755D01*
X189191000Y-86340754D01*
X189319000Y-86340754D01*
X189447000Y-86340754D01*
X189447000Y-86404755D01*
X189447000Y-86468755D01*
X189383000Y-86468755D01*
X189319000Y-86468755D01*
X189319000Y-86596755D01*
X189319000Y-86724755D01*
X189447000Y-86724755D01*
X189575000Y-86724755D01*
X189575000Y-86788755D01*
X189575000Y-86852755D01*
X189511000Y-86852755D01*
X189447000Y-86852755D01*
X189447000Y-87044755D01*
X189447000Y-87108755D01*
G37*
G36*
X189511000Y-87748755D02*
G01*
X189575000Y-87748755D01*
X189575000Y-87812755D01*
X189575000Y-87876755D01*
X189511000Y-87876755D01*
X189447000Y-87876755D01*
X189447000Y-87812755D01*
X189447000Y-87748755D01*
X189511000Y-87748755D01*
G37*
G36*
X188551000Y-87428755D02*
G01*
X188551000Y-87492755D01*
X188487000Y-87492755D01*
X188423000Y-87492755D01*
X188423000Y-87556755D01*
X188423000Y-87620755D01*
X188359000Y-87620755D01*
X188295000Y-87620755D01*
X188295000Y-87492755D01*
X188295000Y-87364755D01*
X188423000Y-87364755D01*
X188551000Y-87364755D01*
X188551000Y-87428755D01*
G37*
G36*
X188615000Y-87492755D02*
G01*
X188679000Y-87492755D01*
X188679000Y-87556755D01*
X188679000Y-87620755D01*
X188615000Y-87620755D01*
X188551000Y-87620755D01*
X188551000Y-87556755D01*
X188551000Y-87492755D01*
X188615000Y-87492755D01*
G37*
G36*
X189190687Y-85137175D02*
G01*
X189190717Y-85181117D01*
X189190737Y-85222436D01*
X189190748Y-85261162D01*
X189190749Y-85297328D01*
X189190742Y-85330965D01*
X189190724Y-85362107D01*
X189190698Y-85390784D01*
X189190661Y-85417029D01*
X189190615Y-85440873D01*
X189190560Y-85462349D01*
X189190494Y-85481489D01*
X189190418Y-85498323D01*
X189190333Y-85512885D01*
X189190237Y-85525207D01*
X189190131Y-85535319D01*
X189190015Y-85543254D01*
X189189889Y-85549045D01*
X189189752Y-85552722D01*
X189189605Y-85554319D01*
X189189478Y-85554757D01*
X189186966Y-85559763D01*
X189182915Y-85564735D01*
X189178123Y-85568842D01*
X189173385Y-85571254D01*
X189171809Y-85571369D01*
X189167590Y-85571485D01*
X189160796Y-85571594D01*
X189151475Y-85571696D01*
X189139676Y-85571790D01*
X189125446Y-85571878D01*
X189108832Y-85571958D01*
X189089882Y-85572031D01*
X189068644Y-85572096D01*
X189045165Y-85572154D01*
X189019494Y-85572203D01*
X188991678Y-85572245D01*
X188961764Y-85572279D01*
X188929800Y-85572304D01*
X188895834Y-85572321D01*
X188859914Y-85572330D01*
X188822087Y-85572331D01*
X188782401Y-85572322D01*
X188740903Y-85572305D01*
X188312806Y-85572088D01*
X188307401Y-85568511D01*
X188306140Y-85567604D01*
X188302027Y-85563841D01*
X188298831Y-85559844D01*
X188295667Y-85554755D01*
X188295667Y-85239790D01*
X188422987Y-85239790D01*
X188422990Y-85264916D01*
X188423000Y-85287851D01*
X188423020Y-85308698D01*
X188423053Y-85327557D01*
X188423103Y-85344528D01*
X188423171Y-85359713D01*
X188423260Y-85373211D01*
X188423373Y-85385124D01*
X188423514Y-85395552D01*
X188423684Y-85404597D01*
X188423886Y-85412358D01*
X188424123Y-85418936D01*
X188424398Y-85424433D01*
X188424713Y-85428948D01*
X188425072Y-85432583D01*
X188425476Y-85435437D01*
X188425930Y-85437613D01*
X188426434Y-85439210D01*
X188426993Y-85440330D01*
X188427609Y-85441072D01*
X188428285Y-85441538D01*
X188429023Y-85441828D01*
X188429826Y-85442043D01*
X188430697Y-85442284D01*
X188431638Y-85442651D01*
X188431961Y-85442780D01*
X188432830Y-85443003D01*
X188434144Y-85443209D01*
X188436002Y-85443398D01*
X188438506Y-85443571D01*
X188441757Y-85443729D01*
X188445857Y-85443872D01*
X188450905Y-85444001D01*
X188457004Y-85444117D01*
X188464254Y-85444221D01*
X188472756Y-85444312D01*
X188482611Y-85444392D01*
X188493920Y-85444462D01*
X188506785Y-85444522D01*
X188521306Y-85444573D01*
X188537585Y-85444615D01*
X188555722Y-85444649D01*
X188575818Y-85444676D01*
X188597975Y-85444696D01*
X188622293Y-85444711D01*
X188648874Y-85444720D01*
X188677818Y-85444725D01*
X188709227Y-85444726D01*
X188743202Y-85444724D01*
X188761562Y-85444723D01*
X188794329Y-85444723D01*
X188824585Y-85444724D01*
X188852429Y-85444723D01*
X188877963Y-85444718D01*
X188901289Y-85444707D01*
X188922507Y-85444686D01*
X188941718Y-85444654D01*
X188959025Y-85444607D01*
X188974526Y-85444544D01*
X188988325Y-85444462D01*
X189000521Y-85444358D01*
X189011217Y-85444230D01*
X189020513Y-85444075D01*
X189028510Y-85443891D01*
X189035310Y-85443676D01*
X189041013Y-85443426D01*
X189045721Y-85443139D01*
X189049534Y-85442813D01*
X189052555Y-85442446D01*
X189054883Y-85442034D01*
X189056621Y-85441575D01*
X189057869Y-85441067D01*
X189058729Y-85440507D01*
X189059300Y-85439893D01*
X189059686Y-85439222D01*
X189059986Y-85438492D01*
X189060302Y-85437700D01*
X189060736Y-85436844D01*
X189060862Y-85436602D01*
X189061102Y-85435936D01*
X189061323Y-85434944D01*
X189061526Y-85433526D01*
X189061713Y-85431578D01*
X189061883Y-85428999D01*
X189062037Y-85425688D01*
X189062177Y-85421542D01*
X189062302Y-85416460D01*
X189062415Y-85410339D01*
X189062514Y-85403079D01*
X189062602Y-85394578D01*
X189062679Y-85384733D01*
X189062745Y-85373442D01*
X189062802Y-85360605D01*
X189062849Y-85346119D01*
X189062889Y-85329882D01*
X189062921Y-85311793D01*
X189062947Y-85291750D01*
X189062966Y-85269651D01*
X189062981Y-85245395D01*
X189062990Y-85218878D01*
X189062996Y-85190001D01*
X189063000Y-85158660D01*
X189063000Y-85124754D01*
X189063000Y-85122495D01*
X189062999Y-85088703D01*
X189062996Y-85057470D01*
X189062988Y-85028695D01*
X189062977Y-85002276D01*
X189062961Y-84978112D01*
X189062940Y-84956102D01*
X189062913Y-84936144D01*
X189062878Y-84918138D01*
X189062836Y-84901982D01*
X189062786Y-84887576D01*
X189062727Y-84874816D01*
X189062658Y-84863603D01*
X189062579Y-84853835D01*
X189062489Y-84845411D01*
X189062387Y-84838230D01*
X189062272Y-84832190D01*
X189062144Y-84827190D01*
X189062003Y-84823129D01*
X189061846Y-84819905D01*
X189061674Y-84817418D01*
X189061487Y-84815566D01*
X189061282Y-84814248D01*
X189061060Y-84813362D01*
X189060820Y-84812808D01*
X189058401Y-84809768D01*
X189054947Y-84806935D01*
X189054920Y-84806919D01*
X189054347Y-84806680D01*
X189053437Y-84806459D01*
X189052087Y-84806256D01*
X189050197Y-84806069D01*
X189047666Y-84805898D01*
X189044392Y-84805743D01*
X189040273Y-84805602D01*
X189035210Y-84805475D01*
X189029099Y-84805361D01*
X189021841Y-84805260D01*
X189013334Y-84805170D01*
X189003476Y-84805092D01*
X188992167Y-84805024D01*
X188979305Y-84804965D01*
X188964789Y-84804916D01*
X188948517Y-84804874D01*
X188930389Y-84804840D01*
X188910303Y-84804813D01*
X188888158Y-84804792D01*
X188863852Y-84804777D01*
X188837285Y-84804766D01*
X188808355Y-84804759D01*
X188776960Y-84804756D01*
X188743000Y-84804755D01*
X188724120Y-84804755D01*
X188691637Y-84804757D01*
X188661662Y-84804761D01*
X188634095Y-84804769D01*
X188608833Y-84804781D01*
X188585774Y-84804798D01*
X188564818Y-84804821D01*
X188545861Y-84804850D01*
X188528802Y-84804886D01*
X188513539Y-84804929D01*
X188499971Y-84804982D01*
X188487996Y-84805043D01*
X188477511Y-84805115D01*
X188468415Y-84805198D01*
X188460605Y-84805292D01*
X188453981Y-84805398D01*
X188448441Y-84805517D01*
X188443882Y-84805650D01*
X188440202Y-84805798D01*
X188437300Y-84805961D01*
X188435075Y-84806139D01*
X188433423Y-84806335D01*
X188432244Y-84806548D01*
X188431435Y-84806779D01*
X188430894Y-84807029D01*
X188430434Y-84807279D01*
X188429608Y-84807642D01*
X188428844Y-84807941D01*
X188428142Y-84808278D01*
X188427497Y-84808755D01*
X188426909Y-84809471D01*
X188426374Y-84810528D01*
X188425890Y-84812028D01*
X188425453Y-84814071D01*
X188425063Y-84816759D01*
X188424716Y-84820192D01*
X188424410Y-84824472D01*
X188424142Y-84829700D01*
X188423909Y-84835977D01*
X188423710Y-84843404D01*
X188423542Y-84852082D01*
X188423401Y-84862112D01*
X188423287Y-84873596D01*
X188423195Y-84886634D01*
X188423124Y-84901327D01*
X188423071Y-84917778D01*
X188423034Y-84936086D01*
X188423010Y-84956353D01*
X188422997Y-84978680D01*
X188422991Y-85003168D01*
X188422992Y-85029919D01*
X188422995Y-85059032D01*
X188422999Y-85090611D01*
X188423000Y-85124754D01*
X188422999Y-85150271D01*
X188422995Y-85182569D01*
X188422990Y-85212375D01*
X188422987Y-85239790D01*
X188295667Y-85239790D01*
X188295667Y-85124755D01*
X188295667Y-84694755D01*
X188298831Y-84689665D01*
X188299656Y-84688463D01*
X188303298Y-84684382D01*
X188307401Y-84680998D01*
X188312806Y-84677421D01*
X188742903Y-84677421D01*
X189173000Y-84677421D01*
X189178090Y-84680585D01*
X189179292Y-84681410D01*
X189183373Y-84685052D01*
X189186757Y-84689155D01*
X189190334Y-84694560D01*
X189190675Y-85121818D01*
X189190676Y-85122495D01*
X189190687Y-85137175D01*
G37*
G36*
X191494687Y-85137175D02*
G01*
X191494717Y-85181117D01*
X191494737Y-85222436D01*
X191494748Y-85261162D01*
X191494749Y-85297328D01*
X191494742Y-85330965D01*
X191494724Y-85362107D01*
X191494698Y-85390784D01*
X191494661Y-85417029D01*
X191494615Y-85440873D01*
X191494560Y-85462349D01*
X191494494Y-85481489D01*
X191494418Y-85498323D01*
X191494333Y-85512885D01*
X191494237Y-85525207D01*
X191494131Y-85535319D01*
X191494015Y-85543254D01*
X191493889Y-85549045D01*
X191493752Y-85552722D01*
X191493605Y-85554319D01*
X191493478Y-85554757D01*
X191490966Y-85559763D01*
X191486915Y-85564735D01*
X191482123Y-85568842D01*
X191477385Y-85571254D01*
X191475809Y-85571369D01*
X191471590Y-85571485D01*
X191464796Y-85571594D01*
X191455475Y-85571696D01*
X191443676Y-85571790D01*
X191429446Y-85571878D01*
X191412832Y-85571958D01*
X191393882Y-85572031D01*
X191372644Y-85572096D01*
X191349165Y-85572154D01*
X191323494Y-85572203D01*
X191295678Y-85572245D01*
X191265764Y-85572279D01*
X191233800Y-85572304D01*
X191199834Y-85572321D01*
X191163914Y-85572330D01*
X191126087Y-85572331D01*
X191086401Y-85572322D01*
X191044903Y-85572305D01*
X190616806Y-85572088D01*
X190611401Y-85568511D01*
X190610140Y-85567604D01*
X190606027Y-85563841D01*
X190602831Y-85559844D01*
X190599667Y-85554755D01*
X190599667Y-85239790D01*
X190726987Y-85239790D01*
X190726990Y-85264916D01*
X190727000Y-85287851D01*
X190727020Y-85308698D01*
X190727053Y-85327557D01*
X190727103Y-85344528D01*
X190727171Y-85359713D01*
X190727260Y-85373211D01*
X190727373Y-85385124D01*
X190727514Y-85395552D01*
X190727684Y-85404597D01*
X190727886Y-85412358D01*
X190728123Y-85418936D01*
X190728398Y-85424433D01*
X190728713Y-85428948D01*
X190729072Y-85432583D01*
X190729476Y-85435437D01*
X190729930Y-85437613D01*
X190730434Y-85439210D01*
X190730993Y-85440330D01*
X190731609Y-85441072D01*
X190732285Y-85441538D01*
X190733023Y-85441828D01*
X190733826Y-85442043D01*
X190734697Y-85442284D01*
X190735638Y-85442651D01*
X190735961Y-85442780D01*
X190736830Y-85443003D01*
X190738144Y-85443209D01*
X190740002Y-85443398D01*
X190742506Y-85443571D01*
X190745757Y-85443729D01*
X190749857Y-85443872D01*
X190754905Y-85444001D01*
X190761004Y-85444117D01*
X190768254Y-85444221D01*
X190776756Y-85444312D01*
X190786611Y-85444392D01*
X190797920Y-85444462D01*
X190810785Y-85444522D01*
X190825306Y-85444573D01*
X190841585Y-85444615D01*
X190859722Y-85444649D01*
X190879818Y-85444676D01*
X190901975Y-85444696D01*
X190926293Y-85444711D01*
X190952874Y-85444720D01*
X190981818Y-85444725D01*
X191013227Y-85444726D01*
X191047202Y-85444724D01*
X191065562Y-85444723D01*
X191098329Y-85444723D01*
X191128585Y-85444724D01*
X191156429Y-85444723D01*
X191181963Y-85444718D01*
X191205289Y-85444707D01*
X191226507Y-85444686D01*
X191245718Y-85444654D01*
X191263025Y-85444607D01*
X191278526Y-85444544D01*
X191292325Y-85444462D01*
X191304521Y-85444358D01*
X191315217Y-85444230D01*
X191324513Y-85444075D01*
X191332510Y-85443891D01*
X191339310Y-85443676D01*
X191345013Y-85443426D01*
X191349721Y-85443139D01*
X191353534Y-85442813D01*
X191356555Y-85442446D01*
X191358883Y-85442034D01*
X191360621Y-85441575D01*
X191361869Y-85441067D01*
X191362729Y-85440507D01*
X191363300Y-85439893D01*
X191363686Y-85439222D01*
X191363986Y-85438492D01*
X191364302Y-85437700D01*
X191364736Y-85436844D01*
X191364862Y-85436602D01*
X191365102Y-85435936D01*
X191365323Y-85434944D01*
X191365526Y-85433526D01*
X191365713Y-85431578D01*
X191365883Y-85428999D01*
X191366037Y-85425688D01*
X191366177Y-85421542D01*
X191366302Y-85416460D01*
X191366415Y-85410339D01*
X191366514Y-85403079D01*
X191366602Y-85394578D01*
X191366679Y-85384733D01*
X191366745Y-85373442D01*
X191366802Y-85360605D01*
X191366849Y-85346119D01*
X191366889Y-85329882D01*
X191366921Y-85311793D01*
X191366947Y-85291750D01*
X191366966Y-85269651D01*
X191366981Y-85245395D01*
X191366990Y-85218878D01*
X191366996Y-85190001D01*
X191367000Y-85158660D01*
X191367000Y-85124754D01*
X191367000Y-85122495D01*
X191366999Y-85088703D01*
X191366996Y-85057470D01*
X191366988Y-85028695D01*
X191366977Y-85002276D01*
X191366961Y-84978112D01*
X191366940Y-84956102D01*
X191366913Y-84936144D01*
X191366878Y-84918138D01*
X191366836Y-84901982D01*
X191366786Y-84887576D01*
X191366727Y-84874816D01*
X191366658Y-84863603D01*
X191366579Y-84853835D01*
X191366489Y-84845411D01*
X191366387Y-84838230D01*
X191366272Y-84832190D01*
X191366144Y-84827190D01*
X191366003Y-84823129D01*
X191365846Y-84819905D01*
X191365674Y-84817418D01*
X191365487Y-84815566D01*
X191365282Y-84814248D01*
X191365060Y-84813362D01*
X191364820Y-84812808D01*
X191362401Y-84809768D01*
X191358947Y-84806935D01*
X191358920Y-84806919D01*
X191358347Y-84806680D01*
X191357437Y-84806459D01*
X191356087Y-84806256D01*
X191354197Y-84806069D01*
X191351666Y-84805898D01*
X191348392Y-84805743D01*
X191344273Y-84805602D01*
X191339210Y-84805475D01*
X191333099Y-84805361D01*
X191325841Y-84805260D01*
X191317334Y-84805170D01*
X191307476Y-84805092D01*
X191296167Y-84805024D01*
X191283305Y-84804965D01*
X191268789Y-84804916D01*
X191252517Y-84804874D01*
X191234389Y-84804840D01*
X191214303Y-84804813D01*
X191192158Y-84804792D01*
X191167852Y-84804777D01*
X191141285Y-84804766D01*
X191112355Y-84804759D01*
X191080960Y-84804756D01*
X191047000Y-84804755D01*
X191028120Y-84804755D01*
X190995637Y-84804757D01*
X190965662Y-84804761D01*
X190938095Y-84804769D01*
X190912833Y-84804781D01*
X190889774Y-84804798D01*
X190868818Y-84804821D01*
X190849861Y-84804850D01*
X190832802Y-84804886D01*
X190817539Y-84804929D01*
X190803971Y-84804982D01*
X190791996Y-84805043D01*
X190781511Y-84805115D01*
X190772415Y-84805198D01*
X190764605Y-84805292D01*
X190757981Y-84805398D01*
X190752441Y-84805517D01*
X190747882Y-84805650D01*
X190744202Y-84805798D01*
X190741300Y-84805961D01*
X190739075Y-84806139D01*
X190737423Y-84806335D01*
X190736244Y-84806548D01*
X190735435Y-84806779D01*
X190734894Y-84807029D01*
X190734434Y-84807279D01*
X190733608Y-84807642D01*
X190732844Y-84807941D01*
X190732142Y-84808278D01*
X190731497Y-84808755D01*
X190730909Y-84809471D01*
X190730374Y-84810528D01*
X190729890Y-84812028D01*
X190729453Y-84814071D01*
X190729063Y-84816759D01*
X190728716Y-84820192D01*
X190728410Y-84824472D01*
X190728142Y-84829700D01*
X190727909Y-84835977D01*
X190727710Y-84843404D01*
X190727542Y-84852082D01*
X190727401Y-84862112D01*
X190727287Y-84873596D01*
X190727195Y-84886634D01*
X190727124Y-84901327D01*
X190727071Y-84917778D01*
X190727034Y-84936086D01*
X190727010Y-84956353D01*
X190726997Y-84978680D01*
X190726991Y-85003168D01*
X190726992Y-85029919D01*
X190726995Y-85059032D01*
X190726999Y-85090611D01*
X190727000Y-85124754D01*
X190726999Y-85150271D01*
X190726995Y-85182569D01*
X190726990Y-85212375D01*
X190726987Y-85239790D01*
X190599667Y-85239790D01*
X190599667Y-85124755D01*
X190599667Y-84694755D01*
X190602831Y-84689665D01*
X190603656Y-84688463D01*
X190607298Y-84684382D01*
X190611401Y-84680998D01*
X190616806Y-84677421D01*
X191046903Y-84677421D01*
X191477000Y-84677421D01*
X191482090Y-84680585D01*
X191483292Y-84681410D01*
X191487373Y-84685052D01*
X191490757Y-84689155D01*
X191494334Y-84694560D01*
X191494675Y-85121818D01*
X191494676Y-85122495D01*
X191494687Y-85137175D01*
G37*
G36*
X191494687Y-87441175D02*
G01*
X191494717Y-87485117D01*
X191494737Y-87526436D01*
X191494748Y-87565162D01*
X191494749Y-87601328D01*
X191494742Y-87634965D01*
X191494724Y-87666107D01*
X191494698Y-87694784D01*
X191494661Y-87721029D01*
X191494615Y-87744873D01*
X191494560Y-87766349D01*
X191494494Y-87785489D01*
X191494418Y-87802323D01*
X191494333Y-87816885D01*
X191494237Y-87829207D01*
X191494131Y-87839319D01*
X191494015Y-87847254D01*
X191493889Y-87853045D01*
X191493752Y-87856722D01*
X191493605Y-87858319D01*
X191493478Y-87858757D01*
X191490966Y-87863763D01*
X191486915Y-87868735D01*
X191482123Y-87872842D01*
X191477385Y-87875254D01*
X191475809Y-87875369D01*
X191471590Y-87875485D01*
X191464796Y-87875594D01*
X191455475Y-87875696D01*
X191443676Y-87875790D01*
X191429446Y-87875878D01*
X191412832Y-87875958D01*
X191393882Y-87876031D01*
X191372644Y-87876096D01*
X191349165Y-87876154D01*
X191323494Y-87876203D01*
X191295678Y-87876245D01*
X191265764Y-87876279D01*
X191233800Y-87876304D01*
X191199834Y-87876321D01*
X191163914Y-87876330D01*
X191126087Y-87876331D01*
X191086401Y-87876322D01*
X191044903Y-87876305D01*
X190616806Y-87876088D01*
X190611401Y-87872511D01*
X190610140Y-87871604D01*
X190606027Y-87867841D01*
X190602831Y-87863844D01*
X190599667Y-87858755D01*
X190599667Y-87543790D01*
X190726987Y-87543790D01*
X190726990Y-87568916D01*
X190727000Y-87591851D01*
X190727020Y-87612698D01*
X190727053Y-87631557D01*
X190727103Y-87648528D01*
X190727171Y-87663713D01*
X190727260Y-87677211D01*
X190727373Y-87689124D01*
X190727514Y-87699552D01*
X190727684Y-87708597D01*
X190727886Y-87716358D01*
X190728123Y-87722936D01*
X190728398Y-87728433D01*
X190728713Y-87732948D01*
X190729072Y-87736583D01*
X190729476Y-87739437D01*
X190729930Y-87741613D01*
X190730434Y-87743210D01*
X190730993Y-87744330D01*
X190731609Y-87745072D01*
X190732285Y-87745538D01*
X190733023Y-87745828D01*
X190733826Y-87746043D01*
X190734697Y-87746284D01*
X190735638Y-87746651D01*
X190735961Y-87746780D01*
X190736830Y-87747003D01*
X190738144Y-87747209D01*
X190740002Y-87747398D01*
X190742506Y-87747571D01*
X190745757Y-87747729D01*
X190749857Y-87747872D01*
X190754905Y-87748001D01*
X190761004Y-87748117D01*
X190768254Y-87748221D01*
X190776756Y-87748312D01*
X190786611Y-87748392D01*
X190797920Y-87748462D01*
X190810785Y-87748522D01*
X190825306Y-87748573D01*
X190841585Y-87748615D01*
X190859722Y-87748649D01*
X190879818Y-87748676D01*
X190901975Y-87748696D01*
X190926293Y-87748711D01*
X190952874Y-87748720D01*
X190981818Y-87748725D01*
X191013227Y-87748726D01*
X191047202Y-87748724D01*
X191065562Y-87748723D01*
X191098329Y-87748723D01*
X191128585Y-87748724D01*
X191156429Y-87748723D01*
X191181963Y-87748718D01*
X191205289Y-87748707D01*
X191226507Y-87748686D01*
X191245718Y-87748654D01*
X191263025Y-87748607D01*
X191278526Y-87748544D01*
X191292325Y-87748462D01*
X191304521Y-87748358D01*
X191315217Y-87748230D01*
X191324513Y-87748075D01*
X191332510Y-87747891D01*
X191339310Y-87747676D01*
X191345013Y-87747426D01*
X191349721Y-87747139D01*
X191353534Y-87746813D01*
X191356555Y-87746446D01*
X191358883Y-87746034D01*
X191360621Y-87745575D01*
X191361869Y-87745067D01*
X191362729Y-87744507D01*
X191363300Y-87743893D01*
X191363686Y-87743222D01*
X191363986Y-87742492D01*
X191364302Y-87741700D01*
X191364736Y-87740844D01*
X191364862Y-87740602D01*
X191365102Y-87739936D01*
X191365323Y-87738944D01*
X191365526Y-87737526D01*
X191365713Y-87735578D01*
X191365883Y-87732999D01*
X191366037Y-87729688D01*
X191366177Y-87725542D01*
X191366302Y-87720460D01*
X191366415Y-87714339D01*
X191366514Y-87707079D01*
X191366602Y-87698578D01*
X191366679Y-87688733D01*
X191366745Y-87677442D01*
X191366802Y-87664605D01*
X191366849Y-87650119D01*
X191366889Y-87633882D01*
X191366921Y-87615793D01*
X191366947Y-87595750D01*
X191366966Y-87573651D01*
X191366981Y-87549395D01*
X191366990Y-87522878D01*
X191366996Y-87494001D01*
X191367000Y-87462660D01*
X191367000Y-87428754D01*
X191367000Y-87426495D01*
X191366999Y-87392703D01*
X191366996Y-87361470D01*
X191366988Y-87332695D01*
X191366977Y-87306276D01*
X191366961Y-87282112D01*
X191366940Y-87260102D01*
X191366913Y-87240144D01*
X191366878Y-87222138D01*
X191366836Y-87205982D01*
X191366786Y-87191576D01*
X191366727Y-87178816D01*
X191366658Y-87167603D01*
X191366579Y-87157835D01*
X191366489Y-87149411D01*
X191366387Y-87142230D01*
X191366272Y-87136190D01*
X191366144Y-87131190D01*
X191366003Y-87127129D01*
X191365846Y-87123905D01*
X191365674Y-87121418D01*
X191365487Y-87119566D01*
X191365282Y-87118248D01*
X191365060Y-87117362D01*
X191364820Y-87116808D01*
X191362401Y-87113768D01*
X191358947Y-87110935D01*
X191358920Y-87110919D01*
X191358347Y-87110680D01*
X191357437Y-87110459D01*
X191356087Y-87110256D01*
X191354197Y-87110069D01*
X191351666Y-87109898D01*
X191348392Y-87109743D01*
X191344273Y-87109602D01*
X191339210Y-87109475D01*
X191333099Y-87109361D01*
X191325841Y-87109260D01*
X191317334Y-87109170D01*
X191307476Y-87109092D01*
X191296167Y-87109024D01*
X191283305Y-87108965D01*
X191268789Y-87108916D01*
X191252517Y-87108874D01*
X191234389Y-87108840D01*
X191214303Y-87108813D01*
X191192158Y-87108792D01*
X191167852Y-87108777D01*
X191141285Y-87108766D01*
X191112355Y-87108759D01*
X191080960Y-87108756D01*
X191047000Y-87108755D01*
X191028120Y-87108755D01*
X190995637Y-87108757D01*
X190965662Y-87108761D01*
X190938095Y-87108769D01*
X190912833Y-87108781D01*
X190889774Y-87108798D01*
X190868818Y-87108821D01*
X190849861Y-87108850D01*
X190832802Y-87108886D01*
X190817539Y-87108929D01*
X190803971Y-87108982D01*
X190791996Y-87109043D01*
X190781511Y-87109115D01*
X190772415Y-87109198D01*
X190764605Y-87109292D01*
X190757981Y-87109398D01*
X190752441Y-87109517D01*
X190747882Y-87109650D01*
X190744202Y-87109798D01*
X190741300Y-87109961D01*
X190739075Y-87110139D01*
X190737423Y-87110335D01*
X190736244Y-87110548D01*
X190735435Y-87110779D01*
X190734894Y-87111029D01*
X190734434Y-87111279D01*
X190733608Y-87111642D01*
X190732844Y-87111941D01*
X190732142Y-87112278D01*
X190731497Y-87112755D01*
X190730909Y-87113471D01*
X190730374Y-87114528D01*
X190729890Y-87116028D01*
X190729453Y-87118071D01*
X190729063Y-87120759D01*
X190728716Y-87124192D01*
X190728410Y-87128472D01*
X190728142Y-87133700D01*
X190727909Y-87139977D01*
X190727710Y-87147404D01*
X190727542Y-87156082D01*
X190727401Y-87166112D01*
X190727287Y-87177596D01*
X190727195Y-87190634D01*
X190727124Y-87205327D01*
X190727071Y-87221778D01*
X190727034Y-87240086D01*
X190727010Y-87260353D01*
X190726997Y-87282680D01*
X190726991Y-87307168D01*
X190726992Y-87333919D01*
X190726995Y-87363032D01*
X190726999Y-87394611D01*
X190727000Y-87428754D01*
X190726999Y-87454271D01*
X190726995Y-87486569D01*
X190726990Y-87516375D01*
X190726987Y-87543790D01*
X190599667Y-87543790D01*
X190599667Y-87428755D01*
X190599667Y-86998755D01*
X190602831Y-86993665D01*
X190603656Y-86992463D01*
X190607298Y-86988382D01*
X190611401Y-86984998D01*
X190616806Y-86981421D01*
X191046903Y-86981421D01*
X191477000Y-86981421D01*
X191482090Y-86984585D01*
X191483292Y-86985410D01*
X191487373Y-86989052D01*
X191490757Y-86993155D01*
X191494334Y-86998560D01*
X191494675Y-87425818D01*
X191494676Y-87426495D01*
X191494687Y-87441175D01*
G37*
G36*
X189447000Y-85572755D02*
G01*
X189447000Y-85700755D01*
X189639000Y-85700755D01*
X189831001Y-85700755D01*
X189831001Y-85572755D01*
X189831001Y-85444755D01*
X189895000Y-85444755D01*
X189959000Y-85444755D01*
X189959000Y-85636755D01*
X189959000Y-85828755D01*
X189831001Y-85828755D01*
X189703000Y-85828755D01*
X189703000Y-85892755D01*
X189703000Y-85956755D01*
X189895000Y-85956755D01*
X190087000Y-85956755D01*
X190087000Y-86020755D01*
X190087000Y-86084755D01*
X190151000Y-86084755D01*
X190215000Y-86084755D01*
X190215000Y-85956755D01*
X190215000Y-85828755D01*
X190151000Y-85828755D01*
X190087000Y-85828755D01*
X190087000Y-85764755D01*
X190087000Y-85700755D01*
X190407000Y-85700755D01*
X190727000Y-85700755D01*
X190727000Y-85764755D01*
X190727000Y-85828755D01*
X190791000Y-85828755D01*
X190855001Y-85828755D01*
X190855001Y-85764755D01*
X190855001Y-85700755D01*
X191175000Y-85700755D01*
X191495000Y-85700755D01*
X191495000Y-85764755D01*
X191495000Y-85828755D01*
X191367000Y-85828755D01*
X191239000Y-85828755D01*
X191239000Y-86020755D01*
X191239000Y-86212755D01*
X191175000Y-86212755D01*
X191111000Y-86212755D01*
X191111000Y-86020755D01*
X191111000Y-85828755D01*
X190983000Y-85828755D01*
X190855001Y-85828755D01*
X190855001Y-85892755D01*
X190855001Y-85956755D01*
X190791000Y-85956755D01*
X190727000Y-85956755D01*
X190727000Y-85892755D01*
X190727000Y-85828755D01*
X190663000Y-85828755D01*
X190599000Y-85828755D01*
X190599000Y-85892755D01*
X190599000Y-85956755D01*
X190535000Y-85956755D01*
X190471000Y-85956755D01*
X190471000Y-85892755D01*
X190471000Y-85828755D01*
X190407000Y-85828755D01*
X190343000Y-85828755D01*
X190343000Y-85892755D01*
X190343000Y-85956755D01*
X190407000Y-85956755D01*
X190471000Y-85956755D01*
X190471000Y-86020755D01*
X190471000Y-86084755D01*
X190407000Y-86084755D01*
X190343000Y-86084755D01*
X190343000Y-86148755D01*
X190343000Y-86212755D01*
X190407000Y-86212755D01*
X190471000Y-86212755D01*
X190471000Y-86276755D01*
X190471000Y-86340754D01*
X190407000Y-86340754D01*
X190343000Y-86340754D01*
X190343000Y-86404755D01*
X190343000Y-86468755D01*
X190407000Y-86468755D01*
X190471000Y-86468755D01*
X190471000Y-86532755D01*
X190471000Y-86596755D01*
X190535000Y-86596755D01*
X190599000Y-86596755D01*
X190599000Y-86660755D01*
X190599000Y-86724755D01*
X190727000Y-86724755D01*
X190855001Y-86724755D01*
X190855001Y-86532755D01*
X190855001Y-86340754D01*
X190919000Y-86340754D01*
X190983000Y-86340754D01*
X190983000Y-86532755D01*
X190983000Y-86724755D01*
X191047000Y-86724755D01*
X191111000Y-86724755D01*
X191111000Y-86596755D01*
X191111000Y-86468755D01*
X191175000Y-86468755D01*
X191239000Y-86468755D01*
X191239000Y-86660755D01*
X191239000Y-86852755D01*
X191111000Y-86852755D01*
X190983000Y-86852755D01*
X190983000Y-86788755D01*
X190983000Y-86724755D01*
X190919000Y-86724755D01*
X190855001Y-86724755D01*
X190855001Y-86788755D01*
X190855001Y-86852755D01*
X190727000Y-86852755D01*
X190599000Y-86852755D01*
X190599000Y-86788755D01*
X190599000Y-86724755D01*
X190471000Y-86724755D01*
X190343000Y-86724755D01*
X190343000Y-86788755D01*
X190343000Y-86852755D01*
X190407000Y-86852755D01*
X190471000Y-86852755D01*
X190471000Y-86980755D01*
X190471000Y-87108755D01*
X190407000Y-87108755D01*
X190343000Y-87108755D01*
X190343000Y-87044755D01*
X190343000Y-86980755D01*
X190215000Y-86980755D01*
X190087000Y-86980755D01*
X190087000Y-86916755D01*
X190087000Y-86852755D01*
X190151000Y-86852755D01*
X190215000Y-86852755D01*
X190215000Y-86788755D01*
X190215000Y-86724755D01*
X190151000Y-86724755D01*
X190087000Y-86724755D01*
X190087000Y-86532755D01*
X190087000Y-86340754D01*
X190151000Y-86340754D01*
X190215000Y-86340754D01*
X190215000Y-86276755D01*
X190215000Y-86212755D01*
X190151000Y-86212755D01*
X190087000Y-86212755D01*
X190087000Y-86276755D01*
X190087000Y-86340754D01*
X190023000Y-86340754D01*
X189959000Y-86340754D01*
X189959000Y-86212755D01*
X189959000Y-86084755D01*
X189831001Y-86084755D01*
X189703000Y-86084755D01*
X189703000Y-86148755D01*
X189703000Y-86212755D01*
X189639000Y-86212755D01*
X189575000Y-86212755D01*
X189575000Y-86148755D01*
X189575000Y-86084755D01*
X189511000Y-86084755D01*
X189447000Y-86084755D01*
X189447000Y-86148755D01*
X189447000Y-86212755D01*
X189319000Y-86212755D01*
X189191000Y-86212755D01*
X189191000Y-86148755D01*
X189191000Y-86084755D01*
X189127000Y-86084755D01*
X189063000Y-86084755D01*
X189063000Y-86020755D01*
X189319000Y-86020755D01*
X189319000Y-86084755D01*
X189383000Y-86084755D01*
X189447000Y-86084755D01*
X189447000Y-86020755D01*
X189447000Y-85956755D01*
X189383000Y-85956755D01*
X189319000Y-85956755D01*
X189319000Y-86020755D01*
X189063000Y-86020755D01*
X189063000Y-85956755D01*
X188999000Y-85956755D01*
X188935000Y-85956755D01*
X188935000Y-86020755D01*
X188935000Y-86084755D01*
X188871000Y-86084755D01*
X188807000Y-86084755D01*
X188807000Y-85956755D01*
X188807000Y-85828755D01*
X188743000Y-85828755D01*
X188679000Y-85828755D01*
X188679000Y-85764755D01*
X188679000Y-85700755D01*
X188743000Y-85700755D01*
X188807000Y-85700755D01*
X188807000Y-85764755D01*
X188807000Y-85828755D01*
X188871000Y-85828755D01*
X188935000Y-85828755D01*
X188935000Y-85764755D01*
X188935000Y-85700755D01*
X188999000Y-85700755D01*
X189063000Y-85700755D01*
X189063000Y-85828755D01*
X189063000Y-85956755D01*
X189127000Y-85956755D01*
X189191000Y-85956755D01*
X189191000Y-85828755D01*
X189191000Y-85700755D01*
X189255000Y-85700755D01*
X189319000Y-85700755D01*
X189319000Y-85764755D01*
X189319000Y-85828755D01*
X189383000Y-85828755D01*
X189447000Y-85828755D01*
X189447000Y-85764755D01*
X189447000Y-85700755D01*
X189383000Y-85700755D01*
X189319000Y-85700755D01*
X189319000Y-85572755D01*
X189319000Y-85444755D01*
X189383000Y-85444755D01*
X189447000Y-85444755D01*
X189447000Y-85572755D01*
G37*
G36*
X191367000Y-86212755D02*
G01*
X191495000Y-86212755D01*
X191495000Y-86532755D01*
X191495000Y-86852755D01*
X191431000Y-86852755D01*
X191367000Y-86852755D01*
X191367000Y-86596755D01*
X191367000Y-86340754D01*
X191303000Y-86340754D01*
X191239000Y-86340754D01*
X191239000Y-86276755D01*
X191239000Y-86212755D01*
X191367000Y-86212755D01*
G37*
G36*
X190471000Y-85188755D02*
G01*
X190343000Y-85188755D01*
X190215000Y-85188755D01*
X190215000Y-85380755D01*
X190215000Y-85572755D01*
X190151000Y-85572755D01*
X190087000Y-85572755D01*
X190087000Y-85380755D01*
X190087000Y-85188755D01*
X190023000Y-85188755D01*
X189959000Y-85188755D01*
X189959000Y-85252755D01*
X189959000Y-85316754D01*
X189895000Y-85316754D01*
X189831001Y-85316754D01*
X189831001Y-85380755D01*
X189831001Y-85444755D01*
X189767000Y-85444755D01*
X189703000Y-85444755D01*
X189703000Y-85508755D01*
X189703000Y-85572755D01*
X189639000Y-85572755D01*
X189575000Y-85572755D01*
X189575000Y-85508755D01*
X189575000Y-85444755D01*
X189511000Y-85444755D01*
X189447000Y-85444755D01*
X189447000Y-85380755D01*
X189447000Y-85316754D01*
X189383000Y-85316754D01*
X189319000Y-85316754D01*
X189319000Y-85188755D01*
X189319000Y-85060755D01*
X189447000Y-85060755D01*
X189575000Y-85060755D01*
X189575000Y-85188755D01*
X189575000Y-85316754D01*
X189703000Y-85316754D01*
X189831001Y-85316754D01*
X189831001Y-85252755D01*
X189831001Y-85188755D01*
X189767000Y-85188755D01*
X189703000Y-85188755D01*
X189703000Y-85124755D01*
X189703000Y-85060755D01*
X189767000Y-85060755D01*
X189831001Y-85060755D01*
X189831001Y-85124755D01*
X189831001Y-85188755D01*
X189895000Y-85188755D01*
X189959000Y-85188755D01*
X189959000Y-85060755D01*
X190087000Y-85060755D01*
X190087000Y-85124755D01*
X190087000Y-85188755D01*
X190151000Y-85188755D01*
X190215000Y-85188755D01*
X190215000Y-85124755D01*
X190215000Y-85060755D01*
X190151000Y-85060755D01*
X190087000Y-85060755D01*
X189959000Y-85060755D01*
X189959000Y-84932755D01*
X189767000Y-84932755D01*
X189575000Y-84932755D01*
X189575000Y-84804755D01*
X189575000Y-84676755D01*
X189639000Y-84676755D01*
X189703000Y-84676755D01*
X189703000Y-84740755D01*
X189703000Y-84804755D01*
X189895000Y-84804755D01*
X190087000Y-84804755D01*
X190087000Y-84868755D01*
X190087000Y-84932755D01*
X190151000Y-84932755D01*
X190215000Y-84932755D01*
X190215000Y-84804755D01*
X190215000Y-84676755D01*
X190279000Y-84676755D01*
X190343000Y-84676755D01*
X190343000Y-84740755D01*
X190343000Y-84804755D01*
X190407000Y-84804755D01*
X190471000Y-84804755D01*
X190471000Y-84868755D01*
X190471000Y-84932755D01*
X190407000Y-84932755D01*
X190343000Y-84932755D01*
X190343000Y-84996755D01*
X190343000Y-85060755D01*
X190407000Y-85060755D01*
X190471000Y-85060755D01*
X190471000Y-85124755D01*
X190471000Y-85188755D01*
G37*
%TO.C,C77*%
D12*
X185527836Y-98430000D02*
X185312164Y-98430000D01*
X185527836Y-99150000D02*
X185312164Y-99150000D01*
%TO.C,R75*%
X210001359Y-113360000D02*
X210308641Y-113360000D01*
X210001359Y-114120000D02*
X210308641Y-114120000D01*
%TO.C,C63*%
X185492164Y-90590000D02*
X185707836Y-90590000D01*
X185492164Y-91310000D02*
X185707836Y-91310000D01*
%TO.C,C59*%
X187352164Y-90590000D02*
X187567836Y-90590000D01*
X187352164Y-91310000D02*
X187567836Y-91310000D01*
%TO.C,C75*%
X186707836Y-111245000D02*
X186492164Y-111245000D01*
X186707836Y-111965000D02*
X186492164Y-111965000D01*
%TO.C,TP8*%
X191870000Y-104510000D02*
G75*
G02*
X190470000Y-104510000I-700000J0D01*
G01*
X190470000Y-104510000D02*
G75*
G02*
X191870000Y-104510000I700000J0D01*
G01*
%TO.C,R66*%
X214985000Y-97411359D02*
X214985000Y-97718641D01*
X215745000Y-97411359D02*
X215745000Y-97718641D01*
%TO.C,C5*%
X195360000Y-117178748D02*
X195360000Y-117701252D01*
X196830000Y-117178748D02*
X196830000Y-117701252D01*
%TO.C,R12*%
X202178641Y-107420000D02*
X201871359Y-107420000D01*
X202178641Y-108180000D02*
X201871359Y-108180000D01*
%TO.C,R49*%
X208270000Y-91848641D02*
X208270000Y-91541359D01*
X209030000Y-91848641D02*
X209030000Y-91541359D01*
%TO.C,R56*%
X206291359Y-113370000D02*
X206598641Y-113370000D01*
X206291359Y-114130000D02*
X206598641Y-114130000D01*
%TO.C,C24*%
X189862164Y-102660000D02*
X190077836Y-102660000D01*
X189862164Y-103380000D02*
X190077836Y-103380000D01*
%TO.C,R90*%
X182695000Y-89021359D02*
X182695000Y-89328641D01*
X183455000Y-89021359D02*
X183455000Y-89328641D01*
%TO.C,R31*%
X193045000Y-99746359D02*
X193045000Y-100053641D01*
X193805000Y-99746359D02*
X193805000Y-100053641D01*
%TO.C,R100*%
X216495000Y-105521359D02*
X216495000Y-105828641D01*
X217255000Y-105521359D02*
X217255000Y-105828641D01*
%TO.C,C97*%
X216540000Y-107417164D02*
X216540000Y-107632836D01*
X217260000Y-107417164D02*
X217260000Y-107632836D01*
%TO.C,R72*%
X183495000Y-107903641D02*
X183495000Y-107596359D01*
X184255000Y-107903641D02*
X184255000Y-107596359D01*
%TO.C,C87*%
X182715000Y-90912164D02*
X182715000Y-91127836D01*
X183435000Y-90912164D02*
X183435000Y-91127836D01*
%TO.C,R15*%
X206530000Y-101123641D02*
X206530000Y-100816359D01*
X207290000Y-101123641D02*
X207290000Y-100816359D01*
%TO.C,R7*%
X202588641Y-99095000D02*
X202281359Y-99095000D01*
X202588641Y-99855000D02*
X202281359Y-99855000D01*
%TO.C,C22*%
X208835000Y-106382836D02*
X208835000Y-106167164D01*
X209555000Y-106382836D02*
X209555000Y-106167164D01*
%TO.C,R22*%
X196921359Y-109280000D02*
X197228641Y-109280000D01*
X196921359Y-110040000D02*
X197228641Y-110040000D01*
%TO.C,C60*%
X187982164Y-102660000D02*
X188197836Y-102660000D01*
X187982164Y-103380000D02*
X188197836Y-103380000D01*
%TO.C,C26*%
X210682166Y-111550000D02*
X210466494Y-111550000D01*
X210682166Y-112270000D02*
X210466494Y-112270000D01*
%TO.C,R71*%
X186578641Y-101085000D02*
X186271359Y-101085000D01*
X186578641Y-101845000D02*
X186271359Y-101845000D01*
%TO.C,C88*%
X182365000Y-95137164D02*
X182365000Y-95352836D01*
X183085000Y-95137164D02*
X183085000Y-95352836D01*
%TO.C,R73*%
X212926359Y-101340000D02*
X213233641Y-101340000D01*
X212926359Y-102100000D02*
X213233641Y-102100000D01*
%TO.C,TP7*%
X192200000Y-91510000D02*
G75*
G02*
X190800000Y-91510000I-700000J0D01*
G01*
X190800000Y-91510000D02*
G75*
G02*
X192200000Y-91510000I700000J0D01*
G01*
%TO.C,C65*%
X213767836Y-100370000D02*
X213552164Y-100370000D01*
X213767836Y-101090000D02*
X213552164Y-101090000D01*
%TO.C,TP9*%
X209110000Y-99430000D02*
G75*
G02*
X207710000Y-99430000I-700000J0D01*
G01*
X207710000Y-99430000D02*
G75*
G02*
X209110000Y-99430000I700000J0D01*
G01*
%TO.C,R47*%
X206385000Y-91536359D02*
X206385000Y-91843641D01*
X207145000Y-91536359D02*
X207145000Y-91843641D01*
%TO.C,C61*%
X211897836Y-100370000D02*
X211682164Y-100370000D01*
X211897836Y-101090000D02*
X211682164Y-101090000D01*
%TO.C,C7*%
X191860000Y-117102164D02*
X191860000Y-117317836D01*
X192580000Y-117102164D02*
X192580000Y-117317836D01*
%TO.C,R52*%
X207895000Y-103328641D02*
X207895000Y-103021359D01*
X208655000Y-103328641D02*
X208655000Y-103021359D01*
%TO.C,U9*%
D14*
X185409471Y-104643800D02*
X185409471Y-105177607D01*
X185409471Y-108796200D02*
X185409471Y-108262393D01*
X185943278Y-104643800D02*
X185409471Y-104643800D01*
X185943278Y-108796200D02*
X185409471Y-108796200D01*
X189028064Y-104643800D02*
X189561871Y-104643800D01*
X189028064Y-108796200D02*
X189561871Y-108796200D01*
X189561871Y-104643800D02*
X189561871Y-105177607D01*
X189561871Y-108796200D02*
X189561871Y-108262393D01*
D16*
X189515643Y-108720000D02*
G75*
G02*
X189455699Y-108720000I-29972J0D01*
G01*
X189455699Y-108720000D02*
G75*
G02*
X189515643Y-108720000I29972J0D01*
G01*
D15*
X189597685Y-109088047D02*
G75*
G02*
X189397533Y-109088047I-100076J0D01*
G01*
X189397533Y-109088047D02*
G75*
G02*
X189597685Y-109088047I100076J0D01*
G01*
%TO.C,C92*%
D12*
X182565000Y-112017164D02*
X182565000Y-112232836D01*
X183285000Y-112017164D02*
X183285000Y-112232836D01*
%TO.C,R53*%
X190228641Y-89130000D02*
X189921359Y-89130000D01*
X190228641Y-89890000D02*
X189921359Y-89890000D01*
%TO.C,C19*%
X189490000Y-96467164D02*
X189490000Y-96682836D01*
X190210000Y-96467164D02*
X190210000Y-96682836D01*
%TO.C,R55*%
X209211359Y-101345000D02*
X209518641Y-101345000D01*
X209211359Y-102105000D02*
X209518641Y-102105000D01*
%TO.C,U8*%
D14*
X185083800Y-92199471D02*
X185083800Y-92733278D01*
X185083800Y-96351871D02*
X185083800Y-95818064D01*
X185617607Y-92199471D02*
X185083800Y-92199471D01*
X185617607Y-96351871D02*
X185083800Y-96351871D01*
X188702393Y-92199471D02*
X189236200Y-92199471D01*
X188702393Y-96351871D02*
X189236200Y-96351871D01*
X189236200Y-92199471D02*
X189236200Y-92733278D01*
X189236200Y-96351871D02*
X189236200Y-95818064D01*
D16*
X189189972Y-96275671D02*
G75*
G02*
X189130028Y-96275671I-29972J0D01*
G01*
X189130028Y-96275671D02*
G75*
G02*
X189189972Y-96275671I29972J0D01*
G01*
D15*
X189272014Y-96643718D02*
G75*
G02*
X189071862Y-96643718I-100076J0D01*
G01*
X189071862Y-96643718D02*
G75*
G02*
X189272014Y-96643718I100076J0D01*
G01*
%TO.C,R36*%
D12*
X204480000Y-91858641D02*
X204480000Y-91551359D01*
X205240000Y-91858641D02*
X205240000Y-91551359D01*
%TO.C,C3*%
X210460000Y-116622164D02*
X210460000Y-116837836D01*
X211180000Y-116622164D02*
X211180000Y-116837836D01*
%TO.C,TP5*%
X206060000Y-99430000D02*
G75*
G02*
X204660000Y-99430000I-700000J0D01*
G01*
X204660000Y-99430000D02*
G75*
G02*
X206060000Y-99430000I700000J0D01*
G01*
%TO.C,R28*%
X201738641Y-102680000D02*
X201431359Y-102680000D01*
X201738641Y-103440000D02*
X201431359Y-103440000D01*
%TO.C,U10*%
D14*
X209989470Y-95013800D02*
X209989470Y-95547607D01*
X209989470Y-99166200D02*
X209989470Y-98632393D01*
X210523277Y-95013800D02*
X209989470Y-95013800D01*
X210523277Y-99166200D02*
X209989470Y-99166200D01*
X213608063Y-95013800D02*
X214141870Y-95013800D01*
X213608063Y-99166200D02*
X214141870Y-99166200D01*
X214141870Y-95013800D02*
X214141870Y-95547607D01*
X214141870Y-99166200D02*
X214141870Y-98632393D01*
D15*
X210153808Y-94721953D02*
G75*
G02*
X209953656Y-94721953I-100076J0D01*
G01*
X209953656Y-94721953D02*
G75*
G02*
X210153808Y-94721953I100076J0D01*
G01*
D16*
X210095642Y-95090000D02*
G75*
G02*
X210035698Y-95090000I-29972J0D01*
G01*
X210035698Y-95090000D02*
G75*
G02*
X210095642Y-95090000I29972J0D01*
G01*
%TO.C,R34*%
D12*
X192825000Y-111851359D02*
X192825000Y-112158641D01*
X193585000Y-111851359D02*
X193585000Y-112158641D01*
%TO.C,R76*%
X215450000Y-106831359D02*
X215450000Y-107138641D01*
X216210000Y-106831359D02*
X216210000Y-107138641D01*
%TO.C,C67*%
X185900580Y-97065000D02*
X185619420Y-97065000D01*
X185900580Y-98085000D02*
X185619420Y-98085000D01*
%TO.C,C66*%
X214442166Y-111550000D02*
X214226494Y-111550000D01*
X214442166Y-112270000D02*
X214226494Y-112270000D01*
%TO.C,R58*%
X184703641Y-101570000D02*
X184396359Y-101570000D01*
X184703641Y-102330000D02*
X184396359Y-102330000D01*
%TO.C,R45*%
X190950000Y-111921359D02*
X190950000Y-112228641D01*
X191710000Y-111921359D02*
X191710000Y-112228641D01*
%TO.C,R9*%
X196746359Y-94415000D02*
X197053641Y-94415000D01*
X196746359Y-95175000D02*
X197053641Y-95175000D01*
%TO.C,R5*%
X196736359Y-92525000D02*
X197043641Y-92525000D01*
X196736359Y-93285000D02*
X197043641Y-93285000D01*
%TO.C,C89*%
X182390000Y-99187164D02*
X182390000Y-99402836D01*
X183110000Y-99187164D02*
X183110000Y-99402836D01*
%TO.C,C8*%
X191435000Y-114612836D02*
X191435000Y-114397164D01*
X192155000Y-114612836D02*
X192155000Y-114397164D01*
%TO.C,R32*%
X194720000Y-111871359D02*
X194720000Y-112178641D01*
X195480000Y-111871359D02*
X195480000Y-112178641D01*
%TO.C,C91*%
X182265000Y-107317164D02*
X182265000Y-107532836D01*
X182985000Y-107317164D02*
X182985000Y-107532836D01*
%TO.C,C16*%
X196972164Y-108305000D02*
X197187836Y-108305000D01*
X196972164Y-109025000D02*
X197187836Y-109025000D01*
%TO.C,R37*%
X205420000Y-91838641D02*
X205420000Y-91531359D01*
X206180000Y-91838641D02*
X206180000Y-91531359D01*
%TO.C,R54*%
X190303641Y-101095000D02*
X189996359Y-101095000D01*
X190303641Y-101855000D02*
X189996359Y-101855000D01*
%TO.C,R99*%
X216370000Y-101446359D02*
X216370000Y-101753641D01*
X217130000Y-101446359D02*
X217130000Y-101753641D01*
%TO.C,U3*%
X188920748Y-118350000D02*
X190730000Y-118350000D01*
X190730000Y-116130000D02*
X188510000Y-116130000D01*
X188770000Y-118550000D02*
X188490000Y-118550000D01*
X188630000Y-118360000D01*
X188770000Y-118550000D01*
G36*
X188770000Y-118550000D02*
G01*
X188490000Y-118550000D01*
X188630000Y-118360000D01*
X188770000Y-118550000D01*
G37*
%TO.C,R50*%
X205995000Y-103031359D02*
X205995000Y-103338641D01*
X206755000Y-103031359D02*
X206755000Y-103338641D01*
%TO.C,R60*%
X211871359Y-113370000D02*
X212178641Y-113370000D01*
X211871359Y-114130000D02*
X212178641Y-114130000D01*
%TO.C,R20*%
X202173641Y-103640000D02*
X201866359Y-103640000D01*
X202173641Y-104400000D02*
X201866359Y-104400000D01*
%TO.C,R96*%
X216170000Y-89396359D02*
X216170000Y-89703641D01*
X216930000Y-89396359D02*
X216930000Y-89703641D01*
%TD*%
M02*
