%TF.GenerationSoftware,KiCad,Pcbnew,10.0.1*%
%TF.CreationDate,2026-06-02T02:27:43+05:30*%
%TF.ProjectId,VENDETTAFC,56454e44-4554-4544-9146-432e6b696361,rev?*%
%TF.SameCoordinates,Original*%
%TF.FileFunction,Other,Comment*%
%FSLAX46Y46*%
G04 Gerber Fmt 4.6, Leading zero omitted, Abs format (unit mm)*
G04 Created by KiCad (PCBNEW 10.0.1) date 2026-06-02 02:27:43*
%MOMM*%
%LPD*%
G01*
G04 APERTURE LIST*
%ADD10C,0.150000*%
%TA.AperFunction,Profile*%
%ADD11C,0.050000*%
%TD*%
G04 APERTURE END LIST*
%TO.C,REF\u002A\u002A*%
D10*
X157265000Y-54500000D02*
G75*
G02*
X152735000Y-54500000I-2265000J0D01*
G01*
X152735000Y-54500000D02*
G75*
G02*
X157265000Y-54500000I2265000J0D01*
G01*
%TD*%
D11*
X150000000Y-54500000D02*
X150000000Y-85000000D01*
X150000000Y-54500000D02*
G75*
G02*
X155000000Y-49500000I5000000J0D01*
G01*
X155000000Y-90000000D02*
G75*
G02*
X150000000Y-85000000I0J5000000D01*
G01*
X156009781Y-90009750D02*
X155000000Y-90000000D01*
X156009781Y-90009750D02*
G75*
G02*
X158509750Y-92509750I19J-2499950D01*
G01*
X159500000Y-49500000D02*
X155000000Y-49500000D01*
X163000000Y-53000000D02*
G75*
G02*
X159500000Y-49500000I0J3500000D01*
G01*
X163000000Y-53000000D02*
X177500000Y-53000000D01*
X181000000Y-49500000D02*
G75*
G02*
X177500000Y-53000000I-3500000J0D01*
G01*
X182000007Y-92500000D02*
X158509781Y-92509750D01*
X182000007Y-92500000D02*
G75*
G02*
X184500007Y-90000007I2499993J0D01*
G01*
X184500007Y-90000000D02*
X185500000Y-90000000D01*
X185500000Y-49500000D02*
X181000000Y-49500000D01*
X185500000Y-49500000D02*
G75*
G02*
X190500000Y-54500000I0J-5000000D01*
G01*
X190500000Y-54500000D02*
X190500000Y-55000000D01*
X190500000Y-55000000D02*
X190500000Y-55160000D01*
X190500000Y-66990000D02*
X190500000Y-85000000D01*
X190500000Y-66990000D02*
G75*
G02*
X191500000Y-65990000I1000000J0D01*
G01*
X190500000Y-85000000D02*
G75*
G02*
X185500000Y-90000000I-5000000J0D01*
G01*
X191500000Y-56160000D02*
G75*
G02*
X190500000Y-55160000I0J1000000D01*
G01*
X191500000Y-56160000D02*
X192600000Y-56160000D01*
X191500000Y-65990000D02*
X192600000Y-65990000D01*
X192600000Y-56160000D02*
G75*
G02*
X193600000Y-57160000I0J-1000000D01*
G01*
X193600000Y-64990000D02*
G75*
G02*
X192600000Y-65990000I-1000000J0D01*
G01*
X193600000Y-64990000D02*
X193600000Y-57160000D01*
M02*
