%TF.GenerationSoftware,KiCad,Pcbnew,10.0.1*%
%TF.CreationDate,2026-06-02T02:27:28+05:30*%
%TF.ProjectId,VENDETTAFC,56454e44-4554-4544-9146-432e6b696361,rev?*%
%TF.SameCoordinates,Original*%
%TF.FileFunction,Drillmap*%
%TF.FilePolarity,Positive*%
%FSLAX45Y45*%
G04 Gerber Fmt 4.5, Leading zero omitted, Abs format (unit mm)*
G04 Created by KiCad (PCBNEW 10.0.1) date 2026-06-02 02:27:28*
%MOMM*%
%LPD*%
G01*
G04 APERTURE LIST*
%ADD10C,0.050000*%
%ADD11C,0.200000*%
%ADD12C,0.100000*%
G04 APERTURE END LIST*
D10*
X15000000Y-5450000D02*
X15000000Y-8500000D01*
X15000000Y-5450000D02*
G75*
G02*
X15500000Y-4950000I500000J0D01*
G01*
X15500000Y-9000000D02*
G75*
G02*
X15000000Y-8500000I0J500000D01*
G01*
X15600978Y-9000975D02*
X15500000Y-9000000D01*
X15600978Y-9000975D02*
G75*
G02*
X15850975Y-9250975I2J-249995D01*
G01*
X15950000Y-4950000D02*
X15500000Y-4950000D01*
X16300000Y-5300000D02*
G75*
G02*
X15950000Y-4950000I0J350000D01*
G01*
X16300000Y-5300000D02*
X17750000Y-5300000D01*
X18100000Y-4950000D02*
G75*
G02*
X17750000Y-5300000I-350000J0D01*
G01*
X18200001Y-9250000D02*
X15850978Y-9250975D01*
X18200001Y-9250000D02*
G75*
G02*
X18450001Y-9000001I249999J0D01*
G01*
X18450001Y-9000000D02*
X18550000Y-9000000D01*
X18550000Y-4950000D02*
X18100000Y-4950000D01*
X18550000Y-4950000D02*
G75*
G02*
X19050000Y-5450000I0J-500000D01*
G01*
X19050000Y-5450000D02*
X19050000Y-5500000D01*
X19050000Y-5500000D02*
X19050000Y-5516000D01*
X19050000Y-6699000D02*
X19050000Y-8500000D01*
X19050000Y-6699000D02*
G75*
G02*
X19150000Y-6599000I100000J0D01*
G01*
X19050000Y-8500000D02*
G75*
G02*
X18550000Y-9000000I-500000J0D01*
G01*
X19150000Y-5616000D02*
G75*
G02*
X19050000Y-5516000I0J100000D01*
G01*
X19150000Y-5616000D02*
X19260000Y-5616000D01*
X19150000Y-6599000D02*
X19260000Y-6599000D01*
X19260000Y-5616000D02*
G75*
G02*
X19360000Y-5716000I0J-100000D01*
G01*
X19360000Y-6499000D02*
G75*
G02*
X19260000Y-6599000I-100000J0D01*
G01*
X19360000Y-6499000D02*
X19360000Y-5716000D01*
D11*
D12*
X15626500Y-6655500D02*
X15691500Y-6720500D01*
X15691500Y-6655500D02*
X15626500Y-6720500D01*
X15626500Y-7233500D02*
X15691500Y-7298500D01*
X15691500Y-7233500D02*
X15626500Y-7298500D01*
D11*
X15258277Y-9564959D02*
X15258277Y-9364959D01*
X15258277Y-9364959D02*
X15305896Y-9364959D01*
X15305896Y-9364959D02*
X15334467Y-9374483D01*
X15334467Y-9374483D02*
X15353515Y-9393530D01*
X15353515Y-9393530D02*
X15363039Y-9412578D01*
X15363039Y-9412578D02*
X15372562Y-9450673D01*
X15372562Y-9450673D02*
X15372562Y-9479245D01*
X15372562Y-9479245D02*
X15363039Y-9517340D01*
X15363039Y-9517340D02*
X15353515Y-9536387D01*
X15353515Y-9536387D02*
X15334467Y-9555435D01*
X15334467Y-9555435D02*
X15305896Y-9564959D01*
X15305896Y-9564959D02*
X15258277Y-9564959D01*
X15458277Y-9564959D02*
X15458277Y-9431625D01*
X15458277Y-9469721D02*
X15467801Y-9450673D01*
X15467801Y-9450673D02*
X15477324Y-9441149D01*
X15477324Y-9441149D02*
X15496372Y-9431625D01*
X15496372Y-9431625D02*
X15515420Y-9431625D01*
X15582086Y-9564959D02*
X15582086Y-9431625D01*
X15582086Y-9364959D02*
X15572562Y-9374483D01*
X15572562Y-9374483D02*
X15582086Y-9384006D01*
X15582086Y-9384006D02*
X15591610Y-9374483D01*
X15591610Y-9374483D02*
X15582086Y-9364959D01*
X15582086Y-9364959D02*
X15582086Y-9384006D01*
X15705896Y-9564959D02*
X15686848Y-9555435D01*
X15686848Y-9555435D02*
X15677324Y-9536387D01*
X15677324Y-9536387D02*
X15677324Y-9364959D01*
X15810658Y-9564959D02*
X15791610Y-9555435D01*
X15791610Y-9555435D02*
X15782086Y-9536387D01*
X15782086Y-9536387D02*
X15782086Y-9364959D01*
X16039229Y-9564959D02*
X16039229Y-9364959D01*
X16039229Y-9364959D02*
X16105896Y-9507816D01*
X16105896Y-9507816D02*
X16172562Y-9364959D01*
X16172562Y-9364959D02*
X16172562Y-9564959D01*
X16353515Y-9564959D02*
X16353515Y-9460197D01*
X16353515Y-9460197D02*
X16343991Y-9441149D01*
X16343991Y-9441149D02*
X16324943Y-9431625D01*
X16324943Y-9431625D02*
X16286848Y-9431625D01*
X16286848Y-9431625D02*
X16267801Y-9441149D01*
X16353515Y-9555435D02*
X16334467Y-9564959D01*
X16334467Y-9564959D02*
X16286848Y-9564959D01*
X16286848Y-9564959D02*
X16267801Y-9555435D01*
X16267801Y-9555435D02*
X16258277Y-9536387D01*
X16258277Y-9536387D02*
X16258277Y-9517340D01*
X16258277Y-9517340D02*
X16267801Y-9498292D01*
X16267801Y-9498292D02*
X16286848Y-9488768D01*
X16286848Y-9488768D02*
X16334467Y-9488768D01*
X16334467Y-9488768D02*
X16353515Y-9479245D01*
X16448753Y-9431625D02*
X16448753Y-9631625D01*
X16448753Y-9441149D02*
X16467801Y-9431625D01*
X16467801Y-9431625D02*
X16505896Y-9431625D01*
X16505896Y-9431625D02*
X16524943Y-9441149D01*
X16524943Y-9441149D02*
X16534467Y-9450673D01*
X16534467Y-9450673D02*
X16543991Y-9469721D01*
X16543991Y-9469721D02*
X16543991Y-9526864D01*
X16543991Y-9526864D02*
X16534467Y-9545911D01*
X16534467Y-9545911D02*
X16524943Y-9555435D01*
X16524943Y-9555435D02*
X16505896Y-9564959D01*
X16505896Y-9564959D02*
X16467801Y-9564959D01*
X16467801Y-9564959D02*
X16448753Y-9555435D01*
X16629705Y-9545911D02*
X16639229Y-9555435D01*
X16639229Y-9555435D02*
X16629705Y-9564959D01*
X16629705Y-9564959D02*
X16620182Y-9555435D01*
X16620182Y-9555435D02*
X16629705Y-9545911D01*
X16629705Y-9545911D02*
X16629705Y-9564959D01*
X16629705Y-9441149D02*
X16639229Y-9450673D01*
X16639229Y-9450673D02*
X16629705Y-9460197D01*
X16629705Y-9460197D02*
X16620182Y-9450673D01*
X16620182Y-9450673D02*
X16629705Y-9441149D01*
X16629705Y-9441149D02*
X16629705Y-9460197D01*
D12*
X14932500Y-9860975D02*
X14997500Y-9925975D01*
X14997500Y-9860975D02*
X14932500Y-9925975D01*
D11*
X15296372Y-9784959D02*
X15315420Y-9784959D01*
X15315420Y-9784959D02*
X15334467Y-9794483D01*
X15334467Y-9794483D02*
X15343991Y-9804006D01*
X15343991Y-9804006D02*
X15353515Y-9823054D01*
X15353515Y-9823054D02*
X15363039Y-9861149D01*
X15363039Y-9861149D02*
X15363039Y-9908768D01*
X15363039Y-9908768D02*
X15353515Y-9946864D01*
X15353515Y-9946864D02*
X15343991Y-9965911D01*
X15343991Y-9965911D02*
X15334467Y-9975435D01*
X15334467Y-9975435D02*
X15315420Y-9984959D01*
X15315420Y-9984959D02*
X15296372Y-9984959D01*
X15296372Y-9984959D02*
X15277324Y-9975435D01*
X15277324Y-9975435D02*
X15267801Y-9965911D01*
X15267801Y-9965911D02*
X15258277Y-9946864D01*
X15258277Y-9946864D02*
X15248753Y-9908768D01*
X15248753Y-9908768D02*
X15248753Y-9861149D01*
X15248753Y-9861149D02*
X15258277Y-9823054D01*
X15258277Y-9823054D02*
X15267801Y-9804006D01*
X15267801Y-9804006D02*
X15277324Y-9794483D01*
X15277324Y-9794483D02*
X15296372Y-9784959D01*
X15448753Y-9965911D02*
X15458277Y-9975435D01*
X15458277Y-9975435D02*
X15448753Y-9984959D01*
X15448753Y-9984959D02*
X15439229Y-9975435D01*
X15439229Y-9975435D02*
X15448753Y-9965911D01*
X15448753Y-9965911D02*
X15448753Y-9984959D01*
X15629705Y-9784959D02*
X15591610Y-9784959D01*
X15591610Y-9784959D02*
X15572562Y-9794483D01*
X15572562Y-9794483D02*
X15563039Y-9804006D01*
X15563039Y-9804006D02*
X15543991Y-9832578D01*
X15543991Y-9832578D02*
X15534467Y-9870673D01*
X15534467Y-9870673D02*
X15534467Y-9946864D01*
X15534467Y-9946864D02*
X15543991Y-9965911D01*
X15543991Y-9965911D02*
X15553515Y-9975435D01*
X15553515Y-9975435D02*
X15572562Y-9984959D01*
X15572562Y-9984959D02*
X15610658Y-9984959D01*
X15610658Y-9984959D02*
X15629705Y-9975435D01*
X15629705Y-9975435D02*
X15639229Y-9965911D01*
X15639229Y-9965911D02*
X15648753Y-9946864D01*
X15648753Y-9946864D02*
X15648753Y-9899245D01*
X15648753Y-9899245D02*
X15639229Y-9880197D01*
X15639229Y-9880197D02*
X15629705Y-9870673D01*
X15629705Y-9870673D02*
X15610658Y-9861149D01*
X15610658Y-9861149D02*
X15572562Y-9861149D01*
X15572562Y-9861149D02*
X15553515Y-9870673D01*
X15553515Y-9870673D02*
X15543991Y-9880197D01*
X15543991Y-9880197D02*
X15534467Y-9899245D01*
X15829705Y-9784959D02*
X15734467Y-9784959D01*
X15734467Y-9784959D02*
X15724943Y-9880197D01*
X15724943Y-9880197D02*
X15734467Y-9870673D01*
X15734467Y-9870673D02*
X15753515Y-9861149D01*
X15753515Y-9861149D02*
X15801134Y-9861149D01*
X15801134Y-9861149D02*
X15820182Y-9870673D01*
X15820182Y-9870673D02*
X15829705Y-9880197D01*
X15829705Y-9880197D02*
X15839229Y-9899245D01*
X15839229Y-9899245D02*
X15839229Y-9946864D01*
X15839229Y-9946864D02*
X15829705Y-9965911D01*
X15829705Y-9965911D02*
X15820182Y-9975435D01*
X15820182Y-9975435D02*
X15801134Y-9984959D01*
X15801134Y-9984959D02*
X15753515Y-9984959D01*
X15753515Y-9984959D02*
X15734467Y-9975435D01*
X15734467Y-9975435D02*
X15724943Y-9965911D01*
X15963039Y-9784959D02*
X15982086Y-9784959D01*
X15982086Y-9784959D02*
X16001134Y-9794483D01*
X16001134Y-9794483D02*
X16010658Y-9804006D01*
X16010658Y-9804006D02*
X16020182Y-9823054D01*
X16020182Y-9823054D02*
X16029705Y-9861149D01*
X16029705Y-9861149D02*
X16029705Y-9908768D01*
X16029705Y-9908768D02*
X16020182Y-9946864D01*
X16020182Y-9946864D02*
X16010658Y-9965911D01*
X16010658Y-9965911D02*
X16001134Y-9975435D01*
X16001134Y-9975435D02*
X15982086Y-9984959D01*
X15982086Y-9984959D02*
X15963039Y-9984959D01*
X15963039Y-9984959D02*
X15943991Y-9975435D01*
X15943991Y-9975435D02*
X15934467Y-9965911D01*
X15934467Y-9965911D02*
X15924943Y-9946864D01*
X15924943Y-9946864D02*
X15915420Y-9908768D01*
X15915420Y-9908768D02*
X15915420Y-9861149D01*
X15915420Y-9861149D02*
X15924943Y-9823054D01*
X15924943Y-9823054D02*
X15934467Y-9804006D01*
X15934467Y-9804006D02*
X15943991Y-9794483D01*
X15943991Y-9794483D02*
X15963039Y-9784959D01*
X16115420Y-9984959D02*
X16115420Y-9851625D01*
X16115420Y-9870673D02*
X16124943Y-9861149D01*
X16124943Y-9861149D02*
X16143991Y-9851625D01*
X16143991Y-9851625D02*
X16172563Y-9851625D01*
X16172563Y-9851625D02*
X16191610Y-9861149D01*
X16191610Y-9861149D02*
X16201134Y-9880197D01*
X16201134Y-9880197D02*
X16201134Y-9984959D01*
X16201134Y-9880197D02*
X16210658Y-9861149D01*
X16210658Y-9861149D02*
X16229705Y-9851625D01*
X16229705Y-9851625D02*
X16258277Y-9851625D01*
X16258277Y-9851625D02*
X16277324Y-9861149D01*
X16277324Y-9861149D02*
X16286848Y-9880197D01*
X16286848Y-9880197D02*
X16286848Y-9984959D01*
X16382086Y-9984959D02*
X16382086Y-9851625D01*
X16382086Y-9870673D02*
X16391610Y-9861149D01*
X16391610Y-9861149D02*
X16410658Y-9851625D01*
X16410658Y-9851625D02*
X16439229Y-9851625D01*
X16439229Y-9851625D02*
X16458277Y-9861149D01*
X16458277Y-9861149D02*
X16467801Y-9880197D01*
X16467801Y-9880197D02*
X16467801Y-9984959D01*
X16467801Y-9880197D02*
X16477324Y-9861149D01*
X16477324Y-9861149D02*
X16496372Y-9851625D01*
X16496372Y-9851625D02*
X16524943Y-9851625D01*
X16524943Y-9851625D02*
X16543991Y-9861149D01*
X16543991Y-9861149D02*
X16553515Y-9880197D01*
X16553515Y-9880197D02*
X16553515Y-9984959D01*
X16943991Y-9775435D02*
X16772563Y-10032578D01*
X17201134Y-9784959D02*
X17220182Y-9784959D01*
X17220182Y-9784959D02*
X17239229Y-9794483D01*
X17239229Y-9794483D02*
X17248753Y-9804006D01*
X17248753Y-9804006D02*
X17258277Y-9823054D01*
X17258277Y-9823054D02*
X17267801Y-9861149D01*
X17267801Y-9861149D02*
X17267801Y-9908768D01*
X17267801Y-9908768D02*
X17258277Y-9946864D01*
X17258277Y-9946864D02*
X17248753Y-9965911D01*
X17248753Y-9965911D02*
X17239229Y-9975435D01*
X17239229Y-9975435D02*
X17220182Y-9984959D01*
X17220182Y-9984959D02*
X17201134Y-9984959D01*
X17201134Y-9984959D02*
X17182087Y-9975435D01*
X17182087Y-9975435D02*
X17172563Y-9965911D01*
X17172563Y-9965911D02*
X17163039Y-9946864D01*
X17163039Y-9946864D02*
X17153515Y-9908768D01*
X17153515Y-9908768D02*
X17153515Y-9861149D01*
X17153515Y-9861149D02*
X17163039Y-9823054D01*
X17163039Y-9823054D02*
X17172563Y-9804006D01*
X17172563Y-9804006D02*
X17182087Y-9794483D01*
X17182087Y-9794483D02*
X17201134Y-9784959D01*
X17353515Y-9965911D02*
X17363039Y-9975435D01*
X17363039Y-9975435D02*
X17353515Y-9984959D01*
X17353515Y-9984959D02*
X17343991Y-9975435D01*
X17343991Y-9975435D02*
X17353515Y-9965911D01*
X17353515Y-9965911D02*
X17353515Y-9984959D01*
X17486848Y-9784959D02*
X17505896Y-9784959D01*
X17505896Y-9784959D02*
X17524944Y-9794483D01*
X17524944Y-9794483D02*
X17534468Y-9804006D01*
X17534468Y-9804006D02*
X17543991Y-9823054D01*
X17543991Y-9823054D02*
X17553515Y-9861149D01*
X17553515Y-9861149D02*
X17553515Y-9908768D01*
X17553515Y-9908768D02*
X17543991Y-9946864D01*
X17543991Y-9946864D02*
X17534468Y-9965911D01*
X17534468Y-9965911D02*
X17524944Y-9975435D01*
X17524944Y-9975435D02*
X17505896Y-9984959D01*
X17505896Y-9984959D02*
X17486848Y-9984959D01*
X17486848Y-9984959D02*
X17467801Y-9975435D01*
X17467801Y-9975435D02*
X17458277Y-9965911D01*
X17458277Y-9965911D02*
X17448753Y-9946864D01*
X17448753Y-9946864D02*
X17439229Y-9908768D01*
X17439229Y-9908768D02*
X17439229Y-9861149D01*
X17439229Y-9861149D02*
X17448753Y-9823054D01*
X17448753Y-9823054D02*
X17458277Y-9804006D01*
X17458277Y-9804006D02*
X17467801Y-9794483D01*
X17467801Y-9794483D02*
X17486848Y-9784959D01*
X17629706Y-9804006D02*
X17639229Y-9794483D01*
X17639229Y-9794483D02*
X17658277Y-9784959D01*
X17658277Y-9784959D02*
X17705896Y-9784959D01*
X17705896Y-9784959D02*
X17724944Y-9794483D01*
X17724944Y-9794483D02*
X17734468Y-9804006D01*
X17734468Y-9804006D02*
X17743991Y-9823054D01*
X17743991Y-9823054D02*
X17743991Y-9842102D01*
X17743991Y-9842102D02*
X17734468Y-9870673D01*
X17734468Y-9870673D02*
X17620182Y-9984959D01*
X17620182Y-9984959D02*
X17743991Y-9984959D01*
X17924944Y-9784959D02*
X17829706Y-9784959D01*
X17829706Y-9784959D02*
X17820182Y-9880197D01*
X17820182Y-9880197D02*
X17829706Y-9870673D01*
X17829706Y-9870673D02*
X17848753Y-9861149D01*
X17848753Y-9861149D02*
X17896372Y-9861149D01*
X17896372Y-9861149D02*
X17915420Y-9870673D01*
X17915420Y-9870673D02*
X17924944Y-9880197D01*
X17924944Y-9880197D02*
X17934468Y-9899245D01*
X17934468Y-9899245D02*
X17934468Y-9946864D01*
X17934468Y-9946864D02*
X17924944Y-9965911D01*
X17924944Y-9965911D02*
X17915420Y-9975435D01*
X17915420Y-9975435D02*
X17896372Y-9984959D01*
X17896372Y-9984959D02*
X17848753Y-9984959D01*
X17848753Y-9984959D02*
X17829706Y-9975435D01*
X17829706Y-9975435D02*
X17820182Y-9965911D01*
X18105896Y-9784959D02*
X18067801Y-9784959D01*
X18067801Y-9784959D02*
X18048753Y-9794483D01*
X18048753Y-9794483D02*
X18039229Y-9804006D01*
X18039229Y-9804006D02*
X18020182Y-9832578D01*
X18020182Y-9832578D02*
X18010658Y-9870673D01*
X18010658Y-9870673D02*
X18010658Y-9946864D01*
X18010658Y-9946864D02*
X18020182Y-9965911D01*
X18020182Y-9965911D02*
X18029706Y-9975435D01*
X18029706Y-9975435D02*
X18048753Y-9984959D01*
X18048753Y-9984959D02*
X18086849Y-9984959D01*
X18086849Y-9984959D02*
X18105896Y-9975435D01*
X18105896Y-9975435D02*
X18115420Y-9965911D01*
X18115420Y-9965911D02*
X18124944Y-9946864D01*
X18124944Y-9946864D02*
X18124944Y-9899245D01*
X18124944Y-9899245D02*
X18115420Y-9880197D01*
X18115420Y-9880197D02*
X18105896Y-9870673D01*
X18105896Y-9870673D02*
X18086849Y-9861149D01*
X18086849Y-9861149D02*
X18048753Y-9861149D01*
X18048753Y-9861149D02*
X18029706Y-9870673D01*
X18029706Y-9870673D02*
X18020182Y-9880197D01*
X18020182Y-9880197D02*
X18010658Y-9899245D01*
X18201134Y-9784959D02*
X18201134Y-9823054D01*
X18277325Y-9784959D02*
X18277325Y-9823054D01*
X18572563Y-10061149D02*
X18563039Y-10051625D01*
X18563039Y-10051625D02*
X18543991Y-10023054D01*
X18543991Y-10023054D02*
X18534468Y-10004006D01*
X18534468Y-10004006D02*
X18524944Y-9975435D01*
X18524944Y-9975435D02*
X18515420Y-9927816D01*
X18515420Y-9927816D02*
X18515420Y-9889721D01*
X18515420Y-9889721D02*
X18524944Y-9842102D01*
X18524944Y-9842102D02*
X18534468Y-9813530D01*
X18534468Y-9813530D02*
X18543991Y-9794483D01*
X18543991Y-9794483D02*
X18563039Y-9765911D01*
X18563039Y-9765911D02*
X18572563Y-9756387D01*
X18639230Y-9804006D02*
X18648753Y-9794483D01*
X18648753Y-9794483D02*
X18667801Y-9784959D01*
X18667801Y-9784959D02*
X18715420Y-9784959D01*
X18715420Y-9784959D02*
X18734468Y-9794483D01*
X18734468Y-9794483D02*
X18743991Y-9804006D01*
X18743991Y-9804006D02*
X18753515Y-9823054D01*
X18753515Y-9823054D02*
X18753515Y-9842102D01*
X18753515Y-9842102D02*
X18743991Y-9870673D01*
X18743991Y-9870673D02*
X18629706Y-9984959D01*
X18629706Y-9984959D02*
X18753515Y-9984959D01*
X18991611Y-9984959D02*
X18991611Y-9784959D01*
X19077325Y-9984959D02*
X19077325Y-9880197D01*
X19077325Y-9880197D02*
X19067801Y-9861149D01*
X19067801Y-9861149D02*
X19048753Y-9851625D01*
X19048753Y-9851625D02*
X19020182Y-9851625D01*
X19020182Y-9851625D02*
X19001134Y-9861149D01*
X19001134Y-9861149D02*
X18991611Y-9870673D01*
X19201134Y-9984959D02*
X19182087Y-9975435D01*
X19182087Y-9975435D02*
X19172563Y-9965911D01*
X19172563Y-9965911D02*
X19163039Y-9946864D01*
X19163039Y-9946864D02*
X19163039Y-9889721D01*
X19163039Y-9889721D02*
X19172563Y-9870673D01*
X19172563Y-9870673D02*
X19182087Y-9861149D01*
X19182087Y-9861149D02*
X19201134Y-9851625D01*
X19201134Y-9851625D02*
X19229706Y-9851625D01*
X19229706Y-9851625D02*
X19248753Y-9861149D01*
X19248753Y-9861149D02*
X19258277Y-9870673D01*
X19258277Y-9870673D02*
X19267801Y-9889721D01*
X19267801Y-9889721D02*
X19267801Y-9946864D01*
X19267801Y-9946864D02*
X19258277Y-9965911D01*
X19258277Y-9965911D02*
X19248753Y-9975435D01*
X19248753Y-9975435D02*
X19229706Y-9984959D01*
X19229706Y-9984959D02*
X19201134Y-9984959D01*
X19382087Y-9984959D02*
X19363039Y-9975435D01*
X19363039Y-9975435D02*
X19353515Y-9956387D01*
X19353515Y-9956387D02*
X19353515Y-9784959D01*
X19534468Y-9975435D02*
X19515420Y-9984959D01*
X19515420Y-9984959D02*
X19477325Y-9984959D01*
X19477325Y-9984959D02*
X19458277Y-9975435D01*
X19458277Y-9975435D02*
X19448753Y-9956387D01*
X19448753Y-9956387D02*
X19448753Y-9880197D01*
X19448753Y-9880197D02*
X19458277Y-9861149D01*
X19458277Y-9861149D02*
X19477325Y-9851625D01*
X19477325Y-9851625D02*
X19515420Y-9851625D01*
X19515420Y-9851625D02*
X19534468Y-9861149D01*
X19534468Y-9861149D02*
X19543992Y-9880197D01*
X19543992Y-9880197D02*
X19543992Y-9899245D01*
X19543992Y-9899245D02*
X19448753Y-9918292D01*
X19620182Y-9975435D02*
X19639230Y-9984959D01*
X19639230Y-9984959D02*
X19677325Y-9984959D01*
X19677325Y-9984959D02*
X19696373Y-9975435D01*
X19696373Y-9975435D02*
X19705896Y-9956387D01*
X19705896Y-9956387D02*
X19705896Y-9946864D01*
X19705896Y-9946864D02*
X19696373Y-9927816D01*
X19696373Y-9927816D02*
X19677325Y-9918292D01*
X19677325Y-9918292D02*
X19648753Y-9918292D01*
X19648753Y-9918292D02*
X19629706Y-9908768D01*
X19629706Y-9908768D02*
X19620182Y-9889721D01*
X19620182Y-9889721D02*
X19620182Y-9880197D01*
X19620182Y-9880197D02*
X19629706Y-9861149D01*
X19629706Y-9861149D02*
X19648753Y-9851625D01*
X19648753Y-9851625D02*
X19677325Y-9851625D01*
X19677325Y-9851625D02*
X19696373Y-9861149D01*
X19772563Y-10061149D02*
X19782087Y-10051625D01*
X19782087Y-10051625D02*
X19801134Y-10023054D01*
X19801134Y-10023054D02*
X19810658Y-10004006D01*
X19810658Y-10004006D02*
X19820182Y-9975435D01*
X19820182Y-9975435D02*
X19829706Y-9927816D01*
X19829706Y-9927816D02*
X19829706Y-9889721D01*
X19829706Y-9889721D02*
X19820182Y-9842102D01*
X19820182Y-9842102D02*
X19810658Y-9813530D01*
X19810658Y-9813530D02*
X19801134Y-9794483D01*
X19801134Y-9794483D02*
X19782087Y-9765911D01*
X19782087Y-9765911D02*
X19772563Y-9756387D01*
X20134468Y-10061149D02*
X20124944Y-10051625D01*
X20124944Y-10051625D02*
X20105896Y-10023054D01*
X20105896Y-10023054D02*
X20096373Y-10004006D01*
X20096373Y-10004006D02*
X20086849Y-9975435D01*
X20086849Y-9975435D02*
X20077325Y-9927816D01*
X20077325Y-9927816D02*
X20077325Y-9889721D01*
X20077325Y-9889721D02*
X20086849Y-9842102D01*
X20086849Y-9842102D02*
X20096373Y-9813530D01*
X20096373Y-9813530D02*
X20105896Y-9794483D01*
X20105896Y-9794483D02*
X20124944Y-9765911D01*
X20124944Y-9765911D02*
X20134468Y-9756387D01*
X20210658Y-9851625D02*
X20210658Y-9984959D01*
X20210658Y-9870673D02*
X20220182Y-9861149D01*
X20220182Y-9861149D02*
X20239230Y-9851625D01*
X20239230Y-9851625D02*
X20267801Y-9851625D01*
X20267801Y-9851625D02*
X20286849Y-9861149D01*
X20286849Y-9861149D02*
X20296373Y-9880197D01*
X20296373Y-9880197D02*
X20296373Y-9984959D01*
X20420182Y-9984959D02*
X20401134Y-9975435D01*
X20401134Y-9975435D02*
X20391611Y-9965911D01*
X20391611Y-9965911D02*
X20382087Y-9946864D01*
X20382087Y-9946864D02*
X20382087Y-9889721D01*
X20382087Y-9889721D02*
X20391611Y-9870673D01*
X20391611Y-9870673D02*
X20401134Y-9861149D01*
X20401134Y-9861149D02*
X20420182Y-9851625D01*
X20420182Y-9851625D02*
X20448754Y-9851625D01*
X20448754Y-9851625D02*
X20467801Y-9861149D01*
X20467801Y-9861149D02*
X20477325Y-9870673D01*
X20477325Y-9870673D02*
X20486849Y-9889721D01*
X20486849Y-9889721D02*
X20486849Y-9946864D01*
X20486849Y-9946864D02*
X20477325Y-9965911D01*
X20477325Y-9965911D02*
X20467801Y-9975435D01*
X20467801Y-9975435D02*
X20448754Y-9984959D01*
X20448754Y-9984959D02*
X20420182Y-9984959D01*
X20543992Y-9851625D02*
X20620182Y-9851625D01*
X20572563Y-9784959D02*
X20572563Y-9956387D01*
X20572563Y-9956387D02*
X20582087Y-9975435D01*
X20582087Y-9975435D02*
X20601134Y-9984959D01*
X20601134Y-9984959D02*
X20620182Y-9984959D01*
X20839230Y-9851625D02*
X20839230Y-10051625D01*
X20839230Y-9861149D02*
X20858277Y-9851625D01*
X20858277Y-9851625D02*
X20896373Y-9851625D01*
X20896373Y-9851625D02*
X20915420Y-9861149D01*
X20915420Y-9861149D02*
X20924944Y-9870673D01*
X20924944Y-9870673D02*
X20934468Y-9889721D01*
X20934468Y-9889721D02*
X20934468Y-9946864D01*
X20934468Y-9946864D02*
X20924944Y-9965911D01*
X20924944Y-9965911D02*
X20915420Y-9975435D01*
X20915420Y-9975435D02*
X20896373Y-9984959D01*
X20896373Y-9984959D02*
X20858277Y-9984959D01*
X20858277Y-9984959D02*
X20839230Y-9975435D01*
X21048754Y-9984959D02*
X21029706Y-9975435D01*
X21029706Y-9975435D02*
X21020182Y-9956387D01*
X21020182Y-9956387D02*
X21020182Y-9784959D01*
X21210658Y-9984959D02*
X21210658Y-9880197D01*
X21210658Y-9880197D02*
X21201135Y-9861149D01*
X21201135Y-9861149D02*
X21182087Y-9851625D01*
X21182087Y-9851625D02*
X21143992Y-9851625D01*
X21143992Y-9851625D02*
X21124944Y-9861149D01*
X21210658Y-9975435D02*
X21191611Y-9984959D01*
X21191611Y-9984959D02*
X21143992Y-9984959D01*
X21143992Y-9984959D02*
X21124944Y-9975435D01*
X21124944Y-9975435D02*
X21115420Y-9956387D01*
X21115420Y-9956387D02*
X21115420Y-9937340D01*
X21115420Y-9937340D02*
X21124944Y-9918292D01*
X21124944Y-9918292D02*
X21143992Y-9908768D01*
X21143992Y-9908768D02*
X21191611Y-9908768D01*
X21191611Y-9908768D02*
X21210658Y-9899245D01*
X21277325Y-9851625D02*
X21353515Y-9851625D01*
X21305896Y-9784959D02*
X21305896Y-9956387D01*
X21305896Y-9956387D02*
X21315420Y-9975435D01*
X21315420Y-9975435D02*
X21334468Y-9984959D01*
X21334468Y-9984959D02*
X21353515Y-9984959D01*
X21496373Y-9975435D02*
X21477325Y-9984959D01*
X21477325Y-9984959D02*
X21439230Y-9984959D01*
X21439230Y-9984959D02*
X21420182Y-9975435D01*
X21420182Y-9975435D02*
X21410658Y-9956387D01*
X21410658Y-9956387D02*
X21410658Y-9880197D01*
X21410658Y-9880197D02*
X21420182Y-9861149D01*
X21420182Y-9861149D02*
X21439230Y-9851625D01*
X21439230Y-9851625D02*
X21477325Y-9851625D01*
X21477325Y-9851625D02*
X21496373Y-9861149D01*
X21496373Y-9861149D02*
X21505896Y-9880197D01*
X21505896Y-9880197D02*
X21505896Y-9899245D01*
X21505896Y-9899245D02*
X21410658Y-9918292D01*
X21677325Y-9984959D02*
X21677325Y-9784959D01*
X21677325Y-9975435D02*
X21658277Y-9984959D01*
X21658277Y-9984959D02*
X21620182Y-9984959D01*
X21620182Y-9984959D02*
X21601135Y-9975435D01*
X21601135Y-9975435D02*
X21591611Y-9965911D01*
X21591611Y-9965911D02*
X21582087Y-9946864D01*
X21582087Y-9946864D02*
X21582087Y-9889721D01*
X21582087Y-9889721D02*
X21591611Y-9870673D01*
X21591611Y-9870673D02*
X21601135Y-9861149D01*
X21601135Y-9861149D02*
X21620182Y-9851625D01*
X21620182Y-9851625D02*
X21658277Y-9851625D01*
X21658277Y-9851625D02*
X21677325Y-9861149D01*
X21753516Y-10061149D02*
X21763039Y-10051625D01*
X21763039Y-10051625D02*
X21782087Y-10023054D01*
X21782087Y-10023054D02*
X21791611Y-10004006D01*
X21791611Y-10004006D02*
X21801135Y-9975435D01*
X21801135Y-9975435D02*
X21810658Y-9927816D01*
X21810658Y-9927816D02*
X21810658Y-9889721D01*
X21810658Y-9889721D02*
X21801135Y-9842102D01*
X21801135Y-9842102D02*
X21791611Y-9813530D01*
X21791611Y-9813530D02*
X21782087Y-9794483D01*
X21782087Y-9794483D02*
X21763039Y-9765911D01*
X21763039Y-9765911D02*
X21753516Y-9756387D01*
M02*
