%TF.GenerationSoftware,KiCad,Pcbnew,10.0.1*%
%TF.CreationDate,2026-06-02T02:27:28+05:30*%
%TF.ProjectId,VENDETTAFC,56454e44-4554-4544-9146-432e6b696361,rev?*%
%TF.SameCoordinates,Original*%
%TF.FileFunction,Drillmap*%
%TF.FilePolarity,Positive*%
%FSLAX45Y45*%
G04 Gerber Fmt 4.5, Leading zero omitted, Abs format (unit mm)*
G04 Created by KiCad (PCBNEW 10.0.1) date 2026-06-02 02:27:28*
%MOMM*%
%LPD*%
G01*
G04 APERTURE LIST*
%ADD10C,0.050000*%
%ADD11C,0.200000*%
%ADD12C,0.100000*%
%ADD13C,0.400000*%
G04 APERTURE END LIST*
D10*
X15000000Y-5450000D02*
X15000000Y-8500000D01*
X15000000Y-5450000D02*
G75*
G02*
X15500000Y-4950000I500000J0D01*
G01*
X15500000Y-9000000D02*
G75*
G02*
X15000000Y-8500000I0J500000D01*
G01*
X15600978Y-9000975D02*
X15500000Y-9000000D01*
X15600978Y-9000975D02*
G75*
G02*
X15850975Y-9250975I2J-249995D01*
G01*
X15950000Y-4950000D02*
X15500000Y-4950000D01*
X16300000Y-5300000D02*
G75*
G02*
X15950000Y-4950000I0J350000D01*
G01*
X16300000Y-5300000D02*
X17750000Y-5300000D01*
X18100000Y-4950000D02*
G75*
G02*
X17750000Y-5300000I-350000J0D01*
G01*
X18200001Y-9250000D02*
X15850978Y-9250975D01*
X18200001Y-9250000D02*
G75*
G02*
X18450001Y-9000001I249999J0D01*
G01*
X18450001Y-9000000D02*
X18550000Y-9000000D01*
X18550000Y-4950000D02*
X18100000Y-4950000D01*
X18550000Y-4950000D02*
G75*
G02*
X19050000Y-5450000I0J-500000D01*
G01*
X19050000Y-5450000D02*
X19050000Y-5500000D01*
X19050000Y-5500000D02*
X19050000Y-5516000D01*
X19050000Y-6699000D02*
X19050000Y-8500000D01*
X19050000Y-6699000D02*
G75*
G02*
X19150000Y-6599000I100000J0D01*
G01*
X19050000Y-8500000D02*
G75*
G02*
X18550000Y-9000000I-500000J0D01*
G01*
X19150000Y-5616000D02*
G75*
G02*
X19050000Y-5516000I0J100000D01*
G01*
X19150000Y-5616000D02*
X19260000Y-5616000D01*
X19150000Y-6599000D02*
X19260000Y-6599000D01*
X19260000Y-5616000D02*
G75*
G02*
X19360000Y-5716000I0J-100000D01*
G01*
X19360000Y-6499000D02*
G75*
G02*
X19260000Y-6599000I-100000J0D01*
G01*
X19360000Y-6499000D02*
X19360000Y-5716000D01*
D11*
D12*
X15080500Y-8484000D02*
X15110500Y-8514000D01*
X15110500Y-8484000D02*
X15080500Y-8514000D01*
X15084500Y-5427500D02*
X15114500Y-5457500D01*
X15114500Y-5427500D02*
X15084500Y-5457500D01*
X15094000Y-5876000D02*
X15124000Y-5906000D01*
X15124000Y-5876000D02*
X15094000Y-5906000D01*
X15094500Y-7576000D02*
X15124500Y-7606000D01*
X15124500Y-7576000D02*
X15094500Y-7606000D01*
X15096500Y-6344000D02*
X15126500Y-6374000D01*
X15126500Y-6344000D02*
X15096500Y-6374000D01*
X15098500Y-6571500D02*
X15128500Y-6601500D01*
X15128500Y-6571500D02*
X15098500Y-6601500D01*
X15155500Y-7980000D02*
X15185500Y-8010000D01*
X15185500Y-7980000D02*
X15155500Y-8010000D01*
X15206000Y-8768000D02*
X15236000Y-8798000D01*
X15236000Y-8768000D02*
X15206000Y-8798000D01*
X15207500Y-5156500D02*
X15237500Y-5186500D01*
X15237500Y-5156500D02*
X15207500Y-5186500D01*
X15234000Y-7732000D02*
X15264000Y-7762000D01*
X15264000Y-7732000D02*
X15234000Y-7762000D01*
X15292500Y-6202000D02*
X15322500Y-6232000D01*
X15322500Y-6202000D02*
X15292500Y-6232000D01*
X15299000Y-6418000D02*
X15329000Y-6448000D01*
X15329000Y-6418000D02*
X15299000Y-6448000D01*
X15302000Y-5986000D02*
X15332000Y-6016000D01*
X15332000Y-5986000D02*
X15302000Y-6016000D01*
X15317000Y-7453500D02*
X15347000Y-7483500D01*
X15347000Y-7453500D02*
X15317000Y-7483500D01*
X15325000Y-7903000D02*
X15355000Y-7933000D01*
X15355000Y-7903000D02*
X15325000Y-7933000D01*
X15423000Y-6101000D02*
X15453000Y-6131000D01*
X15453000Y-6101000D02*
X15423000Y-6131000D01*
X15439500Y-6800000D02*
X15469500Y-6830000D01*
X15469500Y-6800000D02*
X15439500Y-6830000D01*
X15439500Y-7197000D02*
X15469500Y-7227000D01*
X15469500Y-7197000D02*
X15439500Y-7227000D01*
X15440000Y-6900000D02*
X15470000Y-6930000D01*
X15470000Y-6900000D02*
X15440000Y-6930000D01*
X15440000Y-6998000D02*
X15470000Y-7028000D01*
X15470000Y-6998000D02*
X15440000Y-7028000D01*
X15440000Y-7100500D02*
X15470000Y-7130500D01*
X15470000Y-7100500D02*
X15440000Y-7130500D01*
X15442500Y-6699500D02*
X15472500Y-6729500D01*
X15472500Y-6699500D02*
X15442500Y-6729500D01*
X15479000Y-6205000D02*
X15509000Y-6235000D01*
X15509000Y-6205000D02*
X15479000Y-6235000D01*
X15481500Y-6001500D02*
X15511500Y-6031500D01*
X15511500Y-6001500D02*
X15481500Y-6031500D01*
X15482000Y-6104500D02*
X15512000Y-6134500D01*
X15512000Y-6104500D02*
X15482000Y-6134500D01*
X15484500Y-5047000D02*
X15514500Y-5077000D01*
X15514500Y-5047000D02*
X15484500Y-5077000D01*
X15485000Y-8885500D02*
X15515000Y-8915500D01*
X15515000Y-8885500D02*
X15485000Y-8915500D01*
X15533000Y-7907500D02*
X15563000Y-7937500D01*
X15563000Y-7907500D02*
X15533000Y-7937500D01*
X15534000Y-7703500D02*
X15564000Y-7733500D01*
X15564000Y-7703500D02*
X15534000Y-7733500D01*
X15534500Y-7807500D02*
X15564500Y-7837500D01*
X15564500Y-7807500D02*
X15534500Y-7837500D01*
X15538000Y-6102000D02*
X15568000Y-6132000D01*
X15568000Y-6102000D02*
X15538000Y-6132000D01*
X15619500Y-8143000D02*
X15649500Y-8173000D01*
X15649500Y-8143000D02*
X15619500Y-8173000D01*
X15643500Y-8082500D02*
X15673500Y-8112500D01*
X15673500Y-8082500D02*
X15643500Y-8112500D01*
X15650000Y-8205000D02*
X15680000Y-8235000D01*
X15680000Y-8205000D02*
X15650000Y-8235000D01*
X15686000Y-7632000D02*
X15716000Y-7662000D01*
X15716000Y-7632000D02*
X15686000Y-7662000D01*
X15706500Y-7459000D02*
X15736500Y-7489000D01*
X15736500Y-7459000D02*
X15706500Y-7489000D01*
X15708500Y-8231000D02*
X15738500Y-8261000D01*
X15738500Y-8231000D02*
X15708500Y-8261000D01*
X15710000Y-8051500D02*
X15740000Y-8081500D01*
X15740000Y-8051500D02*
X15710000Y-8081500D01*
X15710000Y-8140000D02*
X15740000Y-8170000D01*
X15740000Y-8140000D02*
X15710000Y-8170000D01*
X15745000Y-6011000D02*
X15775000Y-6041000D01*
X15775000Y-6011000D02*
X15745000Y-6041000D01*
X15769000Y-7660000D02*
X15799000Y-7690000D01*
X15799000Y-7660000D02*
X15769000Y-7690000D01*
X15770500Y-8077000D02*
X15800500Y-8107000D01*
X15800500Y-8077000D02*
X15770500Y-8107000D01*
X15774500Y-8200000D02*
X15804500Y-8230000D01*
X15804500Y-8200000D02*
X15774500Y-8230000D01*
X15785500Y-7749000D02*
X15815500Y-7779000D01*
X15815500Y-7749000D02*
X15785500Y-7779000D01*
X15791000Y-8137000D02*
X15821000Y-8167000D01*
X15821000Y-8137000D02*
X15791000Y-8167000D01*
X15809000Y-6009000D02*
X15839000Y-6039000D01*
X15839000Y-6009000D02*
X15809000Y-6039000D01*
X15873500Y-8502000D02*
X15903500Y-8532000D01*
X15903500Y-8502000D02*
X15873500Y-8532000D01*
X15883000Y-8605500D02*
X15913000Y-8635500D01*
X15913000Y-8605500D02*
X15883000Y-8635500D01*
X15887500Y-7455000D02*
X15917500Y-7485000D01*
X15917500Y-7455000D02*
X15887500Y-7485000D01*
X15898000Y-8390000D02*
X15928000Y-8420000D01*
X15928000Y-8390000D02*
X15898000Y-8420000D01*
X15899000Y-8232000D02*
X15929000Y-8262000D01*
X15929000Y-8232000D02*
X15899000Y-8262000D01*
X15899000Y-8311000D02*
X15929000Y-8341000D01*
X15929000Y-8311000D02*
X15899000Y-8341000D01*
X15963000Y-5858000D02*
X15993000Y-5888000D01*
X15993000Y-5858000D02*
X15963000Y-5888000D01*
X15969000Y-8232000D02*
X15999000Y-8262000D01*
X15999000Y-8232000D02*
X15969000Y-8262000D01*
X15972000Y-8965000D02*
X16002000Y-8995000D01*
X16002000Y-8965000D02*
X15972000Y-8995000D01*
X15974000Y-6771500D02*
X16004000Y-6801500D01*
X16004000Y-6771500D02*
X15974000Y-6801500D01*
X15977000Y-8311000D02*
X16007000Y-8341000D01*
X16007000Y-8311000D02*
X15977000Y-8341000D01*
X15980000Y-8393000D02*
X16010000Y-8423000D01*
X16010000Y-8393000D02*
X15980000Y-8423000D01*
X15985000Y-6425000D02*
X16015000Y-6455000D01*
X16015000Y-6425000D02*
X15985000Y-6455000D01*
X15985000Y-6485000D02*
X16015000Y-6515000D01*
X16015000Y-6485000D02*
X15985000Y-6515000D01*
X15985000Y-6545000D02*
X16015000Y-6575000D01*
X16015000Y-6545000D02*
X15985000Y-6575000D01*
X15986000Y-7135000D02*
X16016000Y-7165000D01*
X16016000Y-7135000D02*
X15986000Y-7165000D01*
X15994000Y-8681000D02*
X16024000Y-8711000D01*
X16024000Y-8681000D02*
X15994000Y-8711000D01*
X15994000Y-8730000D02*
X16024000Y-8760000D01*
X16024000Y-8730000D02*
X15994000Y-8760000D01*
X15995000Y-8780000D02*
X16025000Y-8810000D01*
X16025000Y-8780000D02*
X15995000Y-8810000D01*
X16003980Y-7791750D02*
X16033980Y-7821750D01*
X16033980Y-7791750D02*
X16003980Y-7821750D01*
X16004980Y-7852750D02*
X16034980Y-7882750D01*
X16034980Y-7852750D02*
X16004980Y-7882750D01*
X16017000Y-7476500D02*
X16047000Y-7506500D01*
X16047000Y-7476500D02*
X16017000Y-7506500D01*
X16019500Y-7364000D02*
X16049500Y-7394000D01*
X16049500Y-7364000D02*
X16019500Y-7394000D01*
X16040000Y-6775000D02*
X16070000Y-6805000D01*
X16070000Y-6775000D02*
X16040000Y-6805000D01*
X16045000Y-6425000D02*
X16075000Y-6455000D01*
X16075000Y-6425000D02*
X16045000Y-6455000D01*
X16045000Y-6485000D02*
X16075000Y-6515000D01*
X16075000Y-6485000D02*
X16045000Y-6515000D01*
X16045000Y-6545000D02*
X16075000Y-6575000D01*
X16075000Y-6545000D02*
X16045000Y-6575000D01*
X16049980Y-7819750D02*
X16079980Y-7849750D01*
X16079980Y-7819750D02*
X16049980Y-7849750D01*
X16069500Y-7419000D02*
X16099500Y-7449000D01*
X16099500Y-7419000D02*
X16069500Y-7449000D01*
X16080000Y-5906000D02*
X16110000Y-5936000D01*
X16110000Y-5906000D02*
X16080000Y-5936000D01*
X16094980Y-7791750D02*
X16124980Y-7821750D01*
X16124980Y-7791750D02*
X16094980Y-7821750D01*
X16096980Y-7855750D02*
X16126980Y-7885750D01*
X16126980Y-7855750D02*
X16096980Y-7885750D01*
X16098500Y-7685500D02*
X16128500Y-7715500D01*
X16128500Y-7685500D02*
X16098500Y-7715500D01*
X16104500Y-8849000D02*
X16134500Y-8879000D01*
X16134500Y-8849000D02*
X16104500Y-8879000D01*
X16106000Y-6777000D02*
X16136000Y-6807000D01*
X16136000Y-6777000D02*
X16106000Y-6807000D01*
X16122000Y-7366500D02*
X16152000Y-7396500D01*
X16152000Y-7366500D02*
X16122000Y-7396500D01*
X16127000Y-7479000D02*
X16157000Y-7509000D01*
X16157000Y-7479000D02*
X16127000Y-7509000D01*
X16130000Y-7644500D02*
X16160000Y-7674500D01*
X16160000Y-7644500D02*
X16130000Y-7674500D01*
X16130500Y-5905500D02*
X16160500Y-5935500D01*
X16160500Y-5905500D02*
X16130500Y-5935500D01*
X16155000Y-5535500D02*
X16185000Y-5565500D01*
X16185000Y-5535500D02*
X16155000Y-5565500D01*
X16169000Y-6779000D02*
X16199000Y-6809000D01*
X16199000Y-6779000D02*
X16169000Y-6809000D01*
X16176000Y-8965000D02*
X16206000Y-8995000D01*
X16206000Y-8965000D02*
X16176000Y-8995000D01*
X16178000Y-8851000D02*
X16208000Y-8881000D01*
X16208000Y-8851000D02*
X16178000Y-8881000D01*
X16205000Y-8890000D02*
X16235000Y-8920000D01*
X16235000Y-8890000D02*
X16205000Y-8920000D01*
X16215000Y-5534500D02*
X16245000Y-5564500D01*
X16245000Y-5534500D02*
X16215000Y-5564500D01*
X16223000Y-6971000D02*
X16253000Y-7001000D01*
X16253000Y-6971000D02*
X16223000Y-7001000D01*
X16224000Y-8963000D02*
X16254000Y-8993000D01*
X16254000Y-8963000D02*
X16224000Y-8993000D01*
X16252000Y-7663500D02*
X16282000Y-7693500D01*
X16282000Y-7663500D02*
X16252000Y-7693500D01*
X16273000Y-8310500D02*
X16303000Y-8340500D01*
X16303000Y-8310500D02*
X16273000Y-8340500D01*
X16274500Y-8357000D02*
X16304500Y-8387000D01*
X16304500Y-8357000D02*
X16274500Y-8387000D01*
X16283000Y-7625000D02*
X16313000Y-7655000D01*
X16313000Y-7625000D02*
X16283000Y-7655000D01*
X16291000Y-6972000D02*
X16321000Y-7002000D01*
X16321000Y-6972000D02*
X16291000Y-7002000D01*
X16301500Y-6232500D02*
X16331500Y-6262500D01*
X16331500Y-6232500D02*
X16301500Y-6262500D01*
X16302000Y-6167000D02*
X16332000Y-6197000D01*
X16332000Y-6167000D02*
X16302000Y-6197000D01*
X16305500Y-7664500D02*
X16335500Y-7694500D01*
X16335500Y-7664500D02*
X16305500Y-7694500D01*
X16312500Y-8388500D02*
X16342500Y-8418500D01*
X16342500Y-8388500D02*
X16312500Y-8418500D01*
X16324500Y-8851000D02*
X16354500Y-8881000D01*
X16354500Y-8851000D02*
X16324500Y-8881000D01*
X16330000Y-7624000D02*
X16360000Y-7654000D01*
X16360000Y-7624000D02*
X16330000Y-7654000D01*
X16333500Y-5978000D02*
X16363500Y-6008000D01*
X16363500Y-5978000D02*
X16333500Y-6008000D01*
X16352500Y-5527500D02*
X16382500Y-5557500D01*
X16382500Y-5527500D02*
X16352500Y-5557500D01*
X16369000Y-7239000D02*
X16399000Y-7269000D01*
X16399000Y-7239000D02*
X16369000Y-7269000D01*
X16392000Y-5977000D02*
X16422000Y-6007000D01*
X16422000Y-5977000D02*
X16392000Y-6007000D01*
X16415000Y-5525000D02*
X16445000Y-5555000D01*
X16445000Y-5525000D02*
X16415000Y-5555000D01*
X16421000Y-5791000D02*
X16451000Y-5821000D01*
X16451000Y-5791000D02*
X16421000Y-5821000D01*
X16428000Y-8987000D02*
X16458000Y-9017000D01*
X16458000Y-8987000D02*
X16428000Y-9017000D01*
X16432000Y-6800500D02*
X16462000Y-6830500D01*
X16462000Y-6800500D02*
X16432000Y-6830500D01*
X16445000Y-8734000D02*
X16475000Y-8764000D01*
X16475000Y-8734000D02*
X16445000Y-8764000D01*
X16445000Y-8782000D02*
X16475000Y-8812000D01*
X16475000Y-8782000D02*
X16445000Y-8812000D01*
X16446000Y-6973000D02*
X16476000Y-7003000D01*
X16476000Y-6973000D02*
X16446000Y-7003000D01*
X16446000Y-8149000D02*
X16476000Y-8179000D01*
X16476000Y-8149000D02*
X16446000Y-8179000D01*
X16500000Y-7373000D02*
X16530000Y-7403000D01*
X16530000Y-7373000D02*
X16500000Y-7403000D01*
X16503000Y-7425000D02*
X16533000Y-7455000D01*
X16533000Y-7425000D02*
X16503000Y-7455000D01*
X16503000Y-7478500D02*
X16533000Y-7508500D01*
X16533000Y-7478500D02*
X16503000Y-7508500D01*
X16515000Y-6975000D02*
X16545000Y-7005000D01*
X16545000Y-6975000D02*
X16515000Y-7005000D01*
X16520000Y-5791500D02*
X16550000Y-5821500D01*
X16550000Y-5791500D02*
X16520000Y-5821500D01*
X16539000Y-7153000D02*
X16569000Y-7183000D01*
X16569000Y-7153000D02*
X16539000Y-7183000D01*
X16543000Y-8638000D02*
X16573000Y-8668000D01*
X16573000Y-8638000D02*
X16543000Y-8668000D01*
X16554500Y-5540500D02*
X16584500Y-5570500D01*
X16584500Y-5540500D02*
X16554500Y-5570500D01*
X16565000Y-7373000D02*
X16595000Y-7403000D01*
X16595000Y-7373000D02*
X16565000Y-7403000D01*
X16565000Y-7424000D02*
X16595000Y-7454000D01*
X16595000Y-7424000D02*
X16565000Y-7454000D01*
X16565000Y-7478500D02*
X16595000Y-7508500D01*
X16595000Y-7478500D02*
X16565000Y-7508500D01*
X16594000Y-8011500D02*
X16624000Y-8041500D01*
X16624000Y-8011500D02*
X16594000Y-8041500D01*
X16618000Y-5539500D02*
X16648000Y-5569500D01*
X16648000Y-5539500D02*
X16618000Y-5569500D01*
X16627000Y-6694500D02*
X16657000Y-6724500D01*
X16657000Y-6694500D02*
X16627000Y-6724500D01*
X16642000Y-8011500D02*
X16672000Y-8041500D01*
X16672000Y-8011500D02*
X16642000Y-8041500D01*
X16658980Y-7672750D02*
X16688980Y-7702750D01*
X16688980Y-7672750D02*
X16658980Y-7702750D01*
X16695000Y-6646000D02*
X16725000Y-6676000D01*
X16725000Y-6646000D02*
X16695000Y-6676000D01*
X16699000Y-7299000D02*
X16729000Y-7329000D01*
X16729000Y-7299000D02*
X16699000Y-7329000D01*
X16709000Y-8149000D02*
X16739000Y-8179000D01*
X16739000Y-8149000D02*
X16709000Y-8179000D01*
X16711500Y-6103500D02*
X16741500Y-6133500D01*
X16741500Y-6103500D02*
X16711500Y-6133500D01*
X16717500Y-6797000D02*
X16747500Y-6827000D01*
X16747500Y-6797000D02*
X16717500Y-6827000D01*
X16722000Y-6235000D02*
X16752000Y-6265000D01*
X16752000Y-6235000D02*
X16722000Y-6265000D01*
X16723000Y-6597000D02*
X16753000Y-6627000D01*
X16753000Y-6597000D02*
X16723000Y-6627000D01*
X16724500Y-6425500D02*
X16754500Y-6455500D01*
X16754500Y-6425500D02*
X16724500Y-6455500D01*
X16724500Y-6480500D02*
X16754500Y-6510500D01*
X16754500Y-6480500D02*
X16724500Y-6510500D01*
X16727500Y-7245500D02*
X16757500Y-7275500D01*
X16757500Y-7245500D02*
X16727500Y-7275500D01*
X16740000Y-8620000D02*
X16770000Y-8650000D01*
X16770000Y-8620000D02*
X16740000Y-8650000D01*
X16750500Y-5535000D02*
X16780500Y-5565000D01*
X16780500Y-5535000D02*
X16750500Y-5565000D01*
X16752000Y-7299000D02*
X16782000Y-7329000D01*
X16782000Y-7299000D02*
X16752000Y-7329000D01*
X16759000Y-6898000D02*
X16789000Y-6928000D01*
X16789000Y-6898000D02*
X16759000Y-6928000D01*
X16780500Y-7246500D02*
X16810500Y-7276500D01*
X16810500Y-7246500D02*
X16780500Y-7276500D01*
X16789000Y-6948000D02*
X16819000Y-6978000D01*
X16819000Y-6948000D02*
X16789000Y-6978000D01*
X16798000Y-8980000D02*
X16828000Y-9010000D01*
X16828000Y-8980000D02*
X16798000Y-9010000D01*
X16798000Y-9034000D02*
X16828000Y-9064000D01*
X16828000Y-9034000D02*
X16798000Y-9064000D01*
X16800000Y-8620000D02*
X16830000Y-8650000D01*
X16830000Y-8620000D02*
X16800000Y-8650000D01*
X16804000Y-7298000D02*
X16834000Y-7328000D01*
X16834000Y-7298000D02*
X16804000Y-7328000D01*
X16811000Y-6547000D02*
X16841000Y-6577000D01*
X16841000Y-6547000D02*
X16811000Y-6577000D01*
X16815500Y-5535000D02*
X16845500Y-5565000D01*
X16845500Y-5535000D02*
X16815500Y-5565000D01*
X16865000Y-8620000D02*
X16895000Y-8650000D01*
X16895000Y-8620000D02*
X16865000Y-8650000D01*
X16879500Y-6440000D02*
X16909500Y-6470000D01*
X16909500Y-6440000D02*
X16879500Y-6470000D01*
X16881500Y-6491000D02*
X16911500Y-6521000D01*
X16911500Y-6491000D02*
X16881500Y-6521000D01*
X16894000Y-6870000D02*
X16924000Y-6900000D01*
X16924000Y-6870000D02*
X16894000Y-6900000D01*
X16932000Y-6437000D02*
X16962000Y-6467000D01*
X16962000Y-6437000D02*
X16932000Y-6467000D01*
X16932000Y-6491000D02*
X16962000Y-6521000D01*
X16962000Y-6491000D02*
X16932000Y-6521000D01*
X16952500Y-5527500D02*
X16982500Y-5557500D01*
X16982500Y-5527500D02*
X16952500Y-5557500D01*
X17015000Y-8231000D02*
X17045000Y-8261000D01*
X17045000Y-8231000D02*
X17015000Y-8261000D01*
X17017500Y-5527500D02*
X17047500Y-5557500D01*
X17047500Y-5527500D02*
X17017500Y-5557500D01*
X17018000Y-7688000D02*
X17048000Y-7718000D01*
X17048000Y-7688000D02*
X17018000Y-7718000D01*
X17039000Y-6208000D02*
X17069000Y-6238000D01*
X17069000Y-6208000D02*
X17039000Y-6238000D01*
X17045500Y-6498000D02*
X17075500Y-6528000D01*
X17075500Y-6498000D02*
X17045500Y-6528000D01*
X17046000Y-6337000D02*
X17076000Y-6367000D01*
X17076000Y-6337000D02*
X17046000Y-6367000D01*
X17046000Y-7466000D02*
X17076000Y-7496000D01*
X17076000Y-7466000D02*
X17046000Y-7496000D01*
X17054500Y-8501000D02*
X17084500Y-8531000D01*
X17084500Y-8501000D02*
X17054500Y-8531000D01*
X17057000Y-8579000D02*
X17087000Y-8609000D01*
X17087000Y-8579000D02*
X17057000Y-8609000D01*
X17069500Y-6644000D02*
X17099500Y-6674000D01*
X17099500Y-6644000D02*
X17069500Y-6674000D01*
X17095500Y-6311000D02*
X17125500Y-6341000D01*
X17125500Y-6311000D02*
X17095500Y-6341000D01*
X17096000Y-7496000D02*
X17126000Y-7526000D01*
X17126000Y-7496000D02*
X17096000Y-7526000D01*
X17105000Y-8980000D02*
X17135000Y-9010000D01*
X17135000Y-8980000D02*
X17105000Y-9010000D01*
X17127500Y-7069000D02*
X17157500Y-7099000D01*
X17157500Y-7069000D02*
X17127500Y-7099000D01*
X17130000Y-6646000D02*
X17160000Y-6676000D01*
X17160000Y-6646000D02*
X17130000Y-6676000D01*
X17144000Y-8578000D02*
X17174000Y-8608000D01*
X17174000Y-8578000D02*
X17144000Y-8608000D01*
X17145000Y-6861500D02*
X17175000Y-6891500D01*
X17175000Y-6861500D02*
X17145000Y-6891500D01*
X17145000Y-6958000D02*
X17175000Y-6988000D01*
X17175000Y-6958000D02*
X17145000Y-6988000D01*
X17145000Y-7523000D02*
X17175000Y-7553000D01*
X17175000Y-7523000D02*
X17145000Y-7553000D01*
X17152500Y-5510000D02*
X17182500Y-5540000D01*
X17182500Y-5510000D02*
X17152500Y-5540000D01*
X17195000Y-7550000D02*
X17225000Y-7580000D01*
X17225000Y-7550000D02*
X17195000Y-7580000D01*
X17196000Y-6407000D02*
X17226000Y-6437000D01*
X17226000Y-6407000D02*
X17196000Y-6437000D01*
X17215000Y-5510000D02*
X17245000Y-5540000D01*
X17245000Y-5510000D02*
X17215000Y-5540000D01*
X17225000Y-6222500D02*
X17255000Y-6252500D01*
X17255000Y-6222500D02*
X17225000Y-6252500D01*
X17245000Y-7268500D02*
X17275000Y-7298500D01*
X17275000Y-7268500D02*
X17245000Y-7298500D01*
X17247500Y-6957500D02*
X17277500Y-6987500D01*
X17277500Y-6957500D02*
X17247500Y-6987500D01*
X17251500Y-6860000D02*
X17281500Y-6890000D01*
X17281500Y-6860000D02*
X17251500Y-6890000D01*
X17270000Y-6167500D02*
X17300000Y-6197500D01*
X17300000Y-6167500D02*
X17270000Y-6197500D01*
X17270500Y-7058500D02*
X17300500Y-7088500D01*
X17300500Y-7058500D02*
X17270500Y-7088500D01*
X17295000Y-7452000D02*
X17325000Y-7482000D01*
X17325000Y-7452000D02*
X17295000Y-7482000D01*
X17295500Y-8408500D02*
X17325500Y-8438500D01*
X17325500Y-8408500D02*
X17295500Y-8438500D01*
X17296000Y-8461500D02*
X17326000Y-8491500D01*
X17326000Y-8461500D02*
X17296000Y-8491500D01*
X17314000Y-7761500D02*
X17344000Y-7791500D01*
X17344000Y-7761500D02*
X17314000Y-7791500D01*
X17340500Y-6864500D02*
X17370500Y-6894500D01*
X17370500Y-6864500D02*
X17340500Y-6894500D01*
X17341500Y-6959000D02*
X17371500Y-6989000D01*
X17371500Y-6959000D02*
X17341500Y-6989000D01*
X17343000Y-8977500D02*
X17373000Y-9007500D01*
X17373000Y-8977500D02*
X17343000Y-9007500D01*
X17343500Y-8408500D02*
X17373500Y-8438500D01*
X17373500Y-8408500D02*
X17343500Y-8438500D01*
X17344000Y-7485000D02*
X17374000Y-7515000D01*
X17374000Y-7485000D02*
X17344000Y-7515000D01*
X17345000Y-8459500D02*
X17375000Y-8489500D01*
X17375000Y-8459500D02*
X17345000Y-8489500D01*
X17357500Y-7733500D02*
X17387500Y-7763500D01*
X17387500Y-7733500D02*
X17357500Y-7763500D01*
X17360000Y-5772000D02*
X17390000Y-5802000D01*
X17390000Y-5772000D02*
X17360000Y-5802000D01*
X17360000Y-7784500D02*
X17390000Y-7814500D01*
X17390000Y-7784500D02*
X17360000Y-7814500D01*
X17361000Y-7228000D02*
X17391000Y-7258000D01*
X17391000Y-7228000D02*
X17361000Y-7258000D01*
X17376500Y-7894500D02*
X17406500Y-7924500D01*
X17406500Y-7894500D02*
X17376500Y-7924500D01*
X17377000Y-7845000D02*
X17407000Y-7875000D01*
X17407000Y-7845000D02*
X17377000Y-7875000D01*
X17379000Y-7944000D02*
X17409000Y-7974000D01*
X17409000Y-7944000D02*
X17379000Y-7974000D01*
X17391500Y-5487000D02*
X17421500Y-5517000D01*
X17421500Y-5487000D02*
X17391500Y-5517000D01*
X17394000Y-6255500D02*
X17424000Y-6285500D01*
X17424000Y-6255500D02*
X17394000Y-6285500D01*
X17394000Y-7509000D02*
X17424000Y-7539000D01*
X17424000Y-7509000D02*
X17394000Y-7539000D01*
X17398000Y-8579000D02*
X17428000Y-8609000D01*
X17428000Y-8579000D02*
X17398000Y-8609000D01*
X17403000Y-8109000D02*
X17433000Y-8139000D01*
X17433000Y-8109000D02*
X17403000Y-8139000D01*
X17405000Y-8010000D02*
X17435000Y-8040000D01*
X17435000Y-8010000D02*
X17405000Y-8040000D01*
X17444000Y-6216000D02*
X17474000Y-6246000D01*
X17474000Y-6216000D02*
X17444000Y-6246000D01*
X17446000Y-7528000D02*
X17476000Y-7558000D01*
X17476000Y-7528000D02*
X17446000Y-7558000D01*
X17460000Y-5486500D02*
X17490000Y-5516500D01*
X17490000Y-5486500D02*
X17460000Y-5516500D01*
X17461000Y-5764000D02*
X17491000Y-5794000D01*
X17491000Y-5764000D02*
X17461000Y-5794000D01*
X17491000Y-8578500D02*
X17521000Y-8608500D01*
X17521000Y-8578500D02*
X17491000Y-8608500D01*
X17502000Y-6823000D02*
X17532000Y-6853000D01*
X17532000Y-6823000D02*
X17502000Y-6853000D01*
X17523500Y-7141500D02*
X17553500Y-7171500D01*
X17553500Y-7141500D02*
X17523500Y-7171500D01*
X17529000Y-5487000D02*
X17559000Y-5517000D01*
X17559000Y-5487000D02*
X17529000Y-5517000D01*
X17533500Y-6596000D02*
X17563500Y-6626000D01*
X17563500Y-6596000D02*
X17533500Y-6626000D01*
X17544500Y-6465500D02*
X17574500Y-6495500D01*
X17574500Y-6465500D02*
X17544500Y-6495500D01*
X17545000Y-6297500D02*
X17575000Y-6327500D01*
X17575000Y-6297500D02*
X17545000Y-6327500D01*
X17555000Y-7706500D02*
X17585000Y-7736500D01*
X17585000Y-7706500D02*
X17555000Y-7736500D01*
X17558000Y-5736000D02*
X17588000Y-5766000D01*
X17588000Y-5736000D02*
X17558000Y-5766000D01*
X17559000Y-5787000D02*
X17589000Y-5817000D01*
X17589000Y-5787000D02*
X17559000Y-5817000D01*
X17560000Y-5681000D02*
X17590000Y-5711000D01*
X17590000Y-5681000D02*
X17560000Y-5711000D01*
X17571000Y-7825500D02*
X17601000Y-7855500D01*
X17601000Y-7825500D02*
X17571000Y-7855500D01*
X17585000Y-8983500D02*
X17615000Y-9013500D01*
X17615000Y-8983500D02*
X17585000Y-9013500D01*
X17595000Y-6464000D02*
X17625000Y-6494000D01*
X17625000Y-6464000D02*
X17595000Y-6494000D01*
X17595500Y-6357500D02*
X17625500Y-6387500D01*
X17625500Y-6357500D02*
X17595500Y-6387500D01*
X17596000Y-7383000D02*
X17626000Y-7413000D01*
X17626000Y-7383000D02*
X17596000Y-7413000D01*
X17603500Y-6986500D02*
X17633500Y-7016500D01*
X17633500Y-6986500D02*
X17603500Y-7016500D01*
X17606000Y-7708000D02*
X17636000Y-7738000D01*
X17636000Y-7708000D02*
X17606000Y-7738000D01*
X17608000Y-6148000D02*
X17638000Y-6178000D01*
X17638000Y-6148000D02*
X17608000Y-6178000D01*
X17609000Y-6053000D02*
X17639000Y-6083000D01*
X17639000Y-6053000D02*
X17609000Y-6083000D01*
X17614500Y-7299500D02*
X17644500Y-7329500D01*
X17644500Y-7299500D02*
X17614500Y-7329500D01*
X17630000Y-7825500D02*
X17660000Y-7855500D01*
X17660000Y-7825500D02*
X17630000Y-7855500D01*
X17633500Y-6839500D02*
X17663500Y-6869500D01*
X17663500Y-6839500D02*
X17633500Y-6869500D01*
X17644000Y-7427500D02*
X17674000Y-7457500D01*
X17674000Y-7427500D02*
X17644000Y-7457500D01*
X17644000Y-7482000D02*
X17674000Y-7512000D01*
X17674000Y-7482000D02*
X17644000Y-7512000D01*
X17644000Y-7534000D02*
X17674000Y-7564000D01*
X17674000Y-7534000D02*
X17644000Y-7564000D01*
X17645000Y-6404000D02*
X17675000Y-6434000D01*
X17675000Y-6404000D02*
X17645000Y-6434000D01*
X17647000Y-6300000D02*
X17677000Y-6330000D01*
X17677000Y-6300000D02*
X17647000Y-6330000D01*
X17652000Y-6464000D02*
X17682000Y-6494000D01*
X17682000Y-6464000D02*
X17652000Y-6494000D01*
X17659000Y-5794000D02*
X17689000Y-5824000D01*
X17689000Y-5794000D02*
X17659000Y-5824000D01*
X17659000Y-5846000D02*
X17689000Y-5876000D01*
X17689000Y-5846000D02*
X17659000Y-5876000D01*
X17660000Y-5739000D02*
X17690000Y-5769000D01*
X17690000Y-5739000D02*
X17660000Y-5769000D01*
X17682500Y-7143000D02*
X17712500Y-7173000D01*
X17712500Y-7143000D02*
X17682500Y-7173000D01*
X17684000Y-8131000D02*
X17714000Y-8161000D01*
X17714000Y-8131000D02*
X17684000Y-8161000D01*
X17685000Y-8182000D02*
X17715000Y-8212000D01*
X17715000Y-8182000D02*
X17685000Y-8212000D01*
X17701500Y-6986500D02*
X17731500Y-7016500D01*
X17731500Y-6986500D02*
X17701500Y-7016500D01*
X17704500Y-6465500D02*
X17734500Y-6495500D01*
X17734500Y-6465500D02*
X17704500Y-6495500D01*
X17711000Y-6150000D02*
X17741000Y-6180000D01*
X17741000Y-6150000D02*
X17711000Y-6180000D01*
X17713000Y-7422000D02*
X17743000Y-7452000D01*
X17743000Y-7422000D02*
X17713000Y-7452000D01*
X17715500Y-7473000D02*
X17745500Y-7503000D01*
X17745500Y-7473000D02*
X17715500Y-7503000D01*
X17716000Y-7525000D02*
X17746000Y-7555000D01*
X17746000Y-7525000D02*
X17716000Y-7555000D01*
X17728000Y-5737000D02*
X17758000Y-5767000D01*
X17758000Y-5737000D02*
X17728000Y-5767000D01*
X17729000Y-5794000D02*
X17759000Y-5824000D01*
X17759000Y-5794000D02*
X17729000Y-5824000D01*
X17729000Y-5852000D02*
X17759000Y-5882000D01*
X17759000Y-5852000D02*
X17729000Y-5882000D01*
X17764000Y-7822500D02*
X17794000Y-7852500D01*
X17794000Y-7822500D02*
X17764000Y-7852500D01*
X17776000Y-6894000D02*
X17806000Y-6924000D01*
X17806000Y-6894000D02*
X17776000Y-6924000D01*
X17789000Y-5738000D02*
X17819000Y-5768000D01*
X17819000Y-5738000D02*
X17789000Y-5768000D01*
X17792000Y-5797000D02*
X17822000Y-5827000D01*
X17822000Y-5797000D02*
X17792000Y-5827000D01*
X17792000Y-5849000D02*
X17822000Y-5879000D01*
X17822000Y-5849000D02*
X17792000Y-5879000D01*
X17797000Y-9030000D02*
X17827000Y-9060000D01*
X17827000Y-9030000D02*
X17797000Y-9060000D01*
X17820000Y-8418500D02*
X17850000Y-8448500D01*
X17850000Y-8418500D02*
X17820000Y-8448500D01*
X17826000Y-8977500D02*
X17856000Y-9007500D01*
X17856000Y-8977500D02*
X17826000Y-9007500D01*
X17835000Y-7988000D02*
X17865000Y-8018000D01*
X17865000Y-7988000D02*
X17835000Y-8018000D01*
X17835500Y-7822000D02*
X17865500Y-7852000D01*
X17865500Y-7822000D02*
X17835500Y-7852000D01*
X17839000Y-7297000D02*
X17869000Y-7327000D01*
X17869000Y-7297000D02*
X17839000Y-7327000D01*
X17850000Y-9030000D02*
X17880000Y-9060000D01*
X17880000Y-9030000D02*
X17850000Y-9060000D01*
X17853000Y-7500000D02*
X17883000Y-7530000D01*
X17883000Y-7500000D02*
X17853000Y-7530000D01*
X17854000Y-7448000D02*
X17884000Y-7478000D01*
X17884000Y-7448000D02*
X17854000Y-7478000D01*
X17854000Y-7556000D02*
X17884000Y-7586000D01*
X17884000Y-7556000D02*
X17854000Y-7586000D01*
X17867500Y-8415500D02*
X17897500Y-8445500D01*
X17897500Y-8415500D02*
X17867500Y-8445500D01*
X17880000Y-6946000D02*
X17910000Y-6976000D01*
X17910000Y-6946000D02*
X17880000Y-6976000D01*
X17888500Y-7304000D02*
X17918500Y-7334000D01*
X17918500Y-7304000D02*
X17888500Y-7334000D01*
X17890000Y-7246000D02*
X17920000Y-7276000D01*
X17920000Y-7246000D02*
X17890000Y-7276000D01*
X17903000Y-6190000D02*
X17933000Y-6220000D01*
X17933000Y-6190000D02*
X17903000Y-6220000D01*
X17907000Y-7448500D02*
X17937000Y-7478500D01*
X17937000Y-7448500D02*
X17907000Y-7478500D01*
X17922500Y-6351500D02*
X17952500Y-6381500D01*
X17952500Y-6351500D02*
X17922500Y-6381500D01*
X17930000Y-5960000D02*
X17960000Y-5990000D01*
X17960000Y-5960000D02*
X17930000Y-5990000D01*
X17931000Y-5904000D02*
X17961000Y-5934000D01*
X17961000Y-5904000D02*
X17931000Y-5934000D01*
X17932000Y-5850000D02*
X17962000Y-5880000D01*
X17962000Y-5850000D02*
X17932000Y-5880000D01*
X17932000Y-7197000D02*
X17962000Y-7227000D01*
X17962000Y-7197000D02*
X17932000Y-7227000D01*
X17941000Y-7297000D02*
X17971000Y-7327000D01*
X17971000Y-7297000D02*
X17941000Y-7327000D01*
X17945000Y-8346500D02*
X17975000Y-8376500D01*
X17975000Y-8346500D02*
X17945000Y-8376500D01*
X17950000Y-5636500D02*
X17980000Y-5666500D01*
X17980000Y-5636500D02*
X17950000Y-5666500D01*
X17959500Y-7449500D02*
X17989500Y-7479500D01*
X17989500Y-7449500D02*
X17959500Y-7479500D01*
X17959500Y-7991000D02*
X17989500Y-8021000D01*
X17989500Y-7991000D02*
X17959500Y-8021000D01*
X17981000Y-7669000D02*
X18011000Y-7699000D01*
X18011000Y-7669000D02*
X17981000Y-7699000D01*
X17997500Y-8345500D02*
X18027500Y-8375500D01*
X18027500Y-8345500D02*
X17997500Y-8375500D01*
X18003500Y-6676000D02*
X18033500Y-6706000D01*
X18033500Y-6676000D02*
X18003500Y-6706000D01*
X18005000Y-6853000D02*
X18035000Y-6883000D01*
X18035000Y-6853000D02*
X18005000Y-6883000D01*
X18005500Y-6289500D02*
X18035500Y-6319500D01*
X18035500Y-6289500D02*
X18005500Y-6319500D01*
X18006000Y-6559000D02*
X18036000Y-6589000D01*
X18036000Y-6559000D02*
X18006000Y-6589000D01*
X18006000Y-6735500D02*
X18036000Y-6765500D01*
X18036000Y-6735500D02*
X18006000Y-6765500D01*
X18007500Y-6615500D02*
X18037500Y-6645500D01*
X18037500Y-6615500D02*
X18007500Y-6645500D01*
X18008000Y-6793000D02*
X18038000Y-6823000D01*
X18038000Y-6793000D02*
X18008000Y-6823000D01*
X18013000Y-7991000D02*
X18043000Y-8021000D01*
X18043000Y-7991000D02*
X18013000Y-8021000D01*
X18048000Y-5636000D02*
X18078000Y-5666000D01*
X18078000Y-5636000D02*
X18048000Y-5666000D01*
X18056000Y-6291000D02*
X18086000Y-6321000D01*
X18086000Y-6291000D02*
X18056000Y-6321000D01*
X18070000Y-8982000D02*
X18100000Y-9012000D01*
X18100000Y-8982000D02*
X18070000Y-9012000D01*
X18079000Y-6467000D02*
X18109000Y-6497000D01*
X18109000Y-6467000D02*
X18079000Y-6497000D01*
X18130000Y-6024000D02*
X18160000Y-6054000D01*
X18160000Y-6024000D02*
X18130000Y-6054000D01*
X18150000Y-7136500D02*
X18180000Y-7166500D01*
X18180000Y-7136500D02*
X18150000Y-7166500D01*
X18156000Y-8133500D02*
X18186000Y-8163500D01*
X18186000Y-8133500D02*
X18156000Y-8163500D01*
X18172000Y-5904000D02*
X18202000Y-5934000D01*
X18202000Y-5904000D02*
X18172000Y-5934000D01*
X18172000Y-5976000D02*
X18202000Y-6006000D01*
X18202000Y-5976000D02*
X18172000Y-6006000D01*
X18174000Y-5833000D02*
X18204000Y-5863000D01*
X18204000Y-5833000D02*
X18174000Y-5863000D01*
X18184000Y-6760000D02*
X18214000Y-6790000D01*
X18214000Y-6760000D02*
X18184000Y-6790000D01*
X18207000Y-5582500D02*
X18237000Y-5612500D01*
X18237000Y-5582500D02*
X18207000Y-5612500D01*
X18208500Y-5636500D02*
X18238500Y-5666500D01*
X18238500Y-5636500D02*
X18208500Y-5666500D01*
X18280000Y-5942000D02*
X18310000Y-5972000D01*
X18310000Y-5942000D02*
X18280000Y-5972000D01*
X18282000Y-6188000D02*
X18312000Y-6218000D01*
X18312000Y-6188000D02*
X18282000Y-6218000D01*
X18282500Y-6317500D02*
X18312500Y-6347500D01*
X18312500Y-6317500D02*
X18282500Y-6347500D01*
X18286000Y-6059500D02*
X18316000Y-6089500D01*
X18316000Y-6059500D02*
X18286000Y-6089500D01*
X18339000Y-6129000D02*
X18369000Y-6159000D01*
X18369000Y-6129000D02*
X18339000Y-6159000D01*
X18344500Y-6252500D02*
X18374500Y-6282500D01*
X18374500Y-6252500D02*
X18344500Y-6282500D01*
X18369500Y-7307500D02*
X18399500Y-7337500D01*
X18399500Y-7307500D02*
X18369500Y-7337500D01*
X18373500Y-6917500D02*
X18403500Y-6947500D01*
X18403500Y-6917500D02*
X18373500Y-6947500D01*
X18374000Y-7539000D02*
X18404000Y-7569000D01*
X18404000Y-7539000D02*
X18374000Y-7569000D01*
X18375500Y-7987500D02*
X18405500Y-8017500D01*
X18405500Y-7987500D02*
X18375500Y-8017500D01*
X18383500Y-6058500D02*
X18413500Y-6088500D01*
X18413500Y-6058500D02*
X18383500Y-6088500D01*
X18399000Y-6187000D02*
X18429000Y-6217000D01*
X18429000Y-6187000D02*
X18399000Y-6217000D01*
X18416000Y-6318000D02*
X18446000Y-6348000D01*
X18446000Y-6318000D02*
X18416000Y-6348000D01*
X18458500Y-5844000D02*
X18488500Y-5874000D01*
X18488500Y-5844000D02*
X18458500Y-5874000D01*
X18459000Y-5792000D02*
X18489000Y-5822000D01*
X18489000Y-5792000D02*
X18459000Y-5822000D01*
X18519000Y-8031500D02*
X18549000Y-8061500D01*
X18549000Y-8031500D02*
X18519000Y-8061500D01*
X18534500Y-6187000D02*
X18564500Y-6217000D01*
X18564500Y-6187000D02*
X18534500Y-6217000D01*
X18544500Y-8885000D02*
X18574500Y-8915000D01*
X18574500Y-8885000D02*
X18544500Y-8915000D01*
X18545000Y-5046500D02*
X18575000Y-5076500D01*
X18575000Y-5046500D02*
X18545000Y-5076500D01*
X18554000Y-6410000D02*
X18584000Y-6440000D01*
X18584000Y-6410000D02*
X18554000Y-6440000D01*
X18555000Y-6452000D02*
X18585000Y-6482000D01*
X18585000Y-6452000D02*
X18555000Y-6482000D01*
X18631000Y-6286000D02*
X18661000Y-6316000D01*
X18661000Y-6286000D02*
X18631000Y-6316000D01*
X18648500Y-8191500D02*
X18678500Y-8221500D01*
X18678500Y-8191500D02*
X18648500Y-8221500D01*
X18649000Y-6063000D02*
X18679000Y-6093000D01*
X18679000Y-6063000D02*
X18649000Y-6093000D01*
X18675000Y-6286000D02*
X18705000Y-6316000D01*
X18705000Y-6286000D02*
X18675000Y-6316000D01*
X18682500Y-7152500D02*
X18712500Y-7182500D01*
X18712500Y-7152500D02*
X18682500Y-7182500D01*
X18683000Y-6943500D02*
X18713000Y-6973500D01*
X18713000Y-6943500D02*
X18683000Y-6973500D01*
X18685500Y-6843000D02*
X18715500Y-6873000D01*
X18715500Y-6843000D02*
X18685500Y-6873000D01*
X18686000Y-7038000D02*
X18716000Y-7068000D01*
X18716000Y-7038000D02*
X18686000Y-7068000D01*
X18714000Y-6412000D02*
X18744000Y-6442000D01*
X18744000Y-6412000D02*
X18714000Y-6442000D01*
X18714000Y-6467000D02*
X18744000Y-6497000D01*
X18744000Y-6467000D02*
X18714000Y-6497000D01*
X18744000Y-7546500D02*
X18774000Y-7576500D01*
X18774000Y-7546500D02*
X18744000Y-7576500D01*
X18746500Y-7749000D02*
X18776500Y-7779000D01*
X18776500Y-7749000D02*
X18746500Y-7779000D01*
X18747000Y-8146000D02*
X18777000Y-8176000D01*
X18777000Y-8146000D02*
X18747000Y-8176000D01*
X18749500Y-7943500D02*
X18779500Y-7973500D01*
X18779500Y-7943500D02*
X18749500Y-7973500D01*
X18785500Y-5736000D02*
X18815500Y-5766000D01*
X18815500Y-5736000D02*
X18785500Y-5766000D01*
X18786500Y-5800500D02*
X18816500Y-5830500D01*
X18816500Y-5800500D02*
X18786500Y-5830500D01*
X18803000Y-6270000D02*
X18833000Y-6300000D01*
X18833000Y-6270000D02*
X18803000Y-6300000D01*
X18827000Y-7545000D02*
X18857000Y-7575000D01*
X18857000Y-7545000D02*
X18827000Y-7575000D01*
X18827000Y-8765000D02*
X18857000Y-8795000D01*
X18857000Y-8765000D02*
X18827000Y-8795000D01*
X18831000Y-5165000D02*
X18861000Y-5195000D01*
X18861000Y-5165000D02*
X18831000Y-5195000D01*
X18833000Y-6388000D02*
X18863000Y-6418000D01*
X18863000Y-6388000D02*
X18833000Y-6418000D01*
X18834000Y-6492500D02*
X18864000Y-6522500D01*
X18864000Y-6492500D02*
X18834000Y-6522500D01*
X18852000Y-6330000D02*
X18882000Y-6360000D01*
X18882000Y-6330000D02*
X18852000Y-6360000D01*
X18856000Y-6273000D02*
X18886000Y-6303000D01*
X18886000Y-6273000D02*
X18856000Y-6303000D01*
X18870000Y-6060000D02*
X18900000Y-6090000D01*
X18900000Y-6060000D02*
X18870000Y-6090000D01*
X18884500Y-6491000D02*
X18914500Y-6521000D01*
X18914500Y-6491000D02*
X18884500Y-6521000D01*
X18888000Y-6388000D02*
X18918000Y-6418000D01*
X18918000Y-6388000D02*
X18888000Y-6418000D01*
X18905000Y-7543000D02*
X18935000Y-7573000D01*
X18935000Y-7543000D02*
X18905000Y-7573000D01*
X18945500Y-5446000D02*
X18975500Y-5476000D01*
X18975500Y-5446000D02*
X18945500Y-5476000D01*
X18946000Y-8485000D02*
X18976000Y-8515000D01*
X18976000Y-8485000D02*
X18946000Y-8515000D01*
X18976000Y-8044000D02*
X19006000Y-8074000D01*
X19006000Y-8044000D02*
X18976000Y-8074000D01*
D13*
X15700000Y-5450000D02*
G75*
G02*
X15300000Y-5450000I-200000J0D01*
G01*
X15300000Y-5450000D02*
G75*
G02*
X15700000Y-5450000I200000J0D01*
G01*
X15700000Y-8500000D02*
G75*
G02*
X15300000Y-8500000I-200000J0D01*
G01*
X15300000Y-8500000D02*
G75*
G02*
X15700000Y-8500000I200000J0D01*
G01*
X18750000Y-5450000D02*
G75*
G02*
X18350000Y-5450000I-200000J0D01*
G01*
X18350000Y-5450000D02*
G75*
G02*
X18750000Y-5450000I200000J0D01*
G01*
X18750000Y-8500000D02*
G75*
G02*
X18350000Y-8500000I-200000J0D01*
G01*
X18350000Y-8500000D02*
G75*
G02*
X18750000Y-8500000I200000J0D01*
G01*
D11*
X15258277Y-9564959D02*
X15258277Y-9364959D01*
X15258277Y-9364959D02*
X15305896Y-9364959D01*
X15305896Y-9364959D02*
X15334467Y-9374483D01*
X15334467Y-9374483D02*
X15353515Y-9393530D01*
X15353515Y-9393530D02*
X15363039Y-9412578D01*
X15363039Y-9412578D02*
X15372562Y-9450673D01*
X15372562Y-9450673D02*
X15372562Y-9479245D01*
X15372562Y-9479245D02*
X15363039Y-9517340D01*
X15363039Y-9517340D02*
X15353515Y-9536387D01*
X15353515Y-9536387D02*
X15334467Y-9555435D01*
X15334467Y-9555435D02*
X15305896Y-9564959D01*
X15305896Y-9564959D02*
X15258277Y-9564959D01*
X15458277Y-9564959D02*
X15458277Y-9431625D01*
X15458277Y-9469721D02*
X15467801Y-9450673D01*
X15467801Y-9450673D02*
X15477324Y-9441149D01*
X15477324Y-9441149D02*
X15496372Y-9431625D01*
X15496372Y-9431625D02*
X15515420Y-9431625D01*
X15582086Y-9564959D02*
X15582086Y-9431625D01*
X15582086Y-9364959D02*
X15572562Y-9374483D01*
X15572562Y-9374483D02*
X15582086Y-9384006D01*
X15582086Y-9384006D02*
X15591610Y-9374483D01*
X15591610Y-9374483D02*
X15582086Y-9364959D01*
X15582086Y-9364959D02*
X15582086Y-9384006D01*
X15705896Y-9564959D02*
X15686848Y-9555435D01*
X15686848Y-9555435D02*
X15677324Y-9536387D01*
X15677324Y-9536387D02*
X15677324Y-9364959D01*
X15810658Y-9564959D02*
X15791610Y-9555435D01*
X15791610Y-9555435D02*
X15782086Y-9536387D01*
X15782086Y-9536387D02*
X15782086Y-9364959D01*
X16039229Y-9564959D02*
X16039229Y-9364959D01*
X16039229Y-9364959D02*
X16105896Y-9507816D01*
X16105896Y-9507816D02*
X16172562Y-9364959D01*
X16172562Y-9364959D02*
X16172562Y-9564959D01*
X16353515Y-9564959D02*
X16353515Y-9460197D01*
X16353515Y-9460197D02*
X16343991Y-9441149D01*
X16343991Y-9441149D02*
X16324943Y-9431625D01*
X16324943Y-9431625D02*
X16286848Y-9431625D01*
X16286848Y-9431625D02*
X16267801Y-9441149D01*
X16353515Y-9555435D02*
X16334467Y-9564959D01*
X16334467Y-9564959D02*
X16286848Y-9564959D01*
X16286848Y-9564959D02*
X16267801Y-9555435D01*
X16267801Y-9555435D02*
X16258277Y-9536387D01*
X16258277Y-9536387D02*
X16258277Y-9517340D01*
X16258277Y-9517340D02*
X16267801Y-9498292D01*
X16267801Y-9498292D02*
X16286848Y-9488768D01*
X16286848Y-9488768D02*
X16334467Y-9488768D01*
X16334467Y-9488768D02*
X16353515Y-9479245D01*
X16448753Y-9431625D02*
X16448753Y-9631625D01*
X16448753Y-9441149D02*
X16467801Y-9431625D01*
X16467801Y-9431625D02*
X16505896Y-9431625D01*
X16505896Y-9431625D02*
X16524943Y-9441149D01*
X16524943Y-9441149D02*
X16534467Y-9450673D01*
X16534467Y-9450673D02*
X16543991Y-9469721D01*
X16543991Y-9469721D02*
X16543991Y-9526864D01*
X16543991Y-9526864D02*
X16534467Y-9545911D01*
X16534467Y-9545911D02*
X16524943Y-9555435D01*
X16524943Y-9555435D02*
X16505896Y-9564959D01*
X16505896Y-9564959D02*
X16467801Y-9564959D01*
X16467801Y-9564959D02*
X16448753Y-9555435D01*
X16629705Y-9545911D02*
X16639229Y-9555435D01*
X16639229Y-9555435D02*
X16629705Y-9564959D01*
X16629705Y-9564959D02*
X16620182Y-9555435D01*
X16620182Y-9555435D02*
X16629705Y-9545911D01*
X16629705Y-9545911D02*
X16629705Y-9564959D01*
X16629705Y-9441149D02*
X16639229Y-9450673D01*
X16639229Y-9450673D02*
X16629705Y-9460197D01*
X16629705Y-9460197D02*
X16620182Y-9450673D01*
X16620182Y-9450673D02*
X16629705Y-9441149D01*
X16629705Y-9441149D02*
X16629705Y-9460197D01*
D12*
X14967500Y-9878475D02*
X14997500Y-9908475D01*
X14997500Y-9878475D02*
X14967500Y-9908475D01*
D11*
X15296372Y-9784959D02*
X15315420Y-9784959D01*
X15315420Y-9784959D02*
X15334467Y-9794483D01*
X15334467Y-9794483D02*
X15343991Y-9804006D01*
X15343991Y-9804006D02*
X15353515Y-9823054D01*
X15353515Y-9823054D02*
X15363039Y-9861149D01*
X15363039Y-9861149D02*
X15363039Y-9908768D01*
X15363039Y-9908768D02*
X15353515Y-9946864D01*
X15353515Y-9946864D02*
X15343991Y-9965911D01*
X15343991Y-9965911D02*
X15334467Y-9975435D01*
X15334467Y-9975435D02*
X15315420Y-9984959D01*
X15315420Y-9984959D02*
X15296372Y-9984959D01*
X15296372Y-9984959D02*
X15277324Y-9975435D01*
X15277324Y-9975435D02*
X15267801Y-9965911D01*
X15267801Y-9965911D02*
X15258277Y-9946864D01*
X15258277Y-9946864D02*
X15248753Y-9908768D01*
X15248753Y-9908768D02*
X15248753Y-9861149D01*
X15248753Y-9861149D02*
X15258277Y-9823054D01*
X15258277Y-9823054D02*
X15267801Y-9804006D01*
X15267801Y-9804006D02*
X15277324Y-9794483D01*
X15277324Y-9794483D02*
X15296372Y-9784959D01*
X15448753Y-9965911D02*
X15458277Y-9975435D01*
X15458277Y-9975435D02*
X15448753Y-9984959D01*
X15448753Y-9984959D02*
X15439229Y-9975435D01*
X15439229Y-9975435D02*
X15448753Y-9965911D01*
X15448753Y-9965911D02*
X15448753Y-9984959D01*
X15524943Y-9784959D02*
X15648753Y-9784959D01*
X15648753Y-9784959D02*
X15582086Y-9861149D01*
X15582086Y-9861149D02*
X15610658Y-9861149D01*
X15610658Y-9861149D02*
X15629705Y-9870673D01*
X15629705Y-9870673D02*
X15639229Y-9880197D01*
X15639229Y-9880197D02*
X15648753Y-9899245D01*
X15648753Y-9899245D02*
X15648753Y-9946864D01*
X15648753Y-9946864D02*
X15639229Y-9965911D01*
X15639229Y-9965911D02*
X15629705Y-9975435D01*
X15629705Y-9975435D02*
X15610658Y-9984959D01*
X15610658Y-9984959D02*
X15553515Y-9984959D01*
X15553515Y-9984959D02*
X15534467Y-9975435D01*
X15534467Y-9975435D02*
X15524943Y-9965911D01*
X15772562Y-9784959D02*
X15791610Y-9784959D01*
X15791610Y-9784959D02*
X15810658Y-9794483D01*
X15810658Y-9794483D02*
X15820182Y-9804006D01*
X15820182Y-9804006D02*
X15829705Y-9823054D01*
X15829705Y-9823054D02*
X15839229Y-9861149D01*
X15839229Y-9861149D02*
X15839229Y-9908768D01*
X15839229Y-9908768D02*
X15829705Y-9946864D01*
X15829705Y-9946864D02*
X15820182Y-9965911D01*
X15820182Y-9965911D02*
X15810658Y-9975435D01*
X15810658Y-9975435D02*
X15791610Y-9984959D01*
X15791610Y-9984959D02*
X15772562Y-9984959D01*
X15772562Y-9984959D02*
X15753515Y-9975435D01*
X15753515Y-9975435D02*
X15743991Y-9965911D01*
X15743991Y-9965911D02*
X15734467Y-9946864D01*
X15734467Y-9946864D02*
X15724943Y-9908768D01*
X15724943Y-9908768D02*
X15724943Y-9861149D01*
X15724943Y-9861149D02*
X15734467Y-9823054D01*
X15734467Y-9823054D02*
X15743991Y-9804006D01*
X15743991Y-9804006D02*
X15753515Y-9794483D01*
X15753515Y-9794483D02*
X15772562Y-9784959D01*
X15963039Y-9784959D02*
X15982086Y-9784959D01*
X15982086Y-9784959D02*
X16001134Y-9794483D01*
X16001134Y-9794483D02*
X16010658Y-9804006D01*
X16010658Y-9804006D02*
X16020182Y-9823054D01*
X16020182Y-9823054D02*
X16029705Y-9861149D01*
X16029705Y-9861149D02*
X16029705Y-9908768D01*
X16029705Y-9908768D02*
X16020182Y-9946864D01*
X16020182Y-9946864D02*
X16010658Y-9965911D01*
X16010658Y-9965911D02*
X16001134Y-9975435D01*
X16001134Y-9975435D02*
X15982086Y-9984959D01*
X15982086Y-9984959D02*
X15963039Y-9984959D01*
X15963039Y-9984959D02*
X15943991Y-9975435D01*
X15943991Y-9975435D02*
X15934467Y-9965911D01*
X15934467Y-9965911D02*
X15924943Y-9946864D01*
X15924943Y-9946864D02*
X15915420Y-9908768D01*
X15915420Y-9908768D02*
X15915420Y-9861149D01*
X15915420Y-9861149D02*
X15924943Y-9823054D01*
X15924943Y-9823054D02*
X15934467Y-9804006D01*
X15934467Y-9804006D02*
X15943991Y-9794483D01*
X15943991Y-9794483D02*
X15963039Y-9784959D01*
X16115420Y-9984959D02*
X16115420Y-9851625D01*
X16115420Y-9870673D02*
X16124943Y-9861149D01*
X16124943Y-9861149D02*
X16143991Y-9851625D01*
X16143991Y-9851625D02*
X16172563Y-9851625D01*
X16172563Y-9851625D02*
X16191610Y-9861149D01*
X16191610Y-9861149D02*
X16201134Y-9880197D01*
X16201134Y-9880197D02*
X16201134Y-9984959D01*
X16201134Y-9880197D02*
X16210658Y-9861149D01*
X16210658Y-9861149D02*
X16229705Y-9851625D01*
X16229705Y-9851625D02*
X16258277Y-9851625D01*
X16258277Y-9851625D02*
X16277324Y-9861149D01*
X16277324Y-9861149D02*
X16286848Y-9880197D01*
X16286848Y-9880197D02*
X16286848Y-9984959D01*
X16382086Y-9984959D02*
X16382086Y-9851625D01*
X16382086Y-9870673D02*
X16391610Y-9861149D01*
X16391610Y-9861149D02*
X16410658Y-9851625D01*
X16410658Y-9851625D02*
X16439229Y-9851625D01*
X16439229Y-9851625D02*
X16458277Y-9861149D01*
X16458277Y-9861149D02*
X16467801Y-9880197D01*
X16467801Y-9880197D02*
X16467801Y-9984959D01*
X16467801Y-9880197D02*
X16477324Y-9861149D01*
X16477324Y-9861149D02*
X16496372Y-9851625D01*
X16496372Y-9851625D02*
X16524943Y-9851625D01*
X16524943Y-9851625D02*
X16543991Y-9861149D01*
X16543991Y-9861149D02*
X16553515Y-9880197D01*
X16553515Y-9880197D02*
X16553515Y-9984959D01*
X16943991Y-9775435D02*
X16772563Y-10032578D01*
X17201134Y-9784959D02*
X17220182Y-9784959D01*
X17220182Y-9784959D02*
X17239229Y-9794483D01*
X17239229Y-9794483D02*
X17248753Y-9804006D01*
X17248753Y-9804006D02*
X17258277Y-9823054D01*
X17258277Y-9823054D02*
X17267801Y-9861149D01*
X17267801Y-9861149D02*
X17267801Y-9908768D01*
X17267801Y-9908768D02*
X17258277Y-9946864D01*
X17258277Y-9946864D02*
X17248753Y-9965911D01*
X17248753Y-9965911D02*
X17239229Y-9975435D01*
X17239229Y-9975435D02*
X17220182Y-9984959D01*
X17220182Y-9984959D02*
X17201134Y-9984959D01*
X17201134Y-9984959D02*
X17182087Y-9975435D01*
X17182087Y-9975435D02*
X17172563Y-9965911D01*
X17172563Y-9965911D02*
X17163039Y-9946864D01*
X17163039Y-9946864D02*
X17153515Y-9908768D01*
X17153515Y-9908768D02*
X17153515Y-9861149D01*
X17153515Y-9861149D02*
X17163039Y-9823054D01*
X17163039Y-9823054D02*
X17172563Y-9804006D01*
X17172563Y-9804006D02*
X17182087Y-9794483D01*
X17182087Y-9794483D02*
X17201134Y-9784959D01*
X17353515Y-9965911D02*
X17363039Y-9975435D01*
X17363039Y-9975435D02*
X17353515Y-9984959D01*
X17353515Y-9984959D02*
X17343991Y-9975435D01*
X17343991Y-9975435D02*
X17353515Y-9965911D01*
X17353515Y-9965911D02*
X17353515Y-9984959D01*
X17486848Y-9784959D02*
X17505896Y-9784959D01*
X17505896Y-9784959D02*
X17524944Y-9794483D01*
X17524944Y-9794483D02*
X17534468Y-9804006D01*
X17534468Y-9804006D02*
X17543991Y-9823054D01*
X17543991Y-9823054D02*
X17553515Y-9861149D01*
X17553515Y-9861149D02*
X17553515Y-9908768D01*
X17553515Y-9908768D02*
X17543991Y-9946864D01*
X17543991Y-9946864D02*
X17534468Y-9965911D01*
X17534468Y-9965911D02*
X17524944Y-9975435D01*
X17524944Y-9975435D02*
X17505896Y-9984959D01*
X17505896Y-9984959D02*
X17486848Y-9984959D01*
X17486848Y-9984959D02*
X17467801Y-9975435D01*
X17467801Y-9975435D02*
X17458277Y-9965911D01*
X17458277Y-9965911D02*
X17448753Y-9946864D01*
X17448753Y-9946864D02*
X17439229Y-9908768D01*
X17439229Y-9908768D02*
X17439229Y-9861149D01*
X17439229Y-9861149D02*
X17448753Y-9823054D01*
X17448753Y-9823054D02*
X17458277Y-9804006D01*
X17458277Y-9804006D02*
X17467801Y-9794483D01*
X17467801Y-9794483D02*
X17486848Y-9784959D01*
X17743991Y-9984959D02*
X17629706Y-9984959D01*
X17686848Y-9984959D02*
X17686848Y-9784959D01*
X17686848Y-9784959D02*
X17667801Y-9813530D01*
X17667801Y-9813530D02*
X17648753Y-9832578D01*
X17648753Y-9832578D02*
X17629706Y-9842102D01*
X17934468Y-9984959D02*
X17820182Y-9984959D01*
X17877325Y-9984959D02*
X17877325Y-9784959D01*
X17877325Y-9784959D02*
X17858277Y-9813530D01*
X17858277Y-9813530D02*
X17839229Y-9832578D01*
X17839229Y-9832578D02*
X17820182Y-9842102D01*
X18048753Y-9870673D02*
X18029706Y-9861149D01*
X18029706Y-9861149D02*
X18020182Y-9851625D01*
X18020182Y-9851625D02*
X18010658Y-9832578D01*
X18010658Y-9832578D02*
X18010658Y-9823054D01*
X18010658Y-9823054D02*
X18020182Y-9804006D01*
X18020182Y-9804006D02*
X18029706Y-9794483D01*
X18029706Y-9794483D02*
X18048753Y-9784959D01*
X18048753Y-9784959D02*
X18086849Y-9784959D01*
X18086849Y-9784959D02*
X18105896Y-9794483D01*
X18105896Y-9794483D02*
X18115420Y-9804006D01*
X18115420Y-9804006D02*
X18124944Y-9823054D01*
X18124944Y-9823054D02*
X18124944Y-9832578D01*
X18124944Y-9832578D02*
X18115420Y-9851625D01*
X18115420Y-9851625D02*
X18105896Y-9861149D01*
X18105896Y-9861149D02*
X18086849Y-9870673D01*
X18086849Y-9870673D02*
X18048753Y-9870673D01*
X18048753Y-9870673D02*
X18029706Y-9880197D01*
X18029706Y-9880197D02*
X18020182Y-9889721D01*
X18020182Y-9889721D02*
X18010658Y-9908768D01*
X18010658Y-9908768D02*
X18010658Y-9946864D01*
X18010658Y-9946864D02*
X18020182Y-9965911D01*
X18020182Y-9965911D02*
X18029706Y-9975435D01*
X18029706Y-9975435D02*
X18048753Y-9984959D01*
X18048753Y-9984959D02*
X18086849Y-9984959D01*
X18086849Y-9984959D02*
X18105896Y-9975435D01*
X18105896Y-9975435D02*
X18115420Y-9965911D01*
X18115420Y-9965911D02*
X18124944Y-9946864D01*
X18124944Y-9946864D02*
X18124944Y-9908768D01*
X18124944Y-9908768D02*
X18115420Y-9889721D01*
X18115420Y-9889721D02*
X18105896Y-9880197D01*
X18105896Y-9880197D02*
X18086849Y-9870673D01*
X18201134Y-9784959D02*
X18201134Y-9823054D01*
X18277325Y-9784959D02*
X18277325Y-9823054D01*
X18572563Y-10061149D02*
X18563039Y-10051625D01*
X18563039Y-10051625D02*
X18543991Y-10023054D01*
X18543991Y-10023054D02*
X18534468Y-10004006D01*
X18534468Y-10004006D02*
X18524944Y-9975435D01*
X18524944Y-9975435D02*
X18515420Y-9927816D01*
X18515420Y-9927816D02*
X18515420Y-9889721D01*
X18515420Y-9889721D02*
X18524944Y-9842102D01*
X18524944Y-9842102D02*
X18534468Y-9813530D01*
X18534468Y-9813530D02*
X18543991Y-9794483D01*
X18543991Y-9794483D02*
X18563039Y-9765911D01*
X18563039Y-9765911D02*
X18572563Y-9756387D01*
X18629706Y-9784959D02*
X18753515Y-9784959D01*
X18753515Y-9784959D02*
X18686849Y-9861149D01*
X18686849Y-9861149D02*
X18715420Y-9861149D01*
X18715420Y-9861149D02*
X18734468Y-9870673D01*
X18734468Y-9870673D02*
X18743991Y-9880197D01*
X18743991Y-9880197D02*
X18753515Y-9899245D01*
X18753515Y-9899245D02*
X18753515Y-9946864D01*
X18753515Y-9946864D02*
X18743991Y-9965911D01*
X18743991Y-9965911D02*
X18734468Y-9975435D01*
X18734468Y-9975435D02*
X18715420Y-9984959D01*
X18715420Y-9984959D02*
X18658277Y-9984959D01*
X18658277Y-9984959D02*
X18639230Y-9975435D01*
X18639230Y-9975435D02*
X18629706Y-9965911D01*
X18924944Y-9784959D02*
X18886849Y-9784959D01*
X18886849Y-9784959D02*
X18867801Y-9794483D01*
X18867801Y-9794483D02*
X18858277Y-9804006D01*
X18858277Y-9804006D02*
X18839230Y-9832578D01*
X18839230Y-9832578D02*
X18829706Y-9870673D01*
X18829706Y-9870673D02*
X18829706Y-9946864D01*
X18829706Y-9946864D02*
X18839230Y-9965911D01*
X18839230Y-9965911D02*
X18848753Y-9975435D01*
X18848753Y-9975435D02*
X18867801Y-9984959D01*
X18867801Y-9984959D02*
X18905896Y-9984959D01*
X18905896Y-9984959D02*
X18924944Y-9975435D01*
X18924944Y-9975435D02*
X18934468Y-9965911D01*
X18934468Y-9965911D02*
X18943991Y-9946864D01*
X18943991Y-9946864D02*
X18943991Y-9899245D01*
X18943991Y-9899245D02*
X18934468Y-9880197D01*
X18934468Y-9880197D02*
X18924944Y-9870673D01*
X18924944Y-9870673D02*
X18905896Y-9861149D01*
X18905896Y-9861149D02*
X18867801Y-9861149D01*
X18867801Y-9861149D02*
X18848753Y-9870673D01*
X18848753Y-9870673D02*
X18839230Y-9880197D01*
X18839230Y-9880197D02*
X18829706Y-9899245D01*
X19010658Y-9784959D02*
X19143991Y-9784959D01*
X19143991Y-9784959D02*
X19058277Y-9984959D01*
X19372563Y-9984959D02*
X19372563Y-9784959D01*
X19458277Y-9984959D02*
X19458277Y-9880197D01*
X19458277Y-9880197D02*
X19448753Y-9861149D01*
X19448753Y-9861149D02*
X19429706Y-9851625D01*
X19429706Y-9851625D02*
X19401134Y-9851625D01*
X19401134Y-9851625D02*
X19382087Y-9861149D01*
X19382087Y-9861149D02*
X19372563Y-9870673D01*
X19582087Y-9984959D02*
X19563039Y-9975435D01*
X19563039Y-9975435D02*
X19553515Y-9965911D01*
X19553515Y-9965911D02*
X19543992Y-9946864D01*
X19543992Y-9946864D02*
X19543992Y-9889721D01*
X19543992Y-9889721D02*
X19553515Y-9870673D01*
X19553515Y-9870673D02*
X19563039Y-9861149D01*
X19563039Y-9861149D02*
X19582087Y-9851625D01*
X19582087Y-9851625D02*
X19610658Y-9851625D01*
X19610658Y-9851625D02*
X19629706Y-9861149D01*
X19629706Y-9861149D02*
X19639230Y-9870673D01*
X19639230Y-9870673D02*
X19648753Y-9889721D01*
X19648753Y-9889721D02*
X19648753Y-9946864D01*
X19648753Y-9946864D02*
X19639230Y-9965911D01*
X19639230Y-9965911D02*
X19629706Y-9975435D01*
X19629706Y-9975435D02*
X19610658Y-9984959D01*
X19610658Y-9984959D02*
X19582087Y-9984959D01*
X19763039Y-9984959D02*
X19743992Y-9975435D01*
X19743992Y-9975435D02*
X19734468Y-9956387D01*
X19734468Y-9956387D02*
X19734468Y-9784959D01*
X19915420Y-9975435D02*
X19896373Y-9984959D01*
X19896373Y-9984959D02*
X19858277Y-9984959D01*
X19858277Y-9984959D02*
X19839230Y-9975435D01*
X19839230Y-9975435D02*
X19829706Y-9956387D01*
X19829706Y-9956387D02*
X19829706Y-9880197D01*
X19829706Y-9880197D02*
X19839230Y-9861149D01*
X19839230Y-9861149D02*
X19858277Y-9851625D01*
X19858277Y-9851625D02*
X19896373Y-9851625D01*
X19896373Y-9851625D02*
X19915420Y-9861149D01*
X19915420Y-9861149D02*
X19924944Y-9880197D01*
X19924944Y-9880197D02*
X19924944Y-9899245D01*
X19924944Y-9899245D02*
X19829706Y-9918292D01*
X20001134Y-9975435D02*
X20020182Y-9984959D01*
X20020182Y-9984959D02*
X20058277Y-9984959D01*
X20058277Y-9984959D02*
X20077325Y-9975435D01*
X20077325Y-9975435D02*
X20086849Y-9956387D01*
X20086849Y-9956387D02*
X20086849Y-9946864D01*
X20086849Y-9946864D02*
X20077325Y-9927816D01*
X20077325Y-9927816D02*
X20058277Y-9918292D01*
X20058277Y-9918292D02*
X20029706Y-9918292D01*
X20029706Y-9918292D02*
X20010658Y-9908768D01*
X20010658Y-9908768D02*
X20001134Y-9889721D01*
X20001134Y-9889721D02*
X20001134Y-9880197D01*
X20001134Y-9880197D02*
X20010658Y-9861149D01*
X20010658Y-9861149D02*
X20029706Y-9851625D01*
X20029706Y-9851625D02*
X20058277Y-9851625D01*
X20058277Y-9851625D02*
X20077325Y-9861149D01*
X20153515Y-10061149D02*
X20163039Y-10051625D01*
X20163039Y-10051625D02*
X20182087Y-10023054D01*
X20182087Y-10023054D02*
X20191611Y-10004006D01*
X20191611Y-10004006D02*
X20201134Y-9975435D01*
X20201134Y-9975435D02*
X20210658Y-9927816D01*
X20210658Y-9927816D02*
X20210658Y-9889721D01*
X20210658Y-9889721D02*
X20201134Y-9842102D01*
X20201134Y-9842102D02*
X20191611Y-9813530D01*
X20191611Y-9813530D02*
X20182087Y-9794483D01*
X20182087Y-9794483D02*
X20163039Y-9765911D01*
X20163039Y-9765911D02*
X20153515Y-9756387D01*
X14997500Y-10157475D02*
G75*
G02*
X14797500Y-10157475I-100000J0D01*
G01*
X14797500Y-10157475D02*
G75*
G02*
X14997500Y-10157475I100000J0D01*
G01*
X15343991Y-10115625D02*
X15343991Y-10248959D01*
X15296372Y-10039435D02*
X15248753Y-10182292D01*
X15248753Y-10182292D02*
X15372562Y-10182292D01*
X15448753Y-10229911D02*
X15458277Y-10239435D01*
X15458277Y-10239435D02*
X15448753Y-10248959D01*
X15448753Y-10248959D02*
X15439229Y-10239435D01*
X15439229Y-10239435D02*
X15448753Y-10229911D01*
X15448753Y-10229911D02*
X15448753Y-10248959D01*
X15582086Y-10048959D02*
X15601134Y-10048959D01*
X15601134Y-10048959D02*
X15620182Y-10058483D01*
X15620182Y-10058483D02*
X15629705Y-10068006D01*
X15629705Y-10068006D02*
X15639229Y-10087054D01*
X15639229Y-10087054D02*
X15648753Y-10125149D01*
X15648753Y-10125149D02*
X15648753Y-10172768D01*
X15648753Y-10172768D02*
X15639229Y-10210864D01*
X15639229Y-10210864D02*
X15629705Y-10229911D01*
X15629705Y-10229911D02*
X15620182Y-10239435D01*
X15620182Y-10239435D02*
X15601134Y-10248959D01*
X15601134Y-10248959D02*
X15582086Y-10248959D01*
X15582086Y-10248959D02*
X15563039Y-10239435D01*
X15563039Y-10239435D02*
X15553515Y-10229911D01*
X15553515Y-10229911D02*
X15543991Y-10210864D01*
X15543991Y-10210864D02*
X15534467Y-10172768D01*
X15534467Y-10172768D02*
X15534467Y-10125149D01*
X15534467Y-10125149D02*
X15543991Y-10087054D01*
X15543991Y-10087054D02*
X15553515Y-10068006D01*
X15553515Y-10068006D02*
X15563039Y-10058483D01*
X15563039Y-10058483D02*
X15582086Y-10048959D01*
X15772562Y-10048959D02*
X15791610Y-10048959D01*
X15791610Y-10048959D02*
X15810658Y-10058483D01*
X15810658Y-10058483D02*
X15820182Y-10068006D01*
X15820182Y-10068006D02*
X15829705Y-10087054D01*
X15829705Y-10087054D02*
X15839229Y-10125149D01*
X15839229Y-10125149D02*
X15839229Y-10172768D01*
X15839229Y-10172768D02*
X15829705Y-10210864D01*
X15829705Y-10210864D02*
X15820182Y-10229911D01*
X15820182Y-10229911D02*
X15810658Y-10239435D01*
X15810658Y-10239435D02*
X15791610Y-10248959D01*
X15791610Y-10248959D02*
X15772562Y-10248959D01*
X15772562Y-10248959D02*
X15753515Y-10239435D01*
X15753515Y-10239435D02*
X15743991Y-10229911D01*
X15743991Y-10229911D02*
X15734467Y-10210864D01*
X15734467Y-10210864D02*
X15724943Y-10172768D01*
X15724943Y-10172768D02*
X15724943Y-10125149D01*
X15724943Y-10125149D02*
X15734467Y-10087054D01*
X15734467Y-10087054D02*
X15743991Y-10068006D01*
X15743991Y-10068006D02*
X15753515Y-10058483D01*
X15753515Y-10058483D02*
X15772562Y-10048959D01*
X15963039Y-10048959D02*
X15982086Y-10048959D01*
X15982086Y-10048959D02*
X16001134Y-10058483D01*
X16001134Y-10058483D02*
X16010658Y-10068006D01*
X16010658Y-10068006D02*
X16020182Y-10087054D01*
X16020182Y-10087054D02*
X16029705Y-10125149D01*
X16029705Y-10125149D02*
X16029705Y-10172768D01*
X16029705Y-10172768D02*
X16020182Y-10210864D01*
X16020182Y-10210864D02*
X16010658Y-10229911D01*
X16010658Y-10229911D02*
X16001134Y-10239435D01*
X16001134Y-10239435D02*
X15982086Y-10248959D01*
X15982086Y-10248959D02*
X15963039Y-10248959D01*
X15963039Y-10248959D02*
X15943991Y-10239435D01*
X15943991Y-10239435D02*
X15934467Y-10229911D01*
X15934467Y-10229911D02*
X15924943Y-10210864D01*
X15924943Y-10210864D02*
X15915420Y-10172768D01*
X15915420Y-10172768D02*
X15915420Y-10125149D01*
X15915420Y-10125149D02*
X15924943Y-10087054D01*
X15924943Y-10087054D02*
X15934467Y-10068006D01*
X15934467Y-10068006D02*
X15943991Y-10058483D01*
X15943991Y-10058483D02*
X15963039Y-10048959D01*
X16115420Y-10248959D02*
X16115420Y-10115625D01*
X16115420Y-10134673D02*
X16124943Y-10125149D01*
X16124943Y-10125149D02*
X16143991Y-10115625D01*
X16143991Y-10115625D02*
X16172563Y-10115625D01*
X16172563Y-10115625D02*
X16191610Y-10125149D01*
X16191610Y-10125149D02*
X16201134Y-10144197D01*
X16201134Y-10144197D02*
X16201134Y-10248959D01*
X16201134Y-10144197D02*
X16210658Y-10125149D01*
X16210658Y-10125149D02*
X16229705Y-10115625D01*
X16229705Y-10115625D02*
X16258277Y-10115625D01*
X16258277Y-10115625D02*
X16277324Y-10125149D01*
X16277324Y-10125149D02*
X16286848Y-10144197D01*
X16286848Y-10144197D02*
X16286848Y-10248959D01*
X16382086Y-10248959D02*
X16382086Y-10115625D01*
X16382086Y-10134673D02*
X16391610Y-10125149D01*
X16391610Y-10125149D02*
X16410658Y-10115625D01*
X16410658Y-10115625D02*
X16439229Y-10115625D01*
X16439229Y-10115625D02*
X16458277Y-10125149D01*
X16458277Y-10125149D02*
X16467801Y-10144197D01*
X16467801Y-10144197D02*
X16467801Y-10248959D01*
X16467801Y-10144197D02*
X16477324Y-10125149D01*
X16477324Y-10125149D02*
X16496372Y-10115625D01*
X16496372Y-10115625D02*
X16524943Y-10115625D01*
X16524943Y-10115625D02*
X16543991Y-10125149D01*
X16543991Y-10125149D02*
X16553515Y-10144197D01*
X16553515Y-10144197D02*
X16553515Y-10248959D01*
X16943991Y-10039435D02*
X16772563Y-10296578D01*
X17201134Y-10048959D02*
X17220182Y-10048959D01*
X17220182Y-10048959D02*
X17239229Y-10058483D01*
X17239229Y-10058483D02*
X17248753Y-10068006D01*
X17248753Y-10068006D02*
X17258277Y-10087054D01*
X17258277Y-10087054D02*
X17267801Y-10125149D01*
X17267801Y-10125149D02*
X17267801Y-10172768D01*
X17267801Y-10172768D02*
X17258277Y-10210864D01*
X17258277Y-10210864D02*
X17248753Y-10229911D01*
X17248753Y-10229911D02*
X17239229Y-10239435D01*
X17239229Y-10239435D02*
X17220182Y-10248959D01*
X17220182Y-10248959D02*
X17201134Y-10248959D01*
X17201134Y-10248959D02*
X17182087Y-10239435D01*
X17182087Y-10239435D02*
X17172563Y-10229911D01*
X17172563Y-10229911D02*
X17163039Y-10210864D01*
X17163039Y-10210864D02*
X17153515Y-10172768D01*
X17153515Y-10172768D02*
X17153515Y-10125149D01*
X17153515Y-10125149D02*
X17163039Y-10087054D01*
X17163039Y-10087054D02*
X17172563Y-10068006D01*
X17172563Y-10068006D02*
X17182087Y-10058483D01*
X17182087Y-10058483D02*
X17201134Y-10048959D01*
X17353515Y-10229911D02*
X17363039Y-10239435D01*
X17363039Y-10239435D02*
X17353515Y-10248959D01*
X17353515Y-10248959D02*
X17343991Y-10239435D01*
X17343991Y-10239435D02*
X17353515Y-10229911D01*
X17353515Y-10229911D02*
X17353515Y-10248959D01*
X17553515Y-10248959D02*
X17439229Y-10248959D01*
X17496372Y-10248959D02*
X17496372Y-10048959D01*
X17496372Y-10048959D02*
X17477325Y-10077530D01*
X17477325Y-10077530D02*
X17458277Y-10096578D01*
X17458277Y-10096578D02*
X17439229Y-10106102D01*
X17734468Y-10048959D02*
X17639229Y-10048959D01*
X17639229Y-10048959D02*
X17629706Y-10144197D01*
X17629706Y-10144197D02*
X17639229Y-10134673D01*
X17639229Y-10134673D02*
X17658277Y-10125149D01*
X17658277Y-10125149D02*
X17705896Y-10125149D01*
X17705896Y-10125149D02*
X17724944Y-10134673D01*
X17724944Y-10134673D02*
X17734468Y-10144197D01*
X17734468Y-10144197D02*
X17743991Y-10163245D01*
X17743991Y-10163245D02*
X17743991Y-10210864D01*
X17743991Y-10210864D02*
X17734468Y-10229911D01*
X17734468Y-10229911D02*
X17724944Y-10239435D01*
X17724944Y-10239435D02*
X17705896Y-10248959D01*
X17705896Y-10248959D02*
X17658277Y-10248959D01*
X17658277Y-10248959D02*
X17639229Y-10239435D01*
X17639229Y-10239435D02*
X17629706Y-10229911D01*
X17810658Y-10048959D02*
X17943991Y-10048959D01*
X17943991Y-10048959D02*
X17858277Y-10248959D01*
X18115420Y-10048959D02*
X18020182Y-10048959D01*
X18020182Y-10048959D02*
X18010658Y-10144197D01*
X18010658Y-10144197D02*
X18020182Y-10134673D01*
X18020182Y-10134673D02*
X18039229Y-10125149D01*
X18039229Y-10125149D02*
X18086849Y-10125149D01*
X18086849Y-10125149D02*
X18105896Y-10134673D01*
X18105896Y-10134673D02*
X18115420Y-10144197D01*
X18115420Y-10144197D02*
X18124944Y-10163245D01*
X18124944Y-10163245D02*
X18124944Y-10210864D01*
X18124944Y-10210864D02*
X18115420Y-10229911D01*
X18115420Y-10229911D02*
X18105896Y-10239435D01*
X18105896Y-10239435D02*
X18086849Y-10248959D01*
X18086849Y-10248959D02*
X18039229Y-10248959D01*
X18039229Y-10248959D02*
X18020182Y-10239435D01*
X18020182Y-10239435D02*
X18010658Y-10229911D01*
X18201134Y-10048959D02*
X18201134Y-10087054D01*
X18277325Y-10048959D02*
X18277325Y-10087054D01*
X18572563Y-10325149D02*
X18563039Y-10315625D01*
X18563039Y-10315625D02*
X18543991Y-10287054D01*
X18543991Y-10287054D02*
X18534468Y-10268006D01*
X18534468Y-10268006D02*
X18524944Y-10239435D01*
X18524944Y-10239435D02*
X18515420Y-10191816D01*
X18515420Y-10191816D02*
X18515420Y-10153721D01*
X18515420Y-10153721D02*
X18524944Y-10106102D01*
X18524944Y-10106102D02*
X18534468Y-10077530D01*
X18534468Y-10077530D02*
X18543991Y-10058483D01*
X18543991Y-10058483D02*
X18563039Y-10029911D01*
X18563039Y-10029911D02*
X18572563Y-10020387D01*
X18734468Y-10115625D02*
X18734468Y-10248959D01*
X18686849Y-10039435D02*
X18639230Y-10182292D01*
X18639230Y-10182292D02*
X18763039Y-10182292D01*
X18991611Y-10248959D02*
X18991611Y-10048959D01*
X19077325Y-10248959D02*
X19077325Y-10144197D01*
X19077325Y-10144197D02*
X19067801Y-10125149D01*
X19067801Y-10125149D02*
X19048753Y-10115625D01*
X19048753Y-10115625D02*
X19020182Y-10115625D01*
X19020182Y-10115625D02*
X19001134Y-10125149D01*
X19001134Y-10125149D02*
X18991611Y-10134673D01*
X19201134Y-10248959D02*
X19182087Y-10239435D01*
X19182087Y-10239435D02*
X19172563Y-10229911D01*
X19172563Y-10229911D02*
X19163039Y-10210864D01*
X19163039Y-10210864D02*
X19163039Y-10153721D01*
X19163039Y-10153721D02*
X19172563Y-10134673D01*
X19172563Y-10134673D02*
X19182087Y-10125149D01*
X19182087Y-10125149D02*
X19201134Y-10115625D01*
X19201134Y-10115625D02*
X19229706Y-10115625D01*
X19229706Y-10115625D02*
X19248753Y-10125149D01*
X19248753Y-10125149D02*
X19258277Y-10134673D01*
X19258277Y-10134673D02*
X19267801Y-10153721D01*
X19267801Y-10153721D02*
X19267801Y-10210864D01*
X19267801Y-10210864D02*
X19258277Y-10229911D01*
X19258277Y-10229911D02*
X19248753Y-10239435D01*
X19248753Y-10239435D02*
X19229706Y-10248959D01*
X19229706Y-10248959D02*
X19201134Y-10248959D01*
X19382087Y-10248959D02*
X19363039Y-10239435D01*
X19363039Y-10239435D02*
X19353515Y-10220387D01*
X19353515Y-10220387D02*
X19353515Y-10048959D01*
X19534468Y-10239435D02*
X19515420Y-10248959D01*
X19515420Y-10248959D02*
X19477325Y-10248959D01*
X19477325Y-10248959D02*
X19458277Y-10239435D01*
X19458277Y-10239435D02*
X19448753Y-10220387D01*
X19448753Y-10220387D02*
X19448753Y-10144197D01*
X19448753Y-10144197D02*
X19458277Y-10125149D01*
X19458277Y-10125149D02*
X19477325Y-10115625D01*
X19477325Y-10115625D02*
X19515420Y-10115625D01*
X19515420Y-10115625D02*
X19534468Y-10125149D01*
X19534468Y-10125149D02*
X19543992Y-10144197D01*
X19543992Y-10144197D02*
X19543992Y-10163245D01*
X19543992Y-10163245D02*
X19448753Y-10182292D01*
X19620182Y-10239435D02*
X19639230Y-10248959D01*
X19639230Y-10248959D02*
X19677325Y-10248959D01*
X19677325Y-10248959D02*
X19696373Y-10239435D01*
X19696373Y-10239435D02*
X19705896Y-10220387D01*
X19705896Y-10220387D02*
X19705896Y-10210864D01*
X19705896Y-10210864D02*
X19696373Y-10191816D01*
X19696373Y-10191816D02*
X19677325Y-10182292D01*
X19677325Y-10182292D02*
X19648753Y-10182292D01*
X19648753Y-10182292D02*
X19629706Y-10172768D01*
X19629706Y-10172768D02*
X19620182Y-10153721D01*
X19620182Y-10153721D02*
X19620182Y-10144197D01*
X19620182Y-10144197D02*
X19629706Y-10125149D01*
X19629706Y-10125149D02*
X19648753Y-10115625D01*
X19648753Y-10115625D02*
X19677325Y-10115625D01*
X19677325Y-10115625D02*
X19696373Y-10125149D01*
X19772563Y-10325149D02*
X19782087Y-10315625D01*
X19782087Y-10315625D02*
X19801134Y-10287054D01*
X19801134Y-10287054D02*
X19810658Y-10268006D01*
X19810658Y-10268006D02*
X19820182Y-10239435D01*
X19820182Y-10239435D02*
X19829706Y-10191816D01*
X19829706Y-10191816D02*
X19829706Y-10153721D01*
X19829706Y-10153721D02*
X19820182Y-10106102D01*
X19820182Y-10106102D02*
X19810658Y-10077530D01*
X19810658Y-10077530D02*
X19801134Y-10058483D01*
X19801134Y-10058483D02*
X19782087Y-10029911D01*
X19782087Y-10029911D02*
X19772563Y-10020387D01*
M02*
