%TF.GenerationSoftware,KiCad,Pcbnew,10.0.1*%
%TF.CreationDate,2026-06-02T02:53:44+05:30*%
%TF.ProjectId,VENDETTAESC,56454e44-4554-4544-9145-53432e6b6963,rev?*%
%TF.SameCoordinates,Original*%
%TF.FileFunction,Drillmap*%
%TF.FilePolarity,Positive*%
%FSLAX45Y45*%
G04 Gerber Fmt 4.5, Leading zero omitted, Abs format (unit mm)*
G04 Created by KiCad (PCBNEW 10.0.1) date 2026-06-02 02:53:44*
%MOMM*%
%LPD*%
G01*
G04 APERTURE LIST*
%ADD10C,0.050000*%
%ADD11C,0.200000*%
%ADD12C,0.100000*%
%ADD13C,0.400000*%
%ADD14C,0.410000*%
G04 APERTURE END LIST*
D10*
X17950000Y-8500000D02*
X17950000Y-8860000D01*
X17950000Y-9140000D02*
X17950000Y-9260000D01*
X17950000Y-9540000D02*
X17950000Y-9660000D01*
X17950000Y-9940000D02*
X17950000Y-10060000D01*
X17950000Y-10340000D02*
X17950000Y-10460000D01*
X17950000Y-10740000D02*
X17950000Y-10860000D01*
X17950000Y-11140000D02*
X17950000Y-11550000D01*
X18450000Y-8000000D02*
X18950000Y-8000000D01*
X18950000Y-8000000D02*
X18950000Y-8050000D01*
X18950000Y-12050000D02*
X18450000Y-12050000D01*
X19200000Y-8300000D02*
X20750000Y-8300000D01*
X19380000Y-12300000D02*
X19200000Y-12300000D01*
X19680000Y-12300000D02*
X19875000Y-12300000D01*
X19875000Y-12300000D02*
X19875000Y-12141000D01*
X20075000Y-12300000D02*
X20075000Y-12141000D01*
X20260000Y-12300000D02*
X20075000Y-12300000D01*
X20560000Y-12300000D02*
X20750000Y-12300000D01*
X21000000Y-8000000D02*
X21500000Y-8000000D01*
X21000000Y-8050000D02*
X21000000Y-8000000D01*
X21000000Y-12050000D02*
X21500000Y-12050000D01*
X21999667Y-9150333D02*
X21999667Y-9249667D01*
X21999667Y-9550333D02*
X21999667Y-9649667D01*
X21999667Y-9950333D02*
X21999667Y-10049667D01*
X21999667Y-10350333D02*
X21999667Y-10449667D01*
X21999667Y-10750333D02*
X21999667Y-10849667D01*
X21999667Y-11150333D02*
X21999667Y-11550000D01*
X22000000Y-8500000D02*
X22000000Y-8849667D01*
X17950000Y-8500000D02*
G75*
G02*
X18450000Y-8000000I500000J0D01*
G01*
X17950000Y-8860000D02*
G75*
G02*
X17950000Y-9140000I-140000J-140000D01*
G01*
X17950000Y-9260000D02*
G75*
G02*
X17950000Y-9540000I-140000J-140000D01*
G01*
X17950000Y-9660000D02*
G75*
G02*
X17950000Y-9940000I-140000J-140000D01*
G01*
X17950000Y-10060000D02*
G75*
G02*
X17950000Y-10340000I-140000J-140000D01*
G01*
X17950000Y-10460000D02*
G75*
G02*
X17950000Y-10740000I-140000J-140000D01*
G01*
X17950000Y-10860000D02*
G75*
G02*
X17950000Y-11140000I-140000J-140000D01*
G01*
X18450000Y-12050000D02*
G75*
G02*
X17950000Y-11550000I0J500000D01*
G01*
X18950000Y-12050000D02*
G75*
G02*
X19200000Y-12300000I0J-250000D01*
G01*
X19200000Y-8300000D02*
G75*
G02*
X18950000Y-8050000I0J250000D01*
G01*
X19380000Y-12300000D02*
G75*
G02*
X19680000Y-12300000I150000J0D01*
G01*
X19875000Y-12141000D02*
G75*
G02*
X20075000Y-12141000I100000J0D01*
G01*
X20260000Y-12300000D02*
G75*
G02*
X20560000Y-12300000I150000J0D01*
G01*
X20750000Y-12300000D02*
G75*
G02*
X21000000Y-12050000I250000J0D01*
G01*
X21000000Y-8050000D02*
G75*
G02*
X20750000Y-8300000I-250000J0D01*
G01*
X21500000Y-8000000D02*
G75*
G02*
X22000000Y-8500000I0J-500000D01*
G01*
X21999667Y-9150333D02*
G75*
G02*
X21999667Y-8849667I150333J150333D01*
G01*
X21999667Y-9550333D02*
G75*
G02*
X21999667Y-9249667I150333J150333D01*
G01*
X21999667Y-9950333D02*
G75*
G02*
X21999667Y-9649667I150333J150333D01*
G01*
X21999667Y-10350333D02*
G75*
G02*
X21999667Y-10049667I150333J150333D01*
G01*
X21999667Y-10750333D02*
G75*
G02*
X21999667Y-10449667I150333J150333D01*
G01*
X21999667Y-11150333D02*
G75*
G02*
X21999667Y-10849667I150333J150333D01*
G01*
X22000000Y-11550000D02*
G75*
G02*
X21500000Y-12050000I-500000J0D01*
G01*
D11*
D12*
X18065000Y-8565000D02*
X18095000Y-8595000D01*
X18095000Y-8565000D02*
X18065000Y-8595000D01*
X18085000Y-11505500D02*
X18115000Y-11535500D01*
X18115000Y-11505500D02*
X18085000Y-11535500D01*
X18095000Y-8405000D02*
X18125000Y-8435000D01*
X18125000Y-8405000D02*
X18095000Y-8435000D01*
X18095000Y-11425000D02*
X18125000Y-11455000D01*
X18125000Y-11425000D02*
X18095000Y-11455000D01*
X18095000Y-11605000D02*
X18125000Y-11635000D01*
X18125000Y-11605000D02*
X18095000Y-11635000D01*
X18102000Y-9564000D02*
X18132000Y-9594000D01*
X18132000Y-9564000D02*
X18102000Y-9594000D01*
X18126000Y-11707000D02*
X18156000Y-11737000D01*
X18156000Y-11707000D02*
X18126000Y-11737000D01*
X18133500Y-9606500D02*
X18163500Y-9636500D01*
X18163500Y-9606500D02*
X18133500Y-9636500D01*
X18155000Y-8255000D02*
X18185000Y-8285000D01*
X18185000Y-8255000D02*
X18155000Y-8285000D01*
X18158000Y-9558000D02*
X18188000Y-9588000D01*
X18188000Y-9558000D02*
X18158000Y-9588000D01*
X18163500Y-10787500D02*
X18193500Y-10817500D01*
X18193500Y-10787500D02*
X18163500Y-10817500D01*
X18167000Y-9980000D02*
X18197000Y-10010000D01*
X18197000Y-9980000D02*
X18167000Y-10010000D01*
X18175500Y-10381500D02*
X18205500Y-10411500D01*
X18205500Y-10381500D02*
X18175500Y-10411500D01*
X18188000Y-9601000D02*
X18218000Y-9631000D01*
X18218000Y-9601000D02*
X18188000Y-9631000D01*
X18195000Y-11795000D02*
X18225000Y-11825000D01*
X18225000Y-11795000D02*
X18195000Y-11825000D01*
X18209000Y-9187000D02*
X18239000Y-9217000D01*
X18239000Y-9187000D02*
X18209000Y-9217000D01*
X18210000Y-9548000D02*
X18240000Y-9578000D01*
X18240000Y-9548000D02*
X18210000Y-9578000D01*
X18212500Y-10761000D02*
X18242500Y-10791000D01*
X18242500Y-10761000D02*
X18212500Y-10791000D01*
X18213000Y-9951000D02*
X18243000Y-9981000D01*
X18243000Y-9951000D02*
X18213000Y-9981000D01*
X18214500Y-10812000D02*
X18244500Y-10842000D01*
X18244500Y-10812000D02*
X18214500Y-10842000D01*
X18215000Y-9130500D02*
X18245000Y-9160500D01*
X18245000Y-9130500D02*
X18215000Y-9160500D01*
X18216000Y-9997000D02*
X18246000Y-10027000D01*
X18246000Y-9997000D02*
X18216000Y-10027000D01*
X18225000Y-10492500D02*
X18255000Y-10522500D01*
X18255000Y-10492500D02*
X18225000Y-10522500D01*
X18226000Y-10375000D02*
X18256000Y-10405000D01*
X18256000Y-10375000D02*
X18226000Y-10405000D01*
X18230000Y-9277500D02*
X18260000Y-9307500D01*
X18260000Y-9277500D02*
X18230000Y-9307500D01*
X18237500Y-9680000D02*
X18267500Y-9710000D01*
X18267500Y-9680000D02*
X18237500Y-9710000D01*
X18243500Y-8193500D02*
X18273500Y-8223500D01*
X18273500Y-8193500D02*
X18243500Y-8223500D01*
X18252500Y-10090000D02*
X18282500Y-10120000D01*
X18282500Y-10090000D02*
X18252500Y-10120000D01*
X18252500Y-10980000D02*
X18282500Y-11010000D01*
X18282500Y-10980000D02*
X18252500Y-11010000D01*
X18255000Y-11247500D02*
X18285000Y-11277500D01*
X18285000Y-11247500D02*
X18255000Y-11277500D01*
X18262000Y-9185000D02*
X18292000Y-9215000D01*
X18292000Y-9185000D02*
X18262000Y-9215000D01*
X18262000Y-10757000D02*
X18292000Y-10787000D01*
X18292000Y-10757000D02*
X18262000Y-10787000D01*
X18264000Y-9133500D02*
X18294000Y-9163500D01*
X18294000Y-9133500D02*
X18264000Y-9163500D01*
X18266000Y-9944000D02*
X18296000Y-9974000D01*
X18296000Y-9944000D02*
X18266000Y-9974000D01*
X18266000Y-9995000D02*
X18296000Y-10025000D01*
X18296000Y-9995000D02*
X18266000Y-10025000D01*
X18267500Y-8852500D02*
X18297500Y-8882500D01*
X18297500Y-8852500D02*
X18267500Y-8882500D01*
X18268000Y-10404000D02*
X18298000Y-10434000D01*
X18298000Y-10404000D02*
X18268000Y-10434000D01*
X18269500Y-10812500D02*
X18299500Y-10842500D01*
X18299500Y-10812500D02*
X18269500Y-10842500D01*
X18270000Y-10354000D02*
X18300000Y-10384000D01*
X18300000Y-10354000D02*
X18270000Y-10384000D01*
X18270000Y-10492500D02*
X18300000Y-10522500D01*
X18300000Y-10492500D02*
X18270000Y-10522500D01*
X18282500Y-9277500D02*
X18312500Y-9307500D01*
X18312500Y-9277500D02*
X18282500Y-9307500D01*
X18291000Y-9678500D02*
X18321000Y-9708500D01*
X18321000Y-9678500D02*
X18291000Y-9708500D01*
X18292500Y-11869000D02*
X18322500Y-11899000D01*
X18322500Y-11869000D02*
X18292500Y-11899000D01*
X18302500Y-10090000D02*
X18332500Y-10120000D01*
X18332500Y-10090000D02*
X18302500Y-10120000D01*
X18302500Y-10980000D02*
X18332500Y-11010000D01*
X18332500Y-10980000D02*
X18302500Y-11010000D01*
X18305000Y-11247500D02*
X18335000Y-11277500D01*
X18335000Y-11247500D02*
X18305000Y-11277500D01*
X18307000Y-10716000D02*
X18337000Y-10746000D01*
X18337000Y-10716000D02*
X18307000Y-10746000D01*
X18309000Y-9113000D02*
X18339000Y-9143000D01*
X18339000Y-9113000D02*
X18309000Y-9143000D01*
X18310000Y-9167000D02*
X18340000Y-9197000D01*
X18340000Y-9167000D02*
X18310000Y-9197000D01*
X18314000Y-10024000D02*
X18344000Y-10054000D01*
X18344000Y-10024000D02*
X18314000Y-10054000D01*
X18317000Y-9598000D02*
X18347000Y-9628000D01*
X18347000Y-9598000D02*
X18317000Y-9628000D01*
X18317500Y-8852500D02*
X18347500Y-8882500D01*
X18347500Y-8852500D02*
X18317500Y-8882500D01*
X18320000Y-9486500D02*
X18350000Y-9516500D01*
X18350000Y-9486500D02*
X18320000Y-9516500D01*
X18320000Y-10400000D02*
X18350000Y-10430000D01*
X18350000Y-10400000D02*
X18320000Y-10430000D01*
X18321000Y-10352000D02*
X18351000Y-10382000D01*
X18351000Y-10352000D02*
X18321000Y-10382000D01*
X18355000Y-8155000D02*
X18385000Y-8185000D01*
X18385000Y-8155000D02*
X18355000Y-8185000D01*
X18364000Y-11275000D02*
X18394000Y-11305000D01*
X18394000Y-11275000D02*
X18364000Y-11305000D01*
X18381000Y-11102000D02*
X18411000Y-11132000D01*
X18411000Y-11102000D02*
X18381000Y-11132000D01*
X18405000Y-11905000D02*
X18435000Y-11935000D01*
X18435000Y-11905000D02*
X18405000Y-11935000D01*
X18408000Y-9113000D02*
X18438000Y-9143000D01*
X18438000Y-9113000D02*
X18408000Y-9143000D01*
X18408000Y-9165500D02*
X18438000Y-9195500D01*
X18438000Y-9165500D02*
X18408000Y-9195500D01*
X18419000Y-11209000D02*
X18449000Y-11239000D01*
X18449000Y-11209000D02*
X18419000Y-11239000D01*
X18420500Y-9985000D02*
X18450500Y-10015000D01*
X18450500Y-9985000D02*
X18420500Y-10015000D01*
X18438000Y-10714000D02*
X18468000Y-10744000D01*
X18468000Y-10714000D02*
X18438000Y-10744000D01*
X18438500Y-11154500D02*
X18468500Y-11184500D01*
X18468500Y-11154500D02*
X18438500Y-11184500D01*
X18440500Y-9934000D02*
X18470500Y-9964000D01*
X18470500Y-9934000D02*
X18440500Y-9964000D01*
X18444500Y-10764500D02*
X18474500Y-10794500D01*
X18474500Y-10764500D02*
X18444500Y-10794500D01*
X18447000Y-10916000D02*
X18477000Y-10946000D01*
X18477000Y-10916000D02*
X18447000Y-10946000D01*
X18456000Y-11265000D02*
X18486000Y-11295000D01*
X18486000Y-11265000D02*
X18456000Y-11295000D01*
X18458000Y-10403000D02*
X18488000Y-10433000D01*
X18488000Y-10403000D02*
X18458000Y-10433000D01*
X18459000Y-10300000D02*
X18489000Y-10330000D01*
X18489000Y-10300000D02*
X18459000Y-10330000D01*
X18459000Y-10352500D02*
X18489000Y-10382500D01*
X18489000Y-10352500D02*
X18459000Y-10382500D01*
X18466000Y-10814000D02*
X18496000Y-10844000D01*
X18496000Y-10814000D02*
X18466000Y-10844000D01*
X18469500Y-9984000D02*
X18499500Y-10014000D01*
X18499500Y-9984000D02*
X18469500Y-10014000D01*
X18475500Y-9050000D02*
X18505500Y-9080000D01*
X18505500Y-9050000D02*
X18475500Y-9080000D01*
X18475500Y-11207000D02*
X18505500Y-11237000D01*
X18505500Y-11207000D02*
X18475500Y-11237000D01*
X18476500Y-9586500D02*
X18506500Y-9616500D01*
X18506500Y-9586500D02*
X18476500Y-9616500D01*
X18493500Y-9934000D02*
X18523500Y-9964000D01*
X18523500Y-9934000D02*
X18493500Y-9964000D01*
X18493500Y-11154500D02*
X18523500Y-11184500D01*
X18523500Y-11154500D02*
X18493500Y-11184500D01*
X18496500Y-9157500D02*
X18526500Y-9187500D01*
X18526500Y-9157500D02*
X18496500Y-9187500D01*
X18499000Y-8149500D02*
X18529000Y-8179500D01*
X18529000Y-8149500D02*
X18499000Y-8179500D01*
X18521500Y-9984000D02*
X18551500Y-10014000D01*
X18551500Y-9984000D02*
X18521500Y-10014000D01*
X18529500Y-11209500D02*
X18559500Y-11239500D01*
X18559500Y-11209500D02*
X18529500Y-11239500D01*
X18536000Y-11917000D02*
X18566000Y-11947000D01*
X18566000Y-11917000D02*
X18536000Y-11947000D01*
X18538000Y-11284000D02*
X18568000Y-11314000D01*
X18568000Y-11284000D02*
X18538000Y-11314000D01*
X18540000Y-9586000D02*
X18570000Y-9616000D01*
X18570000Y-9586000D02*
X18540000Y-9616000D01*
X18542000Y-10285500D02*
X18572000Y-10315500D01*
X18572000Y-10285500D02*
X18542000Y-10315500D01*
X18548500Y-11156500D02*
X18578500Y-11186500D01*
X18578500Y-11156500D02*
X18548500Y-11186500D01*
X18549500Y-9933000D02*
X18579500Y-9963000D01*
X18579500Y-9933000D02*
X18549500Y-9963000D01*
X18559000Y-10398000D02*
X18589000Y-10428000D01*
X18589000Y-10398000D02*
X18559000Y-10428000D01*
X18560000Y-10353000D02*
X18590000Y-10383000D01*
X18590000Y-10353000D02*
X18560000Y-10383000D01*
X18564000Y-9475500D02*
X18594000Y-9505500D01*
X18594000Y-9475500D02*
X18564000Y-9505500D01*
X18567000Y-9522000D02*
X18597000Y-9552000D01*
X18597000Y-9522000D02*
X18567000Y-9552000D01*
X18572500Y-9985000D02*
X18602500Y-10015000D01*
X18602500Y-9985000D02*
X18572500Y-10015000D01*
X18583000Y-11208500D02*
X18613000Y-11238500D01*
X18613000Y-11208500D02*
X18583000Y-11238500D01*
X18583500Y-9565500D02*
X18613500Y-9595500D01*
X18613500Y-9565500D02*
X18583500Y-9595500D01*
X18584000Y-9138500D02*
X18614000Y-9168500D01*
X18614000Y-9138500D02*
X18584000Y-9168500D01*
X18605500Y-9454500D02*
X18635500Y-9484500D01*
X18635500Y-9454500D02*
X18605500Y-9484500D01*
X18607000Y-10693000D02*
X18637000Y-10723000D01*
X18637000Y-10693000D02*
X18607000Y-10723000D01*
X18625000Y-8155000D02*
X18655000Y-8185000D01*
X18655000Y-8155000D02*
X18625000Y-8185000D01*
X18640500Y-9963500D02*
X18670500Y-9993500D01*
X18670500Y-9963500D02*
X18640500Y-9993500D01*
X18655000Y-11895000D02*
X18685000Y-11925000D01*
X18685000Y-11895000D02*
X18655000Y-11925000D01*
X18674000Y-9456500D02*
X18704000Y-9486500D01*
X18704000Y-9456500D02*
X18674000Y-9486500D01*
X18676000Y-9221000D02*
X18706000Y-9251000D01*
X18706000Y-9221000D02*
X18676000Y-9251000D01*
X18677500Y-11728000D02*
X18707500Y-11758000D01*
X18707500Y-11728000D02*
X18677500Y-11758000D01*
X18680000Y-9869000D02*
X18710000Y-9899000D01*
X18710000Y-9869000D02*
X18680000Y-9899000D01*
X18696000Y-11177000D02*
X18726000Y-11207000D01*
X18726000Y-11177000D02*
X18696000Y-11207000D01*
X18696500Y-10723000D02*
X18726500Y-10753000D01*
X18726500Y-10723000D02*
X18696500Y-10753000D01*
X18697000Y-11120000D02*
X18727000Y-11150000D01*
X18727000Y-11120000D02*
X18697000Y-11150000D01*
X18699500Y-10670500D02*
X18729500Y-10700500D01*
X18729500Y-10670500D02*
X18699500Y-10700500D01*
X18705500Y-11774000D02*
X18735500Y-11804000D01*
X18735500Y-11774000D02*
X18705500Y-11804000D01*
X18707000Y-11680000D02*
X18737000Y-11710000D01*
X18737000Y-11680000D02*
X18707000Y-11710000D01*
X18709000Y-9492000D02*
X18739000Y-9522000D01*
X18739000Y-9492000D02*
X18709000Y-9522000D01*
X18710000Y-10453000D02*
X18740000Y-10483000D01*
X18740000Y-10453000D02*
X18710000Y-10483000D01*
X18716000Y-9995000D02*
X18746000Y-10025000D01*
X18746000Y-9995000D02*
X18716000Y-10025000D01*
X18718000Y-9439500D02*
X18748000Y-9469500D01*
X18748000Y-9439500D02*
X18718000Y-9469500D01*
X18723000Y-9834000D02*
X18753000Y-9864000D01*
X18753000Y-9834000D02*
X18723000Y-9864000D01*
X18726500Y-11729000D02*
X18756500Y-11759000D01*
X18756500Y-11729000D02*
X18726500Y-11759000D01*
X18728000Y-11632500D02*
X18758000Y-11662500D01*
X18758000Y-11632500D02*
X18728000Y-11662500D01*
X18731000Y-9885000D02*
X18761000Y-9915000D01*
X18761000Y-9885000D02*
X18731000Y-9915000D01*
X18741000Y-11207000D02*
X18771000Y-11237000D01*
X18771000Y-11207000D02*
X18741000Y-11237000D01*
X18742000Y-11158000D02*
X18772000Y-11188000D01*
X18772000Y-11158000D02*
X18742000Y-11188000D01*
X18746500Y-10669500D02*
X18776500Y-10699500D01*
X18776500Y-10669500D02*
X18746500Y-10699500D01*
X18748000Y-10720500D02*
X18778000Y-10750500D01*
X18778000Y-10720500D02*
X18748000Y-10750500D01*
X18755500Y-11776000D02*
X18785500Y-11806000D01*
X18785500Y-11776000D02*
X18755500Y-11806000D01*
X18757000Y-11678000D02*
X18787000Y-11708000D01*
X18787000Y-11678000D02*
X18757000Y-11708000D01*
X18757500Y-9487000D02*
X18787500Y-9517000D01*
X18787500Y-9487000D02*
X18757500Y-9517000D01*
X18757500Y-11587500D02*
X18787500Y-11617500D01*
X18787500Y-11587500D02*
X18757500Y-11617500D01*
X18776500Y-11728000D02*
X18806500Y-11758000D01*
X18806500Y-11728000D02*
X18776500Y-11758000D01*
X18777000Y-11057000D02*
X18807000Y-11087000D01*
X18807000Y-11057000D02*
X18777000Y-11087000D01*
X18786000Y-11631500D02*
X18816000Y-11661500D01*
X18816000Y-11631500D02*
X18786000Y-11661500D01*
X18790000Y-9844000D02*
X18820000Y-9874000D01*
X18820000Y-9844000D02*
X18790000Y-9874000D01*
X18801000Y-11524500D02*
X18831000Y-11554500D01*
X18831000Y-11524500D02*
X18801000Y-11554500D01*
X18802000Y-10720000D02*
X18832000Y-10750000D01*
X18832000Y-10720000D02*
X18802000Y-10750000D01*
X18804000Y-9933000D02*
X18834000Y-9963000D01*
X18834000Y-9933000D02*
X18804000Y-9963000D01*
X18806500Y-11774000D02*
X18836500Y-11804000D01*
X18836500Y-11774000D02*
X18806500Y-11804000D01*
X18808000Y-11679000D02*
X18838000Y-11709000D01*
X18838000Y-11679000D02*
X18808000Y-11709000D01*
X18812500Y-11291000D02*
X18842500Y-11321000D01*
X18842500Y-11291000D02*
X18812500Y-11321000D01*
X18815000Y-8676000D02*
X18845000Y-8706000D01*
X18845000Y-8676000D02*
X18815000Y-8706000D01*
X18826500Y-11726000D02*
X18856500Y-11756000D01*
X18856500Y-11726000D02*
X18826500Y-11756000D01*
X18838500Y-11563500D02*
X18868500Y-11593500D01*
X18868500Y-11563500D02*
X18838500Y-11593500D01*
X18843000Y-11337000D02*
X18873000Y-11367000D01*
X18873000Y-11337000D02*
X18843000Y-11367000D01*
X18844000Y-10197000D02*
X18874000Y-10227000D01*
X18874000Y-10197000D02*
X18844000Y-10227000D01*
X18854500Y-10376000D02*
X18884500Y-10406000D01*
X18884500Y-10376000D02*
X18854500Y-10406000D01*
X18855000Y-10719500D02*
X18885000Y-10749500D01*
X18885000Y-10719500D02*
X18855000Y-10749500D01*
X18870000Y-9077000D02*
X18900000Y-9107000D01*
X18900000Y-9077000D02*
X18870000Y-9107000D01*
X18870000Y-11289500D02*
X18900000Y-11319500D01*
X18900000Y-11289500D02*
X18870000Y-11319500D01*
X18875000Y-9590000D02*
X18905000Y-9620000D01*
X18905000Y-9590000D02*
X18875000Y-9620000D01*
X18886000Y-8576000D02*
X18916000Y-8606000D01*
X18916000Y-8576000D02*
X18886000Y-8606000D01*
X18889000Y-9184000D02*
X18919000Y-9214000D01*
X18919000Y-9184000D02*
X18889000Y-9214000D01*
X18898000Y-11335000D02*
X18928000Y-11365000D01*
X18928000Y-11335000D02*
X18898000Y-11365000D01*
X18900000Y-9964000D02*
X18930000Y-9994000D01*
X18930000Y-9964000D02*
X18900000Y-9994000D01*
X18906000Y-10349500D02*
X18936000Y-10379500D01*
X18936000Y-10349500D02*
X18906000Y-10379500D01*
X18908000Y-10834500D02*
X18938000Y-10864500D01*
X18938000Y-10834500D02*
X18908000Y-10864500D01*
X18908000Y-10900500D02*
X18938000Y-10930500D01*
X18938000Y-10900500D02*
X18908000Y-10930500D01*
X18908000Y-10963500D02*
X18938000Y-10993500D01*
X18938000Y-10963500D02*
X18908000Y-10993500D01*
X18911000Y-10479000D02*
X18941000Y-10509000D01*
X18941000Y-10479000D02*
X18911000Y-10509000D01*
X18915000Y-11884500D02*
X18945000Y-11914500D01*
X18945000Y-11884500D02*
X18915000Y-11914500D01*
X18916000Y-11829000D02*
X18946000Y-11859000D01*
X18946000Y-11829000D02*
X18916000Y-11859000D01*
X18918000Y-11765000D02*
X18948000Y-11795000D01*
X18948000Y-11765000D02*
X18918000Y-11795000D01*
X18919000Y-11650500D02*
X18949000Y-11680500D01*
X18949000Y-11650500D02*
X18919000Y-11680500D01*
X18919000Y-11709500D02*
X18949000Y-11739500D01*
X18949000Y-11709500D02*
X18919000Y-11739500D01*
X18942000Y-9923000D02*
X18972000Y-9953000D01*
X18972000Y-9923000D02*
X18942000Y-9953000D01*
X18948000Y-9590000D02*
X18978000Y-9620000D01*
X18978000Y-9590000D02*
X18948000Y-9620000D01*
X18969500Y-11653000D02*
X18999500Y-11683000D01*
X18999500Y-11653000D02*
X18969500Y-11683000D01*
X18971500Y-11830500D02*
X19001500Y-11860500D01*
X19001500Y-11830500D02*
X18971500Y-11860500D01*
X18972500Y-11886000D02*
X19002500Y-11916000D01*
X19002500Y-11886000D02*
X18972500Y-11916000D01*
X18973500Y-11709000D02*
X19003500Y-11739000D01*
X19003500Y-11709000D02*
X18973500Y-11739000D01*
X18973500Y-11764500D02*
X19003500Y-11794500D01*
X19003500Y-11764500D02*
X18973500Y-11794500D01*
X18976000Y-8576000D02*
X19006000Y-8606000D01*
X19006000Y-8576000D02*
X18976000Y-8606000D01*
X18999000Y-9588000D02*
X19029000Y-9618000D01*
X19029000Y-9588000D02*
X18999000Y-9618000D01*
X19017000Y-11143000D02*
X19047000Y-11173000D01*
X19047000Y-11143000D02*
X19017000Y-11173000D01*
X19033500Y-11768500D02*
X19063500Y-11798500D01*
X19063500Y-11768500D02*
X19033500Y-11798500D01*
X19035500Y-11646000D02*
X19065500Y-11676000D01*
X19065500Y-11646000D02*
X19035500Y-11676000D01*
X19095000Y-8580000D02*
X19125000Y-8610000D01*
X19125000Y-8580000D02*
X19095000Y-8610000D01*
X19106000Y-11761000D02*
X19136000Y-11791000D01*
X19136000Y-11761000D02*
X19106000Y-11791000D01*
X19115000Y-11609000D02*
X19145000Y-11639000D01*
X19145000Y-11609000D02*
X19115000Y-11639000D01*
X19116000Y-11657000D02*
X19146000Y-11687000D01*
X19146000Y-11657000D02*
X19116000Y-11687000D01*
X19118000Y-11706000D02*
X19148000Y-11736000D01*
X19148000Y-11706000D02*
X19118000Y-11736000D01*
X19162500Y-11387500D02*
X19192500Y-11417500D01*
X19192500Y-11387500D02*
X19162500Y-11417500D01*
X19173000Y-11805000D02*
X19203000Y-11835000D01*
X19203000Y-11805000D02*
X19173000Y-11835000D01*
X19175000Y-11749000D02*
X19205000Y-11779000D01*
X19205000Y-11749000D02*
X19175000Y-11779000D01*
X19201000Y-9244000D02*
X19231000Y-9274000D01*
X19231000Y-9244000D02*
X19201000Y-9274000D01*
X19207000Y-11597000D02*
X19237000Y-11627000D01*
X19237000Y-11597000D02*
X19207000Y-11627000D01*
X19209000Y-11673000D02*
X19239000Y-11703000D01*
X19239000Y-11673000D02*
X19209000Y-11703000D01*
X19210000Y-9686000D02*
X19240000Y-9716000D01*
X19240000Y-9686000D02*
X19210000Y-9716000D01*
X19211000Y-9639000D02*
X19241000Y-9669000D01*
X19241000Y-9639000D02*
X19211000Y-9669000D01*
X19213000Y-9588000D02*
X19243000Y-9618000D01*
X19243000Y-9588000D02*
X19213000Y-9618000D01*
X19219000Y-12082500D02*
X19249000Y-12112500D01*
X19249000Y-12082500D02*
X19219000Y-12112500D01*
X19222000Y-12185000D02*
X19252000Y-12215000D01*
X19252000Y-12185000D02*
X19222000Y-12215000D01*
X19224000Y-10152000D02*
X19254000Y-10182000D01*
X19254000Y-10152000D02*
X19224000Y-10182000D01*
X19233000Y-10089000D02*
X19263000Y-10119000D01*
X19263000Y-10089000D02*
X19233000Y-10119000D01*
X19235000Y-11802000D02*
X19265000Y-11832000D01*
X19265000Y-11802000D02*
X19235000Y-11832000D01*
X19238000Y-11749000D02*
X19268000Y-11779000D01*
X19268000Y-11749000D02*
X19238000Y-11779000D01*
X19255000Y-12134000D02*
X19285000Y-12164000D01*
X19285000Y-12134000D02*
X19255000Y-12164000D01*
X19261000Y-9587000D02*
X19291000Y-9617000D01*
X19291000Y-9587000D02*
X19261000Y-9617000D01*
X19263000Y-9638000D02*
X19293000Y-9668000D01*
X19293000Y-9638000D02*
X19263000Y-9668000D01*
X19266000Y-9685000D02*
X19296000Y-9715000D01*
X19296000Y-9685000D02*
X19266000Y-9715000D01*
X19268500Y-11526000D02*
X19298500Y-11556000D01*
X19298500Y-11526000D02*
X19268500Y-11556000D01*
X19271000Y-11647000D02*
X19301000Y-11677000D01*
X19301000Y-11647000D02*
X19271000Y-11677000D01*
X19272000Y-11691000D02*
X19302000Y-11721000D01*
X19302000Y-11691000D02*
X19272000Y-11721000D01*
X19277000Y-11596000D02*
X19307000Y-11626000D01*
X19307000Y-11596000D02*
X19277000Y-11626000D01*
X19293500Y-12082500D02*
X19323500Y-12112500D01*
X19323500Y-12082500D02*
X19293500Y-12112500D01*
X19295500Y-12181000D02*
X19325500Y-12211000D01*
X19325500Y-12181000D02*
X19295500Y-12211000D01*
X19296000Y-8770000D02*
X19326000Y-8800000D01*
X19326000Y-8770000D02*
X19296000Y-8800000D01*
X19302000Y-11809000D02*
X19332000Y-11839000D01*
X19332000Y-11809000D02*
X19302000Y-11839000D01*
X19303000Y-11757500D02*
X19333000Y-11787500D01*
X19333000Y-11757500D02*
X19303000Y-11787500D01*
X19306500Y-11238000D02*
X19336500Y-11268000D01*
X19336500Y-11238000D02*
X19306500Y-11268000D01*
X19313000Y-8820000D02*
X19343000Y-8850000D01*
X19343000Y-8820000D02*
X19313000Y-8850000D01*
X19319500Y-11525500D02*
X19349500Y-11555500D01*
X19349500Y-11525500D02*
X19319500Y-11555500D01*
X19330500Y-8726500D02*
X19360500Y-8756500D01*
X19360500Y-8726500D02*
X19330500Y-8756500D01*
X19334000Y-11597000D02*
X19364000Y-11627000D01*
X19364000Y-11597000D02*
X19334000Y-11627000D01*
X19335000Y-11651000D02*
X19365000Y-11681000D01*
X19365000Y-11651000D02*
X19335000Y-11681000D01*
X19340000Y-12133000D02*
X19370000Y-12163000D01*
X19370000Y-12133000D02*
X19340000Y-12163000D01*
X19345000Y-8781000D02*
X19375000Y-8811000D01*
X19375000Y-8781000D02*
X19345000Y-8811000D01*
X19348000Y-10740000D02*
X19378000Y-10770000D01*
X19378000Y-10740000D02*
X19348000Y-10770000D01*
X19351000Y-10791000D02*
X19381000Y-10821000D01*
X19381000Y-10791000D02*
X19351000Y-10821000D01*
X19352000Y-10845000D02*
X19382000Y-10875000D01*
X19382000Y-10845000D02*
X19352000Y-10875000D01*
X19353000Y-10900000D02*
X19383000Y-10930000D01*
X19383000Y-10900000D02*
X19353000Y-10930000D01*
X19357000Y-8862500D02*
X19387000Y-8892500D01*
X19387000Y-8862500D02*
X19357000Y-8892500D01*
X19362000Y-8972500D02*
X19392000Y-9002500D01*
X19392000Y-8972500D02*
X19362000Y-9002500D01*
X19362000Y-11810000D02*
X19392000Y-11840000D01*
X19392000Y-11810000D02*
X19362000Y-11840000D01*
X19364000Y-8691500D02*
X19394000Y-8721500D01*
X19394000Y-8691500D02*
X19364000Y-8721500D01*
X19365000Y-11756500D02*
X19395000Y-11786500D01*
X19395000Y-11756500D02*
X19365000Y-11786500D01*
X19367000Y-11690000D02*
X19397000Y-11720000D01*
X19397000Y-11690000D02*
X19367000Y-11720000D01*
X19375000Y-11501000D02*
X19405000Y-11531000D01*
X19405000Y-11501000D02*
X19375000Y-11531000D01*
X19377000Y-8744500D02*
X19407000Y-8774500D01*
X19407000Y-8744500D02*
X19377000Y-8774500D01*
X19379000Y-12080000D02*
X19409000Y-12110000D01*
X19409000Y-12080000D02*
X19379000Y-12110000D01*
X19384500Y-8814000D02*
X19414500Y-8844000D01*
X19414500Y-8814000D02*
X19384500Y-8844000D01*
X19392000Y-9485000D02*
X19422000Y-9515000D01*
X19422000Y-9485000D02*
X19392000Y-9515000D01*
X19395000Y-9434000D02*
X19425000Y-9464000D01*
X19425000Y-9434000D02*
X19395000Y-9464000D01*
X19396000Y-11596000D02*
X19426000Y-11626000D01*
X19426000Y-11596000D02*
X19396000Y-11626000D01*
X19399000Y-11649000D02*
X19429000Y-11679000D01*
X19429000Y-11649000D02*
X19399000Y-11679000D01*
X19403000Y-10742000D02*
X19433000Y-10772000D01*
X19433000Y-10742000D02*
X19403000Y-10772000D01*
X19406000Y-10900000D02*
X19436000Y-10930000D01*
X19436000Y-10900000D02*
X19406000Y-10930000D01*
X19408000Y-10791000D02*
X19438000Y-10821000D01*
X19438000Y-10791000D02*
X19408000Y-10821000D01*
X19408000Y-10844000D02*
X19438000Y-10874000D01*
X19438000Y-10844000D02*
X19408000Y-10874000D01*
X19411000Y-8706000D02*
X19441000Y-8736000D01*
X19441000Y-8706000D02*
X19411000Y-8736000D01*
X19415000Y-8778000D02*
X19445000Y-8808000D01*
X19445000Y-8778000D02*
X19415000Y-8808000D01*
X19415000Y-10213000D02*
X19445000Y-10243000D01*
X19445000Y-10213000D02*
X19415000Y-10243000D01*
X19416500Y-8860500D02*
X19446500Y-8890500D01*
X19446500Y-8860500D02*
X19416500Y-8890500D01*
X19419500Y-11939500D02*
X19449500Y-11969500D01*
X19449500Y-11939500D02*
X19419500Y-11969500D01*
X19426500Y-11500000D02*
X19456500Y-11530000D01*
X19456500Y-11500000D02*
X19426500Y-11530000D01*
X19430000Y-11688000D02*
X19460000Y-11718000D01*
X19460000Y-11688000D02*
X19430000Y-11718000D01*
X19433000Y-12025000D02*
X19463000Y-12055000D01*
X19463000Y-12025000D02*
X19433000Y-12055000D01*
X19436000Y-10011000D02*
X19466000Y-10041000D01*
X19466000Y-10011000D02*
X19436000Y-10041000D01*
X19437000Y-10059000D02*
X19467000Y-10089000D01*
X19467000Y-10059000D02*
X19437000Y-10089000D01*
X19441000Y-8586500D02*
X19471000Y-8616500D01*
X19471000Y-8586500D02*
X19441000Y-8616500D01*
X19443500Y-8911500D02*
X19473500Y-8941500D01*
X19473500Y-8911500D02*
X19443500Y-8941500D01*
X19443500Y-9482500D02*
X19473500Y-9512500D01*
X19473500Y-9482500D02*
X19443500Y-9512500D01*
X19444000Y-9433000D02*
X19474000Y-9463000D01*
X19474000Y-9433000D02*
X19444000Y-9463000D01*
X19447500Y-8744000D02*
X19477500Y-8774000D01*
X19477500Y-8744000D02*
X19447500Y-8774000D01*
X19454500Y-11644000D02*
X19484500Y-11674000D01*
X19484500Y-11644000D02*
X19454500Y-11674000D01*
X19456000Y-11594000D02*
X19486000Y-11624000D01*
X19486000Y-11594000D02*
X19456000Y-11624000D01*
X19457000Y-8637500D02*
X19487000Y-8667500D01*
X19487000Y-8637500D02*
X19457000Y-8667500D01*
X19457000Y-8818500D02*
X19487000Y-8848500D01*
X19487000Y-8818500D02*
X19457000Y-8848500D01*
X19467000Y-10214000D02*
X19497000Y-10244000D01*
X19497000Y-10214000D02*
X19467000Y-10244000D01*
X19475000Y-8867000D02*
X19505000Y-8897000D01*
X19505000Y-8867000D02*
X19475000Y-8897000D01*
X19484000Y-9307500D02*
X19514000Y-9337500D01*
X19514000Y-9307500D02*
X19484000Y-9337500D01*
X19485000Y-11985000D02*
X19515000Y-12015000D01*
X19515000Y-11985000D02*
X19485000Y-12015000D01*
X19485000Y-12085000D02*
X19515000Y-12115000D01*
X19515000Y-12085000D02*
X19485000Y-12115000D01*
X19488000Y-8771500D02*
X19518000Y-8801500D01*
X19518000Y-8771500D02*
X19488000Y-8801500D01*
X19489000Y-11526000D02*
X19519000Y-11556000D01*
X19519000Y-11526000D02*
X19489000Y-11556000D01*
X19492000Y-8603000D02*
X19522000Y-8633000D01*
X19522000Y-8603000D02*
X19492000Y-8633000D01*
X19492000Y-11447000D02*
X19522000Y-11477000D01*
X19522000Y-11447000D02*
X19492000Y-11477000D01*
X19492500Y-8679000D02*
X19522500Y-8709000D01*
X19522500Y-8679000D02*
X19492500Y-8709000D01*
X19498500Y-8918000D02*
X19528500Y-8948000D01*
X19528500Y-8918000D02*
X19498500Y-8948000D01*
X19505000Y-11649000D02*
X19535000Y-11679000D01*
X19535000Y-11649000D02*
X19505000Y-11679000D01*
X19505500Y-8826000D02*
X19535500Y-8856000D01*
X19535500Y-8826000D02*
X19505500Y-8856000D01*
X19513000Y-11595000D02*
X19543000Y-11625000D01*
X19543000Y-11595000D02*
X19513000Y-11625000D01*
X19520000Y-10214000D02*
X19550000Y-10244000D01*
X19550000Y-10214000D02*
X19520000Y-10244000D01*
X19522500Y-8646000D02*
X19552500Y-8676000D01*
X19552500Y-8646000D02*
X19522500Y-8676000D01*
X19526000Y-8873500D02*
X19556000Y-8903500D01*
X19556000Y-8873500D02*
X19526000Y-8903500D01*
X19527500Y-8964000D02*
X19557500Y-8994000D01*
X19557500Y-8964000D02*
X19527500Y-8994000D01*
X19534000Y-11938500D02*
X19564000Y-11968500D01*
X19564000Y-11938500D02*
X19534000Y-11968500D01*
X19535000Y-12035000D02*
X19565000Y-12065000D01*
X19565000Y-12035000D02*
X19535000Y-12065000D01*
X19537500Y-8714500D02*
X19567500Y-8744500D01*
X19567500Y-8714500D02*
X19537500Y-8744500D01*
X19539500Y-8786000D02*
X19569500Y-8816000D01*
X19569500Y-8786000D02*
X19539500Y-8816000D01*
X19556500Y-8917000D02*
X19586500Y-8947000D01*
X19586500Y-8917000D02*
X19556500Y-8947000D01*
X19558000Y-10117500D02*
X19588000Y-10147500D01*
X19588000Y-10117500D02*
X19558000Y-10147500D01*
X19559500Y-8836500D02*
X19589500Y-8866500D01*
X19589500Y-8836500D02*
X19559500Y-8866500D01*
X19560500Y-9385500D02*
X19590500Y-9415500D01*
X19590500Y-9385500D02*
X19560500Y-9415500D01*
X19562500Y-11090000D02*
X19592500Y-11120000D01*
X19592500Y-11090000D02*
X19562500Y-11120000D01*
X19565500Y-8682000D02*
X19595500Y-8712000D01*
X19595500Y-8682000D02*
X19565500Y-8712000D01*
X19566000Y-9890500D02*
X19596000Y-9920500D01*
X19596000Y-9890500D02*
X19566000Y-9920500D01*
X19569000Y-10216000D02*
X19599000Y-10246000D01*
X19599000Y-10216000D02*
X19569000Y-10246000D01*
X19584500Y-8963000D02*
X19614500Y-8993000D01*
X19614500Y-8963000D02*
X19584500Y-8993000D01*
X19585000Y-11985000D02*
X19615000Y-12015000D01*
X19615000Y-11985000D02*
X19585000Y-12015000D01*
X19585000Y-12085000D02*
X19615000Y-12115000D01*
X19615000Y-12085000D02*
X19585000Y-12115000D01*
X19591500Y-8789000D02*
X19621500Y-8819000D01*
X19621500Y-8789000D02*
X19591500Y-8819000D01*
X19594000Y-8877000D02*
X19624000Y-8907000D01*
X19624000Y-8877000D02*
X19594000Y-8907000D01*
X19608000Y-8719500D02*
X19638000Y-8749500D01*
X19638000Y-8719500D02*
X19608000Y-8749500D01*
X19619500Y-8830000D02*
X19649500Y-8860000D01*
X19649500Y-8830000D02*
X19619500Y-8860000D01*
X19623000Y-8923500D02*
X19653000Y-8953500D01*
X19653000Y-8923500D02*
X19623000Y-8953500D01*
X19623000Y-10216000D02*
X19653000Y-10246000D01*
X19653000Y-10216000D02*
X19623000Y-10246000D01*
X19635000Y-12035000D02*
X19665000Y-12065000D01*
X19665000Y-12035000D02*
X19635000Y-12065000D01*
X19635500Y-11936000D02*
X19665500Y-11966000D01*
X19665500Y-11936000D02*
X19635500Y-11966000D01*
X19646000Y-8684000D02*
X19676000Y-8714000D01*
X19676000Y-8684000D02*
X19646000Y-8714000D01*
X19650116Y-11498067D02*
X19680116Y-11528067D01*
X19680116Y-11498067D02*
X19650116Y-11528067D01*
X19660000Y-12139500D02*
X19690000Y-12169500D01*
X19690000Y-12139500D02*
X19660000Y-12169500D01*
X19662500Y-8732000D02*
X19692500Y-8762000D01*
X19692500Y-8732000D02*
X19662500Y-8762000D01*
X19674116Y-11456067D02*
X19704116Y-11486067D01*
X19704116Y-11456067D02*
X19674116Y-11486067D01*
X19677000Y-10164000D02*
X19707000Y-10194000D01*
X19707000Y-10164000D02*
X19677000Y-10194000D01*
X19677000Y-10214000D02*
X19707000Y-10244000D01*
X19707000Y-10214000D02*
X19677000Y-10244000D01*
X19685000Y-11985000D02*
X19715000Y-12015000D01*
X19715000Y-11985000D02*
X19685000Y-12015000D01*
X19685000Y-12085000D02*
X19715000Y-12115000D01*
X19715000Y-12085000D02*
X19685000Y-12115000D01*
X19687000Y-8612000D02*
X19717000Y-8642000D01*
X19717000Y-8612000D02*
X19687000Y-8642000D01*
X19692000Y-9581500D02*
X19722000Y-9611500D01*
X19722000Y-9581500D02*
X19692000Y-9611500D01*
X19693000Y-8928500D02*
X19723000Y-8958500D01*
X19723000Y-8928500D02*
X19693000Y-8958500D01*
X19693000Y-8977000D02*
X19723000Y-9007000D01*
X19723000Y-8977000D02*
X19693000Y-9007000D01*
X19696500Y-10095000D02*
X19726500Y-10125000D01*
X19726500Y-10095000D02*
X19696500Y-10125000D01*
X19698500Y-8858000D02*
X19728500Y-8888000D01*
X19728500Y-8858000D02*
X19698500Y-8888000D01*
X19700500Y-8793500D02*
X19730500Y-8823500D01*
X19730500Y-8793500D02*
X19700500Y-8823500D01*
X19707500Y-10756500D02*
X19737500Y-10786500D01*
X19737500Y-10756500D02*
X19707500Y-10786500D01*
X19708000Y-12190000D02*
X19738000Y-12220000D01*
X19738000Y-12190000D02*
X19708000Y-12220000D01*
X19710500Y-8746500D02*
X19740500Y-8776500D01*
X19740500Y-8746500D02*
X19710500Y-8776500D01*
X19723000Y-10049000D02*
X19753000Y-10079000D01*
X19753000Y-10049000D02*
X19723000Y-10079000D01*
X19727000Y-10165000D02*
X19757000Y-10195000D01*
X19757000Y-10165000D02*
X19727000Y-10195000D01*
X19727000Y-10217000D02*
X19757000Y-10247000D01*
X19757000Y-10217000D02*
X19727000Y-10247000D01*
X19729500Y-8653000D02*
X19759500Y-8683000D01*
X19759500Y-8653000D02*
X19729500Y-8683000D01*
X19731000Y-8893000D02*
X19761000Y-8923000D01*
X19761000Y-8893000D02*
X19731000Y-8923000D01*
X19733000Y-8830500D02*
X19763000Y-8860500D01*
X19763000Y-8830500D02*
X19733000Y-8860500D01*
X19735000Y-12035000D02*
X19765000Y-12065000D01*
X19765000Y-12035000D02*
X19735000Y-12065000D01*
X19735000Y-12135000D02*
X19765000Y-12165000D01*
X19765000Y-12135000D02*
X19735000Y-12165000D01*
X19735500Y-8949500D02*
X19765500Y-8979500D01*
X19765500Y-8949500D02*
X19735500Y-8979500D01*
X19738000Y-11938000D02*
X19768000Y-11968000D01*
X19768000Y-11938000D02*
X19738000Y-11968000D01*
X19740000Y-9580500D02*
X19770000Y-9610500D01*
X19770000Y-9580500D02*
X19740000Y-9610500D01*
X19746500Y-10095000D02*
X19776500Y-10125000D01*
X19776500Y-10095000D02*
X19746500Y-10125000D01*
X19754500Y-10754000D02*
X19784500Y-10784000D01*
X19784500Y-10754000D02*
X19754500Y-10784000D01*
X19755000Y-10534000D02*
X19785000Y-10564000D01*
X19785000Y-10534000D02*
X19755000Y-10564000D01*
X19773500Y-8695000D02*
X19803500Y-8725000D01*
X19803500Y-8695000D02*
X19773500Y-8725000D01*
X19773500Y-10049000D02*
X19803500Y-10079000D01*
X19803500Y-10049000D02*
X19773500Y-10079000D01*
X19779000Y-10215000D02*
X19809000Y-10245000D01*
X19809000Y-10215000D02*
X19779000Y-10245000D01*
X19781000Y-10166000D02*
X19811000Y-10196000D01*
X19811000Y-10166000D02*
X19781000Y-10196000D01*
X19785000Y-11985000D02*
X19815000Y-12015000D01*
X19815000Y-11985000D02*
X19785000Y-12015000D01*
X19785000Y-12085000D02*
X19815000Y-12115000D01*
X19815000Y-12085000D02*
X19785000Y-12115000D01*
X19785000Y-12185000D02*
X19815000Y-12215000D01*
X19815000Y-12185000D02*
X19785000Y-12215000D01*
X19790000Y-9766500D02*
X19820000Y-9796500D01*
X19820000Y-9766500D02*
X19790000Y-9796500D01*
X19794500Y-9380500D02*
X19824500Y-9410500D01*
X19824500Y-9380500D02*
X19794500Y-9410500D01*
X19796500Y-9432000D02*
X19826500Y-9462000D01*
X19826500Y-9432000D02*
X19796500Y-9462000D01*
X19805000Y-10098000D02*
X19835000Y-10128000D01*
X19835000Y-10098000D02*
X19805000Y-10128000D01*
X19812500Y-8738000D02*
X19842500Y-8768000D01*
X19842500Y-8738000D02*
X19812500Y-8768000D01*
X19830500Y-11068000D02*
X19860500Y-11098000D01*
X19860500Y-11068000D02*
X19830500Y-11098000D01*
X19831000Y-11014000D02*
X19861000Y-11044000D01*
X19861000Y-11014000D02*
X19831000Y-11044000D01*
X19833500Y-10047000D02*
X19863500Y-10077000D01*
X19863500Y-10047000D02*
X19833500Y-10077000D01*
X19837500Y-10166000D02*
X19867500Y-10196000D01*
X19867500Y-10166000D02*
X19837500Y-10196000D01*
X19837500Y-10219500D02*
X19867500Y-10249500D01*
X19867500Y-10219500D02*
X19837500Y-10249500D01*
X19843500Y-9378500D02*
X19873500Y-9408500D01*
X19873500Y-9378500D02*
X19843500Y-9408500D01*
X19847500Y-9430500D02*
X19877500Y-9460500D01*
X19877500Y-9430500D02*
X19847500Y-9460500D01*
X19848500Y-9482000D02*
X19878500Y-9512000D01*
X19878500Y-9482000D02*
X19848500Y-9512000D01*
X19852500Y-9947500D02*
X19882500Y-9977500D01*
X19882500Y-9947500D02*
X19852500Y-9977500D01*
X19854000Y-11128500D02*
X19884000Y-11158500D01*
X19884000Y-11128500D02*
X19854000Y-11158500D01*
X19881000Y-11013000D02*
X19911000Y-11043000D01*
X19911000Y-11013000D02*
X19881000Y-11043000D01*
X19882000Y-11068000D02*
X19912000Y-11098000D01*
X19912000Y-11068000D02*
X19882000Y-11098000D01*
X19912000Y-8815000D02*
X19942000Y-8845000D01*
X19942000Y-8815000D02*
X19912000Y-8845000D01*
X19912000Y-8866000D02*
X19942000Y-8896000D01*
X19942000Y-8866000D02*
X19912000Y-8896000D01*
X19963000Y-9027000D02*
X19993000Y-9057000D01*
X19993000Y-9027000D02*
X19963000Y-9057000D01*
X19964000Y-9312000D02*
X19994000Y-9342000D01*
X19994000Y-9312000D02*
X19964000Y-9342000D01*
X19989000Y-9363000D02*
X20019000Y-9393000D01*
X20019000Y-9363000D02*
X19989000Y-9393000D01*
X19989500Y-9412000D02*
X20019500Y-9442000D01*
X20019500Y-9412000D02*
X19989500Y-9442000D01*
X20003000Y-9462000D02*
X20033000Y-9492000D01*
X20033000Y-9462000D02*
X20003000Y-9492000D01*
X20005500Y-9512500D02*
X20035500Y-9542500D01*
X20035500Y-9512500D02*
X20005500Y-9542500D01*
X20014000Y-8664500D02*
X20044000Y-8694500D01*
X20044000Y-8664500D02*
X20014000Y-8694500D01*
X20019000Y-9312000D02*
X20049000Y-9342000D01*
X20049000Y-9312000D02*
X20019000Y-9342000D01*
X20020500Y-10523000D02*
X20050500Y-10553000D01*
X20050500Y-10523000D02*
X20020500Y-10553000D01*
X20035000Y-10167000D02*
X20065000Y-10197000D01*
X20065000Y-10167000D02*
X20035000Y-10197000D01*
X20036000Y-10223000D02*
X20066000Y-10253000D01*
X20066000Y-10223000D02*
X20036000Y-10253000D01*
X20036000Y-11013000D02*
X20066000Y-11043000D01*
X20066000Y-11013000D02*
X20036000Y-11043000D01*
X20038000Y-11068000D02*
X20068000Y-11098000D01*
X20068000Y-11068000D02*
X20038000Y-11098000D01*
X20043000Y-9359500D02*
X20073000Y-9389500D01*
X20073000Y-9359500D02*
X20043000Y-9389500D01*
X20045000Y-8625000D02*
X20075000Y-8655000D01*
X20075000Y-8625000D02*
X20045000Y-8655000D01*
X20047000Y-9413000D02*
X20077000Y-9443000D01*
X20077000Y-9413000D02*
X20047000Y-9443000D01*
X20048000Y-10920000D02*
X20078000Y-10950000D01*
X20078000Y-10920000D02*
X20048000Y-10950000D01*
X20049000Y-10062000D02*
X20079000Y-10092000D01*
X20079000Y-10062000D02*
X20049000Y-10092000D01*
X20059000Y-9462000D02*
X20089000Y-9492000D01*
X20089000Y-9462000D02*
X20059000Y-9492000D01*
X20060000Y-9510000D02*
X20090000Y-9540000D01*
X20090000Y-9510000D02*
X20060000Y-9540000D01*
X20072000Y-9313000D02*
X20102000Y-9343000D01*
X20102000Y-9313000D02*
X20072000Y-9343000D01*
X20081500Y-9034500D02*
X20111500Y-9064500D01*
X20111500Y-9034500D02*
X20081500Y-9064500D01*
X20095000Y-9367000D02*
X20125000Y-9397000D01*
X20125000Y-9367000D02*
X20095000Y-9397000D01*
X20095000Y-10292500D02*
X20125000Y-10322500D01*
X20125000Y-10292500D02*
X20095000Y-10322500D01*
X20095000Y-10563000D02*
X20125000Y-10593000D01*
X20125000Y-10563000D02*
X20095000Y-10593000D01*
X20095000Y-11017000D02*
X20125000Y-11047000D01*
X20125000Y-11017000D02*
X20095000Y-11047000D01*
X20098000Y-11071000D02*
X20128000Y-11101000D01*
X20128000Y-11071000D02*
X20098000Y-11101000D01*
X20099000Y-10167000D02*
X20129000Y-10197000D01*
X20129000Y-10167000D02*
X20099000Y-10197000D01*
X20100000Y-9414500D02*
X20130000Y-9444500D01*
X20130000Y-9414500D02*
X20100000Y-9444500D01*
X20103000Y-10008000D02*
X20133000Y-10038000D01*
X20133000Y-10008000D02*
X20103000Y-10038000D01*
X20103000Y-10222000D02*
X20133000Y-10252000D01*
X20133000Y-10222000D02*
X20103000Y-10252000D01*
X20104000Y-10063000D02*
X20134000Y-10093000D01*
X20134000Y-10063000D02*
X20104000Y-10093000D01*
X20112500Y-9460500D02*
X20142500Y-9490500D01*
X20142500Y-9460500D02*
X20112500Y-9490500D01*
X20115500Y-9515500D02*
X20145500Y-9545500D01*
X20145500Y-9515500D02*
X20115500Y-9545500D01*
X20135000Y-11985000D02*
X20165000Y-12015000D01*
X20165000Y-11985000D02*
X20135000Y-12015000D01*
X20135000Y-12085000D02*
X20165000Y-12115000D01*
X20165000Y-12085000D02*
X20135000Y-12115000D01*
X20135000Y-12185000D02*
X20165000Y-12215000D01*
X20165000Y-12185000D02*
X20135000Y-12215000D01*
X20145000Y-9580000D02*
X20175000Y-9610000D01*
X20175000Y-9580000D02*
X20145000Y-9610000D01*
X20156000Y-11019000D02*
X20186000Y-11049000D01*
X20186000Y-11019000D02*
X20156000Y-11049000D01*
X20157000Y-10167500D02*
X20187000Y-10197500D01*
X20187000Y-10167500D02*
X20157000Y-10197500D01*
X20158000Y-10006000D02*
X20188000Y-10036000D01*
X20188000Y-10006000D02*
X20158000Y-10036000D01*
X20158000Y-11070000D02*
X20188000Y-11100000D01*
X20188000Y-11070000D02*
X20158000Y-11100000D01*
X20159000Y-10224000D02*
X20189000Y-10254000D01*
X20189000Y-10224000D02*
X20159000Y-10254000D01*
X20162000Y-10059000D02*
X20192000Y-10089000D01*
X20192000Y-10059000D02*
X20162000Y-10089000D01*
X20176500Y-9458000D02*
X20206500Y-9488000D01*
X20206500Y-9458000D02*
X20176500Y-9488000D01*
X20185000Y-12035000D02*
X20215000Y-12065000D01*
X20215000Y-12035000D02*
X20185000Y-12065000D01*
X20185000Y-12135000D02*
X20215000Y-12165000D01*
X20215000Y-12135000D02*
X20185000Y-12165000D01*
X20186000Y-11952000D02*
X20216000Y-11982000D01*
X20216000Y-11952000D02*
X20186000Y-11982000D01*
X20186500Y-8639500D02*
X20216500Y-8669500D01*
X20216500Y-8639500D02*
X20186500Y-8669500D01*
X20197500Y-9578500D02*
X20227500Y-9608500D01*
X20227500Y-9578500D02*
X20197500Y-9608500D01*
X20205000Y-9226500D02*
X20235000Y-9256500D01*
X20235000Y-9226500D02*
X20205000Y-9256500D01*
X20207500Y-10196000D02*
X20237500Y-10226000D01*
X20237500Y-10196000D02*
X20207500Y-10226000D01*
X20210500Y-12188000D02*
X20240500Y-12218000D01*
X20240500Y-12188000D02*
X20210500Y-12218000D01*
X20217000Y-10011000D02*
X20247000Y-10041000D01*
X20247000Y-10011000D02*
X20217000Y-10041000D01*
X20217000Y-10062000D02*
X20247000Y-10092000D01*
X20247000Y-10062000D02*
X20217000Y-10092000D01*
X20218000Y-11021500D02*
X20248000Y-11051500D01*
X20248000Y-11021500D02*
X20218000Y-11051500D01*
X20221000Y-11071500D02*
X20251000Y-11101500D01*
X20251000Y-11071500D02*
X20221000Y-11101500D01*
X20235000Y-8635000D02*
X20265000Y-8665000D01*
X20265000Y-8635000D02*
X20235000Y-8665000D01*
X20235000Y-11985000D02*
X20265000Y-12015000D01*
X20265000Y-11985000D02*
X20235000Y-12015000D01*
X20235000Y-12085000D02*
X20265000Y-12115000D01*
X20265000Y-12085000D02*
X20235000Y-12115000D01*
X20239000Y-9035000D02*
X20269000Y-9065000D01*
X20269000Y-9035000D02*
X20239000Y-9065000D01*
X20252500Y-10215000D02*
X20282500Y-10245000D01*
X20282500Y-10215000D02*
X20252500Y-10245000D01*
X20253500Y-10167000D02*
X20283500Y-10197000D01*
X20283500Y-10167000D02*
X20253500Y-10197000D01*
X20266000Y-12135500D02*
X20296000Y-12165500D01*
X20296000Y-12135500D02*
X20266000Y-12165500D01*
X20277000Y-10012000D02*
X20307000Y-10042000D01*
X20307000Y-10012000D02*
X20277000Y-10042000D01*
X20277000Y-11022500D02*
X20307000Y-11052500D01*
X20307000Y-11022500D02*
X20277000Y-11052500D01*
X20280000Y-10066000D02*
X20310000Y-10096000D01*
X20310000Y-10066000D02*
X20280000Y-10096000D01*
X20281000Y-11073500D02*
X20311000Y-11103500D01*
X20311000Y-11073500D02*
X20281000Y-11103500D01*
X20285000Y-12035000D02*
X20315000Y-12065000D01*
X20315000Y-12035000D02*
X20285000Y-12065000D01*
X20287000Y-11951000D02*
X20317000Y-11981000D01*
X20317000Y-11951000D02*
X20287000Y-11981000D01*
X20303500Y-10165000D02*
X20333500Y-10195000D01*
X20333500Y-10165000D02*
X20303500Y-10195000D01*
X20306500Y-10217000D02*
X20336500Y-10247000D01*
X20336500Y-10217000D02*
X20306500Y-10247000D01*
X20327500Y-10984500D02*
X20357500Y-11014500D01*
X20357500Y-10984500D02*
X20327500Y-11014500D01*
X20328000Y-11038000D02*
X20358000Y-11068000D01*
X20358000Y-11038000D02*
X20328000Y-11068000D01*
X20334000Y-10070000D02*
X20364000Y-10100000D01*
X20364000Y-10070000D02*
X20334000Y-10100000D01*
X20335000Y-11985000D02*
X20365000Y-12015000D01*
X20365000Y-11985000D02*
X20335000Y-12015000D01*
X20335000Y-12085000D02*
X20365000Y-12115000D01*
X20365000Y-12085000D02*
X20335000Y-12115000D01*
X20336000Y-10014000D02*
X20366000Y-10044000D01*
X20366000Y-10014000D02*
X20336000Y-10044000D01*
X20353000Y-9363000D02*
X20383000Y-9393000D01*
X20383000Y-9363000D02*
X20353000Y-9393000D01*
X20354000Y-9312000D02*
X20384000Y-9342000D01*
X20384000Y-9312000D02*
X20354000Y-9342000D01*
X20358500Y-10166000D02*
X20388500Y-10196000D01*
X20388500Y-10166000D02*
X20358500Y-10196000D01*
X20383000Y-10929500D02*
X20413000Y-10959500D01*
X20413000Y-10929500D02*
X20383000Y-10959500D01*
X20384000Y-10044000D02*
X20414000Y-10074000D01*
X20414000Y-10044000D02*
X20384000Y-10074000D01*
X20384000Y-10983000D02*
X20414000Y-11013000D01*
X20414000Y-10983000D02*
X20384000Y-11013000D01*
X20385000Y-12035000D02*
X20415000Y-12065000D01*
X20415000Y-12035000D02*
X20385000Y-12065000D01*
X20386000Y-11035000D02*
X20416000Y-11065000D01*
X20416000Y-11035000D02*
X20386000Y-11065000D01*
X20387000Y-11951000D02*
X20417000Y-11981000D01*
X20417000Y-11951000D02*
X20387000Y-11981000D01*
X20397500Y-8672000D02*
X20427500Y-8702000D01*
X20427500Y-8672000D02*
X20397500Y-8702000D01*
X20400000Y-9400000D02*
X20430000Y-9430000D01*
X20430000Y-9400000D02*
X20400000Y-9430000D01*
X20408000Y-9311000D02*
X20438000Y-9341000D01*
X20438000Y-9311000D02*
X20408000Y-9341000D01*
X20435000Y-8635000D02*
X20465000Y-8665000D01*
X20465000Y-8635000D02*
X20435000Y-8665000D01*
X20435000Y-11985000D02*
X20465000Y-12015000D01*
X20465000Y-11985000D02*
X20435000Y-12015000D01*
X20435000Y-12085000D02*
X20465000Y-12115000D01*
X20465000Y-12085000D02*
X20435000Y-12115000D01*
X20438000Y-10529500D02*
X20468000Y-10559500D01*
X20468000Y-10529500D02*
X20438000Y-10559500D01*
X20442000Y-10757000D02*
X20472000Y-10787000D01*
X20472000Y-10757000D02*
X20442000Y-10787000D01*
X20444000Y-10806500D02*
X20474000Y-10836500D01*
X20474000Y-10806500D02*
X20444000Y-10836500D01*
X20444500Y-10857500D02*
X20474500Y-10887500D01*
X20474500Y-10857500D02*
X20444500Y-10887500D01*
X20445000Y-9049000D02*
X20475000Y-9079000D01*
X20475000Y-9049000D02*
X20445000Y-9079000D01*
X20461000Y-9532000D02*
X20491000Y-9562000D01*
X20491000Y-9532000D02*
X20461000Y-9562000D01*
X20466500Y-9436500D02*
X20496500Y-9466500D01*
X20496500Y-9436500D02*
X20466500Y-9466500D01*
X20478000Y-9483500D02*
X20508000Y-9513500D01*
X20508000Y-9483500D02*
X20478000Y-9513500D01*
X20485000Y-12031500D02*
X20515000Y-12061500D01*
X20515000Y-12031500D02*
X20485000Y-12061500D01*
X20487000Y-11939500D02*
X20517000Y-11969500D01*
X20517000Y-11939500D02*
X20487000Y-11969500D01*
X20493000Y-10757000D02*
X20523000Y-10787000D01*
X20523000Y-10757000D02*
X20493000Y-10787000D01*
X20493000Y-10806500D02*
X20523000Y-10836500D01*
X20523000Y-10806500D02*
X20493000Y-10836500D01*
X20493500Y-10856500D02*
X20523500Y-10886500D01*
X20523500Y-10856500D02*
X20493500Y-10886500D01*
X20504500Y-9038000D02*
X20534500Y-9068000D01*
X20534500Y-9038000D02*
X20504500Y-9068000D01*
X20524500Y-9436000D02*
X20554500Y-9466000D01*
X20554500Y-9436000D02*
X20524500Y-9466000D01*
X20525000Y-10282500D02*
X20555000Y-10312500D01*
X20555000Y-10282500D02*
X20525000Y-10312500D01*
X20526500Y-9533000D02*
X20556500Y-9563000D01*
X20556500Y-9533000D02*
X20526500Y-9563000D01*
X20526500Y-12090500D02*
X20556500Y-12120500D01*
X20556500Y-12090500D02*
X20526500Y-12120500D01*
X20536000Y-9483000D02*
X20566000Y-9513000D01*
X20566000Y-9483000D02*
X20536000Y-9513000D01*
X20540000Y-10783000D02*
X20570000Y-10813000D01*
X20570000Y-10783000D02*
X20540000Y-10813000D01*
X20540500Y-10840500D02*
X20570500Y-10870500D01*
X20570500Y-10840500D02*
X20540500Y-10870500D01*
X20558000Y-8832000D02*
X20588000Y-8862000D01*
X20588000Y-8832000D02*
X20558000Y-8862000D01*
X20558000Y-11803000D02*
X20588000Y-11833000D01*
X20588000Y-11803000D02*
X20558000Y-11833000D01*
X20567500Y-12150500D02*
X20597500Y-12180500D01*
X20597500Y-12150500D02*
X20567500Y-12180500D01*
X20573000Y-9435000D02*
X20603000Y-9465000D01*
X20603000Y-9435000D02*
X20573000Y-9465000D01*
X20575000Y-11357500D02*
X20605000Y-11387500D01*
X20605000Y-11357500D02*
X20575000Y-11387500D01*
X20582500Y-9532500D02*
X20612500Y-9562500D01*
X20612500Y-9532500D02*
X20582500Y-9562500D01*
X20588000Y-9484000D02*
X20618000Y-9514000D01*
X20618000Y-9484000D02*
X20588000Y-9514000D01*
X20599500Y-8670000D02*
X20629500Y-8700000D01*
X20629500Y-8670000D02*
X20599500Y-8700000D01*
X20605000Y-12093500D02*
X20635000Y-12123500D01*
X20635000Y-12093500D02*
X20605000Y-12123500D01*
X20611000Y-12194000D02*
X20641000Y-12224000D01*
X20641000Y-12194000D02*
X20611000Y-12224000D01*
X20615000Y-11804000D02*
X20645000Y-11834000D01*
X20645000Y-11804000D02*
X20615000Y-11834000D01*
X20635000Y-8635000D02*
X20665000Y-8665000D01*
X20665000Y-8635000D02*
X20635000Y-8665000D01*
X20648000Y-12148500D02*
X20678000Y-12178500D01*
X20678000Y-12148500D02*
X20648000Y-12178500D01*
X20666000Y-11432000D02*
X20696000Y-11462000D01*
X20696000Y-11432000D02*
X20666000Y-11462000D01*
X20666000Y-11481000D02*
X20696000Y-11511000D01*
X20696000Y-11481000D02*
X20666000Y-11511000D01*
X20666000Y-11531000D02*
X20696000Y-11561000D01*
X20696000Y-11531000D02*
X20666000Y-11561000D01*
X20675000Y-10114000D02*
X20705000Y-10144000D01*
X20705000Y-10114000D02*
X20675000Y-10144000D01*
X20685000Y-9020000D02*
X20715000Y-9050000D01*
X20715000Y-9020000D02*
X20685000Y-9050000D01*
X20688500Y-12194000D02*
X20718500Y-12224000D01*
X20718500Y-12194000D02*
X20688500Y-12224000D01*
X20689000Y-12093500D02*
X20719000Y-12123500D01*
X20719000Y-12093500D02*
X20689000Y-12123500D01*
X20715000Y-11145000D02*
X20745000Y-11175000D01*
X20745000Y-11145000D02*
X20715000Y-11175000D01*
X20720000Y-11430000D02*
X20750000Y-11460000D01*
X20750000Y-11430000D02*
X20720000Y-11460000D01*
X20721000Y-11482000D02*
X20751000Y-11512000D01*
X20751000Y-11482000D02*
X20721000Y-11512000D01*
X20722000Y-11530000D02*
X20752000Y-11560000D01*
X20752000Y-11530000D02*
X20722000Y-11560000D01*
X20762500Y-11359000D02*
X20792500Y-11389000D01*
X20792500Y-11359000D02*
X20762500Y-11389000D01*
X20878000Y-10677000D02*
X20908000Y-10707000D01*
X20908000Y-10677000D02*
X20878000Y-10707000D01*
X20882500Y-9504000D02*
X20912500Y-9534000D01*
X20912500Y-9504000D02*
X20882500Y-9534000D01*
X20916000Y-11454000D02*
X20946000Y-11484000D01*
X20946000Y-11454000D02*
X20916000Y-11484000D01*
X20918000Y-9469000D02*
X20948000Y-9499000D01*
X20948000Y-9469000D02*
X20918000Y-9499000D01*
X20921000Y-11504000D02*
X20951000Y-11534000D01*
X20951000Y-11504000D02*
X20921000Y-11534000D01*
X20921000Y-11567000D02*
X20951000Y-11597000D01*
X20951000Y-11567000D02*
X20921000Y-11597000D01*
X20921000Y-11622000D02*
X20951000Y-11652000D01*
X20951000Y-11622000D02*
X20921000Y-11652000D01*
X20925500Y-10663500D02*
X20955500Y-10693500D01*
X20955500Y-10663500D02*
X20925500Y-10693500D01*
X20965000Y-10302500D02*
X20995000Y-10332500D01*
X20995000Y-10302500D02*
X20965000Y-10332500D01*
X20967000Y-11358000D02*
X20997000Y-11388000D01*
X20997000Y-11358000D02*
X20967000Y-11388000D01*
X20985000Y-11510000D02*
X21015000Y-11540000D01*
X21015000Y-11510000D02*
X20985000Y-11540000D01*
X20986000Y-11453000D02*
X21016000Y-11483000D01*
X21016000Y-11453000D02*
X20986000Y-11483000D01*
X20986000Y-11567000D02*
X21016000Y-11597000D01*
X21016000Y-11567000D02*
X20986000Y-11597000D01*
X20986000Y-11623000D02*
X21016000Y-11653000D01*
X21016000Y-11623000D02*
X20986000Y-11653000D01*
X21015500Y-9891500D02*
X21045500Y-9921500D01*
X21045500Y-9891500D02*
X21015500Y-9921500D01*
X21021000Y-10012000D02*
X21051000Y-10042000D01*
X21051000Y-10012000D02*
X21021000Y-10042000D01*
X21030000Y-10646000D02*
X21060000Y-10676000D01*
X21060000Y-10646000D02*
X21030000Y-10676000D01*
X21031000Y-10567500D02*
X21061000Y-10597500D01*
X21061000Y-10567500D02*
X21031000Y-10597500D01*
X21037000Y-9157000D02*
X21067000Y-9187000D01*
X21067000Y-9157000D02*
X21037000Y-9187000D01*
X21062000Y-10352000D02*
X21092000Y-10382000D01*
X21092000Y-10352000D02*
X21062000Y-10382000D01*
X21063000Y-11452000D02*
X21093000Y-11482000D01*
X21093000Y-11452000D02*
X21063000Y-11482000D01*
X21064000Y-11508000D02*
X21094000Y-11538000D01*
X21094000Y-11508000D02*
X21064000Y-11538000D01*
X21065000Y-10295000D02*
X21095000Y-10325000D01*
X21095000Y-10295000D02*
X21065000Y-10325000D01*
X21065000Y-11620000D02*
X21095000Y-11650000D01*
X21095000Y-11620000D02*
X21065000Y-11650000D01*
X21066000Y-11566000D02*
X21096000Y-11596000D01*
X21096000Y-11566000D02*
X21066000Y-11596000D01*
X21068000Y-11699000D02*
X21098000Y-11729000D01*
X21098000Y-11699000D02*
X21068000Y-11729000D01*
X21070000Y-10238000D02*
X21100000Y-10268000D01*
X21100000Y-10238000D02*
X21070000Y-10268000D01*
X21079500Y-9571000D02*
X21109500Y-9601000D01*
X21109500Y-9571000D02*
X21079500Y-9601000D01*
X21085000Y-9203000D02*
X21115000Y-9233000D01*
X21115000Y-9203000D02*
X21085000Y-9233000D01*
X21086500Y-9995500D02*
X21116500Y-10025500D01*
X21116500Y-9995500D02*
X21086500Y-10025500D01*
X21104500Y-8814500D02*
X21134500Y-8844500D01*
X21134500Y-8814500D02*
X21104500Y-8844500D01*
X21106000Y-9008000D02*
X21136000Y-9038000D01*
X21136000Y-9008000D02*
X21106000Y-9038000D01*
X21129000Y-9572000D02*
X21159000Y-9602000D01*
X21159000Y-9572000D02*
X21129000Y-9602000D01*
X21131000Y-11231000D02*
X21161000Y-11261000D01*
X21161000Y-11231000D02*
X21131000Y-11261000D01*
X21134000Y-11362000D02*
X21164000Y-11392000D01*
X21164000Y-11362000D02*
X21134000Y-11392000D01*
X21149000Y-10780000D02*
X21179000Y-10810000D01*
X21179000Y-10780000D02*
X21149000Y-10810000D01*
X21150000Y-10718000D02*
X21180000Y-10748000D01*
X21180000Y-10718000D02*
X21150000Y-10748000D01*
X21179500Y-9571000D02*
X21209500Y-9601000D01*
X21209500Y-9571000D02*
X21179500Y-9601000D01*
X21189000Y-9142000D02*
X21219000Y-9172000D01*
X21219000Y-9142000D02*
X21189000Y-9172000D01*
X21194000Y-10326000D02*
X21224000Y-10356000D01*
X21224000Y-10326000D02*
X21194000Y-10356000D01*
X21195500Y-10375500D02*
X21225500Y-10405500D01*
X21225500Y-10375500D02*
X21195500Y-10405500D01*
X21198000Y-10424000D02*
X21228000Y-10454000D01*
X21228000Y-10424000D02*
X21198000Y-10454000D01*
X21199000Y-11483000D02*
X21229000Y-11513000D01*
X21229000Y-11483000D02*
X21199000Y-11513000D01*
X21200000Y-9831000D02*
X21230000Y-9861000D01*
X21230000Y-9831000D02*
X21200000Y-9861000D01*
X21201000Y-9212000D02*
X21231000Y-9242000D01*
X21231000Y-9212000D02*
X21201000Y-9242000D01*
X21201500Y-9429000D02*
X21231500Y-9459000D01*
X21231500Y-9429000D02*
X21201500Y-9459000D01*
X21204000Y-11551000D02*
X21234000Y-11581000D01*
X21234000Y-11551000D02*
X21204000Y-11581000D01*
X21205000Y-9617000D02*
X21235000Y-9647000D01*
X21235000Y-9617000D02*
X21205000Y-9647000D01*
X21206000Y-10821000D02*
X21236000Y-10851000D01*
X21236000Y-10821000D02*
X21206000Y-10851000D01*
X21207000Y-10040500D02*
X21237000Y-10070500D01*
X21237000Y-10040500D02*
X21207000Y-10070500D01*
X21208000Y-10768000D02*
X21238000Y-10798000D01*
X21238000Y-10768000D02*
X21208000Y-10798000D01*
X21211000Y-10717000D02*
X21241000Y-10747000D01*
X21241000Y-10717000D02*
X21211000Y-10747000D01*
X21213500Y-9474500D02*
X21243500Y-9504500D01*
X21243500Y-9474500D02*
X21213500Y-9504500D01*
X21221500Y-11426500D02*
X21251500Y-11456500D01*
X21251500Y-11426500D02*
X21221500Y-11456500D01*
X21229000Y-9570500D02*
X21259000Y-9600500D01*
X21259000Y-9570500D02*
X21229000Y-9600500D01*
X21229000Y-11633000D02*
X21259000Y-11663000D01*
X21259000Y-11633000D02*
X21229000Y-11663000D01*
X21235000Y-9077000D02*
X21265000Y-9107000D01*
X21265000Y-9077000D02*
X21235000Y-9107000D01*
X21257000Y-11259000D02*
X21287000Y-11289000D01*
X21287000Y-11259000D02*
X21257000Y-11289000D01*
X21263000Y-9124000D02*
X21293000Y-9154000D01*
X21293000Y-9124000D02*
X21263000Y-9154000D01*
X21264000Y-10793000D02*
X21294000Y-10823000D01*
X21294000Y-10793000D02*
X21264000Y-10823000D01*
X21270000Y-10293000D02*
X21300000Y-10323000D01*
X21300000Y-10293000D02*
X21270000Y-10323000D01*
X21270000Y-10735000D02*
X21300000Y-10765000D01*
X21300000Y-10735000D02*
X21270000Y-10765000D01*
X21272500Y-10381000D02*
X21302500Y-10411000D01*
X21302500Y-10381000D02*
X21272500Y-10411000D01*
X21278000Y-9569500D02*
X21308000Y-9599500D01*
X21308000Y-9569500D02*
X21278000Y-9599500D01*
X21285500Y-9987500D02*
X21315500Y-10017500D01*
X21315500Y-9987500D02*
X21285500Y-10017500D01*
X21288000Y-9076000D02*
X21318000Y-9106000D01*
X21318000Y-9076000D02*
X21288000Y-9106000D01*
X21289500Y-9166500D02*
X21319500Y-9196500D01*
X21319500Y-9166500D02*
X21289500Y-9196500D01*
X21298000Y-10337000D02*
X21328000Y-10367000D01*
X21328000Y-10337000D02*
X21298000Y-10367000D01*
X21305000Y-11875000D02*
X21335000Y-11905000D01*
X21335000Y-11875000D02*
X21305000Y-11905000D01*
X21314500Y-9472000D02*
X21344500Y-9502000D01*
X21344500Y-9472000D02*
X21314500Y-9502000D01*
X21317000Y-9123000D02*
X21347000Y-9153000D01*
X21347000Y-9123000D02*
X21317000Y-9153000D01*
X21318000Y-9520000D02*
X21348000Y-9550000D01*
X21348000Y-9520000D02*
X21318000Y-9550000D01*
X21320500Y-10382000D02*
X21350500Y-10412000D01*
X21350500Y-10382000D02*
X21320500Y-10412000D01*
X21325000Y-8145000D02*
X21355000Y-8175000D01*
X21355000Y-8145000D02*
X21325000Y-8175000D01*
X21325000Y-10794000D02*
X21355000Y-10824000D01*
X21355000Y-10794000D02*
X21325000Y-10824000D01*
X21325500Y-11229500D02*
X21355500Y-11259500D01*
X21355500Y-11229500D02*
X21325500Y-11259500D01*
X21326000Y-10287000D02*
X21356000Y-10317000D01*
X21356000Y-10287000D02*
X21326000Y-10317000D01*
X21328000Y-9569000D02*
X21358000Y-9599000D01*
X21358000Y-9569000D02*
X21328000Y-9599000D01*
X21330000Y-10741000D02*
X21360000Y-10771000D01*
X21360000Y-10741000D02*
X21330000Y-10771000D01*
X21341000Y-9079000D02*
X21371000Y-9109000D01*
X21371000Y-9079000D02*
X21341000Y-9109000D01*
X21348500Y-9165500D02*
X21378500Y-9195500D01*
X21378500Y-9165500D02*
X21348500Y-9195500D01*
X21349000Y-10336000D02*
X21379000Y-10366000D01*
X21379000Y-10336000D02*
X21349000Y-10366000D01*
X21363000Y-9944000D02*
X21393000Y-9974000D01*
X21393000Y-9944000D02*
X21363000Y-9974000D01*
X21363500Y-11100500D02*
X21393500Y-11130500D01*
X21393500Y-11100500D02*
X21363500Y-11130500D01*
X21365500Y-9875000D02*
X21395500Y-9905000D01*
X21395500Y-9875000D02*
X21365500Y-9905000D01*
X21370500Y-10383000D02*
X21400500Y-10413000D01*
X21400500Y-10383000D02*
X21370500Y-10413000D01*
X21376000Y-10290000D02*
X21406000Y-10320000D01*
X21406000Y-10290000D02*
X21376000Y-10320000D01*
X21377000Y-9125000D02*
X21407000Y-9155000D01*
X21407000Y-9125000D02*
X21377000Y-9155000D01*
X21393500Y-9228000D02*
X21423500Y-9258000D01*
X21423500Y-9228000D02*
X21393500Y-9258000D01*
X21394000Y-9079000D02*
X21424000Y-9109000D01*
X21424000Y-9079000D02*
X21394000Y-9109000D01*
X21394500Y-9820000D02*
X21424500Y-9850000D01*
X21424500Y-9820000D02*
X21394500Y-9850000D01*
X21397000Y-10335000D02*
X21427000Y-10365000D01*
X21427000Y-10335000D02*
X21397000Y-10365000D01*
X21401000Y-9987500D02*
X21431000Y-10017500D01*
X21431000Y-9987500D02*
X21401000Y-10017500D01*
X21402000Y-9907000D02*
X21432000Y-9937000D01*
X21432000Y-9907000D02*
X21402000Y-9937000D01*
X21422500Y-11883500D02*
X21452500Y-11913500D01*
X21452500Y-11883500D02*
X21422500Y-11913500D01*
X21428000Y-11025000D02*
X21458000Y-11055000D01*
X21458000Y-11025000D02*
X21428000Y-11055000D01*
X21436500Y-8139500D02*
X21466500Y-8169500D01*
X21466500Y-8139500D02*
X21436500Y-8169500D01*
X21455000Y-10366000D02*
X21485000Y-10396000D01*
X21485000Y-10366000D02*
X21455000Y-10396000D01*
X21526000Y-10343000D02*
X21556000Y-10373000D01*
X21556000Y-10343000D02*
X21526000Y-10373000D01*
X21526500Y-9502000D02*
X21556500Y-9532000D01*
X21556500Y-9502000D02*
X21526500Y-9532000D01*
X21535000Y-11885000D02*
X21565000Y-11915000D01*
X21565000Y-11885000D02*
X21535000Y-11915000D01*
X21541000Y-9079000D02*
X21571000Y-9109000D01*
X21571000Y-9079000D02*
X21541000Y-9109000D01*
X21545000Y-8145000D02*
X21575000Y-8175000D01*
X21575000Y-8145000D02*
X21545000Y-8175000D01*
X21547000Y-11268000D02*
X21577000Y-11298000D01*
X21577000Y-11268000D02*
X21547000Y-11298000D01*
X21552500Y-10820000D02*
X21582500Y-10850000D01*
X21582500Y-10820000D02*
X21552500Y-10850000D01*
X21559000Y-11112500D02*
X21589000Y-11142500D01*
X21589000Y-11112500D02*
X21559000Y-11142500D01*
X21568000Y-10630500D02*
X21598000Y-10660500D01*
X21598000Y-10630500D02*
X21568000Y-10660500D01*
X21570000Y-9556500D02*
X21600000Y-9586500D01*
X21600000Y-9556500D02*
X21570000Y-9586500D01*
X21575500Y-9997500D02*
X21605500Y-10027500D01*
X21605500Y-9997500D02*
X21575500Y-10027500D01*
X21586000Y-11196000D02*
X21616000Y-11226000D01*
X21616000Y-11196000D02*
X21586000Y-11226000D01*
X21589000Y-10351000D02*
X21619000Y-10381000D01*
X21619000Y-10351000D02*
X21589000Y-10381000D01*
X21615000Y-8892500D02*
X21645000Y-8922500D01*
X21645000Y-8892500D02*
X21615000Y-8922500D01*
X21615000Y-9157500D02*
X21645000Y-9187500D01*
X21645000Y-9157500D02*
X21615000Y-9187500D01*
X21621000Y-11296000D02*
X21651000Y-11326000D01*
X21651000Y-11296000D02*
X21621000Y-11326000D01*
X21622000Y-11245000D02*
X21652000Y-11275000D01*
X21652000Y-11245000D02*
X21622000Y-11275000D01*
X21625000Y-9567500D02*
X21655000Y-9597500D01*
X21655000Y-9567500D02*
X21625000Y-9597500D01*
X21627500Y-9297500D02*
X21657500Y-9327500D01*
X21657500Y-9297500D02*
X21627500Y-9327500D01*
X21632500Y-9702500D02*
X21662500Y-9732500D01*
X21662500Y-9702500D02*
X21632500Y-9732500D01*
X21632500Y-9970000D02*
X21662500Y-10000000D01*
X21662500Y-9970000D02*
X21632500Y-10000000D01*
X21637500Y-10097500D02*
X21667500Y-10127500D01*
X21667500Y-10097500D02*
X21637500Y-10127500D01*
X21642500Y-10382500D02*
X21672500Y-10412500D01*
X21672500Y-10382500D02*
X21642500Y-10412500D01*
X21647500Y-11869000D02*
X21677500Y-11899000D01*
X21677500Y-11869000D02*
X21647500Y-11899000D01*
X21664000Y-8190000D02*
X21694000Y-8220000D01*
X21694000Y-8190000D02*
X21664000Y-8220000D01*
X21665000Y-9157500D02*
X21695000Y-9187500D01*
X21695000Y-9157500D02*
X21665000Y-9187500D01*
X21670000Y-10767500D02*
X21700000Y-10797500D01*
X21700000Y-10767500D02*
X21670000Y-10797500D01*
X21672000Y-8893000D02*
X21702000Y-8923000D01*
X21702000Y-8893000D02*
X21672000Y-8923000D01*
X21675000Y-9297500D02*
X21705000Y-9327500D01*
X21705000Y-9297500D02*
X21675000Y-9327500D01*
X21678000Y-11334000D02*
X21708000Y-11364000D01*
X21708000Y-11334000D02*
X21678000Y-11364000D01*
X21680000Y-9702500D02*
X21710000Y-9732500D01*
X21710000Y-9702500D02*
X21680000Y-9732500D01*
X21680000Y-11257500D02*
X21710000Y-11287500D01*
X21710000Y-11257500D02*
X21680000Y-11287500D01*
X21682000Y-9568000D02*
X21712000Y-9598000D01*
X21712000Y-9568000D02*
X21682000Y-9598000D01*
X21685000Y-10352500D02*
X21715000Y-10382500D01*
X21715000Y-10352500D02*
X21685000Y-10382500D01*
X21685000Y-10507500D02*
X21715000Y-10537500D01*
X21715000Y-10507500D02*
X21685000Y-10537500D01*
X21686000Y-10005000D02*
X21716000Y-10035000D01*
X21716000Y-10005000D02*
X21686000Y-10035000D01*
X21688000Y-9950000D02*
X21718000Y-9980000D01*
X21718000Y-9950000D02*
X21688000Y-9980000D01*
X21691000Y-10098000D02*
X21721000Y-10128000D01*
X21721000Y-10098000D02*
X21691000Y-10128000D01*
X21692500Y-10947000D02*
X21722500Y-10977000D01*
X21722500Y-10947000D02*
X21692500Y-10977000D01*
X21695000Y-10997500D02*
X21725000Y-11027500D01*
X21725000Y-10997500D02*
X21695000Y-11027500D01*
X21735000Y-11805000D02*
X21765000Y-11835000D01*
X21765000Y-11805000D02*
X21735000Y-11835000D01*
X21737000Y-9982500D02*
X21767000Y-10012500D01*
X21767000Y-9982500D02*
X21737000Y-10012500D01*
X21755000Y-8255000D02*
X21785000Y-8285000D01*
X21785000Y-8255000D02*
X21755000Y-8285000D01*
X21794000Y-11735500D02*
X21824000Y-11765500D01*
X21824000Y-11735500D02*
X21794000Y-11765500D01*
X21815000Y-11425000D02*
X21845000Y-11455000D01*
X21845000Y-11425000D02*
X21815000Y-11455000D01*
X21820000Y-8355000D02*
X21850000Y-8385000D01*
X21850000Y-8355000D02*
X21820000Y-8385000D01*
X21825000Y-11645000D02*
X21855000Y-11675000D01*
X21855000Y-11645000D02*
X21825000Y-11675000D01*
X21832000Y-11530000D02*
X21862000Y-11560000D01*
X21862000Y-11530000D02*
X21832000Y-11560000D01*
X21837500Y-10795000D02*
X21867500Y-10825000D01*
X21867500Y-10795000D02*
X21837500Y-10825000D01*
X21839500Y-8447500D02*
X21869500Y-8477500D01*
X21869500Y-8447500D02*
X21839500Y-8477500D01*
X21850000Y-8551000D02*
X21880000Y-8581000D01*
X21880000Y-8551000D02*
X21850000Y-8581000D01*
X18070000Y-8900000D02*
G75*
G02*
X18030000Y-8900000I-20000J0D01*
G01*
X18030000Y-8900000D02*
G75*
G02*
X18070000Y-8900000I20000J0D01*
G01*
X18070000Y-9100000D02*
G75*
G02*
X18030000Y-9100000I-20000J0D01*
G01*
X18030000Y-9100000D02*
G75*
G02*
X18070000Y-9100000I20000J0D01*
G01*
X18070000Y-9300000D02*
G75*
G02*
X18030000Y-9300000I-20000J0D01*
G01*
X18030000Y-9300000D02*
G75*
G02*
X18070000Y-9300000I20000J0D01*
G01*
X18070000Y-9500000D02*
G75*
G02*
X18030000Y-9500000I-20000J0D01*
G01*
X18030000Y-9500000D02*
G75*
G02*
X18070000Y-9500000I20000J0D01*
G01*
X18070000Y-9700000D02*
G75*
G02*
X18030000Y-9700000I-20000J0D01*
G01*
X18030000Y-9700000D02*
G75*
G02*
X18070000Y-9700000I20000J0D01*
G01*
X18070000Y-9900000D02*
G75*
G02*
X18030000Y-9900000I-20000J0D01*
G01*
X18030000Y-9900000D02*
G75*
G02*
X18070000Y-9900000I20000J0D01*
G01*
X18070000Y-10100000D02*
G75*
G02*
X18030000Y-10100000I-20000J0D01*
G01*
X18030000Y-10100000D02*
G75*
G02*
X18070000Y-10100000I20000J0D01*
G01*
X18070000Y-10300000D02*
G75*
G02*
X18030000Y-10300000I-20000J0D01*
G01*
X18030000Y-10300000D02*
G75*
G02*
X18070000Y-10300000I20000J0D01*
G01*
X18070000Y-10500000D02*
G75*
G02*
X18030000Y-10500000I-20000J0D01*
G01*
X18030000Y-10500000D02*
G75*
G02*
X18070000Y-10500000I20000J0D01*
G01*
X18070000Y-10700000D02*
G75*
G02*
X18030000Y-10700000I-20000J0D01*
G01*
X18030000Y-10700000D02*
G75*
G02*
X18070000Y-10700000I20000J0D01*
G01*
X18070000Y-10900000D02*
G75*
G02*
X18030000Y-10900000I-20000J0D01*
G01*
X18030000Y-10900000D02*
G75*
G02*
X18070000Y-10900000I20000J0D01*
G01*
X18070000Y-11100000D02*
G75*
G02*
X18030000Y-11100000I-20000J0D01*
G01*
X18030000Y-11100000D02*
G75*
G02*
X18070000Y-11100000I20000J0D01*
G01*
X19290000Y-8430000D02*
G75*
G02*
X19250000Y-8430000I-20000J0D01*
G01*
X19250000Y-8430000D02*
G75*
G02*
X19290000Y-8430000I20000J0D01*
G01*
X19357500Y-12010000D02*
G75*
G02*
X19317500Y-12010000I-20000J0D01*
G01*
X19317500Y-12010000D02*
G75*
G02*
X19357500Y-12010000I20000J0D01*
G01*
X19490000Y-8430000D02*
G75*
G02*
X19450000Y-8430000I-20000J0D01*
G01*
X19450000Y-8430000D02*
G75*
G02*
X19490000Y-8430000I20000J0D01*
G01*
X19690000Y-8430000D02*
G75*
G02*
X19650000Y-8430000I-20000J0D01*
G01*
X19650000Y-8430000D02*
G75*
G02*
X19690000Y-8430000I20000J0D01*
G01*
X19890000Y-8430000D02*
G75*
G02*
X19850000Y-8430000I-20000J0D01*
G01*
X19850000Y-8430000D02*
G75*
G02*
X19890000Y-8430000I20000J0D01*
G01*
X20090000Y-8430000D02*
G75*
G02*
X20050000Y-8430000I-20000J0D01*
G01*
X20050000Y-8430000D02*
G75*
G02*
X20090000Y-8430000I20000J0D01*
G01*
X20290000Y-8430000D02*
G75*
G02*
X20250000Y-8430000I-20000J0D01*
G01*
X20250000Y-8430000D02*
G75*
G02*
X20290000Y-8430000I20000J0D01*
G01*
X20490000Y-8430000D02*
G75*
G02*
X20450000Y-8430000I-20000J0D01*
G01*
X20450000Y-8430000D02*
G75*
G02*
X20490000Y-8430000I20000J0D01*
G01*
X20632500Y-12010000D02*
G75*
G02*
X20592500Y-12010000I-20000J0D01*
G01*
X20592500Y-12010000D02*
G75*
G02*
X20632500Y-12010000I20000J0D01*
G01*
X20690000Y-8430000D02*
G75*
G02*
X20650000Y-8430000I-20000J0D01*
G01*
X20650000Y-8430000D02*
G75*
G02*
X20690000Y-8430000I20000J0D01*
G01*
X21920000Y-8900000D02*
G75*
G02*
X21880000Y-8900000I-20000J0D01*
G01*
X21880000Y-8900000D02*
G75*
G02*
X21920000Y-8900000I20000J0D01*
G01*
X21920000Y-9100000D02*
G75*
G02*
X21880000Y-9100000I-20000J0D01*
G01*
X21880000Y-9100000D02*
G75*
G02*
X21920000Y-9100000I20000J0D01*
G01*
X21920000Y-9300000D02*
G75*
G02*
X21880000Y-9300000I-20000J0D01*
G01*
X21880000Y-9300000D02*
G75*
G02*
X21920000Y-9300000I20000J0D01*
G01*
X21920000Y-9500000D02*
G75*
G02*
X21880000Y-9500000I-20000J0D01*
G01*
X21880000Y-9500000D02*
G75*
G02*
X21920000Y-9500000I20000J0D01*
G01*
X21920000Y-9700000D02*
G75*
G02*
X21880000Y-9700000I-20000J0D01*
G01*
X21880000Y-9700000D02*
G75*
G02*
X21920000Y-9700000I20000J0D01*
G01*
X21920000Y-9900000D02*
G75*
G02*
X21880000Y-9900000I-20000J0D01*
G01*
X21880000Y-9900000D02*
G75*
G02*
X21920000Y-9900000I20000J0D01*
G01*
X21920000Y-10100000D02*
G75*
G02*
X21880000Y-10100000I-20000J0D01*
G01*
X21880000Y-10100000D02*
G75*
G02*
X21920000Y-10100000I20000J0D01*
G01*
X21920000Y-10300000D02*
G75*
G02*
X21880000Y-10300000I-20000J0D01*
G01*
X21880000Y-10300000D02*
G75*
G02*
X21920000Y-10300000I20000J0D01*
G01*
X21920000Y-10500000D02*
G75*
G02*
X21880000Y-10500000I-20000J0D01*
G01*
X21880000Y-10500000D02*
G75*
G02*
X21920000Y-10500000I20000J0D01*
G01*
X21920000Y-10700000D02*
G75*
G02*
X21880000Y-10700000I-20000J0D01*
G01*
X21880000Y-10700000D02*
G75*
G02*
X21920000Y-10700000I20000J0D01*
G01*
X21920000Y-10900000D02*
G75*
G02*
X21880000Y-10900000I-20000J0D01*
G01*
X21880000Y-10900000D02*
G75*
G02*
X21920000Y-10900000I20000J0D01*
G01*
X21920000Y-11100000D02*
G75*
G02*
X21880000Y-11100000I-20000J0D01*
G01*
X21880000Y-11100000D02*
G75*
G02*
X21920000Y-11100000I20000J0D01*
G01*
D13*
X17807500Y-8800000D02*
X17807500Y-9200000D01*
X17607500Y-9000000D02*
X18007500Y-9000000D01*
X17807500Y-9200000D02*
X17807500Y-9600000D01*
X17607500Y-9400000D02*
X18007500Y-9400000D01*
X17807500Y-9600000D02*
X17807500Y-10000000D01*
X17607500Y-9800000D02*
X18007500Y-9800000D01*
X17807500Y-10000000D02*
X17807500Y-10400000D01*
X17607500Y-10200000D02*
X18007500Y-10200000D01*
X17807500Y-10400000D02*
X17807500Y-10800000D01*
X17607500Y-10600000D02*
X18007500Y-10600000D01*
X17807500Y-10800000D02*
X17807500Y-11200000D01*
X17607500Y-11000000D02*
X18007500Y-11000000D01*
X18450000Y-8300000D02*
X18450000Y-8700000D01*
X18250000Y-8500000D02*
X18650000Y-8500000D01*
X18450000Y-11350000D02*
X18450000Y-11750000D01*
X18250000Y-11550000D02*
X18650000Y-11550000D01*
X19530000Y-12150000D02*
X19530000Y-12550000D01*
X19330000Y-12350000D02*
X19730000Y-12350000D01*
X20412500Y-12150000D02*
X20412500Y-12550000D01*
X20212500Y-12350000D02*
X20612500Y-12350000D01*
X21500000Y-8300000D02*
X21500000Y-8700000D01*
X21300000Y-8500000D02*
X21700000Y-8500000D01*
X21500000Y-11350000D02*
X21500000Y-11750000D01*
X21300000Y-11550000D02*
X21700000Y-11550000D01*
D14*
X22287458Y-9144958D02*
X22287458Y-8855042D01*
X21997542Y-8855042D01*
X21997542Y-9144958D01*
X22287458Y-9144958D01*
X22287458Y-9544958D02*
X22287458Y-9255042D01*
X21997542Y-9255042D01*
X21997542Y-9544958D01*
X22287458Y-9544958D01*
X22287458Y-9944958D02*
X22287458Y-9655042D01*
X21997542Y-9655042D01*
X21997542Y-9944958D01*
X22287458Y-9944958D01*
X22287458Y-10344958D02*
X22287458Y-10055042D01*
X21997542Y-10055042D01*
X21997542Y-10344958D01*
X22287458Y-10344958D01*
X22287458Y-10744958D02*
X22287458Y-10455042D01*
X21997542Y-10455042D01*
X21997542Y-10744958D01*
X22287458Y-10744958D01*
X22287458Y-11144958D02*
X22287458Y-10855042D01*
X21997542Y-10855042D01*
X21997542Y-11144958D01*
X22287458Y-11144958D01*
D11*
X18208277Y-12613984D02*
X18208277Y-12413984D01*
X18208277Y-12413984D02*
X18255896Y-12413984D01*
X18255896Y-12413984D02*
X18284467Y-12423508D01*
X18284467Y-12423508D02*
X18303515Y-12442555D01*
X18303515Y-12442555D02*
X18313039Y-12461603D01*
X18313039Y-12461603D02*
X18322563Y-12499698D01*
X18322563Y-12499698D02*
X18322563Y-12528269D01*
X18322563Y-12528269D02*
X18313039Y-12566365D01*
X18313039Y-12566365D02*
X18303515Y-12585412D01*
X18303515Y-12585412D02*
X18284467Y-12604460D01*
X18284467Y-12604460D02*
X18255896Y-12613984D01*
X18255896Y-12613984D02*
X18208277Y-12613984D01*
X18408277Y-12613984D02*
X18408277Y-12480650D01*
X18408277Y-12518746D02*
X18417801Y-12499698D01*
X18417801Y-12499698D02*
X18427324Y-12490174D01*
X18427324Y-12490174D02*
X18446372Y-12480650D01*
X18446372Y-12480650D02*
X18465420Y-12480650D01*
X18532086Y-12613984D02*
X18532086Y-12480650D01*
X18532086Y-12413984D02*
X18522563Y-12423508D01*
X18522563Y-12423508D02*
X18532086Y-12433031D01*
X18532086Y-12433031D02*
X18541610Y-12423508D01*
X18541610Y-12423508D02*
X18532086Y-12413984D01*
X18532086Y-12413984D02*
X18532086Y-12433031D01*
X18655896Y-12613984D02*
X18636848Y-12604460D01*
X18636848Y-12604460D02*
X18627324Y-12585412D01*
X18627324Y-12585412D02*
X18627324Y-12413984D01*
X18760658Y-12613984D02*
X18741610Y-12604460D01*
X18741610Y-12604460D02*
X18732086Y-12585412D01*
X18732086Y-12585412D02*
X18732086Y-12413984D01*
X18989229Y-12613984D02*
X18989229Y-12413984D01*
X18989229Y-12413984D02*
X19055896Y-12556841D01*
X19055896Y-12556841D02*
X19122563Y-12413984D01*
X19122563Y-12413984D02*
X19122563Y-12613984D01*
X19303515Y-12613984D02*
X19303515Y-12509222D01*
X19303515Y-12509222D02*
X19293991Y-12490174D01*
X19293991Y-12490174D02*
X19274944Y-12480650D01*
X19274944Y-12480650D02*
X19236848Y-12480650D01*
X19236848Y-12480650D02*
X19217801Y-12490174D01*
X19303515Y-12604460D02*
X19284467Y-12613984D01*
X19284467Y-12613984D02*
X19236848Y-12613984D01*
X19236848Y-12613984D02*
X19217801Y-12604460D01*
X19217801Y-12604460D02*
X19208277Y-12585412D01*
X19208277Y-12585412D02*
X19208277Y-12566365D01*
X19208277Y-12566365D02*
X19217801Y-12547317D01*
X19217801Y-12547317D02*
X19236848Y-12537793D01*
X19236848Y-12537793D02*
X19284467Y-12537793D01*
X19284467Y-12537793D02*
X19303515Y-12528269D01*
X19398753Y-12480650D02*
X19398753Y-12680650D01*
X19398753Y-12490174D02*
X19417801Y-12480650D01*
X19417801Y-12480650D02*
X19455896Y-12480650D01*
X19455896Y-12480650D02*
X19474944Y-12490174D01*
X19474944Y-12490174D02*
X19484467Y-12499698D01*
X19484467Y-12499698D02*
X19493991Y-12518746D01*
X19493991Y-12518746D02*
X19493991Y-12575888D01*
X19493991Y-12575888D02*
X19484467Y-12594936D01*
X19484467Y-12594936D02*
X19474944Y-12604460D01*
X19474944Y-12604460D02*
X19455896Y-12613984D01*
X19455896Y-12613984D02*
X19417801Y-12613984D01*
X19417801Y-12613984D02*
X19398753Y-12604460D01*
X19579705Y-12594936D02*
X19589229Y-12604460D01*
X19589229Y-12604460D02*
X19579705Y-12613984D01*
X19579705Y-12613984D02*
X19570182Y-12604460D01*
X19570182Y-12604460D02*
X19579705Y-12594936D01*
X19579705Y-12594936D02*
X19579705Y-12613984D01*
X19579705Y-12490174D02*
X19589229Y-12499698D01*
X19589229Y-12499698D02*
X19579705Y-12509222D01*
X19579705Y-12509222D02*
X19570182Y-12499698D01*
X19570182Y-12499698D02*
X19579705Y-12490174D01*
X19579705Y-12490174D02*
X19579705Y-12509222D01*
D12*
X17917500Y-12927500D02*
X17947500Y-12957500D01*
X17947500Y-12927500D02*
X17917500Y-12957500D01*
D11*
X18246372Y-12833984D02*
X18265420Y-12833984D01*
X18265420Y-12833984D02*
X18284467Y-12843508D01*
X18284467Y-12843508D02*
X18293991Y-12853031D01*
X18293991Y-12853031D02*
X18303515Y-12872079D01*
X18303515Y-12872079D02*
X18313039Y-12910174D01*
X18313039Y-12910174D02*
X18313039Y-12957793D01*
X18313039Y-12957793D02*
X18303515Y-12995888D01*
X18303515Y-12995888D02*
X18293991Y-13014936D01*
X18293991Y-13014936D02*
X18284467Y-13024460D01*
X18284467Y-13024460D02*
X18265420Y-13033984D01*
X18265420Y-13033984D02*
X18246372Y-13033984D01*
X18246372Y-13033984D02*
X18227324Y-13024460D01*
X18227324Y-13024460D02*
X18217801Y-13014936D01*
X18217801Y-13014936D02*
X18208277Y-12995888D01*
X18208277Y-12995888D02*
X18198753Y-12957793D01*
X18198753Y-12957793D02*
X18198753Y-12910174D01*
X18198753Y-12910174D02*
X18208277Y-12872079D01*
X18208277Y-12872079D02*
X18217801Y-12853031D01*
X18217801Y-12853031D02*
X18227324Y-12843508D01*
X18227324Y-12843508D02*
X18246372Y-12833984D01*
X18398753Y-13014936D02*
X18408277Y-13024460D01*
X18408277Y-13024460D02*
X18398753Y-13033984D01*
X18398753Y-13033984D02*
X18389229Y-13024460D01*
X18389229Y-13024460D02*
X18398753Y-13014936D01*
X18398753Y-13014936D02*
X18398753Y-13033984D01*
X18474944Y-12833984D02*
X18598753Y-12833984D01*
X18598753Y-12833984D02*
X18532086Y-12910174D01*
X18532086Y-12910174D02*
X18560658Y-12910174D01*
X18560658Y-12910174D02*
X18579705Y-12919698D01*
X18579705Y-12919698D02*
X18589229Y-12929222D01*
X18589229Y-12929222D02*
X18598753Y-12948269D01*
X18598753Y-12948269D02*
X18598753Y-12995888D01*
X18598753Y-12995888D02*
X18589229Y-13014936D01*
X18589229Y-13014936D02*
X18579705Y-13024460D01*
X18579705Y-13024460D02*
X18560658Y-13033984D01*
X18560658Y-13033984D02*
X18503515Y-13033984D01*
X18503515Y-13033984D02*
X18484467Y-13024460D01*
X18484467Y-13024460D02*
X18474944Y-13014936D01*
X18722563Y-12833984D02*
X18741610Y-12833984D01*
X18741610Y-12833984D02*
X18760658Y-12843508D01*
X18760658Y-12843508D02*
X18770182Y-12853031D01*
X18770182Y-12853031D02*
X18779705Y-12872079D01*
X18779705Y-12872079D02*
X18789229Y-12910174D01*
X18789229Y-12910174D02*
X18789229Y-12957793D01*
X18789229Y-12957793D02*
X18779705Y-12995888D01*
X18779705Y-12995888D02*
X18770182Y-13014936D01*
X18770182Y-13014936D02*
X18760658Y-13024460D01*
X18760658Y-13024460D02*
X18741610Y-13033984D01*
X18741610Y-13033984D02*
X18722563Y-13033984D01*
X18722563Y-13033984D02*
X18703515Y-13024460D01*
X18703515Y-13024460D02*
X18693991Y-13014936D01*
X18693991Y-13014936D02*
X18684467Y-12995888D01*
X18684467Y-12995888D02*
X18674944Y-12957793D01*
X18674944Y-12957793D02*
X18674944Y-12910174D01*
X18674944Y-12910174D02*
X18684467Y-12872079D01*
X18684467Y-12872079D02*
X18693991Y-12853031D01*
X18693991Y-12853031D02*
X18703515Y-12843508D01*
X18703515Y-12843508D02*
X18722563Y-12833984D01*
X18913039Y-12833984D02*
X18932086Y-12833984D01*
X18932086Y-12833984D02*
X18951134Y-12843508D01*
X18951134Y-12843508D02*
X18960658Y-12853031D01*
X18960658Y-12853031D02*
X18970182Y-12872079D01*
X18970182Y-12872079D02*
X18979705Y-12910174D01*
X18979705Y-12910174D02*
X18979705Y-12957793D01*
X18979705Y-12957793D02*
X18970182Y-12995888D01*
X18970182Y-12995888D02*
X18960658Y-13014936D01*
X18960658Y-13014936D02*
X18951134Y-13024460D01*
X18951134Y-13024460D02*
X18932086Y-13033984D01*
X18932086Y-13033984D02*
X18913039Y-13033984D01*
X18913039Y-13033984D02*
X18893991Y-13024460D01*
X18893991Y-13024460D02*
X18884467Y-13014936D01*
X18884467Y-13014936D02*
X18874944Y-12995888D01*
X18874944Y-12995888D02*
X18865420Y-12957793D01*
X18865420Y-12957793D02*
X18865420Y-12910174D01*
X18865420Y-12910174D02*
X18874944Y-12872079D01*
X18874944Y-12872079D02*
X18884467Y-12853031D01*
X18884467Y-12853031D02*
X18893991Y-12843508D01*
X18893991Y-12843508D02*
X18913039Y-12833984D01*
X19065420Y-13033984D02*
X19065420Y-12900650D01*
X19065420Y-12919698D02*
X19074944Y-12910174D01*
X19074944Y-12910174D02*
X19093991Y-12900650D01*
X19093991Y-12900650D02*
X19122563Y-12900650D01*
X19122563Y-12900650D02*
X19141610Y-12910174D01*
X19141610Y-12910174D02*
X19151134Y-12929222D01*
X19151134Y-12929222D02*
X19151134Y-13033984D01*
X19151134Y-12929222D02*
X19160658Y-12910174D01*
X19160658Y-12910174D02*
X19179705Y-12900650D01*
X19179705Y-12900650D02*
X19208277Y-12900650D01*
X19208277Y-12900650D02*
X19227325Y-12910174D01*
X19227325Y-12910174D02*
X19236848Y-12929222D01*
X19236848Y-12929222D02*
X19236848Y-13033984D01*
X19332086Y-13033984D02*
X19332086Y-12900650D01*
X19332086Y-12919698D02*
X19341610Y-12910174D01*
X19341610Y-12910174D02*
X19360658Y-12900650D01*
X19360658Y-12900650D02*
X19389229Y-12900650D01*
X19389229Y-12900650D02*
X19408277Y-12910174D01*
X19408277Y-12910174D02*
X19417801Y-12929222D01*
X19417801Y-12929222D02*
X19417801Y-13033984D01*
X19417801Y-12929222D02*
X19427325Y-12910174D01*
X19427325Y-12910174D02*
X19446372Y-12900650D01*
X19446372Y-12900650D02*
X19474944Y-12900650D01*
X19474944Y-12900650D02*
X19493991Y-12910174D01*
X19493991Y-12910174D02*
X19503515Y-12929222D01*
X19503515Y-12929222D02*
X19503515Y-13033984D01*
X19893991Y-12824460D02*
X19722563Y-13081603D01*
X20151134Y-12833984D02*
X20170182Y-12833984D01*
X20170182Y-12833984D02*
X20189229Y-12843508D01*
X20189229Y-12843508D02*
X20198753Y-12853031D01*
X20198753Y-12853031D02*
X20208277Y-12872079D01*
X20208277Y-12872079D02*
X20217801Y-12910174D01*
X20217801Y-12910174D02*
X20217801Y-12957793D01*
X20217801Y-12957793D02*
X20208277Y-12995888D01*
X20208277Y-12995888D02*
X20198753Y-13014936D01*
X20198753Y-13014936D02*
X20189229Y-13024460D01*
X20189229Y-13024460D02*
X20170182Y-13033984D01*
X20170182Y-13033984D02*
X20151134Y-13033984D01*
X20151134Y-13033984D02*
X20132087Y-13024460D01*
X20132087Y-13024460D02*
X20122563Y-13014936D01*
X20122563Y-13014936D02*
X20113039Y-12995888D01*
X20113039Y-12995888D02*
X20103515Y-12957793D01*
X20103515Y-12957793D02*
X20103515Y-12910174D01*
X20103515Y-12910174D02*
X20113039Y-12872079D01*
X20113039Y-12872079D02*
X20122563Y-12853031D01*
X20122563Y-12853031D02*
X20132087Y-12843508D01*
X20132087Y-12843508D02*
X20151134Y-12833984D01*
X20303515Y-13014936D02*
X20313039Y-13024460D01*
X20313039Y-13024460D02*
X20303515Y-13033984D01*
X20303515Y-13033984D02*
X20293991Y-13024460D01*
X20293991Y-13024460D02*
X20303515Y-13014936D01*
X20303515Y-13014936D02*
X20303515Y-13033984D01*
X20436848Y-12833984D02*
X20455896Y-12833984D01*
X20455896Y-12833984D02*
X20474944Y-12843508D01*
X20474944Y-12843508D02*
X20484468Y-12853031D01*
X20484468Y-12853031D02*
X20493991Y-12872079D01*
X20493991Y-12872079D02*
X20503515Y-12910174D01*
X20503515Y-12910174D02*
X20503515Y-12957793D01*
X20503515Y-12957793D02*
X20493991Y-12995888D01*
X20493991Y-12995888D02*
X20484468Y-13014936D01*
X20484468Y-13014936D02*
X20474944Y-13024460D01*
X20474944Y-13024460D02*
X20455896Y-13033984D01*
X20455896Y-13033984D02*
X20436848Y-13033984D01*
X20436848Y-13033984D02*
X20417801Y-13024460D01*
X20417801Y-13024460D02*
X20408277Y-13014936D01*
X20408277Y-13014936D02*
X20398753Y-12995888D01*
X20398753Y-12995888D02*
X20389229Y-12957793D01*
X20389229Y-12957793D02*
X20389229Y-12910174D01*
X20389229Y-12910174D02*
X20398753Y-12872079D01*
X20398753Y-12872079D02*
X20408277Y-12853031D01*
X20408277Y-12853031D02*
X20417801Y-12843508D01*
X20417801Y-12843508D02*
X20436848Y-12833984D01*
X20693991Y-13033984D02*
X20579706Y-13033984D01*
X20636848Y-13033984D02*
X20636848Y-12833984D01*
X20636848Y-12833984D02*
X20617801Y-12862555D01*
X20617801Y-12862555D02*
X20598753Y-12881603D01*
X20598753Y-12881603D02*
X20579706Y-12891127D01*
X20884468Y-13033984D02*
X20770182Y-13033984D01*
X20827325Y-13033984D02*
X20827325Y-12833984D01*
X20827325Y-12833984D02*
X20808277Y-12862555D01*
X20808277Y-12862555D02*
X20789229Y-12881603D01*
X20789229Y-12881603D02*
X20770182Y-12891127D01*
X20998753Y-12919698D02*
X20979706Y-12910174D01*
X20979706Y-12910174D02*
X20970182Y-12900650D01*
X20970182Y-12900650D02*
X20960658Y-12881603D01*
X20960658Y-12881603D02*
X20960658Y-12872079D01*
X20960658Y-12872079D02*
X20970182Y-12853031D01*
X20970182Y-12853031D02*
X20979706Y-12843508D01*
X20979706Y-12843508D02*
X20998753Y-12833984D01*
X20998753Y-12833984D02*
X21036849Y-12833984D01*
X21036849Y-12833984D02*
X21055896Y-12843508D01*
X21055896Y-12843508D02*
X21065420Y-12853031D01*
X21065420Y-12853031D02*
X21074944Y-12872079D01*
X21074944Y-12872079D02*
X21074944Y-12881603D01*
X21074944Y-12881603D02*
X21065420Y-12900650D01*
X21065420Y-12900650D02*
X21055896Y-12910174D01*
X21055896Y-12910174D02*
X21036849Y-12919698D01*
X21036849Y-12919698D02*
X20998753Y-12919698D01*
X20998753Y-12919698D02*
X20979706Y-12929222D01*
X20979706Y-12929222D02*
X20970182Y-12938746D01*
X20970182Y-12938746D02*
X20960658Y-12957793D01*
X20960658Y-12957793D02*
X20960658Y-12995888D01*
X20960658Y-12995888D02*
X20970182Y-13014936D01*
X20970182Y-13014936D02*
X20979706Y-13024460D01*
X20979706Y-13024460D02*
X20998753Y-13033984D01*
X20998753Y-13033984D02*
X21036849Y-13033984D01*
X21036849Y-13033984D02*
X21055896Y-13024460D01*
X21055896Y-13024460D02*
X21065420Y-13014936D01*
X21065420Y-13014936D02*
X21074944Y-12995888D01*
X21074944Y-12995888D02*
X21074944Y-12957793D01*
X21074944Y-12957793D02*
X21065420Y-12938746D01*
X21065420Y-12938746D02*
X21055896Y-12929222D01*
X21055896Y-12929222D02*
X21036849Y-12919698D01*
X21151134Y-12833984D02*
X21151134Y-12872079D01*
X21227325Y-12833984D02*
X21227325Y-12872079D01*
X21522563Y-13110174D02*
X21513039Y-13100650D01*
X21513039Y-13100650D02*
X21493991Y-13072079D01*
X21493991Y-13072079D02*
X21484468Y-13053031D01*
X21484468Y-13053031D02*
X21474944Y-13024460D01*
X21474944Y-13024460D02*
X21465420Y-12976841D01*
X21465420Y-12976841D02*
X21465420Y-12938746D01*
X21465420Y-12938746D02*
X21474944Y-12891127D01*
X21474944Y-12891127D02*
X21484468Y-12862555D01*
X21484468Y-12862555D02*
X21493991Y-12843508D01*
X21493991Y-12843508D02*
X21513039Y-12814936D01*
X21513039Y-12814936D02*
X21522563Y-12805412D01*
X21684468Y-12833984D02*
X21646372Y-12833984D01*
X21646372Y-12833984D02*
X21627325Y-12843508D01*
X21627325Y-12843508D02*
X21617801Y-12853031D01*
X21617801Y-12853031D02*
X21598753Y-12881603D01*
X21598753Y-12881603D02*
X21589230Y-12919698D01*
X21589230Y-12919698D02*
X21589230Y-12995888D01*
X21589230Y-12995888D02*
X21598753Y-13014936D01*
X21598753Y-13014936D02*
X21608277Y-13024460D01*
X21608277Y-13024460D02*
X21627325Y-13033984D01*
X21627325Y-13033984D02*
X21665420Y-13033984D01*
X21665420Y-13033984D02*
X21684468Y-13024460D01*
X21684468Y-13024460D02*
X21693991Y-13014936D01*
X21693991Y-13014936D02*
X21703515Y-12995888D01*
X21703515Y-12995888D02*
X21703515Y-12948269D01*
X21703515Y-12948269D02*
X21693991Y-12929222D01*
X21693991Y-12929222D02*
X21684468Y-12919698D01*
X21684468Y-12919698D02*
X21665420Y-12910174D01*
X21665420Y-12910174D02*
X21627325Y-12910174D01*
X21627325Y-12910174D02*
X21608277Y-12919698D01*
X21608277Y-12919698D02*
X21598753Y-12929222D01*
X21598753Y-12929222D02*
X21589230Y-12948269D01*
X21874944Y-12900650D02*
X21874944Y-13033984D01*
X21827325Y-12824460D02*
X21779706Y-12967317D01*
X21779706Y-12967317D02*
X21903515Y-12967317D01*
X22065420Y-12900650D02*
X22065420Y-13033984D01*
X22017801Y-12824460D02*
X21970182Y-12967317D01*
X21970182Y-12967317D02*
X22093991Y-12967317D01*
X22322563Y-13033984D02*
X22322563Y-12833984D01*
X22408277Y-13033984D02*
X22408277Y-12929222D01*
X22408277Y-12929222D02*
X22398753Y-12910174D01*
X22398753Y-12910174D02*
X22379706Y-12900650D01*
X22379706Y-12900650D02*
X22351134Y-12900650D01*
X22351134Y-12900650D02*
X22332087Y-12910174D01*
X22332087Y-12910174D02*
X22322563Y-12919698D01*
X22532087Y-13033984D02*
X22513039Y-13024460D01*
X22513039Y-13024460D02*
X22503515Y-13014936D01*
X22503515Y-13014936D02*
X22493991Y-12995888D01*
X22493991Y-12995888D02*
X22493991Y-12938746D01*
X22493991Y-12938746D02*
X22503515Y-12919698D01*
X22503515Y-12919698D02*
X22513039Y-12910174D01*
X22513039Y-12910174D02*
X22532087Y-12900650D01*
X22532087Y-12900650D02*
X22560658Y-12900650D01*
X22560658Y-12900650D02*
X22579706Y-12910174D01*
X22579706Y-12910174D02*
X22589230Y-12919698D01*
X22589230Y-12919698D02*
X22598753Y-12938746D01*
X22598753Y-12938746D02*
X22598753Y-12995888D01*
X22598753Y-12995888D02*
X22589230Y-13014936D01*
X22589230Y-13014936D02*
X22579706Y-13024460D01*
X22579706Y-13024460D02*
X22560658Y-13033984D01*
X22560658Y-13033984D02*
X22532087Y-13033984D01*
X22713039Y-13033984D02*
X22693991Y-13024460D01*
X22693991Y-13024460D02*
X22684468Y-13005412D01*
X22684468Y-13005412D02*
X22684468Y-12833984D01*
X22865420Y-13024460D02*
X22846372Y-13033984D01*
X22846372Y-13033984D02*
X22808277Y-13033984D01*
X22808277Y-13033984D02*
X22789230Y-13024460D01*
X22789230Y-13024460D02*
X22779706Y-13005412D01*
X22779706Y-13005412D02*
X22779706Y-12929222D01*
X22779706Y-12929222D02*
X22789230Y-12910174D01*
X22789230Y-12910174D02*
X22808277Y-12900650D01*
X22808277Y-12900650D02*
X22846372Y-12900650D01*
X22846372Y-12900650D02*
X22865420Y-12910174D01*
X22865420Y-12910174D02*
X22874944Y-12929222D01*
X22874944Y-12929222D02*
X22874944Y-12948269D01*
X22874944Y-12948269D02*
X22779706Y-12967317D01*
X22951134Y-13024460D02*
X22970182Y-13033984D01*
X22970182Y-13033984D02*
X23008277Y-13033984D01*
X23008277Y-13033984D02*
X23027325Y-13024460D01*
X23027325Y-13024460D02*
X23036849Y-13005412D01*
X23036849Y-13005412D02*
X23036849Y-12995888D01*
X23036849Y-12995888D02*
X23027325Y-12976841D01*
X23027325Y-12976841D02*
X23008277Y-12967317D01*
X23008277Y-12967317D02*
X22979706Y-12967317D01*
X22979706Y-12967317D02*
X22960658Y-12957793D01*
X22960658Y-12957793D02*
X22951134Y-12938746D01*
X22951134Y-12938746D02*
X22951134Y-12929222D01*
X22951134Y-12929222D02*
X22960658Y-12910174D01*
X22960658Y-12910174D02*
X22979706Y-12900650D01*
X22979706Y-12900650D02*
X23008277Y-12900650D01*
X23008277Y-12900650D02*
X23027325Y-12910174D01*
X23103515Y-13110174D02*
X23113039Y-13100650D01*
X23113039Y-13100650D02*
X23132087Y-13072079D01*
X23132087Y-13072079D02*
X23141611Y-13053031D01*
X23141611Y-13053031D02*
X23151134Y-13024460D01*
X23151134Y-13024460D02*
X23160658Y-12976841D01*
X23160658Y-12976841D02*
X23160658Y-12938746D01*
X23160658Y-12938746D02*
X23151134Y-12891127D01*
X23151134Y-12891127D02*
X23141611Y-12862555D01*
X23141611Y-12862555D02*
X23132087Y-12843508D01*
X23132087Y-12843508D02*
X23113039Y-12814936D01*
X23113039Y-12814936D02*
X23103515Y-12805412D01*
D12*
X17947500Y-13206500D02*
G75*
G02*
X17907500Y-13206500I-20000J0D01*
G01*
X17907500Y-13206500D02*
G75*
G02*
X17947500Y-13206500I20000J0D01*
G01*
D11*
X18246372Y-13097984D02*
X18265420Y-13097984D01*
X18265420Y-13097984D02*
X18284467Y-13107508D01*
X18284467Y-13107508D02*
X18293991Y-13117031D01*
X18293991Y-13117031D02*
X18303515Y-13136079D01*
X18303515Y-13136079D02*
X18313039Y-13174174D01*
X18313039Y-13174174D02*
X18313039Y-13221793D01*
X18313039Y-13221793D02*
X18303515Y-13259888D01*
X18303515Y-13259888D02*
X18293991Y-13278936D01*
X18293991Y-13278936D02*
X18284467Y-13288460D01*
X18284467Y-13288460D02*
X18265420Y-13297984D01*
X18265420Y-13297984D02*
X18246372Y-13297984D01*
X18246372Y-13297984D02*
X18227324Y-13288460D01*
X18227324Y-13288460D02*
X18217801Y-13278936D01*
X18217801Y-13278936D02*
X18208277Y-13259888D01*
X18208277Y-13259888D02*
X18198753Y-13221793D01*
X18198753Y-13221793D02*
X18198753Y-13174174D01*
X18198753Y-13174174D02*
X18208277Y-13136079D01*
X18208277Y-13136079D02*
X18217801Y-13117031D01*
X18217801Y-13117031D02*
X18227324Y-13107508D01*
X18227324Y-13107508D02*
X18246372Y-13097984D01*
X18398753Y-13278936D02*
X18408277Y-13288460D01*
X18408277Y-13288460D02*
X18398753Y-13297984D01*
X18398753Y-13297984D02*
X18389229Y-13288460D01*
X18389229Y-13288460D02*
X18398753Y-13278936D01*
X18398753Y-13278936D02*
X18398753Y-13297984D01*
X18579705Y-13164650D02*
X18579705Y-13297984D01*
X18532086Y-13088460D02*
X18484467Y-13231317D01*
X18484467Y-13231317D02*
X18608277Y-13231317D01*
X18722563Y-13097984D02*
X18741610Y-13097984D01*
X18741610Y-13097984D02*
X18760658Y-13107508D01*
X18760658Y-13107508D02*
X18770182Y-13117031D01*
X18770182Y-13117031D02*
X18779705Y-13136079D01*
X18779705Y-13136079D02*
X18789229Y-13174174D01*
X18789229Y-13174174D02*
X18789229Y-13221793D01*
X18789229Y-13221793D02*
X18779705Y-13259888D01*
X18779705Y-13259888D02*
X18770182Y-13278936D01*
X18770182Y-13278936D02*
X18760658Y-13288460D01*
X18760658Y-13288460D02*
X18741610Y-13297984D01*
X18741610Y-13297984D02*
X18722563Y-13297984D01*
X18722563Y-13297984D02*
X18703515Y-13288460D01*
X18703515Y-13288460D02*
X18693991Y-13278936D01*
X18693991Y-13278936D02*
X18684467Y-13259888D01*
X18684467Y-13259888D02*
X18674944Y-13221793D01*
X18674944Y-13221793D02*
X18674944Y-13174174D01*
X18674944Y-13174174D02*
X18684467Y-13136079D01*
X18684467Y-13136079D02*
X18693991Y-13117031D01*
X18693991Y-13117031D02*
X18703515Y-13107508D01*
X18703515Y-13107508D02*
X18722563Y-13097984D01*
X18913039Y-13097984D02*
X18932086Y-13097984D01*
X18932086Y-13097984D02*
X18951134Y-13107508D01*
X18951134Y-13107508D02*
X18960658Y-13117031D01*
X18960658Y-13117031D02*
X18970182Y-13136079D01*
X18970182Y-13136079D02*
X18979705Y-13174174D01*
X18979705Y-13174174D02*
X18979705Y-13221793D01*
X18979705Y-13221793D02*
X18970182Y-13259888D01*
X18970182Y-13259888D02*
X18960658Y-13278936D01*
X18960658Y-13278936D02*
X18951134Y-13288460D01*
X18951134Y-13288460D02*
X18932086Y-13297984D01*
X18932086Y-13297984D02*
X18913039Y-13297984D01*
X18913039Y-13297984D02*
X18893991Y-13288460D01*
X18893991Y-13288460D02*
X18884467Y-13278936D01*
X18884467Y-13278936D02*
X18874944Y-13259888D01*
X18874944Y-13259888D02*
X18865420Y-13221793D01*
X18865420Y-13221793D02*
X18865420Y-13174174D01*
X18865420Y-13174174D02*
X18874944Y-13136079D01*
X18874944Y-13136079D02*
X18884467Y-13117031D01*
X18884467Y-13117031D02*
X18893991Y-13107508D01*
X18893991Y-13107508D02*
X18913039Y-13097984D01*
X19065420Y-13297984D02*
X19065420Y-13164650D01*
X19065420Y-13183698D02*
X19074944Y-13174174D01*
X19074944Y-13174174D02*
X19093991Y-13164650D01*
X19093991Y-13164650D02*
X19122563Y-13164650D01*
X19122563Y-13164650D02*
X19141610Y-13174174D01*
X19141610Y-13174174D02*
X19151134Y-13193222D01*
X19151134Y-13193222D02*
X19151134Y-13297984D01*
X19151134Y-13193222D02*
X19160658Y-13174174D01*
X19160658Y-13174174D02*
X19179705Y-13164650D01*
X19179705Y-13164650D02*
X19208277Y-13164650D01*
X19208277Y-13164650D02*
X19227325Y-13174174D01*
X19227325Y-13174174D02*
X19236848Y-13193222D01*
X19236848Y-13193222D02*
X19236848Y-13297984D01*
X19332086Y-13297984D02*
X19332086Y-13164650D01*
X19332086Y-13183698D02*
X19341610Y-13174174D01*
X19341610Y-13174174D02*
X19360658Y-13164650D01*
X19360658Y-13164650D02*
X19389229Y-13164650D01*
X19389229Y-13164650D02*
X19408277Y-13174174D01*
X19408277Y-13174174D02*
X19417801Y-13193222D01*
X19417801Y-13193222D02*
X19417801Y-13297984D01*
X19417801Y-13193222D02*
X19427325Y-13174174D01*
X19427325Y-13174174D02*
X19446372Y-13164650D01*
X19446372Y-13164650D02*
X19474944Y-13164650D01*
X19474944Y-13164650D02*
X19493991Y-13174174D01*
X19493991Y-13174174D02*
X19503515Y-13193222D01*
X19503515Y-13193222D02*
X19503515Y-13297984D01*
X19893991Y-13088460D02*
X19722563Y-13345603D01*
X20151134Y-13097984D02*
X20170182Y-13097984D01*
X20170182Y-13097984D02*
X20189229Y-13107508D01*
X20189229Y-13107508D02*
X20198753Y-13117031D01*
X20198753Y-13117031D02*
X20208277Y-13136079D01*
X20208277Y-13136079D02*
X20217801Y-13174174D01*
X20217801Y-13174174D02*
X20217801Y-13221793D01*
X20217801Y-13221793D02*
X20208277Y-13259888D01*
X20208277Y-13259888D02*
X20198753Y-13278936D01*
X20198753Y-13278936D02*
X20189229Y-13288460D01*
X20189229Y-13288460D02*
X20170182Y-13297984D01*
X20170182Y-13297984D02*
X20151134Y-13297984D01*
X20151134Y-13297984D02*
X20132087Y-13288460D01*
X20132087Y-13288460D02*
X20122563Y-13278936D01*
X20122563Y-13278936D02*
X20113039Y-13259888D01*
X20113039Y-13259888D02*
X20103515Y-13221793D01*
X20103515Y-13221793D02*
X20103515Y-13174174D01*
X20103515Y-13174174D02*
X20113039Y-13136079D01*
X20113039Y-13136079D02*
X20122563Y-13117031D01*
X20122563Y-13117031D02*
X20132087Y-13107508D01*
X20132087Y-13107508D02*
X20151134Y-13097984D01*
X20303515Y-13278936D02*
X20313039Y-13288460D01*
X20313039Y-13288460D02*
X20303515Y-13297984D01*
X20303515Y-13297984D02*
X20293991Y-13288460D01*
X20293991Y-13288460D02*
X20303515Y-13278936D01*
X20303515Y-13278936D02*
X20303515Y-13297984D01*
X20436848Y-13097984D02*
X20455896Y-13097984D01*
X20455896Y-13097984D02*
X20474944Y-13107508D01*
X20474944Y-13107508D02*
X20484468Y-13117031D01*
X20484468Y-13117031D02*
X20493991Y-13136079D01*
X20493991Y-13136079D02*
X20503515Y-13174174D01*
X20503515Y-13174174D02*
X20503515Y-13221793D01*
X20503515Y-13221793D02*
X20493991Y-13259888D01*
X20493991Y-13259888D02*
X20484468Y-13278936D01*
X20484468Y-13278936D02*
X20474944Y-13288460D01*
X20474944Y-13288460D02*
X20455896Y-13297984D01*
X20455896Y-13297984D02*
X20436848Y-13297984D01*
X20436848Y-13297984D02*
X20417801Y-13288460D01*
X20417801Y-13288460D02*
X20408277Y-13278936D01*
X20408277Y-13278936D02*
X20398753Y-13259888D01*
X20398753Y-13259888D02*
X20389229Y-13221793D01*
X20389229Y-13221793D02*
X20389229Y-13174174D01*
X20389229Y-13174174D02*
X20398753Y-13136079D01*
X20398753Y-13136079D02*
X20408277Y-13117031D01*
X20408277Y-13117031D02*
X20417801Y-13107508D01*
X20417801Y-13107508D02*
X20436848Y-13097984D01*
X20693991Y-13297984D02*
X20579706Y-13297984D01*
X20636848Y-13297984D02*
X20636848Y-13097984D01*
X20636848Y-13097984D02*
X20617801Y-13126555D01*
X20617801Y-13126555D02*
X20598753Y-13145603D01*
X20598753Y-13145603D02*
X20579706Y-13155127D01*
X20874944Y-13097984D02*
X20779706Y-13097984D01*
X20779706Y-13097984D02*
X20770182Y-13193222D01*
X20770182Y-13193222D02*
X20779706Y-13183698D01*
X20779706Y-13183698D02*
X20798753Y-13174174D01*
X20798753Y-13174174D02*
X20846372Y-13174174D01*
X20846372Y-13174174D02*
X20865420Y-13183698D01*
X20865420Y-13183698D02*
X20874944Y-13193222D01*
X20874944Y-13193222D02*
X20884468Y-13212269D01*
X20884468Y-13212269D02*
X20884468Y-13259888D01*
X20884468Y-13259888D02*
X20874944Y-13278936D01*
X20874944Y-13278936D02*
X20865420Y-13288460D01*
X20865420Y-13288460D02*
X20846372Y-13297984D01*
X20846372Y-13297984D02*
X20798753Y-13297984D01*
X20798753Y-13297984D02*
X20779706Y-13288460D01*
X20779706Y-13288460D02*
X20770182Y-13278936D01*
X20951134Y-13097984D02*
X21084468Y-13097984D01*
X21084468Y-13097984D02*
X20998753Y-13297984D01*
X21151134Y-13097984D02*
X21151134Y-13136079D01*
X21227325Y-13097984D02*
X21227325Y-13136079D01*
X21522563Y-13374174D02*
X21513039Y-13364650D01*
X21513039Y-13364650D02*
X21493991Y-13336079D01*
X21493991Y-13336079D02*
X21484468Y-13317031D01*
X21484468Y-13317031D02*
X21474944Y-13288460D01*
X21474944Y-13288460D02*
X21465420Y-13240841D01*
X21465420Y-13240841D02*
X21465420Y-13202746D01*
X21465420Y-13202746D02*
X21474944Y-13155127D01*
X21474944Y-13155127D02*
X21484468Y-13126555D01*
X21484468Y-13126555D02*
X21493991Y-13107508D01*
X21493991Y-13107508D02*
X21513039Y-13078936D01*
X21513039Y-13078936D02*
X21522563Y-13069412D01*
X21579706Y-13097984D02*
X21703515Y-13097984D01*
X21703515Y-13097984D02*
X21636849Y-13174174D01*
X21636849Y-13174174D02*
X21665420Y-13174174D01*
X21665420Y-13174174D02*
X21684468Y-13183698D01*
X21684468Y-13183698D02*
X21693991Y-13193222D01*
X21693991Y-13193222D02*
X21703515Y-13212269D01*
X21703515Y-13212269D02*
X21703515Y-13259888D01*
X21703515Y-13259888D02*
X21693991Y-13278936D01*
X21693991Y-13278936D02*
X21684468Y-13288460D01*
X21684468Y-13288460D02*
X21665420Y-13297984D01*
X21665420Y-13297984D02*
X21608277Y-13297984D01*
X21608277Y-13297984D02*
X21589230Y-13288460D01*
X21589230Y-13288460D02*
X21579706Y-13278936D01*
X21874944Y-13164650D02*
X21874944Y-13297984D01*
X21827325Y-13088460D02*
X21779706Y-13231317D01*
X21779706Y-13231317D02*
X21903515Y-13231317D01*
X22132087Y-13297984D02*
X22132087Y-13097984D01*
X22217801Y-13297984D02*
X22217801Y-13193222D01*
X22217801Y-13193222D02*
X22208277Y-13174174D01*
X22208277Y-13174174D02*
X22189230Y-13164650D01*
X22189230Y-13164650D02*
X22160658Y-13164650D01*
X22160658Y-13164650D02*
X22141611Y-13174174D01*
X22141611Y-13174174D02*
X22132087Y-13183698D01*
X22341611Y-13297984D02*
X22322563Y-13288460D01*
X22322563Y-13288460D02*
X22313039Y-13278936D01*
X22313039Y-13278936D02*
X22303515Y-13259888D01*
X22303515Y-13259888D02*
X22303515Y-13202746D01*
X22303515Y-13202746D02*
X22313039Y-13183698D01*
X22313039Y-13183698D02*
X22322563Y-13174174D01*
X22322563Y-13174174D02*
X22341611Y-13164650D01*
X22341611Y-13164650D02*
X22370182Y-13164650D01*
X22370182Y-13164650D02*
X22389230Y-13174174D01*
X22389230Y-13174174D02*
X22398753Y-13183698D01*
X22398753Y-13183698D02*
X22408277Y-13202746D01*
X22408277Y-13202746D02*
X22408277Y-13259888D01*
X22408277Y-13259888D02*
X22398753Y-13278936D01*
X22398753Y-13278936D02*
X22389230Y-13288460D01*
X22389230Y-13288460D02*
X22370182Y-13297984D01*
X22370182Y-13297984D02*
X22341611Y-13297984D01*
X22522563Y-13297984D02*
X22503515Y-13288460D01*
X22503515Y-13288460D02*
X22493991Y-13269412D01*
X22493991Y-13269412D02*
X22493991Y-13097984D01*
X22674944Y-13288460D02*
X22655896Y-13297984D01*
X22655896Y-13297984D02*
X22617801Y-13297984D01*
X22617801Y-13297984D02*
X22598753Y-13288460D01*
X22598753Y-13288460D02*
X22589230Y-13269412D01*
X22589230Y-13269412D02*
X22589230Y-13193222D01*
X22589230Y-13193222D02*
X22598753Y-13174174D01*
X22598753Y-13174174D02*
X22617801Y-13164650D01*
X22617801Y-13164650D02*
X22655896Y-13164650D01*
X22655896Y-13164650D02*
X22674944Y-13174174D01*
X22674944Y-13174174D02*
X22684468Y-13193222D01*
X22684468Y-13193222D02*
X22684468Y-13212269D01*
X22684468Y-13212269D02*
X22589230Y-13231317D01*
X22760658Y-13288460D02*
X22779706Y-13297984D01*
X22779706Y-13297984D02*
X22817801Y-13297984D01*
X22817801Y-13297984D02*
X22836849Y-13288460D01*
X22836849Y-13288460D02*
X22846372Y-13269412D01*
X22846372Y-13269412D02*
X22846372Y-13259888D01*
X22846372Y-13259888D02*
X22836849Y-13240841D01*
X22836849Y-13240841D02*
X22817801Y-13231317D01*
X22817801Y-13231317D02*
X22789230Y-13231317D01*
X22789230Y-13231317D02*
X22770182Y-13221793D01*
X22770182Y-13221793D02*
X22760658Y-13202746D01*
X22760658Y-13202746D02*
X22760658Y-13193222D01*
X22760658Y-13193222D02*
X22770182Y-13174174D01*
X22770182Y-13174174D02*
X22789230Y-13164650D01*
X22789230Y-13164650D02*
X22817801Y-13164650D01*
X22817801Y-13164650D02*
X22836849Y-13174174D01*
X22913039Y-13374174D02*
X22922563Y-13364650D01*
X22922563Y-13364650D02*
X22941611Y-13336079D01*
X22941611Y-13336079D02*
X22951134Y-13317031D01*
X22951134Y-13317031D02*
X22960658Y-13288460D01*
X22960658Y-13288460D02*
X22970182Y-13240841D01*
X22970182Y-13240841D02*
X22970182Y-13202746D01*
X22970182Y-13202746D02*
X22960658Y-13155127D01*
X22960658Y-13155127D02*
X22951134Y-13126555D01*
X22951134Y-13126555D02*
X22941611Y-13107508D01*
X22941611Y-13107508D02*
X22922563Y-13078936D01*
X22922563Y-13078936D02*
X22913039Y-13069412D01*
X17847500Y-13370500D02*
X17847500Y-13570500D01*
X17747500Y-13470500D02*
X17947500Y-13470500D01*
X18293991Y-13428650D02*
X18293991Y-13561984D01*
X18246372Y-13352460D02*
X18198753Y-13495317D01*
X18198753Y-13495317D02*
X18322563Y-13495317D01*
X18398753Y-13542936D02*
X18408277Y-13552460D01*
X18408277Y-13552460D02*
X18398753Y-13561984D01*
X18398753Y-13561984D02*
X18389229Y-13552460D01*
X18389229Y-13552460D02*
X18398753Y-13542936D01*
X18398753Y-13542936D02*
X18398753Y-13561984D01*
X18532086Y-13361984D02*
X18551134Y-13361984D01*
X18551134Y-13361984D02*
X18570182Y-13371508D01*
X18570182Y-13371508D02*
X18579705Y-13381031D01*
X18579705Y-13381031D02*
X18589229Y-13400079D01*
X18589229Y-13400079D02*
X18598753Y-13438174D01*
X18598753Y-13438174D02*
X18598753Y-13485793D01*
X18598753Y-13485793D02*
X18589229Y-13523888D01*
X18589229Y-13523888D02*
X18579705Y-13542936D01*
X18579705Y-13542936D02*
X18570182Y-13552460D01*
X18570182Y-13552460D02*
X18551134Y-13561984D01*
X18551134Y-13561984D02*
X18532086Y-13561984D01*
X18532086Y-13561984D02*
X18513039Y-13552460D01*
X18513039Y-13552460D02*
X18503515Y-13542936D01*
X18503515Y-13542936D02*
X18493991Y-13523888D01*
X18493991Y-13523888D02*
X18484467Y-13485793D01*
X18484467Y-13485793D02*
X18484467Y-13438174D01*
X18484467Y-13438174D02*
X18493991Y-13400079D01*
X18493991Y-13400079D02*
X18503515Y-13381031D01*
X18503515Y-13381031D02*
X18513039Y-13371508D01*
X18513039Y-13371508D02*
X18532086Y-13361984D01*
X18722563Y-13361984D02*
X18741610Y-13361984D01*
X18741610Y-13361984D02*
X18760658Y-13371508D01*
X18760658Y-13371508D02*
X18770182Y-13381031D01*
X18770182Y-13381031D02*
X18779705Y-13400079D01*
X18779705Y-13400079D02*
X18789229Y-13438174D01*
X18789229Y-13438174D02*
X18789229Y-13485793D01*
X18789229Y-13485793D02*
X18779705Y-13523888D01*
X18779705Y-13523888D02*
X18770182Y-13542936D01*
X18770182Y-13542936D02*
X18760658Y-13552460D01*
X18760658Y-13552460D02*
X18741610Y-13561984D01*
X18741610Y-13561984D02*
X18722563Y-13561984D01*
X18722563Y-13561984D02*
X18703515Y-13552460D01*
X18703515Y-13552460D02*
X18693991Y-13542936D01*
X18693991Y-13542936D02*
X18684467Y-13523888D01*
X18684467Y-13523888D02*
X18674944Y-13485793D01*
X18674944Y-13485793D02*
X18674944Y-13438174D01*
X18674944Y-13438174D02*
X18684467Y-13400079D01*
X18684467Y-13400079D02*
X18693991Y-13381031D01*
X18693991Y-13381031D02*
X18703515Y-13371508D01*
X18703515Y-13371508D02*
X18722563Y-13361984D01*
X18913039Y-13361984D02*
X18932086Y-13361984D01*
X18932086Y-13361984D02*
X18951134Y-13371508D01*
X18951134Y-13371508D02*
X18960658Y-13381031D01*
X18960658Y-13381031D02*
X18970182Y-13400079D01*
X18970182Y-13400079D02*
X18979705Y-13438174D01*
X18979705Y-13438174D02*
X18979705Y-13485793D01*
X18979705Y-13485793D02*
X18970182Y-13523888D01*
X18970182Y-13523888D02*
X18960658Y-13542936D01*
X18960658Y-13542936D02*
X18951134Y-13552460D01*
X18951134Y-13552460D02*
X18932086Y-13561984D01*
X18932086Y-13561984D02*
X18913039Y-13561984D01*
X18913039Y-13561984D02*
X18893991Y-13552460D01*
X18893991Y-13552460D02*
X18884467Y-13542936D01*
X18884467Y-13542936D02*
X18874944Y-13523888D01*
X18874944Y-13523888D02*
X18865420Y-13485793D01*
X18865420Y-13485793D02*
X18865420Y-13438174D01*
X18865420Y-13438174D02*
X18874944Y-13400079D01*
X18874944Y-13400079D02*
X18884467Y-13381031D01*
X18884467Y-13381031D02*
X18893991Y-13371508D01*
X18893991Y-13371508D02*
X18913039Y-13361984D01*
X19065420Y-13561984D02*
X19065420Y-13428650D01*
X19065420Y-13447698D02*
X19074944Y-13438174D01*
X19074944Y-13438174D02*
X19093991Y-13428650D01*
X19093991Y-13428650D02*
X19122563Y-13428650D01*
X19122563Y-13428650D02*
X19141610Y-13438174D01*
X19141610Y-13438174D02*
X19151134Y-13457222D01*
X19151134Y-13457222D02*
X19151134Y-13561984D01*
X19151134Y-13457222D02*
X19160658Y-13438174D01*
X19160658Y-13438174D02*
X19179705Y-13428650D01*
X19179705Y-13428650D02*
X19208277Y-13428650D01*
X19208277Y-13428650D02*
X19227325Y-13438174D01*
X19227325Y-13438174D02*
X19236848Y-13457222D01*
X19236848Y-13457222D02*
X19236848Y-13561984D01*
X19332086Y-13561984D02*
X19332086Y-13428650D01*
X19332086Y-13447698D02*
X19341610Y-13438174D01*
X19341610Y-13438174D02*
X19360658Y-13428650D01*
X19360658Y-13428650D02*
X19389229Y-13428650D01*
X19389229Y-13428650D02*
X19408277Y-13438174D01*
X19408277Y-13438174D02*
X19417801Y-13457222D01*
X19417801Y-13457222D02*
X19417801Y-13561984D01*
X19417801Y-13457222D02*
X19427325Y-13438174D01*
X19427325Y-13438174D02*
X19446372Y-13428650D01*
X19446372Y-13428650D02*
X19474944Y-13428650D01*
X19474944Y-13428650D02*
X19493991Y-13438174D01*
X19493991Y-13438174D02*
X19503515Y-13457222D01*
X19503515Y-13457222D02*
X19503515Y-13561984D01*
X19893991Y-13352460D02*
X19722563Y-13609603D01*
X20151134Y-13361984D02*
X20170182Y-13361984D01*
X20170182Y-13361984D02*
X20189229Y-13371508D01*
X20189229Y-13371508D02*
X20198753Y-13381031D01*
X20198753Y-13381031D02*
X20208277Y-13400079D01*
X20208277Y-13400079D02*
X20217801Y-13438174D01*
X20217801Y-13438174D02*
X20217801Y-13485793D01*
X20217801Y-13485793D02*
X20208277Y-13523888D01*
X20208277Y-13523888D02*
X20198753Y-13542936D01*
X20198753Y-13542936D02*
X20189229Y-13552460D01*
X20189229Y-13552460D02*
X20170182Y-13561984D01*
X20170182Y-13561984D02*
X20151134Y-13561984D01*
X20151134Y-13561984D02*
X20132087Y-13552460D01*
X20132087Y-13552460D02*
X20122563Y-13542936D01*
X20122563Y-13542936D02*
X20113039Y-13523888D01*
X20113039Y-13523888D02*
X20103515Y-13485793D01*
X20103515Y-13485793D02*
X20103515Y-13438174D01*
X20103515Y-13438174D02*
X20113039Y-13400079D01*
X20113039Y-13400079D02*
X20122563Y-13381031D01*
X20122563Y-13381031D02*
X20132087Y-13371508D01*
X20132087Y-13371508D02*
X20151134Y-13361984D01*
X20303515Y-13542936D02*
X20313039Y-13552460D01*
X20313039Y-13552460D02*
X20303515Y-13561984D01*
X20303515Y-13561984D02*
X20293991Y-13552460D01*
X20293991Y-13552460D02*
X20303515Y-13542936D01*
X20303515Y-13542936D02*
X20303515Y-13561984D01*
X20503515Y-13561984D02*
X20389229Y-13561984D01*
X20446372Y-13561984D02*
X20446372Y-13361984D01*
X20446372Y-13361984D02*
X20427325Y-13390555D01*
X20427325Y-13390555D02*
X20408277Y-13409603D01*
X20408277Y-13409603D02*
X20389229Y-13419127D01*
X20684468Y-13361984D02*
X20589229Y-13361984D01*
X20589229Y-13361984D02*
X20579706Y-13457222D01*
X20579706Y-13457222D02*
X20589229Y-13447698D01*
X20589229Y-13447698D02*
X20608277Y-13438174D01*
X20608277Y-13438174D02*
X20655896Y-13438174D01*
X20655896Y-13438174D02*
X20674944Y-13447698D01*
X20674944Y-13447698D02*
X20684468Y-13457222D01*
X20684468Y-13457222D02*
X20693991Y-13476269D01*
X20693991Y-13476269D02*
X20693991Y-13523888D01*
X20693991Y-13523888D02*
X20684468Y-13542936D01*
X20684468Y-13542936D02*
X20674944Y-13552460D01*
X20674944Y-13552460D02*
X20655896Y-13561984D01*
X20655896Y-13561984D02*
X20608277Y-13561984D01*
X20608277Y-13561984D02*
X20589229Y-13552460D01*
X20589229Y-13552460D02*
X20579706Y-13542936D01*
X20760658Y-13361984D02*
X20893991Y-13361984D01*
X20893991Y-13361984D02*
X20808277Y-13561984D01*
X21065420Y-13361984D02*
X20970182Y-13361984D01*
X20970182Y-13361984D02*
X20960658Y-13457222D01*
X20960658Y-13457222D02*
X20970182Y-13447698D01*
X20970182Y-13447698D02*
X20989229Y-13438174D01*
X20989229Y-13438174D02*
X21036849Y-13438174D01*
X21036849Y-13438174D02*
X21055896Y-13447698D01*
X21055896Y-13447698D02*
X21065420Y-13457222D01*
X21065420Y-13457222D02*
X21074944Y-13476269D01*
X21074944Y-13476269D02*
X21074944Y-13523888D01*
X21074944Y-13523888D02*
X21065420Y-13542936D01*
X21065420Y-13542936D02*
X21055896Y-13552460D01*
X21055896Y-13552460D02*
X21036849Y-13561984D01*
X21036849Y-13561984D02*
X20989229Y-13561984D01*
X20989229Y-13561984D02*
X20970182Y-13552460D01*
X20970182Y-13552460D02*
X20960658Y-13542936D01*
X21151134Y-13361984D02*
X21151134Y-13400079D01*
X21227325Y-13361984D02*
X21227325Y-13400079D01*
X21522563Y-13638174D02*
X21513039Y-13628650D01*
X21513039Y-13628650D02*
X21493991Y-13600079D01*
X21493991Y-13600079D02*
X21484468Y-13581031D01*
X21484468Y-13581031D02*
X21474944Y-13552460D01*
X21474944Y-13552460D02*
X21465420Y-13504841D01*
X21465420Y-13504841D02*
X21465420Y-13466746D01*
X21465420Y-13466746D02*
X21474944Y-13419127D01*
X21474944Y-13419127D02*
X21484468Y-13390555D01*
X21484468Y-13390555D02*
X21493991Y-13371508D01*
X21493991Y-13371508D02*
X21513039Y-13342936D01*
X21513039Y-13342936D02*
X21522563Y-13333412D01*
X21703515Y-13561984D02*
X21589230Y-13561984D01*
X21646372Y-13561984D02*
X21646372Y-13361984D01*
X21646372Y-13361984D02*
X21627325Y-13390555D01*
X21627325Y-13390555D02*
X21608277Y-13409603D01*
X21608277Y-13409603D02*
X21589230Y-13419127D01*
X21779706Y-13381031D02*
X21789230Y-13371508D01*
X21789230Y-13371508D02*
X21808277Y-13361984D01*
X21808277Y-13361984D02*
X21855896Y-13361984D01*
X21855896Y-13361984D02*
X21874944Y-13371508D01*
X21874944Y-13371508D02*
X21884468Y-13381031D01*
X21884468Y-13381031D02*
X21893991Y-13400079D01*
X21893991Y-13400079D02*
X21893991Y-13419127D01*
X21893991Y-13419127D02*
X21884468Y-13447698D01*
X21884468Y-13447698D02*
X21770182Y-13561984D01*
X21770182Y-13561984D02*
X21893991Y-13561984D01*
X22132087Y-13561984D02*
X22132087Y-13361984D01*
X22217801Y-13561984D02*
X22217801Y-13457222D01*
X22217801Y-13457222D02*
X22208277Y-13438174D01*
X22208277Y-13438174D02*
X22189230Y-13428650D01*
X22189230Y-13428650D02*
X22160658Y-13428650D01*
X22160658Y-13428650D02*
X22141611Y-13438174D01*
X22141611Y-13438174D02*
X22132087Y-13447698D01*
X22341611Y-13561984D02*
X22322563Y-13552460D01*
X22322563Y-13552460D02*
X22313039Y-13542936D01*
X22313039Y-13542936D02*
X22303515Y-13523888D01*
X22303515Y-13523888D02*
X22303515Y-13466746D01*
X22303515Y-13466746D02*
X22313039Y-13447698D01*
X22313039Y-13447698D02*
X22322563Y-13438174D01*
X22322563Y-13438174D02*
X22341611Y-13428650D01*
X22341611Y-13428650D02*
X22370182Y-13428650D01*
X22370182Y-13428650D02*
X22389230Y-13438174D01*
X22389230Y-13438174D02*
X22398753Y-13447698D01*
X22398753Y-13447698D02*
X22408277Y-13466746D01*
X22408277Y-13466746D02*
X22408277Y-13523888D01*
X22408277Y-13523888D02*
X22398753Y-13542936D01*
X22398753Y-13542936D02*
X22389230Y-13552460D01*
X22389230Y-13552460D02*
X22370182Y-13561984D01*
X22370182Y-13561984D02*
X22341611Y-13561984D01*
X22522563Y-13561984D02*
X22503515Y-13552460D01*
X22503515Y-13552460D02*
X22493991Y-13533412D01*
X22493991Y-13533412D02*
X22493991Y-13361984D01*
X22674944Y-13552460D02*
X22655896Y-13561984D01*
X22655896Y-13561984D02*
X22617801Y-13561984D01*
X22617801Y-13561984D02*
X22598753Y-13552460D01*
X22598753Y-13552460D02*
X22589230Y-13533412D01*
X22589230Y-13533412D02*
X22589230Y-13457222D01*
X22589230Y-13457222D02*
X22598753Y-13438174D01*
X22598753Y-13438174D02*
X22617801Y-13428650D01*
X22617801Y-13428650D02*
X22655896Y-13428650D01*
X22655896Y-13428650D02*
X22674944Y-13438174D01*
X22674944Y-13438174D02*
X22684468Y-13457222D01*
X22684468Y-13457222D02*
X22684468Y-13476269D01*
X22684468Y-13476269D02*
X22589230Y-13495317D01*
X22760658Y-13552460D02*
X22779706Y-13561984D01*
X22779706Y-13561984D02*
X22817801Y-13561984D01*
X22817801Y-13561984D02*
X22836849Y-13552460D01*
X22836849Y-13552460D02*
X22846372Y-13533412D01*
X22846372Y-13533412D02*
X22846372Y-13523888D01*
X22846372Y-13523888D02*
X22836849Y-13504841D01*
X22836849Y-13504841D02*
X22817801Y-13495317D01*
X22817801Y-13495317D02*
X22789230Y-13495317D01*
X22789230Y-13495317D02*
X22770182Y-13485793D01*
X22770182Y-13485793D02*
X22760658Y-13466746D01*
X22760658Y-13466746D02*
X22760658Y-13457222D01*
X22760658Y-13457222D02*
X22770182Y-13438174D01*
X22770182Y-13438174D02*
X22789230Y-13428650D01*
X22789230Y-13428650D02*
X22817801Y-13428650D01*
X22817801Y-13428650D02*
X22836849Y-13438174D01*
X22913039Y-13638174D02*
X22922563Y-13628650D01*
X22922563Y-13628650D02*
X22941611Y-13600079D01*
X22941611Y-13600079D02*
X22951134Y-13581031D01*
X22951134Y-13581031D02*
X22960658Y-13552460D01*
X22960658Y-13552460D02*
X22970182Y-13504841D01*
X22970182Y-13504841D02*
X22970182Y-13466746D01*
X22970182Y-13466746D02*
X22960658Y-13419127D01*
X22960658Y-13419127D02*
X22951134Y-13390555D01*
X22951134Y-13390555D02*
X22941611Y-13371508D01*
X22941611Y-13371508D02*
X22922563Y-13342936D01*
X22922563Y-13342936D02*
X22913039Y-13333412D01*
X17918211Y-13861211D02*
X17918211Y-13719789D01*
X17776789Y-13719789D01*
X17776789Y-13861211D01*
X17918211Y-13861211D01*
X18293991Y-13748650D02*
X18293991Y-13881984D01*
X18246372Y-13672460D02*
X18198753Y-13815317D01*
X18198753Y-13815317D02*
X18322563Y-13815317D01*
X18398753Y-13862936D02*
X18408277Y-13872460D01*
X18408277Y-13872460D02*
X18398753Y-13881984D01*
X18398753Y-13881984D02*
X18389229Y-13872460D01*
X18389229Y-13872460D02*
X18398753Y-13862936D01*
X18398753Y-13862936D02*
X18398753Y-13881984D01*
X18598753Y-13881984D02*
X18484467Y-13881984D01*
X18541610Y-13881984D02*
X18541610Y-13681984D01*
X18541610Y-13681984D02*
X18522563Y-13710555D01*
X18522563Y-13710555D02*
X18503515Y-13729603D01*
X18503515Y-13729603D02*
X18484467Y-13739127D01*
X18722563Y-13681984D02*
X18741610Y-13681984D01*
X18741610Y-13681984D02*
X18760658Y-13691508D01*
X18760658Y-13691508D02*
X18770182Y-13701031D01*
X18770182Y-13701031D02*
X18779705Y-13720079D01*
X18779705Y-13720079D02*
X18789229Y-13758174D01*
X18789229Y-13758174D02*
X18789229Y-13805793D01*
X18789229Y-13805793D02*
X18779705Y-13843888D01*
X18779705Y-13843888D02*
X18770182Y-13862936D01*
X18770182Y-13862936D02*
X18760658Y-13872460D01*
X18760658Y-13872460D02*
X18741610Y-13881984D01*
X18741610Y-13881984D02*
X18722563Y-13881984D01*
X18722563Y-13881984D02*
X18703515Y-13872460D01*
X18703515Y-13872460D02*
X18693991Y-13862936D01*
X18693991Y-13862936D02*
X18684467Y-13843888D01*
X18684467Y-13843888D02*
X18674944Y-13805793D01*
X18674944Y-13805793D02*
X18674944Y-13758174D01*
X18674944Y-13758174D02*
X18684467Y-13720079D01*
X18684467Y-13720079D02*
X18693991Y-13701031D01*
X18693991Y-13701031D02*
X18703515Y-13691508D01*
X18703515Y-13691508D02*
X18722563Y-13681984D01*
X18913039Y-13681984D02*
X18932086Y-13681984D01*
X18932086Y-13681984D02*
X18951134Y-13691508D01*
X18951134Y-13691508D02*
X18960658Y-13701031D01*
X18960658Y-13701031D02*
X18970182Y-13720079D01*
X18970182Y-13720079D02*
X18979705Y-13758174D01*
X18979705Y-13758174D02*
X18979705Y-13805793D01*
X18979705Y-13805793D02*
X18970182Y-13843888D01*
X18970182Y-13843888D02*
X18960658Y-13862936D01*
X18960658Y-13862936D02*
X18951134Y-13872460D01*
X18951134Y-13872460D02*
X18932086Y-13881984D01*
X18932086Y-13881984D02*
X18913039Y-13881984D01*
X18913039Y-13881984D02*
X18893991Y-13872460D01*
X18893991Y-13872460D02*
X18884467Y-13862936D01*
X18884467Y-13862936D02*
X18874944Y-13843888D01*
X18874944Y-13843888D02*
X18865420Y-13805793D01*
X18865420Y-13805793D02*
X18865420Y-13758174D01*
X18865420Y-13758174D02*
X18874944Y-13720079D01*
X18874944Y-13720079D02*
X18884467Y-13701031D01*
X18884467Y-13701031D02*
X18893991Y-13691508D01*
X18893991Y-13691508D02*
X18913039Y-13681984D01*
X19065420Y-13881984D02*
X19065420Y-13748650D01*
X19065420Y-13767698D02*
X19074944Y-13758174D01*
X19074944Y-13758174D02*
X19093991Y-13748650D01*
X19093991Y-13748650D02*
X19122563Y-13748650D01*
X19122563Y-13748650D02*
X19141610Y-13758174D01*
X19141610Y-13758174D02*
X19151134Y-13777222D01*
X19151134Y-13777222D02*
X19151134Y-13881984D01*
X19151134Y-13777222D02*
X19160658Y-13758174D01*
X19160658Y-13758174D02*
X19179705Y-13748650D01*
X19179705Y-13748650D02*
X19208277Y-13748650D01*
X19208277Y-13748650D02*
X19227325Y-13758174D01*
X19227325Y-13758174D02*
X19236848Y-13777222D01*
X19236848Y-13777222D02*
X19236848Y-13881984D01*
X19332086Y-13881984D02*
X19332086Y-13748650D01*
X19332086Y-13767698D02*
X19341610Y-13758174D01*
X19341610Y-13758174D02*
X19360658Y-13748650D01*
X19360658Y-13748650D02*
X19389229Y-13748650D01*
X19389229Y-13748650D02*
X19408277Y-13758174D01*
X19408277Y-13758174D02*
X19417801Y-13777222D01*
X19417801Y-13777222D02*
X19417801Y-13881984D01*
X19417801Y-13777222D02*
X19427325Y-13758174D01*
X19427325Y-13758174D02*
X19446372Y-13748650D01*
X19446372Y-13748650D02*
X19474944Y-13748650D01*
X19474944Y-13748650D02*
X19493991Y-13758174D01*
X19493991Y-13758174D02*
X19503515Y-13777222D01*
X19503515Y-13777222D02*
X19503515Y-13881984D01*
X19893991Y-13672460D02*
X19722563Y-13929603D01*
X20151134Y-13681984D02*
X20170182Y-13681984D01*
X20170182Y-13681984D02*
X20189229Y-13691508D01*
X20189229Y-13691508D02*
X20198753Y-13701031D01*
X20198753Y-13701031D02*
X20208277Y-13720079D01*
X20208277Y-13720079D02*
X20217801Y-13758174D01*
X20217801Y-13758174D02*
X20217801Y-13805793D01*
X20217801Y-13805793D02*
X20208277Y-13843888D01*
X20208277Y-13843888D02*
X20198753Y-13862936D01*
X20198753Y-13862936D02*
X20189229Y-13872460D01*
X20189229Y-13872460D02*
X20170182Y-13881984D01*
X20170182Y-13881984D02*
X20151134Y-13881984D01*
X20151134Y-13881984D02*
X20132087Y-13872460D01*
X20132087Y-13872460D02*
X20122563Y-13862936D01*
X20122563Y-13862936D02*
X20113039Y-13843888D01*
X20113039Y-13843888D02*
X20103515Y-13805793D01*
X20103515Y-13805793D02*
X20103515Y-13758174D01*
X20103515Y-13758174D02*
X20113039Y-13720079D01*
X20113039Y-13720079D02*
X20122563Y-13701031D01*
X20122563Y-13701031D02*
X20132087Y-13691508D01*
X20132087Y-13691508D02*
X20151134Y-13681984D01*
X20303515Y-13862936D02*
X20313039Y-13872460D01*
X20313039Y-13872460D02*
X20303515Y-13881984D01*
X20303515Y-13881984D02*
X20293991Y-13872460D01*
X20293991Y-13872460D02*
X20303515Y-13862936D01*
X20303515Y-13862936D02*
X20303515Y-13881984D01*
X20503515Y-13881984D02*
X20389229Y-13881984D01*
X20446372Y-13881984D02*
X20446372Y-13681984D01*
X20446372Y-13681984D02*
X20427325Y-13710555D01*
X20427325Y-13710555D02*
X20408277Y-13729603D01*
X20408277Y-13729603D02*
X20389229Y-13739127D01*
X20674944Y-13681984D02*
X20636848Y-13681984D01*
X20636848Y-13681984D02*
X20617801Y-13691508D01*
X20617801Y-13691508D02*
X20608277Y-13701031D01*
X20608277Y-13701031D02*
X20589229Y-13729603D01*
X20589229Y-13729603D02*
X20579706Y-13767698D01*
X20579706Y-13767698D02*
X20579706Y-13843888D01*
X20579706Y-13843888D02*
X20589229Y-13862936D01*
X20589229Y-13862936D02*
X20598753Y-13872460D01*
X20598753Y-13872460D02*
X20617801Y-13881984D01*
X20617801Y-13881984D02*
X20655896Y-13881984D01*
X20655896Y-13881984D02*
X20674944Y-13872460D01*
X20674944Y-13872460D02*
X20684468Y-13862936D01*
X20684468Y-13862936D02*
X20693991Y-13843888D01*
X20693991Y-13843888D02*
X20693991Y-13796269D01*
X20693991Y-13796269D02*
X20684468Y-13777222D01*
X20684468Y-13777222D02*
X20674944Y-13767698D01*
X20674944Y-13767698D02*
X20655896Y-13758174D01*
X20655896Y-13758174D02*
X20617801Y-13758174D01*
X20617801Y-13758174D02*
X20598753Y-13767698D01*
X20598753Y-13767698D02*
X20589229Y-13777222D01*
X20589229Y-13777222D02*
X20579706Y-13796269D01*
X20884468Y-13881984D02*
X20770182Y-13881984D01*
X20827325Y-13881984D02*
X20827325Y-13681984D01*
X20827325Y-13681984D02*
X20808277Y-13710555D01*
X20808277Y-13710555D02*
X20789229Y-13729603D01*
X20789229Y-13729603D02*
X20770182Y-13739127D01*
X21055896Y-13748650D02*
X21055896Y-13881984D01*
X21008277Y-13672460D02*
X20960658Y-13815317D01*
X20960658Y-13815317D02*
X21084468Y-13815317D01*
X21151134Y-13681984D02*
X21151134Y-13720079D01*
X21227325Y-13681984D02*
X21227325Y-13720079D01*
X21522563Y-13958174D02*
X21513039Y-13948650D01*
X21513039Y-13948650D02*
X21493991Y-13920079D01*
X21493991Y-13920079D02*
X21484468Y-13901031D01*
X21484468Y-13901031D02*
X21474944Y-13872460D01*
X21474944Y-13872460D02*
X21465420Y-13824841D01*
X21465420Y-13824841D02*
X21465420Y-13786746D01*
X21465420Y-13786746D02*
X21474944Y-13739127D01*
X21474944Y-13739127D02*
X21484468Y-13710555D01*
X21484468Y-13710555D02*
X21493991Y-13691508D01*
X21493991Y-13691508D02*
X21513039Y-13662936D01*
X21513039Y-13662936D02*
X21522563Y-13653412D01*
X21684468Y-13681984D02*
X21646372Y-13681984D01*
X21646372Y-13681984D02*
X21627325Y-13691508D01*
X21627325Y-13691508D02*
X21617801Y-13701031D01*
X21617801Y-13701031D02*
X21598753Y-13729603D01*
X21598753Y-13729603D02*
X21589230Y-13767698D01*
X21589230Y-13767698D02*
X21589230Y-13843888D01*
X21589230Y-13843888D02*
X21598753Y-13862936D01*
X21598753Y-13862936D02*
X21608277Y-13872460D01*
X21608277Y-13872460D02*
X21627325Y-13881984D01*
X21627325Y-13881984D02*
X21665420Y-13881984D01*
X21665420Y-13881984D02*
X21684468Y-13872460D01*
X21684468Y-13872460D02*
X21693991Y-13862936D01*
X21693991Y-13862936D02*
X21703515Y-13843888D01*
X21703515Y-13843888D02*
X21703515Y-13796269D01*
X21703515Y-13796269D02*
X21693991Y-13777222D01*
X21693991Y-13777222D02*
X21684468Y-13767698D01*
X21684468Y-13767698D02*
X21665420Y-13758174D01*
X21665420Y-13758174D02*
X21627325Y-13758174D01*
X21627325Y-13758174D02*
X21608277Y-13767698D01*
X21608277Y-13767698D02*
X21598753Y-13777222D01*
X21598753Y-13777222D02*
X21589230Y-13796269D01*
X21941611Y-13881984D02*
X21941611Y-13681984D01*
X22027325Y-13881984D02*
X22027325Y-13777222D01*
X22027325Y-13777222D02*
X22017801Y-13758174D01*
X22017801Y-13758174D02*
X21998753Y-13748650D01*
X21998753Y-13748650D02*
X21970182Y-13748650D01*
X21970182Y-13748650D02*
X21951134Y-13758174D01*
X21951134Y-13758174D02*
X21941611Y-13767698D01*
X22151134Y-13881984D02*
X22132087Y-13872460D01*
X22132087Y-13872460D02*
X22122563Y-13862936D01*
X22122563Y-13862936D02*
X22113039Y-13843888D01*
X22113039Y-13843888D02*
X22113039Y-13786746D01*
X22113039Y-13786746D02*
X22122563Y-13767698D01*
X22122563Y-13767698D02*
X22132087Y-13758174D01*
X22132087Y-13758174D02*
X22151134Y-13748650D01*
X22151134Y-13748650D02*
X22179706Y-13748650D01*
X22179706Y-13748650D02*
X22198753Y-13758174D01*
X22198753Y-13758174D02*
X22208277Y-13767698D01*
X22208277Y-13767698D02*
X22217801Y-13786746D01*
X22217801Y-13786746D02*
X22217801Y-13843888D01*
X22217801Y-13843888D02*
X22208277Y-13862936D01*
X22208277Y-13862936D02*
X22198753Y-13872460D01*
X22198753Y-13872460D02*
X22179706Y-13881984D01*
X22179706Y-13881984D02*
X22151134Y-13881984D01*
X22332087Y-13881984D02*
X22313039Y-13872460D01*
X22313039Y-13872460D02*
X22303515Y-13853412D01*
X22303515Y-13853412D02*
X22303515Y-13681984D01*
X22484468Y-13872460D02*
X22465420Y-13881984D01*
X22465420Y-13881984D02*
X22427325Y-13881984D01*
X22427325Y-13881984D02*
X22408277Y-13872460D01*
X22408277Y-13872460D02*
X22398753Y-13853412D01*
X22398753Y-13853412D02*
X22398753Y-13777222D01*
X22398753Y-13777222D02*
X22408277Y-13758174D01*
X22408277Y-13758174D02*
X22427325Y-13748650D01*
X22427325Y-13748650D02*
X22465420Y-13748650D01*
X22465420Y-13748650D02*
X22484468Y-13758174D01*
X22484468Y-13758174D02*
X22493991Y-13777222D01*
X22493991Y-13777222D02*
X22493991Y-13796269D01*
X22493991Y-13796269D02*
X22398753Y-13815317D01*
X22570182Y-13872460D02*
X22589230Y-13881984D01*
X22589230Y-13881984D02*
X22627325Y-13881984D01*
X22627325Y-13881984D02*
X22646372Y-13872460D01*
X22646372Y-13872460D02*
X22655896Y-13853412D01*
X22655896Y-13853412D02*
X22655896Y-13843888D01*
X22655896Y-13843888D02*
X22646372Y-13824841D01*
X22646372Y-13824841D02*
X22627325Y-13815317D01*
X22627325Y-13815317D02*
X22598753Y-13815317D01*
X22598753Y-13815317D02*
X22579706Y-13805793D01*
X22579706Y-13805793D02*
X22570182Y-13786746D01*
X22570182Y-13786746D02*
X22570182Y-13777222D01*
X22570182Y-13777222D02*
X22579706Y-13758174D01*
X22579706Y-13758174D02*
X22598753Y-13748650D01*
X22598753Y-13748650D02*
X22627325Y-13748650D01*
X22627325Y-13748650D02*
X22646372Y-13758174D01*
X22722563Y-13958174D02*
X22732087Y-13948650D01*
X22732087Y-13948650D02*
X22751134Y-13920079D01*
X22751134Y-13920079D02*
X22760658Y-13901031D01*
X22760658Y-13901031D02*
X22770182Y-13872460D01*
X22770182Y-13872460D02*
X22779706Y-13824841D01*
X22779706Y-13824841D02*
X22779706Y-13786746D01*
X22779706Y-13786746D02*
X22770182Y-13739127D01*
X22770182Y-13739127D02*
X22760658Y-13710555D01*
X22760658Y-13710555D02*
X22751134Y-13691508D01*
X22751134Y-13691508D02*
X22732087Y-13662936D01*
X22732087Y-13662936D02*
X22722563Y-13653412D01*
M02*
