%TF.GenerationSoftware,KiCad,Pcbnew,10.0.1*%
%TF.CreationDate,2026-06-02T02:53:44+05:30*%
%TF.ProjectId,VENDETTAESC,56454e44-4554-4544-9145-53432e6b6963,rev?*%
%TF.SameCoordinates,Original*%
%TF.FileFunction,Drillmap*%
%TF.FilePolarity,Positive*%
%FSLAX45Y45*%
G04 Gerber Fmt 4.5, Leading zero omitted, Abs format (unit mm)*
G04 Created by KiCad (PCBNEW 10.0.1) date 2026-06-02 02:53:44*
%MOMM*%
%LPD*%
G01*
G04 APERTURE LIST*
%ADD10C,0.050000*%
%ADD11C,0.200000*%
G04 APERTURE END LIST*
D10*
X17950000Y-8500000D02*
X17950000Y-8860000D01*
X17950000Y-9140000D02*
X17950000Y-9260000D01*
X17950000Y-9540000D02*
X17950000Y-9660000D01*
X17950000Y-9940000D02*
X17950000Y-10060000D01*
X17950000Y-10340000D02*
X17950000Y-10460000D01*
X17950000Y-10740000D02*
X17950000Y-10860000D01*
X17950000Y-11140000D02*
X17950000Y-11550000D01*
X18450000Y-8000000D02*
X18950000Y-8000000D01*
X18950000Y-8000000D02*
X18950000Y-8050000D01*
X18950000Y-12050000D02*
X18450000Y-12050000D01*
X19200000Y-8300000D02*
X20750000Y-8300000D01*
X19380000Y-12300000D02*
X19200000Y-12300000D01*
X19680000Y-12300000D02*
X19875000Y-12300000D01*
X19875000Y-12300000D02*
X19875000Y-12141000D01*
X20075000Y-12300000D02*
X20075000Y-12141000D01*
X20260000Y-12300000D02*
X20075000Y-12300000D01*
X20560000Y-12300000D02*
X20750000Y-12300000D01*
X21000000Y-8000000D02*
X21500000Y-8000000D01*
X21000000Y-8050000D02*
X21000000Y-8000000D01*
X21000000Y-12050000D02*
X21500000Y-12050000D01*
X21999667Y-9150333D02*
X21999667Y-9249667D01*
X21999667Y-9550333D02*
X21999667Y-9649667D01*
X21999667Y-9950333D02*
X21999667Y-10049667D01*
X21999667Y-10350333D02*
X21999667Y-10449667D01*
X21999667Y-10750333D02*
X21999667Y-10849667D01*
X21999667Y-11150333D02*
X21999667Y-11550000D01*
X22000000Y-8500000D02*
X22000000Y-8849667D01*
X17950000Y-8500000D02*
G75*
G02*
X18450000Y-8000000I500000J0D01*
G01*
X17950000Y-8860000D02*
G75*
G02*
X17950000Y-9140000I-140000J-140000D01*
G01*
X17950000Y-9260000D02*
G75*
G02*
X17950000Y-9540000I-140000J-140000D01*
G01*
X17950000Y-9660000D02*
G75*
G02*
X17950000Y-9940000I-140000J-140000D01*
G01*
X17950000Y-10060000D02*
G75*
G02*
X17950000Y-10340000I-140000J-140000D01*
G01*
X17950000Y-10460000D02*
G75*
G02*
X17950000Y-10740000I-140000J-140000D01*
G01*
X17950000Y-10860000D02*
G75*
G02*
X17950000Y-11140000I-140000J-140000D01*
G01*
X18450000Y-12050000D02*
G75*
G02*
X17950000Y-11550000I0J500000D01*
G01*
X18950000Y-12050000D02*
G75*
G02*
X19200000Y-12300000I0J-250000D01*
G01*
X19200000Y-8300000D02*
G75*
G02*
X18950000Y-8050000I0J250000D01*
G01*
X19380000Y-12300000D02*
G75*
G02*
X19680000Y-12300000I150000J0D01*
G01*
X19875000Y-12141000D02*
G75*
G02*
X20075000Y-12141000I100000J0D01*
G01*
X20260000Y-12300000D02*
G75*
G02*
X20560000Y-12300000I150000J0D01*
G01*
X20750000Y-12300000D02*
G75*
G02*
X21000000Y-12050000I250000J0D01*
G01*
X21000000Y-8050000D02*
G75*
G02*
X20750000Y-8300000I-250000J0D01*
G01*
X21500000Y-8000000D02*
G75*
G02*
X22000000Y-8500000I0J-500000D01*
G01*
X21999667Y-9150333D02*
G75*
G02*
X21999667Y-8849667I150333J150333D01*
G01*
X21999667Y-9550333D02*
G75*
G02*
X21999667Y-9249667I150333J150333D01*
G01*
X21999667Y-9950333D02*
G75*
G02*
X21999667Y-9649667I150333J150333D01*
G01*
X21999667Y-10350333D02*
G75*
G02*
X21999667Y-10049667I150333J150333D01*
G01*
X21999667Y-10750333D02*
G75*
G02*
X21999667Y-10449667I150333J150333D01*
G01*
X21999667Y-11150333D02*
G75*
G02*
X21999667Y-10849667I150333J150333D01*
G01*
X22000000Y-11550000D02*
G75*
G02*
X21500000Y-12050000I-500000J0D01*
G01*
D11*
X18208277Y-12613984D02*
X18208277Y-12413984D01*
X18208277Y-12413984D02*
X18255896Y-12413984D01*
X18255896Y-12413984D02*
X18284467Y-12423508D01*
X18284467Y-12423508D02*
X18303515Y-12442555D01*
X18303515Y-12442555D02*
X18313039Y-12461603D01*
X18313039Y-12461603D02*
X18322563Y-12499698D01*
X18322563Y-12499698D02*
X18322563Y-12528269D01*
X18322563Y-12528269D02*
X18313039Y-12566365D01*
X18313039Y-12566365D02*
X18303515Y-12585412D01*
X18303515Y-12585412D02*
X18284467Y-12604460D01*
X18284467Y-12604460D02*
X18255896Y-12613984D01*
X18255896Y-12613984D02*
X18208277Y-12613984D01*
X18408277Y-12613984D02*
X18408277Y-12480650D01*
X18408277Y-12518746D02*
X18417801Y-12499698D01*
X18417801Y-12499698D02*
X18427324Y-12490174D01*
X18427324Y-12490174D02*
X18446372Y-12480650D01*
X18446372Y-12480650D02*
X18465420Y-12480650D01*
X18532086Y-12613984D02*
X18532086Y-12480650D01*
X18532086Y-12413984D02*
X18522563Y-12423508D01*
X18522563Y-12423508D02*
X18532086Y-12433031D01*
X18532086Y-12433031D02*
X18541610Y-12423508D01*
X18541610Y-12423508D02*
X18532086Y-12413984D01*
X18532086Y-12413984D02*
X18532086Y-12433031D01*
X18655896Y-12613984D02*
X18636848Y-12604460D01*
X18636848Y-12604460D02*
X18627324Y-12585412D01*
X18627324Y-12585412D02*
X18627324Y-12413984D01*
X18760658Y-12613984D02*
X18741610Y-12604460D01*
X18741610Y-12604460D02*
X18732086Y-12585412D01*
X18732086Y-12585412D02*
X18732086Y-12413984D01*
X18989229Y-12613984D02*
X18989229Y-12413984D01*
X18989229Y-12413984D02*
X19055896Y-12556841D01*
X19055896Y-12556841D02*
X19122563Y-12413984D01*
X19122563Y-12413984D02*
X19122563Y-12613984D01*
X19303515Y-12613984D02*
X19303515Y-12509222D01*
X19303515Y-12509222D02*
X19293991Y-12490174D01*
X19293991Y-12490174D02*
X19274944Y-12480650D01*
X19274944Y-12480650D02*
X19236848Y-12480650D01*
X19236848Y-12480650D02*
X19217801Y-12490174D01*
X19303515Y-12604460D02*
X19284467Y-12613984D01*
X19284467Y-12613984D02*
X19236848Y-12613984D01*
X19236848Y-12613984D02*
X19217801Y-12604460D01*
X19217801Y-12604460D02*
X19208277Y-12585412D01*
X19208277Y-12585412D02*
X19208277Y-12566365D01*
X19208277Y-12566365D02*
X19217801Y-12547317D01*
X19217801Y-12547317D02*
X19236848Y-12537793D01*
X19236848Y-12537793D02*
X19284467Y-12537793D01*
X19284467Y-12537793D02*
X19303515Y-12528269D01*
X19398753Y-12480650D02*
X19398753Y-12680650D01*
X19398753Y-12490174D02*
X19417801Y-12480650D01*
X19417801Y-12480650D02*
X19455896Y-12480650D01*
X19455896Y-12480650D02*
X19474944Y-12490174D01*
X19474944Y-12490174D02*
X19484467Y-12499698D01*
X19484467Y-12499698D02*
X19493991Y-12518746D01*
X19493991Y-12518746D02*
X19493991Y-12575888D01*
X19493991Y-12575888D02*
X19484467Y-12594936D01*
X19484467Y-12594936D02*
X19474944Y-12604460D01*
X19474944Y-12604460D02*
X19455896Y-12613984D01*
X19455896Y-12613984D02*
X19417801Y-12613984D01*
X19417801Y-12613984D02*
X19398753Y-12604460D01*
X19579705Y-12594936D02*
X19589229Y-12604460D01*
X19589229Y-12604460D02*
X19579705Y-12613984D01*
X19579705Y-12613984D02*
X19570182Y-12604460D01*
X19570182Y-12604460D02*
X19579705Y-12594936D01*
X19579705Y-12594936D02*
X19579705Y-12613984D01*
X19579705Y-12490174D02*
X19589229Y-12499698D01*
X19589229Y-12499698D02*
X19579705Y-12509222D01*
X19579705Y-12509222D02*
X19570182Y-12499698D01*
X19570182Y-12499698D02*
X19579705Y-12490174D01*
X19579705Y-12490174D02*
X19579705Y-12509222D01*
M02*
