%TF.GenerationSoftware,KiCad,Pcbnew,10.0.1*%
%TF.CreationDate,2026-06-02T02:53:51+05:30*%
%TF.ProjectId,VENDETTAESC,56454e44-4554-4544-9145-53432e6b6963,rev?*%
%TF.SameCoordinates,Original*%
%TF.FileFunction,Other,User*%
%FSLAX46Y46*%
G04 Gerber Fmt 4.6, Leading zero omitted, Abs format (unit mm)*
G04 Created by KiCad (PCBNEW 10.0.1) date 2026-06-02 02:53:51*
%MOMM*%
%LPD*%
G01*
G04 APERTURE LIST*
%ADD10C,0.050000*%
G04 APERTURE END LIST*
%TO.C,Q14*%
D10*
X211948529Y-92091386D02*
X211948529Y-96141386D01*
X211948529Y-96141386D02*
X215548529Y-96141386D01*
X215548529Y-92091386D02*
X211948529Y-92091386D01*
X215548529Y-96141386D02*
X215548529Y-92091386D01*
%TO.C,C31*%
X202090000Y-101370000D02*
X204050000Y-101370000D01*
X204050000Y-104770000D01*
X202090000Y-104770000D01*
X202090000Y-101370000D01*
%TO.C,Q15*%
X207802857Y-103374892D02*
X207802857Y-106974892D01*
X207802857Y-106974892D02*
X211852857Y-106974892D01*
X211852857Y-103374892D02*
X207802857Y-103374892D01*
X211852857Y-106974892D02*
X211852857Y-103374892D01*
%TO.C,Q2*%
X187894299Y-99920000D02*
X187894299Y-103520000D01*
X187894299Y-103520000D02*
X191944299Y-103520000D01*
X191944299Y-99920000D02*
X187894299Y-99920000D01*
X191944299Y-103520000D02*
X191944299Y-99920000D01*
%TO.C,Q17*%
X187744984Y-95831471D02*
X187744984Y-99431471D01*
X187744984Y-99431471D02*
X191794984Y-99431471D01*
X191794984Y-95831471D02*
X187744984Y-95831471D01*
X191794984Y-99431471D02*
X191794984Y-95831471D01*
%TO.C,D1*%
X196215000Y-114402500D02*
X196215000Y-118527500D01*
X196215000Y-118527500D02*
X203325000Y-118527500D01*
X203325000Y-114402500D02*
X196215000Y-114402500D01*
X203325000Y-118527500D02*
X203325000Y-114402500D01*
%TO.C,C35*%
X195817500Y-105940000D02*
X197777500Y-105940000D01*
X197777500Y-109340000D01*
X195817500Y-109340000D01*
X195817500Y-105940000D01*
%TO.C,C40*%
X197910000Y-97860000D02*
X199870000Y-97860000D01*
X199870000Y-101260000D01*
X197910000Y-101260000D01*
X197910000Y-97860000D01*
%TO.C,Q6*%
X183764697Y-100349195D02*
X183764697Y-104399195D01*
X183764697Y-104399195D02*
X187364697Y-104399195D01*
X187364697Y-100349195D02*
X183764697Y-100349195D01*
X187364697Y-104399195D02*
X187364697Y-100349195D01*
%TO.C,Q10*%
X183750000Y-92035000D02*
X183750000Y-96085000D01*
X183750000Y-96085000D02*
X187350000Y-96085000D01*
X187350000Y-92035000D02*
X183750000Y-92035000D01*
X187350000Y-96085000D02*
X187350000Y-92035000D01*
%TO.C,Q5*%
X183754697Y-87989195D02*
X183754697Y-92039195D01*
X183754697Y-92039195D02*
X187354697Y-92039195D01*
X187354697Y-87989195D02*
X183754697Y-87989195D01*
X187354697Y-92039195D02*
X187354697Y-87989195D01*
%TO.C,C51*%
X201970000Y-109480000D02*
X203930000Y-109480000D01*
X203930000Y-112880000D01*
X201970000Y-112880000D01*
X201970000Y-109480000D01*
%TO.C,Q9*%
X187614299Y-91560000D02*
X187614299Y-95160000D01*
X187614299Y-95160000D02*
X191664299Y-95160000D01*
X191664299Y-91560000D02*
X187614299Y-91560000D01*
X191664299Y-95160000D02*
X191664299Y-91560000D01*
%TO.C,C56*%
X197920000Y-90850000D02*
X199880000Y-90850000D01*
X199880000Y-94250000D01*
X197920000Y-94250000D01*
X197920000Y-90850000D01*
%TO.C,C47*%
X202080000Y-94380000D02*
X204040000Y-94380000D01*
X204040000Y-97780000D01*
X202080000Y-97780000D01*
X202080000Y-94380000D01*
%TO.C,R1*%
X197965000Y-106575000D02*
X201825000Y-106575000D01*
X201825000Y-114235000D01*
X197965000Y-114235000D01*
X197965000Y-106575000D01*
%TO.C,C44*%
X195850000Y-94350000D02*
X197810000Y-94350000D01*
X197810000Y-97750000D01*
X195850000Y-97750000D01*
X195850000Y-94350000D01*
%TO.C,Q4*%
X207702857Y-99765786D02*
X207702857Y-103365786D01*
X207702857Y-103365786D02*
X211752857Y-103365786D01*
X211752857Y-99765786D02*
X207702857Y-99765786D01*
X211752857Y-103365786D02*
X211752857Y-99765786D01*
%TO.C,Q20*%
X183794697Y-108509195D02*
X183794697Y-112559195D01*
X183794697Y-112559195D02*
X187394697Y-112559195D01*
X187394697Y-108509195D02*
X183794697Y-108509195D01*
X187394697Y-112559195D02*
X187394697Y-108509195D01*
%TO.C,C58*%
X193810000Y-90820000D02*
X195770000Y-90820000D01*
X195770000Y-94220000D01*
X193810000Y-94220000D01*
X193810000Y-90820000D01*
%TO.C,C27*%
X193710000Y-101310000D02*
X195670000Y-101310000D01*
X195670000Y-104710000D01*
X193710000Y-104710000D01*
X193710000Y-101310000D01*
%TO.C,Q16*%
X211960000Y-104305701D02*
X211960000Y-108355701D01*
X211960000Y-108355701D02*
X215560000Y-108355701D01*
X215560000Y-104305701D02*
X211960000Y-104305701D01*
X215560000Y-108355701D02*
X215560000Y-104305701D01*
%TO.C,C45*%
X197910000Y-94370000D02*
X199870000Y-94370000D01*
X199870000Y-97770000D01*
X197910000Y-97770000D01*
X197910000Y-94370000D01*
%TO.C,C55*%
X200000000Y-90840000D02*
X201960000Y-90840000D01*
X201960000Y-94240000D01*
X200000000Y-94240000D01*
X200000000Y-90840000D01*
%TO.C,Q21*%
X207861386Y-95691471D02*
X207861386Y-99291471D01*
X207861386Y-99291471D02*
X211911386Y-99291471D01*
X211911386Y-95691471D02*
X207861386Y-95691471D01*
X211911386Y-99291471D02*
X211911386Y-95691471D01*
%TO.C,C53*%
X204190000Y-90900000D02*
X206150000Y-90900000D01*
X206150000Y-94300000D01*
X204190000Y-94300000D01*
X204190000Y-90900000D01*
%TO.C,C43*%
X193800000Y-94340000D02*
X195760000Y-94340000D01*
X195760000Y-97740000D01*
X193800000Y-97740000D01*
X193800000Y-94340000D01*
%TO.C,Q24*%
X211970000Y-108365701D02*
X211970000Y-112415701D01*
X211970000Y-112415701D02*
X215570000Y-112415701D01*
X215570000Y-108365701D02*
X211970000Y-108365701D01*
X215570000Y-112415701D02*
X215570000Y-108365701D01*
%TO.C,Q13*%
X207831386Y-91391471D02*
X207831386Y-94991471D01*
X207831386Y-94991471D02*
X211881386Y-94991471D01*
X211881386Y-91391471D02*
X207831386Y-91391471D01*
X211881386Y-94991471D02*
X211881386Y-91391471D01*
%TO.C,C38*%
X202020000Y-97950000D02*
X203980000Y-97950000D01*
X203980000Y-101350000D01*
X202020000Y-101350000D01*
X202020000Y-97950000D01*
%TO.C,Q7*%
X211928529Y-88031386D02*
X211928529Y-92081386D01*
X211928529Y-92081386D02*
X215528529Y-92081386D01*
X215528529Y-88031386D02*
X211928529Y-88031386D01*
X215528529Y-92081386D02*
X215528529Y-88031386D01*
%TO.C,C39*%
X199990000Y-97850000D02*
X201950000Y-97850000D01*
X201950000Y-101250000D01*
X199990000Y-101250000D01*
X199990000Y-97850000D01*
%TO.C,Q1*%
X187604782Y-87336338D02*
X187604782Y-90936338D01*
X187604782Y-90936338D02*
X191654782Y-90936338D01*
X191654782Y-87336338D02*
X187604782Y-87336338D01*
X191654782Y-90936338D02*
X191654782Y-87336338D01*
%TO.C,C48*%
X204160000Y-94390000D02*
X206120000Y-94390000D01*
X206120000Y-97790000D01*
X204160000Y-97790000D01*
X204160000Y-94390000D01*
%TO.C,C46*%
X199990000Y-94360000D02*
X201950000Y-94360000D01*
X201950000Y-97760000D01*
X199990000Y-97760000D01*
X199990000Y-94360000D01*
%TO.C,C41*%
X195850000Y-97840000D02*
X197810000Y-97840000D01*
X197810000Y-101240000D01*
X195850000Y-101240000D01*
X195850000Y-97840000D01*
%TO.C,C34*%
X195800000Y-109420000D02*
X197760000Y-109420000D01*
X197760000Y-112820000D01*
X195800000Y-112820000D01*
X195800000Y-109420000D01*
%TO.C,C37*%
X204160000Y-97880000D02*
X206120000Y-97880000D01*
X206120000Y-101280000D01*
X204160000Y-101280000D01*
X204160000Y-97880000D01*
%TO.C,Q18*%
X183766249Y-96212039D02*
X183766249Y-100262039D01*
X183766249Y-100262039D02*
X187366249Y-100262039D01*
X187366249Y-96212039D02*
X183766249Y-96212039D01*
X187366249Y-100262039D02*
X187366249Y-96212039D01*
%TO.C,C54*%
X202110000Y-90890000D02*
X204070000Y-90890000D01*
X204070000Y-94290000D01*
X202110000Y-94290000D01*
X202110000Y-90890000D01*
%TO.C,Q3*%
X207771386Y-87481471D02*
X207771386Y-91081471D01*
X207771386Y-91081471D02*
X211821386Y-91081471D01*
X211821386Y-87481471D02*
X207771386Y-87481471D01*
X211821386Y-91081471D02*
X211821386Y-87481471D01*
%TO.C,Q23*%
X207887857Y-107952824D02*
X207887857Y-111552824D01*
X207887857Y-111552824D02*
X211937857Y-111552824D01*
X211937857Y-107952824D02*
X207887857Y-107952824D01*
X211937857Y-111552824D02*
X211937857Y-107952824D01*
%TO.C,Q8*%
X211940000Y-100255701D02*
X211940000Y-104305701D01*
X211940000Y-104305701D02*
X215540000Y-104305701D01*
X215540000Y-100255701D02*
X211940000Y-100255701D01*
X215540000Y-104305701D02*
X215540000Y-100255701D01*
%TO.C,Q11*%
X187854299Y-103840000D02*
X187854299Y-107440000D01*
X187854299Y-107440000D02*
X191904299Y-107440000D01*
X191904299Y-103840000D02*
X187854299Y-103840000D01*
X191904299Y-107440000D02*
X191904299Y-103840000D01*
%TO.C,C29*%
X197920000Y-101360000D02*
X199880000Y-101360000D01*
X199880000Y-104760000D01*
X197920000Y-104760000D01*
X197920000Y-101360000D01*
%TO.C,C28*%
X195760000Y-101320000D02*
X197720000Y-101320000D01*
X197720000Y-104720000D01*
X195760000Y-104720000D01*
X195760000Y-101320000D01*
%TO.C,C32*%
X204170000Y-101380000D02*
X206130000Y-101380000D01*
X206130000Y-104780000D01*
X204170000Y-104780000D01*
X204170000Y-101380000D01*
%TO.C,C36*%
X193737500Y-105930000D02*
X195697500Y-105930000D01*
X195697500Y-109330000D01*
X193737500Y-109330000D01*
X193737500Y-105930000D01*
%TO.C,Q12*%
X183784697Y-104419195D02*
X183784697Y-108469195D01*
X183784697Y-108469195D02*
X187384697Y-108469195D01*
X187384697Y-104419195D02*
X183784697Y-104419195D01*
X187384697Y-108469195D02*
X187384697Y-104419195D01*
%TO.C,Q22*%
X211938529Y-96201386D02*
X211938529Y-100251386D01*
X211938529Y-100251386D02*
X215538529Y-100251386D01*
X215538529Y-96201386D02*
X211938529Y-96201386D01*
X215538529Y-100251386D02*
X215538529Y-96201386D01*
%TO.C,C50*%
X202007500Y-105980000D02*
X203967500Y-105980000D01*
X203967500Y-109380000D01*
X202007500Y-109380000D01*
X202007500Y-105980000D01*
%TO.C,C42*%
X193800000Y-97830000D02*
X195760000Y-97830000D01*
X195760000Y-101230000D01*
X193800000Y-101230000D01*
X193800000Y-97830000D01*
%TO.C,C49*%
X204087500Y-105990000D02*
X206047500Y-105990000D01*
X206047500Y-109390000D01*
X204087500Y-109390000D01*
X204087500Y-105990000D01*
%TO.C,C33*%
X193720000Y-109410000D02*
X195680000Y-109410000D01*
X195680000Y-112810000D01*
X193720000Y-112810000D01*
X193720000Y-109410000D01*
%TO.C,C30*%
X200000000Y-101350000D02*
X201960000Y-101350000D01*
X201960000Y-104750000D01*
X200000000Y-104750000D01*
X200000000Y-101350000D01*
%TO.C,Q19*%
X187824299Y-107940000D02*
X187824299Y-111540000D01*
X187824299Y-111540000D02*
X191874299Y-111540000D01*
X191874299Y-107940000D02*
X187824299Y-107940000D01*
X191874299Y-111540000D02*
X191874299Y-107940000D01*
%TO.C,C57*%
X195860000Y-90830000D02*
X197820000Y-90830000D01*
X197820000Y-94230000D01*
X195860000Y-94230000D01*
X195860000Y-90830000D01*
%TO.C,C52*%
X204050000Y-109490000D02*
X206010000Y-109490000D01*
X206010000Y-112890000D01*
X204050000Y-112890000D01*
X204050000Y-109490000D01*
%TD*%
M02*
